%TF.GenerationSoftware,KiCad,Pcbnew,5.1.9-73d0e3b20d~88~ubuntu20.04.1*%
%TF.CreationDate,2021-04-02T21:02:10-07:00*%
%TF.ProjectId,sonar_adapter,736f6e61-725f-4616-9461-707465722e6b,rev?*%
%TF.SameCoordinates,Original*%
%TF.FileFunction,Copper,L2,Bot*%
%TF.FilePolarity,Positive*%
%FSLAX46Y46*%
G04 Gerber Fmt 4.6, Leading zero omitted, Abs format (unit mm)*
G04 Created by KiCad (PCBNEW 5.1.9-73d0e3b20d~88~ubuntu20.04.1) date 2021-04-02 21:02:10*
%MOMM*%
%LPD*%
G01*
G04 APERTURE LIST*
%TA.AperFunction,ComponentPad*%
%ADD10O,1.700000X1.700000*%
%TD*%
%TA.AperFunction,ComponentPad*%
%ADD11R,1.700000X1.700000*%
%TD*%
%TA.AperFunction,Conductor*%
%ADD12C,0.500000*%
%TD*%
%TA.AperFunction,Conductor*%
%ADD13C,0.254000*%
%TD*%
%TA.AperFunction,Conductor*%
%ADD14C,0.100000*%
%TD*%
G04 APERTURE END LIST*
D10*
%TO.P,CN2,4*%
%TO.N,/GND*%
X103810000Y-103100000D03*
%TO.P,CN2,3*%
%TO.N,/ECHO*%
X101270000Y-103100000D03*
%TO.P,CN2,2*%
%TO.N,/TRIG*%
X98730000Y-103100000D03*
D11*
%TO.P,CN2,1*%
%TO.N,/VCC*%
X96190000Y-103100000D03*
%TD*%
D10*
%TO.P,CN1,4*%
%TO.N,/VCC*%
X103810000Y-94500000D03*
%TO.P,CN1,3*%
%TO.N,/TRIG*%
X101270000Y-94500000D03*
%TO.P,CN1,2*%
%TO.N,/ECHO*%
X98730000Y-94500000D03*
D11*
%TO.P,CN1,1*%
%TO.N,/GND*%
X96190000Y-94500000D03*
%TD*%
D12*
%TO.N,/GND*%
X96190000Y-94500000D02*
X96190000Y-94487800D01*
X96190000Y-95480000D02*
X103810000Y-103100000D01*
X96190000Y-94500000D02*
X96190000Y-95480000D01*
%TD*%
D13*
%TO.N,/GND*%
X94705000Y-94214250D02*
X94863750Y-94373000D01*
X96063000Y-94373000D01*
X96063000Y-94353000D01*
X96317000Y-94353000D01*
X96317000Y-94373000D01*
X96337000Y-94373000D01*
X96337000Y-94627000D01*
X96317000Y-94627000D01*
X96317000Y-95826250D01*
X96475750Y-95985000D01*
X97040000Y-95988072D01*
X97164482Y-95975812D01*
X97284180Y-95939502D01*
X97394494Y-95880537D01*
X97491185Y-95801185D01*
X97570537Y-95704494D01*
X97629502Y-95594180D01*
X97651513Y-95521620D01*
X97783368Y-95653475D01*
X98026589Y-95815990D01*
X98296842Y-95927932D01*
X98583740Y-95985000D01*
X98876260Y-95985000D01*
X99163158Y-95927932D01*
X99433411Y-95815990D01*
X99676632Y-95653475D01*
X99883475Y-95446632D01*
X100000000Y-95272240D01*
X100116525Y-95446632D01*
X100323368Y-95653475D01*
X100566589Y-95815990D01*
X100836842Y-95927932D01*
X101123740Y-95985000D01*
X101416260Y-95985000D01*
X101703158Y-95927932D01*
X101973411Y-95815990D01*
X102216632Y-95653475D01*
X102423475Y-95446632D01*
X102540000Y-95272240D01*
X102656525Y-95446632D01*
X102863368Y-95653475D01*
X103106589Y-95815990D01*
X103376842Y-95927932D01*
X103663740Y-95985000D01*
X103956260Y-95985000D01*
X104243158Y-95927932D01*
X104513411Y-95815990D01*
X104756632Y-95653475D01*
X104963475Y-95446632D01*
X105125990Y-95203411D01*
X105237932Y-94933158D01*
X105295000Y-94646260D01*
X105295000Y-94353740D01*
X105237932Y-94066842D01*
X105125990Y-93796589D01*
X105034724Y-93660000D01*
X105340001Y-93660000D01*
X105340000Y-106340000D01*
X94660000Y-106340000D01*
X94660000Y-102250000D01*
X94701928Y-102250000D01*
X94701928Y-103950000D01*
X94714188Y-104074482D01*
X94750498Y-104194180D01*
X94809463Y-104304494D01*
X94888815Y-104401185D01*
X94985506Y-104480537D01*
X95095820Y-104539502D01*
X95215518Y-104575812D01*
X95340000Y-104588072D01*
X97040000Y-104588072D01*
X97164482Y-104575812D01*
X97284180Y-104539502D01*
X97394494Y-104480537D01*
X97491185Y-104401185D01*
X97570537Y-104304494D01*
X97629502Y-104194180D01*
X97651513Y-104121620D01*
X97783368Y-104253475D01*
X98026589Y-104415990D01*
X98296842Y-104527932D01*
X98583740Y-104585000D01*
X98876260Y-104585000D01*
X99163158Y-104527932D01*
X99433411Y-104415990D01*
X99676632Y-104253475D01*
X99883475Y-104046632D01*
X100000000Y-103872240D01*
X100116525Y-104046632D01*
X100323368Y-104253475D01*
X100566589Y-104415990D01*
X100836842Y-104527932D01*
X101123740Y-104585000D01*
X101416260Y-104585000D01*
X101703158Y-104527932D01*
X101973411Y-104415990D01*
X102216632Y-104253475D01*
X102423475Y-104046632D01*
X102545195Y-103864466D01*
X102614822Y-103981355D01*
X102809731Y-104197588D01*
X103043080Y-104371641D01*
X103305901Y-104496825D01*
X103453110Y-104541476D01*
X103683000Y-104420155D01*
X103683000Y-103227000D01*
X103937000Y-103227000D01*
X103937000Y-104420155D01*
X104166890Y-104541476D01*
X104314099Y-104496825D01*
X104576920Y-104371641D01*
X104810269Y-104197588D01*
X105005178Y-103981355D01*
X105154157Y-103731252D01*
X105251481Y-103456891D01*
X105130814Y-103227000D01*
X103937000Y-103227000D01*
X103683000Y-103227000D01*
X103663000Y-103227000D01*
X103663000Y-102973000D01*
X103683000Y-102973000D01*
X103683000Y-101779845D01*
X103937000Y-101779845D01*
X103937000Y-102973000D01*
X105130814Y-102973000D01*
X105251481Y-102743109D01*
X105154157Y-102468748D01*
X105005178Y-102218645D01*
X104810269Y-102002412D01*
X104576920Y-101828359D01*
X104314099Y-101703175D01*
X104166890Y-101658524D01*
X103937000Y-101779845D01*
X103683000Y-101779845D01*
X103453110Y-101658524D01*
X103305901Y-101703175D01*
X103043080Y-101828359D01*
X102809731Y-102002412D01*
X102614822Y-102218645D01*
X102545195Y-102335534D01*
X102423475Y-102153368D01*
X102216632Y-101946525D01*
X101973411Y-101784010D01*
X101703158Y-101672068D01*
X101416260Y-101615000D01*
X101123740Y-101615000D01*
X100836842Y-101672068D01*
X100566589Y-101784010D01*
X100323368Y-101946525D01*
X100116525Y-102153368D01*
X100000000Y-102327760D01*
X99883475Y-102153368D01*
X99676632Y-101946525D01*
X99433411Y-101784010D01*
X99163158Y-101672068D01*
X98876260Y-101615000D01*
X98583740Y-101615000D01*
X98296842Y-101672068D01*
X98026589Y-101784010D01*
X97783368Y-101946525D01*
X97651513Y-102078380D01*
X97629502Y-102005820D01*
X97570537Y-101895506D01*
X97491185Y-101798815D01*
X97394494Y-101719463D01*
X97284180Y-101660498D01*
X97164482Y-101624188D01*
X97040000Y-101611928D01*
X95340000Y-101611928D01*
X95215518Y-101624188D01*
X95095820Y-101660498D01*
X94985506Y-101719463D01*
X94888815Y-101798815D01*
X94809463Y-101895506D01*
X94750498Y-102005820D01*
X94714188Y-102125518D01*
X94701928Y-102250000D01*
X94660000Y-102250000D01*
X94660000Y-95350000D01*
X94701928Y-95350000D01*
X94714188Y-95474482D01*
X94750498Y-95594180D01*
X94809463Y-95704494D01*
X94888815Y-95801185D01*
X94985506Y-95880537D01*
X95095820Y-95939502D01*
X95215518Y-95975812D01*
X95340000Y-95988072D01*
X95904250Y-95985000D01*
X96063000Y-95826250D01*
X96063000Y-94627000D01*
X94863750Y-94627000D01*
X94705000Y-94785750D01*
X94701928Y-95350000D01*
X94660000Y-95350000D01*
X94660000Y-93660000D01*
X94701982Y-93660000D01*
X94705000Y-94214250D01*
%TA.AperFunction,Conductor*%
D14*
G36*
X94705000Y-94214250D02*
G01*
X94863750Y-94373000D01*
X96063000Y-94373000D01*
X96063000Y-94353000D01*
X96317000Y-94353000D01*
X96317000Y-94373000D01*
X96337000Y-94373000D01*
X96337000Y-94627000D01*
X96317000Y-94627000D01*
X96317000Y-95826250D01*
X96475750Y-95985000D01*
X97040000Y-95988072D01*
X97164482Y-95975812D01*
X97284180Y-95939502D01*
X97394494Y-95880537D01*
X97491185Y-95801185D01*
X97570537Y-95704494D01*
X97629502Y-95594180D01*
X97651513Y-95521620D01*
X97783368Y-95653475D01*
X98026589Y-95815990D01*
X98296842Y-95927932D01*
X98583740Y-95985000D01*
X98876260Y-95985000D01*
X99163158Y-95927932D01*
X99433411Y-95815990D01*
X99676632Y-95653475D01*
X99883475Y-95446632D01*
X100000000Y-95272240D01*
X100116525Y-95446632D01*
X100323368Y-95653475D01*
X100566589Y-95815990D01*
X100836842Y-95927932D01*
X101123740Y-95985000D01*
X101416260Y-95985000D01*
X101703158Y-95927932D01*
X101973411Y-95815990D01*
X102216632Y-95653475D01*
X102423475Y-95446632D01*
X102540000Y-95272240D01*
X102656525Y-95446632D01*
X102863368Y-95653475D01*
X103106589Y-95815990D01*
X103376842Y-95927932D01*
X103663740Y-95985000D01*
X103956260Y-95985000D01*
X104243158Y-95927932D01*
X104513411Y-95815990D01*
X104756632Y-95653475D01*
X104963475Y-95446632D01*
X105125990Y-95203411D01*
X105237932Y-94933158D01*
X105295000Y-94646260D01*
X105295000Y-94353740D01*
X105237932Y-94066842D01*
X105125990Y-93796589D01*
X105034724Y-93660000D01*
X105340001Y-93660000D01*
X105340000Y-106340000D01*
X94660000Y-106340000D01*
X94660000Y-102250000D01*
X94701928Y-102250000D01*
X94701928Y-103950000D01*
X94714188Y-104074482D01*
X94750498Y-104194180D01*
X94809463Y-104304494D01*
X94888815Y-104401185D01*
X94985506Y-104480537D01*
X95095820Y-104539502D01*
X95215518Y-104575812D01*
X95340000Y-104588072D01*
X97040000Y-104588072D01*
X97164482Y-104575812D01*
X97284180Y-104539502D01*
X97394494Y-104480537D01*
X97491185Y-104401185D01*
X97570537Y-104304494D01*
X97629502Y-104194180D01*
X97651513Y-104121620D01*
X97783368Y-104253475D01*
X98026589Y-104415990D01*
X98296842Y-104527932D01*
X98583740Y-104585000D01*
X98876260Y-104585000D01*
X99163158Y-104527932D01*
X99433411Y-104415990D01*
X99676632Y-104253475D01*
X99883475Y-104046632D01*
X100000000Y-103872240D01*
X100116525Y-104046632D01*
X100323368Y-104253475D01*
X100566589Y-104415990D01*
X100836842Y-104527932D01*
X101123740Y-104585000D01*
X101416260Y-104585000D01*
X101703158Y-104527932D01*
X101973411Y-104415990D01*
X102216632Y-104253475D01*
X102423475Y-104046632D01*
X102545195Y-103864466D01*
X102614822Y-103981355D01*
X102809731Y-104197588D01*
X103043080Y-104371641D01*
X103305901Y-104496825D01*
X103453110Y-104541476D01*
X103683000Y-104420155D01*
X103683000Y-103227000D01*
X103937000Y-103227000D01*
X103937000Y-104420155D01*
X104166890Y-104541476D01*
X104314099Y-104496825D01*
X104576920Y-104371641D01*
X104810269Y-104197588D01*
X105005178Y-103981355D01*
X105154157Y-103731252D01*
X105251481Y-103456891D01*
X105130814Y-103227000D01*
X103937000Y-103227000D01*
X103683000Y-103227000D01*
X103663000Y-103227000D01*
X103663000Y-102973000D01*
X103683000Y-102973000D01*
X103683000Y-101779845D01*
X103937000Y-101779845D01*
X103937000Y-102973000D01*
X105130814Y-102973000D01*
X105251481Y-102743109D01*
X105154157Y-102468748D01*
X105005178Y-102218645D01*
X104810269Y-102002412D01*
X104576920Y-101828359D01*
X104314099Y-101703175D01*
X104166890Y-101658524D01*
X103937000Y-101779845D01*
X103683000Y-101779845D01*
X103453110Y-101658524D01*
X103305901Y-101703175D01*
X103043080Y-101828359D01*
X102809731Y-102002412D01*
X102614822Y-102218645D01*
X102545195Y-102335534D01*
X102423475Y-102153368D01*
X102216632Y-101946525D01*
X101973411Y-101784010D01*
X101703158Y-101672068D01*
X101416260Y-101615000D01*
X101123740Y-101615000D01*
X100836842Y-101672068D01*
X100566589Y-101784010D01*
X100323368Y-101946525D01*
X100116525Y-102153368D01*
X100000000Y-102327760D01*
X99883475Y-102153368D01*
X99676632Y-101946525D01*
X99433411Y-101784010D01*
X99163158Y-101672068D01*
X98876260Y-101615000D01*
X98583740Y-101615000D01*
X98296842Y-101672068D01*
X98026589Y-101784010D01*
X97783368Y-101946525D01*
X97651513Y-102078380D01*
X97629502Y-102005820D01*
X97570537Y-101895506D01*
X97491185Y-101798815D01*
X97394494Y-101719463D01*
X97284180Y-101660498D01*
X97164482Y-101624188D01*
X97040000Y-101611928D01*
X95340000Y-101611928D01*
X95215518Y-101624188D01*
X95095820Y-101660498D01*
X94985506Y-101719463D01*
X94888815Y-101798815D01*
X94809463Y-101895506D01*
X94750498Y-102005820D01*
X94714188Y-102125518D01*
X94701928Y-102250000D01*
X94660000Y-102250000D01*
X94660000Y-95350000D01*
X94701928Y-95350000D01*
X94714188Y-95474482D01*
X94750498Y-95594180D01*
X94809463Y-95704494D01*
X94888815Y-95801185D01*
X94985506Y-95880537D01*
X95095820Y-95939502D01*
X95215518Y-95975812D01*
X95340000Y-95988072D01*
X95904250Y-95985000D01*
X96063000Y-95826250D01*
X96063000Y-94627000D01*
X94863750Y-94627000D01*
X94705000Y-94785750D01*
X94701928Y-95350000D01*
X94660000Y-95350000D01*
X94660000Y-93660000D01*
X94701982Y-93660000D01*
X94705000Y-94214250D01*
G37*
%TD.AperFunction*%
%TD*%
M02*
