%TF.GenerationSoftware,KiCad,Pcbnew,5.1.9-73d0e3b20d~88~ubuntu20.04.1*%
%TF.CreationDate,2021-04-02T21:02:10-07:00*%
%TF.ProjectId,sonar_adapter,736f6e61-725f-4616-9461-707465722e6b,rev?*%
%TF.SameCoordinates,Original*%
%TF.FileFunction,Legend,Top*%
%TF.FilePolarity,Positive*%
%FSLAX46Y46*%
G04 Gerber Fmt 4.6, Leading zero omitted, Abs format (unit mm)*
G04 Created by KiCad (PCBNEW 5.1.9-73d0e3b20d~88~ubuntu20.04.1) date 2021-04-02 21:02:10*
%MOMM*%
%LPD*%
G01*
G04 APERTURE LIST*
%ADD10C,0.150000*%
%ADD11C,0.120000*%
G04 APERTURE END LIST*
D10*
X97636800Y-105045314D02*
X97672514Y-105009600D01*
X97743942Y-104973885D01*
X97922514Y-104973885D01*
X97993942Y-105009600D01*
X98029657Y-105045314D01*
X98065371Y-105116742D01*
X98065371Y-105188171D01*
X98029657Y-105295314D01*
X97601085Y-105723885D01*
X98065371Y-105723885D01*
X98493942Y-105295314D02*
X98422514Y-105259600D01*
X98386800Y-105223885D01*
X98351085Y-105152457D01*
X98351085Y-105116742D01*
X98386800Y-105045314D01*
X98422514Y-105009600D01*
X98493942Y-104973885D01*
X98636800Y-104973885D01*
X98708228Y-105009600D01*
X98743942Y-105045314D01*
X98779657Y-105116742D01*
X98779657Y-105152457D01*
X98743942Y-105223885D01*
X98708228Y-105259600D01*
X98636800Y-105295314D01*
X98493942Y-105295314D01*
X98422514Y-105331028D01*
X98386800Y-105366742D01*
X98351085Y-105438171D01*
X98351085Y-105581028D01*
X98386800Y-105652457D01*
X98422514Y-105688171D01*
X98493942Y-105723885D01*
X98636800Y-105723885D01*
X98708228Y-105688171D01*
X98743942Y-105652457D01*
X98779657Y-105581028D01*
X98779657Y-105438171D01*
X98743942Y-105366742D01*
X98708228Y-105331028D01*
X98636800Y-105295314D01*
X99101085Y-105723885D02*
X99101085Y-104973885D01*
X99351085Y-105509600D01*
X99601085Y-104973885D01*
X99601085Y-105723885D01*
X99922514Y-105509600D02*
X100279657Y-105509600D01*
X99851085Y-105723885D02*
X100101085Y-104973885D01*
X100351085Y-105723885D01*
X101029657Y-105723885D02*
X100779657Y-105366742D01*
X100601085Y-105723885D02*
X100601085Y-104973885D01*
X100886800Y-104973885D01*
X100958228Y-105009600D01*
X100993942Y-105045314D01*
X101029657Y-105116742D01*
X101029657Y-105223885D01*
X100993942Y-105295314D01*
X100958228Y-105331028D01*
X100886800Y-105366742D01*
X100601085Y-105366742D01*
X101315371Y-105045314D02*
X101351085Y-105009600D01*
X101422514Y-104973885D01*
X101601085Y-104973885D01*
X101672514Y-105009600D01*
X101708228Y-105045314D01*
X101743942Y-105116742D01*
X101743942Y-105188171D01*
X101708228Y-105295314D01*
X101279657Y-105723885D01*
X101743942Y-105723885D01*
X102208228Y-104973885D02*
X102279657Y-104973885D01*
X102351085Y-105009600D01*
X102386800Y-105045314D01*
X102422514Y-105116742D01*
X102458228Y-105259600D01*
X102458228Y-105438171D01*
X102422514Y-105581028D01*
X102386800Y-105652457D01*
X102351085Y-105688171D01*
X102279657Y-105723885D01*
X102208228Y-105723885D01*
X102136800Y-105688171D01*
X102101085Y-105652457D01*
X102065371Y-105581028D01*
X102029657Y-105438171D01*
X102029657Y-105259600D01*
X102065371Y-105116742D01*
X102101085Y-105045314D01*
X102136800Y-105009600D01*
X102208228Y-104973885D01*
X102743942Y-105045314D02*
X102779657Y-105009600D01*
X102851085Y-104973885D01*
X103029657Y-104973885D01*
X103101085Y-105009600D01*
X103136800Y-105045314D01*
X103172514Y-105116742D01*
X103172514Y-105188171D01*
X103136800Y-105295314D01*
X102708228Y-105723885D01*
X103172514Y-105723885D01*
X103886800Y-105723885D02*
X103458228Y-105723885D01*
X103672514Y-105723885D02*
X103672514Y-104973885D01*
X103601085Y-105081028D01*
X103529657Y-105152457D01*
X103458228Y-105188171D01*
X96400200Y-106754971D02*
X96507342Y-106790685D01*
X96685914Y-106790685D01*
X96757342Y-106754971D01*
X96793057Y-106719257D01*
X96828771Y-106647828D01*
X96828771Y-106576400D01*
X96793057Y-106504971D01*
X96757342Y-106469257D01*
X96685914Y-106433542D01*
X96543057Y-106397828D01*
X96471628Y-106362114D01*
X96435914Y-106326400D01*
X96400200Y-106254971D01*
X96400200Y-106183542D01*
X96435914Y-106112114D01*
X96471628Y-106076400D01*
X96543057Y-106040685D01*
X96721628Y-106040685D01*
X96828771Y-106076400D01*
X97293057Y-106040685D02*
X97435914Y-106040685D01*
X97507342Y-106076400D01*
X97578771Y-106147828D01*
X97614485Y-106290685D01*
X97614485Y-106540685D01*
X97578771Y-106683542D01*
X97507342Y-106754971D01*
X97435914Y-106790685D01*
X97293057Y-106790685D01*
X97221628Y-106754971D01*
X97150200Y-106683542D01*
X97114485Y-106540685D01*
X97114485Y-106290685D01*
X97150200Y-106147828D01*
X97221628Y-106076400D01*
X97293057Y-106040685D01*
X97935914Y-106790685D02*
X97935914Y-106040685D01*
X98364485Y-106790685D01*
X98364485Y-106040685D01*
X98685914Y-106576400D02*
X99043057Y-106576400D01*
X98614485Y-106790685D02*
X98864485Y-106040685D01*
X99114485Y-106790685D01*
X99793057Y-106790685D02*
X99543057Y-106433542D01*
X99364485Y-106790685D02*
X99364485Y-106040685D01*
X99650200Y-106040685D01*
X99721628Y-106076400D01*
X99757342Y-106112114D01*
X99793057Y-106183542D01*
X99793057Y-106290685D01*
X99757342Y-106362114D01*
X99721628Y-106397828D01*
X99650200Y-106433542D01*
X99364485Y-106433542D01*
X101114485Y-106790685D02*
X100864485Y-106433542D01*
X100685914Y-106790685D02*
X100685914Y-106040685D01*
X100971628Y-106040685D01*
X101043057Y-106076400D01*
X101078771Y-106112114D01*
X101114485Y-106183542D01*
X101114485Y-106290685D01*
X101078771Y-106362114D01*
X101043057Y-106397828D01*
X100971628Y-106433542D01*
X100685914Y-106433542D01*
X101435914Y-106397828D02*
X101685914Y-106397828D01*
X101793057Y-106790685D02*
X101435914Y-106790685D01*
X101435914Y-106040685D01*
X101793057Y-106040685D01*
X102007342Y-106040685D02*
X102257342Y-106790685D01*
X102507342Y-106040685D01*
X103293057Y-106576400D02*
X103650200Y-106576400D01*
X103221628Y-106790685D02*
X103471628Y-106040685D01*
X103721628Y-106790685D01*
D11*
%TO.C,CN2*%
X94920000Y-104370000D02*
X94920000Y-103100000D01*
X96190000Y-104370000D02*
X94920000Y-104370000D01*
X104190000Y-102057071D02*
X104190000Y-101660000D01*
X103430000Y-102057071D02*
X103430000Y-101660000D01*
X104190000Y-93000000D02*
X104190000Y-99000000D01*
X103430000Y-93000000D02*
X104190000Y-93000000D01*
X103430000Y-99000000D02*
X103430000Y-93000000D01*
X102540000Y-101660000D02*
X102540000Y-99000000D01*
X101650000Y-102057071D02*
X101650000Y-101660000D01*
X100890000Y-102057071D02*
X100890000Y-101660000D01*
X101650000Y-93000000D02*
X101650000Y-99000000D01*
X100890000Y-93000000D02*
X101650000Y-93000000D01*
X100890000Y-99000000D02*
X100890000Y-93000000D01*
X100000000Y-101660000D02*
X100000000Y-99000000D01*
X99110000Y-102057071D02*
X99110000Y-101660000D01*
X98350000Y-102057071D02*
X98350000Y-101660000D01*
X99110000Y-93000000D02*
X99110000Y-99000000D01*
X98350000Y-93000000D02*
X99110000Y-93000000D01*
X98350000Y-99000000D02*
X98350000Y-93000000D01*
X97460000Y-101660000D02*
X97460000Y-99000000D01*
X96570000Y-101990000D02*
X96570000Y-101660000D01*
X95810000Y-101990000D02*
X95810000Y-101660000D01*
X96470000Y-99000000D02*
X96470000Y-93000000D01*
X96350000Y-99000000D02*
X96350000Y-93000000D01*
X96230000Y-99000000D02*
X96230000Y-93000000D01*
X96110000Y-99000000D02*
X96110000Y-93000000D01*
X95990000Y-99000000D02*
X95990000Y-93000000D01*
X95870000Y-99000000D02*
X95870000Y-93000000D01*
X96570000Y-93000000D02*
X96570000Y-99000000D01*
X95810000Y-93000000D02*
X96570000Y-93000000D01*
X95810000Y-99000000D02*
X95810000Y-93000000D01*
X94860000Y-99000000D02*
X94860000Y-101660000D01*
X105140000Y-99000000D02*
X94860000Y-99000000D01*
X105140000Y-101660000D02*
X105140000Y-99000000D01*
X94860000Y-101660000D02*
X105140000Y-101660000D01*
D10*
X95189342Y-105347657D02*
X95153628Y-105383371D01*
X95046485Y-105419085D01*
X94975057Y-105419085D01*
X94867914Y-105383371D01*
X94796485Y-105311942D01*
X94760771Y-105240514D01*
X94725057Y-105097657D01*
X94725057Y-104990514D01*
X94760771Y-104847657D01*
X94796485Y-104776228D01*
X94867914Y-104704800D01*
X94975057Y-104669085D01*
X95046485Y-104669085D01*
X95153628Y-104704800D01*
X95189342Y-104740514D01*
X95510771Y-105419085D02*
X95510771Y-104669085D01*
X95939342Y-105419085D01*
X95939342Y-104669085D01*
X96260771Y-104740514D02*
X96296485Y-104704800D01*
X96367914Y-104669085D01*
X96546485Y-104669085D01*
X96617914Y-104704800D01*
X96653628Y-104740514D01*
X96689342Y-104811942D01*
X96689342Y-104883371D01*
X96653628Y-104990514D01*
X96225057Y-105419085D01*
X96689342Y-105419085D01*
%TD*%
M02*
