%TF.GenerationSoftware,KiCad,Pcbnew,5.1.9-73d0e3b20d~88~ubuntu20.04.1*%
%TF.CreationDate,2021-04-02T20:19:58-07:00*%
%TF.ProjectId,encoder,656e636f-6465-4722-9e6b-696361645f70,rev?*%
%TF.SameCoordinates,Original*%
%TF.FileFunction,Legend,Top*%
%TF.FilePolarity,Positive*%
%FSLAX46Y46*%
G04 Gerber Fmt 4.6, Leading zero omitted, Abs format (unit mm)*
G04 Created by KiCad (PCBNEW 5.1.9-73d0e3b20d~88~ubuntu20.04.1) date 2021-04-02 20:19:58*
%MOMM*%
%LPD*%
G01*
G04 APERTURE LIST*
%ADD10C,0.150000*%
%ADD11C,0.120000*%
G04 APERTURE END LIST*
D10*
X92411785Y-104810285D02*
X91661785Y-104810285D01*
X92018928Y-104810285D02*
X92018928Y-104381714D01*
X92411785Y-104381714D02*
X91661785Y-104381714D01*
X92411785Y-103596000D02*
X92054642Y-103846000D01*
X92411785Y-104024571D02*
X91661785Y-104024571D01*
X91661785Y-103738857D01*
X91697500Y-103667428D01*
X91733214Y-103631714D01*
X91804642Y-103596000D01*
X91911785Y-103596000D01*
X91983214Y-103631714D01*
X92018928Y-103667428D01*
X92054642Y-103738857D01*
X92054642Y-104024571D01*
X91733214Y-103310285D02*
X91697500Y-103274571D01*
X91661785Y-103203142D01*
X91661785Y-103024571D01*
X91697500Y-102953142D01*
X91733214Y-102917428D01*
X91804642Y-102881714D01*
X91876071Y-102881714D01*
X91983214Y-102917428D01*
X92411785Y-103346000D01*
X92411785Y-102881714D01*
X92018928Y-101988857D02*
X92018928Y-101738857D01*
X92411785Y-101631714D02*
X92411785Y-101988857D01*
X91661785Y-101988857D01*
X91661785Y-101631714D01*
X91911785Y-101310285D02*
X92411785Y-101310285D01*
X91983214Y-101310285D02*
X91947500Y-101274571D01*
X91911785Y-101203142D01*
X91911785Y-101096000D01*
X91947500Y-101024571D01*
X92018928Y-100988857D01*
X92411785Y-100988857D01*
X92376071Y-100310285D02*
X92411785Y-100381714D01*
X92411785Y-100524571D01*
X92376071Y-100596000D01*
X92340357Y-100631714D01*
X92268928Y-100667428D01*
X92054642Y-100667428D01*
X91983214Y-100631714D01*
X91947500Y-100596000D01*
X91911785Y-100524571D01*
X91911785Y-100381714D01*
X91947500Y-100310285D01*
X92411785Y-99881714D02*
X92376071Y-99953142D01*
X92340357Y-99988857D01*
X92268928Y-100024571D01*
X92054642Y-100024571D01*
X91983214Y-99988857D01*
X91947500Y-99953142D01*
X91911785Y-99881714D01*
X91911785Y-99774571D01*
X91947500Y-99703142D01*
X91983214Y-99667428D01*
X92054642Y-99631714D01*
X92268928Y-99631714D01*
X92340357Y-99667428D01*
X92376071Y-99703142D01*
X92411785Y-99774571D01*
X92411785Y-99881714D01*
X92411785Y-98988857D02*
X91661785Y-98988857D01*
X92376071Y-98988857D02*
X92411785Y-99060285D01*
X92411785Y-99203142D01*
X92376071Y-99274571D01*
X92340357Y-99310285D01*
X92268928Y-99346000D01*
X92054642Y-99346000D01*
X91983214Y-99310285D01*
X91947500Y-99274571D01*
X91911785Y-99203142D01*
X91911785Y-99060285D01*
X91947500Y-98988857D01*
X92376071Y-98346000D02*
X92411785Y-98417428D01*
X92411785Y-98560285D01*
X92376071Y-98631714D01*
X92304642Y-98667428D01*
X92018928Y-98667428D01*
X91947500Y-98631714D01*
X91911785Y-98560285D01*
X91911785Y-98417428D01*
X91947500Y-98346000D01*
X92018928Y-98310285D01*
X92090357Y-98310285D01*
X92161785Y-98667428D01*
X92411785Y-97988857D02*
X91911785Y-97988857D01*
X92054642Y-97988857D02*
X91983214Y-97953142D01*
X91947500Y-97917428D01*
X91911785Y-97846000D01*
X91911785Y-97774571D01*
X93686785Y-106060285D02*
X93329642Y-106310285D01*
X93686785Y-106488857D02*
X92936785Y-106488857D01*
X92936785Y-106203142D01*
X92972500Y-106131714D01*
X93008214Y-106096000D01*
X93079642Y-106060285D01*
X93186785Y-106060285D01*
X93258214Y-106096000D01*
X93293928Y-106131714D01*
X93329642Y-106203142D01*
X93329642Y-106488857D01*
X93651071Y-105453142D02*
X93686785Y-105524571D01*
X93686785Y-105667428D01*
X93651071Y-105738857D01*
X93579642Y-105774571D01*
X93293928Y-105774571D01*
X93222500Y-105738857D01*
X93186785Y-105667428D01*
X93186785Y-105524571D01*
X93222500Y-105453142D01*
X93293928Y-105417428D01*
X93365357Y-105417428D01*
X93436785Y-105774571D01*
X93186785Y-105167428D02*
X93686785Y-104988857D01*
X93186785Y-104810285D01*
X93615357Y-103524571D02*
X93651071Y-103560285D01*
X93686785Y-103667428D01*
X93686785Y-103738857D01*
X93651071Y-103846000D01*
X93579642Y-103917428D01*
X93508214Y-103953142D01*
X93365357Y-103988857D01*
X93258214Y-103988857D01*
X93115357Y-103953142D01*
X93043928Y-103917428D01*
X92972500Y-103846000D01*
X92936785Y-103738857D01*
X92936785Y-103667428D01*
X92972500Y-103560285D01*
X93008214Y-103524571D01*
X93615357Y-103203142D02*
X93651071Y-103167428D01*
X93686785Y-103203142D01*
X93651071Y-103238857D01*
X93615357Y-103203142D01*
X93686785Y-103203142D01*
X93222500Y-103203142D02*
X93258214Y-103167428D01*
X93293928Y-103203142D01*
X93258214Y-103238857D01*
X93222500Y-103203142D01*
X93293928Y-103203142D01*
X93008214Y-102310285D02*
X92972500Y-102274571D01*
X92936785Y-102203142D01*
X92936785Y-102024571D01*
X92972500Y-101953142D01*
X93008214Y-101917428D01*
X93079642Y-101881714D01*
X93151071Y-101881714D01*
X93258214Y-101917428D01*
X93686785Y-102346000D01*
X93686785Y-101881714D01*
X92936785Y-101417428D02*
X92936785Y-101346000D01*
X92972500Y-101274571D01*
X93008214Y-101238857D01*
X93079642Y-101203142D01*
X93222500Y-101167428D01*
X93401071Y-101167428D01*
X93543928Y-101203142D01*
X93615357Y-101238857D01*
X93651071Y-101274571D01*
X93686785Y-101346000D01*
X93686785Y-101417428D01*
X93651071Y-101488857D01*
X93615357Y-101524571D01*
X93543928Y-101560285D01*
X93401071Y-101596000D01*
X93222500Y-101596000D01*
X93079642Y-101560285D01*
X93008214Y-101524571D01*
X92972500Y-101488857D01*
X92936785Y-101417428D01*
X93008214Y-100881714D02*
X92972500Y-100846000D01*
X92936785Y-100774571D01*
X92936785Y-100596000D01*
X92972500Y-100524571D01*
X93008214Y-100488857D01*
X93079642Y-100453142D01*
X93151071Y-100453142D01*
X93258214Y-100488857D01*
X93686785Y-100917428D01*
X93686785Y-100453142D01*
X93686785Y-99738857D02*
X93686785Y-100167428D01*
X93686785Y-99953142D02*
X92936785Y-99953142D01*
X93043928Y-100024571D01*
X93115357Y-100096000D01*
X93151071Y-100167428D01*
X93472500Y-99453142D02*
X93472500Y-99096000D01*
X93686785Y-99524571D02*
X92936785Y-99274571D01*
X93686785Y-99024571D01*
X93686785Y-98774571D02*
X92936785Y-98774571D01*
X92936785Y-98488857D01*
X92972500Y-98417428D01*
X93008214Y-98381714D01*
X93079642Y-98346000D01*
X93186785Y-98346000D01*
X93258214Y-98381714D01*
X93293928Y-98417428D01*
X93329642Y-98488857D01*
X93329642Y-98774571D01*
X93686785Y-97596000D02*
X93329642Y-97846000D01*
X93686785Y-98024571D02*
X92936785Y-98024571D01*
X92936785Y-97738857D01*
X92972500Y-97667428D01*
X93008214Y-97631714D01*
X93079642Y-97596000D01*
X93186785Y-97596000D01*
X93258214Y-97631714D01*
X93293928Y-97667428D01*
X93329642Y-97738857D01*
X93329642Y-98024571D01*
X92936785Y-97131714D02*
X92936785Y-97060285D01*
X92972500Y-96988857D01*
X93008214Y-96953142D01*
X93079642Y-96917428D01*
X93222500Y-96881714D01*
X93401071Y-96881714D01*
X93543928Y-96917428D01*
X93615357Y-96953142D01*
X93651071Y-96988857D01*
X93686785Y-97060285D01*
X93686785Y-97131714D01*
X93651071Y-97203142D01*
X93615357Y-97238857D01*
X93543928Y-97274571D01*
X93401071Y-97310285D01*
X93222500Y-97310285D01*
X93079642Y-97274571D01*
X93008214Y-97238857D01*
X92972500Y-97203142D01*
X92936785Y-97131714D01*
X93008214Y-96596000D02*
X92972500Y-96560285D01*
X92936785Y-96488857D01*
X92936785Y-96310285D01*
X92972500Y-96238857D01*
X93008214Y-96203142D01*
X93079642Y-96167428D01*
X93151071Y-96167428D01*
X93258214Y-96203142D01*
X93686785Y-96631714D01*
X93686785Y-96167428D01*
X96432257Y-86821057D02*
X96467971Y-86856771D01*
X96503685Y-86963914D01*
X96503685Y-87035342D01*
X96467971Y-87142485D01*
X96396542Y-87213914D01*
X96325114Y-87249628D01*
X96182257Y-87285342D01*
X96075114Y-87285342D01*
X95932257Y-87249628D01*
X95860828Y-87213914D01*
X95789400Y-87142485D01*
X95753685Y-87035342D01*
X95753685Y-86963914D01*
X95789400Y-86856771D01*
X95825114Y-86821057D01*
X96503685Y-86499628D02*
X95753685Y-86499628D01*
X96503685Y-86071057D01*
X95753685Y-86071057D01*
X96503685Y-85321057D02*
X96503685Y-85749628D01*
X96503685Y-85535342D02*
X95753685Y-85535342D01*
X95860828Y-85606771D01*
X95932257Y-85678200D01*
X95967971Y-85749628D01*
X96110828Y-84749628D02*
X96146542Y-84642485D01*
X96182257Y-84606771D01*
X96253685Y-84571057D01*
X96360828Y-84571057D01*
X96432257Y-84606771D01*
X96467971Y-84642485D01*
X96503685Y-84713914D01*
X96503685Y-84999628D01*
X95753685Y-84999628D01*
X95753685Y-84749628D01*
X95789400Y-84678200D01*
X95825114Y-84642485D01*
X95896542Y-84606771D01*
X95967971Y-84606771D01*
X96039400Y-84642485D01*
X96075114Y-84678200D01*
X96110828Y-84749628D01*
X96110828Y-84999628D01*
X94065000Y-120468571D02*
X94065000Y-120111428D01*
X94279285Y-120540000D02*
X93529285Y-120290000D01*
X94279285Y-120040000D01*
D11*
%TO.C,C2*%
X97509420Y-109806200D02*
X97790580Y-109806200D01*
X97509420Y-108786200D02*
X97790580Y-108786200D01*
%TO.C,C1*%
X93524800Y-88659580D02*
X93524800Y-88378420D01*
X92504800Y-88659580D02*
X92504800Y-88378420D01*
%TO.C,R2*%
X93022500Y-93762742D02*
X93022500Y-94237258D01*
X91977500Y-93762742D02*
X91977500Y-94237258D01*
%TO.C,R1*%
X95422500Y-108262742D02*
X95422500Y-108737258D01*
X94377500Y-108262742D02*
X94377500Y-108737258D01*
%TO.C,Q2*%
X97379828Y-101545370D02*
X96722218Y-102202979D01*
X95145370Y-103779828D02*
X95802979Y-103122218D01*
X95145370Y-103779828D02*
X96672721Y-105307178D01*
X97379828Y-101545370D02*
X98412203Y-102577746D01*
%TO.C,Q1*%
X95145370Y-96220172D02*
X95802979Y-96877782D01*
X97379828Y-98454630D02*
X96722218Y-97797021D01*
X97379828Y-98454630D02*
X98907178Y-96927279D01*
X95145370Y-96220172D02*
X96177746Y-95187797D01*
%TO.C,C2*%
D10*
X100140657Y-109421200D02*
X100176371Y-109456914D01*
X100212085Y-109564057D01*
X100212085Y-109635485D01*
X100176371Y-109742628D01*
X100104942Y-109814057D01*
X100033514Y-109849771D01*
X99890657Y-109885485D01*
X99783514Y-109885485D01*
X99640657Y-109849771D01*
X99569228Y-109814057D01*
X99497800Y-109742628D01*
X99462085Y-109635485D01*
X99462085Y-109564057D01*
X99497800Y-109456914D01*
X99533514Y-109421200D01*
X99533514Y-109135485D02*
X99497800Y-109099771D01*
X99462085Y-109028342D01*
X99462085Y-108849771D01*
X99497800Y-108778342D01*
X99533514Y-108742628D01*
X99604942Y-108706914D01*
X99676371Y-108706914D01*
X99783514Y-108742628D01*
X100212085Y-109171200D01*
X100212085Y-108706914D01*
%TO.C,C1*%
X94781257Y-88669400D02*
X94816971Y-88705114D01*
X94852685Y-88812257D01*
X94852685Y-88883685D01*
X94816971Y-88990828D01*
X94745542Y-89062257D01*
X94674114Y-89097971D01*
X94531257Y-89133685D01*
X94424114Y-89133685D01*
X94281257Y-89097971D01*
X94209828Y-89062257D01*
X94138400Y-88990828D01*
X94102685Y-88883685D01*
X94102685Y-88812257D01*
X94138400Y-88705114D01*
X94174114Y-88669400D01*
X94852685Y-87955114D02*
X94852685Y-88383685D01*
X94852685Y-88169400D02*
X94102685Y-88169400D01*
X94209828Y-88240828D01*
X94281257Y-88312257D01*
X94316971Y-88383685D01*
%TO.C,CN1*%
X96330657Y-114208257D02*
X96366371Y-114243971D01*
X96402085Y-114351114D01*
X96402085Y-114422542D01*
X96366371Y-114529685D01*
X96294942Y-114601114D01*
X96223514Y-114636828D01*
X96080657Y-114672542D01*
X95973514Y-114672542D01*
X95830657Y-114636828D01*
X95759228Y-114601114D01*
X95687800Y-114529685D01*
X95652085Y-114422542D01*
X95652085Y-114351114D01*
X95687800Y-114243971D01*
X95723514Y-114208257D01*
X96402085Y-113886828D02*
X95652085Y-113886828D01*
X96402085Y-113458257D01*
X95652085Y-113458257D01*
X96402085Y-112708257D02*
X96402085Y-113136828D01*
X96402085Y-112922542D02*
X95652085Y-112922542D01*
X95759228Y-112993971D01*
X95830657Y-113065400D01*
X95866371Y-113136828D01*
%TO.C,R2*%
X92871485Y-91742800D02*
X92514342Y-91992800D01*
X92871485Y-92171371D02*
X92121485Y-92171371D01*
X92121485Y-91885657D01*
X92157200Y-91814228D01*
X92192914Y-91778514D01*
X92264342Y-91742800D01*
X92371485Y-91742800D01*
X92442914Y-91778514D01*
X92478628Y-91814228D01*
X92514342Y-91885657D01*
X92514342Y-92171371D01*
X92192914Y-91457085D02*
X92157200Y-91421371D01*
X92121485Y-91349942D01*
X92121485Y-91171371D01*
X92157200Y-91099942D01*
X92192914Y-91064228D01*
X92264342Y-91028514D01*
X92335771Y-91028514D01*
X92442914Y-91064228D01*
X92871485Y-91492800D01*
X92871485Y-91028514D01*
%TO.C,R1*%
X94293885Y-110869000D02*
X93936742Y-111119000D01*
X94293885Y-111297571D02*
X93543885Y-111297571D01*
X93543885Y-111011857D01*
X93579600Y-110940428D01*
X93615314Y-110904714D01*
X93686742Y-110869000D01*
X93793885Y-110869000D01*
X93865314Y-110904714D01*
X93901028Y-110940428D01*
X93936742Y-111011857D01*
X93936742Y-111297571D01*
X94293885Y-110154714D02*
X94293885Y-110583285D01*
X94293885Y-110369000D02*
X93543885Y-110369000D01*
X93651028Y-110440428D01*
X93722457Y-110511857D01*
X93758171Y-110583285D01*
%TO.C,Q2*%
X96270314Y-106141828D02*
X96234600Y-106213257D01*
X96163171Y-106284685D01*
X96056028Y-106391828D01*
X96020314Y-106463257D01*
X96020314Y-106534685D01*
X96198885Y-106498971D02*
X96163171Y-106570400D01*
X96091742Y-106641828D01*
X95948885Y-106677542D01*
X95698885Y-106677542D01*
X95556028Y-106641828D01*
X95484600Y-106570400D01*
X95448885Y-106498971D01*
X95448885Y-106356114D01*
X95484600Y-106284685D01*
X95556028Y-106213257D01*
X95698885Y-106177542D01*
X95948885Y-106177542D01*
X96091742Y-106213257D01*
X96163171Y-106284685D01*
X96198885Y-106356114D01*
X96198885Y-106498971D01*
X95520314Y-105891828D02*
X95484600Y-105856114D01*
X95448885Y-105784685D01*
X95448885Y-105606114D01*
X95484600Y-105534685D01*
X95520314Y-105498971D01*
X95591742Y-105463257D01*
X95663171Y-105463257D01*
X95770314Y-105498971D01*
X96198885Y-105927542D01*
X96198885Y-105463257D01*
%TO.C,Q1*%
X95559114Y-94635628D02*
X95523400Y-94707057D01*
X95451971Y-94778485D01*
X95344828Y-94885628D01*
X95309114Y-94957057D01*
X95309114Y-95028485D01*
X95487685Y-94992771D02*
X95451971Y-95064200D01*
X95380542Y-95135628D01*
X95237685Y-95171342D01*
X94987685Y-95171342D01*
X94844828Y-95135628D01*
X94773400Y-95064200D01*
X94737685Y-94992771D01*
X94737685Y-94849914D01*
X94773400Y-94778485D01*
X94844828Y-94707057D01*
X94987685Y-94671342D01*
X95237685Y-94671342D01*
X95380542Y-94707057D01*
X95451971Y-94778485D01*
X95487685Y-94849914D01*
X95487685Y-94992771D01*
X95487685Y-93957057D02*
X95487685Y-94385628D01*
X95487685Y-94171342D02*
X94737685Y-94171342D01*
X94844828Y-94242771D01*
X94916257Y-94314200D01*
X94951971Y-94385628D01*
%TD*%
M02*
