%TF.GenerationSoftware,KiCad,Pcbnew,5.1.9-73d0e3b20d~88~ubuntu20.04.1*%
%TF.CreationDate,2021-04-02T20:19:58-07:00*%
%TF.ProjectId,encoder,656e636f-6465-4722-9e6b-696361645f70,rev?*%
%TF.SameCoordinates,Original*%
%TF.FileFunction,Legend,Bot*%
%TF.FilePolarity,Positive*%
%FSLAX46Y46*%
G04 Gerber Fmt 4.6, Leading zero omitted, Abs format (unit mm)*
G04 Created by KiCad (PCBNEW 5.1.9-73d0e3b20d~88~ubuntu20.04.1) date 2021-04-02 20:19:58*
%MOMM*%
%LPD*%
G01*
G04 APERTURE LIST*
%ADD10C,0.200000*%
G04 APERTURE END LIST*
D10*
%TO.C,CN1*%
X93860000Y-123290000D02*
X93790000Y-123270000D01*
X93890000Y-123370000D02*
X93860000Y-123290000D01*
X93860000Y-123440000D02*
X93890000Y-123370000D01*
X93790000Y-123470000D02*
X93860000Y-123440000D01*
X93720000Y-123440000D02*
X93790000Y-123470000D01*
X93690000Y-123370000D02*
X93720000Y-123440000D01*
X93720000Y-123290000D02*
X93690000Y-123370000D01*
X93790000Y-123270000D02*
X93720000Y-123290000D01*
X93280000Y-116380000D02*
X94430000Y-116380000D01*
X93280000Y-118920000D02*
X94430000Y-118920000D01*
X93280000Y-121460000D02*
X94430000Y-121460000D01*
X96970000Y-115110000D02*
X94430000Y-115110000D01*
X96970000Y-122730000D02*
X96970000Y-115110000D01*
X94430000Y-122730000D02*
X96970000Y-122730000D01*
X94430000Y-115110000D02*
X94430000Y-122730000D01*
X93860000Y-85450000D02*
X93790000Y-85420000D01*
X93890000Y-85520000D02*
X93860000Y-85450000D01*
X93860000Y-85600000D02*
X93890000Y-85520000D01*
X93790000Y-85620000D02*
X93860000Y-85600000D01*
X93720000Y-85600000D02*
X93790000Y-85620000D01*
X93690000Y-85520000D02*
X93720000Y-85600000D01*
X93720000Y-85450000D02*
X93690000Y-85520000D01*
X93790000Y-85420000D02*
X93720000Y-85450000D01*
X93280000Y-78540000D02*
X94430000Y-78540000D01*
X93280000Y-81080000D02*
X94430000Y-81080000D01*
X93280000Y-83620000D02*
X94430000Y-83620000D01*
X96970000Y-77270000D02*
X94430000Y-77270000D01*
X96970000Y-84890000D02*
X96970000Y-77270000D01*
X94430000Y-84890000D02*
X96970000Y-84890000D01*
X94430000Y-77270000D02*
X94430000Y-84890000D01*
%TD*%
M02*
