%TF.GenerationSoftware,KiCad,Pcbnew,5.1.9-73d0e3b20d~88~ubuntu20.04.1*%
%TF.CreationDate,2021-04-02T20:19:58-07:00*%
%TF.ProjectId,encoder,656e636f-6465-4722-9e6b-696361645f70,rev?*%
%TF.SameCoordinates,Original*%
%TF.FileFunction,Soldermask,Top*%
%TF.FilePolarity,Negative*%
%FSLAX46Y46*%
G04 Gerber Fmt 4.6, Leading zero omitted, Abs format (unit mm)*
G04 Created by KiCad (PCBNEW 5.1.9-73d0e3b20d~88~ubuntu20.04.1) date 2021-04-02 20:19:58*
%MOMM*%
%LPD*%
G01*
G04 APERTURE LIST*
%ADD10C,5.150000*%
%ADD11O,3.400000X1.750000*%
%ADD12C,1.620000*%
G04 APERTURE END LIST*
%TO.C,C2*%
G36*
G01*
X97925000Y-109571200D02*
X97925000Y-109021200D01*
G75*
G02*
X98175000Y-108771200I250000J0D01*
G01*
X98675000Y-108771200D01*
G75*
G02*
X98925000Y-109021200I0J-250000D01*
G01*
X98925000Y-109571200D01*
G75*
G02*
X98675000Y-109821200I-250000J0D01*
G01*
X98175000Y-109821200D01*
G75*
G02*
X97925000Y-109571200I0J250000D01*
G01*
G37*
G36*
G01*
X96375000Y-109571200D02*
X96375000Y-109021200D01*
G75*
G02*
X96625000Y-108771200I250000J0D01*
G01*
X97125000Y-108771200D01*
G75*
G02*
X97375000Y-109021200I0J-250000D01*
G01*
X97375000Y-109571200D01*
G75*
G02*
X97125000Y-109821200I-250000J0D01*
G01*
X96625000Y-109821200D01*
G75*
G02*
X96375000Y-109571200I0J250000D01*
G01*
G37*
%TD*%
%TO.C,C1*%
G36*
G01*
X93289800Y-88244000D02*
X92739800Y-88244000D01*
G75*
G02*
X92489800Y-87994000I0J250000D01*
G01*
X92489800Y-87494000D01*
G75*
G02*
X92739800Y-87244000I250000J0D01*
G01*
X93289800Y-87244000D01*
G75*
G02*
X93539800Y-87494000I0J-250000D01*
G01*
X93539800Y-87994000D01*
G75*
G02*
X93289800Y-88244000I-250000J0D01*
G01*
G37*
G36*
G01*
X93289800Y-89794000D02*
X92739800Y-89794000D01*
G75*
G02*
X92489800Y-89544000I0J250000D01*
G01*
X92489800Y-89044000D01*
G75*
G02*
X92739800Y-88794000I250000J0D01*
G01*
X93289800Y-88794000D01*
G75*
G02*
X93539800Y-89044000I0J-250000D01*
G01*
X93539800Y-89544000D01*
G75*
G02*
X93289800Y-89794000I-250000J0D01*
G01*
G37*
%TD*%
D10*
%TO.C,CN1*%
X100000000Y-100000000D03*
D11*
X100000000Y-106625200D03*
X100000000Y-93375200D03*
D12*
X92519900Y-116380000D03*
X92519900Y-118920000D03*
X92519900Y-121460000D03*
X92519900Y-78540000D03*
X92519900Y-81080000D03*
X92519900Y-83620000D03*
%TD*%
%TO.C,R2*%
G36*
G01*
X92200000Y-94375000D02*
X92800000Y-94375000D01*
G75*
G02*
X93025000Y-94600000I0J-225000D01*
G01*
X93025000Y-95050000D01*
G75*
G02*
X92800000Y-95275000I-225000J0D01*
G01*
X92200000Y-95275000D01*
G75*
G02*
X91975000Y-95050000I0J225000D01*
G01*
X91975000Y-94600000D01*
G75*
G02*
X92200000Y-94375000I225000J0D01*
G01*
G37*
G36*
G01*
X92200000Y-92725000D02*
X92800000Y-92725000D01*
G75*
G02*
X93025000Y-92950000I0J-225000D01*
G01*
X93025000Y-93400000D01*
G75*
G02*
X92800000Y-93625000I-225000J0D01*
G01*
X92200000Y-93625000D01*
G75*
G02*
X91975000Y-93400000I0J225000D01*
G01*
X91975000Y-92950000D01*
G75*
G02*
X92200000Y-92725000I225000J0D01*
G01*
G37*
%TD*%
%TO.C,R1*%
G36*
G01*
X94600000Y-108875000D02*
X95200000Y-108875000D01*
G75*
G02*
X95425000Y-109100000I0J-225000D01*
G01*
X95425000Y-109550000D01*
G75*
G02*
X95200000Y-109775000I-225000J0D01*
G01*
X94600000Y-109775000D01*
G75*
G02*
X94375000Y-109550000I0J225000D01*
G01*
X94375000Y-109100000D01*
G75*
G02*
X94600000Y-108875000I225000J0D01*
G01*
G37*
G36*
G01*
X94600000Y-107225000D02*
X95200000Y-107225000D01*
G75*
G02*
X95425000Y-107450000I0J-225000D01*
G01*
X95425000Y-107900000D01*
G75*
G02*
X95200000Y-108125000I-225000J0D01*
G01*
X94600000Y-108125000D01*
G75*
G02*
X94375000Y-107900000I0J225000D01*
G01*
X94375000Y-107450000D01*
G75*
G02*
X94600000Y-107225000I225000J0D01*
G01*
G37*
%TD*%
%TO.C,Q2*%
G36*
G01*
X96729289Y-102563603D02*
X96163603Y-103129289D01*
G75*
G02*
X96092893Y-103129289I-35355J35355D01*
G01*
X95456497Y-102492893D01*
G75*
G02*
X95456497Y-102422183I35355J35355D01*
G01*
X96022183Y-101856497D01*
G75*
G02*
X96092893Y-101856497I35355J-35355D01*
G01*
X96729289Y-102492893D01*
G75*
G02*
X96729289Y-102563603I-35355J-35355D01*
G01*
G37*
G36*
G01*
X98815254Y-103306065D02*
X98249568Y-103871751D01*
G75*
G02*
X98178858Y-103871751I-35355J35355D01*
G01*
X97542462Y-103235355D01*
G75*
G02*
X97542462Y-103164645I35355J35355D01*
G01*
X98108148Y-102598959D01*
G75*
G02*
X98178858Y-102598959I35355J-35355D01*
G01*
X98815254Y-103235355D01*
G75*
G02*
X98815254Y-103306065I-35355J-35355D01*
G01*
G37*
G36*
G01*
X97471751Y-104649568D02*
X96906065Y-105215254D01*
G75*
G02*
X96835355Y-105215254I-35355J35355D01*
G01*
X96198959Y-104578858D01*
G75*
G02*
X96198959Y-104508148I35355J35355D01*
G01*
X96764645Y-103942462D01*
G75*
G02*
X96835355Y-103942462I35355J-35355D01*
G01*
X97471751Y-104578858D01*
G75*
G02*
X97471751Y-104649568I-35355J-35355D01*
G01*
G37*
%TD*%
%TO.C,Q1*%
G36*
G01*
X96163603Y-96870711D02*
X96729289Y-97436397D01*
G75*
G02*
X96729289Y-97507107I-35355J-35355D01*
G01*
X96092893Y-98143503D01*
G75*
G02*
X96022183Y-98143503I-35355J35355D01*
G01*
X95456497Y-97577817D01*
G75*
G02*
X95456497Y-97507107I35355J35355D01*
G01*
X96092893Y-96870711D01*
G75*
G02*
X96163603Y-96870711I35355J-35355D01*
G01*
G37*
G36*
G01*
X96906065Y-94784746D02*
X97471751Y-95350432D01*
G75*
G02*
X97471751Y-95421142I-35355J-35355D01*
G01*
X96835355Y-96057538D01*
G75*
G02*
X96764645Y-96057538I-35355J35355D01*
G01*
X96198959Y-95491852D01*
G75*
G02*
X96198959Y-95421142I35355J35355D01*
G01*
X96835355Y-94784746D01*
G75*
G02*
X96906065Y-94784746I35355J-35355D01*
G01*
G37*
G36*
G01*
X98249568Y-96128249D02*
X98815254Y-96693935D01*
G75*
G02*
X98815254Y-96764645I-35355J-35355D01*
G01*
X98178858Y-97401041D01*
G75*
G02*
X98108148Y-97401041I-35355J35355D01*
G01*
X97542462Y-96835355D01*
G75*
G02*
X97542462Y-96764645I35355J35355D01*
G01*
X98178858Y-96128249D01*
G75*
G02*
X98249568Y-96128249I35355J-35355D01*
G01*
G37*
%TD*%
M02*
