G04 #@! TF.GenerationSoftware,KiCad,Pcbnew,5.1.9-73d0e3b20d~88~ubuntu20.04.1*
G04 #@! TF.CreationDate,2020-12-29T23:42:59-08:00*
G04 #@! TF.ProjectId,master_board,6d617374-6572-45f6-926f-6172642e6b69,Rev. A*
G04 #@! TF.SameCoordinates,Original*
G04 #@! TF.FileFunction,Soldermask,Top*
G04 #@! TF.FilePolarity,Negative*
%FSLAX46Y46*%
G04 Gerber Fmt 4.6, Leading zero omitted, Abs format (unit mm)*
G04 Created by KiCad (PCBNEW 5.1.9-73d0e3b20d~88~ubuntu20.04.1) date 2020-12-29 23:42:59*
%MOMM*%
%LPD*%
G01*
G04 APERTURE LIST*
%ADD10C,2.000000*%
%ADD11R,2.000000X2.000000*%
%ADD12O,1.700000X1.700000*%
%ADD13R,1.700000X1.700000*%
%ADD14C,2.700000*%
%ADD15C,1.520000*%
%ADD16R,3.000000X3.000000*%
%ADD17R,1.050000X0.450000*%
%ADD18R,0.700000X0.510000*%
%ADD19R,0.400000X1.100000*%
%ADD20R,1.220000X0.650000*%
%ADD21C,2.180000*%
%ADD22R,1.550000X1.300000*%
%ADD23C,3.000000*%
%ADD24C,2.200000*%
%ADD25R,0.800000X0.900000*%
%ADD26C,2.400000*%
%ADD27C,2.550000*%
%ADD28C,1.800000*%
%ADD29C,1.980000*%
%ADD30R,2.000000X1.500000*%
%ADD31R,2.000000X3.800000*%
%ADD32R,1.800000X1.000000*%
%ADD33R,1.250000X1.800000*%
%ADD34R,0.900000X0.800000*%
%ADD35R,0.650000X1.220000*%
%ADD36C,0.600000*%
%ADD37O,1.200000X1.700000*%
%ADD38R,1.300000X0.270000*%
%ADD39R,1.500000X1.500000*%
G04 APERTURE END LIST*
G36*
G01*
X153362000Y-142664000D02*
X153362000Y-142324000D01*
G75*
G02*
X153502000Y-142184000I140000J0D01*
G01*
X153782000Y-142184000D01*
G75*
G02*
X153922000Y-142324000I0J-140000D01*
G01*
X153922000Y-142664000D01*
G75*
G02*
X153782000Y-142804000I-140000J0D01*
G01*
X153502000Y-142804000D01*
G75*
G02*
X153362000Y-142664000I0J140000D01*
G01*
G37*
G36*
G01*
X152402000Y-142664000D02*
X152402000Y-142324000D01*
G75*
G02*
X152542000Y-142184000I140000J0D01*
G01*
X152822000Y-142184000D01*
G75*
G02*
X152962000Y-142324000I0J-140000D01*
G01*
X152962000Y-142664000D01*
G75*
G02*
X152822000Y-142804000I-140000J0D01*
G01*
X152542000Y-142804000D01*
G75*
G02*
X152402000Y-142664000I0J140000D01*
G01*
G37*
G36*
G01*
X85852000Y-164807999D02*
X85852000Y-166108001D01*
G75*
G02*
X85602001Y-166358000I-249999J0D01*
G01*
X84951999Y-166358000D01*
G75*
G02*
X84702000Y-166108001I0J249999D01*
G01*
X84702000Y-164807999D01*
G75*
G02*
X84951999Y-164558000I249999J0D01*
G01*
X85602001Y-164558000D01*
G75*
G02*
X85852000Y-164807999I0J-249999D01*
G01*
G37*
G36*
G01*
X88802000Y-164807999D02*
X88802000Y-166108001D01*
G75*
G02*
X88552001Y-166358000I-249999J0D01*
G01*
X87901999Y-166358000D01*
G75*
G02*
X87652000Y-166108001I0J249999D01*
G01*
X87652000Y-164807999D01*
G75*
G02*
X87901999Y-164558000I249999J0D01*
G01*
X88552001Y-164558000D01*
G75*
G02*
X88802000Y-164807999I0J-249999D01*
G01*
G37*
D10*
X106030000Y-96390000D03*
D11*
X111030000Y-96390000D03*
D10*
X145470000Y-122910000D03*
D11*
X145470000Y-117910000D03*
G36*
G01*
X83995000Y-108640000D02*
X83995000Y-108980000D01*
G75*
G02*
X83855000Y-109120000I-140000J0D01*
G01*
X83575000Y-109120000D01*
G75*
G02*
X83435000Y-108980000I0J140000D01*
G01*
X83435000Y-108640000D01*
G75*
G02*
X83575000Y-108500000I140000J0D01*
G01*
X83855000Y-108500000D01*
G75*
G02*
X83995000Y-108640000I0J-140000D01*
G01*
G37*
G36*
G01*
X84955000Y-108640000D02*
X84955000Y-108980000D01*
G75*
G02*
X84815000Y-109120000I-140000J0D01*
G01*
X84535000Y-109120000D01*
G75*
G02*
X84395000Y-108980000I0J140000D01*
G01*
X84395000Y-108640000D01*
G75*
G02*
X84535000Y-108500000I140000J0D01*
G01*
X84815000Y-108500000D01*
G75*
G02*
X84955000Y-108640000I0J-140000D01*
G01*
G37*
G36*
G01*
X126650000Y-110475000D02*
X127150000Y-110475000D01*
G75*
G02*
X127375000Y-110700000I0J-225000D01*
G01*
X127375000Y-111150000D01*
G75*
G02*
X127150000Y-111375000I-225000J0D01*
G01*
X126650000Y-111375000D01*
G75*
G02*
X126425000Y-111150000I0J225000D01*
G01*
X126425000Y-110700000D01*
G75*
G02*
X126650000Y-110475000I225000J0D01*
G01*
G37*
G36*
G01*
X126650000Y-108925000D02*
X127150000Y-108925000D01*
G75*
G02*
X127375000Y-109150000I0J-225000D01*
G01*
X127375000Y-109600000D01*
G75*
G02*
X127150000Y-109825000I-225000J0D01*
G01*
X126650000Y-109825000D01*
G75*
G02*
X126425000Y-109600000I0J225000D01*
G01*
X126425000Y-109150000D01*
G75*
G02*
X126650000Y-108925000I225000J0D01*
G01*
G37*
G36*
G01*
X124775000Y-104500000D02*
X124775000Y-105000000D01*
G75*
G02*
X124550000Y-105225000I-225000J0D01*
G01*
X124100000Y-105225000D01*
G75*
G02*
X123875000Y-105000000I0J225000D01*
G01*
X123875000Y-104500000D01*
G75*
G02*
X124100000Y-104275000I225000J0D01*
G01*
X124550000Y-104275000D01*
G75*
G02*
X124775000Y-104500000I0J-225000D01*
G01*
G37*
G36*
G01*
X126325000Y-104500000D02*
X126325000Y-105000000D01*
G75*
G02*
X126100000Y-105225000I-225000J0D01*
G01*
X125650000Y-105225000D01*
G75*
G02*
X125425000Y-105000000I0J225000D01*
G01*
X125425000Y-104500000D01*
G75*
G02*
X125650000Y-104275000I225000J0D01*
G01*
X126100000Y-104275000D01*
G75*
G02*
X126325000Y-104500000I0J-225000D01*
G01*
G37*
D12*
X48768000Y-137414000D03*
D13*
X51308000Y-137414000D03*
D12*
X159004000Y-115570000D03*
X156464000Y-115570000D03*
D13*
X153924000Y-115570000D03*
D14*
X50856500Y-126485000D03*
X66491500Y-126485000D03*
D15*
X62484000Y-125730000D03*
X59944000Y-125730000D03*
X57404000Y-125730000D03*
X54864000Y-125730000D03*
X66294000Y-133350000D03*
X63754000Y-133350000D03*
X61214000Y-133350000D03*
X58674000Y-133350000D03*
X55499000Y-133350000D03*
X52959000Y-133350000D03*
X50419000Y-133350000D03*
D12*
X138938000Y-141224000D03*
X138938000Y-138684000D03*
D13*
X138938000Y-136144000D03*
D12*
X123190000Y-141986000D03*
X123190000Y-139446000D03*
D13*
X123190000Y-136906000D03*
D12*
X135128000Y-141224000D03*
X135128000Y-138684000D03*
D13*
X135128000Y-136144000D03*
D12*
X119380000Y-144526000D03*
X119380000Y-141986000D03*
X119380000Y-139446000D03*
D13*
X119380000Y-136906000D03*
D12*
X61800000Y-67760000D03*
X61800000Y-70300000D03*
X59260000Y-67760000D03*
X59260000Y-70300000D03*
X56720000Y-67760000D03*
X56720000Y-70300000D03*
X54180000Y-67760000D03*
X54180000Y-70300000D03*
X51640000Y-67760000D03*
X51640000Y-70300000D03*
X49100000Y-67760000D03*
D13*
X49100000Y-70300000D03*
D12*
X159512000Y-130302000D03*
X159512000Y-132842000D03*
D13*
X159512000Y-135382000D03*
D12*
X159004000Y-119380000D03*
X156464000Y-119380000D03*
D13*
X153924000Y-119380000D03*
D12*
X146030000Y-152654000D03*
X146030000Y-155194000D03*
D13*
X146030000Y-157734000D03*
D12*
X151892000Y-135890000D03*
X151892000Y-138430000D03*
D13*
X151892000Y-140970000D03*
G36*
G01*
X77120000Y-165859750D02*
X77120000Y-166372250D01*
G75*
G02*
X76901250Y-166591000I-218750J0D01*
G01*
X76463750Y-166591000D01*
G75*
G02*
X76245000Y-166372250I0J218750D01*
G01*
X76245000Y-165859750D01*
G75*
G02*
X76463750Y-165641000I218750J0D01*
G01*
X76901250Y-165641000D01*
G75*
G02*
X77120000Y-165859750I0J-218750D01*
G01*
G37*
G36*
G01*
X78695000Y-165859750D02*
X78695000Y-166372250D01*
G75*
G02*
X78476250Y-166591000I-218750J0D01*
G01*
X78038750Y-166591000D01*
G75*
G02*
X77820000Y-166372250I0J218750D01*
G01*
X77820000Y-165859750D01*
G75*
G02*
X78038750Y-165641000I218750J0D01*
G01*
X78476250Y-165641000D01*
G75*
G02*
X78695000Y-165859750I0J-218750D01*
G01*
G37*
D12*
X86020000Y-98540000D03*
D13*
X83480000Y-98540000D03*
D12*
X72752000Y-159148000D03*
X75292000Y-159148000D03*
D13*
X77832000Y-159148000D03*
D12*
X123238260Y-96657160D03*
D13*
X120698260Y-96657160D03*
D12*
X48514000Y-61722000D03*
D13*
X51054000Y-61722000D03*
D12*
X59436000Y-141478000D03*
X56896000Y-141478000D03*
D13*
X54356000Y-141478000D03*
D12*
X58420000Y-156718000D03*
X58420000Y-159258000D03*
D13*
X58420000Y-161798000D03*
G36*
G01*
X81345000Y-102170000D02*
X81715000Y-102170000D01*
G75*
G02*
X81850000Y-102305000I0J-135000D01*
G01*
X81850000Y-102575000D01*
G75*
G02*
X81715000Y-102710000I-135000J0D01*
G01*
X81345000Y-102710000D01*
G75*
G02*
X81210000Y-102575000I0J135000D01*
G01*
X81210000Y-102305000D01*
G75*
G02*
X81345000Y-102170000I135000J0D01*
G01*
G37*
G36*
G01*
X81345000Y-101150000D02*
X81715000Y-101150000D01*
G75*
G02*
X81850000Y-101285000I0J-135000D01*
G01*
X81850000Y-101555000D01*
G75*
G02*
X81715000Y-101690000I-135000J0D01*
G01*
X81345000Y-101690000D01*
G75*
G02*
X81210000Y-101555000I0J135000D01*
G01*
X81210000Y-101285000D01*
G75*
G02*
X81345000Y-101150000I135000J0D01*
G01*
G37*
G36*
G01*
X81155000Y-105350000D02*
X81525000Y-105350000D01*
G75*
G02*
X81660000Y-105485000I0J-135000D01*
G01*
X81660000Y-105755000D01*
G75*
G02*
X81525000Y-105890000I-135000J0D01*
G01*
X81155000Y-105890000D01*
G75*
G02*
X81020000Y-105755000I0J135000D01*
G01*
X81020000Y-105485000D01*
G75*
G02*
X81155000Y-105350000I135000J0D01*
G01*
G37*
G36*
G01*
X81155000Y-104330000D02*
X81525000Y-104330000D01*
G75*
G02*
X81660000Y-104465000I0J-135000D01*
G01*
X81660000Y-104735000D01*
G75*
G02*
X81525000Y-104870000I-135000J0D01*
G01*
X81155000Y-104870000D01*
G75*
G02*
X81020000Y-104735000I0J135000D01*
G01*
X81020000Y-104465000D01*
G75*
G02*
X81155000Y-104330000I135000J0D01*
G01*
G37*
G36*
G01*
X84290000Y-118075000D02*
X84290000Y-117705000D01*
G75*
G02*
X84425000Y-117570000I135000J0D01*
G01*
X84695000Y-117570000D01*
G75*
G02*
X84830000Y-117705000I0J-135000D01*
G01*
X84830000Y-118075000D01*
G75*
G02*
X84695000Y-118210000I-135000J0D01*
G01*
X84425000Y-118210000D01*
G75*
G02*
X84290000Y-118075000I0J135000D01*
G01*
G37*
G36*
G01*
X83270000Y-118075000D02*
X83270000Y-117705000D01*
G75*
G02*
X83405000Y-117570000I135000J0D01*
G01*
X83675000Y-117570000D01*
G75*
G02*
X83810000Y-117705000I0J-135000D01*
G01*
X83810000Y-118075000D01*
G75*
G02*
X83675000Y-118210000I-135000J0D01*
G01*
X83405000Y-118210000D01*
G75*
G02*
X83270000Y-118075000I0J135000D01*
G01*
G37*
G36*
G01*
X82818000Y-164661000D02*
X82818000Y-165031000D01*
G75*
G02*
X82683000Y-165166000I-135000J0D01*
G01*
X82413000Y-165166000D01*
G75*
G02*
X82278000Y-165031000I0J135000D01*
G01*
X82278000Y-164661000D01*
G75*
G02*
X82413000Y-164526000I135000J0D01*
G01*
X82683000Y-164526000D01*
G75*
G02*
X82818000Y-164661000I0J-135000D01*
G01*
G37*
G36*
G01*
X83838000Y-164661000D02*
X83838000Y-165031000D01*
G75*
G02*
X83703000Y-165166000I-135000J0D01*
G01*
X83433000Y-165166000D01*
G75*
G02*
X83298000Y-165031000I0J135000D01*
G01*
X83298000Y-164661000D01*
G75*
G02*
X83433000Y-164526000I135000J0D01*
G01*
X83703000Y-164526000D01*
G75*
G02*
X83838000Y-164661000I0J-135000D01*
G01*
G37*
G36*
G01*
X83715000Y-95150000D02*
X84085000Y-95150000D01*
G75*
G02*
X84220000Y-95285000I0J-135000D01*
G01*
X84220000Y-95555000D01*
G75*
G02*
X84085000Y-95690000I-135000J0D01*
G01*
X83715000Y-95690000D01*
G75*
G02*
X83580000Y-95555000I0J135000D01*
G01*
X83580000Y-95285000D01*
G75*
G02*
X83715000Y-95150000I135000J0D01*
G01*
G37*
G36*
G01*
X83715000Y-94130000D02*
X84085000Y-94130000D01*
G75*
G02*
X84220000Y-94265000I0J-135000D01*
G01*
X84220000Y-94535000D01*
G75*
G02*
X84085000Y-94670000I-135000J0D01*
G01*
X83715000Y-94670000D01*
G75*
G02*
X83580000Y-94535000I0J135000D01*
G01*
X83580000Y-94265000D01*
G75*
G02*
X83715000Y-94130000I135000J0D01*
G01*
G37*
G36*
G01*
X83107000Y-88578000D02*
X83477000Y-88578000D01*
G75*
G02*
X83612000Y-88713000I0J-135000D01*
G01*
X83612000Y-88983000D01*
G75*
G02*
X83477000Y-89118000I-135000J0D01*
G01*
X83107000Y-89118000D01*
G75*
G02*
X82972000Y-88983000I0J135000D01*
G01*
X82972000Y-88713000D01*
G75*
G02*
X83107000Y-88578000I135000J0D01*
G01*
G37*
G36*
G01*
X83107000Y-87558000D02*
X83477000Y-87558000D01*
G75*
G02*
X83612000Y-87693000I0J-135000D01*
G01*
X83612000Y-87963000D01*
G75*
G02*
X83477000Y-88098000I-135000J0D01*
G01*
X83107000Y-88098000D01*
G75*
G02*
X82972000Y-87963000I0J135000D01*
G01*
X82972000Y-87693000D01*
G75*
G02*
X83107000Y-87558000I135000J0D01*
G01*
G37*
G36*
G01*
X74593000Y-163597000D02*
X74593000Y-163047000D01*
G75*
G02*
X74793000Y-162847000I200000J0D01*
G01*
X75193000Y-162847000D01*
G75*
G02*
X75393000Y-163047000I0J-200000D01*
G01*
X75393000Y-163597000D01*
G75*
G02*
X75193000Y-163797000I-200000J0D01*
G01*
X74793000Y-163797000D01*
G75*
G02*
X74593000Y-163597000I0J200000D01*
G01*
G37*
G36*
G01*
X72943000Y-163597000D02*
X72943000Y-163047000D01*
G75*
G02*
X73143000Y-162847000I200000J0D01*
G01*
X73543000Y-162847000D01*
G75*
G02*
X73743000Y-163047000I0J-200000D01*
G01*
X73743000Y-163597000D01*
G75*
G02*
X73543000Y-163797000I-200000J0D01*
G01*
X73143000Y-163797000D01*
G75*
G02*
X72943000Y-163597000I0J200000D01*
G01*
G37*
G36*
G01*
X116700000Y-107370002D02*
X116700000Y-106469998D01*
G75*
G02*
X116949998Y-106220000I249998J0D01*
G01*
X117475002Y-106220000D01*
G75*
G02*
X117725000Y-106469998I0J-249998D01*
G01*
X117725000Y-107370002D01*
G75*
G02*
X117475002Y-107620000I-249998J0D01*
G01*
X116949998Y-107620000D01*
G75*
G02*
X116700000Y-107370002I0J249998D01*
G01*
G37*
G36*
G01*
X114875000Y-107370002D02*
X114875000Y-106469998D01*
G75*
G02*
X115124998Y-106220000I249998J0D01*
G01*
X115650002Y-106220000D01*
G75*
G02*
X115900000Y-106469998I0J-249998D01*
G01*
X115900000Y-107370002D01*
G75*
G02*
X115650002Y-107620000I-249998J0D01*
G01*
X115124998Y-107620000D01*
G75*
G02*
X114875000Y-107370002I0J249998D01*
G01*
G37*
G36*
G01*
X116890000Y-110490002D02*
X116890000Y-109589998D01*
G75*
G02*
X117139998Y-109340000I249998J0D01*
G01*
X117665002Y-109340000D01*
G75*
G02*
X117915000Y-109589998I0J-249998D01*
G01*
X117915000Y-110490002D01*
G75*
G02*
X117665002Y-110740000I-249998J0D01*
G01*
X117139998Y-110740000D01*
G75*
G02*
X116890000Y-110490002I0J249998D01*
G01*
G37*
G36*
G01*
X115065000Y-110490002D02*
X115065000Y-109589998D01*
G75*
G02*
X115314998Y-109340000I249998J0D01*
G01*
X115840002Y-109340000D01*
G75*
G02*
X116090000Y-109589998I0J-249998D01*
G01*
X116090000Y-110490002D01*
G75*
G02*
X115840002Y-110740000I-249998J0D01*
G01*
X115314998Y-110740000D01*
G75*
G02*
X115065000Y-110490002I0J249998D01*
G01*
G37*
G36*
G01*
X57542000Y-119497002D02*
X57542000Y-118246998D01*
G75*
G02*
X57791998Y-117997000I249998J0D01*
G01*
X58417002Y-117997000D01*
G75*
G02*
X58667000Y-118246998I0J-249998D01*
G01*
X58667000Y-119497002D01*
G75*
G02*
X58417002Y-119747000I-249998J0D01*
G01*
X57791998Y-119747000D01*
G75*
G02*
X57542000Y-119497002I0J249998D01*
G01*
G37*
G36*
G01*
X54617000Y-119497002D02*
X54617000Y-118246998D01*
G75*
G02*
X54866998Y-117997000I249998J0D01*
G01*
X55492002Y-117997000D01*
G75*
G02*
X55742000Y-118246998I0J-249998D01*
G01*
X55742000Y-119497002D01*
G75*
G02*
X55492002Y-119747000I-249998J0D01*
G01*
X54866998Y-119747000D01*
G75*
G02*
X54617000Y-119497002I0J249998D01*
G01*
G37*
G36*
G01*
X91837002Y-157438000D02*
X90586998Y-157438000D01*
G75*
G02*
X90337000Y-157188002I0J249998D01*
G01*
X90337000Y-156562998D01*
G75*
G02*
X90586998Y-156313000I249998J0D01*
G01*
X91837002Y-156313000D01*
G75*
G02*
X92087000Y-156562998I0J-249998D01*
G01*
X92087000Y-157188002D01*
G75*
G02*
X91837002Y-157438000I-249998J0D01*
G01*
G37*
G36*
G01*
X91837002Y-160363000D02*
X90586998Y-160363000D01*
G75*
G02*
X90337000Y-160113002I0J249998D01*
G01*
X90337000Y-159487998D01*
G75*
G02*
X90586998Y-159238000I249998J0D01*
G01*
X91837002Y-159238000D01*
G75*
G02*
X92087000Y-159487998I0J-249998D01*
G01*
X92087000Y-160113002D01*
G75*
G02*
X91837002Y-160363000I-249998J0D01*
G01*
G37*
G36*
G01*
X61839002Y-116194000D02*
X60588998Y-116194000D01*
G75*
G02*
X60339000Y-115944002I0J249998D01*
G01*
X60339000Y-115318998D01*
G75*
G02*
X60588998Y-115069000I249998J0D01*
G01*
X61839002Y-115069000D01*
G75*
G02*
X62089000Y-115318998I0J-249998D01*
G01*
X62089000Y-115944002D01*
G75*
G02*
X61839002Y-116194000I-249998J0D01*
G01*
G37*
G36*
G01*
X61839002Y-119119000D02*
X60588998Y-119119000D01*
G75*
G02*
X60339000Y-118869002I0J249998D01*
G01*
X60339000Y-118243998D01*
G75*
G02*
X60588998Y-117994000I249998J0D01*
G01*
X61839002Y-117994000D01*
G75*
G02*
X62089000Y-118243998I0J-249998D01*
G01*
X62089000Y-118869002D01*
G75*
G02*
X61839002Y-119119000I-249998J0D01*
G01*
G37*
G36*
G01*
X124618780Y-145544960D02*
X124618780Y-145914960D01*
G75*
G02*
X124483780Y-146049960I-135000J0D01*
G01*
X124213780Y-146049960D01*
G75*
G02*
X124078780Y-145914960I0J135000D01*
G01*
X124078780Y-145544960D01*
G75*
G02*
X124213780Y-145409960I135000J0D01*
G01*
X124483780Y-145409960D01*
G75*
G02*
X124618780Y-145544960I0J-135000D01*
G01*
G37*
G36*
G01*
X125638780Y-145544960D02*
X125638780Y-145914960D01*
G75*
G02*
X125503780Y-146049960I-135000J0D01*
G01*
X125233780Y-146049960D01*
G75*
G02*
X125098780Y-145914960I0J135000D01*
G01*
X125098780Y-145544960D01*
G75*
G02*
X125233780Y-145409960I135000J0D01*
G01*
X125503780Y-145409960D01*
G75*
G02*
X125638780Y-145544960I0J-135000D01*
G01*
G37*
G36*
G01*
X127307000Y-172033000D02*
X127307000Y-171483000D01*
G75*
G02*
X127507000Y-171283000I200000J0D01*
G01*
X127907000Y-171283000D01*
G75*
G02*
X128107000Y-171483000I0J-200000D01*
G01*
X128107000Y-172033000D01*
G75*
G02*
X127907000Y-172233000I-200000J0D01*
G01*
X127507000Y-172233000D01*
G75*
G02*
X127307000Y-172033000I0J200000D01*
G01*
G37*
G36*
G01*
X125657000Y-172033000D02*
X125657000Y-171483000D01*
G75*
G02*
X125857000Y-171283000I200000J0D01*
G01*
X126257000Y-171283000D01*
G75*
G02*
X126457000Y-171483000I0J-200000D01*
G01*
X126457000Y-172033000D01*
G75*
G02*
X126257000Y-172233000I-200000J0D01*
G01*
X125857000Y-172233000D01*
G75*
G02*
X125657000Y-172033000I0J200000D01*
G01*
G37*
G36*
G01*
X49275000Y-38905000D02*
X49275000Y-39455000D01*
G75*
G02*
X49075000Y-39655000I-200000J0D01*
G01*
X48675000Y-39655000D01*
G75*
G02*
X48475000Y-39455000I0J200000D01*
G01*
X48475000Y-38905000D01*
G75*
G02*
X48675000Y-38705000I200000J0D01*
G01*
X49075000Y-38705000D01*
G75*
G02*
X49275000Y-38905000I0J-200000D01*
G01*
G37*
G36*
G01*
X50925000Y-38905000D02*
X50925000Y-39455000D01*
G75*
G02*
X50725000Y-39655000I-200000J0D01*
G01*
X50325000Y-39655000D01*
G75*
G02*
X50125000Y-39455000I0J200000D01*
G01*
X50125000Y-38905000D01*
G75*
G02*
X50325000Y-38705000I200000J0D01*
G01*
X50725000Y-38705000D01*
G75*
G02*
X50925000Y-38905000I0J-200000D01*
G01*
G37*
G36*
G01*
X110255000Y-175305000D02*
X110805000Y-175305000D01*
G75*
G02*
X111005000Y-175505000I0J-200000D01*
G01*
X111005000Y-175905000D01*
G75*
G02*
X110805000Y-176105000I-200000J0D01*
G01*
X110255000Y-176105000D01*
G75*
G02*
X110055000Y-175905000I0J200000D01*
G01*
X110055000Y-175505000D01*
G75*
G02*
X110255000Y-175305000I200000J0D01*
G01*
G37*
G36*
G01*
X110255000Y-173655000D02*
X110805000Y-173655000D01*
G75*
G02*
X111005000Y-173855000I0J-200000D01*
G01*
X111005000Y-174255000D01*
G75*
G02*
X110805000Y-174455000I-200000J0D01*
G01*
X110255000Y-174455000D01*
G75*
G02*
X110055000Y-174255000I0J200000D01*
G01*
X110055000Y-173855000D01*
G75*
G02*
X110255000Y-173655000I200000J0D01*
G01*
G37*
G36*
G01*
X67515000Y-28505000D02*
X68065000Y-28505000D01*
G75*
G02*
X68265000Y-28705000I0J-200000D01*
G01*
X68265000Y-29105000D01*
G75*
G02*
X68065000Y-29305000I-200000J0D01*
G01*
X67515000Y-29305000D01*
G75*
G02*
X67315000Y-29105000I0J200000D01*
G01*
X67315000Y-28705000D01*
G75*
G02*
X67515000Y-28505000I200000J0D01*
G01*
G37*
G36*
G01*
X67515000Y-26855000D02*
X68065000Y-26855000D01*
G75*
G02*
X68265000Y-27055000I0J-200000D01*
G01*
X68265000Y-27455000D01*
G75*
G02*
X68065000Y-27655000I-200000J0D01*
G01*
X67515000Y-27655000D01*
G75*
G02*
X67315000Y-27455000I0J200000D01*
G01*
X67315000Y-27055000D01*
G75*
G02*
X67515000Y-26855000I200000J0D01*
G01*
G37*
G36*
G01*
X84245000Y-176551000D02*
X84245000Y-176001000D01*
G75*
G02*
X84445000Y-175801000I200000J0D01*
G01*
X84845000Y-175801000D01*
G75*
G02*
X85045000Y-176001000I0J-200000D01*
G01*
X85045000Y-176551000D01*
G75*
G02*
X84845000Y-176751000I-200000J0D01*
G01*
X84445000Y-176751000D01*
G75*
G02*
X84245000Y-176551000I0J200000D01*
G01*
G37*
G36*
G01*
X82595000Y-176551000D02*
X82595000Y-176001000D01*
G75*
G02*
X82795000Y-175801000I200000J0D01*
G01*
X83195000Y-175801000D01*
G75*
G02*
X83395000Y-176001000I0J-200000D01*
G01*
X83395000Y-176551000D01*
G75*
G02*
X83195000Y-176751000I-200000J0D01*
G01*
X82795000Y-176751000D01*
G75*
G02*
X82595000Y-176551000I0J200000D01*
G01*
G37*
G36*
G01*
X142025000Y-32465000D02*
X142025000Y-33015000D01*
G75*
G02*
X141825000Y-33215000I-200000J0D01*
G01*
X141425000Y-33215000D01*
G75*
G02*
X141225000Y-33015000I0J200000D01*
G01*
X141225000Y-32465000D01*
G75*
G02*
X141425000Y-32265000I200000J0D01*
G01*
X141825000Y-32265000D01*
G75*
G02*
X142025000Y-32465000I0J-200000D01*
G01*
G37*
G36*
G01*
X143675000Y-32465000D02*
X143675000Y-33015000D01*
G75*
G02*
X143475000Y-33215000I-200000J0D01*
G01*
X143075000Y-33215000D01*
G75*
G02*
X142875000Y-33015000I0J200000D01*
G01*
X142875000Y-32465000D01*
G75*
G02*
X143075000Y-32265000I200000J0D01*
G01*
X143475000Y-32265000D01*
G75*
G02*
X143675000Y-32465000I0J-200000D01*
G01*
G37*
G36*
G01*
X68355000Y-169625000D02*
X68355000Y-169075000D01*
G75*
G02*
X68555000Y-168875000I200000J0D01*
G01*
X68955000Y-168875000D01*
G75*
G02*
X69155000Y-169075000I0J-200000D01*
G01*
X69155000Y-169625000D01*
G75*
G02*
X68955000Y-169825000I-200000J0D01*
G01*
X68555000Y-169825000D01*
G75*
G02*
X68355000Y-169625000I0J200000D01*
G01*
G37*
G36*
G01*
X66705000Y-169625000D02*
X66705000Y-169075000D01*
G75*
G02*
X66905000Y-168875000I200000J0D01*
G01*
X67305000Y-168875000D01*
G75*
G02*
X67505000Y-169075000I0J-200000D01*
G01*
X67505000Y-169625000D01*
G75*
G02*
X67305000Y-169825000I-200000J0D01*
G01*
X66905000Y-169825000D01*
G75*
G02*
X66705000Y-169625000I0J200000D01*
G01*
G37*
G36*
G01*
X157675000Y-47065000D02*
X157675000Y-47615000D01*
G75*
G02*
X157475000Y-47815000I-200000J0D01*
G01*
X157075000Y-47815000D01*
G75*
G02*
X156875000Y-47615000I0J200000D01*
G01*
X156875000Y-47065000D01*
G75*
G02*
X157075000Y-46865000I200000J0D01*
G01*
X157475000Y-46865000D01*
G75*
G02*
X157675000Y-47065000I0J-200000D01*
G01*
G37*
G36*
G01*
X159325000Y-47065000D02*
X159325000Y-47615000D01*
G75*
G02*
X159125000Y-47815000I-200000J0D01*
G01*
X158725000Y-47815000D01*
G75*
G02*
X158525000Y-47615000I0J200000D01*
G01*
X158525000Y-47065000D01*
G75*
G02*
X158725000Y-46865000I200000J0D01*
G01*
X159125000Y-46865000D01*
G75*
G02*
X159325000Y-47065000I0J-200000D01*
G01*
G37*
G36*
G01*
X53945000Y-161355000D02*
X53945000Y-160805000D01*
G75*
G02*
X54145000Y-160605000I200000J0D01*
G01*
X54545000Y-160605000D01*
G75*
G02*
X54745000Y-160805000I0J-200000D01*
G01*
X54745000Y-161355000D01*
G75*
G02*
X54545000Y-161555000I-200000J0D01*
G01*
X54145000Y-161555000D01*
G75*
G02*
X53945000Y-161355000I0J200000D01*
G01*
G37*
G36*
G01*
X52295000Y-161355000D02*
X52295000Y-160805000D01*
G75*
G02*
X52495000Y-160605000I200000J0D01*
G01*
X52895000Y-160605000D01*
G75*
G02*
X53095000Y-160805000I0J-200000D01*
G01*
X53095000Y-161355000D01*
G75*
G02*
X52895000Y-161555000I-200000J0D01*
G01*
X52495000Y-161555000D01*
G75*
G02*
X52295000Y-161355000I0J200000D01*
G01*
G37*
G36*
G01*
X166205000Y-61845000D02*
X166205000Y-61295000D01*
G75*
G02*
X166405000Y-61095000I200000J0D01*
G01*
X166805000Y-61095000D01*
G75*
G02*
X167005000Y-61295000I0J-200000D01*
G01*
X167005000Y-61845000D01*
G75*
G02*
X166805000Y-62045000I-200000J0D01*
G01*
X166405000Y-62045000D01*
G75*
G02*
X166205000Y-61845000I0J200000D01*
G01*
G37*
G36*
G01*
X164555000Y-61845000D02*
X164555000Y-61295000D01*
G75*
G02*
X164755000Y-61095000I200000J0D01*
G01*
X165155000Y-61095000D01*
G75*
G02*
X165355000Y-61295000I0J-200000D01*
G01*
X165355000Y-61845000D01*
G75*
G02*
X165155000Y-62045000I-200000J0D01*
G01*
X164755000Y-62045000D01*
G75*
G02*
X164555000Y-61845000I0J200000D01*
G01*
G37*
G36*
G01*
X48708000Y-52615000D02*
X48708000Y-52245000D01*
G75*
G02*
X48843000Y-52110000I135000J0D01*
G01*
X49113000Y-52110000D01*
G75*
G02*
X49248000Y-52245000I0J-135000D01*
G01*
X49248000Y-52615000D01*
G75*
G02*
X49113000Y-52750000I-135000J0D01*
G01*
X48843000Y-52750000D01*
G75*
G02*
X48708000Y-52615000I0J135000D01*
G01*
G37*
G36*
G01*
X47688000Y-52615000D02*
X47688000Y-52245000D01*
G75*
G02*
X47823000Y-52110000I135000J0D01*
G01*
X48093000Y-52110000D01*
G75*
G02*
X48228000Y-52245000I0J-135000D01*
G01*
X48228000Y-52615000D01*
G75*
G02*
X48093000Y-52750000I-135000J0D01*
G01*
X47823000Y-52750000D01*
G75*
G02*
X47688000Y-52615000I0J135000D01*
G01*
G37*
G36*
G01*
X41180000Y-80185000D02*
X41180000Y-79815000D01*
G75*
G02*
X41315000Y-79680000I135000J0D01*
G01*
X41585000Y-79680000D01*
G75*
G02*
X41720000Y-79815000I0J-135000D01*
G01*
X41720000Y-80185000D01*
G75*
G02*
X41585000Y-80320000I-135000J0D01*
G01*
X41315000Y-80320000D01*
G75*
G02*
X41180000Y-80185000I0J135000D01*
G01*
G37*
G36*
G01*
X40160000Y-80185000D02*
X40160000Y-79815000D01*
G75*
G02*
X40295000Y-79680000I135000J0D01*
G01*
X40565000Y-79680000D01*
G75*
G02*
X40700000Y-79815000I0J-135000D01*
G01*
X40700000Y-80185000D01*
G75*
G02*
X40565000Y-80320000I-135000J0D01*
G01*
X40295000Y-80320000D01*
G75*
G02*
X40160000Y-80185000I0J135000D01*
G01*
G37*
G36*
G01*
X61331002Y-77840000D02*
X60080998Y-77840000D01*
G75*
G02*
X59831000Y-77590002I0J249998D01*
G01*
X59831000Y-76964998D01*
G75*
G02*
X60080998Y-76715000I249998J0D01*
G01*
X61331002Y-76715000D01*
G75*
G02*
X61581000Y-76964998I0J-249998D01*
G01*
X61581000Y-77590002D01*
G75*
G02*
X61331002Y-77840000I-249998J0D01*
G01*
G37*
G36*
G01*
X61331002Y-80765000D02*
X60080998Y-80765000D01*
G75*
G02*
X59831000Y-80515002I0J249998D01*
G01*
X59831000Y-79889998D01*
G75*
G02*
X60080998Y-79640000I249998J0D01*
G01*
X61331002Y-79640000D01*
G75*
G02*
X61581000Y-79889998I0J-249998D01*
G01*
X61581000Y-80515002D01*
G75*
G02*
X61331002Y-80765000I-249998J0D01*
G01*
G37*
G36*
G01*
X91040000Y-120525000D02*
X91040000Y-120825000D01*
G75*
G02*
X90890000Y-120975000I-150000J0D01*
G01*
X89240000Y-120975000D01*
G75*
G02*
X89090000Y-120825000I0J150000D01*
G01*
X89090000Y-120525000D01*
G75*
G02*
X89240000Y-120375000I150000J0D01*
G01*
X90890000Y-120375000D01*
G75*
G02*
X91040000Y-120525000I0J-150000D01*
G01*
G37*
G36*
G01*
X91040000Y-119255000D02*
X91040000Y-119555000D01*
G75*
G02*
X90890000Y-119705000I-150000J0D01*
G01*
X89240000Y-119705000D01*
G75*
G02*
X89090000Y-119555000I0J150000D01*
G01*
X89090000Y-119255000D01*
G75*
G02*
X89240000Y-119105000I150000J0D01*
G01*
X90890000Y-119105000D01*
G75*
G02*
X91040000Y-119255000I0J-150000D01*
G01*
G37*
G36*
G01*
X91040000Y-117985000D02*
X91040000Y-118285000D01*
G75*
G02*
X90890000Y-118435000I-150000J0D01*
G01*
X89240000Y-118435000D01*
G75*
G02*
X89090000Y-118285000I0J150000D01*
G01*
X89090000Y-117985000D01*
G75*
G02*
X89240000Y-117835000I150000J0D01*
G01*
X90890000Y-117835000D01*
G75*
G02*
X91040000Y-117985000I0J-150000D01*
G01*
G37*
G36*
G01*
X91040000Y-116715000D02*
X91040000Y-117015000D01*
G75*
G02*
X90890000Y-117165000I-150000J0D01*
G01*
X89240000Y-117165000D01*
G75*
G02*
X89090000Y-117015000I0J150000D01*
G01*
X89090000Y-116715000D01*
G75*
G02*
X89240000Y-116565000I150000J0D01*
G01*
X90890000Y-116565000D01*
G75*
G02*
X91040000Y-116715000I0J-150000D01*
G01*
G37*
G36*
G01*
X95990000Y-116715000D02*
X95990000Y-117015000D01*
G75*
G02*
X95840000Y-117165000I-150000J0D01*
G01*
X94190000Y-117165000D01*
G75*
G02*
X94040000Y-117015000I0J150000D01*
G01*
X94040000Y-116715000D01*
G75*
G02*
X94190000Y-116565000I150000J0D01*
G01*
X95840000Y-116565000D01*
G75*
G02*
X95990000Y-116715000I0J-150000D01*
G01*
G37*
G36*
G01*
X95990000Y-117985000D02*
X95990000Y-118285000D01*
G75*
G02*
X95840000Y-118435000I-150000J0D01*
G01*
X94190000Y-118435000D01*
G75*
G02*
X94040000Y-118285000I0J150000D01*
G01*
X94040000Y-117985000D01*
G75*
G02*
X94190000Y-117835000I150000J0D01*
G01*
X95840000Y-117835000D01*
G75*
G02*
X95990000Y-117985000I0J-150000D01*
G01*
G37*
G36*
G01*
X95990000Y-119255000D02*
X95990000Y-119555000D01*
G75*
G02*
X95840000Y-119705000I-150000J0D01*
G01*
X94190000Y-119705000D01*
G75*
G02*
X94040000Y-119555000I0J150000D01*
G01*
X94040000Y-119255000D01*
G75*
G02*
X94190000Y-119105000I150000J0D01*
G01*
X95840000Y-119105000D01*
G75*
G02*
X95990000Y-119255000I0J-150000D01*
G01*
G37*
G36*
G01*
X95990000Y-120525000D02*
X95990000Y-120825000D01*
G75*
G02*
X95840000Y-120975000I-150000J0D01*
G01*
X94190000Y-120975000D01*
G75*
G02*
X94040000Y-120825000I0J150000D01*
G01*
X94040000Y-120525000D01*
G75*
G02*
X94190000Y-120375000I150000J0D01*
G01*
X95840000Y-120375000D01*
G75*
G02*
X95990000Y-120525000I0J-150000D01*
G01*
G37*
G36*
G01*
X83365000Y-102610000D02*
X83065000Y-102610000D01*
G75*
G02*
X82915000Y-102460000I0J150000D01*
G01*
X82915000Y-100810000D01*
G75*
G02*
X83065000Y-100660000I150000J0D01*
G01*
X83365000Y-100660000D01*
G75*
G02*
X83515000Y-100810000I0J-150000D01*
G01*
X83515000Y-102460000D01*
G75*
G02*
X83365000Y-102610000I-150000J0D01*
G01*
G37*
G36*
G01*
X84635000Y-102610000D02*
X84335000Y-102610000D01*
G75*
G02*
X84185000Y-102460000I0J150000D01*
G01*
X84185000Y-100810000D01*
G75*
G02*
X84335000Y-100660000I150000J0D01*
G01*
X84635000Y-100660000D01*
G75*
G02*
X84785000Y-100810000I0J-150000D01*
G01*
X84785000Y-102460000D01*
G75*
G02*
X84635000Y-102610000I-150000J0D01*
G01*
G37*
G36*
G01*
X85905000Y-102610000D02*
X85605000Y-102610000D01*
G75*
G02*
X85455000Y-102460000I0J150000D01*
G01*
X85455000Y-100810000D01*
G75*
G02*
X85605000Y-100660000I150000J0D01*
G01*
X85905000Y-100660000D01*
G75*
G02*
X86055000Y-100810000I0J-150000D01*
G01*
X86055000Y-102460000D01*
G75*
G02*
X85905000Y-102610000I-150000J0D01*
G01*
G37*
G36*
G01*
X87175000Y-102610000D02*
X86875000Y-102610000D01*
G75*
G02*
X86725000Y-102460000I0J150000D01*
G01*
X86725000Y-100810000D01*
G75*
G02*
X86875000Y-100660000I150000J0D01*
G01*
X87175000Y-100660000D01*
G75*
G02*
X87325000Y-100810000I0J-150000D01*
G01*
X87325000Y-102460000D01*
G75*
G02*
X87175000Y-102610000I-150000J0D01*
G01*
G37*
G36*
G01*
X87175000Y-107560000D02*
X86875000Y-107560000D01*
G75*
G02*
X86725000Y-107410000I0J150000D01*
G01*
X86725000Y-105760000D01*
G75*
G02*
X86875000Y-105610000I150000J0D01*
G01*
X87175000Y-105610000D01*
G75*
G02*
X87325000Y-105760000I0J-150000D01*
G01*
X87325000Y-107410000D01*
G75*
G02*
X87175000Y-107560000I-150000J0D01*
G01*
G37*
G36*
G01*
X85905000Y-107560000D02*
X85605000Y-107560000D01*
G75*
G02*
X85455000Y-107410000I0J150000D01*
G01*
X85455000Y-105760000D01*
G75*
G02*
X85605000Y-105610000I150000J0D01*
G01*
X85905000Y-105610000D01*
G75*
G02*
X86055000Y-105760000I0J-150000D01*
G01*
X86055000Y-107410000D01*
G75*
G02*
X85905000Y-107560000I-150000J0D01*
G01*
G37*
G36*
G01*
X84635000Y-107560000D02*
X84335000Y-107560000D01*
G75*
G02*
X84185000Y-107410000I0J150000D01*
G01*
X84185000Y-105760000D01*
G75*
G02*
X84335000Y-105610000I150000J0D01*
G01*
X84635000Y-105610000D01*
G75*
G02*
X84785000Y-105760000I0J-150000D01*
G01*
X84785000Y-107410000D01*
G75*
G02*
X84635000Y-107560000I-150000J0D01*
G01*
G37*
G36*
G01*
X83365000Y-107560000D02*
X83065000Y-107560000D01*
G75*
G02*
X82915000Y-107410000I0J150000D01*
G01*
X82915000Y-105760000D01*
G75*
G02*
X83065000Y-105610000I150000J0D01*
G01*
X83365000Y-105610000D01*
G75*
G02*
X83515000Y-105760000I0J-150000D01*
G01*
X83515000Y-107410000D01*
G75*
G02*
X83365000Y-107560000I-150000J0D01*
G01*
G37*
D16*
X122102000Y-108518000D03*
D17*
X124877000Y-106243000D03*
X124877000Y-106893000D03*
X124877000Y-107543000D03*
X124877000Y-108193000D03*
X124877000Y-108843000D03*
X124877000Y-109493000D03*
X124877000Y-110143000D03*
X124877000Y-110793000D03*
X119327000Y-110793000D03*
X119327000Y-110143000D03*
X119327000Y-109493000D03*
X119327000Y-108843000D03*
X119327000Y-108193000D03*
X119327000Y-107543000D03*
X119327000Y-106893000D03*
X119327000Y-106243000D03*
G36*
G01*
X127177000Y-161673000D02*
X126977000Y-161673000D01*
G75*
G02*
X126877000Y-161573000I0J100000D01*
G01*
X126877000Y-160298000D01*
G75*
G02*
X126977000Y-160198000I100000J0D01*
G01*
X127177000Y-160198000D01*
G75*
G02*
X127277000Y-160298000I0J-100000D01*
G01*
X127277000Y-161573000D01*
G75*
G02*
X127177000Y-161673000I-100000J0D01*
G01*
G37*
G36*
G01*
X127827000Y-161673000D02*
X127627000Y-161673000D01*
G75*
G02*
X127527000Y-161573000I0J100000D01*
G01*
X127527000Y-160298000D01*
G75*
G02*
X127627000Y-160198000I100000J0D01*
G01*
X127827000Y-160198000D01*
G75*
G02*
X127927000Y-160298000I0J-100000D01*
G01*
X127927000Y-161573000D01*
G75*
G02*
X127827000Y-161673000I-100000J0D01*
G01*
G37*
G36*
G01*
X128477000Y-161673000D02*
X128277000Y-161673000D01*
G75*
G02*
X128177000Y-161573000I0J100000D01*
G01*
X128177000Y-160298000D01*
G75*
G02*
X128277000Y-160198000I100000J0D01*
G01*
X128477000Y-160198000D01*
G75*
G02*
X128577000Y-160298000I0J-100000D01*
G01*
X128577000Y-161573000D01*
G75*
G02*
X128477000Y-161673000I-100000J0D01*
G01*
G37*
G36*
G01*
X129127000Y-161673000D02*
X128927000Y-161673000D01*
G75*
G02*
X128827000Y-161573000I0J100000D01*
G01*
X128827000Y-160298000D01*
G75*
G02*
X128927000Y-160198000I100000J0D01*
G01*
X129127000Y-160198000D01*
G75*
G02*
X129227000Y-160298000I0J-100000D01*
G01*
X129227000Y-161573000D01*
G75*
G02*
X129127000Y-161673000I-100000J0D01*
G01*
G37*
G36*
G01*
X129777000Y-161673000D02*
X129577000Y-161673000D01*
G75*
G02*
X129477000Y-161573000I0J100000D01*
G01*
X129477000Y-160298000D01*
G75*
G02*
X129577000Y-160198000I100000J0D01*
G01*
X129777000Y-160198000D01*
G75*
G02*
X129877000Y-160298000I0J-100000D01*
G01*
X129877000Y-161573000D01*
G75*
G02*
X129777000Y-161673000I-100000J0D01*
G01*
G37*
G36*
G01*
X130427000Y-161673000D02*
X130227000Y-161673000D01*
G75*
G02*
X130127000Y-161573000I0J100000D01*
G01*
X130127000Y-160298000D01*
G75*
G02*
X130227000Y-160198000I100000J0D01*
G01*
X130427000Y-160198000D01*
G75*
G02*
X130527000Y-160298000I0J-100000D01*
G01*
X130527000Y-161573000D01*
G75*
G02*
X130427000Y-161673000I-100000J0D01*
G01*
G37*
G36*
G01*
X131077000Y-161673000D02*
X130877000Y-161673000D01*
G75*
G02*
X130777000Y-161573000I0J100000D01*
G01*
X130777000Y-160298000D01*
G75*
G02*
X130877000Y-160198000I100000J0D01*
G01*
X131077000Y-160198000D01*
G75*
G02*
X131177000Y-160298000I0J-100000D01*
G01*
X131177000Y-161573000D01*
G75*
G02*
X131077000Y-161673000I-100000J0D01*
G01*
G37*
G36*
G01*
X131727000Y-161673000D02*
X131527000Y-161673000D01*
G75*
G02*
X131427000Y-161573000I0J100000D01*
G01*
X131427000Y-160298000D01*
G75*
G02*
X131527000Y-160198000I100000J0D01*
G01*
X131727000Y-160198000D01*
G75*
G02*
X131827000Y-160298000I0J-100000D01*
G01*
X131827000Y-161573000D01*
G75*
G02*
X131727000Y-161673000I-100000J0D01*
G01*
G37*
G36*
G01*
X131727000Y-167398000D02*
X131527000Y-167398000D01*
G75*
G02*
X131427000Y-167298000I0J100000D01*
G01*
X131427000Y-166023000D01*
G75*
G02*
X131527000Y-165923000I100000J0D01*
G01*
X131727000Y-165923000D01*
G75*
G02*
X131827000Y-166023000I0J-100000D01*
G01*
X131827000Y-167298000D01*
G75*
G02*
X131727000Y-167398000I-100000J0D01*
G01*
G37*
G36*
G01*
X131077000Y-167398000D02*
X130877000Y-167398000D01*
G75*
G02*
X130777000Y-167298000I0J100000D01*
G01*
X130777000Y-166023000D01*
G75*
G02*
X130877000Y-165923000I100000J0D01*
G01*
X131077000Y-165923000D01*
G75*
G02*
X131177000Y-166023000I0J-100000D01*
G01*
X131177000Y-167298000D01*
G75*
G02*
X131077000Y-167398000I-100000J0D01*
G01*
G37*
G36*
G01*
X130427000Y-167398000D02*
X130227000Y-167398000D01*
G75*
G02*
X130127000Y-167298000I0J100000D01*
G01*
X130127000Y-166023000D01*
G75*
G02*
X130227000Y-165923000I100000J0D01*
G01*
X130427000Y-165923000D01*
G75*
G02*
X130527000Y-166023000I0J-100000D01*
G01*
X130527000Y-167298000D01*
G75*
G02*
X130427000Y-167398000I-100000J0D01*
G01*
G37*
G36*
G01*
X129777000Y-167398000D02*
X129577000Y-167398000D01*
G75*
G02*
X129477000Y-167298000I0J100000D01*
G01*
X129477000Y-166023000D01*
G75*
G02*
X129577000Y-165923000I100000J0D01*
G01*
X129777000Y-165923000D01*
G75*
G02*
X129877000Y-166023000I0J-100000D01*
G01*
X129877000Y-167298000D01*
G75*
G02*
X129777000Y-167398000I-100000J0D01*
G01*
G37*
G36*
G01*
X129127000Y-167398000D02*
X128927000Y-167398000D01*
G75*
G02*
X128827000Y-167298000I0J100000D01*
G01*
X128827000Y-166023000D01*
G75*
G02*
X128927000Y-165923000I100000J0D01*
G01*
X129127000Y-165923000D01*
G75*
G02*
X129227000Y-166023000I0J-100000D01*
G01*
X129227000Y-167298000D01*
G75*
G02*
X129127000Y-167398000I-100000J0D01*
G01*
G37*
G36*
G01*
X128477000Y-167398000D02*
X128277000Y-167398000D01*
G75*
G02*
X128177000Y-167298000I0J100000D01*
G01*
X128177000Y-166023000D01*
G75*
G02*
X128277000Y-165923000I100000J0D01*
G01*
X128477000Y-165923000D01*
G75*
G02*
X128577000Y-166023000I0J-100000D01*
G01*
X128577000Y-167298000D01*
G75*
G02*
X128477000Y-167398000I-100000J0D01*
G01*
G37*
G36*
G01*
X127827000Y-167398000D02*
X127627000Y-167398000D01*
G75*
G02*
X127527000Y-167298000I0J100000D01*
G01*
X127527000Y-166023000D01*
G75*
G02*
X127627000Y-165923000I100000J0D01*
G01*
X127827000Y-165923000D01*
G75*
G02*
X127927000Y-166023000I0J-100000D01*
G01*
X127927000Y-167298000D01*
G75*
G02*
X127827000Y-167398000I-100000J0D01*
G01*
G37*
G36*
G01*
X127177000Y-167398000D02*
X126977000Y-167398000D01*
G75*
G02*
X126877000Y-167298000I0J100000D01*
G01*
X126877000Y-166023000D01*
G75*
G02*
X126977000Y-165923000I100000J0D01*
G01*
X127177000Y-165923000D01*
G75*
G02*
X127277000Y-166023000I0J-100000D01*
G01*
X127277000Y-167298000D01*
G75*
G02*
X127177000Y-167398000I-100000J0D01*
G01*
G37*
G36*
G01*
X135077000Y-161673000D02*
X134877000Y-161673000D01*
G75*
G02*
X134777000Y-161573000I0J100000D01*
G01*
X134777000Y-160298000D01*
G75*
G02*
X134877000Y-160198000I100000J0D01*
G01*
X135077000Y-160198000D01*
G75*
G02*
X135177000Y-160298000I0J-100000D01*
G01*
X135177000Y-161573000D01*
G75*
G02*
X135077000Y-161673000I-100000J0D01*
G01*
G37*
G36*
G01*
X135727000Y-161673000D02*
X135527000Y-161673000D01*
G75*
G02*
X135427000Y-161573000I0J100000D01*
G01*
X135427000Y-160298000D01*
G75*
G02*
X135527000Y-160198000I100000J0D01*
G01*
X135727000Y-160198000D01*
G75*
G02*
X135827000Y-160298000I0J-100000D01*
G01*
X135827000Y-161573000D01*
G75*
G02*
X135727000Y-161673000I-100000J0D01*
G01*
G37*
G36*
G01*
X136377000Y-161673000D02*
X136177000Y-161673000D01*
G75*
G02*
X136077000Y-161573000I0J100000D01*
G01*
X136077000Y-160298000D01*
G75*
G02*
X136177000Y-160198000I100000J0D01*
G01*
X136377000Y-160198000D01*
G75*
G02*
X136477000Y-160298000I0J-100000D01*
G01*
X136477000Y-161573000D01*
G75*
G02*
X136377000Y-161673000I-100000J0D01*
G01*
G37*
G36*
G01*
X137027000Y-161673000D02*
X136827000Y-161673000D01*
G75*
G02*
X136727000Y-161573000I0J100000D01*
G01*
X136727000Y-160298000D01*
G75*
G02*
X136827000Y-160198000I100000J0D01*
G01*
X137027000Y-160198000D01*
G75*
G02*
X137127000Y-160298000I0J-100000D01*
G01*
X137127000Y-161573000D01*
G75*
G02*
X137027000Y-161673000I-100000J0D01*
G01*
G37*
G36*
G01*
X137677000Y-161673000D02*
X137477000Y-161673000D01*
G75*
G02*
X137377000Y-161573000I0J100000D01*
G01*
X137377000Y-160298000D01*
G75*
G02*
X137477000Y-160198000I100000J0D01*
G01*
X137677000Y-160198000D01*
G75*
G02*
X137777000Y-160298000I0J-100000D01*
G01*
X137777000Y-161573000D01*
G75*
G02*
X137677000Y-161673000I-100000J0D01*
G01*
G37*
G36*
G01*
X138327000Y-161673000D02*
X138127000Y-161673000D01*
G75*
G02*
X138027000Y-161573000I0J100000D01*
G01*
X138027000Y-160298000D01*
G75*
G02*
X138127000Y-160198000I100000J0D01*
G01*
X138327000Y-160198000D01*
G75*
G02*
X138427000Y-160298000I0J-100000D01*
G01*
X138427000Y-161573000D01*
G75*
G02*
X138327000Y-161673000I-100000J0D01*
G01*
G37*
G36*
G01*
X138977000Y-161673000D02*
X138777000Y-161673000D01*
G75*
G02*
X138677000Y-161573000I0J100000D01*
G01*
X138677000Y-160298000D01*
G75*
G02*
X138777000Y-160198000I100000J0D01*
G01*
X138977000Y-160198000D01*
G75*
G02*
X139077000Y-160298000I0J-100000D01*
G01*
X139077000Y-161573000D01*
G75*
G02*
X138977000Y-161673000I-100000J0D01*
G01*
G37*
G36*
G01*
X139627000Y-161673000D02*
X139427000Y-161673000D01*
G75*
G02*
X139327000Y-161573000I0J100000D01*
G01*
X139327000Y-160298000D01*
G75*
G02*
X139427000Y-160198000I100000J0D01*
G01*
X139627000Y-160198000D01*
G75*
G02*
X139727000Y-160298000I0J-100000D01*
G01*
X139727000Y-161573000D01*
G75*
G02*
X139627000Y-161673000I-100000J0D01*
G01*
G37*
G36*
G01*
X139627000Y-167398000D02*
X139427000Y-167398000D01*
G75*
G02*
X139327000Y-167298000I0J100000D01*
G01*
X139327000Y-166023000D01*
G75*
G02*
X139427000Y-165923000I100000J0D01*
G01*
X139627000Y-165923000D01*
G75*
G02*
X139727000Y-166023000I0J-100000D01*
G01*
X139727000Y-167298000D01*
G75*
G02*
X139627000Y-167398000I-100000J0D01*
G01*
G37*
G36*
G01*
X138977000Y-167398000D02*
X138777000Y-167398000D01*
G75*
G02*
X138677000Y-167298000I0J100000D01*
G01*
X138677000Y-166023000D01*
G75*
G02*
X138777000Y-165923000I100000J0D01*
G01*
X138977000Y-165923000D01*
G75*
G02*
X139077000Y-166023000I0J-100000D01*
G01*
X139077000Y-167298000D01*
G75*
G02*
X138977000Y-167398000I-100000J0D01*
G01*
G37*
G36*
G01*
X138327000Y-167398000D02*
X138127000Y-167398000D01*
G75*
G02*
X138027000Y-167298000I0J100000D01*
G01*
X138027000Y-166023000D01*
G75*
G02*
X138127000Y-165923000I100000J0D01*
G01*
X138327000Y-165923000D01*
G75*
G02*
X138427000Y-166023000I0J-100000D01*
G01*
X138427000Y-167298000D01*
G75*
G02*
X138327000Y-167398000I-100000J0D01*
G01*
G37*
G36*
G01*
X137677000Y-167398000D02*
X137477000Y-167398000D01*
G75*
G02*
X137377000Y-167298000I0J100000D01*
G01*
X137377000Y-166023000D01*
G75*
G02*
X137477000Y-165923000I100000J0D01*
G01*
X137677000Y-165923000D01*
G75*
G02*
X137777000Y-166023000I0J-100000D01*
G01*
X137777000Y-167298000D01*
G75*
G02*
X137677000Y-167398000I-100000J0D01*
G01*
G37*
G36*
G01*
X137027000Y-167398000D02*
X136827000Y-167398000D01*
G75*
G02*
X136727000Y-167298000I0J100000D01*
G01*
X136727000Y-166023000D01*
G75*
G02*
X136827000Y-165923000I100000J0D01*
G01*
X137027000Y-165923000D01*
G75*
G02*
X137127000Y-166023000I0J-100000D01*
G01*
X137127000Y-167298000D01*
G75*
G02*
X137027000Y-167398000I-100000J0D01*
G01*
G37*
G36*
G01*
X136377000Y-167398000D02*
X136177000Y-167398000D01*
G75*
G02*
X136077000Y-167298000I0J100000D01*
G01*
X136077000Y-166023000D01*
G75*
G02*
X136177000Y-165923000I100000J0D01*
G01*
X136377000Y-165923000D01*
G75*
G02*
X136477000Y-166023000I0J-100000D01*
G01*
X136477000Y-167298000D01*
G75*
G02*
X136377000Y-167398000I-100000J0D01*
G01*
G37*
G36*
G01*
X135727000Y-167398000D02*
X135527000Y-167398000D01*
G75*
G02*
X135427000Y-167298000I0J100000D01*
G01*
X135427000Y-166023000D01*
G75*
G02*
X135527000Y-165923000I100000J0D01*
G01*
X135727000Y-165923000D01*
G75*
G02*
X135827000Y-166023000I0J-100000D01*
G01*
X135827000Y-167298000D01*
G75*
G02*
X135727000Y-167398000I-100000J0D01*
G01*
G37*
G36*
G01*
X135077000Y-167398000D02*
X134877000Y-167398000D01*
G75*
G02*
X134777000Y-167298000I0J100000D01*
G01*
X134777000Y-166023000D01*
G75*
G02*
X134877000Y-165923000I100000J0D01*
G01*
X135077000Y-165923000D01*
G75*
G02*
X135177000Y-166023000I0J-100000D01*
G01*
X135177000Y-167298000D01*
G75*
G02*
X135077000Y-167398000I-100000J0D01*
G01*
G37*
G36*
G01*
X85227000Y-144148000D02*
X85227000Y-143948000D01*
G75*
G02*
X85327000Y-143848000I100000J0D01*
G01*
X86602000Y-143848000D01*
G75*
G02*
X86702000Y-143948000I0J-100000D01*
G01*
X86702000Y-144148000D01*
G75*
G02*
X86602000Y-144248000I-100000J0D01*
G01*
X85327000Y-144248000D01*
G75*
G02*
X85227000Y-144148000I0J100000D01*
G01*
G37*
G36*
G01*
X85227000Y-144798000D02*
X85227000Y-144598000D01*
G75*
G02*
X85327000Y-144498000I100000J0D01*
G01*
X86602000Y-144498000D01*
G75*
G02*
X86702000Y-144598000I0J-100000D01*
G01*
X86702000Y-144798000D01*
G75*
G02*
X86602000Y-144898000I-100000J0D01*
G01*
X85327000Y-144898000D01*
G75*
G02*
X85227000Y-144798000I0J100000D01*
G01*
G37*
G36*
G01*
X85227000Y-145448000D02*
X85227000Y-145248000D01*
G75*
G02*
X85327000Y-145148000I100000J0D01*
G01*
X86602000Y-145148000D01*
G75*
G02*
X86702000Y-145248000I0J-100000D01*
G01*
X86702000Y-145448000D01*
G75*
G02*
X86602000Y-145548000I-100000J0D01*
G01*
X85327000Y-145548000D01*
G75*
G02*
X85227000Y-145448000I0J100000D01*
G01*
G37*
G36*
G01*
X85227000Y-146098000D02*
X85227000Y-145898000D01*
G75*
G02*
X85327000Y-145798000I100000J0D01*
G01*
X86602000Y-145798000D01*
G75*
G02*
X86702000Y-145898000I0J-100000D01*
G01*
X86702000Y-146098000D01*
G75*
G02*
X86602000Y-146198000I-100000J0D01*
G01*
X85327000Y-146198000D01*
G75*
G02*
X85227000Y-146098000I0J100000D01*
G01*
G37*
G36*
G01*
X85227000Y-146748000D02*
X85227000Y-146548000D01*
G75*
G02*
X85327000Y-146448000I100000J0D01*
G01*
X86602000Y-146448000D01*
G75*
G02*
X86702000Y-146548000I0J-100000D01*
G01*
X86702000Y-146748000D01*
G75*
G02*
X86602000Y-146848000I-100000J0D01*
G01*
X85327000Y-146848000D01*
G75*
G02*
X85227000Y-146748000I0J100000D01*
G01*
G37*
G36*
G01*
X85227000Y-147398000D02*
X85227000Y-147198000D01*
G75*
G02*
X85327000Y-147098000I100000J0D01*
G01*
X86602000Y-147098000D01*
G75*
G02*
X86702000Y-147198000I0J-100000D01*
G01*
X86702000Y-147398000D01*
G75*
G02*
X86602000Y-147498000I-100000J0D01*
G01*
X85327000Y-147498000D01*
G75*
G02*
X85227000Y-147398000I0J100000D01*
G01*
G37*
G36*
G01*
X85227000Y-148048000D02*
X85227000Y-147848000D01*
G75*
G02*
X85327000Y-147748000I100000J0D01*
G01*
X86602000Y-147748000D01*
G75*
G02*
X86702000Y-147848000I0J-100000D01*
G01*
X86702000Y-148048000D01*
G75*
G02*
X86602000Y-148148000I-100000J0D01*
G01*
X85327000Y-148148000D01*
G75*
G02*
X85227000Y-148048000I0J100000D01*
G01*
G37*
G36*
G01*
X85227000Y-148698000D02*
X85227000Y-148498000D01*
G75*
G02*
X85327000Y-148398000I100000J0D01*
G01*
X86602000Y-148398000D01*
G75*
G02*
X86702000Y-148498000I0J-100000D01*
G01*
X86702000Y-148698000D01*
G75*
G02*
X86602000Y-148798000I-100000J0D01*
G01*
X85327000Y-148798000D01*
G75*
G02*
X85227000Y-148698000I0J100000D01*
G01*
G37*
G36*
G01*
X79502000Y-148698000D02*
X79502000Y-148498000D01*
G75*
G02*
X79602000Y-148398000I100000J0D01*
G01*
X80877000Y-148398000D01*
G75*
G02*
X80977000Y-148498000I0J-100000D01*
G01*
X80977000Y-148698000D01*
G75*
G02*
X80877000Y-148798000I-100000J0D01*
G01*
X79602000Y-148798000D01*
G75*
G02*
X79502000Y-148698000I0J100000D01*
G01*
G37*
G36*
G01*
X79502000Y-148048000D02*
X79502000Y-147848000D01*
G75*
G02*
X79602000Y-147748000I100000J0D01*
G01*
X80877000Y-147748000D01*
G75*
G02*
X80977000Y-147848000I0J-100000D01*
G01*
X80977000Y-148048000D01*
G75*
G02*
X80877000Y-148148000I-100000J0D01*
G01*
X79602000Y-148148000D01*
G75*
G02*
X79502000Y-148048000I0J100000D01*
G01*
G37*
G36*
G01*
X79502000Y-147398000D02*
X79502000Y-147198000D01*
G75*
G02*
X79602000Y-147098000I100000J0D01*
G01*
X80877000Y-147098000D01*
G75*
G02*
X80977000Y-147198000I0J-100000D01*
G01*
X80977000Y-147398000D01*
G75*
G02*
X80877000Y-147498000I-100000J0D01*
G01*
X79602000Y-147498000D01*
G75*
G02*
X79502000Y-147398000I0J100000D01*
G01*
G37*
G36*
G01*
X79502000Y-146748000D02*
X79502000Y-146548000D01*
G75*
G02*
X79602000Y-146448000I100000J0D01*
G01*
X80877000Y-146448000D01*
G75*
G02*
X80977000Y-146548000I0J-100000D01*
G01*
X80977000Y-146748000D01*
G75*
G02*
X80877000Y-146848000I-100000J0D01*
G01*
X79602000Y-146848000D01*
G75*
G02*
X79502000Y-146748000I0J100000D01*
G01*
G37*
G36*
G01*
X79502000Y-146098000D02*
X79502000Y-145898000D01*
G75*
G02*
X79602000Y-145798000I100000J0D01*
G01*
X80877000Y-145798000D01*
G75*
G02*
X80977000Y-145898000I0J-100000D01*
G01*
X80977000Y-146098000D01*
G75*
G02*
X80877000Y-146198000I-100000J0D01*
G01*
X79602000Y-146198000D01*
G75*
G02*
X79502000Y-146098000I0J100000D01*
G01*
G37*
G36*
G01*
X79502000Y-145448000D02*
X79502000Y-145248000D01*
G75*
G02*
X79602000Y-145148000I100000J0D01*
G01*
X80877000Y-145148000D01*
G75*
G02*
X80977000Y-145248000I0J-100000D01*
G01*
X80977000Y-145448000D01*
G75*
G02*
X80877000Y-145548000I-100000J0D01*
G01*
X79602000Y-145548000D01*
G75*
G02*
X79502000Y-145448000I0J100000D01*
G01*
G37*
G36*
G01*
X79502000Y-144798000D02*
X79502000Y-144598000D01*
G75*
G02*
X79602000Y-144498000I100000J0D01*
G01*
X80877000Y-144498000D01*
G75*
G02*
X80977000Y-144598000I0J-100000D01*
G01*
X80977000Y-144798000D01*
G75*
G02*
X80877000Y-144898000I-100000J0D01*
G01*
X79602000Y-144898000D01*
G75*
G02*
X79502000Y-144798000I0J100000D01*
G01*
G37*
G36*
G01*
X79502000Y-144148000D02*
X79502000Y-143948000D01*
G75*
G02*
X79602000Y-143848000I100000J0D01*
G01*
X80877000Y-143848000D01*
G75*
G02*
X80977000Y-143948000I0J-100000D01*
G01*
X80977000Y-144148000D01*
G75*
G02*
X80877000Y-144248000I-100000J0D01*
G01*
X79602000Y-144248000D01*
G75*
G02*
X79502000Y-144148000I0J100000D01*
G01*
G37*
D18*
X58818000Y-53660000D03*
X58818000Y-54610000D03*
X58818000Y-55560000D03*
X56498000Y-55560000D03*
X56498000Y-54610000D03*
X56498000Y-53660000D03*
G36*
G01*
X48283000Y-75970000D02*
X47983000Y-75970000D01*
G75*
G02*
X47833000Y-75820000I0J150000D01*
G01*
X47833000Y-74170000D01*
G75*
G02*
X47983000Y-74020000I150000J0D01*
G01*
X48283000Y-74020000D01*
G75*
G02*
X48433000Y-74170000I0J-150000D01*
G01*
X48433000Y-75820000D01*
G75*
G02*
X48283000Y-75970000I-150000J0D01*
G01*
G37*
G36*
G01*
X49553000Y-75970000D02*
X49253000Y-75970000D01*
G75*
G02*
X49103000Y-75820000I0J150000D01*
G01*
X49103000Y-74170000D01*
G75*
G02*
X49253000Y-74020000I150000J0D01*
G01*
X49553000Y-74020000D01*
G75*
G02*
X49703000Y-74170000I0J-150000D01*
G01*
X49703000Y-75820000D01*
G75*
G02*
X49553000Y-75970000I-150000J0D01*
G01*
G37*
G36*
G01*
X50823000Y-75970000D02*
X50523000Y-75970000D01*
G75*
G02*
X50373000Y-75820000I0J150000D01*
G01*
X50373000Y-74170000D01*
G75*
G02*
X50523000Y-74020000I150000J0D01*
G01*
X50823000Y-74020000D01*
G75*
G02*
X50973000Y-74170000I0J-150000D01*
G01*
X50973000Y-75820000D01*
G75*
G02*
X50823000Y-75970000I-150000J0D01*
G01*
G37*
G36*
G01*
X52093000Y-75970000D02*
X51793000Y-75970000D01*
G75*
G02*
X51643000Y-75820000I0J150000D01*
G01*
X51643000Y-74170000D01*
G75*
G02*
X51793000Y-74020000I150000J0D01*
G01*
X52093000Y-74020000D01*
G75*
G02*
X52243000Y-74170000I0J-150000D01*
G01*
X52243000Y-75820000D01*
G75*
G02*
X52093000Y-75970000I-150000J0D01*
G01*
G37*
G36*
G01*
X52093000Y-80920000D02*
X51793000Y-80920000D01*
G75*
G02*
X51643000Y-80770000I0J150000D01*
G01*
X51643000Y-79120000D01*
G75*
G02*
X51793000Y-78970000I150000J0D01*
G01*
X52093000Y-78970000D01*
G75*
G02*
X52243000Y-79120000I0J-150000D01*
G01*
X52243000Y-80770000D01*
G75*
G02*
X52093000Y-80920000I-150000J0D01*
G01*
G37*
G36*
G01*
X50823000Y-80920000D02*
X50523000Y-80920000D01*
G75*
G02*
X50373000Y-80770000I0J150000D01*
G01*
X50373000Y-79120000D01*
G75*
G02*
X50523000Y-78970000I150000J0D01*
G01*
X50823000Y-78970000D01*
G75*
G02*
X50973000Y-79120000I0J-150000D01*
G01*
X50973000Y-80770000D01*
G75*
G02*
X50823000Y-80920000I-150000J0D01*
G01*
G37*
G36*
G01*
X49553000Y-80920000D02*
X49253000Y-80920000D01*
G75*
G02*
X49103000Y-80770000I0J150000D01*
G01*
X49103000Y-79120000D01*
G75*
G02*
X49253000Y-78970000I150000J0D01*
G01*
X49553000Y-78970000D01*
G75*
G02*
X49703000Y-79120000I0J-150000D01*
G01*
X49703000Y-80770000D01*
G75*
G02*
X49553000Y-80920000I-150000J0D01*
G01*
G37*
G36*
G01*
X48283000Y-80920000D02*
X47983000Y-80920000D01*
G75*
G02*
X47833000Y-80770000I0J150000D01*
G01*
X47833000Y-79120000D01*
G75*
G02*
X47983000Y-78970000I150000J0D01*
G01*
X48283000Y-78970000D01*
G75*
G02*
X48433000Y-79120000I0J-150000D01*
G01*
X48433000Y-80770000D01*
G75*
G02*
X48283000Y-80920000I-150000J0D01*
G01*
G37*
G36*
G01*
X54379000Y-75970000D02*
X54079000Y-75970000D01*
G75*
G02*
X53929000Y-75820000I0J150000D01*
G01*
X53929000Y-74170000D01*
G75*
G02*
X54079000Y-74020000I150000J0D01*
G01*
X54379000Y-74020000D01*
G75*
G02*
X54529000Y-74170000I0J-150000D01*
G01*
X54529000Y-75820000D01*
G75*
G02*
X54379000Y-75970000I-150000J0D01*
G01*
G37*
G36*
G01*
X55649000Y-75970000D02*
X55349000Y-75970000D01*
G75*
G02*
X55199000Y-75820000I0J150000D01*
G01*
X55199000Y-74170000D01*
G75*
G02*
X55349000Y-74020000I150000J0D01*
G01*
X55649000Y-74020000D01*
G75*
G02*
X55799000Y-74170000I0J-150000D01*
G01*
X55799000Y-75820000D01*
G75*
G02*
X55649000Y-75970000I-150000J0D01*
G01*
G37*
G36*
G01*
X56919000Y-75970000D02*
X56619000Y-75970000D01*
G75*
G02*
X56469000Y-75820000I0J150000D01*
G01*
X56469000Y-74170000D01*
G75*
G02*
X56619000Y-74020000I150000J0D01*
G01*
X56919000Y-74020000D01*
G75*
G02*
X57069000Y-74170000I0J-150000D01*
G01*
X57069000Y-75820000D01*
G75*
G02*
X56919000Y-75970000I-150000J0D01*
G01*
G37*
G36*
G01*
X58189000Y-75970000D02*
X57889000Y-75970000D01*
G75*
G02*
X57739000Y-75820000I0J150000D01*
G01*
X57739000Y-74170000D01*
G75*
G02*
X57889000Y-74020000I150000J0D01*
G01*
X58189000Y-74020000D01*
G75*
G02*
X58339000Y-74170000I0J-150000D01*
G01*
X58339000Y-75820000D01*
G75*
G02*
X58189000Y-75970000I-150000J0D01*
G01*
G37*
G36*
G01*
X58189000Y-80920000D02*
X57889000Y-80920000D01*
G75*
G02*
X57739000Y-80770000I0J150000D01*
G01*
X57739000Y-79120000D01*
G75*
G02*
X57889000Y-78970000I150000J0D01*
G01*
X58189000Y-78970000D01*
G75*
G02*
X58339000Y-79120000I0J-150000D01*
G01*
X58339000Y-80770000D01*
G75*
G02*
X58189000Y-80920000I-150000J0D01*
G01*
G37*
G36*
G01*
X56919000Y-80920000D02*
X56619000Y-80920000D01*
G75*
G02*
X56469000Y-80770000I0J150000D01*
G01*
X56469000Y-79120000D01*
G75*
G02*
X56619000Y-78970000I150000J0D01*
G01*
X56919000Y-78970000D01*
G75*
G02*
X57069000Y-79120000I0J-150000D01*
G01*
X57069000Y-80770000D01*
G75*
G02*
X56919000Y-80920000I-150000J0D01*
G01*
G37*
G36*
G01*
X55649000Y-80920000D02*
X55349000Y-80920000D01*
G75*
G02*
X55199000Y-80770000I0J150000D01*
G01*
X55199000Y-79120000D01*
G75*
G02*
X55349000Y-78970000I150000J0D01*
G01*
X55649000Y-78970000D01*
G75*
G02*
X55799000Y-79120000I0J-150000D01*
G01*
X55799000Y-80770000D01*
G75*
G02*
X55649000Y-80920000I-150000J0D01*
G01*
G37*
G36*
G01*
X54379000Y-80920000D02*
X54079000Y-80920000D01*
G75*
G02*
X53929000Y-80770000I0J150000D01*
G01*
X53929000Y-79120000D01*
G75*
G02*
X54079000Y-78970000I150000J0D01*
G01*
X54379000Y-78970000D01*
G75*
G02*
X54529000Y-79120000I0J-150000D01*
G01*
X54529000Y-80770000D01*
G75*
G02*
X54379000Y-80920000I-150000J0D01*
G01*
G37*
D19*
X85045000Y-85700000D03*
X85695000Y-85700000D03*
X86345000Y-85700000D03*
X86995000Y-85700000D03*
X86995000Y-90000000D03*
X86345000Y-90000000D03*
X85695000Y-90000000D03*
X85045000Y-90000000D03*
G36*
G01*
X52063000Y-82687500D02*
X52063000Y-82412500D01*
G75*
G02*
X52200500Y-82275000I137500J0D01*
G01*
X53375500Y-82275000D01*
G75*
G02*
X53513000Y-82412500I0J-137500D01*
G01*
X53513000Y-82687500D01*
G75*
G02*
X53375500Y-82825000I-137500J0D01*
G01*
X52200500Y-82825000D01*
G75*
G02*
X52063000Y-82687500I0J137500D01*
G01*
G37*
G36*
G01*
X52063000Y-85227500D02*
X52063000Y-84952500D01*
G75*
G02*
X52200500Y-84815000I137500J0D01*
G01*
X53375500Y-84815000D01*
G75*
G02*
X53513000Y-84952500I0J-137500D01*
G01*
X53513000Y-85227500D01*
G75*
G02*
X53375500Y-85365000I-137500J0D01*
G01*
X52200500Y-85365000D01*
G75*
G02*
X52063000Y-85227500I0J137500D01*
G01*
G37*
G36*
G01*
X46563000Y-85227500D02*
X46563000Y-84952500D01*
G75*
G02*
X46700500Y-84815000I137500J0D01*
G01*
X47875500Y-84815000D01*
G75*
G02*
X48013000Y-84952500I0J-137500D01*
G01*
X48013000Y-85227500D01*
G75*
G02*
X47875500Y-85365000I-137500J0D01*
G01*
X46700500Y-85365000D01*
G75*
G02*
X46563000Y-85227500I0J137500D01*
G01*
G37*
G36*
G01*
X46563000Y-82687500D02*
X46563000Y-82412500D01*
G75*
G02*
X46700500Y-82275000I137500J0D01*
G01*
X47875500Y-82275000D01*
G75*
G02*
X48013000Y-82412500I0J-137500D01*
G01*
X48013000Y-82687500D01*
G75*
G02*
X47875500Y-82825000I-137500J0D01*
G01*
X46700500Y-82825000D01*
G75*
G02*
X46563000Y-82687500I0J137500D01*
G01*
G37*
G36*
G01*
X60085000Y-82697500D02*
X60085000Y-82422500D01*
G75*
G02*
X60222500Y-82285000I137500J0D01*
G01*
X61397500Y-82285000D01*
G75*
G02*
X61535000Y-82422500I0J-137500D01*
G01*
X61535000Y-82697500D01*
G75*
G02*
X61397500Y-82835000I-137500J0D01*
G01*
X60222500Y-82835000D01*
G75*
G02*
X60085000Y-82697500I0J137500D01*
G01*
G37*
G36*
G01*
X60085000Y-85237500D02*
X60085000Y-84962500D01*
G75*
G02*
X60222500Y-84825000I137500J0D01*
G01*
X61397500Y-84825000D01*
G75*
G02*
X61535000Y-84962500I0J-137500D01*
G01*
X61535000Y-85237500D01*
G75*
G02*
X61397500Y-85375000I-137500J0D01*
G01*
X60222500Y-85375000D01*
G75*
G02*
X60085000Y-85237500I0J137500D01*
G01*
G37*
G36*
G01*
X54585000Y-85237500D02*
X54585000Y-84962500D01*
G75*
G02*
X54722500Y-84825000I137500J0D01*
G01*
X55897500Y-84825000D01*
G75*
G02*
X56035000Y-84962500I0J-137500D01*
G01*
X56035000Y-85237500D01*
G75*
G02*
X55897500Y-85375000I-137500J0D01*
G01*
X54722500Y-85375000D01*
G75*
G02*
X54585000Y-85237500I0J137500D01*
G01*
G37*
G36*
G01*
X54585000Y-82697500D02*
X54585000Y-82422500D01*
G75*
G02*
X54722500Y-82285000I137500J0D01*
G01*
X55897500Y-82285000D01*
G75*
G02*
X56035000Y-82422500I0J-137500D01*
G01*
X56035000Y-82697500D01*
G75*
G02*
X55897500Y-82835000I-137500J0D01*
G01*
X54722500Y-82835000D01*
G75*
G02*
X54585000Y-82697500I0J137500D01*
G01*
G37*
D20*
X45680000Y-115758000D03*
X45680000Y-114808000D03*
X45680000Y-113858000D03*
X48300000Y-113858000D03*
X48300000Y-114808000D03*
X48300000Y-115758000D03*
X50332000Y-129098000D03*
X50332000Y-130048000D03*
X50332000Y-130998000D03*
X47712000Y-130998000D03*
X47712000Y-130048000D03*
X47712000Y-129098000D03*
D18*
X42816000Y-76012000D03*
X42816000Y-76962000D03*
X42816000Y-77912000D03*
X40496000Y-77912000D03*
X40496000Y-76962000D03*
X40496000Y-76012000D03*
D15*
X128330000Y-123720000D03*
X125790000Y-123720000D03*
X123250000Y-123720000D03*
X120710000Y-123720000D03*
X118170000Y-123720000D03*
X123290000Y-93280000D03*
X120750000Y-93280000D03*
X118210000Y-93280000D03*
X115670000Y-93280000D03*
D21*
X116600000Y-126600000D03*
X127500000Y-90300000D03*
G36*
G01*
X54116000Y-128339000D02*
X54116000Y-128709000D01*
G75*
G02*
X53981000Y-128844000I-135000J0D01*
G01*
X53711000Y-128844000D01*
G75*
G02*
X53576000Y-128709000I0J135000D01*
G01*
X53576000Y-128339000D01*
G75*
G02*
X53711000Y-128204000I135000J0D01*
G01*
X53981000Y-128204000D01*
G75*
G02*
X54116000Y-128339000I0J-135000D01*
G01*
G37*
G36*
G01*
X55136000Y-128339000D02*
X55136000Y-128709000D01*
G75*
G02*
X55001000Y-128844000I-135000J0D01*
G01*
X54731000Y-128844000D01*
G75*
G02*
X54596000Y-128709000I0J135000D01*
G01*
X54596000Y-128339000D01*
G75*
G02*
X54731000Y-128204000I135000J0D01*
G01*
X55001000Y-128204000D01*
G75*
G02*
X55136000Y-128339000I0J-135000D01*
G01*
G37*
G36*
G01*
X54116000Y-130117000D02*
X54116000Y-130487000D01*
G75*
G02*
X53981000Y-130622000I-135000J0D01*
G01*
X53711000Y-130622000D01*
G75*
G02*
X53576000Y-130487000I0J135000D01*
G01*
X53576000Y-130117000D01*
G75*
G02*
X53711000Y-129982000I135000J0D01*
G01*
X53981000Y-129982000D01*
G75*
G02*
X54116000Y-130117000I0J-135000D01*
G01*
G37*
G36*
G01*
X55136000Y-130117000D02*
X55136000Y-130487000D01*
G75*
G02*
X55001000Y-130622000I-135000J0D01*
G01*
X54731000Y-130622000D01*
G75*
G02*
X54596000Y-130487000I0J135000D01*
G01*
X54596000Y-130117000D01*
G75*
G02*
X54731000Y-129982000I135000J0D01*
G01*
X55001000Y-129982000D01*
G75*
G02*
X55136000Y-130117000I0J-135000D01*
G01*
G37*
G36*
G01*
X47258000Y-132657000D02*
X47258000Y-133027000D01*
G75*
G02*
X47123000Y-133162000I-135000J0D01*
G01*
X46853000Y-133162000D01*
G75*
G02*
X46718000Y-133027000I0J135000D01*
G01*
X46718000Y-132657000D01*
G75*
G02*
X46853000Y-132522000I135000J0D01*
G01*
X47123000Y-132522000D01*
G75*
G02*
X47258000Y-132657000I0J-135000D01*
G01*
G37*
G36*
G01*
X48278000Y-132657000D02*
X48278000Y-133027000D01*
G75*
G02*
X48143000Y-133162000I-135000J0D01*
G01*
X47873000Y-133162000D01*
G75*
G02*
X47738000Y-133027000I0J135000D01*
G01*
X47738000Y-132657000D01*
G75*
G02*
X47873000Y-132522000I135000J0D01*
G01*
X48143000Y-132522000D01*
G75*
G02*
X48278000Y-132657000I0J-135000D01*
G01*
G37*
G36*
G01*
X47258000Y-134435000D02*
X47258000Y-134805000D01*
G75*
G02*
X47123000Y-134940000I-135000J0D01*
G01*
X46853000Y-134940000D01*
G75*
G02*
X46718000Y-134805000I0J135000D01*
G01*
X46718000Y-134435000D01*
G75*
G02*
X46853000Y-134300000I135000J0D01*
G01*
X47123000Y-134300000D01*
G75*
G02*
X47258000Y-134435000I0J-135000D01*
G01*
G37*
G36*
G01*
X48278000Y-134435000D02*
X48278000Y-134805000D01*
G75*
G02*
X48143000Y-134940000I-135000J0D01*
G01*
X47873000Y-134940000D01*
G75*
G02*
X47738000Y-134805000I0J135000D01*
G01*
X47738000Y-134435000D01*
G75*
G02*
X47873000Y-134300000I135000J0D01*
G01*
X48143000Y-134300000D01*
G75*
G02*
X48278000Y-134435000I0J-135000D01*
G01*
G37*
D22*
X60727000Y-42148000D03*
X60727000Y-37648000D03*
X52777000Y-37648000D03*
X52777000Y-42148000D03*
G36*
G01*
X50706998Y-58178000D02*
X51957002Y-58178000D01*
G75*
G02*
X52207000Y-58427998I0J-249998D01*
G01*
X52207000Y-59053002D01*
G75*
G02*
X51957002Y-59303000I-249998J0D01*
G01*
X50706998Y-59303000D01*
G75*
G02*
X50457000Y-59053002I0J249998D01*
G01*
X50457000Y-58427998D01*
G75*
G02*
X50706998Y-58178000I249998J0D01*
G01*
G37*
G36*
G01*
X50706998Y-55253000D02*
X51957002Y-55253000D01*
G75*
G02*
X52207000Y-55502998I0J-249998D01*
G01*
X52207000Y-56128002D01*
G75*
G02*
X51957002Y-56378000I-249998J0D01*
G01*
X50706998Y-56378000D01*
G75*
G02*
X50457000Y-56128002I0J249998D01*
G01*
X50457000Y-55502998D01*
G75*
G02*
X50706998Y-55253000I249998J0D01*
G01*
G37*
G36*
G01*
X143750000Y-162237000D02*
X143750000Y-161867000D01*
G75*
G02*
X143885000Y-161732000I135000J0D01*
G01*
X144155000Y-161732000D01*
G75*
G02*
X144290000Y-161867000I0J-135000D01*
G01*
X144290000Y-162237000D01*
G75*
G02*
X144155000Y-162372000I-135000J0D01*
G01*
X143885000Y-162372000D01*
G75*
G02*
X143750000Y-162237000I0J135000D01*
G01*
G37*
G36*
G01*
X142730000Y-162237000D02*
X142730000Y-161867000D01*
G75*
G02*
X142865000Y-161732000I135000J0D01*
G01*
X143135000Y-161732000D01*
G75*
G02*
X143270000Y-161867000I0J-135000D01*
G01*
X143270000Y-162237000D01*
G75*
G02*
X143135000Y-162372000I-135000J0D01*
G01*
X142865000Y-162372000D01*
G75*
G02*
X142730000Y-162237000I0J135000D01*
G01*
G37*
G36*
G01*
X53354000Y-153739000D02*
X53354000Y-154109000D01*
G75*
G02*
X53219000Y-154244000I-135000J0D01*
G01*
X52949000Y-154244000D01*
G75*
G02*
X52814000Y-154109000I0J135000D01*
G01*
X52814000Y-153739000D01*
G75*
G02*
X52949000Y-153604000I135000J0D01*
G01*
X53219000Y-153604000D01*
G75*
G02*
X53354000Y-153739000I0J-135000D01*
G01*
G37*
G36*
G01*
X54374000Y-153739000D02*
X54374000Y-154109000D01*
G75*
G02*
X54239000Y-154244000I-135000J0D01*
G01*
X53969000Y-154244000D01*
G75*
G02*
X53834000Y-154109000I0J135000D01*
G01*
X53834000Y-153739000D01*
G75*
G02*
X53969000Y-153604000I135000J0D01*
G01*
X54239000Y-153604000D01*
G75*
G02*
X54374000Y-153739000I0J-135000D01*
G01*
G37*
G36*
G01*
X53834000Y-145473000D02*
X53834000Y-145103000D01*
G75*
G02*
X53969000Y-144968000I135000J0D01*
G01*
X54239000Y-144968000D01*
G75*
G02*
X54374000Y-145103000I0J-135000D01*
G01*
X54374000Y-145473000D01*
G75*
G02*
X54239000Y-145608000I-135000J0D01*
G01*
X53969000Y-145608000D01*
G75*
G02*
X53834000Y-145473000I0J135000D01*
G01*
G37*
G36*
G01*
X52814000Y-145473000D02*
X52814000Y-145103000D01*
G75*
G02*
X52949000Y-144968000I135000J0D01*
G01*
X53219000Y-144968000D01*
G75*
G02*
X53354000Y-145103000I0J-135000D01*
G01*
X53354000Y-145473000D01*
G75*
G02*
X53219000Y-145608000I-135000J0D01*
G01*
X52949000Y-145608000D01*
G75*
G02*
X52814000Y-145473000I0J135000D01*
G01*
G37*
G36*
G01*
X86070000Y-82440000D02*
X86070000Y-82780000D01*
G75*
G02*
X85930000Y-82920000I-140000J0D01*
G01*
X85650000Y-82920000D01*
G75*
G02*
X85510000Y-82780000I0J140000D01*
G01*
X85510000Y-82440000D01*
G75*
G02*
X85650000Y-82300000I140000J0D01*
G01*
X85930000Y-82300000D01*
G75*
G02*
X86070000Y-82440000I0J-140000D01*
G01*
G37*
G36*
G01*
X87030000Y-82440000D02*
X87030000Y-82780000D01*
G75*
G02*
X86890000Y-82920000I-140000J0D01*
G01*
X86610000Y-82920000D01*
G75*
G02*
X86470000Y-82780000I0J140000D01*
G01*
X86470000Y-82440000D01*
G75*
G02*
X86610000Y-82300000I140000J0D01*
G01*
X86890000Y-82300000D01*
G75*
G02*
X87030000Y-82440000I0J-140000D01*
G01*
G37*
G36*
G01*
X61850000Y-75170000D02*
X61850000Y-75510000D01*
G75*
G02*
X61710000Y-75650000I-140000J0D01*
G01*
X61430000Y-75650000D01*
G75*
G02*
X61290000Y-75510000I0J140000D01*
G01*
X61290000Y-75170000D01*
G75*
G02*
X61430000Y-75030000I140000J0D01*
G01*
X61710000Y-75030000D01*
G75*
G02*
X61850000Y-75170000I0J-140000D01*
G01*
G37*
G36*
G01*
X62810000Y-75170000D02*
X62810000Y-75510000D01*
G75*
G02*
X62670000Y-75650000I-140000J0D01*
G01*
X62390000Y-75650000D01*
G75*
G02*
X62250000Y-75510000I0J140000D01*
G01*
X62250000Y-75170000D01*
G75*
G02*
X62390000Y-75030000I140000J0D01*
G01*
X62670000Y-75030000D01*
G75*
G02*
X62810000Y-75170000I0J-140000D01*
G01*
G37*
G36*
G01*
X54019000Y-147341000D02*
X54019000Y-146791000D01*
G75*
G02*
X54219000Y-146591000I200000J0D01*
G01*
X54619000Y-146591000D01*
G75*
G02*
X54819000Y-146791000I0J-200000D01*
G01*
X54819000Y-147341000D01*
G75*
G02*
X54619000Y-147541000I-200000J0D01*
G01*
X54219000Y-147541000D01*
G75*
G02*
X54019000Y-147341000I0J200000D01*
G01*
G37*
G36*
G01*
X52369000Y-147341000D02*
X52369000Y-146791000D01*
G75*
G02*
X52569000Y-146591000I200000J0D01*
G01*
X52969000Y-146591000D01*
G75*
G02*
X53169000Y-146791000I0J-200000D01*
G01*
X53169000Y-147341000D01*
G75*
G02*
X52969000Y-147541000I-200000J0D01*
G01*
X52569000Y-147541000D01*
G75*
G02*
X52369000Y-147341000I0J200000D01*
G01*
G37*
D15*
X69828500Y-132475800D03*
X72368500Y-132475800D03*
X74908500Y-132475800D03*
X77448500Y-132475800D03*
X79988500Y-132475800D03*
X82528500Y-132475800D03*
X85068500Y-132475800D03*
X87608500Y-132475800D03*
X90148500Y-132475800D03*
X92688500Y-132475800D03*
X95228500Y-132475800D03*
X97768500Y-132475800D03*
X100308500Y-132475800D03*
X102848500Y-132475800D03*
X105388500Y-132475800D03*
X107928500Y-132475800D03*
X110468500Y-132475800D03*
X113008500Y-132475800D03*
X115548500Y-132475800D03*
X118088500Y-132475800D03*
X120628500Y-132475800D03*
X123168500Y-132475800D03*
X125708500Y-132475800D03*
X128248500Y-132475800D03*
X130788500Y-132475800D03*
X133328500Y-132475800D03*
X135868500Y-132475800D03*
X138408500Y-132475800D03*
X140948500Y-132475800D03*
X143488500Y-132475800D03*
X146028500Y-132475800D03*
X148568500Y-132475800D03*
X151108500Y-132475800D03*
X153648500Y-132475800D03*
X156188500Y-132475800D03*
X69828500Y-129935800D03*
X72368500Y-129935800D03*
X74908500Y-129935800D03*
X77448500Y-129935800D03*
X79988500Y-129935800D03*
X82528500Y-129935800D03*
X85068500Y-129935800D03*
X87608500Y-129935800D03*
X90148500Y-129935800D03*
X92688500Y-129935800D03*
X95228500Y-129935800D03*
X97768500Y-129935800D03*
X100308500Y-129935800D03*
X102848500Y-129935800D03*
X105388500Y-129935800D03*
X107928500Y-129935800D03*
X110468500Y-129935800D03*
X113008500Y-129935800D03*
X115548500Y-129935800D03*
X118088500Y-129935800D03*
X120628500Y-129935800D03*
X123168500Y-129935800D03*
X125708500Y-129935800D03*
X128248500Y-129935800D03*
X130788500Y-129935800D03*
X133328500Y-129935800D03*
X135868500Y-129935800D03*
X138408500Y-129935800D03*
X140948500Y-129935800D03*
X143488500Y-129935800D03*
X146028500Y-129935800D03*
X148568500Y-129935800D03*
X151108500Y-129935800D03*
X153648500Y-129935800D03*
X156188500Y-129935800D03*
X69828500Y-71515800D03*
X72368500Y-71515800D03*
X74908500Y-71515800D03*
X77448500Y-71515800D03*
X79988500Y-71515800D03*
X82528500Y-71515800D03*
X85068500Y-71515800D03*
X87608500Y-71515800D03*
X90148500Y-71515800D03*
X92688500Y-71515800D03*
X95228500Y-71515800D03*
X97768500Y-71515800D03*
X100308500Y-71515800D03*
X102848500Y-71515800D03*
X105388500Y-71515800D03*
X107928500Y-71515800D03*
X110468500Y-71515800D03*
X113008500Y-71515800D03*
X115548500Y-71515800D03*
X118088500Y-71515800D03*
X120628500Y-71515800D03*
X123168500Y-71515800D03*
X125708500Y-71515800D03*
X128248500Y-71515800D03*
X130788500Y-71515800D03*
X133328500Y-71515800D03*
X135868500Y-71515800D03*
X138408500Y-71515800D03*
X140948500Y-71515800D03*
X143488500Y-71515800D03*
X146028500Y-71515800D03*
X148568500Y-71515800D03*
X151108500Y-71515800D03*
X153648500Y-71515800D03*
X156188500Y-71515800D03*
X69828500Y-68975800D03*
X72368500Y-68975800D03*
X74908500Y-68975800D03*
X77448500Y-68975800D03*
X79988500Y-68975800D03*
X82528500Y-68975800D03*
X85068500Y-68975800D03*
X87608500Y-68975800D03*
X90148500Y-68975800D03*
X92688500Y-68975800D03*
X95228500Y-68975800D03*
X97768500Y-68975800D03*
X100308500Y-68975800D03*
X102848500Y-68975800D03*
X105388500Y-68975800D03*
X107928500Y-68975800D03*
X110468500Y-68975800D03*
X113008500Y-68975800D03*
X115548500Y-68975800D03*
X118088500Y-68975800D03*
X120628500Y-68975800D03*
X123168500Y-68975800D03*
X125708500Y-68975800D03*
X128248500Y-68975800D03*
X130788500Y-68975800D03*
X133328500Y-68975800D03*
X135868500Y-68975800D03*
X138408500Y-68975800D03*
X140948500Y-68975800D03*
X143488500Y-68975800D03*
X146028500Y-68975800D03*
X148568500Y-68975800D03*
X151108500Y-68975800D03*
X153648500Y-68975800D03*
X156188500Y-68975800D03*
D23*
X107928500Y-109615800D03*
X83798500Y-77865800D03*
X83798500Y-123585800D03*
X159998500Y-76595800D03*
X158728500Y-124855800D03*
D24*
X137750000Y-55000000D03*
X157750000Y-55000000D03*
G36*
G01*
X123104480Y-100716242D02*
X123104480Y-99466238D01*
G75*
G02*
X123354478Y-99216240I249998J0D01*
G01*
X123979482Y-99216240D01*
G75*
G02*
X124229480Y-99466238I0J-249998D01*
G01*
X124229480Y-100716242D01*
G75*
G02*
X123979482Y-100966240I-249998J0D01*
G01*
X123354478Y-100966240D01*
G75*
G02*
X123104480Y-100716242I0J249998D01*
G01*
G37*
G36*
G01*
X120179480Y-100716242D02*
X120179480Y-99466238D01*
G75*
G02*
X120429478Y-99216240I249998J0D01*
G01*
X121054482Y-99216240D01*
G75*
G02*
X121304480Y-99466238I0J-249998D01*
G01*
X121304480Y-100716242D01*
G75*
G02*
X121054482Y-100966240I-249998J0D01*
G01*
X120429478Y-100966240D01*
G75*
G02*
X120179480Y-100716242I0J249998D01*
G01*
G37*
D25*
X51308000Y-122666000D03*
X50358000Y-120666000D03*
X52258000Y-120666000D03*
X47244000Y-125492000D03*
X48194000Y-127492000D03*
X46294000Y-127492000D03*
D15*
X74230000Y-75870000D03*
X74230000Y-78410000D03*
X74230000Y-80950000D03*
X74230000Y-83490000D03*
X74230000Y-86030000D03*
X74230000Y-88570000D03*
X74230000Y-91110000D03*
X74230000Y-93650000D03*
X74230000Y-96190000D03*
X74230000Y-98730000D03*
X74230000Y-101270000D03*
X74230000Y-103810000D03*
X74230000Y-106350000D03*
X74230000Y-108890000D03*
X74230000Y-111430000D03*
X74230000Y-113970000D03*
X74230000Y-116510000D03*
X74230000Y-119050000D03*
X74230000Y-121590000D03*
X74230000Y-124130000D03*
X76770000Y-75870000D03*
X76770000Y-78410000D03*
X76770000Y-80950000D03*
X76770000Y-83490000D03*
X76770000Y-86030000D03*
X76770000Y-88570000D03*
X76770000Y-91110000D03*
X76770000Y-93650000D03*
X76770000Y-96190000D03*
X76770000Y-98730000D03*
X76770000Y-101270000D03*
X76770000Y-103810000D03*
X76770000Y-106350000D03*
X76770000Y-108890000D03*
X76770000Y-111430000D03*
X76770000Y-113970000D03*
X76770000Y-116510000D03*
X76770000Y-119050000D03*
X76770000Y-121590000D03*
X76770000Y-124130000D03*
X110435000Y-143690000D03*
X107895000Y-143690000D03*
X105355000Y-143690000D03*
X102815000Y-143690000D03*
X110435000Y-146230000D03*
X107895000Y-146230000D03*
X105355000Y-146230000D03*
X102815000Y-146230000D03*
D26*
X86000000Y-150500000D03*
X114700000Y-150500000D03*
X86000000Y-135500000D03*
X114700000Y-135500000D03*
D24*
X153000000Y-124250000D03*
X133000000Y-124250000D03*
D27*
X131020930Y-156988121D03*
X141009521Y-146999530D03*
D15*
X132423123Y-153789877D03*
X134219174Y-151993826D03*
X136015226Y-150197774D03*
X137811277Y-148401723D03*
D27*
X58990479Y-146999530D03*
X68979070Y-156988121D03*
D15*
X62188723Y-148401723D03*
X63984774Y-150197774D03*
X65780826Y-151993826D03*
X67576877Y-153789877D03*
D27*
X65979900Y-59566320D03*
X56857017Y-57759940D03*
D15*
X64588539Y-62268533D03*
X62096913Y-61775178D03*
X59605287Y-61281822D03*
X57113661Y-60788467D03*
D27*
X143142983Y-57759940D03*
X134020100Y-59566320D03*
D15*
X142886339Y-60788467D03*
X140394713Y-61281822D03*
X137903087Y-61775178D03*
X135411461Y-62268533D03*
X63700000Y-116380000D03*
X63700000Y-118920000D03*
X63700000Y-121460000D03*
X63700000Y-78540000D03*
X63700000Y-81080000D03*
X63700000Y-83620000D03*
X136300000Y-116380000D03*
X136300000Y-118920000D03*
X136300000Y-121460000D03*
X136300000Y-78540000D03*
X136300000Y-81080000D03*
X136300000Y-83620000D03*
D24*
X48173166Y-118761205D03*
X55826834Y-137238795D03*
G36*
G01*
X48933000Y-54525000D02*
X48933000Y-53975000D01*
G75*
G02*
X49133000Y-53775000I200000J0D01*
G01*
X49533000Y-53775000D01*
G75*
G02*
X49733000Y-53975000I0J-200000D01*
G01*
X49733000Y-54525000D01*
G75*
G02*
X49533000Y-54725000I-200000J0D01*
G01*
X49133000Y-54725000D01*
G75*
G02*
X48933000Y-54525000I0J200000D01*
G01*
G37*
G36*
G01*
X47283000Y-54525000D02*
X47283000Y-53975000D01*
G75*
G02*
X47483000Y-53775000I200000J0D01*
G01*
X47883000Y-53775000D01*
G75*
G02*
X48083000Y-53975000I0J-200000D01*
G01*
X48083000Y-54525000D01*
G75*
G02*
X47883000Y-54725000I-200000J0D01*
G01*
X47483000Y-54725000D01*
G75*
G02*
X47283000Y-54525000I0J200000D01*
G01*
G37*
X147750000Y-85000000D03*
X147750000Y-65000000D03*
X48000000Y-47000000D03*
X68000000Y-47000000D03*
D28*
X167348000Y-140349852D03*
X168618000Y-138150148D03*
X156545162Y-154465719D03*
X158277438Y-152608081D03*
X142843722Y-165789575D03*
X144949478Y-164369225D03*
X126946253Y-173741227D03*
X129317547Y-172830973D03*
X109667460Y-177912750D03*
X112182740Y-177559250D03*
X87817260Y-177559250D03*
X90332540Y-177912750D03*
X70682453Y-172830973D03*
X73053747Y-173741227D03*
X55050522Y-164369225D03*
X57156278Y-165789575D03*
X41722562Y-152608081D03*
X43454838Y-154465719D03*
X31382000Y-138150148D03*
X32652000Y-140349852D03*
X32652000Y-59650148D03*
X31382000Y-61849852D03*
X46382862Y-42649584D03*
X44555738Y-44414016D03*
X64267843Y-30092371D03*
X62025157Y-31284829D03*
X137974843Y-31284829D03*
X135732157Y-30092371D03*
X155444262Y-44414016D03*
X153617138Y-42649584D03*
X168618000Y-61849852D03*
X167348000Y-59650148D03*
D27*
X119114731Y-150665566D03*
X132165453Y-145259780D03*
D29*
X122606119Y-150594024D03*
X124952773Y-149622008D03*
X127299427Y-148649992D03*
X129646081Y-147677976D03*
D27*
X92937000Y-139270000D03*
X107063000Y-139270000D03*
D29*
X96190000Y-138000000D03*
X98730000Y-138000000D03*
X101270000Y-138000000D03*
X103810000Y-138000000D03*
D27*
X67834547Y-145259780D03*
X80885269Y-150665566D03*
D29*
X70353919Y-147677976D03*
X72700573Y-148649992D03*
X75047227Y-149622008D03*
X77393881Y-150594024D03*
G36*
G01*
X125114020Y-144581460D02*
X125114020Y-144211460D01*
G75*
G02*
X125249020Y-144076460I135000J0D01*
G01*
X125519020Y-144076460D01*
G75*
G02*
X125654020Y-144211460I0J-135000D01*
G01*
X125654020Y-144581460D01*
G75*
G02*
X125519020Y-144716460I-135000J0D01*
G01*
X125249020Y-144716460D01*
G75*
G02*
X125114020Y-144581460I0J135000D01*
G01*
G37*
G36*
G01*
X124094020Y-144581460D02*
X124094020Y-144211460D01*
G75*
G02*
X124229020Y-144076460I135000J0D01*
G01*
X124499020Y-144076460D01*
G75*
G02*
X124634020Y-144211460I0J-135000D01*
G01*
X124634020Y-144581460D01*
G75*
G02*
X124499020Y-144716460I-135000J0D01*
G01*
X124229020Y-144716460D01*
G75*
G02*
X124094020Y-144581460I0J135000D01*
G01*
G37*
G36*
G01*
X91877000Y-149723000D02*
X91877000Y-149923000D01*
G75*
G02*
X91777000Y-150023000I-100000J0D01*
G01*
X90502000Y-150023000D01*
G75*
G02*
X90402000Y-149923000I0J100000D01*
G01*
X90402000Y-149723000D01*
G75*
G02*
X90502000Y-149623000I100000J0D01*
G01*
X91777000Y-149623000D01*
G75*
G02*
X91877000Y-149723000I0J-100000D01*
G01*
G37*
G36*
G01*
X91877000Y-149073000D02*
X91877000Y-149273000D01*
G75*
G02*
X91777000Y-149373000I-100000J0D01*
G01*
X90502000Y-149373000D01*
G75*
G02*
X90402000Y-149273000I0J100000D01*
G01*
X90402000Y-149073000D01*
G75*
G02*
X90502000Y-148973000I100000J0D01*
G01*
X91777000Y-148973000D01*
G75*
G02*
X91877000Y-149073000I0J-100000D01*
G01*
G37*
G36*
G01*
X91877000Y-148423000D02*
X91877000Y-148623000D01*
G75*
G02*
X91777000Y-148723000I-100000J0D01*
G01*
X90502000Y-148723000D01*
G75*
G02*
X90402000Y-148623000I0J100000D01*
G01*
X90402000Y-148423000D01*
G75*
G02*
X90502000Y-148323000I100000J0D01*
G01*
X91777000Y-148323000D01*
G75*
G02*
X91877000Y-148423000I0J-100000D01*
G01*
G37*
G36*
G01*
X91877000Y-147773000D02*
X91877000Y-147973000D01*
G75*
G02*
X91777000Y-148073000I-100000J0D01*
G01*
X90502000Y-148073000D01*
G75*
G02*
X90402000Y-147973000I0J100000D01*
G01*
X90402000Y-147773000D01*
G75*
G02*
X90502000Y-147673000I100000J0D01*
G01*
X91777000Y-147673000D01*
G75*
G02*
X91877000Y-147773000I0J-100000D01*
G01*
G37*
G36*
G01*
X91877000Y-147123000D02*
X91877000Y-147323000D01*
G75*
G02*
X91777000Y-147423000I-100000J0D01*
G01*
X90502000Y-147423000D01*
G75*
G02*
X90402000Y-147323000I0J100000D01*
G01*
X90402000Y-147123000D01*
G75*
G02*
X90502000Y-147023000I100000J0D01*
G01*
X91777000Y-147023000D01*
G75*
G02*
X91877000Y-147123000I0J-100000D01*
G01*
G37*
G36*
G01*
X91877000Y-146473000D02*
X91877000Y-146673000D01*
G75*
G02*
X91777000Y-146773000I-100000J0D01*
G01*
X90502000Y-146773000D01*
G75*
G02*
X90402000Y-146673000I0J100000D01*
G01*
X90402000Y-146473000D01*
G75*
G02*
X90502000Y-146373000I100000J0D01*
G01*
X91777000Y-146373000D01*
G75*
G02*
X91877000Y-146473000I0J-100000D01*
G01*
G37*
G36*
G01*
X91877000Y-145823000D02*
X91877000Y-146023000D01*
G75*
G02*
X91777000Y-146123000I-100000J0D01*
G01*
X90502000Y-146123000D01*
G75*
G02*
X90402000Y-146023000I0J100000D01*
G01*
X90402000Y-145823000D01*
G75*
G02*
X90502000Y-145723000I100000J0D01*
G01*
X91777000Y-145723000D01*
G75*
G02*
X91877000Y-145823000I0J-100000D01*
G01*
G37*
G36*
G01*
X91877000Y-145173000D02*
X91877000Y-145373000D01*
G75*
G02*
X91777000Y-145473000I-100000J0D01*
G01*
X90502000Y-145473000D01*
G75*
G02*
X90402000Y-145373000I0J100000D01*
G01*
X90402000Y-145173000D01*
G75*
G02*
X90502000Y-145073000I100000J0D01*
G01*
X91777000Y-145073000D01*
G75*
G02*
X91877000Y-145173000I0J-100000D01*
G01*
G37*
G36*
G01*
X97602000Y-145173000D02*
X97602000Y-145373000D01*
G75*
G02*
X97502000Y-145473000I-100000J0D01*
G01*
X96227000Y-145473000D01*
G75*
G02*
X96127000Y-145373000I0J100000D01*
G01*
X96127000Y-145173000D01*
G75*
G02*
X96227000Y-145073000I100000J0D01*
G01*
X97502000Y-145073000D01*
G75*
G02*
X97602000Y-145173000I0J-100000D01*
G01*
G37*
G36*
G01*
X97602000Y-145823000D02*
X97602000Y-146023000D01*
G75*
G02*
X97502000Y-146123000I-100000J0D01*
G01*
X96227000Y-146123000D01*
G75*
G02*
X96127000Y-146023000I0J100000D01*
G01*
X96127000Y-145823000D01*
G75*
G02*
X96227000Y-145723000I100000J0D01*
G01*
X97502000Y-145723000D01*
G75*
G02*
X97602000Y-145823000I0J-100000D01*
G01*
G37*
G36*
G01*
X97602000Y-146473000D02*
X97602000Y-146673000D01*
G75*
G02*
X97502000Y-146773000I-100000J0D01*
G01*
X96227000Y-146773000D01*
G75*
G02*
X96127000Y-146673000I0J100000D01*
G01*
X96127000Y-146473000D01*
G75*
G02*
X96227000Y-146373000I100000J0D01*
G01*
X97502000Y-146373000D01*
G75*
G02*
X97602000Y-146473000I0J-100000D01*
G01*
G37*
G36*
G01*
X97602000Y-147123000D02*
X97602000Y-147323000D01*
G75*
G02*
X97502000Y-147423000I-100000J0D01*
G01*
X96227000Y-147423000D01*
G75*
G02*
X96127000Y-147323000I0J100000D01*
G01*
X96127000Y-147123000D01*
G75*
G02*
X96227000Y-147023000I100000J0D01*
G01*
X97502000Y-147023000D01*
G75*
G02*
X97602000Y-147123000I0J-100000D01*
G01*
G37*
G36*
G01*
X97602000Y-147773000D02*
X97602000Y-147973000D01*
G75*
G02*
X97502000Y-148073000I-100000J0D01*
G01*
X96227000Y-148073000D01*
G75*
G02*
X96127000Y-147973000I0J100000D01*
G01*
X96127000Y-147773000D01*
G75*
G02*
X96227000Y-147673000I100000J0D01*
G01*
X97502000Y-147673000D01*
G75*
G02*
X97602000Y-147773000I0J-100000D01*
G01*
G37*
G36*
G01*
X97602000Y-148423000D02*
X97602000Y-148623000D01*
G75*
G02*
X97502000Y-148723000I-100000J0D01*
G01*
X96227000Y-148723000D01*
G75*
G02*
X96127000Y-148623000I0J100000D01*
G01*
X96127000Y-148423000D01*
G75*
G02*
X96227000Y-148323000I100000J0D01*
G01*
X97502000Y-148323000D01*
G75*
G02*
X97602000Y-148423000I0J-100000D01*
G01*
G37*
G36*
G01*
X97602000Y-149073000D02*
X97602000Y-149273000D01*
G75*
G02*
X97502000Y-149373000I-100000J0D01*
G01*
X96227000Y-149373000D01*
G75*
G02*
X96127000Y-149273000I0J100000D01*
G01*
X96127000Y-149073000D01*
G75*
G02*
X96227000Y-148973000I100000J0D01*
G01*
X97502000Y-148973000D01*
G75*
G02*
X97602000Y-149073000I0J-100000D01*
G01*
G37*
G36*
G01*
X97602000Y-149723000D02*
X97602000Y-149923000D01*
G75*
G02*
X97502000Y-150023000I-100000J0D01*
G01*
X96227000Y-150023000D01*
G75*
G02*
X96127000Y-149923000I0J100000D01*
G01*
X96127000Y-149723000D01*
G75*
G02*
X96227000Y-149623000I100000J0D01*
G01*
X97502000Y-149623000D01*
G75*
G02*
X97602000Y-149723000I0J-100000D01*
G01*
G37*
G36*
G01*
X119027000Y-161523000D02*
X118827000Y-161523000D01*
G75*
G02*
X118727000Y-161423000I0J100000D01*
G01*
X118727000Y-160148000D01*
G75*
G02*
X118827000Y-160048000I100000J0D01*
G01*
X119027000Y-160048000D01*
G75*
G02*
X119127000Y-160148000I0J-100000D01*
G01*
X119127000Y-161423000D01*
G75*
G02*
X119027000Y-161523000I-100000J0D01*
G01*
G37*
G36*
G01*
X119677000Y-161523000D02*
X119477000Y-161523000D01*
G75*
G02*
X119377000Y-161423000I0J100000D01*
G01*
X119377000Y-160148000D01*
G75*
G02*
X119477000Y-160048000I100000J0D01*
G01*
X119677000Y-160048000D01*
G75*
G02*
X119777000Y-160148000I0J-100000D01*
G01*
X119777000Y-161423000D01*
G75*
G02*
X119677000Y-161523000I-100000J0D01*
G01*
G37*
G36*
G01*
X120327000Y-161523000D02*
X120127000Y-161523000D01*
G75*
G02*
X120027000Y-161423000I0J100000D01*
G01*
X120027000Y-160148000D01*
G75*
G02*
X120127000Y-160048000I100000J0D01*
G01*
X120327000Y-160048000D01*
G75*
G02*
X120427000Y-160148000I0J-100000D01*
G01*
X120427000Y-161423000D01*
G75*
G02*
X120327000Y-161523000I-100000J0D01*
G01*
G37*
G36*
G01*
X120977000Y-161523000D02*
X120777000Y-161523000D01*
G75*
G02*
X120677000Y-161423000I0J100000D01*
G01*
X120677000Y-160148000D01*
G75*
G02*
X120777000Y-160048000I100000J0D01*
G01*
X120977000Y-160048000D01*
G75*
G02*
X121077000Y-160148000I0J-100000D01*
G01*
X121077000Y-161423000D01*
G75*
G02*
X120977000Y-161523000I-100000J0D01*
G01*
G37*
G36*
G01*
X121627000Y-161523000D02*
X121427000Y-161523000D01*
G75*
G02*
X121327000Y-161423000I0J100000D01*
G01*
X121327000Y-160148000D01*
G75*
G02*
X121427000Y-160048000I100000J0D01*
G01*
X121627000Y-160048000D01*
G75*
G02*
X121727000Y-160148000I0J-100000D01*
G01*
X121727000Y-161423000D01*
G75*
G02*
X121627000Y-161523000I-100000J0D01*
G01*
G37*
G36*
G01*
X122277000Y-161523000D02*
X122077000Y-161523000D01*
G75*
G02*
X121977000Y-161423000I0J100000D01*
G01*
X121977000Y-160148000D01*
G75*
G02*
X122077000Y-160048000I100000J0D01*
G01*
X122277000Y-160048000D01*
G75*
G02*
X122377000Y-160148000I0J-100000D01*
G01*
X122377000Y-161423000D01*
G75*
G02*
X122277000Y-161523000I-100000J0D01*
G01*
G37*
G36*
G01*
X122927000Y-161523000D02*
X122727000Y-161523000D01*
G75*
G02*
X122627000Y-161423000I0J100000D01*
G01*
X122627000Y-160148000D01*
G75*
G02*
X122727000Y-160048000I100000J0D01*
G01*
X122927000Y-160048000D01*
G75*
G02*
X123027000Y-160148000I0J-100000D01*
G01*
X123027000Y-161423000D01*
G75*
G02*
X122927000Y-161523000I-100000J0D01*
G01*
G37*
G36*
G01*
X123577000Y-161523000D02*
X123377000Y-161523000D01*
G75*
G02*
X123277000Y-161423000I0J100000D01*
G01*
X123277000Y-160148000D01*
G75*
G02*
X123377000Y-160048000I100000J0D01*
G01*
X123577000Y-160048000D01*
G75*
G02*
X123677000Y-160148000I0J-100000D01*
G01*
X123677000Y-161423000D01*
G75*
G02*
X123577000Y-161523000I-100000J0D01*
G01*
G37*
G36*
G01*
X123577000Y-167248000D02*
X123377000Y-167248000D01*
G75*
G02*
X123277000Y-167148000I0J100000D01*
G01*
X123277000Y-165873000D01*
G75*
G02*
X123377000Y-165773000I100000J0D01*
G01*
X123577000Y-165773000D01*
G75*
G02*
X123677000Y-165873000I0J-100000D01*
G01*
X123677000Y-167148000D01*
G75*
G02*
X123577000Y-167248000I-100000J0D01*
G01*
G37*
G36*
G01*
X122927000Y-167248000D02*
X122727000Y-167248000D01*
G75*
G02*
X122627000Y-167148000I0J100000D01*
G01*
X122627000Y-165873000D01*
G75*
G02*
X122727000Y-165773000I100000J0D01*
G01*
X122927000Y-165773000D01*
G75*
G02*
X123027000Y-165873000I0J-100000D01*
G01*
X123027000Y-167148000D01*
G75*
G02*
X122927000Y-167248000I-100000J0D01*
G01*
G37*
G36*
G01*
X122277000Y-167248000D02*
X122077000Y-167248000D01*
G75*
G02*
X121977000Y-167148000I0J100000D01*
G01*
X121977000Y-165873000D01*
G75*
G02*
X122077000Y-165773000I100000J0D01*
G01*
X122277000Y-165773000D01*
G75*
G02*
X122377000Y-165873000I0J-100000D01*
G01*
X122377000Y-167148000D01*
G75*
G02*
X122277000Y-167248000I-100000J0D01*
G01*
G37*
G36*
G01*
X121627000Y-167248000D02*
X121427000Y-167248000D01*
G75*
G02*
X121327000Y-167148000I0J100000D01*
G01*
X121327000Y-165873000D01*
G75*
G02*
X121427000Y-165773000I100000J0D01*
G01*
X121627000Y-165773000D01*
G75*
G02*
X121727000Y-165873000I0J-100000D01*
G01*
X121727000Y-167148000D01*
G75*
G02*
X121627000Y-167248000I-100000J0D01*
G01*
G37*
G36*
G01*
X120977000Y-167248000D02*
X120777000Y-167248000D01*
G75*
G02*
X120677000Y-167148000I0J100000D01*
G01*
X120677000Y-165873000D01*
G75*
G02*
X120777000Y-165773000I100000J0D01*
G01*
X120977000Y-165773000D01*
G75*
G02*
X121077000Y-165873000I0J-100000D01*
G01*
X121077000Y-167148000D01*
G75*
G02*
X120977000Y-167248000I-100000J0D01*
G01*
G37*
G36*
G01*
X120327000Y-167248000D02*
X120127000Y-167248000D01*
G75*
G02*
X120027000Y-167148000I0J100000D01*
G01*
X120027000Y-165873000D01*
G75*
G02*
X120127000Y-165773000I100000J0D01*
G01*
X120327000Y-165773000D01*
G75*
G02*
X120427000Y-165873000I0J-100000D01*
G01*
X120427000Y-167148000D01*
G75*
G02*
X120327000Y-167248000I-100000J0D01*
G01*
G37*
G36*
G01*
X119677000Y-167248000D02*
X119477000Y-167248000D01*
G75*
G02*
X119377000Y-167148000I0J100000D01*
G01*
X119377000Y-165873000D01*
G75*
G02*
X119477000Y-165773000I100000J0D01*
G01*
X119677000Y-165773000D01*
G75*
G02*
X119777000Y-165873000I0J-100000D01*
G01*
X119777000Y-167148000D01*
G75*
G02*
X119677000Y-167248000I-100000J0D01*
G01*
G37*
G36*
G01*
X119027000Y-167248000D02*
X118827000Y-167248000D01*
G75*
G02*
X118727000Y-167148000I0J100000D01*
G01*
X118727000Y-165873000D01*
G75*
G02*
X118827000Y-165773000I100000J0D01*
G01*
X119027000Y-165773000D01*
G75*
G02*
X119127000Y-165873000I0J-100000D01*
G01*
X119127000Y-167148000D01*
G75*
G02*
X119027000Y-167248000I-100000J0D01*
G01*
G37*
G36*
G01*
X109877000Y-161548000D02*
X109677000Y-161548000D01*
G75*
G02*
X109577000Y-161448000I0J100000D01*
G01*
X109577000Y-160173000D01*
G75*
G02*
X109677000Y-160073000I100000J0D01*
G01*
X109877000Y-160073000D01*
G75*
G02*
X109977000Y-160173000I0J-100000D01*
G01*
X109977000Y-161448000D01*
G75*
G02*
X109877000Y-161548000I-100000J0D01*
G01*
G37*
G36*
G01*
X110527000Y-161548000D02*
X110327000Y-161548000D01*
G75*
G02*
X110227000Y-161448000I0J100000D01*
G01*
X110227000Y-160173000D01*
G75*
G02*
X110327000Y-160073000I100000J0D01*
G01*
X110527000Y-160073000D01*
G75*
G02*
X110627000Y-160173000I0J-100000D01*
G01*
X110627000Y-161448000D01*
G75*
G02*
X110527000Y-161548000I-100000J0D01*
G01*
G37*
G36*
G01*
X111177000Y-161548000D02*
X110977000Y-161548000D01*
G75*
G02*
X110877000Y-161448000I0J100000D01*
G01*
X110877000Y-160173000D01*
G75*
G02*
X110977000Y-160073000I100000J0D01*
G01*
X111177000Y-160073000D01*
G75*
G02*
X111277000Y-160173000I0J-100000D01*
G01*
X111277000Y-161448000D01*
G75*
G02*
X111177000Y-161548000I-100000J0D01*
G01*
G37*
G36*
G01*
X111827000Y-161548000D02*
X111627000Y-161548000D01*
G75*
G02*
X111527000Y-161448000I0J100000D01*
G01*
X111527000Y-160173000D01*
G75*
G02*
X111627000Y-160073000I100000J0D01*
G01*
X111827000Y-160073000D01*
G75*
G02*
X111927000Y-160173000I0J-100000D01*
G01*
X111927000Y-161448000D01*
G75*
G02*
X111827000Y-161548000I-100000J0D01*
G01*
G37*
G36*
G01*
X112477000Y-161548000D02*
X112277000Y-161548000D01*
G75*
G02*
X112177000Y-161448000I0J100000D01*
G01*
X112177000Y-160173000D01*
G75*
G02*
X112277000Y-160073000I100000J0D01*
G01*
X112477000Y-160073000D01*
G75*
G02*
X112577000Y-160173000I0J-100000D01*
G01*
X112577000Y-161448000D01*
G75*
G02*
X112477000Y-161548000I-100000J0D01*
G01*
G37*
G36*
G01*
X113127000Y-161548000D02*
X112927000Y-161548000D01*
G75*
G02*
X112827000Y-161448000I0J100000D01*
G01*
X112827000Y-160173000D01*
G75*
G02*
X112927000Y-160073000I100000J0D01*
G01*
X113127000Y-160073000D01*
G75*
G02*
X113227000Y-160173000I0J-100000D01*
G01*
X113227000Y-161448000D01*
G75*
G02*
X113127000Y-161548000I-100000J0D01*
G01*
G37*
G36*
G01*
X113777000Y-161548000D02*
X113577000Y-161548000D01*
G75*
G02*
X113477000Y-161448000I0J100000D01*
G01*
X113477000Y-160173000D01*
G75*
G02*
X113577000Y-160073000I100000J0D01*
G01*
X113777000Y-160073000D01*
G75*
G02*
X113877000Y-160173000I0J-100000D01*
G01*
X113877000Y-161448000D01*
G75*
G02*
X113777000Y-161548000I-100000J0D01*
G01*
G37*
G36*
G01*
X114427000Y-161548000D02*
X114227000Y-161548000D01*
G75*
G02*
X114127000Y-161448000I0J100000D01*
G01*
X114127000Y-160173000D01*
G75*
G02*
X114227000Y-160073000I100000J0D01*
G01*
X114427000Y-160073000D01*
G75*
G02*
X114527000Y-160173000I0J-100000D01*
G01*
X114527000Y-161448000D01*
G75*
G02*
X114427000Y-161548000I-100000J0D01*
G01*
G37*
G36*
G01*
X114427000Y-167273000D02*
X114227000Y-167273000D01*
G75*
G02*
X114127000Y-167173000I0J100000D01*
G01*
X114127000Y-165898000D01*
G75*
G02*
X114227000Y-165798000I100000J0D01*
G01*
X114427000Y-165798000D01*
G75*
G02*
X114527000Y-165898000I0J-100000D01*
G01*
X114527000Y-167173000D01*
G75*
G02*
X114427000Y-167273000I-100000J0D01*
G01*
G37*
G36*
G01*
X113777000Y-167273000D02*
X113577000Y-167273000D01*
G75*
G02*
X113477000Y-167173000I0J100000D01*
G01*
X113477000Y-165898000D01*
G75*
G02*
X113577000Y-165798000I100000J0D01*
G01*
X113777000Y-165798000D01*
G75*
G02*
X113877000Y-165898000I0J-100000D01*
G01*
X113877000Y-167173000D01*
G75*
G02*
X113777000Y-167273000I-100000J0D01*
G01*
G37*
G36*
G01*
X113127000Y-167273000D02*
X112927000Y-167273000D01*
G75*
G02*
X112827000Y-167173000I0J100000D01*
G01*
X112827000Y-165898000D01*
G75*
G02*
X112927000Y-165798000I100000J0D01*
G01*
X113127000Y-165798000D01*
G75*
G02*
X113227000Y-165898000I0J-100000D01*
G01*
X113227000Y-167173000D01*
G75*
G02*
X113127000Y-167273000I-100000J0D01*
G01*
G37*
G36*
G01*
X112477000Y-167273000D02*
X112277000Y-167273000D01*
G75*
G02*
X112177000Y-167173000I0J100000D01*
G01*
X112177000Y-165898000D01*
G75*
G02*
X112277000Y-165798000I100000J0D01*
G01*
X112477000Y-165798000D01*
G75*
G02*
X112577000Y-165898000I0J-100000D01*
G01*
X112577000Y-167173000D01*
G75*
G02*
X112477000Y-167273000I-100000J0D01*
G01*
G37*
G36*
G01*
X111827000Y-167273000D02*
X111627000Y-167273000D01*
G75*
G02*
X111527000Y-167173000I0J100000D01*
G01*
X111527000Y-165898000D01*
G75*
G02*
X111627000Y-165798000I100000J0D01*
G01*
X111827000Y-165798000D01*
G75*
G02*
X111927000Y-165898000I0J-100000D01*
G01*
X111927000Y-167173000D01*
G75*
G02*
X111827000Y-167273000I-100000J0D01*
G01*
G37*
G36*
G01*
X111177000Y-167273000D02*
X110977000Y-167273000D01*
G75*
G02*
X110877000Y-167173000I0J100000D01*
G01*
X110877000Y-165898000D01*
G75*
G02*
X110977000Y-165798000I100000J0D01*
G01*
X111177000Y-165798000D01*
G75*
G02*
X111277000Y-165898000I0J-100000D01*
G01*
X111277000Y-167173000D01*
G75*
G02*
X111177000Y-167273000I-100000J0D01*
G01*
G37*
G36*
G01*
X110527000Y-167273000D02*
X110327000Y-167273000D01*
G75*
G02*
X110227000Y-167173000I0J100000D01*
G01*
X110227000Y-165898000D01*
G75*
G02*
X110327000Y-165798000I100000J0D01*
G01*
X110527000Y-165798000D01*
G75*
G02*
X110627000Y-165898000I0J-100000D01*
G01*
X110627000Y-167173000D01*
G75*
G02*
X110527000Y-167273000I-100000J0D01*
G01*
G37*
G36*
G01*
X109877000Y-167273000D02*
X109677000Y-167273000D01*
G75*
G02*
X109577000Y-167173000I0J100000D01*
G01*
X109577000Y-165898000D01*
G75*
G02*
X109677000Y-165798000I100000J0D01*
G01*
X109877000Y-165798000D01*
G75*
G02*
X109977000Y-165898000I0J-100000D01*
G01*
X109977000Y-167173000D01*
G75*
G02*
X109877000Y-167273000I-100000J0D01*
G01*
G37*
D30*
X81432000Y-158088000D03*
X81432000Y-162688000D03*
X81432000Y-160388000D03*
D31*
X87732000Y-160388000D03*
G36*
G01*
X119227000Y-174873000D02*
X119227000Y-175073000D01*
G75*
G02*
X119127000Y-175173000I-100000J0D01*
G01*
X117852000Y-175173000D01*
G75*
G02*
X117752000Y-175073000I0J100000D01*
G01*
X117752000Y-174873000D01*
G75*
G02*
X117852000Y-174773000I100000J0D01*
G01*
X119127000Y-174773000D01*
G75*
G02*
X119227000Y-174873000I0J-100000D01*
G01*
G37*
G36*
G01*
X119227000Y-174223000D02*
X119227000Y-174423000D01*
G75*
G02*
X119127000Y-174523000I-100000J0D01*
G01*
X117852000Y-174523000D01*
G75*
G02*
X117752000Y-174423000I0J100000D01*
G01*
X117752000Y-174223000D01*
G75*
G02*
X117852000Y-174123000I100000J0D01*
G01*
X119127000Y-174123000D01*
G75*
G02*
X119227000Y-174223000I0J-100000D01*
G01*
G37*
G36*
G01*
X119227000Y-173573000D02*
X119227000Y-173773000D01*
G75*
G02*
X119127000Y-173873000I-100000J0D01*
G01*
X117852000Y-173873000D01*
G75*
G02*
X117752000Y-173773000I0J100000D01*
G01*
X117752000Y-173573000D01*
G75*
G02*
X117852000Y-173473000I100000J0D01*
G01*
X119127000Y-173473000D01*
G75*
G02*
X119227000Y-173573000I0J-100000D01*
G01*
G37*
G36*
G01*
X119227000Y-172923000D02*
X119227000Y-173123000D01*
G75*
G02*
X119127000Y-173223000I-100000J0D01*
G01*
X117852000Y-173223000D01*
G75*
G02*
X117752000Y-173123000I0J100000D01*
G01*
X117752000Y-172923000D01*
G75*
G02*
X117852000Y-172823000I100000J0D01*
G01*
X119127000Y-172823000D01*
G75*
G02*
X119227000Y-172923000I0J-100000D01*
G01*
G37*
G36*
G01*
X119227000Y-172273000D02*
X119227000Y-172473000D01*
G75*
G02*
X119127000Y-172573000I-100000J0D01*
G01*
X117852000Y-172573000D01*
G75*
G02*
X117752000Y-172473000I0J100000D01*
G01*
X117752000Y-172273000D01*
G75*
G02*
X117852000Y-172173000I100000J0D01*
G01*
X119127000Y-172173000D01*
G75*
G02*
X119227000Y-172273000I0J-100000D01*
G01*
G37*
G36*
G01*
X119227000Y-171623000D02*
X119227000Y-171823000D01*
G75*
G02*
X119127000Y-171923000I-100000J0D01*
G01*
X117852000Y-171923000D01*
G75*
G02*
X117752000Y-171823000I0J100000D01*
G01*
X117752000Y-171623000D01*
G75*
G02*
X117852000Y-171523000I100000J0D01*
G01*
X119127000Y-171523000D01*
G75*
G02*
X119227000Y-171623000I0J-100000D01*
G01*
G37*
G36*
G01*
X119227000Y-170973000D02*
X119227000Y-171173000D01*
G75*
G02*
X119127000Y-171273000I-100000J0D01*
G01*
X117852000Y-171273000D01*
G75*
G02*
X117752000Y-171173000I0J100000D01*
G01*
X117752000Y-170973000D01*
G75*
G02*
X117852000Y-170873000I100000J0D01*
G01*
X119127000Y-170873000D01*
G75*
G02*
X119227000Y-170973000I0J-100000D01*
G01*
G37*
G36*
G01*
X119227000Y-170323000D02*
X119227000Y-170523000D01*
G75*
G02*
X119127000Y-170623000I-100000J0D01*
G01*
X117852000Y-170623000D01*
G75*
G02*
X117752000Y-170523000I0J100000D01*
G01*
X117752000Y-170323000D01*
G75*
G02*
X117852000Y-170223000I100000J0D01*
G01*
X119127000Y-170223000D01*
G75*
G02*
X119227000Y-170323000I0J-100000D01*
G01*
G37*
G36*
G01*
X124952000Y-170323000D02*
X124952000Y-170523000D01*
G75*
G02*
X124852000Y-170623000I-100000J0D01*
G01*
X123577000Y-170623000D01*
G75*
G02*
X123477000Y-170523000I0J100000D01*
G01*
X123477000Y-170323000D01*
G75*
G02*
X123577000Y-170223000I100000J0D01*
G01*
X124852000Y-170223000D01*
G75*
G02*
X124952000Y-170323000I0J-100000D01*
G01*
G37*
G36*
G01*
X124952000Y-170973000D02*
X124952000Y-171173000D01*
G75*
G02*
X124852000Y-171273000I-100000J0D01*
G01*
X123577000Y-171273000D01*
G75*
G02*
X123477000Y-171173000I0J100000D01*
G01*
X123477000Y-170973000D01*
G75*
G02*
X123577000Y-170873000I100000J0D01*
G01*
X124852000Y-170873000D01*
G75*
G02*
X124952000Y-170973000I0J-100000D01*
G01*
G37*
G36*
G01*
X124952000Y-171623000D02*
X124952000Y-171823000D01*
G75*
G02*
X124852000Y-171923000I-100000J0D01*
G01*
X123577000Y-171923000D01*
G75*
G02*
X123477000Y-171823000I0J100000D01*
G01*
X123477000Y-171623000D01*
G75*
G02*
X123577000Y-171523000I100000J0D01*
G01*
X124852000Y-171523000D01*
G75*
G02*
X124952000Y-171623000I0J-100000D01*
G01*
G37*
G36*
G01*
X124952000Y-172273000D02*
X124952000Y-172473000D01*
G75*
G02*
X124852000Y-172573000I-100000J0D01*
G01*
X123577000Y-172573000D01*
G75*
G02*
X123477000Y-172473000I0J100000D01*
G01*
X123477000Y-172273000D01*
G75*
G02*
X123577000Y-172173000I100000J0D01*
G01*
X124852000Y-172173000D01*
G75*
G02*
X124952000Y-172273000I0J-100000D01*
G01*
G37*
G36*
G01*
X124952000Y-172923000D02*
X124952000Y-173123000D01*
G75*
G02*
X124852000Y-173223000I-100000J0D01*
G01*
X123577000Y-173223000D01*
G75*
G02*
X123477000Y-173123000I0J100000D01*
G01*
X123477000Y-172923000D01*
G75*
G02*
X123577000Y-172823000I100000J0D01*
G01*
X124852000Y-172823000D01*
G75*
G02*
X124952000Y-172923000I0J-100000D01*
G01*
G37*
G36*
G01*
X124952000Y-173573000D02*
X124952000Y-173773000D01*
G75*
G02*
X124852000Y-173873000I-100000J0D01*
G01*
X123577000Y-173873000D01*
G75*
G02*
X123477000Y-173773000I0J100000D01*
G01*
X123477000Y-173573000D01*
G75*
G02*
X123577000Y-173473000I100000J0D01*
G01*
X124852000Y-173473000D01*
G75*
G02*
X124952000Y-173573000I0J-100000D01*
G01*
G37*
G36*
G01*
X124952000Y-174223000D02*
X124952000Y-174423000D01*
G75*
G02*
X124852000Y-174523000I-100000J0D01*
G01*
X123577000Y-174523000D01*
G75*
G02*
X123477000Y-174423000I0J100000D01*
G01*
X123477000Y-174223000D01*
G75*
G02*
X123577000Y-174123000I100000J0D01*
G01*
X124852000Y-174123000D01*
G75*
G02*
X124952000Y-174223000I0J-100000D01*
G01*
G37*
G36*
G01*
X124952000Y-174873000D02*
X124952000Y-175073000D01*
G75*
G02*
X124852000Y-175173000I-100000J0D01*
G01*
X123577000Y-175173000D01*
G75*
G02*
X123477000Y-175073000I0J100000D01*
G01*
X123477000Y-174873000D01*
G75*
G02*
X123577000Y-174773000I100000J0D01*
G01*
X124852000Y-174773000D01*
G75*
G02*
X124952000Y-174873000I0J-100000D01*
G01*
G37*
D22*
X83747000Y-168448000D03*
X83747000Y-172948000D03*
X91697000Y-172948000D03*
X91697000Y-168448000D03*
G36*
G01*
X54501000Y-48806000D02*
X54131000Y-48806000D01*
G75*
G02*
X53996000Y-48671000I0J135000D01*
G01*
X53996000Y-48401000D01*
G75*
G02*
X54131000Y-48266000I135000J0D01*
G01*
X54501000Y-48266000D01*
G75*
G02*
X54636000Y-48401000I0J-135000D01*
G01*
X54636000Y-48671000D01*
G75*
G02*
X54501000Y-48806000I-135000J0D01*
G01*
G37*
G36*
G01*
X54501000Y-49826000D02*
X54131000Y-49826000D01*
G75*
G02*
X53996000Y-49691000I0J135000D01*
G01*
X53996000Y-49421000D01*
G75*
G02*
X54131000Y-49286000I135000J0D01*
G01*
X54501000Y-49286000D01*
G75*
G02*
X54636000Y-49421000I0J-135000D01*
G01*
X54636000Y-49691000D01*
G75*
G02*
X54501000Y-49826000I-135000J0D01*
G01*
G37*
G36*
G01*
X34725000Y-54655000D02*
X35275000Y-54655000D01*
G75*
G02*
X35475000Y-54855000I0J-200000D01*
G01*
X35475000Y-55255000D01*
G75*
G02*
X35275000Y-55455000I-200000J0D01*
G01*
X34725000Y-55455000D01*
G75*
G02*
X34525000Y-55255000I0J200000D01*
G01*
X34525000Y-54855000D01*
G75*
G02*
X34725000Y-54655000I200000J0D01*
G01*
G37*
G36*
G01*
X34725000Y-53005000D02*
X35275000Y-53005000D01*
G75*
G02*
X35475000Y-53205000I0J-200000D01*
G01*
X35475000Y-53605000D01*
G75*
G02*
X35275000Y-53805000I-200000J0D01*
G01*
X34725000Y-53805000D01*
G75*
G02*
X34525000Y-53605000I0J200000D01*
G01*
X34525000Y-53205000D01*
G75*
G02*
X34725000Y-53005000I200000J0D01*
G01*
G37*
G36*
G01*
X141137000Y-167003000D02*
X140587000Y-167003000D01*
G75*
G02*
X140387000Y-166803000I0J200000D01*
G01*
X140387000Y-166403000D01*
G75*
G02*
X140587000Y-166203000I200000J0D01*
G01*
X141137000Y-166203000D01*
G75*
G02*
X141337000Y-166403000I0J-200000D01*
G01*
X141337000Y-166803000D01*
G75*
G02*
X141137000Y-167003000I-200000J0D01*
G01*
G37*
G36*
G01*
X141137000Y-168653000D02*
X140587000Y-168653000D01*
G75*
G02*
X140387000Y-168453000I0J200000D01*
G01*
X140387000Y-168053000D01*
G75*
G02*
X140587000Y-167853000I200000J0D01*
G01*
X141137000Y-167853000D01*
G75*
G02*
X141337000Y-168053000I0J-200000D01*
G01*
X141337000Y-168453000D01*
G75*
G02*
X141137000Y-168653000I-200000J0D01*
G01*
G37*
G36*
G01*
X33825000Y-137415000D02*
X33825000Y-137965000D01*
G75*
G02*
X33625000Y-138165000I-200000J0D01*
G01*
X33225000Y-138165000D01*
G75*
G02*
X33025000Y-137965000I0J200000D01*
G01*
X33025000Y-137415000D01*
G75*
G02*
X33225000Y-137215000I200000J0D01*
G01*
X33625000Y-137215000D01*
G75*
G02*
X33825000Y-137415000I0J-200000D01*
G01*
G37*
G36*
G01*
X35475000Y-137415000D02*
X35475000Y-137965000D01*
G75*
G02*
X35275000Y-138165000I-200000J0D01*
G01*
X34875000Y-138165000D01*
G75*
G02*
X34675000Y-137965000I0J200000D01*
G01*
X34675000Y-137415000D01*
G75*
G02*
X34875000Y-137215000I200000J0D01*
G01*
X35275000Y-137215000D01*
G75*
G02*
X35475000Y-137415000I0J-200000D01*
G01*
G37*
G36*
G01*
X153525000Y-157175000D02*
X153525000Y-156625000D01*
G75*
G02*
X153725000Y-156425000I200000J0D01*
G01*
X154125000Y-156425000D01*
G75*
G02*
X154325000Y-156625000I0J-200000D01*
G01*
X154325000Y-157175000D01*
G75*
G02*
X154125000Y-157375000I-200000J0D01*
G01*
X153725000Y-157375000D01*
G75*
G02*
X153525000Y-157175000I0J200000D01*
G01*
G37*
G36*
G01*
X151875000Y-157175000D02*
X151875000Y-156625000D01*
G75*
G02*
X152075000Y-156425000I200000J0D01*
G01*
X152475000Y-156425000D01*
G75*
G02*
X152675000Y-156625000I0J-200000D01*
G01*
X152675000Y-157175000D01*
G75*
G02*
X152475000Y-157375000I-200000J0D01*
G01*
X152075000Y-157375000D01*
G75*
G02*
X151875000Y-157175000I0J200000D01*
G01*
G37*
G36*
G01*
X41685000Y-149885000D02*
X41685000Y-149335000D01*
G75*
G02*
X41885000Y-149135000I200000J0D01*
G01*
X42285000Y-149135000D01*
G75*
G02*
X42485000Y-149335000I0J-200000D01*
G01*
X42485000Y-149885000D01*
G75*
G02*
X42285000Y-150085000I-200000J0D01*
G01*
X41885000Y-150085000D01*
G75*
G02*
X41685000Y-149885000I0J200000D01*
G01*
G37*
G36*
G01*
X40035000Y-149885000D02*
X40035000Y-149335000D01*
G75*
G02*
X40235000Y-149135000I200000J0D01*
G01*
X40635000Y-149135000D01*
G75*
G02*
X40835000Y-149335000I0J-200000D01*
G01*
X40835000Y-149885000D01*
G75*
G02*
X40635000Y-150085000I-200000J0D01*
G01*
X40235000Y-150085000D01*
G75*
G02*
X40035000Y-149885000I0J200000D01*
G01*
G37*
G36*
G01*
X163305000Y-147065000D02*
X163305000Y-146515000D01*
G75*
G02*
X163505000Y-146315000I200000J0D01*
G01*
X163905000Y-146315000D01*
G75*
G02*
X164105000Y-146515000I0J-200000D01*
G01*
X164105000Y-147065000D01*
G75*
G02*
X163905000Y-147265000I-200000J0D01*
G01*
X163505000Y-147265000D01*
G75*
G02*
X163305000Y-147065000I0J200000D01*
G01*
G37*
G36*
G01*
X161655000Y-147065000D02*
X161655000Y-146515000D01*
G75*
G02*
X161855000Y-146315000I200000J0D01*
G01*
X162255000Y-146315000D01*
G75*
G02*
X162455000Y-146515000I0J-200000D01*
G01*
X162455000Y-147065000D01*
G75*
G02*
X162255000Y-147265000I-200000J0D01*
G01*
X161855000Y-147265000D01*
G75*
G02*
X161655000Y-147065000I0J200000D01*
G01*
G37*
G36*
G01*
X101420000Y-121945000D02*
X101920000Y-121945000D01*
G75*
G02*
X102145000Y-122170000I0J-225000D01*
G01*
X102145000Y-122620000D01*
G75*
G02*
X101920000Y-122845000I-225000J0D01*
G01*
X101420000Y-122845000D01*
G75*
G02*
X101195000Y-122620000I0J225000D01*
G01*
X101195000Y-122170000D01*
G75*
G02*
X101420000Y-121945000I225000J0D01*
G01*
G37*
G36*
G01*
X101420000Y-120395000D02*
X101920000Y-120395000D01*
G75*
G02*
X102145000Y-120620000I0J-225000D01*
G01*
X102145000Y-121070000D01*
G75*
G02*
X101920000Y-121295000I-225000J0D01*
G01*
X101420000Y-121295000D01*
G75*
G02*
X101195000Y-121070000I0J225000D01*
G01*
X101195000Y-120620000D01*
G75*
G02*
X101420000Y-120395000I225000J0D01*
G01*
G37*
G36*
G01*
X45583002Y-78856000D02*
X44332998Y-78856000D01*
G75*
G02*
X44083000Y-78606002I0J249998D01*
G01*
X44083000Y-77980998D01*
G75*
G02*
X44332998Y-77731000I249998J0D01*
G01*
X45583002Y-77731000D01*
G75*
G02*
X45833000Y-77980998I0J-249998D01*
G01*
X45833000Y-78606002D01*
G75*
G02*
X45583002Y-78856000I-249998J0D01*
G01*
G37*
G36*
G01*
X45583002Y-81781000D02*
X44332998Y-81781000D01*
G75*
G02*
X44083000Y-81531002I0J249998D01*
G01*
X44083000Y-80905998D01*
G75*
G02*
X44332998Y-80656000I249998J0D01*
G01*
X45583002Y-80656000D01*
G75*
G02*
X45833000Y-80905998I0J-249998D01*
G01*
X45833000Y-81531002D01*
G75*
G02*
X45583002Y-81781000I-249998J0D01*
G01*
G37*
G36*
G01*
X74408000Y-166301000D02*
X74408000Y-165931000D01*
G75*
G02*
X74543000Y-165796000I135000J0D01*
G01*
X74813000Y-165796000D01*
G75*
G02*
X74948000Y-165931000I0J-135000D01*
G01*
X74948000Y-166301000D01*
G75*
G02*
X74813000Y-166436000I-135000J0D01*
G01*
X74543000Y-166436000D01*
G75*
G02*
X74408000Y-166301000I0J135000D01*
G01*
G37*
G36*
G01*
X73388000Y-166301000D02*
X73388000Y-165931000D01*
G75*
G02*
X73523000Y-165796000I135000J0D01*
G01*
X73793000Y-165796000D01*
G75*
G02*
X73928000Y-165931000I0J-135000D01*
G01*
X73928000Y-166301000D01*
G75*
G02*
X73793000Y-166436000I-135000J0D01*
G01*
X73523000Y-166436000D01*
G75*
G02*
X73388000Y-166301000I0J135000D01*
G01*
G37*
G36*
G01*
X74408000Y-169095000D02*
X74408000Y-168725000D01*
G75*
G02*
X74543000Y-168590000I135000J0D01*
G01*
X74813000Y-168590000D01*
G75*
G02*
X74948000Y-168725000I0J-135000D01*
G01*
X74948000Y-169095000D01*
G75*
G02*
X74813000Y-169230000I-135000J0D01*
G01*
X74543000Y-169230000D01*
G75*
G02*
X74408000Y-169095000I0J135000D01*
G01*
G37*
G36*
G01*
X73388000Y-169095000D02*
X73388000Y-168725000D01*
G75*
G02*
X73523000Y-168590000I135000J0D01*
G01*
X73793000Y-168590000D01*
G75*
G02*
X73928000Y-168725000I0J-135000D01*
G01*
X73928000Y-169095000D01*
G75*
G02*
X73793000Y-169230000I-135000J0D01*
G01*
X73523000Y-169230000D01*
G75*
G02*
X73388000Y-169095000I0J135000D01*
G01*
G37*
G36*
G01*
X74408000Y-171889000D02*
X74408000Y-171519000D01*
G75*
G02*
X74543000Y-171384000I135000J0D01*
G01*
X74813000Y-171384000D01*
G75*
G02*
X74948000Y-171519000I0J-135000D01*
G01*
X74948000Y-171889000D01*
G75*
G02*
X74813000Y-172024000I-135000J0D01*
G01*
X74543000Y-172024000D01*
G75*
G02*
X74408000Y-171889000I0J135000D01*
G01*
G37*
G36*
G01*
X73388000Y-171889000D02*
X73388000Y-171519000D01*
G75*
G02*
X73523000Y-171384000I135000J0D01*
G01*
X73793000Y-171384000D01*
G75*
G02*
X73928000Y-171519000I0J-135000D01*
G01*
X73928000Y-171889000D01*
G75*
G02*
X73793000Y-172024000I-135000J0D01*
G01*
X73523000Y-172024000D01*
G75*
G02*
X73388000Y-171889000I0J135000D01*
G01*
G37*
D25*
X152840000Y-45630000D03*
X153790000Y-47630000D03*
X151890000Y-47630000D03*
D32*
X98670000Y-121250000D03*
X98670000Y-118750000D03*
G36*
G01*
X101920000Y-118075000D02*
X101420000Y-118075000D01*
G75*
G02*
X101195000Y-117850000I0J225000D01*
G01*
X101195000Y-117400000D01*
G75*
G02*
X101420000Y-117175000I225000J0D01*
G01*
X101920000Y-117175000D01*
G75*
G02*
X102145000Y-117400000I0J-225000D01*
G01*
X102145000Y-117850000D01*
G75*
G02*
X101920000Y-118075000I-225000J0D01*
G01*
G37*
G36*
G01*
X101920000Y-119625000D02*
X101420000Y-119625000D01*
G75*
G02*
X101195000Y-119400000I0J225000D01*
G01*
X101195000Y-118950000D01*
G75*
G02*
X101420000Y-118725000I225000J0D01*
G01*
X101920000Y-118725000D01*
G75*
G02*
X102145000Y-118950000I0J-225000D01*
G01*
X102145000Y-119400000D01*
G75*
G02*
X101920000Y-119625000I-225000J0D01*
G01*
G37*
G36*
G01*
X42673000Y-54025000D02*
X42303000Y-54025000D01*
G75*
G02*
X42168000Y-53890000I0J135000D01*
G01*
X42168000Y-53620000D01*
G75*
G02*
X42303000Y-53485000I135000J0D01*
G01*
X42673000Y-53485000D01*
G75*
G02*
X42808000Y-53620000I0J-135000D01*
G01*
X42808000Y-53890000D01*
G75*
G02*
X42673000Y-54025000I-135000J0D01*
G01*
G37*
G36*
G01*
X42673000Y-55045000D02*
X42303000Y-55045000D01*
G75*
G02*
X42168000Y-54910000I0J135000D01*
G01*
X42168000Y-54640000D01*
G75*
G02*
X42303000Y-54505000I135000J0D01*
G01*
X42673000Y-54505000D01*
G75*
G02*
X42808000Y-54640000I0J-135000D01*
G01*
X42808000Y-54910000D01*
G75*
G02*
X42673000Y-55045000I-135000J0D01*
G01*
G37*
G36*
G01*
X60779000Y-54304000D02*
X60409000Y-54304000D01*
G75*
G02*
X60274000Y-54169000I0J135000D01*
G01*
X60274000Y-53899000D01*
G75*
G02*
X60409000Y-53764000I135000J0D01*
G01*
X60779000Y-53764000D01*
G75*
G02*
X60914000Y-53899000I0J-135000D01*
G01*
X60914000Y-54169000D01*
G75*
G02*
X60779000Y-54304000I-135000J0D01*
G01*
G37*
G36*
G01*
X60779000Y-55324000D02*
X60409000Y-55324000D01*
G75*
G02*
X60274000Y-55189000I0J135000D01*
G01*
X60274000Y-54919000D01*
G75*
G02*
X60409000Y-54784000I135000J0D01*
G01*
X60779000Y-54784000D01*
G75*
G02*
X60914000Y-54919000I0J-135000D01*
G01*
X60914000Y-55189000D01*
G75*
G02*
X60779000Y-55324000I-135000J0D01*
G01*
G37*
G36*
G01*
X55399000Y-54374000D02*
X55029000Y-54374000D01*
G75*
G02*
X54894000Y-54239000I0J135000D01*
G01*
X54894000Y-53969000D01*
G75*
G02*
X55029000Y-53834000I135000J0D01*
G01*
X55399000Y-53834000D01*
G75*
G02*
X55534000Y-53969000I0J-135000D01*
G01*
X55534000Y-54239000D01*
G75*
G02*
X55399000Y-54374000I-135000J0D01*
G01*
G37*
G36*
G01*
X55399000Y-55394000D02*
X55029000Y-55394000D01*
G75*
G02*
X54894000Y-55259000I0J135000D01*
G01*
X54894000Y-54989000D01*
G75*
G02*
X55029000Y-54854000I135000J0D01*
G01*
X55399000Y-54854000D01*
G75*
G02*
X55534000Y-54989000I0J-135000D01*
G01*
X55534000Y-55259000D01*
G75*
G02*
X55399000Y-55394000I-135000J0D01*
G01*
G37*
G36*
G01*
X153402000Y-143949000D02*
X153402000Y-143579000D01*
G75*
G02*
X153537000Y-143444000I135000J0D01*
G01*
X153807000Y-143444000D01*
G75*
G02*
X153942000Y-143579000I0J-135000D01*
G01*
X153942000Y-143949000D01*
G75*
G02*
X153807000Y-144084000I-135000J0D01*
G01*
X153537000Y-144084000D01*
G75*
G02*
X153402000Y-143949000I0J135000D01*
G01*
G37*
G36*
G01*
X152382000Y-143949000D02*
X152382000Y-143579000D01*
G75*
G02*
X152517000Y-143444000I135000J0D01*
G01*
X152787000Y-143444000D01*
G75*
G02*
X152922000Y-143579000I0J-135000D01*
G01*
X152922000Y-143949000D01*
G75*
G02*
X152787000Y-144084000I-135000J0D01*
G01*
X152517000Y-144084000D01*
G75*
G02*
X152382000Y-143949000I0J135000D01*
G01*
G37*
G36*
G01*
X152469000Y-147054000D02*
X152839000Y-147054000D01*
G75*
G02*
X152974000Y-147189000I0J-135000D01*
G01*
X152974000Y-147459000D01*
G75*
G02*
X152839000Y-147594000I-135000J0D01*
G01*
X152469000Y-147594000D01*
G75*
G02*
X152334000Y-147459000I0J135000D01*
G01*
X152334000Y-147189000D01*
G75*
G02*
X152469000Y-147054000I135000J0D01*
G01*
G37*
G36*
G01*
X152469000Y-146034000D02*
X152839000Y-146034000D01*
G75*
G02*
X152974000Y-146169000I0J-135000D01*
G01*
X152974000Y-146439000D01*
G75*
G02*
X152839000Y-146574000I-135000J0D01*
G01*
X152469000Y-146574000D01*
G75*
G02*
X152334000Y-146439000I0J135000D01*
G01*
X152334000Y-146169000D01*
G75*
G02*
X152469000Y-146034000I135000J0D01*
G01*
G37*
G36*
G01*
X63569000Y-131302000D02*
X63939000Y-131302000D01*
G75*
G02*
X64074000Y-131437000I0J-135000D01*
G01*
X64074000Y-131707000D01*
G75*
G02*
X63939000Y-131842000I-135000J0D01*
G01*
X63569000Y-131842000D01*
G75*
G02*
X63434000Y-131707000I0J135000D01*
G01*
X63434000Y-131437000D01*
G75*
G02*
X63569000Y-131302000I135000J0D01*
G01*
G37*
G36*
G01*
X63569000Y-130282000D02*
X63939000Y-130282000D01*
G75*
G02*
X64074000Y-130417000I0J-135000D01*
G01*
X64074000Y-130687000D01*
G75*
G02*
X63939000Y-130822000I-135000J0D01*
G01*
X63569000Y-130822000D01*
G75*
G02*
X63434000Y-130687000I0J135000D01*
G01*
X63434000Y-130417000D01*
G75*
G02*
X63569000Y-130282000I135000J0D01*
G01*
G37*
G36*
G01*
X61029000Y-131304000D02*
X61399000Y-131304000D01*
G75*
G02*
X61534000Y-131439000I0J-135000D01*
G01*
X61534000Y-131709000D01*
G75*
G02*
X61399000Y-131844000I-135000J0D01*
G01*
X61029000Y-131844000D01*
G75*
G02*
X60894000Y-131709000I0J135000D01*
G01*
X60894000Y-131439000D01*
G75*
G02*
X61029000Y-131304000I135000J0D01*
G01*
G37*
G36*
G01*
X61029000Y-130284000D02*
X61399000Y-130284000D01*
G75*
G02*
X61534000Y-130419000I0J-135000D01*
G01*
X61534000Y-130689000D01*
G75*
G02*
X61399000Y-130824000I-135000J0D01*
G01*
X61029000Y-130824000D01*
G75*
G02*
X60894000Y-130689000I0J135000D01*
G01*
X60894000Y-130419000D01*
G75*
G02*
X61029000Y-130284000I135000J0D01*
G01*
G37*
G36*
G01*
X58489000Y-131304000D02*
X58859000Y-131304000D01*
G75*
G02*
X58994000Y-131439000I0J-135000D01*
G01*
X58994000Y-131709000D01*
G75*
G02*
X58859000Y-131844000I-135000J0D01*
G01*
X58489000Y-131844000D01*
G75*
G02*
X58354000Y-131709000I0J135000D01*
G01*
X58354000Y-131439000D01*
G75*
G02*
X58489000Y-131304000I135000J0D01*
G01*
G37*
G36*
G01*
X58489000Y-130284000D02*
X58859000Y-130284000D01*
G75*
G02*
X58994000Y-130419000I0J-135000D01*
G01*
X58994000Y-130689000D01*
G75*
G02*
X58859000Y-130824000I-135000J0D01*
G01*
X58489000Y-130824000D01*
G75*
G02*
X58354000Y-130689000I0J135000D01*
G01*
X58354000Y-130419000D01*
G75*
G02*
X58489000Y-130284000I135000J0D01*
G01*
G37*
G36*
G01*
X81885000Y-95120000D02*
X82255000Y-95120000D01*
G75*
G02*
X82390000Y-95255000I0J-135000D01*
G01*
X82390000Y-95525000D01*
G75*
G02*
X82255000Y-95660000I-135000J0D01*
G01*
X81885000Y-95660000D01*
G75*
G02*
X81750000Y-95525000I0J135000D01*
G01*
X81750000Y-95255000D01*
G75*
G02*
X81885000Y-95120000I135000J0D01*
G01*
G37*
G36*
G01*
X81885000Y-94100000D02*
X82255000Y-94100000D01*
G75*
G02*
X82390000Y-94235000I0J-135000D01*
G01*
X82390000Y-94505000D01*
G75*
G02*
X82255000Y-94640000I-135000J0D01*
G01*
X81885000Y-94640000D01*
G75*
G02*
X81750000Y-94505000I0J135000D01*
G01*
X81750000Y-94235000D01*
G75*
G02*
X81885000Y-94100000I135000J0D01*
G01*
G37*
G36*
G01*
X89510000Y-115335000D02*
X89510000Y-114965000D01*
G75*
G02*
X89645000Y-114830000I135000J0D01*
G01*
X89915000Y-114830000D01*
G75*
G02*
X90050000Y-114965000I0J-135000D01*
G01*
X90050000Y-115335000D01*
G75*
G02*
X89915000Y-115470000I-135000J0D01*
G01*
X89645000Y-115470000D01*
G75*
G02*
X89510000Y-115335000I0J135000D01*
G01*
G37*
G36*
G01*
X88490000Y-115335000D02*
X88490000Y-114965000D01*
G75*
G02*
X88625000Y-114830000I135000J0D01*
G01*
X88895000Y-114830000D01*
G75*
G02*
X89030000Y-114965000I0J-135000D01*
G01*
X89030000Y-115335000D01*
G75*
G02*
X88895000Y-115470000I-135000J0D01*
G01*
X88625000Y-115470000D01*
G75*
G02*
X88490000Y-115335000I0J135000D01*
G01*
G37*
G36*
G01*
X72376000Y-145727000D02*
X72376000Y-145357000D01*
G75*
G02*
X72511000Y-145222000I135000J0D01*
G01*
X72781000Y-145222000D01*
G75*
G02*
X72916000Y-145357000I0J-135000D01*
G01*
X72916000Y-145727000D01*
G75*
G02*
X72781000Y-145862000I-135000J0D01*
G01*
X72511000Y-145862000D01*
G75*
G02*
X72376000Y-145727000I0J135000D01*
G01*
G37*
G36*
G01*
X71356000Y-145727000D02*
X71356000Y-145357000D01*
G75*
G02*
X71491000Y-145222000I135000J0D01*
G01*
X71761000Y-145222000D01*
G75*
G02*
X71896000Y-145357000I0J-135000D01*
G01*
X71896000Y-145727000D01*
G75*
G02*
X71761000Y-145862000I-135000J0D01*
G01*
X71491000Y-145862000D01*
G75*
G02*
X71356000Y-145727000I0J135000D01*
G01*
G37*
G36*
G01*
X90752000Y-122398000D02*
X90752000Y-122058000D01*
G75*
G02*
X90892000Y-121918000I140000J0D01*
G01*
X91172000Y-121918000D01*
G75*
G02*
X91312000Y-122058000I0J-140000D01*
G01*
X91312000Y-122398000D01*
G75*
G02*
X91172000Y-122538000I-140000J0D01*
G01*
X90892000Y-122538000D01*
G75*
G02*
X90752000Y-122398000I0J140000D01*
G01*
G37*
G36*
G01*
X89792000Y-122398000D02*
X89792000Y-122058000D01*
G75*
G02*
X89932000Y-121918000I140000J0D01*
G01*
X90212000Y-121918000D01*
G75*
G02*
X90352000Y-122058000I0J-140000D01*
G01*
X90352000Y-122398000D01*
G75*
G02*
X90212000Y-122538000I-140000J0D01*
G01*
X89932000Y-122538000D01*
G75*
G02*
X89792000Y-122398000I0J140000D01*
G01*
G37*
G36*
G01*
X44788000Y-75638000D02*
X45128000Y-75638000D01*
G75*
G02*
X45268000Y-75778000I0J-140000D01*
G01*
X45268000Y-76058000D01*
G75*
G02*
X45128000Y-76198000I-140000J0D01*
G01*
X44788000Y-76198000D01*
G75*
G02*
X44648000Y-76058000I0J140000D01*
G01*
X44648000Y-75778000D01*
G75*
G02*
X44788000Y-75638000I140000J0D01*
G01*
G37*
G36*
G01*
X44788000Y-74678000D02*
X45128000Y-74678000D01*
G75*
G02*
X45268000Y-74818000I0J-140000D01*
G01*
X45268000Y-75098000D01*
G75*
G02*
X45128000Y-75238000I-140000J0D01*
G01*
X44788000Y-75238000D01*
G75*
G02*
X44648000Y-75098000I0J140000D01*
G01*
X44648000Y-74818000D01*
G75*
G02*
X44788000Y-74678000I140000J0D01*
G01*
G37*
G36*
G01*
X57910000Y-52480000D02*
X57910000Y-52140000D01*
G75*
G02*
X58050000Y-52000000I140000J0D01*
G01*
X58330000Y-52000000D01*
G75*
G02*
X58470000Y-52140000I0J-140000D01*
G01*
X58470000Y-52480000D01*
G75*
G02*
X58330000Y-52620000I-140000J0D01*
G01*
X58050000Y-52620000D01*
G75*
G02*
X57910000Y-52480000I0J140000D01*
G01*
G37*
G36*
G01*
X56950000Y-52480000D02*
X56950000Y-52140000D01*
G75*
G02*
X57090000Y-52000000I140000J0D01*
G01*
X57370000Y-52000000D01*
G75*
G02*
X57510000Y-52140000I0J-140000D01*
G01*
X57510000Y-52480000D01*
G75*
G02*
X57370000Y-52620000I-140000J0D01*
G01*
X57090000Y-52620000D01*
G75*
G02*
X56950000Y-52480000I0J140000D01*
G01*
G37*
G36*
G01*
X85382000Y-142518000D02*
X85382000Y-142858000D01*
G75*
G02*
X85242000Y-142998000I-140000J0D01*
G01*
X84962000Y-142998000D01*
G75*
G02*
X84822000Y-142858000I0J140000D01*
G01*
X84822000Y-142518000D01*
G75*
G02*
X84962000Y-142378000I140000J0D01*
G01*
X85242000Y-142378000D01*
G75*
G02*
X85382000Y-142518000I0J-140000D01*
G01*
G37*
G36*
G01*
X86342000Y-142518000D02*
X86342000Y-142858000D01*
G75*
G02*
X86202000Y-142998000I-140000J0D01*
G01*
X85922000Y-142998000D01*
G75*
G02*
X85782000Y-142858000I0J140000D01*
G01*
X85782000Y-142518000D01*
G75*
G02*
X85922000Y-142378000I140000J0D01*
G01*
X86202000Y-142378000D01*
G75*
G02*
X86342000Y-142518000I0J-140000D01*
G01*
G37*
G36*
G01*
X94180000Y-144188000D02*
X94180000Y-143848000D01*
G75*
G02*
X94320000Y-143708000I140000J0D01*
G01*
X94600000Y-143708000D01*
G75*
G02*
X94740000Y-143848000I0J-140000D01*
G01*
X94740000Y-144188000D01*
G75*
G02*
X94600000Y-144328000I-140000J0D01*
G01*
X94320000Y-144328000D01*
G75*
G02*
X94180000Y-144188000I0J140000D01*
G01*
G37*
G36*
G01*
X93220000Y-144188000D02*
X93220000Y-143848000D01*
G75*
G02*
X93360000Y-143708000I140000J0D01*
G01*
X93640000Y-143708000D01*
G75*
G02*
X93780000Y-143848000I0J-140000D01*
G01*
X93780000Y-144188000D01*
G75*
G02*
X93640000Y-144328000I-140000J0D01*
G01*
X93360000Y-144328000D01*
G75*
G02*
X93220000Y-144188000I0J140000D01*
G01*
G37*
G36*
G01*
X121372000Y-176778000D02*
X121372000Y-176438000D01*
G75*
G02*
X121512000Y-176298000I140000J0D01*
G01*
X121792000Y-176298000D01*
G75*
G02*
X121932000Y-176438000I0J-140000D01*
G01*
X121932000Y-176778000D01*
G75*
G02*
X121792000Y-176918000I-140000J0D01*
G01*
X121512000Y-176918000D01*
G75*
G02*
X121372000Y-176778000I0J140000D01*
G01*
G37*
G36*
G01*
X120412000Y-176778000D02*
X120412000Y-176438000D01*
G75*
G02*
X120552000Y-176298000I140000J0D01*
G01*
X120832000Y-176298000D01*
G75*
G02*
X120972000Y-176438000I0J-140000D01*
G01*
X120972000Y-176778000D01*
G75*
G02*
X120832000Y-176918000I-140000J0D01*
G01*
X120552000Y-176918000D01*
G75*
G02*
X120412000Y-176778000I0J140000D01*
G01*
G37*
G36*
G01*
X147882000Y-134704000D02*
X147882000Y-135044000D01*
G75*
G02*
X147742000Y-135184000I-140000J0D01*
G01*
X147462000Y-135184000D01*
G75*
G02*
X147322000Y-135044000I0J140000D01*
G01*
X147322000Y-134704000D01*
G75*
G02*
X147462000Y-134564000I140000J0D01*
G01*
X147742000Y-134564000D01*
G75*
G02*
X147882000Y-134704000I0J-140000D01*
G01*
G37*
G36*
G01*
X148842000Y-134704000D02*
X148842000Y-135044000D01*
G75*
G02*
X148702000Y-135184000I-140000J0D01*
G01*
X148422000Y-135184000D01*
G75*
G02*
X148282000Y-135044000I0J140000D01*
G01*
X148282000Y-134704000D01*
G75*
G02*
X148422000Y-134564000I140000J0D01*
G01*
X148702000Y-134564000D01*
G75*
G02*
X148842000Y-134704000I0J-140000D01*
G01*
G37*
G36*
G01*
X123542000Y-175778000D02*
X123542000Y-176118000D01*
G75*
G02*
X123402000Y-176258000I-140000J0D01*
G01*
X123122000Y-176258000D01*
G75*
G02*
X122982000Y-176118000I0J140000D01*
G01*
X122982000Y-175778000D01*
G75*
G02*
X123122000Y-175638000I140000J0D01*
G01*
X123402000Y-175638000D01*
G75*
G02*
X123542000Y-175778000I0J-140000D01*
G01*
G37*
G36*
G01*
X124502000Y-175778000D02*
X124502000Y-176118000D01*
G75*
G02*
X124362000Y-176258000I-140000J0D01*
G01*
X124082000Y-176258000D01*
G75*
G02*
X123942000Y-176118000I0J140000D01*
G01*
X123942000Y-175778000D01*
G75*
G02*
X124082000Y-175638000I140000J0D01*
G01*
X124362000Y-175638000D01*
G75*
G02*
X124502000Y-175778000I0J-140000D01*
G01*
G37*
G36*
G01*
X108262000Y-162718000D02*
X108602000Y-162718000D01*
G75*
G02*
X108742000Y-162858000I0J-140000D01*
G01*
X108742000Y-163138000D01*
G75*
G02*
X108602000Y-163278000I-140000J0D01*
G01*
X108262000Y-163278000D01*
G75*
G02*
X108122000Y-163138000I0J140000D01*
G01*
X108122000Y-162858000D01*
G75*
G02*
X108262000Y-162718000I140000J0D01*
G01*
G37*
G36*
G01*
X108262000Y-161758000D02*
X108602000Y-161758000D01*
G75*
G02*
X108742000Y-161898000I0J-140000D01*
G01*
X108742000Y-162178000D01*
G75*
G02*
X108602000Y-162318000I-140000J0D01*
G01*
X108262000Y-162318000D01*
G75*
G02*
X108122000Y-162178000I0J140000D01*
G01*
X108122000Y-161898000D01*
G75*
G02*
X108262000Y-161758000I140000J0D01*
G01*
G37*
G36*
G01*
X125492000Y-160508000D02*
X125832000Y-160508000D01*
G75*
G02*
X125972000Y-160648000I0J-140000D01*
G01*
X125972000Y-160928000D01*
G75*
G02*
X125832000Y-161068000I-140000J0D01*
G01*
X125492000Y-161068000D01*
G75*
G02*
X125352000Y-160928000I0J140000D01*
G01*
X125352000Y-160648000D01*
G75*
G02*
X125492000Y-160508000I140000J0D01*
G01*
G37*
G36*
G01*
X125492000Y-159548000D02*
X125832000Y-159548000D01*
G75*
G02*
X125972000Y-159688000I0J-140000D01*
G01*
X125972000Y-159968000D01*
G75*
G02*
X125832000Y-160108000I-140000J0D01*
G01*
X125492000Y-160108000D01*
G75*
G02*
X125352000Y-159968000I0J140000D01*
G01*
X125352000Y-159688000D01*
G75*
G02*
X125492000Y-159548000I140000J0D01*
G01*
G37*
G36*
G01*
X135547000Y-158993000D02*
X135547000Y-158653000D01*
G75*
G02*
X135687000Y-158513000I140000J0D01*
G01*
X135967000Y-158513000D01*
G75*
G02*
X136107000Y-158653000I0J-140000D01*
G01*
X136107000Y-158993000D01*
G75*
G02*
X135967000Y-159133000I-140000J0D01*
G01*
X135687000Y-159133000D01*
G75*
G02*
X135547000Y-158993000I0J140000D01*
G01*
G37*
G36*
G01*
X134587000Y-158993000D02*
X134587000Y-158653000D01*
G75*
G02*
X134727000Y-158513000I140000J0D01*
G01*
X135007000Y-158513000D01*
G75*
G02*
X135147000Y-158653000I0J-140000D01*
G01*
X135147000Y-158993000D01*
G75*
G02*
X135007000Y-159133000I-140000J0D01*
G01*
X134727000Y-159133000D01*
G75*
G02*
X134587000Y-158993000I0J140000D01*
G01*
G37*
D33*
X113275000Y-116600000D03*
X103325000Y-116600000D03*
D34*
X47482000Y-122682000D03*
X45482000Y-123632000D03*
X45482000Y-121732000D03*
D35*
X52766000Y-116880000D03*
X51816000Y-116880000D03*
X50866000Y-116880000D03*
X50866000Y-114260000D03*
X51816000Y-114260000D03*
X52766000Y-114260000D03*
D36*
X41118000Y-127378000D03*
D37*
X43888000Y-128778000D03*
X40948000Y-128778000D03*
X43888000Y-136978000D03*
D38*
X44168000Y-135628000D03*
X44168000Y-135128000D03*
X44168000Y-134628000D03*
X44168000Y-134128000D03*
X44168000Y-133628000D03*
X44168000Y-133128000D03*
X44168000Y-132628000D03*
X44168000Y-132128000D03*
X44168000Y-131628000D03*
X44168000Y-131128000D03*
X44168000Y-130628000D03*
D36*
X41118000Y-138378000D03*
D38*
X44168000Y-130128000D03*
X40668000Y-130628000D03*
X40668000Y-132128000D03*
X40668000Y-131628000D03*
X40668000Y-131128000D03*
X40668000Y-130128000D03*
X40668000Y-132628000D03*
X40668000Y-133128000D03*
X40668000Y-133628000D03*
X40668000Y-134128000D03*
X40668000Y-134628000D03*
X40668000Y-135128000D03*
X40668000Y-135628000D03*
D37*
X40948000Y-136978000D03*
D36*
X39848000Y-114134000D03*
D37*
X42618000Y-115534000D03*
X39678000Y-115534000D03*
X42618000Y-123734000D03*
D38*
X42898000Y-122384000D03*
X42898000Y-121884000D03*
X42898000Y-121384000D03*
X42898000Y-120884000D03*
X42898000Y-120384000D03*
X42898000Y-119884000D03*
X42898000Y-119384000D03*
X42898000Y-118884000D03*
X42898000Y-118384000D03*
X42898000Y-117884000D03*
X42898000Y-117384000D03*
D36*
X39848000Y-125134000D03*
D38*
X42898000Y-116884000D03*
X39398000Y-117384000D03*
X39398000Y-118884000D03*
X39398000Y-118384000D03*
X39398000Y-117884000D03*
X39398000Y-116884000D03*
X39398000Y-119384000D03*
X39398000Y-119884000D03*
X39398000Y-120384000D03*
X39398000Y-120884000D03*
X39398000Y-121384000D03*
X39398000Y-121884000D03*
X39398000Y-122384000D03*
D37*
X39678000Y-123734000D03*
D34*
X146320000Y-161290000D03*
X148320000Y-160340000D03*
X148320000Y-162240000D03*
D25*
X53848000Y-148860000D03*
X54798000Y-150860000D03*
X52898000Y-150860000D03*
D34*
X49260000Y-57658000D03*
X47260000Y-58608000D03*
X47260000Y-56708000D03*
D12*
X155702000Y-135890000D03*
X155702000Y-138430000D03*
D13*
X155702000Y-140970000D03*
D12*
X149860000Y-152654000D03*
X149860000Y-155194000D03*
D13*
X149860000Y-157734000D03*
D12*
X142240000Y-152654000D03*
X142240000Y-155194000D03*
D13*
X142240000Y-157734000D03*
G36*
G01*
X149836000Y-146327000D02*
X149836000Y-146027000D01*
G75*
G02*
X149986000Y-145877000I150000J0D01*
G01*
X151636000Y-145877000D01*
G75*
G02*
X151786000Y-146027000I0J-150000D01*
G01*
X151786000Y-146327000D01*
G75*
G02*
X151636000Y-146477000I-150000J0D01*
G01*
X149986000Y-146477000D01*
G75*
G02*
X149836000Y-146327000I0J150000D01*
G01*
G37*
G36*
G01*
X149836000Y-147597000D02*
X149836000Y-147297000D01*
G75*
G02*
X149986000Y-147147000I150000J0D01*
G01*
X151636000Y-147147000D01*
G75*
G02*
X151786000Y-147297000I0J-150000D01*
G01*
X151786000Y-147597000D01*
G75*
G02*
X151636000Y-147747000I-150000J0D01*
G01*
X149986000Y-147747000D01*
G75*
G02*
X149836000Y-147597000I0J150000D01*
G01*
G37*
G36*
G01*
X149836000Y-148867000D02*
X149836000Y-148567000D01*
G75*
G02*
X149986000Y-148417000I150000J0D01*
G01*
X151636000Y-148417000D01*
G75*
G02*
X151786000Y-148567000I0J-150000D01*
G01*
X151786000Y-148867000D01*
G75*
G02*
X151636000Y-149017000I-150000J0D01*
G01*
X149986000Y-149017000D01*
G75*
G02*
X149836000Y-148867000I0J150000D01*
G01*
G37*
G36*
G01*
X149836000Y-150137000D02*
X149836000Y-149837000D01*
G75*
G02*
X149986000Y-149687000I150000J0D01*
G01*
X151636000Y-149687000D01*
G75*
G02*
X151786000Y-149837000I0J-150000D01*
G01*
X151786000Y-150137000D01*
G75*
G02*
X151636000Y-150287000I-150000J0D01*
G01*
X149986000Y-150287000D01*
G75*
G02*
X149836000Y-150137000I0J150000D01*
G01*
G37*
G36*
G01*
X144886000Y-150137000D02*
X144886000Y-149837000D01*
G75*
G02*
X145036000Y-149687000I150000J0D01*
G01*
X146686000Y-149687000D01*
G75*
G02*
X146836000Y-149837000I0J-150000D01*
G01*
X146836000Y-150137000D01*
G75*
G02*
X146686000Y-150287000I-150000J0D01*
G01*
X145036000Y-150287000D01*
G75*
G02*
X144886000Y-150137000I0J150000D01*
G01*
G37*
G36*
G01*
X144886000Y-148867000D02*
X144886000Y-148567000D01*
G75*
G02*
X145036000Y-148417000I150000J0D01*
G01*
X146686000Y-148417000D01*
G75*
G02*
X146836000Y-148567000I0J-150000D01*
G01*
X146836000Y-148867000D01*
G75*
G02*
X146686000Y-149017000I-150000J0D01*
G01*
X145036000Y-149017000D01*
G75*
G02*
X144886000Y-148867000I0J150000D01*
G01*
G37*
G36*
G01*
X144886000Y-147597000D02*
X144886000Y-147297000D01*
G75*
G02*
X145036000Y-147147000I150000J0D01*
G01*
X146686000Y-147147000D01*
G75*
G02*
X146836000Y-147297000I0J-150000D01*
G01*
X146836000Y-147597000D01*
G75*
G02*
X146686000Y-147747000I-150000J0D01*
G01*
X145036000Y-147747000D01*
G75*
G02*
X144886000Y-147597000I0J150000D01*
G01*
G37*
G36*
G01*
X144886000Y-146327000D02*
X144886000Y-146027000D01*
G75*
G02*
X145036000Y-145877000I150000J0D01*
G01*
X146686000Y-145877000D01*
G75*
G02*
X146836000Y-146027000I0J-150000D01*
G01*
X146836000Y-146327000D01*
G75*
G02*
X146686000Y-146477000I-150000J0D01*
G01*
X145036000Y-146477000D01*
G75*
G02*
X144886000Y-146327000I0J150000D01*
G01*
G37*
D39*
X66802000Y-118872000D03*
X66802000Y-121412000D03*
D25*
X53848000Y-155718000D03*
X54798000Y-157718000D03*
X52898000Y-157718000D03*
D39*
X40640000Y-72390000D03*
X60706000Y-58166000D03*
X40640000Y-67310000D03*
X63246000Y-47752000D03*
D12*
X58852000Y-45798000D03*
D13*
X56312000Y-45798000D03*
G36*
G01*
X77120000Y-168653750D02*
X77120000Y-169166250D01*
G75*
G02*
X76901250Y-169385000I-218750J0D01*
G01*
X76463750Y-169385000D01*
G75*
G02*
X76245000Y-169166250I0J218750D01*
G01*
X76245000Y-168653750D01*
G75*
G02*
X76463750Y-168435000I218750J0D01*
G01*
X76901250Y-168435000D01*
G75*
G02*
X77120000Y-168653750I0J-218750D01*
G01*
G37*
G36*
G01*
X78695000Y-168653750D02*
X78695000Y-169166250D01*
G75*
G02*
X78476250Y-169385000I-218750J0D01*
G01*
X78038750Y-169385000D01*
G75*
G02*
X77820000Y-169166250I0J218750D01*
G01*
X77820000Y-168653750D01*
G75*
G02*
X78038750Y-168435000I218750J0D01*
G01*
X78476250Y-168435000D01*
G75*
G02*
X78695000Y-168653750I0J-218750D01*
G01*
G37*
D39*
X47498000Y-151892000D03*
X47498000Y-149098000D03*
X47498000Y-146304000D03*
X47498000Y-143510000D03*
X47498000Y-140716000D03*
X154940000Y-145796000D03*
X67564000Y-33274000D03*
X132842000Y-28956000D03*
X124460000Y-90170000D03*
X133350000Y-85090000D03*
X66802000Y-116332000D03*
D12*
X58166000Y-115570000D03*
D13*
X55626000Y-115570000D03*
D12*
X91142000Y-165148000D03*
D13*
X91142000Y-162608000D03*
D12*
X57658000Y-122174000D03*
D13*
X55118000Y-122174000D03*
G36*
G01*
X77120000Y-163065750D02*
X77120000Y-163578250D01*
G75*
G02*
X76901250Y-163797000I-218750J0D01*
G01*
X76463750Y-163797000D01*
G75*
G02*
X76245000Y-163578250I0J218750D01*
G01*
X76245000Y-163065750D01*
G75*
G02*
X76463750Y-162847000I218750J0D01*
G01*
X76901250Y-162847000D01*
G75*
G02*
X77120000Y-163065750I0J-218750D01*
G01*
G37*
G36*
G01*
X78695000Y-163065750D02*
X78695000Y-163578250D01*
G75*
G02*
X78476250Y-163797000I-218750J0D01*
G01*
X78038750Y-163797000D01*
G75*
G02*
X77820000Y-163578250I0J218750D01*
G01*
X77820000Y-163065750D01*
G75*
G02*
X78038750Y-162847000I218750J0D01*
G01*
X78476250Y-162847000D01*
G75*
G02*
X78695000Y-163065750I0J-218750D01*
G01*
G37*
D10*
X143800000Y-76610000D03*
D11*
X143800000Y-81610000D03*
D14*
X66250000Y-38404800D03*
X133750000Y-38404800D03*
X37831600Y-141942300D03*
X162168400Y-141942300D03*
X37831600Y-58057700D03*
X162168400Y-58057700D03*
G36*
G01*
X143355000Y-140775000D02*
X143355000Y-140975000D01*
G75*
G02*
X143255000Y-141075000I-100000J0D01*
G01*
X141980000Y-141075000D01*
G75*
G02*
X141880000Y-140975000I0J100000D01*
G01*
X141880000Y-140775000D01*
G75*
G02*
X141980000Y-140675000I100000J0D01*
G01*
X143255000Y-140675000D01*
G75*
G02*
X143355000Y-140775000I0J-100000D01*
G01*
G37*
G36*
G01*
X143355000Y-140125000D02*
X143355000Y-140325000D01*
G75*
G02*
X143255000Y-140425000I-100000J0D01*
G01*
X141980000Y-140425000D01*
G75*
G02*
X141880000Y-140325000I0J100000D01*
G01*
X141880000Y-140125000D01*
G75*
G02*
X141980000Y-140025000I100000J0D01*
G01*
X143255000Y-140025000D01*
G75*
G02*
X143355000Y-140125000I0J-100000D01*
G01*
G37*
G36*
G01*
X143355000Y-139475000D02*
X143355000Y-139675000D01*
G75*
G02*
X143255000Y-139775000I-100000J0D01*
G01*
X141980000Y-139775000D01*
G75*
G02*
X141880000Y-139675000I0J100000D01*
G01*
X141880000Y-139475000D01*
G75*
G02*
X141980000Y-139375000I100000J0D01*
G01*
X143255000Y-139375000D01*
G75*
G02*
X143355000Y-139475000I0J-100000D01*
G01*
G37*
G36*
G01*
X143355000Y-138825000D02*
X143355000Y-139025000D01*
G75*
G02*
X143255000Y-139125000I-100000J0D01*
G01*
X141980000Y-139125000D01*
G75*
G02*
X141880000Y-139025000I0J100000D01*
G01*
X141880000Y-138825000D01*
G75*
G02*
X141980000Y-138725000I100000J0D01*
G01*
X143255000Y-138725000D01*
G75*
G02*
X143355000Y-138825000I0J-100000D01*
G01*
G37*
G36*
G01*
X143355000Y-138175000D02*
X143355000Y-138375000D01*
G75*
G02*
X143255000Y-138475000I-100000J0D01*
G01*
X141980000Y-138475000D01*
G75*
G02*
X141880000Y-138375000I0J100000D01*
G01*
X141880000Y-138175000D01*
G75*
G02*
X141980000Y-138075000I100000J0D01*
G01*
X143255000Y-138075000D01*
G75*
G02*
X143355000Y-138175000I0J-100000D01*
G01*
G37*
G36*
G01*
X143355000Y-137525000D02*
X143355000Y-137725000D01*
G75*
G02*
X143255000Y-137825000I-100000J0D01*
G01*
X141980000Y-137825000D01*
G75*
G02*
X141880000Y-137725000I0J100000D01*
G01*
X141880000Y-137525000D01*
G75*
G02*
X141980000Y-137425000I100000J0D01*
G01*
X143255000Y-137425000D01*
G75*
G02*
X143355000Y-137525000I0J-100000D01*
G01*
G37*
G36*
G01*
X143355000Y-136875000D02*
X143355000Y-137075000D01*
G75*
G02*
X143255000Y-137175000I-100000J0D01*
G01*
X141980000Y-137175000D01*
G75*
G02*
X141880000Y-137075000I0J100000D01*
G01*
X141880000Y-136875000D01*
G75*
G02*
X141980000Y-136775000I100000J0D01*
G01*
X143255000Y-136775000D01*
G75*
G02*
X143355000Y-136875000I0J-100000D01*
G01*
G37*
G36*
G01*
X143355000Y-136225000D02*
X143355000Y-136425000D01*
G75*
G02*
X143255000Y-136525000I-100000J0D01*
G01*
X141980000Y-136525000D01*
G75*
G02*
X141880000Y-136425000I0J100000D01*
G01*
X141880000Y-136225000D01*
G75*
G02*
X141980000Y-136125000I100000J0D01*
G01*
X143255000Y-136125000D01*
G75*
G02*
X143355000Y-136225000I0J-100000D01*
G01*
G37*
G36*
G01*
X149080000Y-136225000D02*
X149080000Y-136425000D01*
G75*
G02*
X148980000Y-136525000I-100000J0D01*
G01*
X147705000Y-136525000D01*
G75*
G02*
X147605000Y-136425000I0J100000D01*
G01*
X147605000Y-136225000D01*
G75*
G02*
X147705000Y-136125000I100000J0D01*
G01*
X148980000Y-136125000D01*
G75*
G02*
X149080000Y-136225000I0J-100000D01*
G01*
G37*
G36*
G01*
X149080000Y-136875000D02*
X149080000Y-137075000D01*
G75*
G02*
X148980000Y-137175000I-100000J0D01*
G01*
X147705000Y-137175000D01*
G75*
G02*
X147605000Y-137075000I0J100000D01*
G01*
X147605000Y-136875000D01*
G75*
G02*
X147705000Y-136775000I100000J0D01*
G01*
X148980000Y-136775000D01*
G75*
G02*
X149080000Y-136875000I0J-100000D01*
G01*
G37*
G36*
G01*
X149080000Y-137525000D02*
X149080000Y-137725000D01*
G75*
G02*
X148980000Y-137825000I-100000J0D01*
G01*
X147705000Y-137825000D01*
G75*
G02*
X147605000Y-137725000I0J100000D01*
G01*
X147605000Y-137525000D01*
G75*
G02*
X147705000Y-137425000I100000J0D01*
G01*
X148980000Y-137425000D01*
G75*
G02*
X149080000Y-137525000I0J-100000D01*
G01*
G37*
G36*
G01*
X149080000Y-138175000D02*
X149080000Y-138375000D01*
G75*
G02*
X148980000Y-138475000I-100000J0D01*
G01*
X147705000Y-138475000D01*
G75*
G02*
X147605000Y-138375000I0J100000D01*
G01*
X147605000Y-138175000D01*
G75*
G02*
X147705000Y-138075000I100000J0D01*
G01*
X148980000Y-138075000D01*
G75*
G02*
X149080000Y-138175000I0J-100000D01*
G01*
G37*
G36*
G01*
X149080000Y-138825000D02*
X149080000Y-139025000D01*
G75*
G02*
X148980000Y-139125000I-100000J0D01*
G01*
X147705000Y-139125000D01*
G75*
G02*
X147605000Y-139025000I0J100000D01*
G01*
X147605000Y-138825000D01*
G75*
G02*
X147705000Y-138725000I100000J0D01*
G01*
X148980000Y-138725000D01*
G75*
G02*
X149080000Y-138825000I0J-100000D01*
G01*
G37*
G36*
G01*
X149080000Y-139475000D02*
X149080000Y-139675000D01*
G75*
G02*
X148980000Y-139775000I-100000J0D01*
G01*
X147705000Y-139775000D01*
G75*
G02*
X147605000Y-139675000I0J100000D01*
G01*
X147605000Y-139475000D01*
G75*
G02*
X147705000Y-139375000I100000J0D01*
G01*
X148980000Y-139375000D01*
G75*
G02*
X149080000Y-139475000I0J-100000D01*
G01*
G37*
G36*
G01*
X149080000Y-140125000D02*
X149080000Y-140325000D01*
G75*
G02*
X148980000Y-140425000I-100000J0D01*
G01*
X147705000Y-140425000D01*
G75*
G02*
X147605000Y-140325000I0J100000D01*
G01*
X147605000Y-140125000D01*
G75*
G02*
X147705000Y-140025000I100000J0D01*
G01*
X148980000Y-140025000D01*
G75*
G02*
X149080000Y-140125000I0J-100000D01*
G01*
G37*
G36*
G01*
X149080000Y-140775000D02*
X149080000Y-140975000D01*
G75*
G02*
X148980000Y-141075000I-100000J0D01*
G01*
X147705000Y-141075000D01*
G75*
G02*
X147605000Y-140975000I0J100000D01*
G01*
X147605000Y-140775000D01*
G75*
G02*
X147705000Y-140675000I100000J0D01*
G01*
X148980000Y-140675000D01*
G75*
G02*
X149080000Y-140775000I0J-100000D01*
G01*
G37*
G36*
G01*
X45638000Y-50995000D02*
X45638000Y-50445000D01*
G75*
G02*
X45838000Y-50245000I200000J0D01*
G01*
X46238000Y-50245000D01*
G75*
G02*
X46438000Y-50445000I0J-200000D01*
G01*
X46438000Y-50995000D01*
G75*
G02*
X46238000Y-51195000I-200000J0D01*
G01*
X45838000Y-51195000D01*
G75*
G02*
X45638000Y-50995000I0J200000D01*
G01*
G37*
G36*
G01*
X43988000Y-50995000D02*
X43988000Y-50445000D01*
G75*
G02*
X44188000Y-50245000I200000J0D01*
G01*
X44588000Y-50245000D01*
G75*
G02*
X44788000Y-50445000I0J-200000D01*
G01*
X44788000Y-50995000D01*
G75*
G02*
X44588000Y-51195000I-200000J0D01*
G01*
X44188000Y-51195000D01*
G75*
G02*
X43988000Y-50995000I0J200000D01*
G01*
G37*
D34*
X52686000Y-48216000D03*
X50686000Y-49166000D03*
X50686000Y-47266000D03*
X43958000Y-53440000D03*
X45958000Y-52490000D03*
X45958000Y-54390000D03*
X163220000Y-52650000D03*
X161220000Y-53600000D03*
X161220000Y-51700000D03*
X60250000Y-166140000D03*
X62250000Y-165190000D03*
X62250000Y-167090000D03*
D25*
X66802000Y-163306000D03*
X65852000Y-161306000D03*
X67752000Y-161306000D03*
X138800000Y-33330000D03*
X139750000Y-35330000D03*
X137850000Y-35330000D03*
X80222000Y-176738000D03*
X79272000Y-174738000D03*
X81172000Y-174738000D03*
X61780000Y-33260000D03*
X62730000Y-35260000D03*
X60830000Y-35260000D03*
X114927000Y-177548000D03*
X113977000Y-175548000D03*
X115877000Y-175548000D03*
X42110000Y-46640000D03*
X43060000Y-48640000D03*
X41160000Y-48640000D03*
D34*
X131572000Y-169818000D03*
X129572000Y-170768000D03*
X129572000Y-168868000D03*
D25*
X43820000Y-60150000D03*
X42870000Y-58150000D03*
X44770000Y-58150000D03*
D34*
X137492000Y-170238000D03*
X135492000Y-171188000D03*
X135492000Y-169288000D03*
X36870000Y-146940000D03*
X38870000Y-145990000D03*
X38870000Y-147890000D03*
X155600000Y-151300000D03*
X153600000Y-152250000D03*
X153600000Y-150350000D03*
X45990000Y-155194000D03*
X47990000Y-154244000D03*
X47990000Y-156144000D03*
X159496000Y-146304000D03*
X157496000Y-147254000D03*
X157496000Y-145354000D03*
G36*
G01*
X41310000Y-83076250D02*
X41310000Y-82563750D01*
G75*
G02*
X41528750Y-82345000I218750J0D01*
G01*
X41966250Y-82345000D01*
G75*
G02*
X42185000Y-82563750I0J-218750D01*
G01*
X42185000Y-83076250D01*
G75*
G02*
X41966250Y-83295000I-218750J0D01*
G01*
X41528750Y-83295000D01*
G75*
G02*
X41310000Y-83076250I0J218750D01*
G01*
G37*
G36*
G01*
X39735000Y-83076250D02*
X39735000Y-82563750D01*
G75*
G02*
X39953750Y-82345000I218750J0D01*
G01*
X40391250Y-82345000D01*
G75*
G02*
X40610000Y-82563750I0J-218750D01*
G01*
X40610000Y-83076250D01*
G75*
G02*
X40391250Y-83295000I-218750J0D01*
G01*
X39953750Y-83295000D01*
G75*
G02*
X39735000Y-83076250I0J218750D01*
G01*
G37*
G36*
G01*
X81566250Y-107872500D02*
X81053750Y-107872500D01*
G75*
G02*
X80835000Y-107653750I0J218750D01*
G01*
X80835000Y-107216250D01*
G75*
G02*
X81053750Y-106997500I218750J0D01*
G01*
X81566250Y-106997500D01*
G75*
G02*
X81785000Y-107216250I0J-218750D01*
G01*
X81785000Y-107653750D01*
G75*
G02*
X81566250Y-107872500I-218750J0D01*
G01*
G37*
G36*
G01*
X81566250Y-109447500D02*
X81053750Y-109447500D01*
G75*
G02*
X80835000Y-109228750I0J218750D01*
G01*
X80835000Y-108791250D01*
G75*
G02*
X81053750Y-108572500I218750J0D01*
G01*
X81566250Y-108572500D01*
G75*
G02*
X81785000Y-108791250I0J-218750D01*
G01*
X81785000Y-109228750D01*
G75*
G02*
X81566250Y-109447500I-218750J0D01*
G01*
G37*
G36*
G01*
X77120000Y-171447750D02*
X77120000Y-171960250D01*
G75*
G02*
X76901250Y-172179000I-218750J0D01*
G01*
X76463750Y-172179000D01*
G75*
G02*
X76245000Y-171960250I0J218750D01*
G01*
X76245000Y-171447750D01*
G75*
G02*
X76463750Y-171229000I218750J0D01*
G01*
X76901250Y-171229000D01*
G75*
G02*
X77120000Y-171447750I0J-218750D01*
G01*
G37*
G36*
G01*
X78695000Y-171447750D02*
X78695000Y-171960250D01*
G75*
G02*
X78476250Y-172179000I-218750J0D01*
G01*
X78038750Y-172179000D01*
G75*
G02*
X77820000Y-171960250I0J218750D01*
G01*
X77820000Y-171447750D01*
G75*
G02*
X78038750Y-171229000I218750J0D01*
G01*
X78476250Y-171229000D01*
G75*
G02*
X78695000Y-171447750I0J-218750D01*
G01*
G37*
M02*
