G04 #@! TF.GenerationSoftware,KiCad,Pcbnew,5.1.9-73d0e3b20d~88~ubuntu20.04.1*
G04 #@! TF.CreationDate,2020-12-29T23:42:59-08:00*
G04 #@! TF.ProjectId,master_board,6d617374-6572-45f6-926f-6172642e6b69,Rev. A*
G04 #@! TF.SameCoordinates,Original*
G04 #@! TF.FileFunction,Soldermask,Bot*
G04 #@! TF.FilePolarity,Negative*
%FSLAX46Y46*%
G04 Gerber Fmt 4.6, Leading zero omitted, Abs format (unit mm)*
G04 Created by KiCad (PCBNEW 5.1.9-73d0e3b20d~88~ubuntu20.04.1) date 2020-12-29 23:42:59*
%MOMM*%
%LPD*%
G01*
G04 APERTURE LIST*
%ADD10C,2.000000*%
%ADD11R,2.000000X2.000000*%
%ADD12O,1.700000X1.700000*%
%ADD13R,1.700000X1.700000*%
%ADD14C,2.700000*%
%ADD15C,1.520000*%
%ADD16C,2.180000*%
%ADD17C,3.000000*%
%ADD18C,2.200000*%
%ADD19C,2.400000*%
%ADD20C,2.550000*%
%ADD21C,1.800000*%
%ADD22C,1.980000*%
%ADD23C,0.600000*%
%ADD24O,1.200000X1.700000*%
%ADD25R,1.500000X1.500000*%
G04 APERTURE END LIST*
D10*
X106030000Y-96390000D03*
D11*
X111030000Y-96390000D03*
D10*
X145470000Y-122910000D03*
D11*
X145470000Y-117910000D03*
D12*
X48768000Y-137414000D03*
D13*
X51308000Y-137414000D03*
D12*
X159004000Y-115570000D03*
X156464000Y-115570000D03*
D13*
X153924000Y-115570000D03*
D14*
X50856500Y-126485000D03*
X66491500Y-126485000D03*
D15*
X62484000Y-125730000D03*
X59944000Y-125730000D03*
X57404000Y-125730000D03*
X54864000Y-125730000D03*
X66294000Y-133350000D03*
X63754000Y-133350000D03*
X61214000Y-133350000D03*
X58674000Y-133350000D03*
X55499000Y-133350000D03*
X52959000Y-133350000D03*
X50419000Y-133350000D03*
D12*
X138938000Y-141224000D03*
X138938000Y-138684000D03*
D13*
X138938000Y-136144000D03*
D12*
X123190000Y-141986000D03*
X123190000Y-139446000D03*
D13*
X123190000Y-136906000D03*
D12*
X135128000Y-141224000D03*
X135128000Y-138684000D03*
D13*
X135128000Y-136144000D03*
D12*
X119380000Y-144526000D03*
X119380000Y-141986000D03*
X119380000Y-139446000D03*
D13*
X119380000Y-136906000D03*
D12*
X61800000Y-67760000D03*
X61800000Y-70300000D03*
X59260000Y-67760000D03*
X59260000Y-70300000D03*
X56720000Y-67760000D03*
X56720000Y-70300000D03*
X54180000Y-67760000D03*
X54180000Y-70300000D03*
X51640000Y-67760000D03*
X51640000Y-70300000D03*
X49100000Y-67760000D03*
D13*
X49100000Y-70300000D03*
D12*
X159512000Y-130302000D03*
X159512000Y-132842000D03*
D13*
X159512000Y-135382000D03*
D12*
X159004000Y-119380000D03*
X156464000Y-119380000D03*
D13*
X153924000Y-119380000D03*
D12*
X146030000Y-152654000D03*
X146030000Y-155194000D03*
D13*
X146030000Y-157734000D03*
D12*
X151892000Y-135890000D03*
X151892000Y-138430000D03*
D13*
X151892000Y-140970000D03*
D12*
X86020000Y-98540000D03*
D13*
X83480000Y-98540000D03*
D12*
X72752000Y-159148000D03*
X75292000Y-159148000D03*
D13*
X77832000Y-159148000D03*
D12*
X123238260Y-96657160D03*
D13*
X120698260Y-96657160D03*
D12*
X48514000Y-61722000D03*
D13*
X51054000Y-61722000D03*
D12*
X59436000Y-141478000D03*
X56896000Y-141478000D03*
D13*
X54356000Y-141478000D03*
D12*
X58420000Y-156718000D03*
X58420000Y-159258000D03*
D13*
X58420000Y-161798000D03*
D15*
X128330000Y-123720000D03*
X125790000Y-123720000D03*
X123250000Y-123720000D03*
X120710000Y-123720000D03*
X118170000Y-123720000D03*
X123290000Y-93280000D03*
X120750000Y-93280000D03*
X118210000Y-93280000D03*
X115670000Y-93280000D03*
D16*
X116600000Y-126600000D03*
X127500000Y-90300000D03*
D15*
X69828500Y-132475800D03*
X72368500Y-132475800D03*
X74908500Y-132475800D03*
X77448500Y-132475800D03*
X79988500Y-132475800D03*
X82528500Y-132475800D03*
X85068500Y-132475800D03*
X87608500Y-132475800D03*
X90148500Y-132475800D03*
X92688500Y-132475800D03*
X95228500Y-132475800D03*
X97768500Y-132475800D03*
X100308500Y-132475800D03*
X102848500Y-132475800D03*
X105388500Y-132475800D03*
X107928500Y-132475800D03*
X110468500Y-132475800D03*
X113008500Y-132475800D03*
X115548500Y-132475800D03*
X118088500Y-132475800D03*
X120628500Y-132475800D03*
X123168500Y-132475800D03*
X125708500Y-132475800D03*
X128248500Y-132475800D03*
X130788500Y-132475800D03*
X133328500Y-132475800D03*
X135868500Y-132475800D03*
X138408500Y-132475800D03*
X140948500Y-132475800D03*
X143488500Y-132475800D03*
X146028500Y-132475800D03*
X148568500Y-132475800D03*
X151108500Y-132475800D03*
X153648500Y-132475800D03*
X156188500Y-132475800D03*
X69828500Y-129935800D03*
X72368500Y-129935800D03*
X74908500Y-129935800D03*
X77448500Y-129935800D03*
X79988500Y-129935800D03*
X82528500Y-129935800D03*
X85068500Y-129935800D03*
X87608500Y-129935800D03*
X90148500Y-129935800D03*
X92688500Y-129935800D03*
X95228500Y-129935800D03*
X97768500Y-129935800D03*
X100308500Y-129935800D03*
X102848500Y-129935800D03*
X105388500Y-129935800D03*
X107928500Y-129935800D03*
X110468500Y-129935800D03*
X113008500Y-129935800D03*
X115548500Y-129935800D03*
X118088500Y-129935800D03*
X120628500Y-129935800D03*
X123168500Y-129935800D03*
X125708500Y-129935800D03*
X128248500Y-129935800D03*
X130788500Y-129935800D03*
X133328500Y-129935800D03*
X135868500Y-129935800D03*
X138408500Y-129935800D03*
X140948500Y-129935800D03*
X143488500Y-129935800D03*
X146028500Y-129935800D03*
X148568500Y-129935800D03*
X151108500Y-129935800D03*
X153648500Y-129935800D03*
X156188500Y-129935800D03*
X69828500Y-71515800D03*
X72368500Y-71515800D03*
X74908500Y-71515800D03*
X77448500Y-71515800D03*
X79988500Y-71515800D03*
X82528500Y-71515800D03*
X85068500Y-71515800D03*
X87608500Y-71515800D03*
X90148500Y-71515800D03*
X92688500Y-71515800D03*
X95228500Y-71515800D03*
X97768500Y-71515800D03*
X100308500Y-71515800D03*
X102848500Y-71515800D03*
X105388500Y-71515800D03*
X107928500Y-71515800D03*
X110468500Y-71515800D03*
X113008500Y-71515800D03*
X115548500Y-71515800D03*
X118088500Y-71515800D03*
X120628500Y-71515800D03*
X123168500Y-71515800D03*
X125708500Y-71515800D03*
X128248500Y-71515800D03*
X130788500Y-71515800D03*
X133328500Y-71515800D03*
X135868500Y-71515800D03*
X138408500Y-71515800D03*
X140948500Y-71515800D03*
X143488500Y-71515800D03*
X146028500Y-71515800D03*
X148568500Y-71515800D03*
X151108500Y-71515800D03*
X153648500Y-71515800D03*
X156188500Y-71515800D03*
X69828500Y-68975800D03*
X72368500Y-68975800D03*
X74908500Y-68975800D03*
X77448500Y-68975800D03*
X79988500Y-68975800D03*
X82528500Y-68975800D03*
X85068500Y-68975800D03*
X87608500Y-68975800D03*
X90148500Y-68975800D03*
X92688500Y-68975800D03*
X95228500Y-68975800D03*
X97768500Y-68975800D03*
X100308500Y-68975800D03*
X102848500Y-68975800D03*
X105388500Y-68975800D03*
X107928500Y-68975800D03*
X110468500Y-68975800D03*
X113008500Y-68975800D03*
X115548500Y-68975800D03*
X118088500Y-68975800D03*
X120628500Y-68975800D03*
X123168500Y-68975800D03*
X125708500Y-68975800D03*
X128248500Y-68975800D03*
X130788500Y-68975800D03*
X133328500Y-68975800D03*
X135868500Y-68975800D03*
X138408500Y-68975800D03*
X140948500Y-68975800D03*
X143488500Y-68975800D03*
X146028500Y-68975800D03*
X148568500Y-68975800D03*
X151108500Y-68975800D03*
X153648500Y-68975800D03*
X156188500Y-68975800D03*
D17*
X107928500Y-109615800D03*
X83798500Y-77865800D03*
X83798500Y-123585800D03*
X159998500Y-76595800D03*
X158728500Y-124855800D03*
D18*
X137750000Y-55000000D03*
X157750000Y-55000000D03*
D15*
X74230000Y-75870000D03*
X74230000Y-78410000D03*
X74230000Y-80950000D03*
X74230000Y-83490000D03*
X74230000Y-86030000D03*
X74230000Y-88570000D03*
X74230000Y-91110000D03*
X74230000Y-93650000D03*
X74230000Y-96190000D03*
X74230000Y-98730000D03*
X74230000Y-101270000D03*
X74230000Y-103810000D03*
X74230000Y-106350000D03*
X74230000Y-108890000D03*
X74230000Y-111430000D03*
X74230000Y-113970000D03*
X74230000Y-116510000D03*
X74230000Y-119050000D03*
X74230000Y-121590000D03*
X74230000Y-124130000D03*
X76770000Y-75870000D03*
X76770000Y-78410000D03*
X76770000Y-80950000D03*
X76770000Y-83490000D03*
X76770000Y-86030000D03*
X76770000Y-88570000D03*
X76770000Y-91110000D03*
X76770000Y-93650000D03*
X76770000Y-96190000D03*
X76770000Y-98730000D03*
X76770000Y-101270000D03*
X76770000Y-103810000D03*
X76770000Y-106350000D03*
X76770000Y-108890000D03*
X76770000Y-111430000D03*
X76770000Y-113970000D03*
X76770000Y-116510000D03*
X76770000Y-119050000D03*
X76770000Y-121590000D03*
X76770000Y-124130000D03*
X110435000Y-143690000D03*
X107895000Y-143690000D03*
X105355000Y-143690000D03*
X102815000Y-143690000D03*
X110435000Y-146230000D03*
X107895000Y-146230000D03*
X105355000Y-146230000D03*
X102815000Y-146230000D03*
D19*
X86000000Y-150500000D03*
X114700000Y-150500000D03*
X86000000Y-135500000D03*
X114700000Y-135500000D03*
D18*
X153000000Y-124250000D03*
X133000000Y-124250000D03*
D20*
X131020930Y-156988121D03*
X141009521Y-146999530D03*
D15*
X132423123Y-153789877D03*
X134219174Y-151993826D03*
X136015226Y-150197774D03*
X137811277Y-148401723D03*
D20*
X58990479Y-146999530D03*
X68979070Y-156988121D03*
D15*
X62188723Y-148401723D03*
X63984774Y-150197774D03*
X65780826Y-151993826D03*
X67576877Y-153789877D03*
D20*
X65979900Y-59566320D03*
X56857017Y-57759940D03*
D15*
X64588539Y-62268533D03*
X62096913Y-61775178D03*
X59605287Y-61281822D03*
X57113661Y-60788467D03*
D20*
X143142983Y-57759940D03*
X134020100Y-59566320D03*
D15*
X142886339Y-60788467D03*
X140394713Y-61281822D03*
X137903087Y-61775178D03*
X135411461Y-62268533D03*
X63700000Y-116380000D03*
X63700000Y-118920000D03*
X63700000Y-121460000D03*
X63700000Y-78540000D03*
X63700000Y-81080000D03*
X63700000Y-83620000D03*
X136300000Y-116380000D03*
X136300000Y-118920000D03*
X136300000Y-121460000D03*
X136300000Y-78540000D03*
X136300000Y-81080000D03*
X136300000Y-83620000D03*
D18*
X48173166Y-118761205D03*
X55826834Y-137238795D03*
X147750000Y-85000000D03*
X147750000Y-65000000D03*
X48000000Y-47000000D03*
X68000000Y-47000000D03*
D21*
X167348000Y-140349852D03*
X168618000Y-138150148D03*
X156545162Y-154465719D03*
X158277438Y-152608081D03*
X142843722Y-165789575D03*
X144949478Y-164369225D03*
X126946253Y-173741227D03*
X129317547Y-172830973D03*
X109667460Y-177912750D03*
X112182740Y-177559250D03*
X87817260Y-177559250D03*
X90332540Y-177912750D03*
X70682453Y-172830973D03*
X73053747Y-173741227D03*
X55050522Y-164369225D03*
X57156278Y-165789575D03*
X41722562Y-152608081D03*
X43454838Y-154465719D03*
X31382000Y-138150148D03*
X32652000Y-140349852D03*
X32652000Y-59650148D03*
X31382000Y-61849852D03*
X46382862Y-42649584D03*
X44555738Y-44414016D03*
X64267843Y-30092371D03*
X62025157Y-31284829D03*
X137974843Y-31284829D03*
X135732157Y-30092371D03*
X155444262Y-44414016D03*
X153617138Y-42649584D03*
X168618000Y-61849852D03*
X167348000Y-59650148D03*
D20*
X119114731Y-150665566D03*
X132165453Y-145259780D03*
D22*
X122606119Y-150594024D03*
X124952773Y-149622008D03*
X127299427Y-148649992D03*
X129646081Y-147677976D03*
D20*
X92937000Y-139270000D03*
X107063000Y-139270000D03*
D22*
X96190000Y-138000000D03*
X98730000Y-138000000D03*
X101270000Y-138000000D03*
X103810000Y-138000000D03*
D20*
X67834547Y-145259780D03*
X80885269Y-150665566D03*
D22*
X70353919Y-147677976D03*
X72700573Y-148649992D03*
X75047227Y-149622008D03*
X77393881Y-150594024D03*
D23*
X41118000Y-127378000D03*
D24*
X43888000Y-128778000D03*
X40948000Y-128778000D03*
X43888000Y-136978000D03*
D23*
X41118000Y-138378000D03*
D24*
X40948000Y-136978000D03*
D23*
X39848000Y-114134000D03*
D24*
X42618000Y-115534000D03*
X39678000Y-115534000D03*
X42618000Y-123734000D03*
D23*
X39848000Y-125134000D03*
D24*
X39678000Y-123734000D03*
D12*
X155702000Y-135890000D03*
X155702000Y-138430000D03*
D13*
X155702000Y-140970000D03*
D12*
X149860000Y-152654000D03*
X149860000Y-155194000D03*
D13*
X149860000Y-157734000D03*
D12*
X142240000Y-152654000D03*
X142240000Y-155194000D03*
D13*
X142240000Y-157734000D03*
D25*
X66802000Y-118872000D03*
X66802000Y-121412000D03*
X40640000Y-72390000D03*
X60706000Y-58166000D03*
X40640000Y-67310000D03*
X63246000Y-47752000D03*
D12*
X58852000Y-45798000D03*
D13*
X56312000Y-45798000D03*
D25*
X47498000Y-151892000D03*
X47498000Y-149098000D03*
X47498000Y-146304000D03*
X47498000Y-143510000D03*
X47498000Y-140716000D03*
X154940000Y-145796000D03*
X67564000Y-33274000D03*
X132842000Y-28956000D03*
X124460000Y-90170000D03*
X133350000Y-85090000D03*
X66802000Y-116332000D03*
D12*
X58166000Y-115570000D03*
D13*
X55626000Y-115570000D03*
D12*
X91142000Y-165148000D03*
D13*
X91142000Y-162608000D03*
D12*
X57658000Y-122174000D03*
D13*
X55118000Y-122174000D03*
D10*
X143800000Y-76610000D03*
D11*
X143800000Y-81610000D03*
D14*
X66250000Y-38404800D03*
X133750000Y-38404800D03*
X37831600Y-141942300D03*
X162168400Y-141942300D03*
X37831600Y-58057700D03*
X162168400Y-58057700D03*
M02*
