G04 #@! TF.GenerationSoftware,KiCad,Pcbnew,5.1.9-73d0e3b20d~88~ubuntu20.04.1*
G04 #@! TF.CreationDate,2020-12-30T10:14:53-08:00*
G04 #@! TF.ProjectId,master_board,6d617374-6572-45f6-926f-6172642e6b69,Rev. A*
G04 #@! TF.SameCoordinates,Original*
G04 #@! TF.FileFunction,Legend,Bot*
G04 #@! TF.FilePolarity,Positive*
%FSLAX46Y46*%
G04 Gerber Fmt 4.6, Leading zero omitted, Abs format (unit mm)*
G04 Created by KiCad (PCBNEW 5.1.9-73d0e3b20d~88~ubuntu20.04.1) date 2020-12-30 10:14:53*
%MOMM*%
%LPD*%
G01*
G04 APERTURE LIST*
%ADD10C,0.150000*%
%ADD11C,0.200000*%
%ADD12C,0.300000*%
%ADD13C,0.120000*%
G04 APERTURE END LIST*
D10*
X148533523Y-44079380D02*
X148533523Y-43079380D01*
X148152571Y-43079380D01*
X148057333Y-43127000D01*
X148009714Y-43174619D01*
X147962095Y-43269857D01*
X147962095Y-43412714D01*
X148009714Y-43507952D01*
X148057333Y-43555571D01*
X148152571Y-43603190D01*
X148533523Y-43603190D01*
X147533523Y-44079380D02*
X147533523Y-43412714D01*
X147533523Y-43603190D02*
X147485904Y-43507952D01*
X147438285Y-43460333D01*
X147343047Y-43412714D01*
X147247809Y-43412714D01*
X146914476Y-44079380D02*
X146914476Y-43412714D01*
X146914476Y-43079380D02*
X146962095Y-43127000D01*
X146914476Y-43174619D01*
X146866857Y-43127000D01*
X146914476Y-43079380D01*
X146914476Y-43174619D01*
X146438285Y-43412714D02*
X146438285Y-44079380D01*
X146438285Y-43507952D02*
X146390666Y-43460333D01*
X146295428Y-43412714D01*
X146152571Y-43412714D01*
X146057333Y-43460333D01*
X146009714Y-43555571D01*
X146009714Y-44079380D01*
X145104952Y-44031761D02*
X145200190Y-44079380D01*
X145390666Y-44079380D01*
X145485904Y-44031761D01*
X145533523Y-43984142D01*
X145581142Y-43888904D01*
X145581142Y-43603190D01*
X145533523Y-43507952D01*
X145485904Y-43460333D01*
X145390666Y-43412714D01*
X145200190Y-43412714D01*
X145104952Y-43460333D01*
X144676380Y-44079380D02*
X144676380Y-43412714D01*
X144676380Y-43079380D02*
X144724000Y-43127000D01*
X144676380Y-43174619D01*
X144628761Y-43127000D01*
X144676380Y-43079380D01*
X144676380Y-43174619D01*
X144200190Y-43412714D02*
X144200190Y-44412714D01*
X144200190Y-43460333D02*
X144104952Y-43412714D01*
X143914476Y-43412714D01*
X143819238Y-43460333D01*
X143771619Y-43507952D01*
X143724000Y-43603190D01*
X143724000Y-43888904D01*
X143771619Y-43984142D01*
X143819238Y-44031761D01*
X143914476Y-44079380D01*
X144104952Y-44079380D01*
X144200190Y-44031761D01*
X143152571Y-44079380D02*
X143247809Y-44031761D01*
X143295428Y-43936523D01*
X143295428Y-43079380D01*
X142390666Y-44031761D02*
X142485904Y-44079380D01*
X142676380Y-44079380D01*
X142771619Y-44031761D01*
X142819238Y-43936523D01*
X142819238Y-43555571D01*
X142771619Y-43460333D01*
X142676380Y-43412714D01*
X142485904Y-43412714D01*
X142390666Y-43460333D01*
X142343047Y-43555571D01*
X142343047Y-43650809D01*
X142819238Y-43746047D01*
X141152571Y-44079380D02*
X141152571Y-43079380D01*
X140914476Y-43079380D01*
X140771619Y-43127000D01*
X140676380Y-43222238D01*
X140628761Y-43317476D01*
X140581142Y-43507952D01*
X140581142Y-43650809D01*
X140628761Y-43841285D01*
X140676380Y-43936523D01*
X140771619Y-44031761D01*
X140914476Y-44079380D01*
X141152571Y-44079380D01*
X139771619Y-44031761D02*
X139866857Y-44079380D01*
X140057333Y-44079380D01*
X140152571Y-44031761D01*
X140200190Y-43936523D01*
X140200190Y-43555571D01*
X140152571Y-43460333D01*
X140057333Y-43412714D01*
X139866857Y-43412714D01*
X139771619Y-43460333D01*
X139724000Y-43555571D01*
X139724000Y-43650809D01*
X140200190Y-43746047D01*
X139343047Y-44031761D02*
X139247809Y-44079380D01*
X139057333Y-44079380D01*
X138962095Y-44031761D01*
X138914476Y-43936523D01*
X138914476Y-43888904D01*
X138962095Y-43793666D01*
X139057333Y-43746047D01*
X139200190Y-43746047D01*
X139295428Y-43698428D01*
X139343047Y-43603190D01*
X139343047Y-43555571D01*
X139295428Y-43460333D01*
X139200190Y-43412714D01*
X139057333Y-43412714D01*
X138962095Y-43460333D01*
X138485904Y-44079380D02*
X138485904Y-43412714D01*
X138485904Y-43079380D02*
X138533523Y-43127000D01*
X138485904Y-43174619D01*
X138438285Y-43127000D01*
X138485904Y-43079380D01*
X138485904Y-43174619D01*
X137581142Y-43412714D02*
X137581142Y-44222238D01*
X137628761Y-44317476D01*
X137676380Y-44365095D01*
X137771619Y-44412714D01*
X137914476Y-44412714D01*
X138009714Y-44365095D01*
X137581142Y-44031761D02*
X137676380Y-44079380D01*
X137866857Y-44079380D01*
X137962095Y-44031761D01*
X138009714Y-43984142D01*
X138057333Y-43888904D01*
X138057333Y-43603190D01*
X138009714Y-43507952D01*
X137962095Y-43460333D01*
X137866857Y-43412714D01*
X137676380Y-43412714D01*
X137581142Y-43460333D01*
X137104952Y-43412714D02*
X137104952Y-44079380D01*
X137104952Y-43507952D02*
X137057333Y-43460333D01*
X136962095Y-43412714D01*
X136819238Y-43412714D01*
X136724000Y-43460333D01*
X136676380Y-43555571D01*
X136676380Y-44079380D01*
X135819238Y-44031761D02*
X135914476Y-44079380D01*
X136104952Y-44079380D01*
X136200190Y-44031761D01*
X136247809Y-43936523D01*
X136247809Y-43555571D01*
X136200190Y-43460333D01*
X136104952Y-43412714D01*
X135914476Y-43412714D01*
X135819238Y-43460333D01*
X135771619Y-43555571D01*
X135771619Y-43650809D01*
X136247809Y-43746047D01*
X135343047Y-44079380D02*
X135343047Y-43412714D01*
X135343047Y-43603190D02*
X135295428Y-43507952D01*
X135247809Y-43460333D01*
X135152571Y-43412714D01*
X135057333Y-43412714D01*
X134771619Y-44031761D02*
X134676380Y-44079380D01*
X134485904Y-44079380D01*
X134390666Y-44031761D01*
X134343047Y-43936523D01*
X134343047Y-43888904D01*
X134390666Y-43793666D01*
X134485904Y-43746047D01*
X134628761Y-43746047D01*
X134724000Y-43698428D01*
X134771619Y-43603190D01*
X134771619Y-43555571D01*
X134724000Y-43460333D01*
X134628761Y-43412714D01*
X134485904Y-43412714D01*
X134390666Y-43460333D01*
X133914476Y-43984142D02*
X133866857Y-44031761D01*
X133914476Y-44079380D01*
X133962095Y-44031761D01*
X133914476Y-43984142D01*
X133914476Y-44079380D01*
X133914476Y-43460333D02*
X133866857Y-43507952D01*
X133914476Y-43555571D01*
X133962095Y-43507952D01*
X133914476Y-43460333D01*
X133914476Y-43555571D01*
X147581142Y-44729380D02*
X147581142Y-44967476D01*
X147819238Y-44872238D02*
X147581142Y-44967476D01*
X147343047Y-44872238D01*
X147724000Y-45157952D02*
X147581142Y-44967476D01*
X147438285Y-45157952D01*
X146295428Y-44729380D02*
X146057333Y-45729380D01*
X145866857Y-45015095D01*
X145676380Y-45729380D01*
X145438285Y-44729380D01*
X144628761Y-45729380D02*
X144628761Y-45205571D01*
X144676380Y-45110333D01*
X144771619Y-45062714D01*
X144962095Y-45062714D01*
X145057333Y-45110333D01*
X144628761Y-45681761D02*
X144724000Y-45729380D01*
X144962095Y-45729380D01*
X145057333Y-45681761D01*
X145104952Y-45586523D01*
X145104952Y-45491285D01*
X145057333Y-45396047D01*
X144962095Y-45348428D01*
X144724000Y-45348428D01*
X144628761Y-45300809D01*
X144247809Y-45062714D02*
X144009714Y-45729380D01*
X143771619Y-45062714D02*
X144009714Y-45729380D01*
X144104952Y-45967476D01*
X144152571Y-46015095D01*
X144247809Y-46062714D01*
X143390666Y-45062714D02*
X143390666Y-45729380D01*
X143390666Y-45157952D02*
X143343047Y-45110333D01*
X143247809Y-45062714D01*
X143104952Y-45062714D01*
X143009714Y-45110333D01*
X142962095Y-45205571D01*
X142962095Y-45729380D01*
X142104952Y-45681761D02*
X142200190Y-45729380D01*
X142390666Y-45729380D01*
X142485904Y-45681761D01*
X142533523Y-45586523D01*
X142533523Y-45205571D01*
X142485904Y-45110333D01*
X142390666Y-45062714D01*
X142200190Y-45062714D01*
X142104952Y-45110333D01*
X142057333Y-45205571D01*
X142057333Y-45300809D01*
X142533523Y-45396047D01*
X140343047Y-44777000D02*
X140438285Y-44729380D01*
X140581142Y-44729380D01*
X140724000Y-44777000D01*
X140819238Y-44872238D01*
X140866857Y-44967476D01*
X140914476Y-45157952D01*
X140914476Y-45300809D01*
X140866857Y-45491285D01*
X140819238Y-45586523D01*
X140724000Y-45681761D01*
X140581142Y-45729380D01*
X140485904Y-45729380D01*
X140343047Y-45681761D01*
X140295428Y-45634142D01*
X140295428Y-45300809D01*
X140485904Y-45300809D01*
X139866857Y-45729380D02*
X139866857Y-45062714D01*
X139866857Y-45253190D02*
X139819238Y-45157952D01*
X139771619Y-45110333D01*
X139676380Y-45062714D01*
X139581142Y-45062714D01*
X138819238Y-45729380D02*
X138819238Y-45205571D01*
X138866857Y-45110333D01*
X138962095Y-45062714D01*
X139152571Y-45062714D01*
X139247809Y-45110333D01*
X138819238Y-45681761D02*
X138914476Y-45729380D01*
X139152571Y-45729380D01*
X139247809Y-45681761D01*
X139295428Y-45586523D01*
X139295428Y-45491285D01*
X139247809Y-45396047D01*
X139152571Y-45348428D01*
X138914476Y-45348428D01*
X138819238Y-45300809D01*
X138343047Y-45729380D02*
X138343047Y-45062714D01*
X138343047Y-45157952D02*
X138295428Y-45110333D01*
X138200190Y-45062714D01*
X138057333Y-45062714D01*
X137962095Y-45110333D01*
X137914476Y-45205571D01*
X137914476Y-45729380D01*
X137914476Y-45205571D02*
X137866857Y-45110333D01*
X137771619Y-45062714D01*
X137628761Y-45062714D01*
X137533523Y-45110333D01*
X137485904Y-45205571D01*
X137485904Y-45729380D01*
X136866857Y-45729380D02*
X136962095Y-45681761D01*
X137009714Y-45586523D01*
X137009714Y-44729380D01*
X136485904Y-45729380D02*
X136485904Y-45062714D01*
X136485904Y-44729380D02*
X136533523Y-44777000D01*
X136485904Y-44824619D01*
X136438285Y-44777000D01*
X136485904Y-44729380D01*
X136485904Y-44824619D01*
X135581142Y-45681761D02*
X135676380Y-45729380D01*
X135866857Y-45729380D01*
X135962095Y-45681761D01*
X136009714Y-45634142D01*
X136057333Y-45538904D01*
X136057333Y-45253190D01*
X136009714Y-45157952D01*
X135962095Y-45110333D01*
X135866857Y-45062714D01*
X135676380Y-45062714D01*
X135581142Y-45110333D01*
X135152571Y-45729380D02*
X135152571Y-44729380D01*
X134724000Y-45729380D02*
X134724000Y-45205571D01*
X134771619Y-45110333D01*
X134866857Y-45062714D01*
X135009714Y-45062714D01*
X135104952Y-45110333D01*
X135152571Y-45157952D01*
X146628761Y-46379380D02*
X146628761Y-46617476D01*
X146866857Y-46522238D02*
X146628761Y-46617476D01*
X146390666Y-46522238D01*
X146771619Y-46807952D02*
X146628761Y-46617476D01*
X146485904Y-46807952D01*
X144962095Y-46379380D02*
X144962095Y-47093666D01*
X145009714Y-47236523D01*
X145104952Y-47331761D01*
X145247809Y-47379380D01*
X145343047Y-47379380D01*
X144057333Y-47379380D02*
X144057333Y-46855571D01*
X144104952Y-46760333D01*
X144200190Y-46712714D01*
X144390666Y-46712714D01*
X144485904Y-46760333D01*
X144057333Y-47331761D02*
X144152571Y-47379380D01*
X144390666Y-47379380D01*
X144485904Y-47331761D01*
X144533523Y-47236523D01*
X144533523Y-47141285D01*
X144485904Y-47046047D01*
X144390666Y-46998428D01*
X144152571Y-46998428D01*
X144057333Y-46950809D01*
X143581142Y-47379380D02*
X143581142Y-46712714D01*
X143581142Y-46807952D02*
X143533523Y-46760333D01*
X143438285Y-46712714D01*
X143295428Y-46712714D01*
X143200190Y-46760333D01*
X143152571Y-46855571D01*
X143152571Y-47379380D01*
X143152571Y-46855571D02*
X143104952Y-46760333D01*
X143009714Y-46712714D01*
X142866857Y-46712714D01*
X142771619Y-46760333D01*
X142724000Y-46855571D01*
X142724000Y-47379380D01*
X141866857Y-47331761D02*
X141962095Y-47379380D01*
X142152571Y-47379380D01*
X142247809Y-47331761D01*
X142295428Y-47236523D01*
X142295428Y-46855571D01*
X142247809Y-46760333D01*
X142152571Y-46712714D01*
X141962095Y-46712714D01*
X141866857Y-46760333D01*
X141819238Y-46855571D01*
X141819238Y-46950809D01*
X142295428Y-47046047D01*
X141438285Y-47331761D02*
X141343047Y-47379380D01*
X141152571Y-47379380D01*
X141057333Y-47331761D01*
X141009714Y-47236523D01*
X141009714Y-47188904D01*
X141057333Y-47093666D01*
X141152571Y-47046047D01*
X141295428Y-47046047D01*
X141390666Y-46998428D01*
X141438285Y-46903190D01*
X141438285Y-46855571D01*
X141390666Y-46760333D01*
X141295428Y-46712714D01*
X141152571Y-46712714D01*
X141057333Y-46760333D01*
X139819238Y-47379380D02*
X139819238Y-46379380D01*
X139247809Y-47379380D01*
X139247809Y-46379380D01*
X138343047Y-46712714D02*
X138343047Y-47379380D01*
X138771619Y-46712714D02*
X138771619Y-47236523D01*
X138724000Y-47331761D01*
X138628761Y-47379380D01*
X138485904Y-47379380D01*
X138390666Y-47331761D01*
X138343047Y-47284142D01*
X137438285Y-46712714D02*
X137438285Y-47522238D01*
X137485904Y-47617476D01*
X137533523Y-47665095D01*
X137628761Y-47712714D01*
X137771619Y-47712714D01*
X137866857Y-47665095D01*
X137438285Y-47331761D02*
X137533523Y-47379380D01*
X137724000Y-47379380D01*
X137819238Y-47331761D01*
X137866857Y-47284142D01*
X137914476Y-47188904D01*
X137914476Y-46903190D01*
X137866857Y-46807952D01*
X137819238Y-46760333D01*
X137724000Y-46712714D01*
X137533523Y-46712714D01*
X137438285Y-46760333D01*
X136581142Y-47331761D02*
X136676380Y-47379380D01*
X136866857Y-47379380D01*
X136962095Y-47331761D01*
X137009714Y-47236523D01*
X137009714Y-46855571D01*
X136962095Y-46760333D01*
X136866857Y-46712714D01*
X136676380Y-46712714D01*
X136581142Y-46760333D01*
X136533523Y-46855571D01*
X136533523Y-46950809D01*
X137009714Y-47046047D01*
X136104952Y-46712714D02*
X136104952Y-47379380D01*
X136104952Y-46807952D02*
X136057333Y-46760333D01*
X135962095Y-46712714D01*
X135819238Y-46712714D01*
X135724000Y-46760333D01*
X135676380Y-46855571D01*
X135676380Y-47379380D01*
X148676380Y-49029380D02*
X148676380Y-48029380D01*
X148676380Y-48505571D02*
X148104952Y-48505571D01*
X148104952Y-49029380D02*
X148104952Y-48029380D01*
X147485904Y-49029380D02*
X147581142Y-48981761D01*
X147628761Y-48934142D01*
X147676380Y-48838904D01*
X147676380Y-48553190D01*
X147628761Y-48457952D01*
X147581142Y-48410333D01*
X147485904Y-48362714D01*
X147343047Y-48362714D01*
X147247809Y-48410333D01*
X147200190Y-48457952D01*
X147152571Y-48553190D01*
X147152571Y-48838904D01*
X147200190Y-48934142D01*
X147247809Y-48981761D01*
X147343047Y-49029380D01*
X147485904Y-49029380D01*
X146724000Y-48362714D02*
X146724000Y-49029380D01*
X146724000Y-48457952D02*
X146676380Y-48410333D01*
X146581142Y-48362714D01*
X146438285Y-48362714D01*
X146343047Y-48410333D01*
X146295428Y-48505571D01*
X146295428Y-49029380D01*
X145676380Y-49029380D02*
X145771619Y-48981761D01*
X145819238Y-48934142D01*
X145866857Y-48838904D01*
X145866857Y-48553190D01*
X145819238Y-48457952D01*
X145771619Y-48410333D01*
X145676380Y-48362714D01*
X145533523Y-48362714D01*
X145438285Y-48410333D01*
X145390666Y-48457952D01*
X145343047Y-48553190D01*
X145343047Y-48838904D01*
X145390666Y-48934142D01*
X145438285Y-48981761D01*
X145533523Y-49029380D01*
X145676380Y-49029380D01*
X144914476Y-49029380D02*
X144914476Y-48362714D01*
X144914476Y-48553190D02*
X144866857Y-48457952D01*
X144819238Y-48410333D01*
X144724000Y-48362714D01*
X144628761Y-48362714D01*
X143866857Y-49029380D02*
X143866857Y-48505571D01*
X143914476Y-48410333D01*
X144009714Y-48362714D01*
X144200190Y-48362714D01*
X144295428Y-48410333D01*
X143866857Y-48981761D02*
X143962095Y-49029380D01*
X144200190Y-49029380D01*
X144295428Y-48981761D01*
X144343047Y-48886523D01*
X144343047Y-48791285D01*
X144295428Y-48696047D01*
X144200190Y-48648428D01*
X143962095Y-48648428D01*
X143866857Y-48600809D01*
X143390666Y-49029380D02*
X143390666Y-48029380D01*
X143390666Y-48410333D02*
X143295428Y-48362714D01*
X143104952Y-48362714D01*
X143009714Y-48410333D01*
X142962095Y-48457952D01*
X142914476Y-48553190D01*
X142914476Y-48838904D01*
X142962095Y-48934142D01*
X143009714Y-48981761D01*
X143104952Y-49029380D01*
X143295428Y-49029380D01*
X143390666Y-48981761D01*
X142343047Y-49029380D02*
X142438285Y-48981761D01*
X142485904Y-48886523D01*
X142485904Y-48029380D01*
X141581142Y-48981761D02*
X141676380Y-49029380D01*
X141866857Y-49029380D01*
X141962095Y-48981761D01*
X142009714Y-48886523D01*
X142009714Y-48505571D01*
X141962095Y-48410333D01*
X141866857Y-48362714D01*
X141676380Y-48362714D01*
X141581142Y-48410333D01*
X141533523Y-48505571D01*
X141533523Y-48600809D01*
X142009714Y-48696047D01*
X140343047Y-49029380D02*
X140343047Y-48029380D01*
X140009714Y-48743666D01*
X139676380Y-48029380D01*
X139676380Y-49029380D01*
X138819238Y-48981761D02*
X138914476Y-49029380D01*
X139104952Y-49029380D01*
X139200190Y-48981761D01*
X139247809Y-48886523D01*
X139247809Y-48505571D01*
X139200190Y-48410333D01*
X139104952Y-48362714D01*
X138914476Y-48362714D01*
X138819238Y-48410333D01*
X138771619Y-48505571D01*
X138771619Y-48600809D01*
X139247809Y-48696047D01*
X138343047Y-48362714D02*
X138343047Y-49029380D01*
X138343047Y-48457952D02*
X138295428Y-48410333D01*
X138200190Y-48362714D01*
X138057333Y-48362714D01*
X137962095Y-48410333D01*
X137914476Y-48505571D01*
X137914476Y-49029380D01*
X137581142Y-48362714D02*
X137200190Y-48362714D01*
X137438285Y-48029380D02*
X137438285Y-48886523D01*
X137390666Y-48981761D01*
X137295428Y-49029380D01*
X137200190Y-49029380D01*
X136866857Y-49029380D02*
X136866857Y-48362714D01*
X136866857Y-48029380D02*
X136914476Y-48077000D01*
X136866857Y-48124619D01*
X136819238Y-48077000D01*
X136866857Y-48029380D01*
X136866857Y-48124619D01*
X136247809Y-49029380D02*
X136343047Y-48981761D01*
X136390666Y-48934142D01*
X136438285Y-48838904D01*
X136438285Y-48553190D01*
X136390666Y-48457952D01*
X136343047Y-48410333D01*
X136247809Y-48362714D01*
X136104952Y-48362714D01*
X136009714Y-48410333D01*
X135962095Y-48457952D01*
X135914476Y-48553190D01*
X135914476Y-48838904D01*
X135962095Y-48934142D01*
X136009714Y-48981761D01*
X136104952Y-49029380D01*
X136247809Y-49029380D01*
X135485904Y-48362714D02*
X135485904Y-49029380D01*
X135485904Y-48457952D02*
X135438285Y-48410333D01*
X135343047Y-48362714D01*
X135200190Y-48362714D01*
X135104952Y-48410333D01*
X135057333Y-48505571D01*
X135057333Y-49029380D01*
X134628761Y-48981761D02*
X134533523Y-49029380D01*
X134343047Y-49029380D01*
X134247809Y-48981761D01*
X134200190Y-48886523D01*
X134200190Y-48838904D01*
X134247809Y-48743666D01*
X134343047Y-48696047D01*
X134485904Y-48696047D01*
X134581142Y-48648428D01*
X134628761Y-48553190D01*
X134628761Y-48505571D01*
X134581142Y-48410333D01*
X134485904Y-48362714D01*
X134343047Y-48362714D01*
X134247809Y-48410333D01*
X133771619Y-48934142D02*
X133724000Y-48981761D01*
X133771619Y-49029380D01*
X133819238Y-48981761D01*
X133771619Y-48934142D01*
X133771619Y-49029380D01*
X133771619Y-48410333D02*
X133724000Y-48457952D01*
X133771619Y-48505571D01*
X133819238Y-48457952D01*
X133771619Y-48410333D01*
X133771619Y-48505571D01*
X147247809Y-49679380D02*
X147247809Y-49917476D01*
X147485904Y-49822238D02*
X147247809Y-49917476D01*
X147009714Y-49822238D01*
X147390666Y-50107952D02*
X147247809Y-49917476D01*
X147104952Y-50107952D01*
X145866857Y-50679380D02*
X145866857Y-49679380D01*
X145295428Y-50679380D02*
X145724000Y-50107952D01*
X145295428Y-49679380D02*
X145866857Y-50250809D01*
X144962095Y-50012714D02*
X144724000Y-50679380D01*
X144485904Y-50012714D02*
X144724000Y-50679380D01*
X144819238Y-50917476D01*
X144866857Y-50965095D01*
X144962095Y-51012714D01*
X143962095Y-50679380D02*
X144057333Y-50631761D01*
X144104952Y-50536523D01*
X144104952Y-49679380D01*
X143200190Y-50631761D02*
X143295428Y-50679380D01*
X143485904Y-50679380D01*
X143581142Y-50631761D01*
X143628761Y-50536523D01*
X143628761Y-50155571D01*
X143581142Y-50060333D01*
X143485904Y-50012714D01*
X143295428Y-50012714D01*
X143200190Y-50060333D01*
X143152571Y-50155571D01*
X143152571Y-50250809D01*
X143628761Y-50346047D01*
X141390666Y-50679380D02*
X141724000Y-50203190D01*
X141962095Y-50679380D02*
X141962095Y-49679380D01*
X141581142Y-49679380D01*
X141485904Y-49727000D01*
X141438285Y-49774619D01*
X141390666Y-49869857D01*
X141390666Y-50012714D01*
X141438285Y-50107952D01*
X141485904Y-50155571D01*
X141581142Y-50203190D01*
X141962095Y-50203190D01*
X140819238Y-50679380D02*
X140914476Y-50631761D01*
X140962095Y-50584142D01*
X141009714Y-50488904D01*
X141009714Y-50203190D01*
X140962095Y-50107952D01*
X140914476Y-50060333D01*
X140819238Y-50012714D01*
X140676380Y-50012714D01*
X140581142Y-50060333D01*
X140533523Y-50107952D01*
X140485904Y-50203190D01*
X140485904Y-50488904D01*
X140533523Y-50584142D01*
X140581142Y-50631761D01*
X140676380Y-50679380D01*
X140819238Y-50679380D01*
X139628761Y-50679380D02*
X139628761Y-49679380D01*
X139628761Y-50631761D02*
X139724000Y-50679380D01*
X139914476Y-50679380D01*
X140009714Y-50631761D01*
X140057333Y-50584142D01*
X140104952Y-50488904D01*
X140104952Y-50203190D01*
X140057333Y-50107952D01*
X140009714Y-50060333D01*
X139914476Y-50012714D01*
X139724000Y-50012714D01*
X139628761Y-50060333D01*
X139152571Y-50679380D02*
X139152571Y-50012714D01*
X139152571Y-50203190D02*
X139104952Y-50107952D01*
X139057333Y-50060333D01*
X138962095Y-50012714D01*
X138866857Y-50012714D01*
X138533523Y-50679380D02*
X138533523Y-50012714D01*
X138533523Y-49679380D02*
X138581142Y-49727000D01*
X138533523Y-49774619D01*
X138485904Y-49727000D01*
X138533523Y-49679380D01*
X138533523Y-49774619D01*
X137628761Y-50012714D02*
X137628761Y-50822238D01*
X137676380Y-50917476D01*
X137724000Y-50965095D01*
X137819238Y-51012714D01*
X137962095Y-51012714D01*
X138057333Y-50965095D01*
X137628761Y-50631761D02*
X137724000Y-50679380D01*
X137914476Y-50679380D01*
X138009714Y-50631761D01*
X138057333Y-50584142D01*
X138104952Y-50488904D01*
X138104952Y-50203190D01*
X138057333Y-50107952D01*
X138009714Y-50060333D01*
X137914476Y-50012714D01*
X137724000Y-50012714D01*
X137628761Y-50060333D01*
X136771619Y-50631761D02*
X136866857Y-50679380D01*
X137057333Y-50679380D01*
X137152571Y-50631761D01*
X137200190Y-50536523D01*
X137200190Y-50155571D01*
X137152571Y-50060333D01*
X137057333Y-50012714D01*
X136866857Y-50012714D01*
X136771619Y-50060333D01*
X136724000Y-50155571D01*
X136724000Y-50250809D01*
X137200190Y-50346047D01*
X135866857Y-50012714D02*
X135866857Y-50679380D01*
X136295428Y-50012714D02*
X136295428Y-50536523D01*
X136247809Y-50631761D01*
X136152571Y-50679380D01*
X136009714Y-50679380D01*
X135914476Y-50631761D01*
X135866857Y-50584142D01*
X135438285Y-50631761D02*
X135343047Y-50679380D01*
X135152571Y-50679380D01*
X135057333Y-50631761D01*
X135009714Y-50536523D01*
X135009714Y-50488904D01*
X135057333Y-50393666D01*
X135152571Y-50346047D01*
X135295428Y-50346047D01*
X135390666Y-50298428D01*
X135438285Y-50203190D01*
X135438285Y-50155571D01*
X135390666Y-50060333D01*
X135295428Y-50012714D01*
X135152571Y-50012714D01*
X135057333Y-50060333D01*
X145724000Y-51329380D02*
X145724000Y-51567476D01*
X145962095Y-51472238D02*
X145724000Y-51567476D01*
X145485904Y-51472238D01*
X145866857Y-51757952D02*
X145724000Y-51567476D01*
X145581142Y-51757952D01*
X144485904Y-51329380D02*
X143914476Y-51329380D01*
X144200190Y-52329380D02*
X144200190Y-51329380D01*
X143200190Y-52281761D02*
X143295428Y-52329380D01*
X143485904Y-52329380D01*
X143581142Y-52281761D01*
X143628761Y-52186523D01*
X143628761Y-51805571D01*
X143581142Y-51710333D01*
X143485904Y-51662714D01*
X143295428Y-51662714D01*
X143200190Y-51710333D01*
X143152571Y-51805571D01*
X143152571Y-51900809D01*
X143628761Y-51996047D01*
X142295428Y-52329380D02*
X142295428Y-51329380D01*
X142295428Y-52281761D02*
X142390666Y-52329380D01*
X142581142Y-52329380D01*
X142676380Y-52281761D01*
X142724000Y-52234142D01*
X142771619Y-52138904D01*
X142771619Y-51853190D01*
X142724000Y-51757952D01*
X142676380Y-51710333D01*
X142581142Y-51662714D01*
X142390666Y-51662714D01*
X142295428Y-51710333D01*
X140581142Y-52329380D02*
X141057333Y-52329380D01*
X141057333Y-51329380D01*
X139819238Y-52329380D02*
X139819238Y-51805571D01*
X139866857Y-51710333D01*
X139962095Y-51662714D01*
X140152571Y-51662714D01*
X140247809Y-51710333D01*
X139819238Y-52281761D02*
X139914476Y-52329380D01*
X140152571Y-52329380D01*
X140247809Y-52281761D01*
X140295428Y-52186523D01*
X140295428Y-52091285D01*
X140247809Y-51996047D01*
X140152571Y-51948428D01*
X139914476Y-51948428D01*
X139819238Y-51900809D01*
X139343047Y-52329380D02*
X139343047Y-51662714D01*
X139343047Y-51853190D02*
X139295428Y-51757952D01*
X139247809Y-51710333D01*
X139152571Y-51662714D01*
X139057333Y-51662714D01*
X138771619Y-52281761D02*
X138676380Y-52329380D01*
X138485904Y-52329380D01*
X138390666Y-52281761D01*
X138343047Y-52186523D01*
X138343047Y-52138904D01*
X138390666Y-52043666D01*
X138485904Y-51996047D01*
X138628761Y-51996047D01*
X138724000Y-51948428D01*
X138771619Y-51853190D01*
X138771619Y-51805571D01*
X138724000Y-51710333D01*
X138628761Y-51662714D01*
X138485904Y-51662714D01*
X138390666Y-51710333D01*
X137771619Y-52329380D02*
X137866857Y-52281761D01*
X137914476Y-52234142D01*
X137962095Y-52138904D01*
X137962095Y-51853190D01*
X137914476Y-51757952D01*
X137866857Y-51710333D01*
X137771619Y-51662714D01*
X137628761Y-51662714D01*
X137533523Y-51710333D01*
X137485904Y-51757952D01*
X137438285Y-51853190D01*
X137438285Y-52138904D01*
X137485904Y-52234142D01*
X137533523Y-52281761D01*
X137628761Y-52329380D01*
X137771619Y-52329380D01*
X137009714Y-51662714D02*
X137009714Y-52329380D01*
X137009714Y-51757952D02*
X136962095Y-51710333D01*
X136866857Y-51662714D01*
X136724000Y-51662714D01*
X136628761Y-51710333D01*
X136581142Y-51805571D01*
X136581142Y-52329380D01*
X137182190Y-74813380D02*
X137182190Y-73813380D01*
X137182190Y-74289571D02*
X136610761Y-74289571D01*
X136610761Y-74813380D02*
X136610761Y-73813380D01*
X135563142Y-74813380D02*
X135896476Y-74337190D01*
X136134571Y-74813380D02*
X136134571Y-73813380D01*
X135753619Y-73813380D01*
X135658380Y-73861000D01*
X135610761Y-73908619D01*
X135563142Y-74003857D01*
X135563142Y-74146714D01*
X135610761Y-74241952D01*
X135658380Y-74289571D01*
X135753619Y-74337190D01*
X136134571Y-74337190D01*
X135182190Y-73908619D02*
X135134571Y-73861000D01*
X135039333Y-73813380D01*
X134801238Y-73813380D01*
X134706000Y-73861000D01*
X134658380Y-73908619D01*
X134610761Y-74003857D01*
X134610761Y-74099095D01*
X134658380Y-74241952D01*
X135229809Y-74813380D01*
X134610761Y-74813380D01*
X134182190Y-74718142D02*
X134134571Y-74765761D01*
X134182190Y-74813380D01*
X134229809Y-74765761D01*
X134182190Y-74718142D01*
X134182190Y-74813380D01*
X134182190Y-74194333D02*
X134134571Y-74241952D01*
X134182190Y-74289571D01*
X134229809Y-74241952D01*
X134182190Y-74194333D01*
X134182190Y-74289571D01*
X132944095Y-74813380D02*
X132944095Y-73813380D01*
X132944095Y-74289571D02*
X132372666Y-74289571D01*
X132372666Y-74813380D02*
X132372666Y-73813380D01*
X131325047Y-74813380D02*
X131658380Y-74337190D01*
X131896476Y-74813380D02*
X131896476Y-73813380D01*
X131515523Y-73813380D01*
X131420285Y-73861000D01*
X131372666Y-73908619D01*
X131325047Y-74003857D01*
X131325047Y-74146714D01*
X131372666Y-74241952D01*
X131420285Y-74289571D01*
X131515523Y-74337190D01*
X131896476Y-74337190D01*
X130325047Y-74813380D02*
X130658380Y-74337190D01*
X130896476Y-74813380D02*
X130896476Y-73813380D01*
X130515523Y-73813380D01*
X130420285Y-73861000D01*
X130372666Y-73908619D01*
X130325047Y-74003857D01*
X130325047Y-74146714D01*
X130372666Y-74241952D01*
X130420285Y-74289571D01*
X130515523Y-74337190D01*
X130896476Y-74337190D01*
X129325047Y-74718142D02*
X129372666Y-74765761D01*
X129515523Y-74813380D01*
X129610761Y-74813380D01*
X129753619Y-74765761D01*
X129848857Y-74670523D01*
X129896476Y-74575285D01*
X129944095Y-74384809D01*
X129944095Y-74241952D01*
X129896476Y-74051476D01*
X129848857Y-73956238D01*
X129753619Y-73861000D01*
X129610761Y-73813380D01*
X129515523Y-73813380D01*
X129372666Y-73861000D01*
X129325047Y-73908619D01*
X127563142Y-74813380D02*
X127896476Y-74337190D01*
X128134571Y-74813380D02*
X128134571Y-73813380D01*
X127753619Y-73813380D01*
X127658380Y-73861000D01*
X127610761Y-73908619D01*
X127563142Y-74003857D01*
X127563142Y-74146714D01*
X127610761Y-74241952D01*
X127658380Y-74289571D01*
X127753619Y-74337190D01*
X128134571Y-74337190D01*
X126944095Y-73813380D02*
X126753619Y-73813380D01*
X126658380Y-73861000D01*
X126563142Y-73956238D01*
X126515523Y-74146714D01*
X126515523Y-74480047D01*
X126563142Y-74670523D01*
X126658380Y-74765761D01*
X126753619Y-74813380D01*
X126944095Y-74813380D01*
X127039333Y-74765761D01*
X127134571Y-74670523D01*
X127182190Y-74480047D01*
X127182190Y-74146714D01*
X127134571Y-73956238D01*
X127039333Y-73861000D01*
X126944095Y-73813380D01*
X126134571Y-74765761D02*
X125991714Y-74813380D01*
X125753619Y-74813380D01*
X125658380Y-74765761D01*
X125610761Y-74718142D01*
X125563142Y-74622904D01*
X125563142Y-74527666D01*
X125610761Y-74432428D01*
X125658380Y-74384809D01*
X125753619Y-74337190D01*
X125944095Y-74289571D01*
X126039333Y-74241952D01*
X126086952Y-74194333D01*
X126134571Y-74099095D01*
X126134571Y-74003857D01*
X126086952Y-73908619D01*
X126039333Y-73861000D01*
X125944095Y-73813380D01*
X125706000Y-73813380D01*
X125563142Y-73861000D01*
X123801238Y-74813380D02*
X124134571Y-74337190D01*
X124372666Y-74813380D02*
X124372666Y-73813380D01*
X123991714Y-73813380D01*
X123896476Y-73861000D01*
X123848857Y-73908619D01*
X123801238Y-74003857D01*
X123801238Y-74146714D01*
X123848857Y-74241952D01*
X123896476Y-74289571D01*
X123991714Y-74337190D01*
X124372666Y-74337190D01*
X123229809Y-74813380D02*
X123325047Y-74765761D01*
X123372666Y-74718142D01*
X123420285Y-74622904D01*
X123420285Y-74337190D01*
X123372666Y-74241952D01*
X123325047Y-74194333D01*
X123229809Y-74146714D01*
X123086952Y-74146714D01*
X122991714Y-74194333D01*
X122944095Y-74241952D01*
X122896476Y-74337190D01*
X122896476Y-74622904D01*
X122944095Y-74718142D01*
X122991714Y-74765761D01*
X123086952Y-74813380D01*
X123229809Y-74813380D01*
X122467904Y-74813380D02*
X122467904Y-73813380D01*
X122467904Y-74194333D02*
X122372666Y-74146714D01*
X122182190Y-74146714D01*
X122086952Y-74194333D01*
X122039333Y-74241952D01*
X121991714Y-74337190D01*
X121991714Y-74622904D01*
X122039333Y-74718142D01*
X122086952Y-74765761D01*
X122182190Y-74813380D01*
X122372666Y-74813380D01*
X122467904Y-74765761D01*
X121420285Y-74813380D02*
X121515523Y-74765761D01*
X121563142Y-74718142D01*
X121610761Y-74622904D01*
X121610761Y-74337190D01*
X121563142Y-74241952D01*
X121515523Y-74194333D01*
X121420285Y-74146714D01*
X121277428Y-74146714D01*
X121182190Y-74194333D01*
X121134571Y-74241952D01*
X121086952Y-74337190D01*
X121086952Y-74622904D01*
X121134571Y-74718142D01*
X121182190Y-74765761D01*
X121277428Y-74813380D01*
X121420285Y-74813380D01*
X120801238Y-74146714D02*
X120420285Y-74146714D01*
X120658380Y-73813380D02*
X120658380Y-74670523D01*
X120610761Y-74765761D01*
X120515523Y-74813380D01*
X120420285Y-74813380D01*
X120086952Y-74813380D02*
X120086952Y-74146714D01*
X120086952Y-73813380D02*
X120134571Y-73861000D01*
X120086952Y-73908619D01*
X120039333Y-73861000D01*
X120086952Y-73813380D01*
X120086952Y-73908619D01*
X119182190Y-74765761D02*
X119277428Y-74813380D01*
X119467904Y-74813380D01*
X119563142Y-74765761D01*
X119610761Y-74718142D01*
X119658380Y-74622904D01*
X119658380Y-74337190D01*
X119610761Y-74241952D01*
X119563142Y-74194333D01*
X119467904Y-74146714D01*
X119277428Y-74146714D01*
X119182190Y-74194333D01*
X118801238Y-74765761D02*
X118706000Y-74813380D01*
X118515523Y-74813380D01*
X118420285Y-74765761D01*
X118372666Y-74670523D01*
X118372666Y-74622904D01*
X118420285Y-74527666D01*
X118515523Y-74480047D01*
X118658380Y-74480047D01*
X118753619Y-74432428D01*
X118801238Y-74337190D01*
X118801238Y-74289571D01*
X118753619Y-74194333D01*
X118658380Y-74146714D01*
X118515523Y-74146714D01*
X118420285Y-74194333D01*
X117182190Y-74813380D02*
X117182190Y-73813380D01*
X116801238Y-73813380D01*
X116706000Y-73861000D01*
X116658380Y-73908619D01*
X116610761Y-74003857D01*
X116610761Y-74146714D01*
X116658380Y-74241952D01*
X116706000Y-74289571D01*
X116801238Y-74337190D01*
X117182190Y-74337190D01*
X116039333Y-74813380D02*
X116134571Y-74765761D01*
X116182190Y-74670523D01*
X116182190Y-73813380D01*
X115229809Y-74813380D02*
X115229809Y-74289571D01*
X115277428Y-74194333D01*
X115372666Y-74146714D01*
X115563142Y-74146714D01*
X115658380Y-74194333D01*
X115229809Y-74765761D02*
X115325047Y-74813380D01*
X115563142Y-74813380D01*
X115658380Y-74765761D01*
X115706000Y-74670523D01*
X115706000Y-74575285D01*
X115658380Y-74480047D01*
X115563142Y-74432428D01*
X115325047Y-74432428D01*
X115229809Y-74384809D01*
X114896476Y-74146714D02*
X114515523Y-74146714D01*
X114753619Y-73813380D02*
X114753619Y-74670523D01*
X114706000Y-74765761D01*
X114610761Y-74813380D01*
X114515523Y-74813380D01*
X114325047Y-74146714D02*
X113944095Y-74146714D01*
X114182190Y-74813380D02*
X114182190Y-73956238D01*
X114134571Y-73861000D01*
X114039333Y-73813380D01*
X113944095Y-73813380D01*
X113467904Y-74813380D02*
X113563142Y-74765761D01*
X113610761Y-74718142D01*
X113658380Y-74622904D01*
X113658380Y-74337190D01*
X113610761Y-74241952D01*
X113563142Y-74194333D01*
X113467904Y-74146714D01*
X113325047Y-74146714D01*
X113229809Y-74194333D01*
X113182190Y-74241952D01*
X113134571Y-74337190D01*
X113134571Y-74622904D01*
X113182190Y-74718142D01*
X113229809Y-74765761D01*
X113325047Y-74813380D01*
X113467904Y-74813380D01*
X112706000Y-74813380D02*
X112706000Y-74146714D01*
X112706000Y-74337190D02*
X112658380Y-74241952D01*
X112610761Y-74194333D01*
X112515523Y-74146714D01*
X112420285Y-74146714D01*
X112086952Y-74813380D02*
X112086952Y-74146714D01*
X112086952Y-74241952D02*
X112039333Y-74194333D01*
X111944095Y-74146714D01*
X111801238Y-74146714D01*
X111706000Y-74194333D01*
X111658380Y-74289571D01*
X111658380Y-74813380D01*
X111658380Y-74289571D02*
X111610761Y-74194333D01*
X111515523Y-74146714D01*
X111372666Y-74146714D01*
X111277428Y-74194333D01*
X111229809Y-74289571D01*
X111229809Y-74813380D01*
X133206000Y-76368142D02*
X133253619Y-76415761D01*
X133396476Y-76463380D01*
X133491714Y-76463380D01*
X133634571Y-76415761D01*
X133729809Y-76320523D01*
X133777428Y-76225285D01*
X133825047Y-76034809D01*
X133825047Y-75891952D01*
X133777428Y-75701476D01*
X133729809Y-75606238D01*
X133634571Y-75511000D01*
X133491714Y-75463380D01*
X133396476Y-75463380D01*
X133253619Y-75511000D01*
X133206000Y-75558619D01*
X132634571Y-76463380D02*
X132729809Y-76415761D01*
X132777428Y-76368142D01*
X132825047Y-76272904D01*
X132825047Y-75987190D01*
X132777428Y-75891952D01*
X132729809Y-75844333D01*
X132634571Y-75796714D01*
X132491714Y-75796714D01*
X132396476Y-75844333D01*
X132348857Y-75891952D01*
X132301238Y-75987190D01*
X132301238Y-76272904D01*
X132348857Y-76368142D01*
X132396476Y-76415761D01*
X132491714Y-76463380D01*
X132634571Y-76463380D01*
X131872666Y-75796714D02*
X131872666Y-76796714D01*
X131872666Y-75844333D02*
X131777428Y-75796714D01*
X131586952Y-75796714D01*
X131491714Y-75844333D01*
X131444095Y-75891952D01*
X131396476Y-75987190D01*
X131396476Y-76272904D01*
X131444095Y-76368142D01*
X131491714Y-76415761D01*
X131586952Y-76463380D01*
X131777428Y-76463380D01*
X131872666Y-76415761D01*
X131063142Y-75796714D02*
X130825047Y-76463380D01*
X130586952Y-75796714D02*
X130825047Y-76463380D01*
X130920285Y-76701476D01*
X130967904Y-76749095D01*
X131063142Y-76796714D01*
X130206000Y-76463380D02*
X130206000Y-75796714D01*
X130206000Y-75987190D02*
X130158380Y-75891952D01*
X130110761Y-75844333D01*
X130015523Y-75796714D01*
X129920285Y-75796714D01*
X129586952Y-76463380D02*
X129586952Y-75796714D01*
X129586952Y-75463380D02*
X129634571Y-75511000D01*
X129586952Y-75558619D01*
X129539333Y-75511000D01*
X129586952Y-75463380D01*
X129586952Y-75558619D01*
X128682190Y-75796714D02*
X128682190Y-76606238D01*
X128729809Y-76701476D01*
X128777428Y-76749095D01*
X128872666Y-76796714D01*
X129015523Y-76796714D01*
X129110761Y-76749095D01*
X128682190Y-76415761D02*
X128777428Y-76463380D01*
X128967904Y-76463380D01*
X129063142Y-76415761D01*
X129110761Y-76368142D01*
X129158380Y-76272904D01*
X129158380Y-75987190D01*
X129110761Y-75891952D01*
X129063142Y-75844333D01*
X128967904Y-75796714D01*
X128777428Y-75796714D01*
X128682190Y-75844333D01*
X128206000Y-76463380D02*
X128206000Y-75463380D01*
X127777428Y-76463380D02*
X127777428Y-75939571D01*
X127825047Y-75844333D01*
X127920285Y-75796714D01*
X128063142Y-75796714D01*
X128158380Y-75844333D01*
X128206000Y-75891952D01*
X127444095Y-75796714D02*
X127063142Y-75796714D01*
X127301238Y-75463380D02*
X127301238Y-76320523D01*
X127253619Y-76415761D01*
X127158380Y-76463380D01*
X127063142Y-76463380D01*
X125158380Y-75701476D02*
X125253619Y-75653857D01*
X125444095Y-75653857D01*
X125539333Y-75701476D01*
X125634571Y-75796714D01*
X125682190Y-75891952D01*
X125682190Y-76082428D01*
X125634571Y-76177666D01*
X125539333Y-76272904D01*
X125444095Y-76320523D01*
X125253619Y-76320523D01*
X125158380Y-76272904D01*
X125348857Y-75320523D02*
X125586952Y-75368142D01*
X125825047Y-75511000D01*
X125967904Y-75749095D01*
X126015523Y-75987190D01*
X125967904Y-76225285D01*
X125825047Y-76463380D01*
X125586952Y-76606238D01*
X125348857Y-76653857D01*
X125110761Y-76606238D01*
X124872666Y-76463380D01*
X124729809Y-76225285D01*
X124682190Y-75987190D01*
X124729809Y-75749095D01*
X124872666Y-75511000D01*
X125110761Y-75368142D01*
X125348857Y-75320523D01*
X123539333Y-75558619D02*
X123491714Y-75511000D01*
X123396476Y-75463380D01*
X123158380Y-75463380D01*
X123063142Y-75511000D01*
X123015523Y-75558619D01*
X122967904Y-75653857D01*
X122967904Y-75749095D01*
X123015523Y-75891952D01*
X123586952Y-76463380D01*
X122967904Y-76463380D01*
X122348857Y-75463380D02*
X122253619Y-75463380D01*
X122158380Y-75511000D01*
X122110761Y-75558619D01*
X122063142Y-75653857D01*
X122015523Y-75844333D01*
X122015523Y-76082428D01*
X122063142Y-76272904D01*
X122110761Y-76368142D01*
X122158380Y-76415761D01*
X122253619Y-76463380D01*
X122348857Y-76463380D01*
X122444095Y-76415761D01*
X122491714Y-76368142D01*
X122539333Y-76272904D01*
X122586952Y-76082428D01*
X122586952Y-75844333D01*
X122539333Y-75653857D01*
X122491714Y-75558619D01*
X122444095Y-75511000D01*
X122348857Y-75463380D01*
X121063142Y-76463380D02*
X121634571Y-76463380D01*
X121348857Y-76463380D02*
X121348857Y-75463380D01*
X121444095Y-75606238D01*
X121539333Y-75701476D01*
X121634571Y-75749095D01*
X120586952Y-76463380D02*
X120396476Y-76463380D01*
X120301238Y-76415761D01*
X120253619Y-76368142D01*
X120158380Y-76225285D01*
X120110761Y-76034809D01*
X120110761Y-75653857D01*
X120158380Y-75558619D01*
X120206000Y-75511000D01*
X120301238Y-75463380D01*
X120491714Y-75463380D01*
X120586952Y-75511000D01*
X120634571Y-75558619D01*
X120682190Y-75653857D01*
X120682190Y-75891952D01*
X120634571Y-75987190D01*
X120586952Y-76034809D01*
X120491714Y-76082428D01*
X120301238Y-76082428D01*
X120206000Y-76034809D01*
X120158380Y-75987190D01*
X120110761Y-75891952D01*
X119682190Y-76082428D02*
X118920285Y-76082428D01*
X118491714Y-75558619D02*
X118444095Y-75511000D01*
X118348857Y-75463380D01*
X118110761Y-75463380D01*
X118015523Y-75511000D01*
X117967904Y-75558619D01*
X117920285Y-75653857D01*
X117920285Y-75749095D01*
X117967904Y-75891952D01*
X118539333Y-76463380D01*
X117920285Y-76463380D01*
X117301238Y-75463380D02*
X117206000Y-75463380D01*
X117110761Y-75511000D01*
X117063142Y-75558619D01*
X117015523Y-75653857D01*
X116967904Y-75844333D01*
X116967904Y-76082428D01*
X117015523Y-76272904D01*
X117063142Y-76368142D01*
X117110761Y-76415761D01*
X117206000Y-76463380D01*
X117301238Y-76463380D01*
X117396476Y-76415761D01*
X117444095Y-76368142D01*
X117491714Y-76272904D01*
X117539333Y-76082428D01*
X117539333Y-75844333D01*
X117491714Y-75653857D01*
X117444095Y-75558619D01*
X117396476Y-75511000D01*
X117301238Y-75463380D01*
X116586952Y-75558619D02*
X116539333Y-75511000D01*
X116444095Y-75463380D01*
X116206000Y-75463380D01*
X116110761Y-75511000D01*
X116063142Y-75558619D01*
X116015523Y-75653857D01*
X116015523Y-75749095D01*
X116063142Y-75891952D01*
X116634571Y-76463380D01*
X116015523Y-76463380D01*
X115396476Y-75463380D02*
X115301238Y-75463380D01*
X115206000Y-75511000D01*
X115158380Y-75558619D01*
X115110761Y-75653857D01*
X115063142Y-75844333D01*
X115063142Y-76082428D01*
X115110761Y-76272904D01*
X115158380Y-76368142D01*
X115206000Y-76415761D01*
X115301238Y-76463380D01*
X115396476Y-76463380D01*
X115491714Y-76415761D01*
X115539333Y-76368142D01*
X115586952Y-76272904D01*
X115634571Y-76082428D01*
X115634571Y-75844333D01*
X115586952Y-75653857D01*
X115539333Y-75558619D01*
X115491714Y-75511000D01*
X115396476Y-75463380D01*
X114634571Y-76368142D02*
X114586952Y-76415761D01*
X114634571Y-76463380D01*
X114682190Y-76415761D01*
X114634571Y-76368142D01*
X114634571Y-76463380D01*
X114634571Y-75844333D02*
X114586952Y-75891952D01*
X114634571Y-75939571D01*
X114682190Y-75891952D01*
X114634571Y-75844333D01*
X114634571Y-75939571D01*
X132277428Y-78113380D02*
X132277428Y-77113380D01*
X132277428Y-77589571D02*
X131706000Y-77589571D01*
X131706000Y-78113380D02*
X131706000Y-77113380D01*
X131086952Y-78113380D02*
X131182190Y-78065761D01*
X131229809Y-78018142D01*
X131277428Y-77922904D01*
X131277428Y-77637190D01*
X131229809Y-77541952D01*
X131182190Y-77494333D01*
X131086952Y-77446714D01*
X130944095Y-77446714D01*
X130848857Y-77494333D01*
X130801238Y-77541952D01*
X130753619Y-77637190D01*
X130753619Y-77922904D01*
X130801238Y-78018142D01*
X130848857Y-78065761D01*
X130944095Y-78113380D01*
X131086952Y-78113380D01*
X130325047Y-78113380D02*
X130325047Y-77446714D01*
X130325047Y-77541952D02*
X130277428Y-77494333D01*
X130182190Y-77446714D01*
X130039333Y-77446714D01*
X129944095Y-77494333D01*
X129896476Y-77589571D01*
X129896476Y-78113380D01*
X129896476Y-77589571D02*
X129848857Y-77494333D01*
X129753619Y-77446714D01*
X129610761Y-77446714D01*
X129515523Y-77494333D01*
X129467904Y-77589571D01*
X129467904Y-78113380D01*
X128610761Y-78065761D02*
X128706000Y-78113380D01*
X128896476Y-78113380D01*
X128991714Y-78065761D01*
X129039333Y-77970523D01*
X129039333Y-77589571D01*
X128991714Y-77494333D01*
X128896476Y-77446714D01*
X128706000Y-77446714D01*
X128610761Y-77494333D01*
X128563142Y-77589571D01*
X128563142Y-77684809D01*
X129039333Y-77780047D01*
X127801238Y-77589571D02*
X127658380Y-77637190D01*
X127610761Y-77684809D01*
X127563142Y-77780047D01*
X127563142Y-77922904D01*
X127610761Y-78018142D01*
X127658380Y-78065761D01*
X127753619Y-78113380D01*
X128134571Y-78113380D01*
X128134571Y-77113380D01*
X127801238Y-77113380D01*
X127706000Y-77161000D01*
X127658380Y-77208619D01*
X127610761Y-77303857D01*
X127610761Y-77399095D01*
X127658380Y-77494333D01*
X127706000Y-77541952D01*
X127801238Y-77589571D01*
X128134571Y-77589571D01*
X127134571Y-78113380D02*
X127134571Y-77446714D01*
X127134571Y-77637190D02*
X127086952Y-77541952D01*
X127039333Y-77494333D01*
X126944095Y-77446714D01*
X126848857Y-77446714D01*
X126134571Y-78065761D02*
X126229809Y-78113380D01*
X126420285Y-78113380D01*
X126515523Y-78065761D01*
X126563142Y-77970523D01*
X126563142Y-77589571D01*
X126515523Y-77494333D01*
X126420285Y-77446714D01*
X126229809Y-77446714D01*
X126134571Y-77494333D01*
X126086952Y-77589571D01*
X126086952Y-77684809D01*
X126563142Y-77780047D01*
X125753619Y-77446714D02*
X125563142Y-78113380D01*
X125372666Y-77637190D01*
X125182190Y-78113380D01*
X124991714Y-77446714D01*
X123277428Y-78113380D02*
X123610761Y-77637190D01*
X123848857Y-78113380D02*
X123848857Y-77113380D01*
X123467904Y-77113380D01*
X123372666Y-77161000D01*
X123325047Y-77208619D01*
X123277428Y-77303857D01*
X123277428Y-77446714D01*
X123325047Y-77541952D01*
X123372666Y-77589571D01*
X123467904Y-77637190D01*
X123848857Y-77637190D01*
X122706000Y-78113380D02*
X122801238Y-78065761D01*
X122848857Y-78018142D01*
X122896476Y-77922904D01*
X122896476Y-77637190D01*
X122848857Y-77541952D01*
X122801238Y-77494333D01*
X122706000Y-77446714D01*
X122563142Y-77446714D01*
X122467904Y-77494333D01*
X122420285Y-77541952D01*
X122372666Y-77637190D01*
X122372666Y-77922904D01*
X122420285Y-78018142D01*
X122467904Y-78065761D01*
X122563142Y-78113380D01*
X122706000Y-78113380D01*
X121944095Y-78113380D02*
X121944095Y-77113380D01*
X121944095Y-77494333D02*
X121848857Y-77446714D01*
X121658380Y-77446714D01*
X121563142Y-77494333D01*
X121515523Y-77541952D01*
X121467904Y-77637190D01*
X121467904Y-77922904D01*
X121515523Y-78018142D01*
X121563142Y-78065761D01*
X121658380Y-78113380D01*
X121848857Y-78113380D01*
X121944095Y-78065761D01*
X120896476Y-78113380D02*
X120991714Y-78065761D01*
X121039333Y-78018142D01*
X121086952Y-77922904D01*
X121086952Y-77637190D01*
X121039333Y-77541952D01*
X120991714Y-77494333D01*
X120896476Y-77446714D01*
X120753619Y-77446714D01*
X120658380Y-77494333D01*
X120610761Y-77541952D01*
X120563142Y-77637190D01*
X120563142Y-77922904D01*
X120610761Y-78018142D01*
X120658380Y-78065761D01*
X120753619Y-78113380D01*
X120896476Y-78113380D01*
X120277428Y-77446714D02*
X119896476Y-77446714D01*
X120134571Y-77113380D02*
X120134571Y-77970523D01*
X120086952Y-78065761D01*
X119991714Y-78113380D01*
X119896476Y-78113380D01*
X119563142Y-78113380D02*
X119563142Y-77446714D01*
X119563142Y-77113380D02*
X119610761Y-77161000D01*
X119563142Y-77208619D01*
X119515523Y-77161000D01*
X119563142Y-77113380D01*
X119563142Y-77208619D01*
X118658380Y-78065761D02*
X118753619Y-78113380D01*
X118944095Y-78113380D01*
X119039333Y-78065761D01*
X119086952Y-78018142D01*
X119134571Y-77922904D01*
X119134571Y-77637190D01*
X119086952Y-77541952D01*
X119039333Y-77494333D01*
X118944095Y-77446714D01*
X118753619Y-77446714D01*
X118658380Y-77494333D01*
X116896476Y-78018142D02*
X116944095Y-78065761D01*
X117086952Y-78113380D01*
X117182190Y-78113380D01*
X117325047Y-78065761D01*
X117420285Y-77970523D01*
X117467904Y-77875285D01*
X117515523Y-77684809D01*
X117515523Y-77541952D01*
X117467904Y-77351476D01*
X117420285Y-77256238D01*
X117325047Y-77161000D01*
X117182190Y-77113380D01*
X117086952Y-77113380D01*
X116944095Y-77161000D01*
X116896476Y-77208619D01*
X116325047Y-78113380D02*
X116420285Y-78065761D01*
X116467904Y-77970523D01*
X116467904Y-77113380D01*
X115515523Y-77446714D02*
X115515523Y-78113380D01*
X115944095Y-77446714D02*
X115944095Y-77970523D01*
X115896476Y-78065761D01*
X115801238Y-78113380D01*
X115658380Y-78113380D01*
X115563142Y-78065761D01*
X115515523Y-78018142D01*
X115039333Y-78113380D02*
X115039333Y-77113380D01*
X115039333Y-77494333D02*
X114944095Y-77446714D01*
X114753619Y-77446714D01*
X114658380Y-77494333D01*
X114610761Y-77541952D01*
X114563142Y-77637190D01*
X114563142Y-77922904D01*
X114610761Y-78018142D01*
X114658380Y-78065761D01*
X114753619Y-78113380D01*
X114944095Y-78113380D01*
X115039333Y-78065761D01*
X128086952Y-79763380D02*
X128563142Y-79763380D01*
X128563142Y-78763380D01*
X127753619Y-79763380D02*
X127753619Y-79096714D01*
X127753619Y-78763380D02*
X127801238Y-78811000D01*
X127753619Y-78858619D01*
X127706000Y-78811000D01*
X127753619Y-78763380D01*
X127753619Y-78858619D01*
X126848857Y-79715761D02*
X126944095Y-79763380D01*
X127134571Y-79763380D01*
X127229809Y-79715761D01*
X127277428Y-79668142D01*
X127325047Y-79572904D01*
X127325047Y-79287190D01*
X127277428Y-79191952D01*
X127229809Y-79144333D01*
X127134571Y-79096714D01*
X126944095Y-79096714D01*
X126848857Y-79144333D01*
X126039333Y-79715761D02*
X126134571Y-79763380D01*
X126325047Y-79763380D01*
X126420285Y-79715761D01*
X126467904Y-79620523D01*
X126467904Y-79239571D01*
X126420285Y-79144333D01*
X126325047Y-79096714D01*
X126134571Y-79096714D01*
X126039333Y-79144333D01*
X125991714Y-79239571D01*
X125991714Y-79334809D01*
X126467904Y-79430047D01*
X125563142Y-79096714D02*
X125563142Y-79763380D01*
X125563142Y-79191952D02*
X125515523Y-79144333D01*
X125420285Y-79096714D01*
X125277428Y-79096714D01*
X125182190Y-79144333D01*
X125134571Y-79239571D01*
X125134571Y-79763380D01*
X124706000Y-79715761D02*
X124610761Y-79763380D01*
X124420285Y-79763380D01*
X124325047Y-79715761D01*
X124277428Y-79620523D01*
X124277428Y-79572904D01*
X124325047Y-79477666D01*
X124420285Y-79430047D01*
X124563142Y-79430047D01*
X124658380Y-79382428D01*
X124706000Y-79287190D01*
X124706000Y-79239571D01*
X124658380Y-79144333D01*
X124563142Y-79096714D01*
X124420285Y-79096714D01*
X124325047Y-79144333D01*
X123467904Y-79715761D02*
X123563142Y-79763380D01*
X123753619Y-79763380D01*
X123848857Y-79715761D01*
X123896476Y-79620523D01*
X123896476Y-79239571D01*
X123848857Y-79144333D01*
X123753619Y-79096714D01*
X123563142Y-79096714D01*
X123467904Y-79144333D01*
X123420285Y-79239571D01*
X123420285Y-79334809D01*
X123896476Y-79430047D01*
X122991714Y-79668142D02*
X122944095Y-79715761D01*
X122991714Y-79763380D01*
X123039333Y-79715761D01*
X122991714Y-79668142D01*
X122991714Y-79763380D01*
X122991714Y-79144333D02*
X122944095Y-79191952D01*
X122991714Y-79239571D01*
X123039333Y-79191952D01*
X122991714Y-79144333D01*
X122991714Y-79239571D01*
X121753619Y-79763380D02*
X121753619Y-78763380D01*
X121420285Y-79477666D01*
X121086952Y-78763380D01*
X121086952Y-79763380D01*
X120610761Y-79763380D02*
X120610761Y-78763380D01*
X120277428Y-78763380D02*
X119706000Y-78763380D01*
X119991714Y-79763380D02*
X119991714Y-78763380D01*
X127539333Y-81413380D02*
X127872666Y-80937190D01*
X128110761Y-81413380D02*
X128110761Y-80413380D01*
X127729809Y-80413380D01*
X127634571Y-80461000D01*
X127586952Y-80508619D01*
X127539333Y-80603857D01*
X127539333Y-80746714D01*
X127586952Y-80841952D01*
X127634571Y-80889571D01*
X127729809Y-80937190D01*
X128110761Y-80937190D01*
X126729809Y-81365761D02*
X126825047Y-81413380D01*
X127015523Y-81413380D01*
X127110761Y-81365761D01*
X127158380Y-81270523D01*
X127158380Y-80889571D01*
X127110761Y-80794333D01*
X127015523Y-80746714D01*
X126825047Y-80746714D01*
X126729809Y-80794333D01*
X126682190Y-80889571D01*
X126682190Y-80984809D01*
X127158380Y-81080047D01*
X126348857Y-80746714D02*
X126110761Y-81413380D01*
X125872666Y-80746714D01*
X125491714Y-81413380D02*
X125491714Y-80746714D01*
X125491714Y-80413380D02*
X125539333Y-80461000D01*
X125491714Y-80508619D01*
X125444095Y-80461000D01*
X125491714Y-80413380D01*
X125491714Y-80508619D01*
X125063142Y-81365761D02*
X124967904Y-81413380D01*
X124777428Y-81413380D01*
X124682190Y-81365761D01*
X124634571Y-81270523D01*
X124634571Y-81222904D01*
X124682190Y-81127666D01*
X124777428Y-81080047D01*
X124920285Y-81080047D01*
X125015523Y-81032428D01*
X125063142Y-80937190D01*
X125063142Y-80889571D01*
X125015523Y-80794333D01*
X124920285Y-80746714D01*
X124777428Y-80746714D01*
X124682190Y-80794333D01*
X124206000Y-81413380D02*
X124206000Y-80746714D01*
X124206000Y-80413380D02*
X124253619Y-80461000D01*
X124206000Y-80508619D01*
X124158380Y-80461000D01*
X124206000Y-80413380D01*
X124206000Y-80508619D01*
X123586952Y-81413380D02*
X123682190Y-81365761D01*
X123729809Y-81318142D01*
X123777428Y-81222904D01*
X123777428Y-80937190D01*
X123729809Y-80841952D01*
X123682190Y-80794333D01*
X123586952Y-80746714D01*
X123444095Y-80746714D01*
X123348857Y-80794333D01*
X123301238Y-80841952D01*
X123253619Y-80937190D01*
X123253619Y-81222904D01*
X123301238Y-81318142D01*
X123348857Y-81365761D01*
X123444095Y-81413380D01*
X123586952Y-81413380D01*
X122825047Y-80746714D02*
X122825047Y-81413380D01*
X122825047Y-80841952D02*
X122777428Y-80794333D01*
X122682190Y-80746714D01*
X122539333Y-80746714D01*
X122444095Y-80794333D01*
X122396476Y-80889571D01*
X122396476Y-81413380D01*
X121920285Y-81318142D02*
X121872666Y-81365761D01*
X121920285Y-81413380D01*
X121967904Y-81365761D01*
X121920285Y-81318142D01*
X121920285Y-81413380D01*
X121920285Y-80794333D02*
X121872666Y-80841952D01*
X121920285Y-80889571D01*
X121967904Y-80841952D01*
X121920285Y-80794333D01*
X121920285Y-80889571D01*
X120729809Y-81127666D02*
X120253619Y-81127666D01*
X120825047Y-81413380D02*
X120491714Y-80413380D01*
X120158380Y-81413380D01*
X130467904Y-83063380D02*
X130467904Y-82063380D01*
X130229809Y-82063380D01*
X130086952Y-82111000D01*
X129991714Y-82206238D01*
X129944095Y-82301476D01*
X129896476Y-82491952D01*
X129896476Y-82634809D01*
X129944095Y-82825285D01*
X129991714Y-82920523D01*
X130086952Y-83015761D01*
X130229809Y-83063380D01*
X130467904Y-83063380D01*
X129039333Y-83063380D02*
X129039333Y-82539571D01*
X129086952Y-82444333D01*
X129182190Y-82396714D01*
X129372666Y-82396714D01*
X129467904Y-82444333D01*
X129039333Y-83015761D02*
X129134571Y-83063380D01*
X129372666Y-83063380D01*
X129467904Y-83015761D01*
X129515523Y-82920523D01*
X129515523Y-82825285D01*
X129467904Y-82730047D01*
X129372666Y-82682428D01*
X129134571Y-82682428D01*
X129039333Y-82634809D01*
X128706000Y-82396714D02*
X128325047Y-82396714D01*
X128563142Y-82063380D02*
X128563142Y-82920523D01*
X128515523Y-83015761D01*
X128420285Y-83063380D01*
X128325047Y-83063380D01*
X127610761Y-83015761D02*
X127706000Y-83063380D01*
X127896476Y-83063380D01*
X127991714Y-83015761D01*
X128039333Y-82920523D01*
X128039333Y-82539571D01*
X127991714Y-82444333D01*
X127896476Y-82396714D01*
X127706000Y-82396714D01*
X127610761Y-82444333D01*
X127563142Y-82539571D01*
X127563142Y-82634809D01*
X128039333Y-82730047D01*
X127134571Y-82968142D02*
X127086952Y-83015761D01*
X127134571Y-83063380D01*
X127182190Y-83015761D01*
X127134571Y-82968142D01*
X127134571Y-83063380D01*
X127134571Y-82444333D02*
X127086952Y-82491952D01*
X127134571Y-82539571D01*
X127182190Y-82491952D01*
X127134571Y-82444333D01*
X127134571Y-82539571D01*
X125944095Y-82158619D02*
X125896476Y-82111000D01*
X125801238Y-82063380D01*
X125563142Y-82063380D01*
X125467904Y-82111000D01*
X125420285Y-82158619D01*
X125372666Y-82253857D01*
X125372666Y-82349095D01*
X125420285Y-82491952D01*
X125991714Y-83063380D01*
X125372666Y-83063380D01*
X124515523Y-82063380D02*
X124706000Y-82063380D01*
X124801238Y-82111000D01*
X124848857Y-82158619D01*
X124944095Y-82301476D01*
X124991714Y-82491952D01*
X124991714Y-82872904D01*
X124944095Y-82968142D01*
X124896476Y-83015761D01*
X124801238Y-83063380D01*
X124610761Y-83063380D01*
X124515523Y-83015761D01*
X124467904Y-82968142D01*
X124420285Y-82872904D01*
X124420285Y-82634809D01*
X124467904Y-82539571D01*
X124515523Y-82491952D01*
X124610761Y-82444333D01*
X124801238Y-82444333D01*
X124896476Y-82491952D01*
X124944095Y-82539571D01*
X124991714Y-82634809D01*
X123991714Y-83063380D02*
X123991714Y-82063380D01*
X123753619Y-82063380D01*
X123610761Y-82111000D01*
X123515523Y-82206238D01*
X123467904Y-82301476D01*
X123420285Y-82491952D01*
X123420285Y-82634809D01*
X123467904Y-82825285D01*
X123515523Y-82920523D01*
X123610761Y-83015761D01*
X123753619Y-83063380D01*
X123991714Y-83063380D01*
X122610761Y-83015761D02*
X122706000Y-83063380D01*
X122896476Y-83063380D01*
X122991714Y-83015761D01*
X123039333Y-82920523D01*
X123039333Y-82539571D01*
X122991714Y-82444333D01*
X122896476Y-82396714D01*
X122706000Y-82396714D01*
X122610761Y-82444333D01*
X122563142Y-82539571D01*
X122563142Y-82634809D01*
X123039333Y-82730047D01*
X121706000Y-83015761D02*
X121801238Y-83063380D01*
X121991714Y-83063380D01*
X122086952Y-83015761D01*
X122134571Y-82968142D01*
X122182190Y-82872904D01*
X122182190Y-82587190D01*
X122134571Y-82491952D01*
X122086952Y-82444333D01*
X121991714Y-82396714D01*
X121801238Y-82396714D01*
X121706000Y-82444333D01*
X121325047Y-82158619D02*
X121277428Y-82111000D01*
X121182190Y-82063380D01*
X120944095Y-82063380D01*
X120848857Y-82111000D01*
X120801238Y-82158619D01*
X120753619Y-82253857D01*
X120753619Y-82349095D01*
X120801238Y-82491952D01*
X121372666Y-83063380D01*
X120753619Y-83063380D01*
X120134571Y-82063380D02*
X120039333Y-82063380D01*
X119944095Y-82111000D01*
X119896476Y-82158619D01*
X119848857Y-82253857D01*
X119801238Y-82444333D01*
X119801238Y-82682428D01*
X119848857Y-82872904D01*
X119896476Y-82968142D01*
X119944095Y-83015761D01*
X120039333Y-83063380D01*
X120134571Y-83063380D01*
X120229809Y-83015761D01*
X120277428Y-82968142D01*
X120325047Y-82872904D01*
X120372666Y-82682428D01*
X120372666Y-82444333D01*
X120325047Y-82253857D01*
X120277428Y-82158619D01*
X120229809Y-82111000D01*
X120134571Y-82063380D01*
X119420285Y-82158619D02*
X119372666Y-82111000D01*
X119277428Y-82063380D01*
X119039333Y-82063380D01*
X118944095Y-82111000D01*
X118896476Y-82158619D01*
X118848857Y-82253857D01*
X118848857Y-82349095D01*
X118896476Y-82491952D01*
X119467904Y-83063380D01*
X118848857Y-83063380D01*
X118229809Y-82063380D02*
X118134571Y-82063380D01*
X118039333Y-82111000D01*
X117991714Y-82158619D01*
X117944095Y-82253857D01*
X117896476Y-82444333D01*
X117896476Y-82682428D01*
X117944095Y-82872904D01*
X117991714Y-82968142D01*
X118039333Y-83015761D01*
X118134571Y-83063380D01*
X118229809Y-83063380D01*
X118325047Y-83015761D01*
X118372666Y-82968142D01*
X118420285Y-82872904D01*
X118467904Y-82682428D01*
X118467904Y-82444333D01*
X118420285Y-82253857D01*
X118372666Y-82158619D01*
X118325047Y-82111000D01*
X118229809Y-82063380D01*
D11*
X99091714Y-150931619D02*
X99044095Y-150884000D01*
X98948857Y-150836380D01*
X98710761Y-150836380D01*
X98615523Y-150884000D01*
X98567904Y-150931619D01*
X98520285Y-151026857D01*
X98520285Y-151122095D01*
X98567904Y-151264952D01*
X99139333Y-151836380D01*
X98520285Y-151836380D01*
D12*
X99202952Y-154066761D02*
X99869619Y-153114380D01*
X100345809Y-154066761D02*
X100345809Y-152066761D01*
X99583904Y-152066761D01*
X99393428Y-152162000D01*
X99298190Y-152257238D01*
X99202952Y-152447714D01*
X99202952Y-152733428D01*
X99298190Y-152923904D01*
X99393428Y-153019142D01*
X99583904Y-153114380D01*
X100345809Y-153114380D01*
X101409428Y-153050761D02*
X101409428Y-151050761D01*
X101409428Y-152003142D02*
X100266571Y-152003142D01*
X100266571Y-153050761D02*
X100266571Y-151050761D01*
D10*
X100240174Y-142602145D02*
X100668745Y-142602145D01*
X100454460Y-142602145D02*
X100454460Y-141852145D01*
X100525888Y-141959288D01*
X100597317Y-142030717D01*
X100668745Y-142066431D01*
X78980374Y-152691025D02*
X79408945Y-152691025D01*
X79194660Y-152691025D02*
X79194660Y-151941025D01*
X79266088Y-152048168D01*
X79337517Y-152119597D01*
X79408945Y-152155311D01*
X78650174Y-124837385D02*
X79078745Y-124837385D01*
X78864460Y-124837385D02*
X78864460Y-124087385D01*
X78935888Y-124194528D01*
X79007317Y-124265957D01*
X79078745Y-124301671D01*
X152030774Y-116711925D02*
X152459345Y-116711925D01*
X152245060Y-116711925D02*
X152245060Y-115961925D01*
X152316488Y-116069068D01*
X152387917Y-116140497D01*
X152459345Y-116176211D01*
X152406694Y-121410925D02*
X152835265Y-121410925D01*
X152620980Y-121410925D02*
X152620980Y-120660925D01*
X152692408Y-120768068D01*
X152763837Y-120839497D01*
X152835265Y-120875211D01*
X161144294Y-137351965D02*
X161572865Y-137351965D01*
X161358580Y-137351965D02*
X161358580Y-136601965D01*
X161430008Y-136709108D01*
X161501437Y-136780537D01*
X161572865Y-136816251D01*
X139894654Y-158647325D02*
X140323225Y-158647325D01*
X140108940Y-158647325D02*
X140108940Y-157897325D01*
X140180368Y-158004468D01*
X140251797Y-158075897D01*
X140323225Y-158111611D01*
X143918014Y-159879225D02*
X144346585Y-159879225D01*
X144132300Y-159879225D02*
X144132300Y-159129225D01*
X144203728Y-159236368D01*
X144275157Y-159307797D01*
X144346585Y-159343511D01*
X151499914Y-159137545D02*
X151928485Y-159137545D01*
X151714200Y-159137545D02*
X151714200Y-158387545D01*
X151785628Y-158494688D01*
X151857057Y-158566117D01*
X151928485Y-158601831D01*
X131284054Y-149785265D02*
X131712625Y-149785265D01*
X131498340Y-149785265D02*
X131498340Y-149035265D01*
X131569768Y-149142408D01*
X131641197Y-149213837D01*
X131712625Y-149249551D01*
X150146094Y-141758865D02*
X150574665Y-141758865D01*
X150360380Y-141758865D02*
X150360380Y-141008865D01*
X150431808Y-141116008D01*
X150503237Y-141187437D01*
X150574665Y-141223151D01*
X157169194Y-141121325D02*
X157597765Y-141121325D01*
X157383480Y-141121325D02*
X157383480Y-140371325D01*
X157454908Y-140478468D01*
X157526337Y-140549897D01*
X157597765Y-140585611D01*
X68707142Y-83889285D02*
X68850000Y-83889285D01*
X68921428Y-83853571D01*
X68957142Y-83817857D01*
X69028571Y-83710714D01*
X69064285Y-83567857D01*
X69064285Y-83282142D01*
X69028571Y-83210714D01*
X68992857Y-83175000D01*
X68921428Y-83139285D01*
X68778571Y-83139285D01*
X68707142Y-83175000D01*
X68671428Y-83210714D01*
X68635714Y-83282142D01*
X68635714Y-83460714D01*
X68671428Y-83532142D01*
X68707142Y-83567857D01*
X68778571Y-83603571D01*
X68921428Y-83603571D01*
X68992857Y-83567857D01*
X69028571Y-83532142D01*
X69064285Y-83460714D01*
D13*
X160334000Y-114240000D02*
X160334000Y-116900000D01*
X155194000Y-114240000D02*
X160334000Y-114240000D01*
X155194000Y-116900000D02*
X160334000Y-116900000D01*
X155194000Y-114240000D02*
X155194000Y-116900000D01*
X153924000Y-114240000D02*
X152594000Y-114240000D01*
X152594000Y-114240000D02*
X152594000Y-115570000D01*
X158182000Y-128972000D02*
X160842000Y-128972000D01*
X158182000Y-134112000D02*
X158182000Y-128972000D01*
X160842000Y-134112000D02*
X160842000Y-128972000D01*
X158182000Y-134112000D02*
X160842000Y-134112000D01*
X158182000Y-135382000D02*
X158182000Y-136712000D01*
X158182000Y-136712000D02*
X159512000Y-136712000D01*
X160334000Y-118050000D02*
X160334000Y-120710000D01*
X155194000Y-118050000D02*
X160334000Y-118050000D01*
X155194000Y-120710000D02*
X160334000Y-120710000D01*
X155194000Y-118050000D02*
X155194000Y-120710000D01*
X153924000Y-118050000D02*
X152594000Y-118050000D01*
X152594000Y-118050000D02*
X152594000Y-119380000D01*
X144700000Y-151324000D02*
X147360000Y-151324000D01*
X144700000Y-156464000D02*
X144700000Y-151324000D01*
X147360000Y-156464000D02*
X147360000Y-151324000D01*
X144700000Y-156464000D02*
X147360000Y-156464000D01*
X144700000Y-157734000D02*
X144700000Y-159064000D01*
X144700000Y-159064000D02*
X146030000Y-159064000D01*
X150562000Y-134560000D02*
X153222000Y-134560000D01*
X150562000Y-139700000D02*
X150562000Y-134560000D01*
X153222000Y-139700000D02*
X153222000Y-134560000D01*
X150562000Y-139700000D02*
X153222000Y-139700000D01*
X150562000Y-140970000D02*
X150562000Y-142300000D01*
X150562000Y-142300000D02*
X151892000Y-142300000D01*
D11*
X72960000Y-74600000D02*
X72960000Y-125400000D01*
X72960000Y-125400000D02*
X78040000Y-125400000D01*
X78040000Y-125400000D02*
X78040000Y-74600000D01*
X78040000Y-74600000D02*
X72960000Y-74600000D01*
X78680000Y-125300000D02*
X78600000Y-125330000D01*
X78600000Y-125330000D02*
X78570000Y-125400000D01*
X78570000Y-125400000D02*
X78600000Y-125470000D01*
X78600000Y-125470000D02*
X78680000Y-125500000D01*
X78680000Y-125500000D02*
X78750000Y-125470000D01*
X78750000Y-125470000D02*
X78770000Y-125400000D01*
X78770000Y-125400000D02*
X78750000Y-125330000D01*
X78750000Y-125330000D02*
X78680000Y-125300000D01*
X120000000Y-147500000D02*
X80000000Y-147500000D01*
X80000000Y-147500000D02*
X80000000Y-149100000D01*
X80000000Y-149100000D02*
X120000000Y-149100000D01*
X120000000Y-149100000D02*
X120000000Y-147500000D01*
X150000000Y-137000000D02*
X80000000Y-137000000D01*
X80000000Y-137000000D02*
X80000000Y-138600000D01*
X80000000Y-138600000D02*
X150000000Y-138600000D01*
X150000000Y-138600000D02*
X150000000Y-137000000D01*
X111710000Y-142420000D02*
X101540000Y-142420000D01*
X101540000Y-142420000D02*
X101540000Y-147500000D01*
X101540000Y-147500000D02*
X111710000Y-147500000D01*
X111710000Y-147500000D02*
X111710000Y-142420000D01*
X101640000Y-141790000D02*
X101620000Y-141710000D01*
X101620000Y-141710000D02*
X101540000Y-141690000D01*
X101540000Y-141690000D02*
X101470000Y-141710000D01*
X101470000Y-141710000D02*
X101450000Y-141790000D01*
X101450000Y-141790000D02*
X101470000Y-141860000D01*
X101470000Y-141860000D02*
X101540000Y-141880000D01*
X101540000Y-141880000D02*
X101620000Y-141860000D01*
X101620000Y-141860000D02*
X101640000Y-141790000D01*
X133800000Y-114250000D02*
X133660000Y-114260000D01*
X133660000Y-114260000D02*
X133530000Y-114300000D01*
X133530000Y-114300000D02*
X133400000Y-114360000D01*
X133400000Y-114360000D02*
X133290000Y-114440000D01*
X133290000Y-114440000D02*
X133190000Y-114540000D01*
X133190000Y-114540000D02*
X133110000Y-114650000D01*
X133110000Y-114650000D02*
X133050000Y-114780000D01*
X133050000Y-114780000D02*
X133010000Y-114910000D01*
X133010000Y-114910000D02*
X133000000Y-115050000D01*
X133000000Y-115050000D02*
X133000000Y-122250000D01*
X133000000Y-122250000D02*
X132650000Y-122280000D01*
X132650000Y-122280000D02*
X132320000Y-122370000D01*
X132320000Y-122370000D02*
X132000000Y-122520000D01*
X132000000Y-122520000D02*
X131710000Y-122720000D01*
X131710000Y-122720000D02*
X131470000Y-122960000D01*
X131470000Y-122960000D02*
X131270000Y-123250000D01*
X131270000Y-123250000D02*
X131120000Y-123570000D01*
X131120000Y-123570000D02*
X131030000Y-123900000D01*
X131030000Y-123900000D02*
X131000000Y-124250000D01*
X131000000Y-124250000D02*
X131030000Y-124600000D01*
X131030000Y-124600000D02*
X131120000Y-124930000D01*
X131120000Y-124930000D02*
X131270000Y-125250000D01*
X131270000Y-125250000D02*
X131470000Y-125540000D01*
X131470000Y-125540000D02*
X131710000Y-125780000D01*
X131710000Y-125780000D02*
X132000000Y-125980000D01*
X132000000Y-125980000D02*
X132320000Y-126130000D01*
X132320000Y-126130000D02*
X132650000Y-126220000D01*
X132650000Y-126220000D02*
X133000000Y-126250000D01*
X133000000Y-126250000D02*
X133000000Y-133450000D01*
X133000000Y-133450000D02*
X133010000Y-133590000D01*
X133010000Y-133590000D02*
X133050000Y-133720000D01*
X133050000Y-133720000D02*
X133110000Y-133850000D01*
X133110000Y-133850000D02*
X133190000Y-133960000D01*
X133190000Y-133960000D02*
X133290000Y-134060000D01*
X133290000Y-134060000D02*
X133400000Y-134140000D01*
X133400000Y-134140000D02*
X133530000Y-134200000D01*
X133530000Y-134200000D02*
X133660000Y-134240000D01*
X133660000Y-134240000D02*
X133800000Y-134250000D01*
X133800000Y-134250000D02*
X141000000Y-134250000D01*
X141000000Y-134250000D02*
X141030000Y-133900000D01*
X141030000Y-133900000D02*
X141120000Y-133570000D01*
X141120000Y-133570000D02*
X141270000Y-133250000D01*
X141270000Y-133250000D02*
X141470000Y-132960000D01*
X141470000Y-132960000D02*
X141710000Y-132720000D01*
X141710000Y-132720000D02*
X142000000Y-132520000D01*
X142000000Y-132520000D02*
X142320000Y-132370000D01*
X142320000Y-132370000D02*
X142650000Y-132280000D01*
X142650000Y-132280000D02*
X143000000Y-132250000D01*
X143000000Y-132250000D02*
X143350000Y-132280000D01*
X143350000Y-132280000D02*
X143680000Y-132370000D01*
X143680000Y-132370000D02*
X144000000Y-132520000D01*
X144000000Y-132520000D02*
X144290000Y-132720000D01*
X144290000Y-132720000D02*
X144530000Y-132960000D01*
X144530000Y-132960000D02*
X144730000Y-133250000D01*
X144730000Y-133250000D02*
X144880000Y-133570000D01*
X144880000Y-133570000D02*
X144970000Y-133900000D01*
X144970000Y-133900000D02*
X145000000Y-134250000D01*
X145000000Y-134250000D02*
X152200000Y-134250000D01*
X152200000Y-134250000D02*
X152340000Y-134240000D01*
X152340000Y-134240000D02*
X152470000Y-134200000D01*
X152470000Y-134200000D02*
X152600000Y-134140000D01*
X152600000Y-134140000D02*
X152710000Y-134060000D01*
X152710000Y-134060000D02*
X152810000Y-133960000D01*
X152810000Y-133960000D02*
X152890000Y-133850000D01*
X152890000Y-133850000D02*
X152950000Y-133720000D01*
X152950000Y-133720000D02*
X152990000Y-133590000D01*
X152990000Y-133590000D02*
X153000000Y-133450000D01*
X153000000Y-133450000D02*
X153000000Y-126250000D01*
X153000000Y-126250000D02*
X153350000Y-126220000D01*
X153350000Y-126220000D02*
X153680000Y-126130000D01*
X153680000Y-126130000D02*
X154000000Y-125980000D01*
X154000000Y-125980000D02*
X154290000Y-125780000D01*
X154290000Y-125780000D02*
X154530000Y-125540000D01*
X154530000Y-125540000D02*
X154730000Y-125250000D01*
X154730000Y-125250000D02*
X154880000Y-124930000D01*
X154880000Y-124930000D02*
X154970000Y-124600000D01*
X154970000Y-124600000D02*
X155000000Y-124250000D01*
X155000000Y-124250000D02*
X154970000Y-123900000D01*
X154970000Y-123900000D02*
X154880000Y-123570000D01*
X154880000Y-123570000D02*
X154730000Y-123250000D01*
X154730000Y-123250000D02*
X154530000Y-122960000D01*
X154530000Y-122960000D02*
X154290000Y-122720000D01*
X154290000Y-122720000D02*
X154000000Y-122520000D01*
X154000000Y-122520000D02*
X153680000Y-122370000D01*
X153680000Y-122370000D02*
X153350000Y-122280000D01*
X153350000Y-122280000D02*
X153000000Y-122250000D01*
X153000000Y-122250000D02*
X153000000Y-115050000D01*
X153000000Y-115050000D02*
X152990000Y-114910000D01*
X152990000Y-114910000D02*
X152950000Y-114780000D01*
X152950000Y-114780000D02*
X152890000Y-114650000D01*
X152890000Y-114650000D02*
X152810000Y-114540000D01*
X152810000Y-114540000D02*
X152710000Y-114440000D01*
X152710000Y-114440000D02*
X152600000Y-114360000D01*
X152600000Y-114360000D02*
X152470000Y-114300000D01*
X152470000Y-114300000D02*
X152340000Y-114260000D01*
X152340000Y-114260000D02*
X152200000Y-114250000D01*
X152200000Y-114250000D02*
X145000000Y-114250000D01*
X145000000Y-114250000D02*
X144970000Y-114600000D01*
X144970000Y-114600000D02*
X144880000Y-114930000D01*
X144880000Y-114930000D02*
X144730000Y-115250000D01*
X144730000Y-115250000D02*
X144530000Y-115540000D01*
X144530000Y-115540000D02*
X144290000Y-115780000D01*
X144290000Y-115780000D02*
X144000000Y-115980000D01*
X144000000Y-115980000D02*
X143680000Y-116130000D01*
X143680000Y-116130000D02*
X143350000Y-116220000D01*
X143350000Y-116220000D02*
X143000000Y-116250000D01*
X143000000Y-116250000D02*
X142650000Y-116220000D01*
X142650000Y-116220000D02*
X142320000Y-116130000D01*
X142320000Y-116130000D02*
X142000000Y-115980000D01*
X142000000Y-115980000D02*
X141710000Y-115780000D01*
X141710000Y-115780000D02*
X141470000Y-115540000D01*
X141470000Y-115540000D02*
X141270000Y-115250000D01*
X141270000Y-115250000D02*
X141120000Y-114930000D01*
X141120000Y-114930000D02*
X141030000Y-114600000D01*
X141030000Y-114600000D02*
X141000000Y-114250000D01*
X141000000Y-114250000D02*
X133800000Y-114250000D01*
X157750000Y-65800000D02*
X157740000Y-65660000D01*
X157740000Y-65660000D02*
X157700000Y-65530000D01*
X157700000Y-65530000D02*
X157640000Y-65400000D01*
X157640000Y-65400000D02*
X157560000Y-65290000D01*
X157560000Y-65290000D02*
X157460000Y-65190000D01*
X157460000Y-65190000D02*
X157350000Y-65110000D01*
X157350000Y-65110000D02*
X157220000Y-65050000D01*
X157220000Y-65050000D02*
X157090000Y-65010000D01*
X157090000Y-65010000D02*
X156950000Y-65000000D01*
X156950000Y-65000000D02*
X149750000Y-65000000D01*
X149750000Y-65000000D02*
X149720000Y-64650000D01*
X149720000Y-64650000D02*
X149630000Y-64320000D01*
X149630000Y-64320000D02*
X149480000Y-64000000D01*
X149480000Y-64000000D02*
X149280000Y-63710000D01*
X149280000Y-63710000D02*
X149040000Y-63470000D01*
X149040000Y-63470000D02*
X148750000Y-63270000D01*
X148750000Y-63270000D02*
X148430000Y-63120000D01*
X148430000Y-63120000D02*
X148100000Y-63030000D01*
X148100000Y-63030000D02*
X147750000Y-63000000D01*
X147750000Y-63000000D02*
X147400000Y-63030000D01*
X147400000Y-63030000D02*
X147070000Y-63120000D01*
X147070000Y-63120000D02*
X146750000Y-63270000D01*
X146750000Y-63270000D02*
X146460000Y-63470000D01*
X146460000Y-63470000D02*
X146220000Y-63710000D01*
X146220000Y-63710000D02*
X146020000Y-64000000D01*
X146020000Y-64000000D02*
X145870000Y-64320000D01*
X145870000Y-64320000D02*
X145780000Y-64650000D01*
X145780000Y-64650000D02*
X145750000Y-65000000D01*
X145750000Y-65000000D02*
X138550000Y-65000000D01*
X138550000Y-65000000D02*
X138410000Y-65010000D01*
X138410000Y-65010000D02*
X138280000Y-65050000D01*
X138280000Y-65050000D02*
X138150000Y-65110000D01*
X138150000Y-65110000D02*
X138040000Y-65190000D01*
X138040000Y-65190000D02*
X137940000Y-65290000D01*
X137940000Y-65290000D02*
X137860000Y-65400000D01*
X137860000Y-65400000D02*
X137800000Y-65530000D01*
X137800000Y-65530000D02*
X137760000Y-65660000D01*
X137760000Y-65660000D02*
X137750000Y-65800000D01*
X137750000Y-65800000D02*
X137750000Y-73000000D01*
X137750000Y-73000000D02*
X138100000Y-73030000D01*
X138100000Y-73030000D02*
X138430000Y-73120000D01*
X138430000Y-73120000D02*
X138750000Y-73270000D01*
X138750000Y-73270000D02*
X139040000Y-73470000D01*
X139040000Y-73470000D02*
X139280000Y-73710000D01*
X139280000Y-73710000D02*
X139480000Y-74000000D01*
X139480000Y-74000000D02*
X139630000Y-74320000D01*
X139630000Y-74320000D02*
X139720000Y-74650000D01*
X139720000Y-74650000D02*
X139750000Y-75000000D01*
X139750000Y-75000000D02*
X139720000Y-75350000D01*
X139720000Y-75350000D02*
X139630000Y-75680000D01*
X139630000Y-75680000D02*
X139480000Y-76000000D01*
X139480000Y-76000000D02*
X139280000Y-76290000D01*
X139280000Y-76290000D02*
X139040000Y-76530000D01*
X139040000Y-76530000D02*
X138750000Y-76730000D01*
X138750000Y-76730000D02*
X138430000Y-76880000D01*
X138430000Y-76880000D02*
X138100000Y-76970000D01*
X138100000Y-76970000D02*
X137750000Y-77000000D01*
X137750000Y-77000000D02*
X137750000Y-84200000D01*
X137750000Y-84200000D02*
X137760000Y-84340000D01*
X137760000Y-84340000D02*
X137800000Y-84470000D01*
X137800000Y-84470000D02*
X137860000Y-84600000D01*
X137860000Y-84600000D02*
X137940000Y-84710000D01*
X137940000Y-84710000D02*
X138040000Y-84810000D01*
X138040000Y-84810000D02*
X138150000Y-84890000D01*
X138150000Y-84890000D02*
X138280000Y-84950000D01*
X138280000Y-84950000D02*
X138410000Y-84990000D01*
X138410000Y-84990000D02*
X138550000Y-85000000D01*
X138550000Y-85000000D02*
X145750000Y-85000000D01*
X145750000Y-85000000D02*
X145780000Y-85350000D01*
X145780000Y-85350000D02*
X145870000Y-85680000D01*
X145870000Y-85680000D02*
X146020000Y-86000000D01*
X146020000Y-86000000D02*
X146220000Y-86290000D01*
X146220000Y-86290000D02*
X146460000Y-86530000D01*
X146460000Y-86530000D02*
X146750000Y-86730000D01*
X146750000Y-86730000D02*
X147070000Y-86880000D01*
X147070000Y-86880000D02*
X147400000Y-86970000D01*
X147400000Y-86970000D02*
X147750000Y-87000000D01*
X147750000Y-87000000D02*
X148100000Y-86970000D01*
X148100000Y-86970000D02*
X148430000Y-86880000D01*
X148430000Y-86880000D02*
X148750000Y-86730000D01*
X148750000Y-86730000D02*
X149040000Y-86530000D01*
X149040000Y-86530000D02*
X149280000Y-86290000D01*
X149280000Y-86290000D02*
X149480000Y-86000000D01*
X149480000Y-86000000D02*
X149630000Y-85680000D01*
X149630000Y-85680000D02*
X149720000Y-85350000D01*
X149720000Y-85350000D02*
X149750000Y-85000000D01*
X149750000Y-85000000D02*
X156950000Y-85000000D01*
X156950000Y-85000000D02*
X157090000Y-84990000D01*
X157090000Y-84990000D02*
X157220000Y-84950000D01*
X157220000Y-84950000D02*
X157350000Y-84890000D01*
X157350000Y-84890000D02*
X157460000Y-84810000D01*
X157460000Y-84810000D02*
X157560000Y-84710000D01*
X157560000Y-84710000D02*
X157640000Y-84600000D01*
X157640000Y-84600000D02*
X157700000Y-84470000D01*
X157700000Y-84470000D02*
X157740000Y-84340000D01*
X157740000Y-84340000D02*
X157750000Y-84200000D01*
X157750000Y-84200000D02*
X157750000Y-77000000D01*
X157750000Y-77000000D02*
X157400000Y-76970000D01*
X157400000Y-76970000D02*
X157070000Y-76880000D01*
X157070000Y-76880000D02*
X156750000Y-76730000D01*
X156750000Y-76730000D02*
X156460000Y-76530000D01*
X156460000Y-76530000D02*
X156220000Y-76290000D01*
X156220000Y-76290000D02*
X156020000Y-76000000D01*
X156020000Y-76000000D02*
X155870000Y-75680000D01*
X155870000Y-75680000D02*
X155780000Y-75350000D01*
X155780000Y-75350000D02*
X155750000Y-75000000D01*
X155750000Y-75000000D02*
X155780000Y-74650000D01*
X155780000Y-74650000D02*
X155870000Y-74320000D01*
X155870000Y-74320000D02*
X156020000Y-74000000D01*
X156020000Y-74000000D02*
X156220000Y-73710000D01*
X156220000Y-73710000D02*
X156460000Y-73470000D01*
X156460000Y-73470000D02*
X156750000Y-73270000D01*
X156750000Y-73270000D02*
X157070000Y-73120000D01*
X157070000Y-73120000D02*
X157400000Y-73030000D01*
X157400000Y-73030000D02*
X157750000Y-73000000D01*
X157750000Y-73000000D02*
X157750000Y-65800000D01*
X67200000Y-57000000D02*
X67340000Y-56990000D01*
X67340000Y-56990000D02*
X67470000Y-56950000D01*
X67470000Y-56950000D02*
X67600000Y-56890000D01*
X67600000Y-56890000D02*
X67710000Y-56810000D01*
X67710000Y-56810000D02*
X67810000Y-56710000D01*
X67810000Y-56710000D02*
X67890000Y-56600000D01*
X67890000Y-56600000D02*
X67950000Y-56470000D01*
X67950000Y-56470000D02*
X67990000Y-56340000D01*
X67990000Y-56340000D02*
X68000000Y-56200000D01*
X68000000Y-56200000D02*
X68000000Y-49000000D01*
X68000000Y-49000000D02*
X68350000Y-48970000D01*
X68350000Y-48970000D02*
X68680000Y-48880000D01*
X68680000Y-48880000D02*
X69000000Y-48730000D01*
X69000000Y-48730000D02*
X69290000Y-48530000D01*
X69290000Y-48530000D02*
X69530000Y-48290000D01*
X69530000Y-48290000D02*
X69730000Y-48000000D01*
X69730000Y-48000000D02*
X69880000Y-47680000D01*
X69880000Y-47680000D02*
X69970000Y-47350000D01*
X69970000Y-47350000D02*
X70000000Y-47000000D01*
X70000000Y-47000000D02*
X69970000Y-46650000D01*
X69970000Y-46650000D02*
X69880000Y-46320000D01*
X69880000Y-46320000D02*
X69730000Y-46000000D01*
X69730000Y-46000000D02*
X69530000Y-45710000D01*
X69530000Y-45710000D02*
X69290000Y-45470000D01*
X69290000Y-45470000D02*
X69000000Y-45270000D01*
X69000000Y-45270000D02*
X68680000Y-45120000D01*
X68680000Y-45120000D02*
X68350000Y-45030000D01*
X68350000Y-45030000D02*
X68000000Y-45000000D01*
X68000000Y-45000000D02*
X68000000Y-37800000D01*
X68000000Y-37800000D02*
X67990000Y-37660000D01*
X67990000Y-37660000D02*
X67950000Y-37530000D01*
X67950000Y-37530000D02*
X67890000Y-37400000D01*
X67890000Y-37400000D02*
X67810000Y-37290000D01*
X67810000Y-37290000D02*
X67710000Y-37190000D01*
X67710000Y-37190000D02*
X67600000Y-37110000D01*
X67600000Y-37110000D02*
X67470000Y-37050000D01*
X67470000Y-37050000D02*
X67340000Y-37010000D01*
X67340000Y-37010000D02*
X67200000Y-37000000D01*
X67200000Y-37000000D02*
X60000000Y-37000000D01*
X60000000Y-37000000D02*
X59970000Y-37350000D01*
X59970000Y-37350000D02*
X59880000Y-37680000D01*
X59880000Y-37680000D02*
X59730000Y-38000000D01*
X59730000Y-38000000D02*
X59530000Y-38290000D01*
X59530000Y-38290000D02*
X59290000Y-38530000D01*
X59290000Y-38530000D02*
X59000000Y-38730000D01*
X59000000Y-38730000D02*
X58680000Y-38880000D01*
X58680000Y-38880000D02*
X58350000Y-38970000D01*
X58350000Y-38970000D02*
X58000000Y-39000000D01*
X58000000Y-39000000D02*
X57650000Y-38970000D01*
X57650000Y-38970000D02*
X57320000Y-38880000D01*
X57320000Y-38880000D02*
X57000000Y-38730000D01*
X57000000Y-38730000D02*
X56710000Y-38530000D01*
X56710000Y-38530000D02*
X56470000Y-38290000D01*
X56470000Y-38290000D02*
X56270000Y-38000000D01*
X56270000Y-38000000D02*
X56120000Y-37680000D01*
X56120000Y-37680000D02*
X56030000Y-37350000D01*
X56030000Y-37350000D02*
X56000000Y-37000000D01*
X56000000Y-37000000D02*
X48800000Y-37000000D01*
X48800000Y-37000000D02*
X48660000Y-37010000D01*
X48660000Y-37010000D02*
X48530000Y-37050000D01*
X48530000Y-37050000D02*
X48400000Y-37110000D01*
X48400000Y-37110000D02*
X48290000Y-37190000D01*
X48290000Y-37190000D02*
X48190000Y-37290000D01*
X48190000Y-37290000D02*
X48110000Y-37400000D01*
X48110000Y-37400000D02*
X48050000Y-37530000D01*
X48050000Y-37530000D02*
X48010000Y-37660000D01*
X48010000Y-37660000D02*
X48000000Y-37800000D01*
X48000000Y-37800000D02*
X48000000Y-45000000D01*
X48000000Y-45000000D02*
X47650000Y-45030000D01*
X47650000Y-45030000D02*
X47320000Y-45120000D01*
X47320000Y-45120000D02*
X47000000Y-45270000D01*
X47000000Y-45270000D02*
X46710000Y-45470000D01*
X46710000Y-45470000D02*
X46470000Y-45710000D01*
X46470000Y-45710000D02*
X46270000Y-46000000D01*
X46270000Y-46000000D02*
X46120000Y-46320000D01*
X46120000Y-46320000D02*
X46030000Y-46650000D01*
X46030000Y-46650000D02*
X46000000Y-47000000D01*
X46000000Y-47000000D02*
X46030000Y-47350000D01*
X46030000Y-47350000D02*
X46120000Y-47680000D01*
X46120000Y-47680000D02*
X46270000Y-48000000D01*
X46270000Y-48000000D02*
X46470000Y-48290000D01*
X46470000Y-48290000D02*
X46710000Y-48530000D01*
X46710000Y-48530000D02*
X47000000Y-48730000D01*
X47000000Y-48730000D02*
X47320000Y-48880000D01*
X47320000Y-48880000D02*
X47650000Y-48970000D01*
X47650000Y-48970000D02*
X48000000Y-49000000D01*
X48000000Y-49000000D02*
X48000000Y-56200000D01*
X48000000Y-56200000D02*
X48010000Y-56340000D01*
X48010000Y-56340000D02*
X48050000Y-56470000D01*
X48050000Y-56470000D02*
X48110000Y-56600000D01*
X48110000Y-56600000D02*
X48190000Y-56710000D01*
X48190000Y-56710000D02*
X48290000Y-56810000D01*
X48290000Y-56810000D02*
X48400000Y-56890000D01*
X48400000Y-56890000D02*
X48530000Y-56950000D01*
X48530000Y-56950000D02*
X48660000Y-56990000D01*
X48660000Y-56990000D02*
X48800000Y-57000000D01*
X48800000Y-57000000D02*
X56000000Y-57000000D01*
X56000000Y-57000000D02*
X56030000Y-56650000D01*
X56030000Y-56650000D02*
X56120000Y-56320000D01*
X56120000Y-56320000D02*
X56270000Y-56000000D01*
X56270000Y-56000000D02*
X56470000Y-55710000D01*
X56470000Y-55710000D02*
X56710000Y-55470000D01*
X56710000Y-55470000D02*
X57000000Y-55270000D01*
X57000000Y-55270000D02*
X57320000Y-55120000D01*
X57320000Y-55120000D02*
X57650000Y-55030000D01*
X57650000Y-55030000D02*
X58000000Y-55000000D01*
X58000000Y-55000000D02*
X58350000Y-55030000D01*
X58350000Y-55030000D02*
X58680000Y-55120000D01*
X58680000Y-55120000D02*
X59000000Y-55270000D01*
X59000000Y-55270000D02*
X59290000Y-55470000D01*
X59290000Y-55470000D02*
X59530000Y-55710000D01*
X59530000Y-55710000D02*
X59730000Y-56000000D01*
X59730000Y-56000000D02*
X59880000Y-56320000D01*
X59880000Y-56320000D02*
X59970000Y-56650000D01*
X59970000Y-56650000D02*
X60000000Y-57000000D01*
X60000000Y-57000000D02*
X67200000Y-57000000D01*
X132224765Y-148677219D02*
X132233076Y-148749544D01*
X132233076Y-148749544D02*
X132166819Y-148798637D01*
X132166819Y-148798637D02*
X132094494Y-148806947D01*
X132094494Y-148806947D02*
X132049228Y-148749929D01*
X132049228Y-148749929D02*
X132037091Y-148668365D01*
X132037091Y-148668365D02*
X132090282Y-148613861D01*
X132090282Y-148613861D02*
X132175673Y-148610962D01*
X132175673Y-148610962D02*
X132224765Y-148677219D01*
X131632057Y-148500594D02*
X121783501Y-152580000D01*
X121783501Y-152580000D02*
X120620143Y-149771406D01*
X120620143Y-149771406D02*
X130468699Y-145692000D01*
X130468699Y-145692000D02*
X131632057Y-148500594D01*
X78510715Y-153124001D02*
X78465449Y-153181019D01*
X78465449Y-153181019D02*
X78383885Y-153168881D01*
X78383885Y-153168881D02*
X78326867Y-153123616D01*
X78326867Y-153123616D02*
X78335178Y-153051291D01*
X78335178Y-153051291D02*
X78384270Y-152985034D01*
X78384270Y-152985034D02*
X78460422Y-152984106D01*
X78460422Y-152984106D02*
X78522852Y-153042437D01*
X78522852Y-153042437D02*
X78510715Y-153124001D01*
X78216499Y-152580000D02*
X68367943Y-148500594D01*
X68367943Y-148500594D02*
X69531301Y-145692000D01*
X69531301Y-145692000D02*
X79379857Y-149771406D01*
X79379857Y-149771406D02*
X78216499Y-152580000D01*
D13*
X154372000Y-134560000D02*
X157032000Y-134560000D01*
X154372000Y-139700000D02*
X154372000Y-134560000D01*
X157032000Y-139700000D02*
X157032000Y-134560000D01*
X154372000Y-139700000D02*
X157032000Y-139700000D01*
X154372000Y-140970000D02*
X154372000Y-142300000D01*
X154372000Y-142300000D02*
X155702000Y-142300000D01*
X148530000Y-151324000D02*
X151190000Y-151324000D01*
X148530000Y-156464000D02*
X148530000Y-151324000D01*
X151190000Y-156464000D02*
X151190000Y-151324000D01*
X148530000Y-156464000D02*
X151190000Y-156464000D01*
X148530000Y-157734000D02*
X148530000Y-159064000D01*
X148530000Y-159064000D02*
X149860000Y-159064000D01*
X140910000Y-151324000D02*
X143570000Y-151324000D01*
X140910000Y-156464000D02*
X140910000Y-151324000D01*
X143570000Y-156464000D02*
X143570000Y-151324000D01*
X140910000Y-156464000D02*
X143570000Y-156464000D01*
X140910000Y-157734000D02*
X140910000Y-159064000D01*
X140910000Y-159064000D02*
X142240000Y-159064000D01*
D10*
X86877000Y-167575857D02*
X86912714Y-167611571D01*
X87019857Y-167647285D01*
X87091285Y-167647285D01*
X87198428Y-167611571D01*
X87269857Y-167540142D01*
X87305571Y-167468714D01*
X87341285Y-167325857D01*
X87341285Y-167218714D01*
X87305571Y-167075857D01*
X87269857Y-167004428D01*
X87198428Y-166933000D01*
X87091285Y-166897285D01*
X87019857Y-166897285D01*
X86912714Y-166933000D01*
X86877000Y-166968714D01*
X86162714Y-167647285D02*
X86591285Y-167647285D01*
X86377000Y-167647285D02*
X86377000Y-166897285D01*
X86448428Y-167004428D01*
X86519857Y-167075857D01*
X86591285Y-167111571D01*
X151751000Y-115837857D02*
X151786714Y-115873571D01*
X151893857Y-115909285D01*
X151965285Y-115909285D01*
X152072428Y-115873571D01*
X152143857Y-115802142D01*
X152179571Y-115730714D01*
X152215285Y-115587857D01*
X152215285Y-115480714D01*
X152179571Y-115337857D01*
X152143857Y-115266428D01*
X152072428Y-115195000D01*
X151965285Y-115159285D01*
X151893857Y-115159285D01*
X151786714Y-115195000D01*
X151751000Y-115230714D01*
X151429571Y-115909285D02*
X151429571Y-115159285D01*
X151001000Y-115909285D01*
X151001000Y-115159285D01*
X150679571Y-115230714D02*
X150643857Y-115195000D01*
X150572428Y-115159285D01*
X150393857Y-115159285D01*
X150322428Y-115195000D01*
X150286714Y-115230714D01*
X150251000Y-115302142D01*
X150251000Y-115373571D01*
X150286714Y-115480714D01*
X150715285Y-115909285D01*
X150251000Y-115909285D01*
X149965285Y-115230714D02*
X149929571Y-115195000D01*
X149858142Y-115159285D01*
X149679571Y-115159285D01*
X149608142Y-115195000D01*
X149572428Y-115230714D01*
X149536714Y-115302142D01*
X149536714Y-115373571D01*
X149572428Y-115480714D01*
X150001000Y-115909285D01*
X149536714Y-115909285D01*
X160387000Y-137979857D02*
X160422714Y-138015571D01*
X160529857Y-138051285D01*
X160601285Y-138051285D01*
X160708428Y-138015571D01*
X160779857Y-137944142D01*
X160815571Y-137872714D01*
X160851285Y-137729857D01*
X160851285Y-137622714D01*
X160815571Y-137479857D01*
X160779857Y-137408428D01*
X160708428Y-137337000D01*
X160601285Y-137301285D01*
X160529857Y-137301285D01*
X160422714Y-137337000D01*
X160387000Y-137372714D01*
X160065571Y-138051285D02*
X160065571Y-137301285D01*
X159637000Y-138051285D01*
X159637000Y-137301285D01*
X159315571Y-137372714D02*
X159279857Y-137337000D01*
X159208428Y-137301285D01*
X159029857Y-137301285D01*
X158958428Y-137337000D01*
X158922714Y-137372714D01*
X158887000Y-137444142D01*
X158887000Y-137515571D01*
X158922714Y-137622714D01*
X159351285Y-138051285D01*
X158887000Y-138051285D01*
X158637000Y-137301285D02*
X158172714Y-137301285D01*
X158422714Y-137587000D01*
X158315571Y-137587000D01*
X158244142Y-137622714D01*
X158208428Y-137658428D01*
X158172714Y-137729857D01*
X158172714Y-137908428D01*
X158208428Y-137979857D01*
X158244142Y-138015571D01*
X158315571Y-138051285D01*
X158529857Y-138051285D01*
X158601285Y-138015571D01*
X158637000Y-137979857D01*
X156069000Y-122187857D02*
X156104714Y-122223571D01*
X156211857Y-122259285D01*
X156283285Y-122259285D01*
X156390428Y-122223571D01*
X156461857Y-122152142D01*
X156497571Y-122080714D01*
X156533285Y-121937857D01*
X156533285Y-121830714D01*
X156497571Y-121687857D01*
X156461857Y-121616428D01*
X156390428Y-121545000D01*
X156283285Y-121509285D01*
X156211857Y-121509285D01*
X156104714Y-121545000D01*
X156069000Y-121580714D01*
X155747571Y-122259285D02*
X155747571Y-121509285D01*
X155319000Y-122259285D01*
X155319000Y-121509285D01*
X154997571Y-121580714D02*
X154961857Y-121545000D01*
X154890428Y-121509285D01*
X154711857Y-121509285D01*
X154640428Y-121545000D01*
X154604714Y-121580714D01*
X154569000Y-121652142D01*
X154569000Y-121723571D01*
X154604714Y-121830714D01*
X155033285Y-122259285D01*
X154569000Y-122259285D01*
X153926142Y-121759285D02*
X153926142Y-122259285D01*
X154104714Y-121473571D02*
X154283285Y-122009285D01*
X153819000Y-122009285D01*
X146905000Y-160331857D02*
X146940714Y-160367571D01*
X147047857Y-160403285D01*
X147119285Y-160403285D01*
X147226428Y-160367571D01*
X147297857Y-160296142D01*
X147333571Y-160224714D01*
X147369285Y-160081857D01*
X147369285Y-159974714D01*
X147333571Y-159831857D01*
X147297857Y-159760428D01*
X147226428Y-159689000D01*
X147119285Y-159653285D01*
X147047857Y-159653285D01*
X146940714Y-159689000D01*
X146905000Y-159724714D01*
X146583571Y-160403285D02*
X146583571Y-159653285D01*
X146155000Y-160403285D01*
X146155000Y-159653285D01*
X145833571Y-159724714D02*
X145797857Y-159689000D01*
X145726428Y-159653285D01*
X145547857Y-159653285D01*
X145476428Y-159689000D01*
X145440714Y-159724714D01*
X145405000Y-159796142D01*
X145405000Y-159867571D01*
X145440714Y-159974714D01*
X145869285Y-160403285D01*
X145405000Y-160403285D01*
X144762142Y-159653285D02*
X144905000Y-159653285D01*
X144976428Y-159689000D01*
X145012142Y-159724714D01*
X145083571Y-159831857D01*
X145119285Y-159974714D01*
X145119285Y-160260428D01*
X145083571Y-160331857D01*
X145047857Y-160367571D01*
X144976428Y-160403285D01*
X144833571Y-160403285D01*
X144762142Y-160367571D01*
X144726428Y-160331857D01*
X144690714Y-160260428D01*
X144690714Y-160081857D01*
X144726428Y-160010428D01*
X144762142Y-159974714D01*
X144833571Y-159939000D01*
X144976428Y-159939000D01*
X145047857Y-159974714D01*
X145083571Y-160010428D01*
X145119285Y-160081857D01*
X152767000Y-143567857D02*
X152802714Y-143603571D01*
X152909857Y-143639285D01*
X152981285Y-143639285D01*
X153088428Y-143603571D01*
X153159857Y-143532142D01*
X153195571Y-143460714D01*
X153231285Y-143317857D01*
X153231285Y-143210714D01*
X153195571Y-143067857D01*
X153159857Y-142996428D01*
X153088428Y-142925000D01*
X152981285Y-142889285D01*
X152909857Y-142889285D01*
X152802714Y-142925000D01*
X152767000Y-142960714D01*
X152445571Y-143639285D02*
X152445571Y-142889285D01*
X152017000Y-143639285D01*
X152017000Y-142889285D01*
X151695571Y-142960714D02*
X151659857Y-142925000D01*
X151588428Y-142889285D01*
X151409857Y-142889285D01*
X151338428Y-142925000D01*
X151302714Y-142960714D01*
X151267000Y-143032142D01*
X151267000Y-143103571D01*
X151302714Y-143210714D01*
X151731285Y-143639285D01*
X151267000Y-143639285D01*
X150838428Y-143210714D02*
X150909857Y-143175000D01*
X150945571Y-143139285D01*
X150981285Y-143067857D01*
X150981285Y-143032142D01*
X150945571Y-142960714D01*
X150909857Y-142925000D01*
X150838428Y-142889285D01*
X150695571Y-142889285D01*
X150624142Y-142925000D01*
X150588428Y-142960714D01*
X150552714Y-143032142D01*
X150552714Y-143067857D01*
X150588428Y-143139285D01*
X150624142Y-143175000D01*
X150695571Y-143210714D01*
X150838428Y-143210714D01*
X150909857Y-143246428D01*
X150945571Y-143282142D01*
X150981285Y-143353571D01*
X150981285Y-143496428D01*
X150945571Y-143567857D01*
X150909857Y-143603571D01*
X150838428Y-143639285D01*
X150695571Y-143639285D01*
X150624142Y-143603571D01*
X150588428Y-143567857D01*
X150552714Y-143496428D01*
X150552714Y-143353571D01*
X150588428Y-143282142D01*
X150624142Y-143246428D01*
X150695571Y-143210714D01*
X80527857Y-126505857D02*
X80563571Y-126541571D01*
X80670714Y-126577285D01*
X80742142Y-126577285D01*
X80849285Y-126541571D01*
X80920714Y-126470142D01*
X80956428Y-126398714D01*
X80992142Y-126255857D01*
X80992142Y-126148714D01*
X80956428Y-126005857D01*
X80920714Y-125934428D01*
X80849285Y-125863000D01*
X80742142Y-125827285D01*
X80670714Y-125827285D01*
X80563571Y-125863000D01*
X80527857Y-125898714D01*
X80206428Y-126577285D02*
X80206428Y-125827285D01*
X79777857Y-126577285D01*
X79777857Y-125827285D01*
X79063571Y-125827285D02*
X79420714Y-125827285D01*
X79456428Y-126184428D01*
X79420714Y-126148714D01*
X79349285Y-126113000D01*
X79170714Y-126113000D01*
X79099285Y-126148714D01*
X79063571Y-126184428D01*
X79027857Y-126255857D01*
X79027857Y-126434428D01*
X79063571Y-126505857D01*
X79099285Y-126541571D01*
X79170714Y-126577285D01*
X79349285Y-126577285D01*
X79420714Y-126541571D01*
X79456428Y-126505857D01*
X131800142Y-121037000D02*
X131871571Y-121001285D01*
X131978714Y-121001285D01*
X132085857Y-121037000D01*
X132157285Y-121108428D01*
X132193000Y-121179857D01*
X132228714Y-121322714D01*
X132228714Y-121429857D01*
X132193000Y-121572714D01*
X132157285Y-121644142D01*
X132085857Y-121715571D01*
X131978714Y-121751285D01*
X131907285Y-121751285D01*
X131800142Y-121715571D01*
X131764428Y-121679857D01*
X131764428Y-121429857D01*
X131907285Y-121429857D01*
X131550142Y-121001285D02*
X131300142Y-121751285D01*
X131050142Y-121001285D01*
X130443000Y-121001285D02*
X130800142Y-121001285D01*
X130835857Y-121358428D01*
X130800142Y-121322714D01*
X130728714Y-121287000D01*
X130550142Y-121287000D01*
X130478714Y-121322714D01*
X130443000Y-121358428D01*
X130407285Y-121429857D01*
X130407285Y-121608428D01*
X130443000Y-121679857D01*
X130478714Y-121715571D01*
X130550142Y-121751285D01*
X130728714Y-121751285D01*
X130800142Y-121715571D01*
X130835857Y-121679857D01*
X148232142Y-72625000D02*
X148303571Y-72589285D01*
X148410714Y-72589285D01*
X148517857Y-72625000D01*
X148589285Y-72696428D01*
X148625000Y-72767857D01*
X148660714Y-72910714D01*
X148660714Y-73017857D01*
X148625000Y-73160714D01*
X148589285Y-73232142D01*
X148517857Y-73303571D01*
X148410714Y-73339285D01*
X148339285Y-73339285D01*
X148232142Y-73303571D01*
X148196428Y-73267857D01*
X148196428Y-73017857D01*
X148339285Y-73017857D01*
X147982142Y-72589285D02*
X147732142Y-73339285D01*
X147482142Y-72589285D01*
X147303571Y-72589285D02*
X146839285Y-72589285D01*
X147089285Y-72875000D01*
X146982142Y-72875000D01*
X146910714Y-72910714D01*
X146875000Y-72946428D01*
X146839285Y-73017857D01*
X146839285Y-73196428D01*
X146875000Y-73267857D01*
X146910714Y-73303571D01*
X146982142Y-73339285D01*
X147196428Y-73339285D01*
X147267857Y-73303571D01*
X147303571Y-73267857D01*
X59312142Y-46865000D02*
X59383571Y-46829285D01*
X59490714Y-46829285D01*
X59597857Y-46865000D01*
X59669285Y-46936428D01*
X59705000Y-47007857D01*
X59740714Y-47150714D01*
X59740714Y-47257857D01*
X59705000Y-47400714D01*
X59669285Y-47472142D01*
X59597857Y-47543571D01*
X59490714Y-47579285D01*
X59419285Y-47579285D01*
X59312142Y-47543571D01*
X59276428Y-47507857D01*
X59276428Y-47257857D01*
X59419285Y-47257857D01*
X59062142Y-46829285D02*
X58812142Y-47579285D01*
X58562142Y-46829285D01*
X57919285Y-47579285D02*
X58347857Y-47579285D01*
X58133571Y-47579285D02*
X58133571Y-46829285D01*
X58205000Y-46936428D01*
X58276428Y-47007857D01*
X58347857Y-47043571D01*
X127802366Y-150896378D02*
X127849029Y-150915707D01*
X127961683Y-150907701D01*
X128027674Y-150880366D01*
X128112994Y-150806369D01*
X128151651Y-150713043D01*
X128157312Y-150633384D01*
X128135639Y-150487734D01*
X128094637Y-150388747D01*
X128006972Y-150270431D01*
X127946642Y-150218107D01*
X127853316Y-150179450D01*
X127740662Y-150187456D01*
X127674670Y-150214791D01*
X127589351Y-150288788D01*
X127570022Y-150335451D01*
X127532739Y-151085375D02*
X127245726Y-150392465D01*
X127136790Y-151249382D01*
X126849778Y-150556473D01*
X126443881Y-151536395D02*
X126839829Y-151372388D01*
X126641855Y-151454391D02*
X126354842Y-150761482D01*
X126461836Y-150833134D01*
X126555162Y-150871791D01*
X126634820Y-150877452D01*
X125562946Y-151089496D02*
X125694928Y-151034827D01*
X125774587Y-151040488D01*
X125821250Y-151059816D01*
X125928243Y-151131469D01*
X126015908Y-151249785D01*
X126125246Y-151513750D01*
X126119585Y-151593409D01*
X126100257Y-151640072D01*
X126047932Y-151700402D01*
X125915950Y-151755071D01*
X125836291Y-151749410D01*
X125789628Y-151730081D01*
X125729298Y-151677757D01*
X125660961Y-151512779D01*
X125666623Y-151433120D01*
X125685951Y-151386457D01*
X125738275Y-151326127D01*
X125870258Y-151271458D01*
X125949917Y-151277119D01*
X125996580Y-151296447D01*
X126056910Y-151348772D01*
X73349890Y-151566074D02*
X73369218Y-151612737D01*
X73454538Y-151686735D01*
X73520529Y-151714069D01*
X73633184Y-151722075D01*
X73726510Y-151683418D01*
X73786840Y-151631094D01*
X73874505Y-151512779D01*
X73915506Y-151413792D01*
X73937180Y-151268142D01*
X73931519Y-151188483D01*
X73892862Y-151095157D01*
X73807542Y-151021160D01*
X73741550Y-150993825D01*
X73628896Y-150985819D01*
X73582233Y-151005147D01*
X73025594Y-151509060D02*
X73312606Y-150816151D01*
X72629645Y-151345053D01*
X72916658Y-150652143D01*
X71936736Y-151058040D02*
X72332684Y-151222048D01*
X72134710Y-151140044D02*
X72421723Y-150447134D01*
X72446712Y-150573456D01*
X72485369Y-150666782D01*
X72537693Y-150727112D01*
X71932448Y-150321784D02*
X71913120Y-150275121D01*
X71860796Y-150214791D01*
X71695817Y-150146455D01*
X71616159Y-150152116D01*
X71569496Y-150171444D01*
X71509165Y-150223768D01*
X71481831Y-150289760D01*
X71473825Y-150402414D01*
X71705766Y-150962370D01*
X71276822Y-150784695D01*
X156577000Y-143567857D02*
X156612714Y-143603571D01*
X156719857Y-143639285D01*
X156791285Y-143639285D01*
X156898428Y-143603571D01*
X156969857Y-143532142D01*
X157005571Y-143460714D01*
X157041285Y-143317857D01*
X157041285Y-143210714D01*
X157005571Y-143067857D01*
X156969857Y-142996428D01*
X156898428Y-142925000D01*
X156791285Y-142889285D01*
X156719857Y-142889285D01*
X156612714Y-142925000D01*
X156577000Y-142960714D01*
X156255571Y-143639285D02*
X156255571Y-142889285D01*
X155827000Y-143639285D01*
X155827000Y-142889285D01*
X155505571Y-142960714D02*
X155469857Y-142925000D01*
X155398428Y-142889285D01*
X155219857Y-142889285D01*
X155148428Y-142925000D01*
X155112714Y-142960714D01*
X155077000Y-143032142D01*
X155077000Y-143103571D01*
X155112714Y-143210714D01*
X155541285Y-143639285D01*
X155077000Y-143639285D01*
X154719857Y-143639285D02*
X154577000Y-143639285D01*
X154505571Y-143603571D01*
X154469857Y-143567857D01*
X154398428Y-143460714D01*
X154362714Y-143317857D01*
X154362714Y-143032142D01*
X154398428Y-142960714D01*
X154434142Y-142925000D01*
X154505571Y-142889285D01*
X154648428Y-142889285D01*
X154719857Y-142925000D01*
X154755571Y-142960714D01*
X154791285Y-143032142D01*
X154791285Y-143210714D01*
X154755571Y-143282142D01*
X154719857Y-143317857D01*
X154648428Y-143353571D01*
X154505571Y-143353571D01*
X154434142Y-143317857D01*
X154398428Y-143282142D01*
X154362714Y-143210714D01*
X150735000Y-160331857D02*
X150770714Y-160367571D01*
X150877857Y-160403285D01*
X150949285Y-160403285D01*
X151056428Y-160367571D01*
X151127857Y-160296142D01*
X151163571Y-160224714D01*
X151199285Y-160081857D01*
X151199285Y-159974714D01*
X151163571Y-159831857D01*
X151127857Y-159760428D01*
X151056428Y-159689000D01*
X150949285Y-159653285D01*
X150877857Y-159653285D01*
X150770714Y-159689000D01*
X150735000Y-159724714D01*
X150413571Y-160403285D02*
X150413571Y-159653285D01*
X149985000Y-160403285D01*
X149985000Y-159653285D01*
X149663571Y-159724714D02*
X149627857Y-159689000D01*
X149556428Y-159653285D01*
X149377857Y-159653285D01*
X149306428Y-159689000D01*
X149270714Y-159724714D01*
X149235000Y-159796142D01*
X149235000Y-159867571D01*
X149270714Y-159974714D01*
X149699285Y-160403285D01*
X149235000Y-160403285D01*
X148985000Y-159653285D02*
X148485000Y-159653285D01*
X148806428Y-160403285D01*
X143115000Y-160331857D02*
X143150714Y-160367571D01*
X143257857Y-160403285D01*
X143329285Y-160403285D01*
X143436428Y-160367571D01*
X143507857Y-160296142D01*
X143543571Y-160224714D01*
X143579285Y-160081857D01*
X143579285Y-159974714D01*
X143543571Y-159831857D01*
X143507857Y-159760428D01*
X143436428Y-159689000D01*
X143329285Y-159653285D01*
X143257857Y-159653285D01*
X143150714Y-159689000D01*
X143115000Y-159724714D01*
X142793571Y-160403285D02*
X142793571Y-159653285D01*
X142365000Y-160403285D01*
X142365000Y-159653285D01*
X142043571Y-159724714D02*
X142007857Y-159689000D01*
X141936428Y-159653285D01*
X141757857Y-159653285D01*
X141686428Y-159689000D01*
X141650714Y-159724714D01*
X141615000Y-159796142D01*
X141615000Y-159867571D01*
X141650714Y-159974714D01*
X142079285Y-160403285D01*
X141615000Y-160403285D01*
X140936428Y-159653285D02*
X141293571Y-159653285D01*
X141329285Y-160010428D01*
X141293571Y-159974714D01*
X141222142Y-159939000D01*
X141043571Y-159939000D01*
X140972142Y-159974714D01*
X140936428Y-160010428D01*
X140900714Y-160081857D01*
X140900714Y-160260428D01*
X140936428Y-160331857D01*
X140972142Y-160367571D01*
X141043571Y-160403285D01*
X141222142Y-160403285D01*
X141293571Y-160367571D01*
X141329285Y-160331857D01*
M02*
