M48
; DRILL file {KiCad 5.1.9-73d0e3b20d~88~ubuntu20.04.1} date Wed Dec 30 10:14:50 2020
; FORMAT={-:-/ absolute / metric / decimal}
; #@! TF.CreationDate,2020-12-30T10:14:50-08:00
; #@! TF.GenerationSoftware,Kicad,Pcbnew,5.1.9-73d0e3b20d~88~ubuntu20.04.1
FMAT,2
METRIC
T1C0.300
T2C0.400
T3C0.650
T4C0.700
T5C0.800
T6C0.980
T7C1.000
T8C1.020
T9C0.600
T10C2.180
T11C2.200
T12C2.400
T13C2.550
T14C2.700
T15C3.000
%
G90
G05
T1
X121.002Y-106.318
X121.002Y-107.418
X121.002Y-108.518
X121.002Y-109.618
X121.002Y-110.718
X122.102Y-106.318
X122.102Y-107.418
X122.102Y-108.518
X122.102Y-109.618
X122.102Y-110.718
X123.202Y-106.318
X123.202Y-107.418
X123.202Y-108.518
X123.202Y-109.618
X123.202Y-110.718
T2
X32.802Y-56.871
X34.727Y-62.426
X34.798Y-139.465
X35.019Y-145.73
X37.592Y-150.114
X38.354Y-63.246
X39.116Y-136.144
X39.37Y-130.048
X39.37Y-133.858
X39.46Y-151.353
X39.624Y-47.498
X40.172Y-84.262
X40.613Y-61.528
X40.64Y-116.84
X40.684Y-122.682
X40.848Y-119.38
X41.402Y-75.184
X41.402Y-78.232
X41.424Y-121.942
X41.425Y-56.99
X41.656Y-77.216
X41.661Y-54.859
X41.974Y-135.636
X42.098Y-45.085
X42.672Y-136.652
X42.781Y-142.535
X42.95Y-72.29
X43.167Y-79.105
X43.281Y-62.381
X43.456Y-145.613
X43.736Y-66.736
X43.942Y-75.438
X43.958Y-55.112
X44.148Y-119.874
X44.214Y-117.783
X44.704Y-56.642
X44.704Y-73.914
X44.903Y-139.77
X44.994Y-157.876
X45.3Y-150.638
X45.466Y-129.794
X45.466Y-76.962
X45.466Y-134.62
X45.72Y-124.714
X45.974Y-118.872
X45.976Y-117.093
X46.078Y-84.77
X46.198Y-55.402
X46.385Y-64.945
X46.482Y-71.882
X46.482Y-137.16
X46.736Y-159.512
X46.791Y-60.281
X46.792Y-53.478
X46.836Y-66.804
X47.397Y-72.498
X48.26Y-64.008
X48.514Y-76.895
X49.022Y-56.388
X49.221Y-78.25
X49.357Y-83.349
X49.53Y-114.046
X49.53Y-115.824
X49.57Y-116.88
X49.802Y-144.587
X49.821Y-77.424
X49.903Y-148.245
X50.317Y-161.465
X50.469Y-78.199
X50.513Y-141.371
X50.637Y-52.361
X50.686Y-46.114
X51.321Y-63.586
X51.562Y-148.082
X51.642Y-157.738
X51.784Y-118.078
X51.816Y-76.708
X51.938Y-78.449
X52.07Y-144.018
X52.416Y-128.29
X52.438Y-124.17
X52.578Y-130.302
X52.659Y-163.756
X53.081Y-73.354
X53.086Y-119.38
X53.401Y-127.62
X53.497Y-139.502
X53.569Y-135.922
X53.896Y-120.477
X54.027Y-53.733
X54.117Y-114.155
X54.356Y-77.724
X54.356Y-134.62
X54.522Y-56.388
X54.864Y-152.4
X54.864Y-159.004
X55.321Y-83.676
X55.372Y-78.025
X55.758Y-63.452
X55.892Y-37.618
X56.134Y-144.78
X56.506Y-128.5
X56.637Y-77.983
X56.642Y-118.76
X57.332Y-82.734
X57.417Y-55.114
X57.912Y-76.708
X57.912Y-81.534
X58.166Y-143.219
X58.182Y-135.622
X58.432Y-31.516
X58.634Y-137.769
X59.182Y-50.038
X59.32Y-51.05
X59.825Y-168.78
X60.161Y-75.332
X60.51Y-129.344
X60.546Y-78.613
X60.59Y-56.42
X60.615Y-123.038
X60.863Y-136.311
X61.5Y-140.634
X62.23Y-56.388
X62.802Y-49.758
X63.145Y-141.442
X63.145Y-143.973
X63.5Y-171.196
X63.87Y-138.066
X64.262Y-157.226
X64.374Y-72.723
X64.506Y-170.388
X64.59Y-67.12
X65.12Y-66.049
X65.532Y-131.572
X65.568Y-137.414
X65.694Y-171.108
X65.786Y-135.128
X65.83Y-169.35
X65.872Y-80.602
X66.269Y-123.147
X66.511Y-135.976
X66.548Y-137.922
X66.792Y-172.438
X66.835Y-114.148
X66.845Y-52.923
X66.855Y-63.569
X67.395Y-129.465
X67.434Y-77.684
X67.768Y-122.747
X67.802Y-170.346
X68.014Y-141.129
X68.313Y-171.717
X68.326Y-164.846
X68.743Y-138.975
X68.771Y-79.047
X69.087Y-137.946
X69.088Y-125.984
X69.223Y-119.929
X69.292Y-152.218
X69.576Y-74.348
X70.104Y-163.576
X70.167Y-86.358
X70.298Y-79.938
X70.358Y-127.254
X70.358Y-169.418
X70.462Y-152.208
X70.574Y-117.574
X70.605Y-155.968
X70.667Y-82.054
X70.895Y-118.521
X71.061Y-114.663
X71.07Y-83.502
X71.07Y-113.434
X71.119Y-134.636
X71.119Y-144.343
X71.374Y-164.592
X71.392Y-121.851
X71.418Y-85.511
X71.465Y-174.633
X71.52Y-116.814
X71.679Y-78.636
X71.873Y-152.204
X71.894Y-79.909
X71.91Y-77.615
X72.241Y-125.298
X72.878Y-152.184
X72.935Y-73.902
X73.525Y-144.375
X73.66Y-134.636
X73.66Y-145.542
X73.767Y-127.752
X74.676Y-173.228
X74.905Y-152.112
X75.002Y-145.435
X75.292Y-165.012
X75.292Y-167.578
X75.292Y-170.389
X75.444Y-141.763
X76.383Y-126.291
X76.454Y-134.636
X76.547Y-127.752
X77.47Y-173.482
X77.692Y-143.238
X77.724Y-176.784
X78.193Y-126.55
X78.252Y-144.423
X78.542Y-137.486
X78.711Y-74.408
X78.719Y-134.636
X78.913Y-84.348
X78.994Y-148.844
X79.064Y-116.332
X79.154Y-75.304
X79.502Y-157.226
X79.659Y-81.961
X80.01Y-90.424
X80.182Y-83.496
X80.468Y-89.292
X80.479Y-141.376
X80.481Y-87.601
X80.513Y-137.175
X80.669Y-93.233
X80.815Y-84.271
X80.993Y-126.383
X81.013Y-120.838
X81.219Y-86.487
X81.24Y-69.62
X81.28Y-134.636
X81.288Y-73.856
X81.783Y-81.006
X82.161Y-86.116
X82.162Y-109.838
X82.322Y-103.598
X82.325Y-88.511
X82.594Y-134.636
X82.718Y-83.39
X82.804Y-111.506
X83.058Y-157.988
X83.214Y-116.524
X83.292Y-90.52
X83.312Y-162.56
X83.358Y-150.51
X83.385Y-103.56
X83.611Y-85.83
X83.693Y-96.91
X83.8Y-129.15
X83.812Y-143.138
X83.898Y-86.984
X84.142Y-89.748
X84.247Y-88.706
X84.255Y-82.835
X84.341Y-91.931
X84.38Y-116.452
X84.394Y-114.934
X84.656Y-96.642
X84.97Y-110.22
X85.127Y-92.549
X85.164Y-91.15
X85.507Y-86.4
X85.525Y-83.665
X85.598Y-74.422
X85.75Y-128.75
X85.845Y-114.804
X85.847Y-88.397
X86.106Y-96.52
X86.339Y-131.989
X86.5Y-116.8
X86.513Y-83.824
X86.614Y-91.694
X86.614Y-167.132
X86.779Y-128.754
X86.956Y-114.144
X86.987Y-93.274
X86.99Y-105.0
X86.99Y-105.0
X87.01Y-170.035
X87.093Y-118.837
X87.15Y-122.0
X87.157Y-126.962
X87.227Y-142.974
X87.262Y-96.116
X87.361Y-127.941
X87.468Y-147.738
X87.595Y-117.803
X87.703Y-148.747
X87.739Y-146.002
X88.227Y-142.898
X88.405Y-147.379
X88.5Y-119.775
X88.5Y-135.802
X88.512Y-145.334
X88.578Y-128.875
X88.726Y-149.821
X88.879Y-132.962
X89.378Y-175.71
X89.408Y-173.99
X89.65Y-112.35
X89.652Y-154.778
X89.752Y-144.398
X89.927Y-150.018
X90.002Y-147.873
X91.039Y-154.692
X91.325Y-144.295
X91.418Y-132.962
X91.694Y-155.448
X91.77Y-113.5
X92.072Y-122.218
X92.383Y-120.889
X93.087Y-114.507
X93.958Y-132.962
X93.98Y-122.428
X94.812Y-136.328
X94.98Y-122.455
X95.05Y-115.857
X95.504Y-144.018
X96.093Y-113.114
X96.285Y-140.588
X96.499Y-132.962
X96.774Y-144.018
X98.266Y-149.823
X98.278Y-145.136
X98.534Y-115.941
X99.475Y-149.434
X100.559Y-143.325
X101.287Y-145.283
X101.579Y-132.962
X101.663Y-116.422
X102.091Y-140.987
X102.87Y-122.428
X103.18Y-93.801
X103.495Y-139.562
X103.725Y-101.092
X104.118Y-132.962
X104.488Y-139.444
X104.63Y-115.57
X104.827Y-99.917
X105.264Y-92.106
X106.03Y-104.618
X106.426Y-113.538
X106.611Y-93.505
X106.683Y-98.829
X107.074Y-118.034
X107.405Y-128.326
X107.621Y-90.105
X107.76Y-121.996
X107.825Y-156.551
X107.906Y-113.993
X108.261Y-157.699
X108.388Y-91.139
X108.405Y-128.325
X108.458Y-137.668
X108.477Y-153.574
X108.502Y-164.058
X108.561Y-101.309
X108.57Y-175.951
X108.877Y-160.948
X108.934Y-102.237
X109.003Y-103.459
X109.103Y-150.29
X109.22Y-91.948
X109.407Y-137.984
X109.682Y-156.938
X109.691Y-120.439
X109.729Y-121.438
X109.842Y-114.578
X109.933Y-99.715
X109.972Y-169.002
X110.182Y-153.418
X110.284Y-141.43
X110.404Y-159.4
X110.422Y-138.386
X110.485Y-73.894
X110.508Y-139.382
X110.553Y-149.907
X110.702Y-100.5
X110.9Y-114.527
X111.041Y-167.973
X111.049Y-76.721
X111.333Y-154.519
X111.505Y-134.636
X111.899Y-114.578
X112.321Y-175.951
X112.508Y-149.542
X112.562Y-173.868
X112.605Y-153.056
X112.621Y-98.91
X112.661Y-120.889
X112.796Y-100.302
X112.948Y-141.761
X112.982Y-158.188
X113.022Y-74.226
X113.091Y-167.884
X113.237Y-122.531
X113.321Y-138.035
X113.43Y-154.246
X113.54Y-168.777
X113.698Y-159.38
X113.722Y-121.503
X113.852Y-156.368
X114.224Y-170.173
X114.318Y-167.955
X114.412Y-145.318
X114.856Y-120.749
X114.907Y-154.117
X115.043Y-118.7
X115.605Y-123.46
X115.87Y-75.507
X115.957Y-157.458
X116.304Y-105.9
X116.436Y-146.906
X116.525Y-111.128
X116.552Y-172.418
X116.84Y-136.906
X116.84Y-177.8
X117.027Y-170.77
X117.122Y-173.368
X117.411Y-156.458
X117.439Y-134.975
X117.45Y-100.215
X117.563Y-159.766
X117.754Y-176.723
X117.886Y-168.631
X117.899Y-163.375
X117.935Y-161.193
X117.982Y-158.808
X118.24Y-118.816
X118.452Y-175.798
X118.482Y-167.828
X118.618Y-116.332
X118.975Y-112.686
X119.103Y-156.366
X119.312Y-158.898
X119.38Y-105.243
X119.613Y-154.934
X119.815Y-175.619
X120.002Y-171.971
X120.004Y-167.964
X120.056Y-173.937
X120.209Y-172.949
X120.218Y-170.994
X120.459Y-119.631
X120.593Y-158.752
X120.615Y-156.852
X120.744Y-125.677
X120.829Y-168.644
X120.838Y-174.561
X121.047Y-175.548
X121.059Y-143.451
X121.227Y-148.013
X121.282Y-153.668
X121.29Y-144.508
X121.486Y-159.372
X121.5Y-115.105
X121.532Y-173.707
X121.571Y-156.0
X121.575Y-167.968
X121.92Y-133.096
X121.999Y-126.962
X122.524Y-158.312
X122.552Y-173.028
X122.562Y-153.782
X122.568Y-171.578
X122.571Y-146.466
X122.733Y-176.838
X122.87Y-115.818
X123.015Y-119.664
X123.19Y-104.902
X123.277Y-145.376
X123.442Y-116.638
X123.444Y-112.268
X123.594Y-126.157
X124.31Y-146.619
X124.582Y-112.136
X124.587Y-116.268
X124.707Y-166.583
X124.766Y-169.762
X124.932Y-165.228
X125.418Y-92.402
X125.452Y-152.211
X125.505Y-175.654
X125.582Y-170.528
X125.609Y-167.813
X125.621Y-119.868
X125.814Y-101.915
X125.842Y-103.492
X125.852Y-126.296
X125.942Y-161.898
X125.947Y-154.241
X126.183Y-107.309
X126.253Y-156.684
X126.268Y-75.347
X126.291Y-144.015
X126.318Y-108.3
X126.544Y-159.034
X126.682Y-98.557
X126.713Y-105.58
X126.822Y-94.201
X126.857Y-106.57
X126.9Y-112.168
X126.937Y-154.098
X127.05Y-155.236
X127.112Y-121.7
X127.117Y-169.52
X127.245Y-102.248
X127.245Y-103.437
X127.472Y-159.405
X127.556Y-86.571
X127.749Y-157.276
X128.013Y-168.832
X128.031Y-155.041
X128.151Y-100.932
X128.229Y-119.664
X128.25Y-126.296
X128.267Y-158.131
X128.567Y-92.509
X128.897Y-144.63
X128.924Y-159.133
X129.234Y-113.529
X129.746Y-135.539
X130.16Y-122.161
X130.475Y-77.95
X130.49Y-159.441
X130.678Y-126.439
X130.896Y-82.804
X131.0Y-115.6
X131.445Y-168.26
X131.826Y-114.554
X132.029Y-172.375
X132.375Y-77.483
X132.847Y-74.417
X132.85Y-119.45
X132.959Y-166.772
X133.002Y-164.069
X133.251Y-159.182
X133.347Y-161.76
X133.35Y-141.899
X133.572Y-169.018
X133.723Y-154.992
X133.844Y-171.057
X133.925Y-167.972
X133.976Y-160.04
X134.07Y-172.414
X134.322Y-144.018
X134.732Y-156.715
X135.086Y-169.738
X135.138Y-126.464
X135.529Y-124.61
X135.731Y-74.48
X135.745Y-66.347
X135.787Y-157.781
X135.816Y-156.667
X136.593Y-153.716
X136.652Y-137.668
X136.951Y-156.813
X137.063Y-168.012
X137.104Y-144.881
X137.196Y-134.965
X137.312Y-152.368
X137.649Y-158.55
X138.14Y-151.733
X138.152Y-159.414
X138.238Y-118.088
X138.356Y-126.657
X138.648Y-168.12
X138.684Y-149.86
X138.849Y-145.581
X138.873Y-170.02
X138.928Y-85.153
X139.086Y-74.279
X139.146Y-154.562
X139.192Y-123.444
X139.442Y-159.268
X139.734Y-156.059
X140.026Y-152.183
X140.049Y-157.01
X140.208Y-125.73
X140.254Y-76.488
X140.303Y-73.675
X140.385Y-164.637
X140.605Y-154.831
X140.736Y-116.52
X140.924Y-162.011
X141.224Y-138.938
X141.414Y-134.758
X141.478Y-141.474
X141.867Y-163.746
X142.591Y-150.405
X143.159Y-65.616
X143.614Y-35.303
X143.802Y-163.008
X144.004Y-140.671
X144.018Y-144.018
X144.021Y-139.663
X144.092Y-152.338
X144.102Y-148.778
X144.78Y-135.382
X144.78Y-136.906
X145.034Y-33.782
X145.468Y-143.293
X145.47Y-114.907
X145.645Y-138.728
X146.304Y-135.128
X146.338Y-142.25
X146.467Y-143.241
X147.066Y-138.176
X147.066Y-139.7
X147.129Y-127.776
X147.51Y-155.947
X147.872Y-159.127
X148.111Y-145.955
X148.177Y-142.364
X148.59Y-125.73
X149.196Y-149.959
X149.344Y-148.008
X149.352Y-143.962
X149.672Y-142.793
X149.748Y-76.218
X149.92Y-147.191
X150.321Y-134.728
X150.558Y-160.358
X150.627Y-137.419
X151.276Y-142.42
X151.384Y-116.332
X151.696Y-65.796
X151.816Y-152.494
X151.892Y-119.888
X151.892Y-125.984
X151.924Y-127.746
X152.321Y-73.676
X152.527Y-149.987
X153.416Y-153.67
X153.484Y-155.411
X153.627Y-134.636
X153.924Y-159.004
X154.637Y-73.701
X154.686Y-143.764
X154.686Y-154.686
X155.463Y-74.287
X156.22Y-50.803
X157.874Y-142.603
X158.496Y-148.59
X160.274Y-47.244
X160.782Y-151.892
X160.899Y-145.529
X161.143Y-150.111
X162.814Y-50.292
X165.514Y-144.963
T3
X31.382Y-61.85
X31.382Y-138.15
X32.652Y-59.65
X32.652Y-140.35
X41.723Y-152.608
X43.455Y-154.466
X44.556Y-44.414
X46.383Y-42.65
X55.051Y-164.369
X57.156Y-165.79
X62.025Y-31.285
X64.268Y-30.092
X70.682Y-172.831
X73.054Y-173.741
X87.817Y-177.559
X90.333Y-177.913
X109.667Y-177.913
X112.183Y-177.559
X126.946Y-173.741
X129.318Y-172.831
X135.732Y-30.092
X137.975Y-31.285
X142.844Y-165.79
X144.949Y-164.369
X153.617Y-42.65
X155.444Y-44.414
X156.545Y-154.466
X158.277Y-152.608
X167.348Y-59.65
X167.348Y-140.35
X168.618Y-61.85
X168.618Y-138.15
T4
X40.64Y-67.31
X40.64Y-72.39
X47.498Y-140.716
X47.498Y-143.51
X47.498Y-146.304
X47.498Y-149.098
X47.498Y-151.892
X60.706Y-58.166
X63.246Y-47.752
X66.802Y-116.332
X66.802Y-118.872
X66.802Y-121.412
X67.564Y-33.274
X124.46Y-90.17
X132.842Y-28.956
X133.35Y-85.09
X154.94Y-145.796
T6
X70.354Y-147.678
X72.701Y-148.65
X75.047Y-149.622
X77.394Y-150.594
X96.19Y-138.0
X98.73Y-138.0
X101.27Y-138.0
X103.81Y-138.0
X122.606Y-150.594
X124.953Y-149.622
X127.299Y-148.65
X129.646Y-147.678
T7
X48.514Y-61.722
X48.768Y-137.414
X49.1Y-67.76
X49.1Y-70.3
X51.054Y-61.722
X51.308Y-137.414
X51.64Y-67.76
X51.64Y-70.3
X54.18Y-67.76
X54.18Y-70.3
X54.356Y-141.478
X55.118Y-122.174
X55.626Y-115.57
X56.312Y-45.798
X56.72Y-67.76
X56.72Y-70.3
X56.896Y-141.478
X57.658Y-122.174
X58.166Y-115.57
X58.42Y-156.718
X58.42Y-159.258
X58.42Y-161.798
X58.852Y-45.798
X59.26Y-67.76
X59.26Y-70.3
X59.436Y-141.478
X61.8Y-67.76
X61.8Y-70.3
X72.752Y-159.148
X75.292Y-159.148
X77.832Y-159.148
X83.48Y-98.54
X86.02Y-98.54
X91.142Y-162.608
X91.142Y-165.148
X106.03Y-96.39
X111.03Y-96.39
X119.38Y-136.906
X119.38Y-139.446
X119.38Y-141.986
X119.38Y-144.526
X120.698Y-96.657
X123.19Y-136.906
X123.19Y-139.446
X123.19Y-141.986
X123.238Y-96.657
X135.128Y-136.144
X135.128Y-138.684
X135.128Y-141.224
X138.938Y-136.144
X138.938Y-138.684
X138.938Y-141.224
X142.24Y-152.654
X142.24Y-155.194
X142.24Y-157.734
X143.8Y-76.61
X143.8Y-81.61
X145.47Y-117.91
X145.47Y-122.91
X146.03Y-152.654
X146.03Y-155.194
X146.03Y-157.734
X149.86Y-152.654
X149.86Y-155.194
X149.86Y-157.734
X151.892Y-135.89
X151.892Y-138.43
X151.892Y-140.97
X153.924Y-115.57
X153.924Y-119.38
X155.702Y-135.89
X155.702Y-138.43
X155.702Y-140.97
X156.464Y-115.57
X156.464Y-119.38
X159.004Y-115.57
X159.004Y-119.38
X159.512Y-130.302
X159.512Y-132.842
X159.512Y-135.382
T8
X50.419Y-133.35
X52.959Y-133.35
X54.864Y-125.73
X55.499Y-133.35
X57.114Y-60.788
X57.404Y-125.73
X58.674Y-133.35
X59.605Y-61.282
X59.944Y-125.73
X61.214Y-133.35
X62.097Y-61.775
X62.189Y-148.402
X62.484Y-125.73
X63.7Y-78.54
X63.7Y-81.08
X63.7Y-83.62
X63.7Y-116.38
X63.7Y-118.92
X63.7Y-121.46
X63.754Y-133.35
X63.985Y-150.198
X64.589Y-62.269
X65.781Y-151.994
X66.294Y-133.35
X67.577Y-153.79
X69.828Y-68.976
X69.828Y-71.516
X69.828Y-129.936
X69.828Y-132.476
X72.368Y-68.976
X72.368Y-71.516
X72.368Y-129.936
X72.368Y-132.476
X74.23Y-75.87
X74.23Y-78.41
X74.23Y-80.95
X74.23Y-83.49
X74.23Y-86.03
X74.23Y-88.57
X74.23Y-91.11
X74.23Y-93.65
X74.23Y-96.19
X74.23Y-98.73
X74.23Y-101.27
X74.23Y-103.81
X74.23Y-106.35
X74.23Y-108.89
X74.23Y-111.43
X74.23Y-113.97
X74.23Y-116.51
X74.23Y-119.05
X74.23Y-121.59
X74.23Y-124.13
X74.909Y-68.976
X74.909Y-71.516
X74.909Y-129.936
X74.909Y-132.476
X76.77Y-75.87
X76.77Y-78.41
X76.77Y-80.95
X76.77Y-83.49
X76.77Y-86.03
X76.77Y-88.57
X76.77Y-91.11
X76.77Y-93.65
X76.77Y-96.19
X76.77Y-98.73
X76.77Y-101.27
X76.77Y-103.81
X76.77Y-106.35
X76.77Y-108.89
X76.77Y-111.43
X76.77Y-113.97
X76.77Y-116.51
X76.77Y-119.05
X76.77Y-121.59
X76.77Y-124.13
X77.448Y-68.976
X77.448Y-71.516
X77.448Y-129.936
X77.448Y-132.476
X79.989Y-68.976
X79.989Y-71.516
X79.989Y-129.936
X79.989Y-132.476
X82.528Y-68.976
X82.528Y-71.516
X82.528Y-129.936
X82.528Y-132.476
X85.069Y-68.976
X85.069Y-71.516
X85.069Y-129.936
X85.069Y-132.476
X87.608Y-68.976
X87.608Y-71.516
X87.608Y-129.936
X87.608Y-132.476
X90.148Y-68.976
X90.148Y-71.516
X90.148Y-129.936
X90.148Y-132.476
X92.688Y-68.976
X92.688Y-71.516
X92.688Y-129.936
X92.688Y-132.476
X95.228Y-68.976
X95.228Y-71.516
X95.228Y-129.936
X95.228Y-132.476
X97.768Y-68.976
X97.768Y-71.516
X97.768Y-129.936
X97.768Y-132.476
X100.308Y-68.976
X100.308Y-71.516
X100.308Y-129.936
X100.308Y-132.476
X102.815Y-143.69
X102.815Y-146.23
X102.849Y-68.976
X102.849Y-71.516
X102.849Y-129.936
X102.849Y-132.476
X105.355Y-143.69
X105.355Y-146.23
X105.388Y-68.976
X105.388Y-71.516
X105.388Y-129.936
X105.388Y-132.476
X107.895Y-143.69
X107.895Y-146.23
X107.928Y-68.976
X107.928Y-71.516
X107.928Y-129.936
X107.928Y-132.476
X110.435Y-143.69
X110.435Y-146.23
X110.468Y-68.976
X110.468Y-71.516
X110.468Y-129.936
X110.468Y-132.476
X113.008Y-68.976
X113.008Y-71.516
X113.008Y-129.936
X113.008Y-132.476
X115.548Y-68.976
X115.548Y-71.516
X115.548Y-129.936
X115.548Y-132.476
X115.67Y-93.28
X118.088Y-68.976
X118.088Y-71.516
X118.088Y-129.936
X118.088Y-132.476
X118.17Y-123.72
X118.21Y-93.28
X120.628Y-68.976
X120.628Y-71.516
X120.628Y-129.936
X120.628Y-132.476
X120.71Y-123.72
X120.75Y-93.28
X123.168Y-68.976
X123.168Y-71.516
X123.168Y-129.936
X123.168Y-132.476
X123.25Y-123.72
X123.29Y-93.28
X125.709Y-68.976
X125.709Y-71.516
X125.709Y-129.936
X125.709Y-132.476
X125.79Y-123.72
X128.249Y-68.976
X128.249Y-71.516
X128.249Y-129.936
X128.249Y-132.476
X128.33Y-123.72
X130.788Y-68.976
X130.788Y-71.516
X130.788Y-129.936
X130.788Y-132.476
X132.423Y-153.79
X133.328Y-68.976
X133.328Y-71.516
X133.328Y-129.936
X133.328Y-132.476
X134.219Y-151.994
X135.411Y-62.269
X135.868Y-68.976
X135.868Y-71.516
X135.868Y-129.936
X135.868Y-132.476
X136.015Y-150.198
X136.3Y-78.54
X136.3Y-81.08
X136.3Y-83.62
X136.3Y-116.38
X136.3Y-118.92
X136.3Y-121.46
X137.811Y-148.402
X137.903Y-61.775
X138.409Y-68.976
X138.409Y-71.516
X138.409Y-129.936
X138.409Y-132.476
X140.395Y-61.282
X140.948Y-68.976
X140.948Y-71.516
X140.948Y-129.936
X140.948Y-132.476
X142.886Y-60.788
X143.488Y-68.976
X143.488Y-71.516
X143.488Y-129.936
X143.488Y-132.476
X146.028Y-68.976
X146.028Y-71.516
X146.028Y-129.936
X146.028Y-132.476
X148.569Y-68.976
X148.569Y-71.516
X148.569Y-129.936
X148.569Y-132.476
X151.108Y-68.976
X151.108Y-71.516
X151.108Y-129.936
X151.108Y-132.476
X153.648Y-68.976
X153.648Y-71.516
X153.648Y-129.936
X153.648Y-132.476
X156.189Y-68.976
X156.189Y-71.516
X156.189Y-129.936
X156.189Y-132.476
T9
X39.848Y-114.134
X39.848Y-125.134
X41.118Y-127.378
X41.118Y-138.378
T10
X116.6Y-126.6
X127.5Y-90.3
T11
X48.0Y-47.0
X48.173Y-118.761
X55.827Y-137.239
X68.0Y-47.0
X133.0Y-124.25
X137.75Y-55.0
X147.75Y-65.0
X147.75Y-85.0
X153.0Y-124.25
X157.75Y-55.0
T12
X86.0Y-135.5
X86.0Y-150.5
X114.7Y-135.5
X114.7Y-150.5
T13
X56.857Y-57.76
X58.99Y-147.0
X65.98Y-59.566
X67.835Y-145.26
X68.979Y-156.988
X80.885Y-150.666
X92.937Y-139.27
X107.063Y-139.27
X119.115Y-150.666
X131.021Y-156.988
X132.165Y-145.26
X134.02Y-59.566
X141.01Y-147.0
X143.143Y-57.76
T14
X37.832Y-58.058
X37.832Y-141.942
X50.856Y-126.485
X66.25Y-38.405
X66.492Y-126.485
X133.75Y-38.405
X162.168Y-58.058
X162.168Y-141.942
T15
X83.798Y-77.866
X83.798Y-123.586
X107.928Y-109.616
X158.728Y-124.856
X159.998Y-76.596
T5
G00X39.678Y-115.784
M15
G01X39.678Y-115.284
M16
G05
G00X39.678Y-123.984
M15
G01X39.678Y-123.484
M16
G05
G00X40.948Y-129.028
M15
G01X40.948Y-128.528
M16
G05
G00X40.948Y-137.228
M15
G01X40.948Y-136.728
M16
G05
G00X42.618Y-115.784
M15
G01X42.618Y-115.284
M16
G05
G00X42.618Y-123.984
M15
G01X42.618Y-123.484
M16
G05
G00X43.888Y-129.028
M15
G01X43.888Y-128.528
M16
G05
G00X43.888Y-137.228
M15
G01X43.888Y-136.728
M16
G05
T0
M30
