%TF.GenerationSoftware,KiCad,Pcbnew,5.1.9-73d0e3b20d~88~ubuntu20.04.1*%
%TF.CreationDate,2021-04-02T21:19:43-07:00*%
%TF.ProjectId,wow_fix,776f775f-6669-4782-9e6b-696361645f70,A*%
%TF.SameCoordinates,Original*%
%TF.FileFunction,Legend,Top*%
%TF.FilePolarity,Positive*%
%FSLAX46Y46*%
G04 Gerber Fmt 4.6, Leading zero omitted, Abs format (unit mm)*
G04 Created by KiCad (PCBNEW 5.1.9-73d0e3b20d~88~ubuntu20.04.1) date 2021-04-02 21:19:43*
%MOMM*%
%LPD*%
G01*
G04 APERTURE LIST*
%ADD10C,0.150000*%
%ADD11C,0.120000*%
G04 APERTURE END LIST*
D10*
X97144285Y-106436785D02*
X97322857Y-107186785D01*
X97465714Y-106651071D01*
X97608571Y-107186785D01*
X97787142Y-106436785D01*
X98215714Y-106436785D02*
X98358571Y-106436785D01*
X98430000Y-106472500D01*
X98501428Y-106543928D01*
X98537142Y-106686785D01*
X98537142Y-106936785D01*
X98501428Y-107079642D01*
X98430000Y-107151071D01*
X98358571Y-107186785D01*
X98215714Y-107186785D01*
X98144285Y-107151071D01*
X98072857Y-107079642D01*
X98037142Y-106936785D01*
X98037142Y-106686785D01*
X98072857Y-106543928D01*
X98144285Y-106472500D01*
X98215714Y-106436785D01*
X98787142Y-106436785D02*
X98965714Y-107186785D01*
X99108571Y-106651071D01*
X99251428Y-107186785D01*
X99430000Y-106436785D01*
X99537142Y-107258214D02*
X100108571Y-107258214D01*
X100537142Y-106793928D02*
X100287142Y-106793928D01*
X100287142Y-107186785D02*
X100287142Y-106436785D01*
X100644285Y-106436785D01*
X100930000Y-107186785D02*
X100930000Y-106436785D01*
X101215714Y-106436785D02*
X101715714Y-107186785D01*
X101715714Y-106436785D02*
X101215714Y-107186785D01*
X98215714Y-108461785D02*
X97965714Y-108104642D01*
X97787142Y-108461785D02*
X97787142Y-107711785D01*
X98072857Y-107711785D01*
X98144285Y-107747500D01*
X98180000Y-107783214D01*
X98215714Y-107854642D01*
X98215714Y-107961785D01*
X98180000Y-108033214D01*
X98144285Y-108068928D01*
X98072857Y-108104642D01*
X97787142Y-108104642D01*
X98537142Y-108068928D02*
X98787142Y-108068928D01*
X98894285Y-108461785D02*
X98537142Y-108461785D01*
X98537142Y-107711785D01*
X98894285Y-107711785D01*
X99108571Y-107711785D02*
X99358571Y-108461785D01*
X99608571Y-107711785D01*
X100394285Y-108247500D02*
X100751428Y-108247500D01*
X100322857Y-108461785D02*
X100572857Y-107711785D01*
X100822857Y-108461785D01*
X101072857Y-108390357D02*
X101108571Y-108426071D01*
X101072857Y-108461785D01*
X101037142Y-108426071D01*
X101072857Y-108390357D01*
X101072857Y-108461785D01*
X96822857Y-109736785D02*
X96394285Y-109736785D01*
X96608571Y-109736785D02*
X96608571Y-108986785D01*
X96537142Y-109093928D01*
X96465714Y-109165357D01*
X96394285Y-109201071D01*
X97465714Y-109236785D02*
X97465714Y-109736785D01*
X97287142Y-108951071D02*
X97108571Y-109486785D01*
X97572857Y-109486785D01*
X98108571Y-109343928D02*
X97858571Y-109343928D01*
X97858571Y-109736785D02*
X97858571Y-108986785D01*
X98215714Y-108986785D01*
X98501428Y-109343928D02*
X98751428Y-109343928D01*
X98858571Y-109736785D02*
X98501428Y-109736785D01*
X98501428Y-108986785D01*
X98858571Y-108986785D01*
X99430000Y-109343928D02*
X99537142Y-109379642D01*
X99572857Y-109415357D01*
X99608571Y-109486785D01*
X99608571Y-109593928D01*
X99572857Y-109665357D01*
X99537142Y-109701071D01*
X99465714Y-109736785D01*
X99180000Y-109736785D01*
X99180000Y-108986785D01*
X99430000Y-108986785D01*
X99501428Y-109022500D01*
X99537142Y-109058214D01*
X99572857Y-109129642D01*
X99572857Y-109201071D01*
X99537142Y-109272500D01*
X99501428Y-109308214D01*
X99430000Y-109343928D01*
X99180000Y-109343928D01*
X99894285Y-109058214D02*
X99930000Y-109022500D01*
X100001428Y-108986785D01*
X100180000Y-108986785D01*
X100251428Y-109022500D01*
X100287142Y-109058214D01*
X100322857Y-109129642D01*
X100322857Y-109201071D01*
X100287142Y-109308214D01*
X99858571Y-109736785D01*
X100322857Y-109736785D01*
X100787142Y-108986785D02*
X100858571Y-108986785D01*
X100930000Y-109022500D01*
X100965714Y-109058214D01*
X101001428Y-109129642D01*
X101037142Y-109272500D01*
X101037142Y-109451071D01*
X101001428Y-109593928D01*
X100965714Y-109665357D01*
X100930000Y-109701071D01*
X100858571Y-109736785D01*
X100787142Y-109736785D01*
X100715714Y-109701071D01*
X100680000Y-109665357D01*
X100644285Y-109593928D01*
X100608571Y-109451071D01*
X100608571Y-109272500D01*
X100644285Y-109129642D01*
X100680000Y-109058214D01*
X100715714Y-109022500D01*
X100787142Y-108986785D01*
X101322857Y-109058214D02*
X101358571Y-109022500D01*
X101430000Y-108986785D01*
X101608571Y-108986785D01*
X101680000Y-109022500D01*
X101715714Y-109058214D01*
X101751428Y-109129642D01*
X101751428Y-109201071D01*
X101715714Y-109308214D01*
X101287142Y-109736785D01*
X101751428Y-109736785D01*
X102037142Y-109058214D02*
X102072857Y-109022500D01*
X102144285Y-108986785D01*
X102322857Y-108986785D01*
X102394285Y-109022500D01*
X102430000Y-109058214D01*
X102465714Y-109129642D01*
X102465714Y-109201071D01*
X102430000Y-109308214D01*
X102001428Y-109736785D01*
X102465714Y-109736785D01*
X96144285Y-111011785D02*
X96144285Y-110261785D01*
X96394285Y-110797500D01*
X96644285Y-110261785D01*
X96644285Y-111011785D01*
X97001428Y-111011785D02*
X97001428Y-110261785D01*
X97251428Y-110261785D02*
X97680000Y-110261785D01*
X97465714Y-111011785D02*
X97465714Y-110261785D01*
X98858571Y-111011785D02*
X98501428Y-111011785D01*
X98501428Y-110261785D01*
X99108571Y-111011785D02*
X99108571Y-110261785D01*
X99894285Y-110940357D02*
X99858571Y-110976071D01*
X99751428Y-111011785D01*
X99680000Y-111011785D01*
X99572857Y-110976071D01*
X99501428Y-110904642D01*
X99465714Y-110833214D01*
X99430000Y-110690357D01*
X99430000Y-110583214D01*
X99465714Y-110440357D01*
X99501428Y-110368928D01*
X99572857Y-110297500D01*
X99680000Y-110261785D01*
X99751428Y-110261785D01*
X99858571Y-110297500D01*
X99894285Y-110333214D01*
X100215714Y-110618928D02*
X100465714Y-110618928D01*
X100572857Y-111011785D02*
X100215714Y-111011785D01*
X100215714Y-110261785D01*
X100572857Y-110261785D01*
X100894285Y-111011785D02*
X100894285Y-110261785D01*
X101322857Y-111011785D01*
X101322857Y-110261785D01*
X101644285Y-110976071D02*
X101751428Y-111011785D01*
X101930000Y-111011785D01*
X102001428Y-110976071D01*
X102037142Y-110940357D01*
X102072857Y-110868928D01*
X102072857Y-110797500D01*
X102037142Y-110726071D01*
X102001428Y-110690357D01*
X101930000Y-110654642D01*
X101787142Y-110618928D01*
X101715714Y-110583214D01*
X101680000Y-110547500D01*
X101644285Y-110476071D01*
X101644285Y-110404642D01*
X101680000Y-110333214D01*
X101715714Y-110297500D01*
X101787142Y-110261785D01*
X101965714Y-110261785D01*
X102072857Y-110297500D01*
X102394285Y-110618928D02*
X102644285Y-110618928D01*
X102751428Y-111011785D02*
X102394285Y-111011785D01*
X102394285Y-110261785D01*
X102751428Y-110261785D01*
D11*
%TO.C,CN1*%
X86670000Y-108030000D02*
X91870000Y-108030000D01*
X86670000Y-95270000D02*
X86670000Y-108030000D01*
X91870000Y-92670000D02*
X91870000Y-108030000D01*
X86670000Y-95270000D02*
X89270000Y-95270000D01*
X89270000Y-95270000D02*
X89270000Y-92670000D01*
X89270000Y-92670000D02*
X91870000Y-92670000D01*
X86670000Y-94000000D02*
X86670000Y-92670000D01*
X86670000Y-92670000D02*
X88000000Y-92670000D01*
D10*
X84870000Y-90220000D02*
X84870000Y-98100000D01*
X84870000Y-90220000D02*
X93670000Y-90220000D01*
X93670000Y-90220000D02*
X93670000Y-110500000D01*
X84870000Y-110500000D02*
X93670000Y-110500000D01*
X84870000Y-102600000D02*
X84870000Y-110500000D01*
X84571980Y-89980000D02*
G75*
G03*
X84571980Y-89980000I-101980J0D01*
G01*
X85372142Y-89697857D02*
X85336428Y-89733571D01*
X85229285Y-89769285D01*
X85157857Y-89769285D01*
X85050714Y-89733571D01*
X84979285Y-89662142D01*
X84943571Y-89590714D01*
X84907857Y-89447857D01*
X84907857Y-89340714D01*
X84943571Y-89197857D01*
X84979285Y-89126428D01*
X85050714Y-89055000D01*
X85157857Y-89019285D01*
X85229285Y-89019285D01*
X85336428Y-89055000D01*
X85372142Y-89090714D01*
X85693571Y-89769285D02*
X85693571Y-89019285D01*
X86122142Y-89769285D01*
X86122142Y-89019285D01*
X86872142Y-89769285D02*
X86443571Y-89769285D01*
X86657857Y-89769285D02*
X86657857Y-89019285D01*
X86586428Y-89126428D01*
X86515000Y-89197857D01*
X86443571Y-89233571D01*
%TD*%
M02*
