M48
; DRILL file {KiCad 5.1.9-73d0e3b20d~88~ubuntu20.04.1} date Fri Apr  2 21:19:39 2021
; FORMAT={-:-/ absolute / metric / decimal}
; #@! TF.CreationDate,2021-04-02T21:19:39-07:00
; #@! TF.GenerationSoftware,Kicad,Pcbnew,5.1.9-73d0e3b20d~88~ubuntu20.04.1
; #@! TF.FileFunction,Plated,1,2,PTH
FMAT,2
METRIC
T1C0.400
T2C1.000
%
G90
G05
T1
X99.98Y-95.69
X99.98Y-92.42
X99.98Y-100.09
X99.98Y-105.52
X99.98Y-108.01
T2
X88.0Y-94.0
X88.0Y-96.54
X88.0Y-99.08
X88.0Y-101.62
X88.0Y-104.16
X88.0Y-106.7
X90.54Y-94.0
X90.54Y-96.54
X90.54Y-99.08
X90.54Y-101.62
X90.54Y-104.16
X90.54Y-106.7
X109.46Y-94.0
X109.46Y-96.54
X109.46Y-99.08
X109.46Y-101.62
X109.46Y-104.16
X109.46Y-106.7
X112.0Y-94.0
X112.0Y-96.54
X112.0Y-99.08
X112.0Y-101.62
X112.0Y-104.16
X112.0Y-106.7
T0
M30
