%TF.GenerationSoftware,KiCad,Pcbnew,5.1.9-73d0e3b20d~88~ubuntu20.04.1*%
%TF.CreationDate,2020-12-30T10:17:16-08:00*%
%TF.ProjectId,encoder,656e636f-6465-4722-9e6b-696361645f70,rev?*%
%TF.SameCoordinates,Original*%
%TF.FileFunction,Profile,NP*%
%FSLAX46Y46*%
G04 Gerber Fmt 4.6, Leading zero omitted, Abs format (unit mm)*
G04 Created by KiCad (PCBNEW 5.1.9-73d0e3b20d~88~ubuntu20.04.1) date 2020-12-30 10:17:16*
%MOMM*%
%LPD*%
G01*
G04 APERTURE LIST*
%TA.AperFunction,Profile*%
%ADD10C,0.050000*%
%TD*%
G04 APERTURE END LIST*
D10*
X92500000Y-76000000D02*
X92370000Y-76010000D01*
X92370000Y-76010000D02*
X92240000Y-76020000D01*
X92240000Y-76020000D02*
X92110000Y-76050000D01*
X92110000Y-76050000D02*
X91990000Y-76090000D01*
X91990000Y-76090000D02*
X91870000Y-76140000D01*
X91870000Y-76140000D02*
X91750000Y-76200000D01*
X91750000Y-76200000D02*
X91640000Y-76270000D01*
X91640000Y-76270000D02*
X91540000Y-76350000D01*
X91540000Y-76350000D02*
X91440000Y-76440000D01*
X91440000Y-76440000D02*
X91350000Y-76540000D01*
X91350000Y-76540000D02*
X91270000Y-76640000D01*
X91270000Y-76640000D02*
X91200000Y-76750000D01*
X91200000Y-76750000D02*
X91140000Y-76870000D01*
X91140000Y-76870000D02*
X91090000Y-76990000D01*
X91090000Y-76990000D02*
X91050000Y-77110000D01*
X91050000Y-77110000D02*
X91020000Y-77240000D01*
X91020000Y-77240000D02*
X91010000Y-77370000D01*
X91010000Y-77370000D02*
X91000000Y-77500000D01*
X91000000Y-77500000D02*
X91000000Y-122500000D01*
X91000000Y-122500000D02*
X91010000Y-122630000D01*
X91010000Y-122630000D02*
X91020000Y-122760000D01*
X91020000Y-122760000D02*
X91050000Y-122890000D01*
X91050000Y-122890000D02*
X91090000Y-123010000D01*
X91090000Y-123010000D02*
X91140000Y-123130000D01*
X91140000Y-123130000D02*
X91200000Y-123250000D01*
X91200000Y-123250000D02*
X91270000Y-123360000D01*
X91270000Y-123360000D02*
X91350000Y-123460000D01*
X91350000Y-123460000D02*
X91440000Y-123560000D01*
X91440000Y-123560000D02*
X91540000Y-123650000D01*
X91540000Y-123650000D02*
X91640000Y-123730000D01*
X91640000Y-123730000D02*
X91750000Y-123800000D01*
X91750000Y-123800000D02*
X91870000Y-123860000D01*
X91870000Y-123860000D02*
X91990000Y-123910000D01*
X91990000Y-123910000D02*
X92110000Y-123950000D01*
X92110000Y-123950000D02*
X92240000Y-123980000D01*
X92240000Y-123980000D02*
X92370000Y-123990000D01*
X92370000Y-123990000D02*
X92500000Y-124000000D01*
X92500000Y-124000000D02*
X96000000Y-124000000D01*
X96000000Y-124000000D02*
X96130000Y-123990000D01*
X96130000Y-123990000D02*
X96260000Y-123980000D01*
X96260000Y-123980000D02*
X96390000Y-123950000D01*
X96390000Y-123950000D02*
X96510000Y-123910000D01*
X96510000Y-123910000D02*
X96630000Y-123860000D01*
X96630000Y-123860000D02*
X96750000Y-123800000D01*
X96750000Y-123800000D02*
X96860000Y-123730000D01*
X96860000Y-123730000D02*
X96960000Y-123650000D01*
X96960000Y-123650000D02*
X97060000Y-123560000D01*
X97060000Y-123560000D02*
X97150000Y-123460000D01*
X97150000Y-123460000D02*
X97230000Y-123360000D01*
X97230000Y-123360000D02*
X97300000Y-123250000D01*
X97300000Y-123250000D02*
X97360000Y-123130000D01*
X97360000Y-123130000D02*
X97410000Y-123010000D01*
X97410000Y-123010000D02*
X97450000Y-122890000D01*
X97450000Y-122890000D02*
X97480000Y-122760000D01*
X97480000Y-122760000D02*
X97490000Y-122630000D01*
X97490000Y-122630000D02*
X97500000Y-122500000D01*
X97500000Y-122500000D02*
X97500000Y-112800000D01*
X97500000Y-112800000D02*
X97510000Y-112670000D01*
X97510000Y-112670000D02*
X97520000Y-112540000D01*
X97520000Y-112540000D02*
X97550000Y-112410000D01*
X97550000Y-112410000D02*
X97590000Y-112290000D01*
X97590000Y-112290000D02*
X97640000Y-112170000D01*
X97640000Y-112170000D02*
X97700000Y-112050000D01*
X97700000Y-112050000D02*
X97770000Y-111940000D01*
X97770000Y-111940000D02*
X97850000Y-111840000D01*
X97850000Y-111840000D02*
X97940000Y-111740000D01*
X97940000Y-111740000D02*
X98040000Y-111650000D01*
X98040000Y-111650000D02*
X98140000Y-111570000D01*
X98140000Y-111570000D02*
X98250000Y-111500000D01*
X98250000Y-111500000D02*
X98370000Y-111440000D01*
X98370000Y-111440000D02*
X98490000Y-111390000D01*
X98490000Y-111390000D02*
X98610000Y-111350000D01*
X98610000Y-111350000D02*
X98740000Y-111320000D01*
X98740000Y-111320000D02*
X98870000Y-111310000D01*
X98870000Y-111310000D02*
X99000000Y-111300000D01*
X99000000Y-111300000D02*
X104250000Y-111300000D01*
X104250000Y-111300000D02*
X104380000Y-111290000D01*
X104380000Y-111290000D02*
X104510000Y-111280000D01*
X104510000Y-111280000D02*
X104640000Y-111250000D01*
X104640000Y-111250000D02*
X104760000Y-111210000D01*
X104760000Y-111210000D02*
X104880000Y-111160000D01*
X104880000Y-111160000D02*
X105000000Y-111100000D01*
X105000000Y-111100000D02*
X105110000Y-111030000D01*
X105110000Y-111030000D02*
X105210000Y-110950000D01*
X105210000Y-110950000D02*
X105310000Y-110860000D01*
X105310000Y-110860000D02*
X105400000Y-110760000D01*
X105400000Y-110760000D02*
X105480000Y-110660000D01*
X105480000Y-110660000D02*
X105550000Y-110550000D01*
X105550000Y-110550000D02*
X105610000Y-110430000D01*
X105610000Y-110430000D02*
X105660000Y-110310000D01*
X105660000Y-110310000D02*
X105700000Y-110190000D01*
X105700000Y-110190000D02*
X105730000Y-110060000D01*
X105730000Y-110060000D02*
X105740000Y-109930000D01*
X105740000Y-109930000D02*
X105750000Y-109800000D01*
X105750000Y-109800000D02*
X105750000Y-90200000D01*
X105750000Y-90200000D02*
X105740000Y-90070000D01*
X105740000Y-90070000D02*
X105730000Y-89940000D01*
X105730000Y-89940000D02*
X105700000Y-89810000D01*
X105700000Y-89810000D02*
X105660000Y-89690000D01*
X105660000Y-89690000D02*
X105610000Y-89570000D01*
X105610000Y-89570000D02*
X105550000Y-89450000D01*
X105550000Y-89450000D02*
X105480000Y-89340000D01*
X105480000Y-89340000D02*
X105400000Y-89240000D01*
X105400000Y-89240000D02*
X105310000Y-89140000D01*
X105310000Y-89140000D02*
X105210000Y-89050000D01*
X105210000Y-89050000D02*
X105110000Y-88970000D01*
X105110000Y-88970000D02*
X105000000Y-88900000D01*
X105000000Y-88900000D02*
X104880000Y-88840000D01*
X104880000Y-88840000D02*
X104760000Y-88790000D01*
X104760000Y-88790000D02*
X104640000Y-88750000D01*
X104640000Y-88750000D02*
X104510000Y-88720000D01*
X104510000Y-88720000D02*
X104380000Y-88710000D01*
X104380000Y-88710000D02*
X104250000Y-88700000D01*
X104250000Y-88700000D02*
X99000000Y-88700000D01*
X99000000Y-88700000D02*
X98870000Y-88690000D01*
X98870000Y-88690000D02*
X98740000Y-88680000D01*
X98740000Y-88680000D02*
X98610000Y-88650000D01*
X98610000Y-88650000D02*
X98490000Y-88610000D01*
X98490000Y-88610000D02*
X98370000Y-88560000D01*
X98370000Y-88560000D02*
X98250000Y-88500000D01*
X98250000Y-88500000D02*
X98140000Y-88430000D01*
X98140000Y-88430000D02*
X98040000Y-88350000D01*
X98040000Y-88350000D02*
X97940000Y-88260000D01*
X97940000Y-88260000D02*
X97850000Y-88160000D01*
X97850000Y-88160000D02*
X97770000Y-88060000D01*
X97770000Y-88060000D02*
X97700000Y-87950000D01*
X97700000Y-87950000D02*
X97640000Y-87830000D01*
X97640000Y-87830000D02*
X97590000Y-87710000D01*
X97590000Y-87710000D02*
X97550000Y-87590000D01*
X97550000Y-87590000D02*
X97520000Y-87460000D01*
X97520000Y-87460000D02*
X97510000Y-87330000D01*
X97510000Y-87330000D02*
X97500000Y-87200000D01*
X97500000Y-87200000D02*
X97500000Y-77500000D01*
X97500000Y-77500000D02*
X97490000Y-77370000D01*
X97490000Y-77370000D02*
X97480000Y-77240000D01*
X97480000Y-77240000D02*
X97450000Y-77110000D01*
X97450000Y-77110000D02*
X97410000Y-76990000D01*
X97410000Y-76990000D02*
X97360000Y-76870000D01*
X97360000Y-76870000D02*
X97300000Y-76750000D01*
X97300000Y-76750000D02*
X97230000Y-76640000D01*
X97230000Y-76640000D02*
X97150000Y-76540000D01*
X97150000Y-76540000D02*
X97060000Y-76440000D01*
X97060000Y-76440000D02*
X96960000Y-76350000D01*
X96960000Y-76350000D02*
X96860000Y-76270000D01*
X96860000Y-76270000D02*
X96750000Y-76200000D01*
X96750000Y-76200000D02*
X96630000Y-76140000D01*
X96630000Y-76140000D02*
X96510000Y-76090000D01*
X96510000Y-76090000D02*
X96390000Y-76050000D01*
X96390000Y-76050000D02*
X96260000Y-76020000D01*
X96260000Y-76020000D02*
X96130000Y-76010000D01*
X96130000Y-76010000D02*
X96000000Y-76000000D01*
X96000000Y-76000000D02*
X92500000Y-76000000D01*
M02*
