%TF.GenerationSoftware,KiCad,Pcbnew,5.1.9-73d0e3b20d~88~ubuntu20.04.1*%
%TF.CreationDate,2020-12-30T10:17:16-08:00*%
%TF.ProjectId,encoder,656e636f-6465-4722-9e6b-696361645f70,rev?*%
%TF.SameCoordinates,Original*%
%TF.FileFunction,Legend,Top*%
%TF.FilePolarity,Positive*%
%FSLAX46Y46*%
G04 Gerber Fmt 4.6, Leading zero omitted, Abs format (unit mm)*
G04 Created by KiCad (PCBNEW 5.1.9-73d0e3b20d~88~ubuntu20.04.1) date 2020-12-30 10:17:16*
%MOMM*%
%LPD*%
G01*
G04 APERTURE LIST*
%ADD10C,0.150000*%
%ADD11C,0.120000*%
%ADD12C,0.100000*%
G04 APERTURE END LIST*
D10*
X105052380Y-106808095D02*
X104576190Y-107141428D01*
X105052380Y-107379523D02*
X104052380Y-107379523D01*
X104052380Y-106998571D01*
X104100000Y-106903333D01*
X104147619Y-106855714D01*
X104242857Y-106808095D01*
X104385714Y-106808095D01*
X104480952Y-106855714D01*
X104528571Y-106903333D01*
X104576190Y-106998571D01*
X104576190Y-107379523D01*
X105004761Y-105998571D02*
X105052380Y-106093809D01*
X105052380Y-106284285D01*
X105004761Y-106379523D01*
X104909523Y-106427142D01*
X104528571Y-106427142D01*
X104433333Y-106379523D01*
X104385714Y-106284285D01*
X104385714Y-106093809D01*
X104433333Y-105998571D01*
X104528571Y-105950952D01*
X104623809Y-105950952D01*
X104719047Y-106427142D01*
X104385714Y-105617619D02*
X105052380Y-105379523D01*
X104385714Y-105141428D01*
X104766666Y-104046190D02*
X104766666Y-103570000D01*
X105052380Y-104141428D02*
X104052380Y-103808095D01*
X105052380Y-103474761D01*
X104957142Y-103141428D02*
X105004761Y-103093809D01*
X105052380Y-103141428D01*
X105004761Y-103189047D01*
X104957142Y-103141428D01*
X105052380Y-103141428D01*
X104433333Y-103141428D02*
X104480952Y-103093809D01*
X104528571Y-103141428D01*
X104480952Y-103189047D01*
X104433333Y-103141428D01*
X104528571Y-103141428D01*
X104147619Y-101950952D02*
X104100000Y-101903333D01*
X104052380Y-101808095D01*
X104052380Y-101570000D01*
X104100000Y-101474761D01*
X104147619Y-101427142D01*
X104242857Y-101379523D01*
X104338095Y-101379523D01*
X104480952Y-101427142D01*
X105052380Y-101998571D01*
X105052380Y-101379523D01*
X104052380Y-100760476D02*
X104052380Y-100665238D01*
X104100000Y-100570000D01*
X104147619Y-100522380D01*
X104242857Y-100474761D01*
X104433333Y-100427142D01*
X104671428Y-100427142D01*
X104861904Y-100474761D01*
X104957142Y-100522380D01*
X105004761Y-100570000D01*
X105052380Y-100665238D01*
X105052380Y-100760476D01*
X105004761Y-100855714D01*
X104957142Y-100903333D01*
X104861904Y-100950952D01*
X104671428Y-100998571D01*
X104433333Y-100998571D01*
X104242857Y-100950952D01*
X104147619Y-100903333D01*
X104100000Y-100855714D01*
X104052380Y-100760476D01*
X104147619Y-100046190D02*
X104100000Y-99998571D01*
X104052380Y-99903333D01*
X104052380Y-99665238D01*
X104100000Y-99570000D01*
X104147619Y-99522380D01*
X104242857Y-99474761D01*
X104338095Y-99474761D01*
X104480952Y-99522380D01*
X105052380Y-100093809D01*
X105052380Y-99474761D01*
X104052380Y-98855714D02*
X104052380Y-98760476D01*
X104100000Y-98665238D01*
X104147619Y-98617619D01*
X104242857Y-98570000D01*
X104433333Y-98522380D01*
X104671428Y-98522380D01*
X104861904Y-98570000D01*
X104957142Y-98617619D01*
X105004761Y-98665238D01*
X105052380Y-98760476D01*
X105052380Y-98855714D01*
X105004761Y-98950952D01*
X104957142Y-98998571D01*
X104861904Y-99046190D01*
X104671428Y-99093809D01*
X104433333Y-99093809D01*
X104242857Y-99046190D01*
X104147619Y-98998571D01*
X104100000Y-98950952D01*
X104052380Y-98855714D01*
X105052380Y-98093809D02*
X104052380Y-98093809D01*
X104052380Y-97855714D01*
X104100000Y-97712857D01*
X104195238Y-97617619D01*
X104290476Y-97570000D01*
X104480952Y-97522380D01*
X104623809Y-97522380D01*
X104814285Y-97570000D01*
X104909523Y-97617619D01*
X105004761Y-97712857D01*
X105052380Y-97855714D01*
X105052380Y-98093809D01*
X104528571Y-97093809D02*
X104528571Y-96760476D01*
X105052380Y-96617619D02*
X105052380Y-97093809D01*
X104052380Y-97093809D01*
X104052380Y-96617619D01*
X104957142Y-95617619D02*
X105004761Y-95665238D01*
X105052380Y-95808095D01*
X105052380Y-95903333D01*
X105004761Y-96046190D01*
X104909523Y-96141428D01*
X104814285Y-96189047D01*
X104623809Y-96236666D01*
X104480952Y-96236666D01*
X104290476Y-96189047D01*
X104195238Y-96141428D01*
X104100000Y-96046190D01*
X104052380Y-95903333D01*
X104052380Y-95808095D01*
X104100000Y-95665238D01*
X104147619Y-95617619D01*
X104147619Y-95236666D02*
X104100000Y-95189047D01*
X104052380Y-95093809D01*
X104052380Y-94855714D01*
X104100000Y-94760476D01*
X104147619Y-94712857D01*
X104242857Y-94665238D01*
X104338095Y-94665238D01*
X104480952Y-94712857D01*
X105052380Y-95284285D01*
X105052380Y-94665238D01*
X104052380Y-93808095D02*
X104052380Y-93998571D01*
X104100000Y-94093809D01*
X104147619Y-94141428D01*
X104290476Y-94236666D01*
X104480952Y-94284285D01*
X104861904Y-94284285D01*
X104957142Y-94236666D01*
X105004761Y-94189047D01*
X105052380Y-94093809D01*
X105052380Y-93903333D01*
X105004761Y-93808095D01*
X104957142Y-93760476D01*
X104861904Y-93712857D01*
X104623809Y-93712857D01*
X104528571Y-93760476D01*
X104480952Y-93808095D01*
X104433333Y-93903333D01*
X104433333Y-94093809D01*
X104480952Y-94189047D01*
X104528571Y-94236666D01*
X104623809Y-94284285D01*
X103402380Y-105089047D02*
X102402380Y-105089047D01*
X102878571Y-105089047D02*
X102878571Y-104517619D01*
X103402380Y-104517619D02*
X102402380Y-104517619D01*
X103402380Y-103470000D02*
X102926190Y-103803333D01*
X103402380Y-104041428D02*
X102402380Y-104041428D01*
X102402380Y-103660476D01*
X102450000Y-103565238D01*
X102497619Y-103517619D01*
X102592857Y-103470000D01*
X102735714Y-103470000D01*
X102830952Y-103517619D01*
X102878571Y-103565238D01*
X102926190Y-103660476D01*
X102926190Y-104041428D01*
X102497619Y-103089047D02*
X102450000Y-103041428D01*
X102402380Y-102946190D01*
X102402380Y-102708095D01*
X102450000Y-102612857D01*
X102497619Y-102565238D01*
X102592857Y-102517619D01*
X102688095Y-102517619D01*
X102830952Y-102565238D01*
X103402380Y-103136666D01*
X103402380Y-102517619D01*
X102878571Y-101327142D02*
X102878571Y-100993809D01*
X103402380Y-100850952D02*
X103402380Y-101327142D01*
X102402380Y-101327142D01*
X102402380Y-100850952D01*
X102735714Y-100422380D02*
X103402380Y-100422380D01*
X102830952Y-100422380D02*
X102783333Y-100374761D01*
X102735714Y-100279523D01*
X102735714Y-100136666D01*
X102783333Y-100041428D01*
X102878571Y-99993809D01*
X103402380Y-99993809D01*
X103354761Y-99089047D02*
X103402380Y-99184285D01*
X103402380Y-99374761D01*
X103354761Y-99470000D01*
X103307142Y-99517619D01*
X103211904Y-99565238D01*
X102926190Y-99565238D01*
X102830952Y-99517619D01*
X102783333Y-99470000D01*
X102735714Y-99374761D01*
X102735714Y-99184285D01*
X102783333Y-99089047D01*
X103402380Y-98517619D02*
X103354761Y-98612857D01*
X103307142Y-98660476D01*
X103211904Y-98708095D01*
X102926190Y-98708095D01*
X102830952Y-98660476D01*
X102783333Y-98612857D01*
X102735714Y-98517619D01*
X102735714Y-98374761D01*
X102783333Y-98279523D01*
X102830952Y-98231904D01*
X102926190Y-98184285D01*
X103211904Y-98184285D01*
X103307142Y-98231904D01*
X103354761Y-98279523D01*
X103402380Y-98374761D01*
X103402380Y-98517619D01*
X103402380Y-97327142D02*
X102402380Y-97327142D01*
X103354761Y-97327142D02*
X103402380Y-97422380D01*
X103402380Y-97612857D01*
X103354761Y-97708095D01*
X103307142Y-97755714D01*
X103211904Y-97803333D01*
X102926190Y-97803333D01*
X102830952Y-97755714D01*
X102783333Y-97708095D01*
X102735714Y-97612857D01*
X102735714Y-97422380D01*
X102783333Y-97327142D01*
X103354761Y-96470000D02*
X103402380Y-96565238D01*
X103402380Y-96755714D01*
X103354761Y-96850952D01*
X103259523Y-96898571D01*
X102878571Y-96898571D01*
X102783333Y-96850952D01*
X102735714Y-96755714D01*
X102735714Y-96565238D01*
X102783333Y-96470000D01*
X102878571Y-96422380D01*
X102973809Y-96422380D01*
X103069047Y-96898571D01*
X103402380Y-95993809D02*
X102735714Y-95993809D01*
X102926190Y-95993809D02*
X102830952Y-95946190D01*
X102783333Y-95898571D01*
X102735714Y-95803333D01*
X102735714Y-95708095D01*
X94027142Y-79610476D02*
X94074761Y-79658095D01*
X94122380Y-79800952D01*
X94122380Y-79896190D01*
X94074761Y-80039047D01*
X93979523Y-80134285D01*
X93884285Y-80181904D01*
X93693809Y-80229523D01*
X93550952Y-80229523D01*
X93360476Y-80181904D01*
X93265238Y-80134285D01*
X93170000Y-80039047D01*
X93122380Y-79896190D01*
X93122380Y-79800952D01*
X93170000Y-79658095D01*
X93217619Y-79610476D01*
X94122380Y-79181904D02*
X93122380Y-79181904D01*
X94122380Y-78610476D01*
X93122380Y-78610476D01*
X94122380Y-77610476D02*
X94122380Y-78181904D01*
X94122380Y-77896190D02*
X93122380Y-77896190D01*
X93265238Y-77991428D01*
X93360476Y-78086666D01*
X93408095Y-78181904D01*
X93598571Y-76848571D02*
X93646190Y-76705714D01*
X93693809Y-76658095D01*
X93789047Y-76610476D01*
X93931904Y-76610476D01*
X94027142Y-76658095D01*
X94074761Y-76705714D01*
X94122380Y-76800952D01*
X94122380Y-77181904D01*
X93122380Y-77181904D01*
X93122380Y-76848571D01*
X93170000Y-76753333D01*
X93217619Y-76705714D01*
X93312857Y-76658095D01*
X93408095Y-76658095D01*
X93503333Y-76705714D01*
X93550952Y-76753333D01*
X93598571Y-76848571D01*
X93598571Y-77181904D01*
X93976666Y-120428095D02*
X93976666Y-119951904D01*
X94262380Y-120523333D02*
X93262380Y-120190000D01*
X94262380Y-119856666D01*
D11*
%TO.C,R2*%
X92120000Y-93846359D02*
X92120000Y-94153641D01*
X92880000Y-93846359D02*
X92880000Y-94153641D01*
%TO.C,R1*%
X94520000Y-108346359D02*
X94520000Y-108653641D01*
X95280000Y-108346359D02*
X95280000Y-108653641D01*
D12*
%TO.C,Q2*%
X94943654Y-103924975D02*
X96075025Y-105056346D01*
X94943654Y-103924975D02*
X97064975Y-101803654D01*
X96075025Y-105056346D02*
X98196346Y-102935025D01*
X97064975Y-101803654D02*
X98196346Y-102935025D01*
X96085435Y-105275549D02*
G75*
G03*
X96085435Y-105275549I-31623J0D01*
G01*
%TO.C,Q1*%
X97064975Y-98196346D02*
X98196346Y-97064975D01*
X97064975Y-98196346D02*
X94943654Y-96075025D01*
X98196346Y-97064975D02*
X96075025Y-94943654D01*
X94943654Y-96075025D02*
X96075025Y-94943654D01*
X98447172Y-97086188D02*
G75*
G03*
X98447172Y-97086188I-31623J0D01*
G01*
%TO.C,R2*%
D10*
X92982380Y-92046666D02*
X92506190Y-92380000D01*
X92982380Y-92618095D02*
X91982380Y-92618095D01*
X91982380Y-92237142D01*
X92030000Y-92141904D01*
X92077619Y-92094285D01*
X92172857Y-92046666D01*
X92315714Y-92046666D01*
X92410952Y-92094285D01*
X92458571Y-92141904D01*
X92506190Y-92237142D01*
X92506190Y-92618095D01*
X92077619Y-91665714D02*
X92030000Y-91618095D01*
X91982380Y-91522857D01*
X91982380Y-91284761D01*
X92030000Y-91189523D01*
X92077619Y-91141904D01*
X92172857Y-91094285D01*
X92268095Y-91094285D01*
X92410952Y-91141904D01*
X92982380Y-91713333D01*
X92982380Y-91094285D01*
%TO.C,R1*%
X96522380Y-108666666D02*
X96046190Y-109000000D01*
X96522380Y-109238095D02*
X95522380Y-109238095D01*
X95522380Y-108857142D01*
X95570000Y-108761904D01*
X95617619Y-108714285D01*
X95712857Y-108666666D01*
X95855714Y-108666666D01*
X95950952Y-108714285D01*
X95998571Y-108761904D01*
X96046190Y-108857142D01*
X96046190Y-109238095D01*
X96522380Y-107714285D02*
X96522380Y-108285714D01*
X96522380Y-108000000D02*
X95522380Y-108000000D01*
X95665238Y-108095238D01*
X95760476Y-108190476D01*
X95808095Y-108285714D01*
%TO.C,CN1*%
X94167142Y-122830476D02*
X94214761Y-122878095D01*
X94262380Y-123020952D01*
X94262380Y-123116190D01*
X94214761Y-123259047D01*
X94119523Y-123354285D01*
X94024285Y-123401904D01*
X93833809Y-123449523D01*
X93690952Y-123449523D01*
X93500476Y-123401904D01*
X93405238Y-123354285D01*
X93310000Y-123259047D01*
X93262380Y-123116190D01*
X93262380Y-123020952D01*
X93310000Y-122878095D01*
X93357619Y-122830476D01*
X94262380Y-122401904D02*
X93262380Y-122401904D01*
X94262380Y-121830476D01*
X93262380Y-121830476D01*
X94262380Y-120830476D02*
X94262380Y-121401904D01*
X94262380Y-121116190D02*
X93262380Y-121116190D01*
X93405238Y-121211428D01*
X93500476Y-121306666D01*
X93548095Y-121401904D01*
%TO.C,Q2*%
X93165431Y-103469881D02*
X93131759Y-103368866D01*
X93131759Y-103234179D01*
X93131759Y-103032148D01*
X93098087Y-102931133D01*
X93030744Y-102863790D01*
X92896057Y-103065820D02*
X92862385Y-102964805D01*
X92862385Y-102830118D01*
X92963400Y-102661759D01*
X93199103Y-102426057D01*
X93367461Y-102325042D01*
X93502148Y-102325042D01*
X93603164Y-102358713D01*
X93737851Y-102493400D01*
X93771522Y-102594416D01*
X93771522Y-102729103D01*
X93670507Y-102897461D01*
X93434805Y-103133164D01*
X93266446Y-103234179D01*
X93131759Y-103234179D01*
X93030744Y-103200507D01*
X92896057Y-103065820D01*
X94108240Y-102998477D02*
X94175583Y-102998477D01*
X94276599Y-103032148D01*
X94444957Y-103200507D01*
X94478629Y-103301522D01*
X94478629Y-103368866D01*
X94444957Y-103469881D01*
X94377614Y-103537225D01*
X94242927Y-103604568D01*
X93434805Y-103604568D01*
X93872538Y-104042301D01*
%TO.C,Q1*%
X93859881Y-96784568D02*
X93758866Y-96818240D01*
X93624179Y-96818240D01*
X93422148Y-96818240D01*
X93321133Y-96851912D01*
X93253790Y-96919255D01*
X93455820Y-97053942D02*
X93354805Y-97087614D01*
X93220118Y-97087614D01*
X93051759Y-96986599D01*
X92816057Y-96750896D01*
X92715042Y-96582538D01*
X92715042Y-96447851D01*
X92748713Y-96346835D01*
X92883400Y-96212148D01*
X92984416Y-96178477D01*
X93119103Y-96178477D01*
X93287461Y-96279492D01*
X93523164Y-96515194D01*
X93624179Y-96683553D01*
X93624179Y-96818240D01*
X93590507Y-96919255D01*
X93455820Y-97053942D01*
X94432301Y-96077461D02*
X94028240Y-96481522D01*
X94230270Y-96279492D02*
X93523164Y-95572385D01*
X93556835Y-95740744D01*
X93556835Y-95875431D01*
X93523164Y-95976446D01*
%TD*%
M02*
