%TF.GenerationSoftware,KiCad,Pcbnew,5.1.9-73d0e3b20d~88~ubuntu20.04.1*%
%TF.CreationDate,2020-12-30T10:17:16-08:00*%
%TF.ProjectId,encoder,656e636f-6465-4722-9e6b-696361645f70,rev?*%
%TF.SameCoordinates,Original*%
%TF.FileFunction,Soldermask,Top*%
%TF.FilePolarity,Negative*%
%FSLAX46Y46*%
G04 Gerber Fmt 4.6, Leading zero omitted, Abs format (unit mm)*
G04 Created by KiCad (PCBNEW 5.1.9-73d0e3b20d~88~ubuntu20.04.1) date 2020-12-30 10:17:16*
%MOMM*%
%LPD*%
G01*
G04 APERTURE LIST*
%ADD10C,3.100000*%
%ADD11O,3.400000X1.750000*%
%ADD12C,1.620000*%
G04 APERTURE END LIST*
%TO.C,R2*%
G36*
G01*
X92290000Y-94190000D02*
X92710000Y-94190000D01*
G75*
G02*
X92870000Y-94350000I0J-160000D01*
G01*
X92870000Y-94670000D01*
G75*
G02*
X92710000Y-94830000I-160000J0D01*
G01*
X92290000Y-94830000D01*
G75*
G02*
X92130000Y-94670000I0J160000D01*
G01*
X92130000Y-94350000D01*
G75*
G02*
X92290000Y-94190000I160000J0D01*
G01*
G37*
G36*
G01*
X92290000Y-93170000D02*
X92710000Y-93170000D01*
G75*
G02*
X92870000Y-93330000I0J-160000D01*
G01*
X92870000Y-93650000D01*
G75*
G02*
X92710000Y-93810000I-160000J0D01*
G01*
X92290000Y-93810000D01*
G75*
G02*
X92130000Y-93650000I0J160000D01*
G01*
X92130000Y-93330000D01*
G75*
G02*
X92290000Y-93170000I160000J0D01*
G01*
G37*
%TD*%
%TO.C,R1*%
G36*
G01*
X94690000Y-108690000D02*
X95110000Y-108690000D01*
G75*
G02*
X95270000Y-108850000I0J-160000D01*
G01*
X95270000Y-109170000D01*
G75*
G02*
X95110000Y-109330000I-160000J0D01*
G01*
X94690000Y-109330000D01*
G75*
G02*
X94530000Y-109170000I0J160000D01*
G01*
X94530000Y-108850000D01*
G75*
G02*
X94690000Y-108690000I160000J0D01*
G01*
G37*
G36*
G01*
X94690000Y-107670000D02*
X95110000Y-107670000D01*
G75*
G02*
X95270000Y-107830000I0J-160000D01*
G01*
X95270000Y-108150000D01*
G75*
G02*
X95110000Y-108310000I-160000J0D01*
G01*
X94690000Y-108310000D01*
G75*
G02*
X94530000Y-108150000I0J160000D01*
G01*
X94530000Y-107830000D01*
G75*
G02*
X94690000Y-107670000I160000J0D01*
G01*
G37*
%TD*%
D10*
%TO.C,CN1*%
X100000000Y-100000000D03*
D11*
X100000000Y-106625200D03*
X100000000Y-93375200D03*
D12*
X92519900Y-113840000D03*
X92519900Y-116380000D03*
X92519900Y-118920000D03*
X92519900Y-81080000D03*
X92519900Y-83620000D03*
X92519900Y-86160000D03*
%TD*%
%TO.C,Q2*%
G36*
G01*
X95756828Y-103253223D02*
X95049721Y-102546116D01*
G75*
G02*
X95049721Y-102475406I35355J35355D01*
G01*
X95615406Y-101909721D01*
G75*
G02*
X95686116Y-101909721I35355J-35355D01*
G01*
X96393223Y-102616828D01*
G75*
G02*
X96393223Y-102687538I-35355J-35355D01*
G01*
X95827538Y-103253223D01*
G75*
G02*
X95756828Y-103253223I-35355J35355D01*
G01*
G37*
G36*
G01*
X96782133Y-105622031D02*
X96075026Y-104914924D01*
G75*
G02*
X96075026Y-104844214I35355J35355D01*
G01*
X96640711Y-104278529D01*
G75*
G02*
X96711421Y-104278529I35355J-35355D01*
G01*
X97418528Y-104985636D01*
G75*
G02*
X97418528Y-105056346I-35355J-35355D01*
G01*
X96852843Y-105622031D01*
G75*
G02*
X96782133Y-105622031I-35355J35355D01*
G01*
G37*
G36*
G01*
X98125636Y-104278528D02*
X97418529Y-103571421D01*
G75*
G02*
X97418529Y-103500711I35355J35355D01*
G01*
X97984214Y-102935026D01*
G75*
G02*
X98054924Y-102935026I35355J-35355D01*
G01*
X98762031Y-103642133D01*
G75*
G02*
X98762031Y-103712843I-35355J-35355D01*
G01*
X98196346Y-104278528D01*
G75*
G02*
X98125636Y-104278528I-35355J35355D01*
G01*
G37*
%TD*%
%TO.C,Q1*%
G36*
G01*
X96393223Y-97383172D02*
X95686116Y-98090279D01*
G75*
G02*
X95615406Y-98090279I-35355J35355D01*
G01*
X95049721Y-97524594D01*
G75*
G02*
X95049721Y-97453884I35355J35355D01*
G01*
X95756828Y-96746777D01*
G75*
G02*
X95827538Y-96746777I35355J-35355D01*
G01*
X96393223Y-97312462D01*
G75*
G02*
X96393223Y-97383172I-35355J-35355D01*
G01*
G37*
G36*
G01*
X98762031Y-96357867D02*
X98054924Y-97064974D01*
G75*
G02*
X97984214Y-97064974I-35355J35355D01*
G01*
X97418529Y-96499289D01*
G75*
G02*
X97418529Y-96428579I35355J35355D01*
G01*
X98125636Y-95721472D01*
G75*
G02*
X98196346Y-95721472I35355J-35355D01*
G01*
X98762031Y-96287157D01*
G75*
G02*
X98762031Y-96357867I-35355J-35355D01*
G01*
G37*
G36*
G01*
X97418528Y-95014364D02*
X96711421Y-95721471D01*
G75*
G02*
X96640711Y-95721471I-35355J35355D01*
G01*
X96075026Y-95155786D01*
G75*
G02*
X96075026Y-95085076I35355J35355D01*
G01*
X96782133Y-94377969D01*
G75*
G02*
X96852843Y-94377969I35355J-35355D01*
G01*
X97418528Y-94943654D01*
G75*
G02*
X97418528Y-95014364I-35355J-35355D01*
G01*
G37*
%TD*%
M02*
