%TF.GenerationSoftware,KiCad,Pcbnew,5.1.9-73d0e3b20d~88~ubuntu20.04.1*%
%TF.CreationDate,2020-12-26T20:48:19-08:00*%
%TF.ProjectId,encoder,656e636f-6465-4722-9e6b-696361645f70,rev?*%
%TF.SameCoordinates,Original*%
%TF.FileFunction,Paste,Top*%
%TF.FilePolarity,Positive*%
%FSLAX46Y46*%
G04 Gerber Fmt 4.6, Leading zero omitted, Abs format (unit mm)*
G04 Created by KiCad (PCBNEW 5.1.9-73d0e3b20d~88~ubuntu20.04.1) date 2020-12-26 20:48:19*
%MOMM*%
%LPD*%
G01*
G04 APERTURE LIST*
%ADD10C,0.100000*%
G04 APERTURE END LIST*
%TO.C,R2*%
G36*
G01*
X92315000Y-94240000D02*
X92685000Y-94240000D01*
G75*
G02*
X92820000Y-94375000I0J-135000D01*
G01*
X92820000Y-94645000D01*
G75*
G02*
X92685000Y-94780000I-135000J0D01*
G01*
X92315000Y-94780000D01*
G75*
G02*
X92180000Y-94645000I0J135000D01*
G01*
X92180000Y-94375000D01*
G75*
G02*
X92315000Y-94240000I135000J0D01*
G01*
G37*
G36*
G01*
X92315000Y-93220000D02*
X92685000Y-93220000D01*
G75*
G02*
X92820000Y-93355000I0J-135000D01*
G01*
X92820000Y-93625000D01*
G75*
G02*
X92685000Y-93760000I-135000J0D01*
G01*
X92315000Y-93760000D01*
G75*
G02*
X92180000Y-93625000I0J135000D01*
G01*
X92180000Y-93355000D01*
G75*
G02*
X92315000Y-93220000I135000J0D01*
G01*
G37*
%TD*%
%TO.C,R1*%
G36*
G01*
X94715000Y-108740000D02*
X95085000Y-108740000D01*
G75*
G02*
X95220000Y-108875000I0J-135000D01*
G01*
X95220000Y-109145000D01*
G75*
G02*
X95085000Y-109280000I-135000J0D01*
G01*
X94715000Y-109280000D01*
G75*
G02*
X94580000Y-109145000I0J135000D01*
G01*
X94580000Y-108875000D01*
G75*
G02*
X94715000Y-108740000I135000J0D01*
G01*
G37*
G36*
G01*
X94715000Y-107720000D02*
X95085000Y-107720000D01*
G75*
G02*
X95220000Y-107855000I0J-135000D01*
G01*
X95220000Y-108125000D01*
G75*
G02*
X95085000Y-108260000I-135000J0D01*
G01*
X94715000Y-108260000D01*
G75*
G02*
X94580000Y-108125000I0J135000D01*
G01*
X94580000Y-107855000D01*
G75*
G02*
X94715000Y-107720000I135000J0D01*
G01*
G37*
%TD*%
D10*
%TO.C,Q2*%
G36*
X95792183Y-103217868D02*
G01*
X95085076Y-102510761D01*
X95650761Y-101945076D01*
X96357868Y-102652183D01*
X95792183Y-103217868D01*
G37*
G36*
X96817488Y-105586676D02*
G01*
X96110381Y-104879569D01*
X96676066Y-104313884D01*
X97383173Y-105020991D01*
X96817488Y-105586676D01*
G37*
G36*
X98160991Y-104243173D02*
G01*
X97453884Y-103536066D01*
X98019569Y-102970381D01*
X98726676Y-103677488D01*
X98160991Y-104243173D01*
G37*
%TD*%
%TO.C,Q1*%
G36*
X96357868Y-97347817D02*
G01*
X95650761Y-98054924D01*
X95085076Y-97489239D01*
X95792183Y-96782132D01*
X96357868Y-97347817D01*
G37*
G36*
X98726676Y-96322512D02*
G01*
X98019569Y-97029619D01*
X97453884Y-96463934D01*
X98160991Y-95756827D01*
X98726676Y-96322512D01*
G37*
G36*
X97383173Y-94979009D02*
G01*
X96676066Y-95686116D01*
X96110381Y-95120431D01*
X96817488Y-94413324D01*
X97383173Y-94979009D01*
G37*
%TD*%
M02*
