%TF.GenerationSoftware,KiCad,Pcbnew,5.1.9-73d0e3b20d~88~ubuntu20.04.1*%
%TF.CreationDate,2021-04-18T19:13:24-07:00*%
%TF.ProjectId,encoder,656e636f-6465-4722-9e6b-696361645f70,rev?*%
%TF.SameCoordinates,Original*%
%TF.FileFunction,Legend,Top*%
%TF.FilePolarity,Positive*%
%FSLAX46Y46*%
G04 Gerber Fmt 4.6, Leading zero omitted, Abs format (unit mm)*
G04 Created by KiCad (PCBNEW 5.1.9-73d0e3b20d~88~ubuntu20.04.1) date 2021-04-18 19:13:24*
%MOMM*%
%LPD*%
G01*
G04 APERTURE LIST*
%ADD10C,0.150000*%
%ADD11C,0.200000*%
%ADD12C,0.120000*%
G04 APERTURE END LIST*
D10*
X92977857Y-113869285D02*
X93013571Y-113905000D01*
X93049285Y-114012142D01*
X93049285Y-114083571D01*
X93013571Y-114190714D01*
X92942142Y-114262142D01*
X92870714Y-114297857D01*
X92727857Y-114333571D01*
X92620714Y-114333571D01*
X92477857Y-114297857D01*
X92406428Y-114262142D01*
X92335000Y-114190714D01*
X92299285Y-114083571D01*
X92299285Y-114012142D01*
X92335000Y-113905000D01*
X92370714Y-113869285D01*
X93049285Y-113547857D02*
X92299285Y-113547857D01*
X93049285Y-113119285D01*
X92299285Y-113119285D01*
X93049285Y-112369285D02*
X93049285Y-112797857D01*
X93049285Y-112583571D02*
X92299285Y-112583571D01*
X92406428Y-112655000D01*
X92477857Y-112726428D01*
X92513571Y-112797857D01*
X92835000Y-112083571D02*
X92835000Y-111726428D01*
X93049285Y-112155000D02*
X92299285Y-111905000D01*
X93049285Y-111655000D01*
X92411785Y-104810285D02*
X91661785Y-104810285D01*
X92018928Y-104810285D02*
X92018928Y-104381714D01*
X92411785Y-104381714D02*
X91661785Y-104381714D01*
X92411785Y-103596000D02*
X92054642Y-103846000D01*
X92411785Y-104024571D02*
X91661785Y-104024571D01*
X91661785Y-103738857D01*
X91697500Y-103667428D01*
X91733214Y-103631714D01*
X91804642Y-103596000D01*
X91911785Y-103596000D01*
X91983214Y-103631714D01*
X92018928Y-103667428D01*
X92054642Y-103738857D01*
X92054642Y-104024571D01*
X91733214Y-103310285D02*
X91697500Y-103274571D01*
X91661785Y-103203142D01*
X91661785Y-103024571D01*
X91697500Y-102953142D01*
X91733214Y-102917428D01*
X91804642Y-102881714D01*
X91876071Y-102881714D01*
X91983214Y-102917428D01*
X92411785Y-103346000D01*
X92411785Y-102881714D01*
X92018928Y-101988857D02*
X92018928Y-101738857D01*
X92411785Y-101631714D02*
X92411785Y-101988857D01*
X91661785Y-101988857D01*
X91661785Y-101631714D01*
X91911785Y-101310285D02*
X92411785Y-101310285D01*
X91983214Y-101310285D02*
X91947500Y-101274571D01*
X91911785Y-101203142D01*
X91911785Y-101096000D01*
X91947500Y-101024571D01*
X92018928Y-100988857D01*
X92411785Y-100988857D01*
X92376071Y-100310285D02*
X92411785Y-100381714D01*
X92411785Y-100524571D01*
X92376071Y-100596000D01*
X92340357Y-100631714D01*
X92268928Y-100667428D01*
X92054642Y-100667428D01*
X91983214Y-100631714D01*
X91947500Y-100596000D01*
X91911785Y-100524571D01*
X91911785Y-100381714D01*
X91947500Y-100310285D01*
X92411785Y-99881714D02*
X92376071Y-99953142D01*
X92340357Y-99988857D01*
X92268928Y-100024571D01*
X92054642Y-100024571D01*
X91983214Y-99988857D01*
X91947500Y-99953142D01*
X91911785Y-99881714D01*
X91911785Y-99774571D01*
X91947500Y-99703142D01*
X91983214Y-99667428D01*
X92054642Y-99631714D01*
X92268928Y-99631714D01*
X92340357Y-99667428D01*
X92376071Y-99703142D01*
X92411785Y-99774571D01*
X92411785Y-99881714D01*
X92411785Y-98988857D02*
X91661785Y-98988857D01*
X92376071Y-98988857D02*
X92411785Y-99060285D01*
X92411785Y-99203142D01*
X92376071Y-99274571D01*
X92340357Y-99310285D01*
X92268928Y-99346000D01*
X92054642Y-99346000D01*
X91983214Y-99310285D01*
X91947500Y-99274571D01*
X91911785Y-99203142D01*
X91911785Y-99060285D01*
X91947500Y-98988857D01*
X92376071Y-98346000D02*
X92411785Y-98417428D01*
X92411785Y-98560285D01*
X92376071Y-98631714D01*
X92304642Y-98667428D01*
X92018928Y-98667428D01*
X91947500Y-98631714D01*
X91911785Y-98560285D01*
X91911785Y-98417428D01*
X91947500Y-98346000D01*
X92018928Y-98310285D01*
X92090357Y-98310285D01*
X92161785Y-98667428D01*
X92411785Y-97988857D02*
X91911785Y-97988857D01*
X92054642Y-97988857D02*
X91983214Y-97953142D01*
X91947500Y-97917428D01*
X91911785Y-97846000D01*
X91911785Y-97774571D01*
X93686785Y-106006714D02*
X93329642Y-106256714D01*
X93686785Y-106435285D02*
X92936785Y-106435285D01*
X92936785Y-106149571D01*
X92972500Y-106078142D01*
X93008214Y-106042428D01*
X93079642Y-106006714D01*
X93186785Y-106006714D01*
X93258214Y-106042428D01*
X93293928Y-106078142D01*
X93329642Y-106149571D01*
X93329642Y-106435285D01*
X93651071Y-105399571D02*
X93686785Y-105471000D01*
X93686785Y-105613857D01*
X93651071Y-105685285D01*
X93579642Y-105721000D01*
X93293928Y-105721000D01*
X93222500Y-105685285D01*
X93186785Y-105613857D01*
X93186785Y-105471000D01*
X93222500Y-105399571D01*
X93293928Y-105363857D01*
X93365357Y-105363857D01*
X93436785Y-105721000D01*
X93186785Y-105113857D02*
X93686785Y-104935285D01*
X93186785Y-104756714D01*
X93293928Y-103649571D02*
X93293928Y-103899571D01*
X93686785Y-103899571D02*
X92936785Y-103899571D01*
X92936785Y-103542428D01*
X93615357Y-103256714D02*
X93651071Y-103221000D01*
X93686785Y-103256714D01*
X93651071Y-103292428D01*
X93615357Y-103256714D01*
X93686785Y-103256714D01*
X93222500Y-103256714D02*
X93258214Y-103221000D01*
X93293928Y-103256714D01*
X93258214Y-103292428D01*
X93222500Y-103256714D01*
X93293928Y-103256714D01*
X93008214Y-102363857D02*
X92972500Y-102328142D01*
X92936785Y-102256714D01*
X92936785Y-102078142D01*
X92972500Y-102006714D01*
X93008214Y-101971000D01*
X93079642Y-101935285D01*
X93151071Y-101935285D01*
X93258214Y-101971000D01*
X93686785Y-102399571D01*
X93686785Y-101935285D01*
X92936785Y-101471000D02*
X92936785Y-101399571D01*
X92972500Y-101328142D01*
X93008214Y-101292428D01*
X93079642Y-101256714D01*
X93222500Y-101221000D01*
X93401071Y-101221000D01*
X93543928Y-101256714D01*
X93615357Y-101292428D01*
X93651071Y-101328142D01*
X93686785Y-101399571D01*
X93686785Y-101471000D01*
X93651071Y-101542428D01*
X93615357Y-101578142D01*
X93543928Y-101613857D01*
X93401071Y-101649571D01*
X93222500Y-101649571D01*
X93079642Y-101613857D01*
X93008214Y-101578142D01*
X92972500Y-101542428D01*
X92936785Y-101471000D01*
X93008214Y-100935285D02*
X92972500Y-100899571D01*
X92936785Y-100828142D01*
X92936785Y-100649571D01*
X92972500Y-100578142D01*
X93008214Y-100542428D01*
X93079642Y-100506714D01*
X93151071Y-100506714D01*
X93258214Y-100542428D01*
X93686785Y-100971000D01*
X93686785Y-100506714D01*
X93686785Y-99792428D02*
X93686785Y-100221000D01*
X93686785Y-100006714D02*
X92936785Y-100006714D01*
X93043928Y-100078142D01*
X93115357Y-100149571D01*
X93151071Y-100221000D01*
X93472500Y-99506714D02*
X93472500Y-99149571D01*
X93686785Y-99578142D02*
X92936785Y-99328142D01*
X93686785Y-99078142D01*
X93686785Y-98828142D02*
X92936785Y-98828142D01*
X92936785Y-98542428D01*
X92972500Y-98471000D01*
X93008214Y-98435285D01*
X93079642Y-98399571D01*
X93186785Y-98399571D01*
X93258214Y-98435285D01*
X93293928Y-98471000D01*
X93329642Y-98542428D01*
X93329642Y-98828142D01*
X93686785Y-97649571D02*
X93329642Y-97899571D01*
X93686785Y-98078142D02*
X92936785Y-98078142D01*
X92936785Y-97792428D01*
X92972500Y-97721000D01*
X93008214Y-97685285D01*
X93079642Y-97649571D01*
X93186785Y-97649571D01*
X93258214Y-97685285D01*
X93293928Y-97721000D01*
X93329642Y-97792428D01*
X93329642Y-98078142D01*
X93686785Y-96935285D02*
X93686785Y-97363857D01*
X93686785Y-97149571D02*
X92936785Y-97149571D01*
X93043928Y-97221000D01*
X93115357Y-97292428D01*
X93151071Y-97363857D01*
X93258214Y-96506714D02*
X93222500Y-96578142D01*
X93186785Y-96613857D01*
X93115357Y-96649571D01*
X93079642Y-96649571D01*
X93008214Y-96613857D01*
X92972500Y-96578142D01*
X92936785Y-96506714D01*
X92936785Y-96363857D01*
X92972500Y-96292428D01*
X93008214Y-96256714D01*
X93079642Y-96221000D01*
X93115357Y-96221000D01*
X93186785Y-96256714D01*
X93222500Y-96292428D01*
X93258214Y-96363857D01*
X93258214Y-96506714D01*
X93293928Y-96578142D01*
X93329642Y-96613857D01*
X93401071Y-96649571D01*
X93543928Y-96649571D01*
X93615357Y-96613857D01*
X93651071Y-96578142D01*
X93686785Y-96506714D01*
X93686785Y-96363857D01*
X93651071Y-96292428D01*
X93615357Y-96256714D01*
X93543928Y-96221000D01*
X93401071Y-96221000D01*
X93329642Y-96256714D01*
X93293928Y-96292428D01*
X93258214Y-96363857D01*
X93739857Y-86998857D02*
X93775571Y-87034571D01*
X93811285Y-87141714D01*
X93811285Y-87213142D01*
X93775571Y-87320285D01*
X93704142Y-87391714D01*
X93632714Y-87427428D01*
X93489857Y-87463142D01*
X93382714Y-87463142D01*
X93239857Y-87427428D01*
X93168428Y-87391714D01*
X93097000Y-87320285D01*
X93061285Y-87213142D01*
X93061285Y-87141714D01*
X93097000Y-87034571D01*
X93132714Y-86998857D01*
X93811285Y-86677428D02*
X93061285Y-86677428D01*
X93811285Y-86248857D01*
X93061285Y-86248857D01*
X93811285Y-85498857D02*
X93811285Y-85927428D01*
X93811285Y-85713142D02*
X93061285Y-85713142D01*
X93168428Y-85784571D01*
X93239857Y-85856000D01*
X93275571Y-85927428D01*
X93418428Y-84927428D02*
X93454142Y-84820285D01*
X93489857Y-84784571D01*
X93561285Y-84748857D01*
X93668428Y-84748857D01*
X93739857Y-84784571D01*
X93775571Y-84820285D01*
X93811285Y-84891714D01*
X93811285Y-85177428D01*
X93061285Y-85177428D01*
X93061285Y-84927428D01*
X93097000Y-84856000D01*
X93132714Y-84820285D01*
X93204142Y-84784571D01*
X93275571Y-84784571D01*
X93347000Y-84820285D01*
X93382714Y-84856000D01*
X93418428Y-84927428D01*
X93418428Y-85177428D01*
X94065000Y-120468571D02*
X94065000Y-120111428D01*
X94279285Y-120540000D02*
X93529285Y-120290000D01*
X94279285Y-120040000D01*
D11*
%TO.C,CN1*%
X94430000Y-122730000D02*
X94430000Y-115110000D01*
X94430000Y-115110000D02*
X96970000Y-115110000D01*
X96970000Y-115110000D02*
X96970000Y-122730000D01*
X96970000Y-122730000D02*
X94430000Y-122730000D01*
X93280000Y-116380000D02*
X94430000Y-116380000D01*
X93280000Y-118920000D02*
X94430000Y-118920000D01*
X93280000Y-121460000D02*
X94430000Y-121460000D01*
X93790000Y-114580000D02*
X93720000Y-114550000D01*
X93720000Y-114550000D02*
X93690000Y-114480000D01*
X93690000Y-114480000D02*
X93720000Y-114400000D01*
X93720000Y-114400000D02*
X93790000Y-114380000D01*
X93790000Y-114380000D02*
X93860000Y-114400000D01*
X93860000Y-114400000D02*
X93890000Y-114480000D01*
X93890000Y-114480000D02*
X93860000Y-114550000D01*
X93860000Y-114550000D02*
X93790000Y-114580000D01*
X94430000Y-84890000D02*
X94430000Y-77270000D01*
X94430000Y-77270000D02*
X96970000Y-77270000D01*
X96970000Y-77270000D02*
X96970000Y-84890000D01*
X96970000Y-84890000D02*
X94430000Y-84890000D01*
X93280000Y-78540000D02*
X94430000Y-78540000D01*
X93280000Y-81080000D02*
X94430000Y-81080000D01*
X93280000Y-83620000D02*
X94430000Y-83620000D01*
X93790000Y-76730000D02*
X93720000Y-76710000D01*
X93720000Y-76710000D02*
X93690000Y-76630000D01*
X93690000Y-76630000D02*
X93720000Y-76560000D01*
X93720000Y-76560000D02*
X93790000Y-76530000D01*
X93790000Y-76530000D02*
X93860000Y-76560000D01*
X93860000Y-76560000D02*
X93890000Y-76630000D01*
X93890000Y-76630000D02*
X93860000Y-76710000D01*
X93860000Y-76710000D02*
X93790000Y-76730000D01*
D12*
%TO.C,C2*%
X95078160Y-109802200D02*
X94797000Y-109802200D01*
X95078160Y-110822200D02*
X94797000Y-110822200D01*
%TO.C,C1*%
X95350580Y-89020000D02*
X95069420Y-89020000D01*
X95350580Y-90040000D02*
X95069420Y-90040000D01*
%TO.C,R2*%
X95417258Y-92222500D02*
X94942742Y-92222500D01*
X95417258Y-91177500D02*
X94942742Y-91177500D01*
%TO.C,R1*%
X95127258Y-108842500D02*
X94652742Y-108842500D01*
X95127258Y-107797500D02*
X94652742Y-107797500D01*
%TO.C,Q2*%
X97379828Y-101545370D02*
X96722218Y-102202979D01*
X95145370Y-103779828D02*
X95802979Y-103122218D01*
X95145370Y-103779828D02*
X96672721Y-105307178D01*
X97379828Y-101545370D02*
X98412203Y-102577746D01*
%TO.C,Q1*%
X95145370Y-96220172D02*
X95802979Y-96877782D01*
X97379828Y-98454630D02*
X96722218Y-97797021D01*
X97379828Y-98454630D02*
X98907178Y-96927279D01*
X95145370Y-96220172D02*
X96177746Y-95187797D01*
%TO.C,C2*%
D10*
X97387857Y-110435000D02*
X97423571Y-110470714D01*
X97459285Y-110577857D01*
X97459285Y-110649285D01*
X97423571Y-110756428D01*
X97352142Y-110827857D01*
X97280714Y-110863571D01*
X97137857Y-110899285D01*
X97030714Y-110899285D01*
X96887857Y-110863571D01*
X96816428Y-110827857D01*
X96745000Y-110756428D01*
X96709285Y-110649285D01*
X96709285Y-110577857D01*
X96745000Y-110470714D01*
X96780714Y-110435000D01*
X96780714Y-110149285D02*
X96745000Y-110113571D01*
X96709285Y-110042142D01*
X96709285Y-109863571D01*
X96745000Y-109792142D01*
X96780714Y-109756428D01*
X96852142Y-109720714D01*
X96923571Y-109720714D01*
X97030714Y-109756428D01*
X97459285Y-110185000D01*
X97459285Y-109720714D01*
%TO.C,C1*%
X97667857Y-89655000D02*
X97703571Y-89690714D01*
X97739285Y-89797857D01*
X97739285Y-89869285D01*
X97703571Y-89976428D01*
X97632142Y-90047857D01*
X97560714Y-90083571D01*
X97417857Y-90119285D01*
X97310714Y-90119285D01*
X97167857Y-90083571D01*
X97096428Y-90047857D01*
X97025000Y-89976428D01*
X96989285Y-89869285D01*
X96989285Y-89797857D01*
X97025000Y-89690714D01*
X97060714Y-89655000D01*
X97739285Y-88940714D02*
X97739285Y-89369285D01*
X97739285Y-89155000D02*
X96989285Y-89155000D01*
X97096428Y-89226428D01*
X97167857Y-89297857D01*
X97203571Y-89369285D01*
%TO.C,R2*%
X97699285Y-91845000D02*
X97342142Y-92095000D01*
X97699285Y-92273571D02*
X96949285Y-92273571D01*
X96949285Y-91987857D01*
X96985000Y-91916428D01*
X97020714Y-91880714D01*
X97092142Y-91845000D01*
X97199285Y-91845000D01*
X97270714Y-91880714D01*
X97306428Y-91916428D01*
X97342142Y-91987857D01*
X97342142Y-92273571D01*
X97020714Y-91559285D02*
X96985000Y-91523571D01*
X96949285Y-91452142D01*
X96949285Y-91273571D01*
X96985000Y-91202142D01*
X97020714Y-91166428D01*
X97092142Y-91130714D01*
X97163571Y-91130714D01*
X97270714Y-91166428D01*
X97699285Y-91595000D01*
X97699285Y-91130714D01*
%TO.C,R1*%
X97399285Y-108535000D02*
X97042142Y-108785000D01*
X97399285Y-108963571D02*
X96649285Y-108963571D01*
X96649285Y-108677857D01*
X96685000Y-108606428D01*
X96720714Y-108570714D01*
X96792142Y-108535000D01*
X96899285Y-108535000D01*
X96970714Y-108570714D01*
X97006428Y-108606428D01*
X97042142Y-108677857D01*
X97042142Y-108963571D01*
X97399285Y-107820714D02*
X97399285Y-108249285D01*
X97399285Y-108035000D02*
X96649285Y-108035000D01*
X96756428Y-108106428D01*
X96827857Y-108177857D01*
X96863571Y-108249285D01*
%TO.C,Q2*%
X96270314Y-106141828D02*
X96234600Y-106213257D01*
X96163171Y-106284685D01*
X96056028Y-106391828D01*
X96020314Y-106463257D01*
X96020314Y-106534685D01*
X96198885Y-106498971D02*
X96163171Y-106570400D01*
X96091742Y-106641828D01*
X95948885Y-106677542D01*
X95698885Y-106677542D01*
X95556028Y-106641828D01*
X95484600Y-106570400D01*
X95448885Y-106498971D01*
X95448885Y-106356114D01*
X95484600Y-106284685D01*
X95556028Y-106213257D01*
X95698885Y-106177542D01*
X95948885Y-106177542D01*
X96091742Y-106213257D01*
X96163171Y-106284685D01*
X96198885Y-106356114D01*
X96198885Y-106498971D01*
X95520314Y-105891828D02*
X95484600Y-105856114D01*
X95448885Y-105784685D01*
X95448885Y-105606114D01*
X95484600Y-105534685D01*
X95520314Y-105498971D01*
X95591742Y-105463257D01*
X95663171Y-105463257D01*
X95770314Y-105498971D01*
X96198885Y-105927542D01*
X96198885Y-105463257D01*
%TO.C,Q1*%
X95559114Y-94635628D02*
X95523400Y-94707057D01*
X95451971Y-94778485D01*
X95344828Y-94885628D01*
X95309114Y-94957057D01*
X95309114Y-95028485D01*
X95487685Y-94992771D02*
X95451971Y-95064200D01*
X95380542Y-95135628D01*
X95237685Y-95171342D01*
X94987685Y-95171342D01*
X94844828Y-95135628D01*
X94773400Y-95064200D01*
X94737685Y-94992771D01*
X94737685Y-94849914D01*
X94773400Y-94778485D01*
X94844828Y-94707057D01*
X94987685Y-94671342D01*
X95237685Y-94671342D01*
X95380542Y-94707057D01*
X95451971Y-94778485D01*
X95487685Y-94849914D01*
X95487685Y-94992771D01*
X95487685Y-93957057D02*
X95487685Y-94385628D01*
X95487685Y-94171342D02*
X94737685Y-94171342D01*
X94844828Y-94242771D01*
X94916257Y-94314200D01*
X94951971Y-94385628D01*
%TD*%
M02*
