%TF.GenerationSoftware,KiCad,Pcbnew,5.1.9-73d0e3b20d~88~ubuntu20.04.1*%
%TF.CreationDate,2021-04-18T19:13:24-07:00*%
%TF.ProjectId,encoder,656e636f-6465-4722-9e6b-696361645f70,rev?*%
%TF.SameCoordinates,Original*%
%TF.FileFunction,Soldermask,Top*%
%TF.FilePolarity,Negative*%
%FSLAX46Y46*%
G04 Gerber Fmt 4.6, Leading zero omitted, Abs format (unit mm)*
G04 Created by KiCad (PCBNEW 5.1.9-73d0e3b20d~88~ubuntu20.04.1) date 2021-04-18 19:13:24*
%MOMM*%
%LPD*%
G01*
G04 APERTURE LIST*
%ADD10C,3.100000*%
%ADD11O,3.400000X1.750000*%
%ADD12C,1.620000*%
G04 APERTURE END LIST*
D10*
%TO.C,CN1*%
X100000000Y-100000000D03*
D11*
X100000000Y-93374800D03*
X100000000Y-106624800D03*
D12*
X92519900Y-83620000D03*
X92519900Y-81080000D03*
X92519900Y-78540000D03*
X92519900Y-121460000D03*
X92519900Y-118920000D03*
X92519900Y-116380000D03*
%TD*%
%TO.C,C2*%
G36*
G01*
X94662580Y-110037200D02*
X94662580Y-110587200D01*
G75*
G02*
X94412580Y-110837200I-250000J0D01*
G01*
X93912580Y-110837200D01*
G75*
G02*
X93662580Y-110587200I0J250000D01*
G01*
X93662580Y-110037200D01*
G75*
G02*
X93912580Y-109787200I250000J0D01*
G01*
X94412580Y-109787200D01*
G75*
G02*
X94662580Y-110037200I0J-250000D01*
G01*
G37*
G36*
G01*
X96212580Y-110037200D02*
X96212580Y-110587200D01*
G75*
G02*
X95962580Y-110837200I-250000J0D01*
G01*
X95462580Y-110837200D01*
G75*
G02*
X95212580Y-110587200I0J250000D01*
G01*
X95212580Y-110037200D01*
G75*
G02*
X95462580Y-109787200I250000J0D01*
G01*
X95962580Y-109787200D01*
G75*
G02*
X96212580Y-110037200I0J-250000D01*
G01*
G37*
%TD*%
%TO.C,C1*%
G36*
G01*
X94935000Y-89255000D02*
X94935000Y-89805000D01*
G75*
G02*
X94685000Y-90055000I-250000J0D01*
G01*
X94185000Y-90055000D01*
G75*
G02*
X93935000Y-89805000I0J250000D01*
G01*
X93935000Y-89255000D01*
G75*
G02*
X94185000Y-89005000I250000J0D01*
G01*
X94685000Y-89005000D01*
G75*
G02*
X94935000Y-89255000I0J-250000D01*
G01*
G37*
G36*
G01*
X96485000Y-89255000D02*
X96485000Y-89805000D01*
G75*
G02*
X96235000Y-90055000I-250000J0D01*
G01*
X95735000Y-90055000D01*
G75*
G02*
X95485000Y-89805000I0J250000D01*
G01*
X95485000Y-89255000D01*
G75*
G02*
X95735000Y-89005000I250000J0D01*
G01*
X96235000Y-89005000D01*
G75*
G02*
X96485000Y-89255000I0J-250000D01*
G01*
G37*
%TD*%
%TO.C,R2*%
G36*
G01*
X94805000Y-91400000D02*
X94805000Y-92000000D01*
G75*
G02*
X94580000Y-92225000I-225000J0D01*
G01*
X94130000Y-92225000D01*
G75*
G02*
X93905000Y-92000000I0J225000D01*
G01*
X93905000Y-91400000D01*
G75*
G02*
X94130000Y-91175000I225000J0D01*
G01*
X94580000Y-91175000D01*
G75*
G02*
X94805000Y-91400000I0J-225000D01*
G01*
G37*
G36*
G01*
X96455000Y-91400000D02*
X96455000Y-92000000D01*
G75*
G02*
X96230000Y-92225000I-225000J0D01*
G01*
X95780000Y-92225000D01*
G75*
G02*
X95555000Y-92000000I0J225000D01*
G01*
X95555000Y-91400000D01*
G75*
G02*
X95780000Y-91175000I225000J0D01*
G01*
X96230000Y-91175000D01*
G75*
G02*
X96455000Y-91400000I0J-225000D01*
G01*
G37*
%TD*%
%TO.C,R1*%
G36*
G01*
X94515000Y-108020000D02*
X94515000Y-108620000D01*
G75*
G02*
X94290000Y-108845000I-225000J0D01*
G01*
X93840000Y-108845000D01*
G75*
G02*
X93615000Y-108620000I0J225000D01*
G01*
X93615000Y-108020000D01*
G75*
G02*
X93840000Y-107795000I225000J0D01*
G01*
X94290000Y-107795000D01*
G75*
G02*
X94515000Y-108020000I0J-225000D01*
G01*
G37*
G36*
G01*
X96165000Y-108020000D02*
X96165000Y-108620000D01*
G75*
G02*
X95940000Y-108845000I-225000J0D01*
G01*
X95490000Y-108845000D01*
G75*
G02*
X95265000Y-108620000I0J225000D01*
G01*
X95265000Y-108020000D01*
G75*
G02*
X95490000Y-107795000I225000J0D01*
G01*
X95940000Y-107795000D01*
G75*
G02*
X96165000Y-108020000I0J-225000D01*
G01*
G37*
%TD*%
%TO.C,Q2*%
G36*
G01*
X96729289Y-102563603D02*
X96163603Y-103129289D01*
G75*
G02*
X96092893Y-103129289I-35355J35355D01*
G01*
X95456497Y-102492893D01*
G75*
G02*
X95456497Y-102422183I35355J35355D01*
G01*
X96022183Y-101856497D01*
G75*
G02*
X96092893Y-101856497I35355J-35355D01*
G01*
X96729289Y-102492893D01*
G75*
G02*
X96729289Y-102563603I-35355J-35355D01*
G01*
G37*
G36*
G01*
X98815254Y-103306065D02*
X98249568Y-103871751D01*
G75*
G02*
X98178858Y-103871751I-35355J35355D01*
G01*
X97542462Y-103235355D01*
G75*
G02*
X97542462Y-103164645I35355J35355D01*
G01*
X98108148Y-102598959D01*
G75*
G02*
X98178858Y-102598959I35355J-35355D01*
G01*
X98815254Y-103235355D01*
G75*
G02*
X98815254Y-103306065I-35355J-35355D01*
G01*
G37*
G36*
G01*
X97471751Y-104649568D02*
X96906065Y-105215254D01*
G75*
G02*
X96835355Y-105215254I-35355J35355D01*
G01*
X96198959Y-104578858D01*
G75*
G02*
X96198959Y-104508148I35355J35355D01*
G01*
X96764645Y-103942462D01*
G75*
G02*
X96835355Y-103942462I35355J-35355D01*
G01*
X97471751Y-104578858D01*
G75*
G02*
X97471751Y-104649568I-35355J-35355D01*
G01*
G37*
%TD*%
%TO.C,Q1*%
G36*
G01*
X96163603Y-96870711D02*
X96729289Y-97436397D01*
G75*
G02*
X96729289Y-97507107I-35355J-35355D01*
G01*
X96092893Y-98143503D01*
G75*
G02*
X96022183Y-98143503I-35355J35355D01*
G01*
X95456497Y-97577817D01*
G75*
G02*
X95456497Y-97507107I35355J35355D01*
G01*
X96092893Y-96870711D01*
G75*
G02*
X96163603Y-96870711I35355J-35355D01*
G01*
G37*
G36*
G01*
X96906065Y-94784746D02*
X97471751Y-95350432D01*
G75*
G02*
X97471751Y-95421142I-35355J-35355D01*
G01*
X96835355Y-96057538D01*
G75*
G02*
X96764645Y-96057538I-35355J35355D01*
G01*
X96198959Y-95491852D01*
G75*
G02*
X96198959Y-95421142I35355J35355D01*
G01*
X96835355Y-94784746D01*
G75*
G02*
X96906065Y-94784746I35355J-35355D01*
G01*
G37*
G36*
G01*
X98249568Y-96128249D02*
X98815254Y-96693935D01*
G75*
G02*
X98815254Y-96764645I-35355J-35355D01*
G01*
X98178858Y-97401041D01*
G75*
G02*
X98108148Y-97401041I-35355J35355D01*
G01*
X97542462Y-96835355D01*
G75*
G02*
X97542462Y-96764645I35355J35355D01*
G01*
X98178858Y-96128249D01*
G75*
G02*
X98249568Y-96128249I35355J-35355D01*
G01*
G37*
%TD*%
M02*
