M48
; DRILL file {KiCad 5.1.9-73d0e3b20d~88~ubuntu20.04.1} date Sun Apr 18 17:47:48 2021
; FORMAT={-:-/ absolute / metric / decimal}
; #@! TF.CreationDate,2021-04-18T17:47:48-07:00
; #@! TF.GenerationSoftware,Kicad,Pcbnew,5.1.9-73d0e3b20d~88~ubuntu20.04.1
; #@! TF.FileFunction,Plated,1,2,PTH
FMAT,2
METRIC
T1C0.400
T2C0.900
T3C1.020
%
G90
G05
T1
X92.202Y-114.808
X93.015Y-86.462
X93.218Y-112.014
X94.2Y-92.1
X94.6Y-98.5
X95.2Y-104.9
X95.213Y-115.273
X95.758Y-110.744
X96.266Y-116.332
X97.0Y-89.3
T3
X92.52Y-78.54
X92.52Y-81.08
X92.52Y-83.62
X92.52Y-116.38
X92.52Y-118.92
X92.52Y-121.46
T2
G00X99.175Y-93.375
M15
G01X100.825Y-93.375
M16
G05
G00X99.175Y-106.625
M15
G01X100.825Y-106.625
M16
G05
T0
M30
