%TF.GenerationSoftware,KiCad,Pcbnew,5.1.9-73d0e3b20d~88~ubuntu20.04.1*%
%TF.CreationDate,2021-04-18T17:47:56-07:00*%
%TF.ProjectId,encoder,656e636f-6465-4722-9e6b-696361645f70,rev?*%
%TF.SameCoordinates,Original*%
%TF.FileFunction,Copper,L1,Top*%
%TF.FilePolarity,Positive*%
%FSLAX46Y46*%
G04 Gerber Fmt 4.6, Leading zero omitted, Abs format (unit mm)*
G04 Created by KiCad (PCBNEW 5.1.9-73d0e3b20d~88~ubuntu20.04.1) date 2021-04-18 17:47:56*
%MOMM*%
%LPD*%
G01*
G04 APERTURE LIST*
%TA.AperFunction,ComponentPad*%
%ADD10O,3.300000X1.650000*%
%TD*%
%TA.AperFunction,ComponentPad*%
%ADD11C,1.520000*%
%TD*%
%TA.AperFunction,SMDPad,CuDef*%
%ADD12C,0.100000*%
%TD*%
%TA.AperFunction,ViaPad*%
%ADD13C,0.800000*%
%TD*%
%TA.AperFunction,Conductor*%
%ADD14C,0.750000*%
%TD*%
%TA.AperFunction,Conductor*%
%ADD15C,0.250000*%
%TD*%
%TA.AperFunction,Conductor*%
%ADD16C,0.500000*%
%TD*%
%TA.AperFunction,Conductor*%
%ADD17C,0.254000*%
%TD*%
%TA.AperFunction,Conductor*%
%ADD18C,0.100000*%
%TD*%
G04 APERTURE END LIST*
D10*
%TO.P,CN1,7*%
%TO.N,/MOTOR-*%
X100000000Y-106625200D03*
%TO.P,CN1,8*%
%TO.N,/MOTOR+*%
X100000000Y-93375200D03*
D11*
%TO.P,CN1,3*%
%TO.N,/GND*%
X92519900Y-116380000D03*
%TO.P,CN1,2*%
%TO.N,/QUADA*%
X92519900Y-118920000D03*
%TO.P,CN1,1*%
%TO.N,/QUADB*%
X92519900Y-121460000D03*
%TO.P,CN1,6*%
%TO.N,/MOTOR-*%
X92519900Y-78540000D03*
%TO.P,CN1,5*%
%TO.N,/MOTOR+*%
X92519900Y-81080000D03*
%TO.P,CN1,4*%
%TO.N,/VCC*%
X92519900Y-83620000D03*
%TD*%
%TO.P,C2,2*%
%TO.N,/GND*%
%TA.AperFunction,SMDPad,CuDef*%
G36*
G01*
X97975000Y-109546200D02*
X97975000Y-109046200D01*
G75*
G02*
X98200000Y-108821200I225000J0D01*
G01*
X98650000Y-108821200D01*
G75*
G02*
X98875000Y-109046200I0J-225000D01*
G01*
X98875000Y-109546200D01*
G75*
G02*
X98650000Y-109771200I-225000J0D01*
G01*
X98200000Y-109771200D01*
G75*
G02*
X97975000Y-109546200I0J225000D01*
G01*
G37*
%TD.AperFunction*%
%TO.P,C2,1*%
%TO.N,/VCC*%
%TA.AperFunction,SMDPad,CuDef*%
G36*
G01*
X96425000Y-109546200D02*
X96425000Y-109046200D01*
G75*
G02*
X96650000Y-108821200I225000J0D01*
G01*
X97100000Y-108821200D01*
G75*
G02*
X97325000Y-109046200I0J-225000D01*
G01*
X97325000Y-109546200D01*
G75*
G02*
X97100000Y-109771200I-225000J0D01*
G01*
X96650000Y-109771200D01*
G75*
G02*
X96425000Y-109546200I0J225000D01*
G01*
G37*
%TD.AperFunction*%
%TD*%
%TO.P,C1,2*%
%TO.N,/GND*%
%TA.AperFunction,SMDPad,CuDef*%
G36*
G01*
X93264800Y-88194000D02*
X92764800Y-88194000D01*
G75*
G02*
X92539800Y-87969000I0J225000D01*
G01*
X92539800Y-87519000D01*
G75*
G02*
X92764800Y-87294000I225000J0D01*
G01*
X93264800Y-87294000D01*
G75*
G02*
X93489800Y-87519000I0J-225000D01*
G01*
X93489800Y-87969000D01*
G75*
G02*
X93264800Y-88194000I-225000J0D01*
G01*
G37*
%TD.AperFunction*%
%TO.P,C1,1*%
%TO.N,/VCC*%
%TA.AperFunction,SMDPad,CuDef*%
G36*
G01*
X93264800Y-89744000D02*
X92764800Y-89744000D01*
G75*
G02*
X92539800Y-89519000I0J225000D01*
G01*
X92539800Y-89069000D01*
G75*
G02*
X92764800Y-88844000I225000J0D01*
G01*
X93264800Y-88844000D01*
G75*
G02*
X93489800Y-89069000I0J-225000D01*
G01*
X93489800Y-89519000D01*
G75*
G02*
X93264800Y-89744000I-225000J0D01*
G01*
G37*
%TD.AperFunction*%
%TD*%
%TO.P,R2,2*%
%TO.N,/QUADB*%
%TA.AperFunction,SMDPad,CuDef*%
G36*
G01*
X92225000Y-94425000D02*
X92775000Y-94425000D01*
G75*
G02*
X92975000Y-94625000I0J-200000D01*
G01*
X92975000Y-95025000D01*
G75*
G02*
X92775000Y-95225000I-200000J0D01*
G01*
X92225000Y-95225000D01*
G75*
G02*
X92025000Y-95025000I0J200000D01*
G01*
X92025000Y-94625000D01*
G75*
G02*
X92225000Y-94425000I200000J0D01*
G01*
G37*
%TD.AperFunction*%
%TO.P,R2,1*%
%TO.N,/VCC*%
%TA.AperFunction,SMDPad,CuDef*%
G36*
G01*
X92225000Y-92775000D02*
X92775000Y-92775000D01*
G75*
G02*
X92975000Y-92975000I0J-200000D01*
G01*
X92975000Y-93375000D01*
G75*
G02*
X92775000Y-93575000I-200000J0D01*
G01*
X92225000Y-93575000D01*
G75*
G02*
X92025000Y-93375000I0J200000D01*
G01*
X92025000Y-92975000D01*
G75*
G02*
X92225000Y-92775000I200000J0D01*
G01*
G37*
%TD.AperFunction*%
%TD*%
%TO.P,R1,2*%
%TO.N,/QUADA*%
%TA.AperFunction,SMDPad,CuDef*%
G36*
G01*
X94625000Y-108925000D02*
X95175000Y-108925000D01*
G75*
G02*
X95375000Y-109125000I0J-200000D01*
G01*
X95375000Y-109525000D01*
G75*
G02*
X95175000Y-109725000I-200000J0D01*
G01*
X94625000Y-109725000D01*
G75*
G02*
X94425000Y-109525000I0J200000D01*
G01*
X94425000Y-109125000D01*
G75*
G02*
X94625000Y-108925000I200000J0D01*
G01*
G37*
%TD.AperFunction*%
%TO.P,R1,1*%
%TO.N,/VCC*%
%TA.AperFunction,SMDPad,CuDef*%
G36*
G01*
X94625000Y-107275000D02*
X95175000Y-107275000D01*
G75*
G02*
X95375000Y-107475000I0J-200000D01*
G01*
X95375000Y-107875000D01*
G75*
G02*
X95175000Y-108075000I-200000J0D01*
G01*
X94625000Y-108075000D01*
G75*
G02*
X94425000Y-107875000I0J200000D01*
G01*
X94425000Y-107475000D01*
G75*
G02*
X94625000Y-107275000I200000J0D01*
G01*
G37*
%TD.AperFunction*%
%TD*%
%TA.AperFunction,SMDPad,CuDef*%
D12*
%TO.P,Q2,3*%
%TO.N,/GND*%
G36*
X96693934Y-102528248D02*
G01*
X96128248Y-103093934D01*
X95491852Y-102457538D01*
X96057538Y-101891852D01*
X96693934Y-102528248D01*
G37*
%TD.AperFunction*%
%TA.AperFunction,SMDPad,CuDef*%
%TO.P,Q2,2*%
%TO.N,/QUADA*%
G36*
X98779899Y-103270710D02*
G01*
X98214213Y-103836396D01*
X97577817Y-103200000D01*
X98143503Y-102634314D01*
X98779899Y-103270710D01*
G37*
%TD.AperFunction*%
%TA.AperFunction,SMDPad,CuDef*%
%TO.P,Q2,1*%
%TO.N,/VCC*%
G36*
X97436396Y-104614213D02*
G01*
X96870710Y-105179899D01*
X96234314Y-104543503D01*
X96800000Y-103977817D01*
X97436396Y-104614213D01*
G37*
%TD.AperFunction*%
%TD*%
%TA.AperFunction,SMDPad,CuDef*%
%TO.P,Q1,3*%
%TO.N,/GND*%
G36*
X96128248Y-96906066D02*
G01*
X96693934Y-97471752D01*
X96057538Y-98108148D01*
X95491852Y-97542462D01*
X96128248Y-96906066D01*
G37*
%TD.AperFunction*%
%TA.AperFunction,SMDPad,CuDef*%
%TO.P,Q1,2*%
%TO.N,/QUADB*%
G36*
X96870710Y-94820101D02*
G01*
X97436396Y-95385787D01*
X96800000Y-96022183D01*
X96234314Y-95456497D01*
X96870710Y-94820101D01*
G37*
%TD.AperFunction*%
%TA.AperFunction,SMDPad,CuDef*%
%TO.P,Q1,1*%
%TO.N,/VCC*%
G36*
X98214213Y-96163604D02*
G01*
X98779899Y-96729290D01*
X98143503Y-97365686D01*
X97577817Y-96800000D01*
X98214213Y-96163604D01*
G37*
%TD.AperFunction*%
%TD*%
D13*
%TO.N,/QUADB*%
X92202000Y-114808006D03*
X95213010Y-115272616D03*
%TO.N,/GND*%
X94600000Y-98500000D03*
X94200000Y-92100000D03*
X97000000Y-89300000D03*
X95200000Y-104900000D03*
X93014800Y-86461600D03*
X95758000Y-110744000D03*
X96266000Y-116332000D03*
X93218000Y-112014000D03*
%TD*%
D14*
%TO.N,/MOTOR-*%
X100029200Y-106625200D02*
X100000000Y-106625200D01*
X95200000Y-89764400D02*
X96335600Y-90900000D01*
X96335600Y-90900000D02*
X100900000Y-90900000D01*
X100900000Y-90900000D02*
X102675700Y-92675700D01*
X92519900Y-78540000D02*
X95200000Y-81220100D01*
X95200000Y-81220100D02*
X95200000Y-89764400D01*
X102675700Y-92675700D02*
X102675700Y-95741500D01*
X104495600Y-102158800D02*
X100029200Y-106625200D01*
X102675700Y-95741500D02*
X104495600Y-97561400D01*
X104495600Y-97561400D02*
X104495600Y-102158800D01*
%TO.N,/MOTOR+*%
X94249989Y-82810089D02*
X92519900Y-81080000D01*
X98474811Y-91850011D02*
X95942093Y-91850011D01*
X100000000Y-93375200D02*
X98474811Y-91850011D01*
X94249989Y-90157907D02*
X94249989Y-82810089D01*
X95942093Y-91850011D02*
X94249989Y-90157907D01*
D15*
%TO.N,/QUADB*%
X96232413Y-94818200D02*
X92506800Y-94818200D01*
X92506800Y-94818200D02*
X92500000Y-94825000D01*
X96835355Y-95421142D02*
X96232413Y-94818200D01*
X91694000Y-114300006D02*
X92202000Y-114808006D01*
X91694000Y-95316000D02*
X91694000Y-114300006D01*
X92500000Y-94510000D02*
X91694000Y-95316000D01*
X94035950Y-119943950D02*
X92519900Y-121460000D01*
X94035950Y-118816050D02*
X94035950Y-119943950D01*
X95213010Y-117638990D02*
X94035950Y-118816050D01*
X95213010Y-115272616D02*
X95213010Y-117638990D01*
%TO.N,/QUADA*%
X98200000Y-103497057D02*
X98090280Y-103606777D01*
X94900000Y-109325000D02*
X94262800Y-109325000D01*
X96345400Y-101401897D02*
X98178858Y-103235355D01*
X96345400Y-101400000D02*
X96345400Y-101401897D01*
X95200000Y-101400000D02*
X96345400Y-101400000D01*
X93802200Y-102797800D02*
X95200000Y-101400000D01*
X93802200Y-108864400D02*
X93802200Y-102797800D01*
X94262800Y-109325000D02*
X93802200Y-108864400D01*
X94488000Y-116951900D02*
X92519900Y-118920000D01*
X94900000Y-110332000D02*
X94488000Y-110744000D01*
X94900000Y-109325000D02*
X94900000Y-110332000D01*
X94488000Y-110744000D02*
X94488000Y-116951900D01*
D16*
%TO.N,/GND*%
X94600000Y-98500000D02*
X95124200Y-98500000D01*
X95124200Y-98475800D02*
X95124200Y-98500000D01*
X96092893Y-97507107D02*
X95124200Y-98475800D01*
X95200000Y-103402600D02*
X95200000Y-104900000D01*
X96092893Y-102509707D02*
X95200000Y-103402600D01*
X96092893Y-102492893D02*
X96092893Y-102509707D01*
X93014800Y-87744000D02*
X93014800Y-86461600D01*
X98425000Y-109771200D02*
X97452200Y-110744000D01*
X98425000Y-109296200D02*
X98425000Y-109771200D01*
X97452200Y-110744000D02*
X95758000Y-110744000D01*
X96266000Y-111252000D02*
X95758000Y-110744000D01*
X96266000Y-116332000D02*
X96266000Y-111252000D01*
%TO.N,/VCC*%
X98178858Y-96764645D02*
X99071952Y-95871552D01*
X96835355Y-104578858D02*
X97361697Y-105105200D01*
X97361697Y-105528303D02*
X97361697Y-105105200D01*
X97361697Y-105863703D02*
X97361697Y-105528303D01*
X94900000Y-107675000D02*
X95550400Y-107675000D01*
X101574600Y-96367600D02*
X99568000Y-96367600D01*
X103454200Y-98247200D02*
X101574600Y-96367600D01*
X103454200Y-101600000D02*
X103454200Y-98247200D01*
X101257100Y-103797100D02*
X103454200Y-101600000D01*
X99568000Y-96367600D02*
X99071952Y-95871552D01*
X99529900Y-103797100D02*
X101257100Y-103797100D01*
X98221800Y-105105200D02*
X99529900Y-103797100D01*
X97361697Y-105105200D02*
X98221800Y-105105200D01*
X93360772Y-93175000D02*
X92500000Y-93175000D01*
X94241972Y-94056200D02*
X93360772Y-93175000D01*
X97256600Y-94056200D02*
X94241972Y-94056200D01*
X99071952Y-95871552D02*
X97256600Y-94056200D01*
X91900000Y-84239900D02*
X92519900Y-83620000D01*
X92500000Y-93175000D02*
X92500000Y-92728600D01*
X92500000Y-92728600D02*
X92500000Y-91802400D01*
X93014800Y-91287600D02*
X93014800Y-89294000D01*
X92500000Y-91802400D02*
X93014800Y-91287600D01*
X93014800Y-89294000D02*
X92367400Y-89294000D01*
X91900000Y-88826600D02*
X91900000Y-84239900D01*
X92367400Y-89294000D02*
X91900000Y-88826600D01*
X96875000Y-108355800D02*
X95872300Y-107353100D01*
X96875000Y-109296200D02*
X96875000Y-108355800D01*
X95872300Y-107353100D02*
X97361697Y-105863703D01*
X95550400Y-107675000D02*
X95872300Y-107353100D01*
%TD*%
D17*
%TO.N,/GND*%
X105090000Y-109774659D02*
X105079764Y-109907724D01*
X105075749Y-109959926D01*
X105063954Y-110011036D01*
X105041495Y-110078415D01*
X105009514Y-110155168D01*
X104974904Y-110224388D01*
X104942338Y-110275563D01*
X104896606Y-110332729D01*
X104842665Y-110392663D01*
X104782739Y-110446596D01*
X104725561Y-110492339D01*
X104674388Y-110524904D01*
X104605168Y-110559514D01*
X104528418Y-110591494D01*
X104461037Y-110613954D01*
X104409926Y-110625749D01*
X104361705Y-110629458D01*
X104361703Y-110629458D01*
X104224659Y-110640000D01*
X99007025Y-110640000D01*
X98981703Y-110639458D01*
X98974657Y-110640000D01*
X98967581Y-110640000D01*
X98942341Y-110642486D01*
X98851705Y-110649458D01*
X98851703Y-110649458D01*
X98737003Y-110658281D01*
X98719810Y-110657115D01*
X98672329Y-110663256D01*
X98657057Y-110664431D01*
X98640175Y-110667415D01*
X98623181Y-110669613D01*
X98608263Y-110673056D01*
X98561111Y-110681390D01*
X98545052Y-110687643D01*
X98462458Y-110706703D01*
X98432045Y-110713618D01*
X98431041Y-110713953D01*
X98430004Y-110714192D01*
X98400388Y-110724170D01*
X98289133Y-110761255D01*
X98266080Y-110768301D01*
X98258420Y-110771493D01*
X98250535Y-110774121D01*
X98228499Y-110783960D01*
X98125087Y-110827048D01*
X98103836Y-110835180D01*
X98095163Y-110839516D01*
X98086229Y-110843239D01*
X98066213Y-110853992D01*
X98011519Y-110881339D01*
X98009945Y-110881778D01*
X97953411Y-110910393D01*
X97925843Y-110924177D01*
X97924468Y-110925043D01*
X97923013Y-110925779D01*
X97896923Y-110942382D01*
X97843387Y-110976082D01*
X97842202Y-110977205D01*
X97837738Y-110980045D01*
X97834698Y-110981260D01*
X97782930Y-111014923D01*
X97758312Y-111030589D01*
X97755753Y-111032595D01*
X97753016Y-111034375D01*
X97730180Y-111052644D01*
X97681634Y-111090703D01*
X97679500Y-111093188D01*
X97638035Y-111126360D01*
X97622580Y-111137739D01*
X97612725Y-111146608D01*
X97602387Y-111154879D01*
X97588660Y-111168267D01*
X97545069Y-111207500D01*
X97543077Y-111208703D01*
X97496760Y-111250978D01*
X97474387Y-111271114D01*
X97472830Y-111272820D01*
X97471113Y-111274387D01*
X97450885Y-111296862D01*
X97408703Y-111343077D01*
X97407500Y-111345069D01*
X97368271Y-111388657D01*
X97354879Y-111402387D01*
X97346603Y-111412733D01*
X97337739Y-111422581D01*
X97326365Y-111438029D01*
X97293190Y-111479499D01*
X97290703Y-111481634D01*
X97252611Y-111530223D01*
X97234375Y-111553017D01*
X97232599Y-111555748D01*
X97230589Y-111558312D01*
X97214910Y-111582950D01*
X97181259Y-111634699D01*
X97180043Y-111637741D01*
X97177205Y-111642202D01*
X97176082Y-111643387D01*
X97142445Y-111696823D01*
X97125779Y-111723013D01*
X97125043Y-111724468D01*
X97124177Y-111725843D01*
X97110393Y-111753411D01*
X97081778Y-111809945D01*
X97081339Y-111811519D01*
X97053992Y-111866213D01*
X97043239Y-111886229D01*
X97039516Y-111895163D01*
X97035180Y-111903836D01*
X97027045Y-111925094D01*
X96983960Y-112028499D01*
X96974121Y-112050535D01*
X96971493Y-112058420D01*
X96968301Y-112066080D01*
X96961254Y-112089136D01*
X96924196Y-112200312D01*
X96914192Y-112230004D01*
X96913952Y-112231044D01*
X96913618Y-112232046D01*
X96906715Y-112262403D01*
X96887643Y-112345051D01*
X96881390Y-112361111D01*
X96873055Y-112408266D01*
X96869613Y-112423182D01*
X96867415Y-112440173D01*
X96864431Y-112457057D01*
X96863256Y-112472330D01*
X96857115Y-112519810D01*
X96858281Y-112537003D01*
X96854431Y-112587057D01*
X96842483Y-112742384D01*
X96840001Y-112767581D01*
X96840001Y-112774645D01*
X96839458Y-112781704D01*
X96840001Y-112807072D01*
X96840000Y-122474659D01*
X96829458Y-122611703D01*
X96825749Y-122659926D01*
X96813954Y-122711036D01*
X96791495Y-122778415D01*
X96759514Y-122855168D01*
X96724904Y-122924388D01*
X96692338Y-122975563D01*
X96646606Y-123032729D01*
X96592665Y-123092663D01*
X96532739Y-123146596D01*
X96475561Y-123192339D01*
X96424388Y-123224904D01*
X96355168Y-123259514D01*
X96278418Y-123291494D01*
X96211037Y-123313954D01*
X96159926Y-123325749D01*
X96111705Y-123329458D01*
X96111703Y-123329458D01*
X95974659Y-123340000D01*
X92525341Y-123340000D01*
X92388296Y-123329458D01*
X92388295Y-123329458D01*
X92340074Y-123325749D01*
X92288964Y-123313954D01*
X92221585Y-123291495D01*
X92144832Y-123259514D01*
X92075612Y-123224904D01*
X92024437Y-123192338D01*
X91967271Y-123146606D01*
X91907337Y-123092665D01*
X91853404Y-123032739D01*
X91807661Y-122975561D01*
X91775096Y-122924388D01*
X91740486Y-122855168D01*
X91708506Y-122778418D01*
X91686046Y-122711037D01*
X91674251Y-122659926D01*
X91670542Y-122611703D01*
X91667179Y-122567982D01*
X91859120Y-122696233D01*
X92112993Y-122801391D01*
X92382504Y-122855000D01*
X92657296Y-122855000D01*
X92926807Y-122801391D01*
X93180680Y-122696233D01*
X93409161Y-122543567D01*
X93603467Y-122349261D01*
X93756133Y-122120780D01*
X93861291Y-121866907D01*
X93914900Y-121597396D01*
X93914900Y-121322604D01*
X93884571Y-121170131D01*
X94546958Y-120507745D01*
X94575951Y-120483951D01*
X94599745Y-120454958D01*
X94599749Y-120454954D01*
X94670923Y-120368227D01*
X94699374Y-120315000D01*
X94741496Y-120236197D01*
X94784953Y-120092936D01*
X94795950Y-119981283D01*
X94795950Y-119981274D01*
X94799626Y-119943951D01*
X94795950Y-119906628D01*
X94795950Y-119130851D01*
X95724013Y-118202789D01*
X95753011Y-118178991D01*
X95847984Y-118063266D01*
X95918556Y-117931237D01*
X95962013Y-117787976D01*
X95973010Y-117676323D01*
X95973010Y-117676314D01*
X95976686Y-117638991D01*
X95973010Y-117601668D01*
X95973010Y-115976327D01*
X96016947Y-115932390D01*
X96130215Y-115762872D01*
X96208236Y-115574514D01*
X96248010Y-115374555D01*
X96248010Y-115170677D01*
X96208236Y-114970718D01*
X96130215Y-114782360D01*
X96016947Y-114612842D01*
X95872784Y-114468679D01*
X95703266Y-114355411D01*
X95514908Y-114277390D01*
X95314949Y-114237616D01*
X95248000Y-114237616D01*
X95248000Y-111058801D01*
X95410997Y-110895804D01*
X95440001Y-110872001D01*
X95534974Y-110756276D01*
X95605546Y-110624247D01*
X95649003Y-110480986D01*
X95660000Y-110369333D01*
X95660000Y-110369323D01*
X95663676Y-110332000D01*
X95660000Y-110294678D01*
X95660000Y-110205916D01*
X95767606Y-110117606D01*
X95871831Y-109990608D01*
X95892729Y-109951511D01*
X95932382Y-110025697D01*
X96039716Y-110156484D01*
X96170503Y-110263818D01*
X96319717Y-110343575D01*
X96481623Y-110392688D01*
X96650000Y-110409272D01*
X97100000Y-110409272D01*
X97268377Y-110392688D01*
X97430283Y-110343575D01*
X97576351Y-110265500D01*
X97620506Y-110301737D01*
X97730820Y-110360702D01*
X97850518Y-110397012D01*
X97975000Y-110409272D01*
X98139250Y-110406200D01*
X98298000Y-110247450D01*
X98298000Y-109423200D01*
X98552000Y-109423200D01*
X98552000Y-110247450D01*
X98710750Y-110406200D01*
X98875000Y-110409272D01*
X98999482Y-110397012D01*
X99119180Y-110360702D01*
X99229494Y-110301737D01*
X99326185Y-110222385D01*
X99405537Y-110125694D01*
X99464502Y-110015380D01*
X99500812Y-109895682D01*
X99513072Y-109771200D01*
X99510000Y-109581950D01*
X99351250Y-109423200D01*
X98552000Y-109423200D01*
X98298000Y-109423200D01*
X98278000Y-109423200D01*
X98278000Y-109169200D01*
X98298000Y-109169200D01*
X98298000Y-108344950D01*
X98552000Y-108344950D01*
X98552000Y-109169200D01*
X99351250Y-109169200D01*
X99510000Y-109010450D01*
X99513072Y-108821200D01*
X99500812Y-108696718D01*
X99464502Y-108577020D01*
X99405537Y-108466706D01*
X99326185Y-108370015D01*
X99229494Y-108290663D01*
X99119180Y-108231698D01*
X98999482Y-108195388D01*
X98875000Y-108183128D01*
X98710750Y-108186200D01*
X98552000Y-108344950D01*
X98298000Y-108344950D01*
X98139250Y-108186200D01*
X97975000Y-108183128D01*
X97850518Y-108195388D01*
X97751443Y-108225442D01*
X97747195Y-108182310D01*
X97743176Y-108169059D01*
X97719954Y-108092510D01*
X97696589Y-108015487D01*
X97614411Y-107861741D01*
X97503817Y-107726983D01*
X97470049Y-107699270D01*
X97123879Y-107353100D01*
X97720833Y-106756146D01*
X97736125Y-106911410D01*
X97819610Y-107186621D01*
X97955181Y-107440257D01*
X98137629Y-107662571D01*
X98359943Y-107845019D01*
X98613579Y-107980590D01*
X98888790Y-108064075D01*
X99103277Y-108085200D01*
X100896723Y-108085200D01*
X101111210Y-108064075D01*
X101386421Y-107980590D01*
X101640057Y-107845019D01*
X101862371Y-107662571D01*
X102044819Y-107440257D01*
X102180390Y-107186621D01*
X102263875Y-106911410D01*
X102292064Y-106625200D01*
X102263875Y-106338990D01*
X102180390Y-106063779D01*
X102124165Y-105958590D01*
X105090000Y-102992756D01*
X105090000Y-109774659D01*
%TA.AperFunction,Conductor*%
D18*
G36*
X105090000Y-109774659D02*
G01*
X105079764Y-109907724D01*
X105075749Y-109959926D01*
X105063954Y-110011036D01*
X105041495Y-110078415D01*
X105009514Y-110155168D01*
X104974904Y-110224388D01*
X104942338Y-110275563D01*
X104896606Y-110332729D01*
X104842665Y-110392663D01*
X104782739Y-110446596D01*
X104725561Y-110492339D01*
X104674388Y-110524904D01*
X104605168Y-110559514D01*
X104528418Y-110591494D01*
X104461037Y-110613954D01*
X104409926Y-110625749D01*
X104361705Y-110629458D01*
X104361703Y-110629458D01*
X104224659Y-110640000D01*
X99007025Y-110640000D01*
X98981703Y-110639458D01*
X98974657Y-110640000D01*
X98967581Y-110640000D01*
X98942341Y-110642486D01*
X98851705Y-110649458D01*
X98851703Y-110649458D01*
X98737003Y-110658281D01*
X98719810Y-110657115D01*
X98672329Y-110663256D01*
X98657057Y-110664431D01*
X98640175Y-110667415D01*
X98623181Y-110669613D01*
X98608263Y-110673056D01*
X98561111Y-110681390D01*
X98545052Y-110687643D01*
X98462458Y-110706703D01*
X98432045Y-110713618D01*
X98431041Y-110713953D01*
X98430004Y-110714192D01*
X98400388Y-110724170D01*
X98289133Y-110761255D01*
X98266080Y-110768301D01*
X98258420Y-110771493D01*
X98250535Y-110774121D01*
X98228499Y-110783960D01*
X98125087Y-110827048D01*
X98103836Y-110835180D01*
X98095163Y-110839516D01*
X98086229Y-110843239D01*
X98066213Y-110853992D01*
X98011519Y-110881339D01*
X98009945Y-110881778D01*
X97953411Y-110910393D01*
X97925843Y-110924177D01*
X97924468Y-110925043D01*
X97923013Y-110925779D01*
X97896923Y-110942382D01*
X97843387Y-110976082D01*
X97842202Y-110977205D01*
X97837738Y-110980045D01*
X97834698Y-110981260D01*
X97782930Y-111014923D01*
X97758312Y-111030589D01*
X97755753Y-111032595D01*
X97753016Y-111034375D01*
X97730180Y-111052644D01*
X97681634Y-111090703D01*
X97679500Y-111093188D01*
X97638035Y-111126360D01*
X97622580Y-111137739D01*
X97612725Y-111146608D01*
X97602387Y-111154879D01*
X97588660Y-111168267D01*
X97545069Y-111207500D01*
X97543077Y-111208703D01*
X97496760Y-111250978D01*
X97474387Y-111271114D01*
X97472830Y-111272820D01*
X97471113Y-111274387D01*
X97450885Y-111296862D01*
X97408703Y-111343077D01*
X97407500Y-111345069D01*
X97368271Y-111388657D01*
X97354879Y-111402387D01*
X97346603Y-111412733D01*
X97337739Y-111422581D01*
X97326365Y-111438029D01*
X97293190Y-111479499D01*
X97290703Y-111481634D01*
X97252611Y-111530223D01*
X97234375Y-111553017D01*
X97232599Y-111555748D01*
X97230589Y-111558312D01*
X97214910Y-111582950D01*
X97181259Y-111634699D01*
X97180043Y-111637741D01*
X97177205Y-111642202D01*
X97176082Y-111643387D01*
X97142445Y-111696823D01*
X97125779Y-111723013D01*
X97125043Y-111724468D01*
X97124177Y-111725843D01*
X97110393Y-111753411D01*
X97081778Y-111809945D01*
X97081339Y-111811519D01*
X97053992Y-111866213D01*
X97043239Y-111886229D01*
X97039516Y-111895163D01*
X97035180Y-111903836D01*
X97027045Y-111925094D01*
X96983960Y-112028499D01*
X96974121Y-112050535D01*
X96971493Y-112058420D01*
X96968301Y-112066080D01*
X96961254Y-112089136D01*
X96924196Y-112200312D01*
X96914192Y-112230004D01*
X96913952Y-112231044D01*
X96913618Y-112232046D01*
X96906715Y-112262403D01*
X96887643Y-112345051D01*
X96881390Y-112361111D01*
X96873055Y-112408266D01*
X96869613Y-112423182D01*
X96867415Y-112440173D01*
X96864431Y-112457057D01*
X96863256Y-112472330D01*
X96857115Y-112519810D01*
X96858281Y-112537003D01*
X96854431Y-112587057D01*
X96842483Y-112742384D01*
X96840001Y-112767581D01*
X96840001Y-112774645D01*
X96839458Y-112781704D01*
X96840001Y-112807072D01*
X96840000Y-122474659D01*
X96829458Y-122611703D01*
X96825749Y-122659926D01*
X96813954Y-122711036D01*
X96791495Y-122778415D01*
X96759514Y-122855168D01*
X96724904Y-122924388D01*
X96692338Y-122975563D01*
X96646606Y-123032729D01*
X96592665Y-123092663D01*
X96532739Y-123146596D01*
X96475561Y-123192339D01*
X96424388Y-123224904D01*
X96355168Y-123259514D01*
X96278418Y-123291494D01*
X96211037Y-123313954D01*
X96159926Y-123325749D01*
X96111705Y-123329458D01*
X96111703Y-123329458D01*
X95974659Y-123340000D01*
X92525341Y-123340000D01*
X92388296Y-123329458D01*
X92388295Y-123329458D01*
X92340074Y-123325749D01*
X92288964Y-123313954D01*
X92221585Y-123291495D01*
X92144832Y-123259514D01*
X92075612Y-123224904D01*
X92024437Y-123192338D01*
X91967271Y-123146606D01*
X91907337Y-123092665D01*
X91853404Y-123032739D01*
X91807661Y-122975561D01*
X91775096Y-122924388D01*
X91740486Y-122855168D01*
X91708506Y-122778418D01*
X91686046Y-122711037D01*
X91674251Y-122659926D01*
X91670542Y-122611703D01*
X91667179Y-122567982D01*
X91859120Y-122696233D01*
X92112993Y-122801391D01*
X92382504Y-122855000D01*
X92657296Y-122855000D01*
X92926807Y-122801391D01*
X93180680Y-122696233D01*
X93409161Y-122543567D01*
X93603467Y-122349261D01*
X93756133Y-122120780D01*
X93861291Y-121866907D01*
X93914900Y-121597396D01*
X93914900Y-121322604D01*
X93884571Y-121170131D01*
X94546958Y-120507745D01*
X94575951Y-120483951D01*
X94599745Y-120454958D01*
X94599749Y-120454954D01*
X94670923Y-120368227D01*
X94699374Y-120315000D01*
X94741496Y-120236197D01*
X94784953Y-120092936D01*
X94795950Y-119981283D01*
X94795950Y-119981274D01*
X94799626Y-119943951D01*
X94795950Y-119906628D01*
X94795950Y-119130851D01*
X95724013Y-118202789D01*
X95753011Y-118178991D01*
X95847984Y-118063266D01*
X95918556Y-117931237D01*
X95962013Y-117787976D01*
X95973010Y-117676323D01*
X95973010Y-117676314D01*
X95976686Y-117638991D01*
X95973010Y-117601668D01*
X95973010Y-115976327D01*
X96016947Y-115932390D01*
X96130215Y-115762872D01*
X96208236Y-115574514D01*
X96248010Y-115374555D01*
X96248010Y-115170677D01*
X96208236Y-114970718D01*
X96130215Y-114782360D01*
X96016947Y-114612842D01*
X95872784Y-114468679D01*
X95703266Y-114355411D01*
X95514908Y-114277390D01*
X95314949Y-114237616D01*
X95248000Y-114237616D01*
X95248000Y-111058801D01*
X95410997Y-110895804D01*
X95440001Y-110872001D01*
X95534974Y-110756276D01*
X95605546Y-110624247D01*
X95649003Y-110480986D01*
X95660000Y-110369333D01*
X95660000Y-110369323D01*
X95663676Y-110332000D01*
X95660000Y-110294678D01*
X95660000Y-110205916D01*
X95767606Y-110117606D01*
X95871831Y-109990608D01*
X95892729Y-109951511D01*
X95932382Y-110025697D01*
X96039716Y-110156484D01*
X96170503Y-110263818D01*
X96319717Y-110343575D01*
X96481623Y-110392688D01*
X96650000Y-110409272D01*
X97100000Y-110409272D01*
X97268377Y-110392688D01*
X97430283Y-110343575D01*
X97576351Y-110265500D01*
X97620506Y-110301737D01*
X97730820Y-110360702D01*
X97850518Y-110397012D01*
X97975000Y-110409272D01*
X98139250Y-110406200D01*
X98298000Y-110247450D01*
X98298000Y-109423200D01*
X98552000Y-109423200D01*
X98552000Y-110247450D01*
X98710750Y-110406200D01*
X98875000Y-110409272D01*
X98999482Y-110397012D01*
X99119180Y-110360702D01*
X99229494Y-110301737D01*
X99326185Y-110222385D01*
X99405537Y-110125694D01*
X99464502Y-110015380D01*
X99500812Y-109895682D01*
X99513072Y-109771200D01*
X99510000Y-109581950D01*
X99351250Y-109423200D01*
X98552000Y-109423200D01*
X98298000Y-109423200D01*
X98278000Y-109423200D01*
X98278000Y-109169200D01*
X98298000Y-109169200D01*
X98298000Y-108344950D01*
X98552000Y-108344950D01*
X98552000Y-109169200D01*
X99351250Y-109169200D01*
X99510000Y-109010450D01*
X99513072Y-108821200D01*
X99500812Y-108696718D01*
X99464502Y-108577020D01*
X99405537Y-108466706D01*
X99326185Y-108370015D01*
X99229494Y-108290663D01*
X99119180Y-108231698D01*
X98999482Y-108195388D01*
X98875000Y-108183128D01*
X98710750Y-108186200D01*
X98552000Y-108344950D01*
X98298000Y-108344950D01*
X98139250Y-108186200D01*
X97975000Y-108183128D01*
X97850518Y-108195388D01*
X97751443Y-108225442D01*
X97747195Y-108182310D01*
X97743176Y-108169059D01*
X97719954Y-108092510D01*
X97696589Y-108015487D01*
X97614411Y-107861741D01*
X97503817Y-107726983D01*
X97470049Y-107699270D01*
X97123879Y-107353100D01*
X97720833Y-106756146D01*
X97736125Y-106911410D01*
X97819610Y-107186621D01*
X97955181Y-107440257D01*
X98137629Y-107662571D01*
X98359943Y-107845019D01*
X98613579Y-107980590D01*
X98888790Y-108064075D01*
X99103277Y-108085200D01*
X100896723Y-108085200D01*
X101111210Y-108064075D01*
X101386421Y-107980590D01*
X101640057Y-107845019D01*
X101862371Y-107662571D01*
X102044819Y-107440257D01*
X102180390Y-107186621D01*
X102263875Y-106911410D01*
X102292064Y-106625200D01*
X102263875Y-106338990D01*
X102180390Y-106063779D01*
X102124165Y-105958590D01*
X105090000Y-102992756D01*
X105090000Y-109774659D01*
G37*
%TD.AperFunction*%
D17*
X95608502Y-95580979D02*
X95644812Y-95700677D01*
X95703777Y-95810991D01*
X95783129Y-95907682D01*
X96145101Y-96269654D01*
X96128248Y-96267994D01*
X96003767Y-96280255D01*
X95884069Y-96316564D01*
X95773754Y-96375528D01*
X95677063Y-96454881D01*
X95563093Y-96573196D01*
X95563093Y-96797702D01*
X96092893Y-97327502D01*
X96658048Y-96762347D01*
X96658048Y-96642696D01*
X96675518Y-96647995D01*
X96800000Y-96660255D01*
X96924482Y-96647995D01*
X96963989Y-96636011D01*
X96952005Y-96675518D01*
X96939745Y-96800000D01*
X96952005Y-96924482D01*
X96957304Y-96941952D01*
X96837653Y-96941952D01*
X96272498Y-97507107D01*
X96802298Y-98036907D01*
X97026804Y-98036907D01*
X97145119Y-97922937D01*
X97224472Y-97826246D01*
X97283436Y-97715931D01*
X97319745Y-97596233D01*
X97332006Y-97471752D01*
X97330346Y-97454899D01*
X97692318Y-97816871D01*
X97789009Y-97896223D01*
X97899323Y-97955188D01*
X98019021Y-97991498D01*
X98143503Y-98003758D01*
X98267985Y-97991498D01*
X98387683Y-97955188D01*
X98497997Y-97896223D01*
X98594688Y-97816871D01*
X99224222Y-97187337D01*
X99227687Y-97189189D01*
X99394510Y-97239795D01*
X99524523Y-97252600D01*
X99524531Y-97252600D01*
X99568000Y-97256881D01*
X99611469Y-97252600D01*
X101208022Y-97252600D01*
X102569201Y-98613780D01*
X102569200Y-101233421D01*
X100890522Y-102912100D01*
X99573369Y-102912100D01*
X99529900Y-102907819D01*
X99486431Y-102912100D01*
X99486423Y-102912100D01*
X99356410Y-102924905D01*
X99320847Y-102935693D01*
X99310436Y-102916216D01*
X99231084Y-102819525D01*
X98594688Y-102183129D01*
X98497997Y-102103777D01*
X98387683Y-102044812D01*
X98267985Y-102008502D01*
X98143503Y-101996242D01*
X98026109Y-102007804D01*
X96917885Y-100899581D01*
X96885401Y-100859999D01*
X96769676Y-100765026D01*
X96637647Y-100694454D01*
X96494386Y-100650997D01*
X96382733Y-100640000D01*
X96345400Y-100636323D01*
X96308067Y-100640000D01*
X95237325Y-100640000D01*
X95200000Y-100636324D01*
X95162675Y-100640000D01*
X95162667Y-100640000D01*
X95051014Y-100650997D01*
X94907753Y-100694454D01*
X94775724Y-100765026D01*
X94659999Y-100859999D01*
X94636201Y-100888997D01*
X93291198Y-102234001D01*
X93262200Y-102257799D01*
X93238402Y-102286797D01*
X93238401Y-102286798D01*
X93167226Y-102373524D01*
X93096654Y-102505554D01*
X93073460Y-102582019D01*
X93053198Y-102648814D01*
X93045927Y-102722640D01*
X93038524Y-102797800D01*
X93042201Y-102835132D01*
X93042200Y-108827077D01*
X93038524Y-108864400D01*
X93042200Y-108901722D01*
X93042200Y-108901732D01*
X93053197Y-109013385D01*
X93091229Y-109138761D01*
X93096654Y-109156646D01*
X93167226Y-109288676D01*
X93176216Y-109299630D01*
X93262199Y-109404401D01*
X93291203Y-109428204D01*
X93698996Y-109835997D01*
X93722799Y-109865001D01*
X93838524Y-109959974D01*
X93953437Y-110021397D01*
X94032394Y-110117606D01*
X94036348Y-110120851D01*
X93977003Y-110180196D01*
X93947999Y-110203999D01*
X93919366Y-110238889D01*
X93853026Y-110319724D01*
X93797766Y-110423107D01*
X93782454Y-110451754D01*
X93738997Y-110595015D01*
X93728000Y-110706668D01*
X93728000Y-110706678D01*
X93724324Y-110744000D01*
X93728000Y-110781323D01*
X93728001Y-115669831D01*
X93723925Y-115662206D01*
X93484037Y-115595469D01*
X92699505Y-116380000D01*
X92713648Y-116394142D01*
X92534042Y-116573748D01*
X92519900Y-116559605D01*
X92505758Y-116573748D01*
X92326152Y-116394142D01*
X92340295Y-116380000D01*
X92326152Y-116365858D01*
X92505758Y-116186253D01*
X92519900Y-116200395D01*
X93304431Y-115415863D01*
X93237694Y-115175975D01*
X93180914Y-115149285D01*
X93197226Y-115109904D01*
X93237000Y-114909945D01*
X93237000Y-114706067D01*
X93197226Y-114506108D01*
X93119205Y-114317750D01*
X93005937Y-114148232D01*
X92861774Y-114004069D01*
X92692256Y-113890801D01*
X92503898Y-113812780D01*
X92454000Y-113802855D01*
X92454000Y-99789721D01*
X97865000Y-99789721D01*
X97865000Y-100210279D01*
X97947047Y-100622756D01*
X98107988Y-101011302D01*
X98341637Y-101360983D01*
X98639017Y-101658363D01*
X98988698Y-101892012D01*
X99377244Y-102052953D01*
X99789721Y-102135000D01*
X100210279Y-102135000D01*
X100622756Y-102052953D01*
X101011302Y-101892012D01*
X101360983Y-101658363D01*
X101658363Y-101360983D01*
X101892012Y-101011302D01*
X102052953Y-100622756D01*
X102135000Y-100210279D01*
X102135000Y-99789721D01*
X102052953Y-99377244D01*
X101892012Y-98988698D01*
X101658363Y-98639017D01*
X101360983Y-98341637D01*
X101011302Y-98107988D01*
X100622756Y-97947047D01*
X100210279Y-97865000D01*
X99789721Y-97865000D01*
X99377244Y-97947047D01*
X98988698Y-98107988D01*
X98639017Y-98341637D01*
X98341637Y-98639017D01*
X98107988Y-98988698D01*
X97947047Y-99377244D01*
X97865000Y-99789721D01*
X92454000Y-99789721D01*
X92454000Y-98251867D01*
X95527738Y-98251867D01*
X95527738Y-98476374D01*
X95606353Y-98559333D01*
X95703044Y-98638686D01*
X95813358Y-98697650D01*
X95933056Y-98733959D01*
X96057538Y-98746220D01*
X96182019Y-98733959D01*
X96301717Y-98697650D01*
X96412032Y-98638686D01*
X96508723Y-98559333D01*
X96622693Y-98441018D01*
X96622693Y-98216512D01*
X96092893Y-97686712D01*
X95527738Y-98251867D01*
X92454000Y-98251867D01*
X92454000Y-97542462D01*
X94853780Y-97542462D01*
X94866041Y-97666944D01*
X94902350Y-97786642D01*
X94961314Y-97896956D01*
X95040667Y-97993647D01*
X95123626Y-98072262D01*
X95348133Y-98072262D01*
X95913288Y-97507107D01*
X95383488Y-96977307D01*
X95158982Y-96977307D01*
X95040667Y-97091277D01*
X94961314Y-97187968D01*
X94902350Y-97298283D01*
X94866041Y-97417981D01*
X94853780Y-97542462D01*
X92454000Y-97542462D01*
X92454000Y-95863072D01*
X92775000Y-95863072D01*
X92938500Y-95846969D01*
X93095716Y-95799278D01*
X93240608Y-95721831D01*
X93367606Y-95617606D01*
X93399946Y-95578200D01*
X95608228Y-95578200D01*
X95608502Y-95580979D01*
%TA.AperFunction,Conductor*%
D18*
G36*
X95608502Y-95580979D02*
G01*
X95644812Y-95700677D01*
X95703777Y-95810991D01*
X95783129Y-95907682D01*
X96145101Y-96269654D01*
X96128248Y-96267994D01*
X96003767Y-96280255D01*
X95884069Y-96316564D01*
X95773754Y-96375528D01*
X95677063Y-96454881D01*
X95563093Y-96573196D01*
X95563093Y-96797702D01*
X96092893Y-97327502D01*
X96658048Y-96762347D01*
X96658048Y-96642696D01*
X96675518Y-96647995D01*
X96800000Y-96660255D01*
X96924482Y-96647995D01*
X96963989Y-96636011D01*
X96952005Y-96675518D01*
X96939745Y-96800000D01*
X96952005Y-96924482D01*
X96957304Y-96941952D01*
X96837653Y-96941952D01*
X96272498Y-97507107D01*
X96802298Y-98036907D01*
X97026804Y-98036907D01*
X97145119Y-97922937D01*
X97224472Y-97826246D01*
X97283436Y-97715931D01*
X97319745Y-97596233D01*
X97332006Y-97471752D01*
X97330346Y-97454899D01*
X97692318Y-97816871D01*
X97789009Y-97896223D01*
X97899323Y-97955188D01*
X98019021Y-97991498D01*
X98143503Y-98003758D01*
X98267985Y-97991498D01*
X98387683Y-97955188D01*
X98497997Y-97896223D01*
X98594688Y-97816871D01*
X99224222Y-97187337D01*
X99227687Y-97189189D01*
X99394510Y-97239795D01*
X99524523Y-97252600D01*
X99524531Y-97252600D01*
X99568000Y-97256881D01*
X99611469Y-97252600D01*
X101208022Y-97252600D01*
X102569201Y-98613780D01*
X102569200Y-101233421D01*
X100890522Y-102912100D01*
X99573369Y-102912100D01*
X99529900Y-102907819D01*
X99486431Y-102912100D01*
X99486423Y-102912100D01*
X99356410Y-102924905D01*
X99320847Y-102935693D01*
X99310436Y-102916216D01*
X99231084Y-102819525D01*
X98594688Y-102183129D01*
X98497997Y-102103777D01*
X98387683Y-102044812D01*
X98267985Y-102008502D01*
X98143503Y-101996242D01*
X98026109Y-102007804D01*
X96917885Y-100899581D01*
X96885401Y-100859999D01*
X96769676Y-100765026D01*
X96637647Y-100694454D01*
X96494386Y-100650997D01*
X96382733Y-100640000D01*
X96345400Y-100636323D01*
X96308067Y-100640000D01*
X95237325Y-100640000D01*
X95200000Y-100636324D01*
X95162675Y-100640000D01*
X95162667Y-100640000D01*
X95051014Y-100650997D01*
X94907753Y-100694454D01*
X94775724Y-100765026D01*
X94659999Y-100859999D01*
X94636201Y-100888997D01*
X93291198Y-102234001D01*
X93262200Y-102257799D01*
X93238402Y-102286797D01*
X93238401Y-102286798D01*
X93167226Y-102373524D01*
X93096654Y-102505554D01*
X93073460Y-102582019D01*
X93053198Y-102648814D01*
X93045927Y-102722640D01*
X93038524Y-102797800D01*
X93042201Y-102835132D01*
X93042200Y-108827077D01*
X93038524Y-108864400D01*
X93042200Y-108901722D01*
X93042200Y-108901732D01*
X93053197Y-109013385D01*
X93091229Y-109138761D01*
X93096654Y-109156646D01*
X93167226Y-109288676D01*
X93176216Y-109299630D01*
X93262199Y-109404401D01*
X93291203Y-109428204D01*
X93698996Y-109835997D01*
X93722799Y-109865001D01*
X93838524Y-109959974D01*
X93953437Y-110021397D01*
X94032394Y-110117606D01*
X94036348Y-110120851D01*
X93977003Y-110180196D01*
X93947999Y-110203999D01*
X93919366Y-110238889D01*
X93853026Y-110319724D01*
X93797766Y-110423107D01*
X93782454Y-110451754D01*
X93738997Y-110595015D01*
X93728000Y-110706668D01*
X93728000Y-110706678D01*
X93724324Y-110744000D01*
X93728000Y-110781323D01*
X93728001Y-115669831D01*
X93723925Y-115662206D01*
X93484037Y-115595469D01*
X92699505Y-116380000D01*
X92713648Y-116394142D01*
X92534042Y-116573748D01*
X92519900Y-116559605D01*
X92505758Y-116573748D01*
X92326152Y-116394142D01*
X92340295Y-116380000D01*
X92326152Y-116365858D01*
X92505758Y-116186253D01*
X92519900Y-116200395D01*
X93304431Y-115415863D01*
X93237694Y-115175975D01*
X93180914Y-115149285D01*
X93197226Y-115109904D01*
X93237000Y-114909945D01*
X93237000Y-114706067D01*
X93197226Y-114506108D01*
X93119205Y-114317750D01*
X93005937Y-114148232D01*
X92861774Y-114004069D01*
X92692256Y-113890801D01*
X92503898Y-113812780D01*
X92454000Y-113802855D01*
X92454000Y-99789721D01*
X97865000Y-99789721D01*
X97865000Y-100210279D01*
X97947047Y-100622756D01*
X98107988Y-101011302D01*
X98341637Y-101360983D01*
X98639017Y-101658363D01*
X98988698Y-101892012D01*
X99377244Y-102052953D01*
X99789721Y-102135000D01*
X100210279Y-102135000D01*
X100622756Y-102052953D01*
X101011302Y-101892012D01*
X101360983Y-101658363D01*
X101658363Y-101360983D01*
X101892012Y-101011302D01*
X102052953Y-100622756D01*
X102135000Y-100210279D01*
X102135000Y-99789721D01*
X102052953Y-99377244D01*
X101892012Y-98988698D01*
X101658363Y-98639017D01*
X101360983Y-98341637D01*
X101011302Y-98107988D01*
X100622756Y-97947047D01*
X100210279Y-97865000D01*
X99789721Y-97865000D01*
X99377244Y-97947047D01*
X98988698Y-98107988D01*
X98639017Y-98341637D01*
X98341637Y-98639017D01*
X98107988Y-98988698D01*
X97947047Y-99377244D01*
X97865000Y-99789721D01*
X92454000Y-99789721D01*
X92454000Y-98251867D01*
X95527738Y-98251867D01*
X95527738Y-98476374D01*
X95606353Y-98559333D01*
X95703044Y-98638686D01*
X95813358Y-98697650D01*
X95933056Y-98733959D01*
X96057538Y-98746220D01*
X96182019Y-98733959D01*
X96301717Y-98697650D01*
X96412032Y-98638686D01*
X96508723Y-98559333D01*
X96622693Y-98441018D01*
X96622693Y-98216512D01*
X96092893Y-97686712D01*
X95527738Y-98251867D01*
X92454000Y-98251867D01*
X92454000Y-97542462D01*
X94853780Y-97542462D01*
X94866041Y-97666944D01*
X94902350Y-97786642D01*
X94961314Y-97896956D01*
X95040667Y-97993647D01*
X95123626Y-98072262D01*
X95348133Y-98072262D01*
X95913288Y-97507107D01*
X95383488Y-96977307D01*
X95158982Y-96977307D01*
X95040667Y-97091277D01*
X94961314Y-97187968D01*
X94902350Y-97298283D01*
X94866041Y-97417981D01*
X94853780Y-97542462D01*
X92454000Y-97542462D01*
X92454000Y-95863072D01*
X92775000Y-95863072D01*
X92938500Y-95846969D01*
X93095716Y-95799278D01*
X93240608Y-95721831D01*
X93367606Y-95617606D01*
X93399946Y-95578200D01*
X95608228Y-95578200D01*
X95608502Y-95580979D01*
G37*
%TD.AperFunction*%
D17*
X96286641Y-102478751D02*
X96272498Y-102492893D01*
X96837653Y-103058048D01*
X96926749Y-103058048D01*
X96951307Y-103082606D01*
X96939745Y-103200000D01*
X96952005Y-103324482D01*
X96963989Y-103363989D01*
X96924482Y-103352005D01*
X96800000Y-103339745D01*
X96675518Y-103352005D01*
X96658048Y-103357304D01*
X96658048Y-103237653D01*
X96092893Y-102672498D01*
X95563093Y-103202298D01*
X95563093Y-103426804D01*
X95677063Y-103545119D01*
X95773754Y-103624472D01*
X95884069Y-103683436D01*
X96003767Y-103719745D01*
X96128248Y-103732006D01*
X96145101Y-103730346D01*
X95783129Y-104092318D01*
X95703777Y-104189009D01*
X95644812Y-104299323D01*
X95608502Y-104419021D01*
X95596242Y-104543503D01*
X95608502Y-104667985D01*
X95644812Y-104787683D01*
X95703777Y-104897997D01*
X95783129Y-104994688D01*
X96381131Y-105592690D01*
X95322379Y-106651443D01*
X95175000Y-106636928D01*
X94625000Y-106636928D01*
X94562200Y-106643113D01*
X94562200Y-103112601D01*
X94926989Y-102747813D01*
X94961314Y-102812032D01*
X95040667Y-102908723D01*
X95158982Y-103022693D01*
X95383488Y-103022693D01*
X95913288Y-102492893D01*
X95899146Y-102478751D01*
X96078751Y-102299146D01*
X96092893Y-102313288D01*
X96107036Y-102299146D01*
X96286641Y-102478751D01*
%TA.AperFunction,Conductor*%
D18*
G36*
X96286641Y-102478751D02*
G01*
X96272498Y-102492893D01*
X96837653Y-103058048D01*
X96926749Y-103058048D01*
X96951307Y-103082606D01*
X96939745Y-103200000D01*
X96952005Y-103324482D01*
X96963989Y-103363989D01*
X96924482Y-103352005D01*
X96800000Y-103339745D01*
X96675518Y-103352005D01*
X96658048Y-103357304D01*
X96658048Y-103237653D01*
X96092893Y-102672498D01*
X95563093Y-103202298D01*
X95563093Y-103426804D01*
X95677063Y-103545119D01*
X95773754Y-103624472D01*
X95884069Y-103683436D01*
X96003767Y-103719745D01*
X96128248Y-103732006D01*
X96145101Y-103730346D01*
X95783129Y-104092318D01*
X95703777Y-104189009D01*
X95644812Y-104299323D01*
X95608502Y-104419021D01*
X95596242Y-104543503D01*
X95608502Y-104667985D01*
X95644812Y-104787683D01*
X95703777Y-104897997D01*
X95783129Y-104994688D01*
X96381131Y-105592690D01*
X95322379Y-106651443D01*
X95175000Y-106636928D01*
X94625000Y-106636928D01*
X94562200Y-106643113D01*
X94562200Y-103112601D01*
X94926989Y-102747813D01*
X94961314Y-102812032D01*
X95040667Y-102908723D01*
X95158982Y-103022693D01*
X95383488Y-103022693D01*
X95913288Y-102492893D01*
X95899146Y-102478751D01*
X96078751Y-102299146D01*
X96092893Y-102313288D01*
X96107036Y-102299146D01*
X96286641Y-102478751D01*
G37*
%TD.AperFunction*%
D17*
X96111703Y-76670542D02*
X96111705Y-76670542D01*
X96159926Y-76674251D01*
X96211037Y-76686046D01*
X96278418Y-76708506D01*
X96355168Y-76740486D01*
X96424388Y-76775096D01*
X96475561Y-76807661D01*
X96532739Y-76853404D01*
X96592665Y-76907337D01*
X96646606Y-76967271D01*
X96692338Y-77024437D01*
X96724904Y-77075612D01*
X96759514Y-77144832D01*
X96791495Y-77221585D01*
X96813954Y-77288964D01*
X96825749Y-77340074D01*
X96829458Y-77388295D01*
X96829458Y-77388296D01*
X96840001Y-77525354D01*
X96840000Y-87192974D01*
X96839458Y-87218296D01*
X96840000Y-87225342D01*
X96840000Y-87232418D01*
X96842486Y-87257657D01*
X96849458Y-87348295D01*
X96849458Y-87348296D01*
X96858281Y-87462997D01*
X96857115Y-87480190D01*
X96863256Y-87527670D01*
X96864431Y-87542943D01*
X96867415Y-87559827D01*
X96869613Y-87576818D01*
X96873055Y-87591734D01*
X96881390Y-87638889D01*
X96887643Y-87654949D01*
X96906715Y-87737597D01*
X96913618Y-87767954D01*
X96913952Y-87768956D01*
X96914192Y-87769996D01*
X96924196Y-87799688D01*
X96961254Y-87910864D01*
X96968301Y-87933920D01*
X96971493Y-87941580D01*
X96974121Y-87949465D01*
X96983960Y-87971501D01*
X97027045Y-88074906D01*
X97035180Y-88096164D01*
X97039516Y-88104837D01*
X97043239Y-88113771D01*
X97053992Y-88133787D01*
X97081339Y-88188481D01*
X97081778Y-88190055D01*
X97110393Y-88246589D01*
X97124177Y-88274157D01*
X97125043Y-88275532D01*
X97125779Y-88276987D01*
X97142382Y-88303077D01*
X97176082Y-88356613D01*
X97177205Y-88357798D01*
X97180043Y-88362259D01*
X97181259Y-88365301D01*
X97214910Y-88417050D01*
X97230589Y-88441688D01*
X97232599Y-88444252D01*
X97234375Y-88446983D01*
X97252611Y-88469777D01*
X97290703Y-88518366D01*
X97293190Y-88520501D01*
X97326365Y-88561971D01*
X97337739Y-88577419D01*
X97346603Y-88587267D01*
X97354879Y-88597613D01*
X97368271Y-88611343D01*
X97407500Y-88654931D01*
X97408703Y-88656923D01*
X97450885Y-88703138D01*
X97471113Y-88725613D01*
X97472830Y-88727180D01*
X97474387Y-88728886D01*
X97496760Y-88749022D01*
X97543077Y-88791297D01*
X97545069Y-88792500D01*
X97588660Y-88831733D01*
X97602387Y-88845121D01*
X97612725Y-88853392D01*
X97622580Y-88862261D01*
X97638035Y-88873640D01*
X97679500Y-88906812D01*
X97681634Y-88909297D01*
X97730180Y-88947356D01*
X97753016Y-88965625D01*
X97755753Y-88967405D01*
X97758312Y-88969411D01*
X97782930Y-88985077D01*
X97834698Y-89018740D01*
X97837738Y-89019955D01*
X97842202Y-89022795D01*
X97843387Y-89023918D01*
X97896923Y-89057618D01*
X97923013Y-89074221D01*
X97924468Y-89074957D01*
X97925843Y-89075823D01*
X97953411Y-89089607D01*
X98009945Y-89118222D01*
X98011519Y-89118661D01*
X98066213Y-89146008D01*
X98086229Y-89156761D01*
X98095163Y-89160484D01*
X98103836Y-89164820D01*
X98125087Y-89172952D01*
X98228499Y-89216040D01*
X98250535Y-89225879D01*
X98258420Y-89228507D01*
X98266080Y-89231699D01*
X98289133Y-89238745D01*
X98400388Y-89275830D01*
X98430004Y-89285808D01*
X98431041Y-89286047D01*
X98432045Y-89286382D01*
X98462458Y-89293297D01*
X98545052Y-89312357D01*
X98561111Y-89318610D01*
X98608263Y-89326944D01*
X98623181Y-89330387D01*
X98640175Y-89332585D01*
X98657057Y-89335569D01*
X98672329Y-89336744D01*
X98719810Y-89342885D01*
X98737003Y-89341719D01*
X98851703Y-89350542D01*
X98851705Y-89350542D01*
X98942341Y-89357514D01*
X98967581Y-89360000D01*
X98974657Y-89360000D01*
X98981703Y-89360542D01*
X99007025Y-89360000D01*
X104224659Y-89360000D01*
X104361703Y-89370542D01*
X104361705Y-89370542D01*
X104409926Y-89374251D01*
X104461037Y-89386046D01*
X104528418Y-89408506D01*
X104605168Y-89440486D01*
X104674388Y-89475096D01*
X104725561Y-89507661D01*
X104782739Y-89553404D01*
X104842665Y-89607337D01*
X104896606Y-89667271D01*
X104942338Y-89724437D01*
X104974904Y-89775612D01*
X105009514Y-89844832D01*
X105041495Y-89921585D01*
X105063954Y-89988964D01*
X105075749Y-90040074D01*
X105079458Y-90088295D01*
X105079458Y-90088296D01*
X105090001Y-90225354D01*
X105090001Y-96727446D01*
X103685700Y-95323145D01*
X103685700Y-92725307D01*
X103690586Y-92675699D01*
X103671085Y-92477705D01*
X103613332Y-92287320D01*
X103585121Y-92234541D01*
X103519547Y-92111860D01*
X103393333Y-91958067D01*
X103354794Y-91926439D01*
X101649261Y-90220906D01*
X101617633Y-90182367D01*
X101463840Y-90056153D01*
X101288380Y-89962368D01*
X101097994Y-89904615D01*
X100949608Y-89890000D01*
X100900000Y-89885114D01*
X100850392Y-89890000D01*
X96753956Y-89890000D01*
X96210000Y-89346045D01*
X96210000Y-81269708D01*
X96214886Y-81220100D01*
X96195385Y-81022105D01*
X96137632Y-80831720D01*
X96043847Y-80656260D01*
X95917633Y-80502467D01*
X95879100Y-80470844D01*
X93914900Y-78506645D01*
X93914900Y-78402604D01*
X93861291Y-78133093D01*
X93756133Y-77879220D01*
X93603467Y-77650739D01*
X93409161Y-77456433D01*
X93180680Y-77303767D01*
X92926807Y-77198609D01*
X92657296Y-77145000D01*
X92382504Y-77145000D01*
X92112993Y-77198609D01*
X91859120Y-77303767D01*
X91667179Y-77432018D01*
X91670542Y-77388297D01*
X91670542Y-77388295D01*
X91674251Y-77340074D01*
X91686046Y-77288963D01*
X91708506Y-77221582D01*
X91740486Y-77144832D01*
X91775096Y-77075612D01*
X91807661Y-77024439D01*
X91853404Y-76967261D01*
X91907337Y-76907335D01*
X91967271Y-76853394D01*
X92024437Y-76807662D01*
X92075612Y-76775096D01*
X92144832Y-76740486D01*
X92221585Y-76708505D01*
X92288964Y-76686046D01*
X92340074Y-76674251D01*
X92388295Y-76670542D01*
X92388296Y-76670542D01*
X92525341Y-76660000D01*
X95974659Y-76660000D01*
X96111703Y-76670542D01*
%TA.AperFunction,Conductor*%
D18*
G36*
X96111703Y-76670542D02*
G01*
X96111705Y-76670542D01*
X96159926Y-76674251D01*
X96211037Y-76686046D01*
X96278418Y-76708506D01*
X96355168Y-76740486D01*
X96424388Y-76775096D01*
X96475561Y-76807661D01*
X96532739Y-76853404D01*
X96592665Y-76907337D01*
X96646606Y-76967271D01*
X96692338Y-77024437D01*
X96724904Y-77075612D01*
X96759514Y-77144832D01*
X96791495Y-77221585D01*
X96813954Y-77288964D01*
X96825749Y-77340074D01*
X96829458Y-77388295D01*
X96829458Y-77388296D01*
X96840001Y-77525354D01*
X96840000Y-87192974D01*
X96839458Y-87218296D01*
X96840000Y-87225342D01*
X96840000Y-87232418D01*
X96842486Y-87257657D01*
X96849458Y-87348295D01*
X96849458Y-87348296D01*
X96858281Y-87462997D01*
X96857115Y-87480190D01*
X96863256Y-87527670D01*
X96864431Y-87542943D01*
X96867415Y-87559827D01*
X96869613Y-87576818D01*
X96873055Y-87591734D01*
X96881390Y-87638889D01*
X96887643Y-87654949D01*
X96906715Y-87737597D01*
X96913618Y-87767954D01*
X96913952Y-87768956D01*
X96914192Y-87769996D01*
X96924196Y-87799688D01*
X96961254Y-87910864D01*
X96968301Y-87933920D01*
X96971493Y-87941580D01*
X96974121Y-87949465D01*
X96983960Y-87971501D01*
X97027045Y-88074906D01*
X97035180Y-88096164D01*
X97039516Y-88104837D01*
X97043239Y-88113771D01*
X97053992Y-88133787D01*
X97081339Y-88188481D01*
X97081778Y-88190055D01*
X97110393Y-88246589D01*
X97124177Y-88274157D01*
X97125043Y-88275532D01*
X97125779Y-88276987D01*
X97142382Y-88303077D01*
X97176082Y-88356613D01*
X97177205Y-88357798D01*
X97180043Y-88362259D01*
X97181259Y-88365301D01*
X97214910Y-88417050D01*
X97230589Y-88441688D01*
X97232599Y-88444252D01*
X97234375Y-88446983D01*
X97252611Y-88469777D01*
X97290703Y-88518366D01*
X97293190Y-88520501D01*
X97326365Y-88561971D01*
X97337739Y-88577419D01*
X97346603Y-88587267D01*
X97354879Y-88597613D01*
X97368271Y-88611343D01*
X97407500Y-88654931D01*
X97408703Y-88656923D01*
X97450885Y-88703138D01*
X97471113Y-88725613D01*
X97472830Y-88727180D01*
X97474387Y-88728886D01*
X97496760Y-88749022D01*
X97543077Y-88791297D01*
X97545069Y-88792500D01*
X97588660Y-88831733D01*
X97602387Y-88845121D01*
X97612725Y-88853392D01*
X97622580Y-88862261D01*
X97638035Y-88873640D01*
X97679500Y-88906812D01*
X97681634Y-88909297D01*
X97730180Y-88947356D01*
X97753016Y-88965625D01*
X97755753Y-88967405D01*
X97758312Y-88969411D01*
X97782930Y-88985077D01*
X97834698Y-89018740D01*
X97837738Y-89019955D01*
X97842202Y-89022795D01*
X97843387Y-89023918D01*
X97896923Y-89057618D01*
X97923013Y-89074221D01*
X97924468Y-89074957D01*
X97925843Y-89075823D01*
X97953411Y-89089607D01*
X98009945Y-89118222D01*
X98011519Y-89118661D01*
X98066213Y-89146008D01*
X98086229Y-89156761D01*
X98095163Y-89160484D01*
X98103836Y-89164820D01*
X98125087Y-89172952D01*
X98228499Y-89216040D01*
X98250535Y-89225879D01*
X98258420Y-89228507D01*
X98266080Y-89231699D01*
X98289133Y-89238745D01*
X98400388Y-89275830D01*
X98430004Y-89285808D01*
X98431041Y-89286047D01*
X98432045Y-89286382D01*
X98462458Y-89293297D01*
X98545052Y-89312357D01*
X98561111Y-89318610D01*
X98608263Y-89326944D01*
X98623181Y-89330387D01*
X98640175Y-89332585D01*
X98657057Y-89335569D01*
X98672329Y-89336744D01*
X98719810Y-89342885D01*
X98737003Y-89341719D01*
X98851703Y-89350542D01*
X98851705Y-89350542D01*
X98942341Y-89357514D01*
X98967581Y-89360000D01*
X98974657Y-89360000D01*
X98981703Y-89360542D01*
X99007025Y-89360000D01*
X104224659Y-89360000D01*
X104361703Y-89370542D01*
X104361705Y-89370542D01*
X104409926Y-89374251D01*
X104461037Y-89386046D01*
X104528418Y-89408506D01*
X104605168Y-89440486D01*
X104674388Y-89475096D01*
X104725561Y-89507661D01*
X104782739Y-89553404D01*
X104842665Y-89607337D01*
X104896606Y-89667271D01*
X104942338Y-89724437D01*
X104974904Y-89775612D01*
X105009514Y-89844832D01*
X105041495Y-89921585D01*
X105063954Y-89988964D01*
X105075749Y-90040074D01*
X105079458Y-90088295D01*
X105079458Y-90088296D01*
X105090001Y-90225354D01*
X105090001Y-96727446D01*
X103685700Y-95323145D01*
X103685700Y-92725307D01*
X103690586Y-92675699D01*
X103671085Y-92477705D01*
X103613332Y-92287320D01*
X103585121Y-92234541D01*
X103519547Y-92111860D01*
X103393333Y-91958067D01*
X103354794Y-91926439D01*
X101649261Y-90220906D01*
X101617633Y-90182367D01*
X101463840Y-90056153D01*
X101288380Y-89962368D01*
X101097994Y-89904615D01*
X100949608Y-89890000D01*
X100900000Y-89885114D01*
X100850392Y-89890000D01*
X96753956Y-89890000D01*
X96210000Y-89346045D01*
X96210000Y-81269708D01*
X96214886Y-81220100D01*
X96195385Y-81022105D01*
X96137632Y-80831720D01*
X96043847Y-80656260D01*
X95917633Y-80502467D01*
X95879100Y-80470844D01*
X93914900Y-78506645D01*
X93914900Y-78402604D01*
X93861291Y-78133093D01*
X93756133Y-77879220D01*
X93603467Y-77650739D01*
X93409161Y-77456433D01*
X93180680Y-77303767D01*
X92926807Y-77198609D01*
X92657296Y-77145000D01*
X92382504Y-77145000D01*
X92112993Y-77198609D01*
X91859120Y-77303767D01*
X91667179Y-77432018D01*
X91670542Y-77388297D01*
X91670542Y-77388295D01*
X91674251Y-77340074D01*
X91686046Y-77288963D01*
X91708506Y-77221582D01*
X91740486Y-77144832D01*
X91775096Y-77075612D01*
X91807661Y-77024439D01*
X91853404Y-76967261D01*
X91907337Y-76907335D01*
X91967271Y-76853394D01*
X92024437Y-76807662D01*
X92075612Y-76775096D01*
X92144832Y-76740486D01*
X92221585Y-76708505D01*
X92288964Y-76686046D01*
X92340074Y-76674251D01*
X92388295Y-76670542D01*
X92388296Y-76670542D01*
X92525341Y-76660000D01*
X95974659Y-76660000D01*
X96111703Y-76670542D01*
G37*
%TD.AperFunction*%
D17*
X95192832Y-92529105D02*
X95224460Y-92567644D01*
X95378253Y-92693858D01*
X95553713Y-92787643D01*
X95744099Y-92845396D01*
X95892485Y-92860011D01*
X95892487Y-92860011D01*
X95942092Y-92864897D01*
X95991697Y-92860011D01*
X97805586Y-92860011D01*
X97736125Y-93088990D01*
X97715538Y-93298017D01*
X97596913Y-93234611D01*
X97430090Y-93184005D01*
X97300077Y-93171200D01*
X97300069Y-93171200D01*
X97256600Y-93166919D01*
X97213131Y-93171200D01*
X94608551Y-93171200D01*
X94017306Y-92579956D01*
X93989589Y-92546183D01*
X93854831Y-92435589D01*
X93701085Y-92353411D01*
X93534262Y-92302805D01*
X93404249Y-92290000D01*
X93404241Y-92290000D01*
X93385000Y-92288105D01*
X93385000Y-92168978D01*
X93609845Y-91944133D01*
X93643617Y-91916417D01*
X93754211Y-91781659D01*
X93836389Y-91627913D01*
X93886995Y-91461090D01*
X93899800Y-91331077D01*
X93899800Y-91331067D01*
X93904081Y-91287601D01*
X93899800Y-91244135D01*
X93899800Y-91236073D01*
X95192832Y-92529105D01*
%TA.AperFunction,Conductor*%
D18*
G36*
X95192832Y-92529105D02*
G01*
X95224460Y-92567644D01*
X95378253Y-92693858D01*
X95553713Y-92787643D01*
X95744099Y-92845396D01*
X95892485Y-92860011D01*
X95892487Y-92860011D01*
X95942092Y-92864897D01*
X95991697Y-92860011D01*
X97805586Y-92860011D01*
X97736125Y-93088990D01*
X97715538Y-93298017D01*
X97596913Y-93234611D01*
X97430090Y-93184005D01*
X97300077Y-93171200D01*
X97300069Y-93171200D01*
X97256600Y-93166919D01*
X97213131Y-93171200D01*
X94608551Y-93171200D01*
X94017306Y-92579956D01*
X93989589Y-92546183D01*
X93854831Y-92435589D01*
X93701085Y-92353411D01*
X93534262Y-92302805D01*
X93404249Y-92290000D01*
X93404241Y-92290000D01*
X93385000Y-92288105D01*
X93385000Y-92168978D01*
X93609845Y-91944133D01*
X93643617Y-91916417D01*
X93754211Y-91781659D01*
X93836389Y-91627913D01*
X93886995Y-91461090D01*
X93899800Y-91331077D01*
X93899800Y-91331067D01*
X93904081Y-91287601D01*
X93899800Y-91244135D01*
X93899800Y-91236073D01*
X95192832Y-92529105D01*
G37*
%TD.AperFunction*%
D17*
X93239989Y-86719561D02*
X93141800Y-86817750D01*
X93141800Y-87617000D01*
X93161800Y-87617000D01*
X93161800Y-87871000D01*
X93141800Y-87871000D01*
X93141800Y-87891000D01*
X92887800Y-87891000D01*
X92887800Y-87871000D01*
X92867800Y-87871000D01*
X92867800Y-87617000D01*
X92887800Y-87617000D01*
X92887800Y-86817750D01*
X92785000Y-86714950D01*
X92785000Y-84989598D01*
X92926807Y-84961391D01*
X93180680Y-84856233D01*
X93239990Y-84816604D01*
X93239989Y-86719561D01*
%TA.AperFunction,Conductor*%
D18*
G36*
X93239989Y-86719561D02*
G01*
X93141800Y-86817750D01*
X93141800Y-87617000D01*
X93161800Y-87617000D01*
X93161800Y-87871000D01*
X93141800Y-87871000D01*
X93141800Y-87891000D01*
X92887800Y-87891000D01*
X92887800Y-87871000D01*
X92867800Y-87871000D01*
X92867800Y-87617000D01*
X92887800Y-87617000D01*
X92887800Y-86817750D01*
X92785000Y-86714950D01*
X92785000Y-84989598D01*
X92926807Y-84961391D01*
X93180680Y-84856233D01*
X93239990Y-84816604D01*
X93239989Y-86719561D01*
G37*
%TD.AperFunction*%
%TD*%
M02*
