%TF.GenerationSoftware,KiCad,Pcbnew,5.1.9-73d0e3b20d~88~ubuntu20.04.1*%
%TF.CreationDate,2021-04-18T17:47:56-07:00*%
%TF.ProjectId,encoder,656e636f-6465-4722-9e6b-696361645f70,rev?*%
%TF.SameCoordinates,Original*%
%TF.FileFunction,Copper,L2,Bot*%
%TF.FilePolarity,Positive*%
%FSLAX46Y46*%
G04 Gerber Fmt 4.6, Leading zero omitted, Abs format (unit mm)*
G04 Created by KiCad (PCBNEW 5.1.9-73d0e3b20d~88~ubuntu20.04.1) date 2021-04-18 17:47:56*
%MOMM*%
%LPD*%
G01*
G04 APERTURE LIST*
%TA.AperFunction,ComponentPad*%
%ADD10O,3.300000X1.650000*%
%TD*%
%TA.AperFunction,ComponentPad*%
%ADD11C,1.520000*%
%TD*%
%TA.AperFunction,ViaPad*%
%ADD12C,0.800000*%
%TD*%
%TA.AperFunction,Conductor*%
%ADD13C,0.250000*%
%TD*%
%TA.AperFunction,Conductor*%
%ADD14C,0.500000*%
%TD*%
%TA.AperFunction,Conductor*%
%ADD15C,0.254000*%
%TD*%
%TA.AperFunction,Conductor*%
%ADD16C,0.100000*%
%TD*%
G04 APERTURE END LIST*
D10*
%TO.P,CN1,7*%
%TO.N,/MOTOR-*%
X100000000Y-106625200D03*
%TO.P,CN1,8*%
%TO.N,/MOTOR+*%
X100000000Y-93375200D03*
D11*
%TO.P,CN1,3*%
%TO.N,/GND*%
X92519900Y-116380000D03*
%TO.P,CN1,2*%
%TO.N,/QUADA*%
X92519900Y-118920000D03*
%TO.P,CN1,1*%
%TO.N,/QUADB*%
X92519900Y-121460000D03*
%TO.P,CN1,6*%
%TO.N,/MOTOR-*%
X92519900Y-78540000D03*
%TO.P,CN1,5*%
%TO.N,/MOTOR+*%
X92519900Y-81080000D03*
%TO.P,CN1,4*%
%TO.N,/VCC*%
X92519900Y-83620000D03*
%TD*%
D12*
%TO.N,/QUADB*%
X92202000Y-114808006D03*
X95213010Y-115272616D03*
%TO.N,/GND*%
X94600000Y-98500000D03*
X94200000Y-92100000D03*
X97000000Y-89300000D03*
X95200000Y-104900000D03*
X93014800Y-86461600D03*
X95758000Y-110744000D03*
X96266000Y-116332000D03*
X93218000Y-112014000D03*
%TD*%
D13*
%TO.N,/QUADB*%
X94748400Y-114808006D02*
X95213010Y-115272616D01*
X92202000Y-114808006D02*
X94748400Y-114808006D01*
D14*
%TO.N,/GND*%
X94600000Y-98500000D02*
X94600000Y-92500000D01*
X94600000Y-92500000D02*
X94200000Y-92100000D01*
X94200000Y-92100000D02*
X97000000Y-89300000D01*
X94600000Y-104300000D02*
X95200000Y-104900000D01*
X94600000Y-98500000D02*
X94600000Y-104300000D01*
X95853200Y-89300000D02*
X93014800Y-86461600D01*
X97000000Y-89300000D02*
X95853200Y-89300000D01*
X95200000Y-104900000D02*
X95200000Y-110186000D01*
X95200000Y-110186000D02*
X95758000Y-110744000D01*
X96218000Y-116380000D02*
X96266000Y-116332000D01*
X92519900Y-116380000D02*
X96218000Y-116380000D01*
X95758000Y-110744000D02*
X94488000Y-112014000D01*
X94488000Y-112014000D02*
X93218000Y-112014000D01*
%TD*%
D15*
%TO.N,/GND*%
X96111703Y-76670542D02*
X96111705Y-76670542D01*
X96159926Y-76674251D01*
X96211037Y-76686046D01*
X96278418Y-76708506D01*
X96355168Y-76740486D01*
X96424388Y-76775096D01*
X96475561Y-76807661D01*
X96532739Y-76853404D01*
X96592665Y-76907337D01*
X96646606Y-76967271D01*
X96692338Y-77024437D01*
X96724904Y-77075612D01*
X96759514Y-77144832D01*
X96791495Y-77221585D01*
X96813954Y-77288964D01*
X96825749Y-77340074D01*
X96829458Y-77388295D01*
X96829458Y-77388296D01*
X96840001Y-77525354D01*
X96840000Y-87192974D01*
X96839458Y-87218296D01*
X96840000Y-87225342D01*
X96840000Y-87232418D01*
X96842486Y-87257657D01*
X96849458Y-87348295D01*
X96849458Y-87348296D01*
X96858281Y-87462997D01*
X96857115Y-87480190D01*
X96863256Y-87527670D01*
X96864431Y-87542943D01*
X96867415Y-87559827D01*
X96869613Y-87576818D01*
X96873055Y-87591734D01*
X96881390Y-87638889D01*
X96887643Y-87654949D01*
X96906715Y-87737597D01*
X96913618Y-87767954D01*
X96913952Y-87768956D01*
X96914192Y-87769996D01*
X96924196Y-87799688D01*
X96961254Y-87910864D01*
X96968301Y-87933920D01*
X96971493Y-87941580D01*
X96974121Y-87949465D01*
X96983960Y-87971501D01*
X97027045Y-88074906D01*
X97035180Y-88096164D01*
X97039516Y-88104837D01*
X97043239Y-88113771D01*
X97053992Y-88133787D01*
X97081339Y-88188481D01*
X97081778Y-88190055D01*
X97110393Y-88246589D01*
X97124177Y-88274157D01*
X97125043Y-88275532D01*
X97125779Y-88276987D01*
X97142382Y-88303077D01*
X97176082Y-88356613D01*
X97177205Y-88357798D01*
X97180043Y-88362259D01*
X97181259Y-88365301D01*
X97214910Y-88417050D01*
X97230589Y-88441688D01*
X97232599Y-88444252D01*
X97234375Y-88446983D01*
X97252611Y-88469777D01*
X97290703Y-88518366D01*
X97293190Y-88520501D01*
X97326365Y-88561971D01*
X97337739Y-88577419D01*
X97346603Y-88587267D01*
X97354879Y-88597613D01*
X97368271Y-88611343D01*
X97407500Y-88654931D01*
X97408703Y-88656923D01*
X97450885Y-88703138D01*
X97471113Y-88725613D01*
X97472830Y-88727180D01*
X97474387Y-88728886D01*
X97496760Y-88749022D01*
X97543077Y-88791297D01*
X97545069Y-88792500D01*
X97588660Y-88831733D01*
X97602387Y-88845121D01*
X97612725Y-88853392D01*
X97622580Y-88862261D01*
X97638035Y-88873640D01*
X97679500Y-88906812D01*
X97681634Y-88909297D01*
X97730180Y-88947356D01*
X97753016Y-88965625D01*
X97755753Y-88967405D01*
X97758312Y-88969411D01*
X97782930Y-88985077D01*
X97834698Y-89018740D01*
X97837738Y-89019955D01*
X97842202Y-89022795D01*
X97843387Y-89023918D01*
X97896923Y-89057618D01*
X97923013Y-89074221D01*
X97924468Y-89074957D01*
X97925843Y-89075823D01*
X97953411Y-89089607D01*
X98009945Y-89118222D01*
X98011519Y-89118661D01*
X98066213Y-89146008D01*
X98086229Y-89156761D01*
X98095163Y-89160484D01*
X98103836Y-89164820D01*
X98125087Y-89172952D01*
X98228499Y-89216040D01*
X98250535Y-89225879D01*
X98258420Y-89228507D01*
X98266080Y-89231699D01*
X98289133Y-89238745D01*
X98400388Y-89275830D01*
X98430004Y-89285808D01*
X98431041Y-89286047D01*
X98432045Y-89286382D01*
X98462458Y-89293297D01*
X98545052Y-89312357D01*
X98561111Y-89318610D01*
X98608263Y-89326944D01*
X98623181Y-89330387D01*
X98640175Y-89332585D01*
X98657057Y-89335569D01*
X98672329Y-89336744D01*
X98719810Y-89342885D01*
X98737003Y-89341719D01*
X98851703Y-89350542D01*
X98851705Y-89350542D01*
X98942341Y-89357514D01*
X98967581Y-89360000D01*
X98974657Y-89360000D01*
X98981703Y-89360542D01*
X99007025Y-89360000D01*
X104224659Y-89360000D01*
X104361703Y-89370542D01*
X104361705Y-89370542D01*
X104409926Y-89374251D01*
X104461037Y-89386046D01*
X104528418Y-89408506D01*
X104605168Y-89440486D01*
X104674388Y-89475096D01*
X104725561Y-89507661D01*
X104782739Y-89553404D01*
X104842665Y-89607337D01*
X104896606Y-89667271D01*
X104942338Y-89724437D01*
X104974904Y-89775612D01*
X105009514Y-89844832D01*
X105041495Y-89921585D01*
X105063954Y-89988964D01*
X105075749Y-90040074D01*
X105079458Y-90088295D01*
X105079458Y-90088296D01*
X105090001Y-90225354D01*
X105090000Y-109774659D01*
X105079458Y-109911704D01*
X105075749Y-109959926D01*
X105063954Y-110011036D01*
X105041495Y-110078415D01*
X105009514Y-110155168D01*
X104974904Y-110224388D01*
X104942338Y-110275563D01*
X104896606Y-110332729D01*
X104842665Y-110392663D01*
X104782739Y-110446596D01*
X104725561Y-110492339D01*
X104674388Y-110524904D01*
X104605168Y-110559514D01*
X104528418Y-110591494D01*
X104461037Y-110613954D01*
X104409926Y-110625749D01*
X104361705Y-110629458D01*
X104361703Y-110629458D01*
X104224659Y-110640000D01*
X99007025Y-110640000D01*
X98981703Y-110639458D01*
X98974657Y-110640000D01*
X98967581Y-110640000D01*
X98942341Y-110642486D01*
X98851705Y-110649458D01*
X98851703Y-110649458D01*
X98737003Y-110658281D01*
X98719810Y-110657115D01*
X98672329Y-110663256D01*
X98657057Y-110664431D01*
X98640175Y-110667415D01*
X98623181Y-110669613D01*
X98608263Y-110673056D01*
X98561111Y-110681390D01*
X98545052Y-110687643D01*
X98462458Y-110706703D01*
X98432045Y-110713618D01*
X98431041Y-110713953D01*
X98430004Y-110714192D01*
X98400388Y-110724170D01*
X98289133Y-110761255D01*
X98266080Y-110768301D01*
X98258420Y-110771493D01*
X98250535Y-110774121D01*
X98228499Y-110783960D01*
X98125087Y-110827048D01*
X98103836Y-110835180D01*
X98095163Y-110839516D01*
X98086229Y-110843239D01*
X98066213Y-110853992D01*
X98011519Y-110881339D01*
X98009945Y-110881778D01*
X97953411Y-110910393D01*
X97925843Y-110924177D01*
X97924468Y-110925043D01*
X97923013Y-110925779D01*
X97896923Y-110942382D01*
X97843387Y-110976082D01*
X97842202Y-110977205D01*
X97837738Y-110980045D01*
X97834698Y-110981260D01*
X97782930Y-111014923D01*
X97758312Y-111030589D01*
X97755753Y-111032595D01*
X97753016Y-111034375D01*
X97730180Y-111052644D01*
X97681634Y-111090703D01*
X97679500Y-111093188D01*
X97638035Y-111126360D01*
X97622580Y-111137739D01*
X97612725Y-111146608D01*
X97602387Y-111154879D01*
X97588660Y-111168267D01*
X97545069Y-111207500D01*
X97543077Y-111208703D01*
X97496760Y-111250978D01*
X97474387Y-111271114D01*
X97472830Y-111272820D01*
X97471113Y-111274387D01*
X97450885Y-111296862D01*
X97408703Y-111343077D01*
X97407500Y-111345069D01*
X97368271Y-111388657D01*
X97354879Y-111402387D01*
X97346603Y-111412733D01*
X97337739Y-111422581D01*
X97326365Y-111438029D01*
X97293190Y-111479499D01*
X97290703Y-111481634D01*
X97252611Y-111530223D01*
X97234375Y-111553017D01*
X97232599Y-111555748D01*
X97230589Y-111558312D01*
X97214910Y-111582950D01*
X97181259Y-111634699D01*
X97180043Y-111637741D01*
X97177205Y-111642202D01*
X97176082Y-111643387D01*
X97142445Y-111696823D01*
X97125779Y-111723013D01*
X97125043Y-111724468D01*
X97124177Y-111725843D01*
X97110393Y-111753411D01*
X97081778Y-111809945D01*
X97081339Y-111811519D01*
X97053992Y-111866213D01*
X97043239Y-111886229D01*
X97039516Y-111895163D01*
X97035180Y-111903836D01*
X97027045Y-111925094D01*
X96983960Y-112028499D01*
X96974121Y-112050535D01*
X96971493Y-112058420D01*
X96968301Y-112066080D01*
X96961254Y-112089136D01*
X96924196Y-112200312D01*
X96914192Y-112230004D01*
X96913952Y-112231044D01*
X96913618Y-112232046D01*
X96906715Y-112262403D01*
X96887643Y-112345051D01*
X96881390Y-112361111D01*
X96873055Y-112408266D01*
X96869613Y-112423182D01*
X96867415Y-112440173D01*
X96864431Y-112457057D01*
X96863256Y-112472330D01*
X96857115Y-112519810D01*
X96858281Y-112537003D01*
X96854431Y-112587057D01*
X96842483Y-112742384D01*
X96840001Y-112767581D01*
X96840001Y-112774645D01*
X96839458Y-112781704D01*
X96840001Y-112807072D01*
X96840000Y-122474659D01*
X96829458Y-122611703D01*
X96825749Y-122659926D01*
X96813954Y-122711036D01*
X96791495Y-122778415D01*
X96759514Y-122855168D01*
X96724904Y-122924388D01*
X96692338Y-122975563D01*
X96646606Y-123032729D01*
X96592665Y-123092663D01*
X96532739Y-123146596D01*
X96475561Y-123192339D01*
X96424388Y-123224904D01*
X96355168Y-123259514D01*
X96278418Y-123291494D01*
X96211037Y-123313954D01*
X96159926Y-123325749D01*
X96111705Y-123329458D01*
X96111703Y-123329458D01*
X95974659Y-123340000D01*
X92525341Y-123340000D01*
X92388296Y-123329458D01*
X92388295Y-123329458D01*
X92340074Y-123325749D01*
X92288964Y-123313954D01*
X92221585Y-123291495D01*
X92144832Y-123259514D01*
X92075612Y-123224904D01*
X92024437Y-123192338D01*
X91967271Y-123146606D01*
X91907337Y-123092665D01*
X91853404Y-123032739D01*
X91807661Y-122975561D01*
X91775096Y-122924388D01*
X91740486Y-122855168D01*
X91708506Y-122778418D01*
X91686046Y-122711037D01*
X91674251Y-122659926D01*
X91670542Y-122611703D01*
X91667179Y-122567982D01*
X91859120Y-122696233D01*
X92112993Y-122801391D01*
X92382504Y-122855000D01*
X92657296Y-122855000D01*
X92926807Y-122801391D01*
X93180680Y-122696233D01*
X93409161Y-122543567D01*
X93603467Y-122349261D01*
X93756133Y-122120780D01*
X93861291Y-121866907D01*
X93914900Y-121597396D01*
X93914900Y-121322604D01*
X93861291Y-121053093D01*
X93756133Y-120799220D01*
X93603467Y-120570739D01*
X93409161Y-120376433D01*
X93180680Y-120223767D01*
X93099160Y-120190000D01*
X93180680Y-120156233D01*
X93409161Y-120003567D01*
X93603467Y-119809261D01*
X93756133Y-119580780D01*
X93861291Y-119326907D01*
X93914900Y-119057396D01*
X93914900Y-118782604D01*
X93861291Y-118513093D01*
X93756133Y-118259220D01*
X93603467Y-118030739D01*
X93409161Y-117836433D01*
X93180680Y-117683767D01*
X93104399Y-117652170D01*
X93122226Y-117645744D01*
X93237694Y-117584025D01*
X93304431Y-117344137D01*
X92519900Y-116559605D01*
X92505758Y-116573748D01*
X92326152Y-116394142D01*
X92340295Y-116380000D01*
X92326152Y-116365858D01*
X92505758Y-116186253D01*
X92519900Y-116200395D01*
X92534042Y-116186252D01*
X92713648Y-116365858D01*
X92699505Y-116380000D01*
X93484037Y-117164531D01*
X93723925Y-117097794D01*
X93840824Y-116849108D01*
X93906961Y-116582394D01*
X93919795Y-116307903D01*
X93878831Y-116036183D01*
X93785644Y-115777674D01*
X93723925Y-115662206D01*
X93484039Y-115595469D01*
X93511502Y-115568006D01*
X94216489Y-115568006D01*
X94217784Y-115574514D01*
X94295805Y-115762872D01*
X94409073Y-115932390D01*
X94553236Y-116076553D01*
X94722754Y-116189821D01*
X94911112Y-116267842D01*
X95111071Y-116307616D01*
X95314949Y-116307616D01*
X95514908Y-116267842D01*
X95703266Y-116189821D01*
X95872784Y-116076553D01*
X96016947Y-115932390D01*
X96130215Y-115762872D01*
X96208236Y-115574514D01*
X96248010Y-115374555D01*
X96248010Y-115170677D01*
X96208236Y-114970718D01*
X96130215Y-114782360D01*
X96016947Y-114612842D01*
X95872784Y-114468679D01*
X95703266Y-114355411D01*
X95514908Y-114277390D01*
X95314949Y-114237616D01*
X95251372Y-114237616D01*
X95172676Y-114173032D01*
X95040647Y-114102460D01*
X94897386Y-114059003D01*
X94785733Y-114048006D01*
X94785722Y-114048006D01*
X94748400Y-114044330D01*
X94711078Y-114048006D01*
X92905711Y-114048006D01*
X92861774Y-114004069D01*
X92692256Y-113890801D01*
X92503898Y-113812780D01*
X92303939Y-113773006D01*
X92100061Y-113773006D01*
X91900102Y-113812780D01*
X91711744Y-113890801D01*
X91660000Y-113925375D01*
X91660000Y-106625200D01*
X97707936Y-106625200D01*
X97736125Y-106911410D01*
X97819610Y-107186621D01*
X97955181Y-107440257D01*
X98137629Y-107662571D01*
X98359943Y-107845019D01*
X98613579Y-107980590D01*
X98888790Y-108064075D01*
X99103277Y-108085200D01*
X100896723Y-108085200D01*
X101111210Y-108064075D01*
X101386421Y-107980590D01*
X101640057Y-107845019D01*
X101862371Y-107662571D01*
X102044819Y-107440257D01*
X102180390Y-107186621D01*
X102263875Y-106911410D01*
X102292064Y-106625200D01*
X102263875Y-106338990D01*
X102180390Y-106063779D01*
X102044819Y-105810143D01*
X101862371Y-105587829D01*
X101640057Y-105405381D01*
X101386421Y-105269810D01*
X101111210Y-105186325D01*
X100896723Y-105165200D01*
X99103277Y-105165200D01*
X98888790Y-105186325D01*
X98613579Y-105269810D01*
X98359943Y-105405381D01*
X98137629Y-105587829D01*
X97955181Y-105810143D01*
X97819610Y-106063779D01*
X97736125Y-106338990D01*
X97707936Y-106625200D01*
X91660000Y-106625200D01*
X91660000Y-99789721D01*
X97865000Y-99789721D01*
X97865000Y-100210279D01*
X97947047Y-100622756D01*
X98107988Y-101011302D01*
X98341637Y-101360983D01*
X98639017Y-101658363D01*
X98988698Y-101892012D01*
X99377244Y-102052953D01*
X99789721Y-102135000D01*
X100210279Y-102135000D01*
X100622756Y-102052953D01*
X101011302Y-101892012D01*
X101360983Y-101658363D01*
X101658363Y-101360983D01*
X101892012Y-101011302D01*
X102052953Y-100622756D01*
X102135000Y-100210279D01*
X102135000Y-99789721D01*
X102052953Y-99377244D01*
X101892012Y-98988698D01*
X101658363Y-98639017D01*
X101360983Y-98341637D01*
X101011302Y-98107988D01*
X100622756Y-97947047D01*
X100210279Y-97865000D01*
X99789721Y-97865000D01*
X99377244Y-97947047D01*
X98988698Y-98107988D01*
X98639017Y-98341637D01*
X98341637Y-98639017D01*
X98107988Y-98988698D01*
X97947047Y-99377244D01*
X97865000Y-99789721D01*
X91660000Y-99789721D01*
X91660000Y-93375200D01*
X97707936Y-93375200D01*
X97736125Y-93661410D01*
X97819610Y-93936621D01*
X97955181Y-94190257D01*
X98137629Y-94412571D01*
X98359943Y-94595019D01*
X98613579Y-94730590D01*
X98888790Y-94814075D01*
X99103277Y-94835200D01*
X100896723Y-94835200D01*
X101111210Y-94814075D01*
X101386421Y-94730590D01*
X101640057Y-94595019D01*
X101862371Y-94412571D01*
X102044819Y-94190257D01*
X102180390Y-93936621D01*
X102263875Y-93661410D01*
X102292064Y-93375200D01*
X102263875Y-93088990D01*
X102180390Y-92813779D01*
X102044819Y-92560143D01*
X101862371Y-92337829D01*
X101640057Y-92155381D01*
X101386421Y-92019810D01*
X101111210Y-91936325D01*
X100896723Y-91915200D01*
X99103277Y-91915200D01*
X98888790Y-91936325D01*
X98613579Y-92019810D01*
X98359943Y-92155381D01*
X98137629Y-92337829D01*
X97955181Y-92560143D01*
X97819610Y-92813779D01*
X97736125Y-93088990D01*
X97707936Y-93375200D01*
X91660000Y-93375200D01*
X91660000Y-84723185D01*
X91859120Y-84856233D01*
X92112993Y-84961391D01*
X92382504Y-85015000D01*
X92657296Y-85015000D01*
X92926807Y-84961391D01*
X93180680Y-84856233D01*
X93409161Y-84703567D01*
X93603467Y-84509261D01*
X93756133Y-84280780D01*
X93861291Y-84026907D01*
X93914900Y-83757396D01*
X93914900Y-83482604D01*
X93861291Y-83213093D01*
X93756133Y-82959220D01*
X93603467Y-82730739D01*
X93409161Y-82536433D01*
X93180680Y-82383767D01*
X93099160Y-82350000D01*
X93180680Y-82316233D01*
X93409161Y-82163567D01*
X93603467Y-81969261D01*
X93756133Y-81740780D01*
X93861291Y-81486907D01*
X93914900Y-81217396D01*
X93914900Y-80942604D01*
X93861291Y-80673093D01*
X93756133Y-80419220D01*
X93603467Y-80190739D01*
X93409161Y-79996433D01*
X93180680Y-79843767D01*
X93099160Y-79810000D01*
X93180680Y-79776233D01*
X93409161Y-79623567D01*
X93603467Y-79429261D01*
X93756133Y-79200780D01*
X93861291Y-78946907D01*
X93914900Y-78677396D01*
X93914900Y-78402604D01*
X93861291Y-78133093D01*
X93756133Y-77879220D01*
X93603467Y-77650739D01*
X93409161Y-77456433D01*
X93180680Y-77303767D01*
X92926807Y-77198609D01*
X92657296Y-77145000D01*
X92382504Y-77145000D01*
X92112993Y-77198609D01*
X91859120Y-77303767D01*
X91667179Y-77432018D01*
X91670542Y-77388297D01*
X91670542Y-77388295D01*
X91674251Y-77340074D01*
X91686046Y-77288963D01*
X91708506Y-77221582D01*
X91740486Y-77144832D01*
X91775096Y-77075612D01*
X91807661Y-77024439D01*
X91853404Y-76967261D01*
X91907337Y-76907335D01*
X91967271Y-76853394D01*
X92024437Y-76807662D01*
X92075612Y-76775096D01*
X92144832Y-76740486D01*
X92221585Y-76708505D01*
X92288964Y-76686046D01*
X92340074Y-76674251D01*
X92388295Y-76670542D01*
X92388296Y-76670542D01*
X92525341Y-76660000D01*
X95974659Y-76660000D01*
X96111703Y-76670542D01*
%TA.AperFunction,Conductor*%
D16*
G36*
X96111703Y-76670542D02*
G01*
X96111705Y-76670542D01*
X96159926Y-76674251D01*
X96211037Y-76686046D01*
X96278418Y-76708506D01*
X96355168Y-76740486D01*
X96424388Y-76775096D01*
X96475561Y-76807661D01*
X96532739Y-76853404D01*
X96592665Y-76907337D01*
X96646606Y-76967271D01*
X96692338Y-77024437D01*
X96724904Y-77075612D01*
X96759514Y-77144832D01*
X96791495Y-77221585D01*
X96813954Y-77288964D01*
X96825749Y-77340074D01*
X96829458Y-77388295D01*
X96829458Y-77388296D01*
X96840001Y-77525354D01*
X96840000Y-87192974D01*
X96839458Y-87218296D01*
X96840000Y-87225342D01*
X96840000Y-87232418D01*
X96842486Y-87257657D01*
X96849458Y-87348295D01*
X96849458Y-87348296D01*
X96858281Y-87462997D01*
X96857115Y-87480190D01*
X96863256Y-87527670D01*
X96864431Y-87542943D01*
X96867415Y-87559827D01*
X96869613Y-87576818D01*
X96873055Y-87591734D01*
X96881390Y-87638889D01*
X96887643Y-87654949D01*
X96906715Y-87737597D01*
X96913618Y-87767954D01*
X96913952Y-87768956D01*
X96914192Y-87769996D01*
X96924196Y-87799688D01*
X96961254Y-87910864D01*
X96968301Y-87933920D01*
X96971493Y-87941580D01*
X96974121Y-87949465D01*
X96983960Y-87971501D01*
X97027045Y-88074906D01*
X97035180Y-88096164D01*
X97039516Y-88104837D01*
X97043239Y-88113771D01*
X97053992Y-88133787D01*
X97081339Y-88188481D01*
X97081778Y-88190055D01*
X97110393Y-88246589D01*
X97124177Y-88274157D01*
X97125043Y-88275532D01*
X97125779Y-88276987D01*
X97142382Y-88303077D01*
X97176082Y-88356613D01*
X97177205Y-88357798D01*
X97180043Y-88362259D01*
X97181259Y-88365301D01*
X97214910Y-88417050D01*
X97230589Y-88441688D01*
X97232599Y-88444252D01*
X97234375Y-88446983D01*
X97252611Y-88469777D01*
X97290703Y-88518366D01*
X97293190Y-88520501D01*
X97326365Y-88561971D01*
X97337739Y-88577419D01*
X97346603Y-88587267D01*
X97354879Y-88597613D01*
X97368271Y-88611343D01*
X97407500Y-88654931D01*
X97408703Y-88656923D01*
X97450885Y-88703138D01*
X97471113Y-88725613D01*
X97472830Y-88727180D01*
X97474387Y-88728886D01*
X97496760Y-88749022D01*
X97543077Y-88791297D01*
X97545069Y-88792500D01*
X97588660Y-88831733D01*
X97602387Y-88845121D01*
X97612725Y-88853392D01*
X97622580Y-88862261D01*
X97638035Y-88873640D01*
X97679500Y-88906812D01*
X97681634Y-88909297D01*
X97730180Y-88947356D01*
X97753016Y-88965625D01*
X97755753Y-88967405D01*
X97758312Y-88969411D01*
X97782930Y-88985077D01*
X97834698Y-89018740D01*
X97837738Y-89019955D01*
X97842202Y-89022795D01*
X97843387Y-89023918D01*
X97896923Y-89057618D01*
X97923013Y-89074221D01*
X97924468Y-89074957D01*
X97925843Y-89075823D01*
X97953411Y-89089607D01*
X98009945Y-89118222D01*
X98011519Y-89118661D01*
X98066213Y-89146008D01*
X98086229Y-89156761D01*
X98095163Y-89160484D01*
X98103836Y-89164820D01*
X98125087Y-89172952D01*
X98228499Y-89216040D01*
X98250535Y-89225879D01*
X98258420Y-89228507D01*
X98266080Y-89231699D01*
X98289133Y-89238745D01*
X98400388Y-89275830D01*
X98430004Y-89285808D01*
X98431041Y-89286047D01*
X98432045Y-89286382D01*
X98462458Y-89293297D01*
X98545052Y-89312357D01*
X98561111Y-89318610D01*
X98608263Y-89326944D01*
X98623181Y-89330387D01*
X98640175Y-89332585D01*
X98657057Y-89335569D01*
X98672329Y-89336744D01*
X98719810Y-89342885D01*
X98737003Y-89341719D01*
X98851703Y-89350542D01*
X98851705Y-89350542D01*
X98942341Y-89357514D01*
X98967581Y-89360000D01*
X98974657Y-89360000D01*
X98981703Y-89360542D01*
X99007025Y-89360000D01*
X104224659Y-89360000D01*
X104361703Y-89370542D01*
X104361705Y-89370542D01*
X104409926Y-89374251D01*
X104461037Y-89386046D01*
X104528418Y-89408506D01*
X104605168Y-89440486D01*
X104674388Y-89475096D01*
X104725561Y-89507661D01*
X104782739Y-89553404D01*
X104842665Y-89607337D01*
X104896606Y-89667271D01*
X104942338Y-89724437D01*
X104974904Y-89775612D01*
X105009514Y-89844832D01*
X105041495Y-89921585D01*
X105063954Y-89988964D01*
X105075749Y-90040074D01*
X105079458Y-90088295D01*
X105079458Y-90088296D01*
X105090001Y-90225354D01*
X105090000Y-109774659D01*
X105079458Y-109911704D01*
X105075749Y-109959926D01*
X105063954Y-110011036D01*
X105041495Y-110078415D01*
X105009514Y-110155168D01*
X104974904Y-110224388D01*
X104942338Y-110275563D01*
X104896606Y-110332729D01*
X104842665Y-110392663D01*
X104782739Y-110446596D01*
X104725561Y-110492339D01*
X104674388Y-110524904D01*
X104605168Y-110559514D01*
X104528418Y-110591494D01*
X104461037Y-110613954D01*
X104409926Y-110625749D01*
X104361705Y-110629458D01*
X104361703Y-110629458D01*
X104224659Y-110640000D01*
X99007025Y-110640000D01*
X98981703Y-110639458D01*
X98974657Y-110640000D01*
X98967581Y-110640000D01*
X98942341Y-110642486D01*
X98851705Y-110649458D01*
X98851703Y-110649458D01*
X98737003Y-110658281D01*
X98719810Y-110657115D01*
X98672329Y-110663256D01*
X98657057Y-110664431D01*
X98640175Y-110667415D01*
X98623181Y-110669613D01*
X98608263Y-110673056D01*
X98561111Y-110681390D01*
X98545052Y-110687643D01*
X98462458Y-110706703D01*
X98432045Y-110713618D01*
X98431041Y-110713953D01*
X98430004Y-110714192D01*
X98400388Y-110724170D01*
X98289133Y-110761255D01*
X98266080Y-110768301D01*
X98258420Y-110771493D01*
X98250535Y-110774121D01*
X98228499Y-110783960D01*
X98125087Y-110827048D01*
X98103836Y-110835180D01*
X98095163Y-110839516D01*
X98086229Y-110843239D01*
X98066213Y-110853992D01*
X98011519Y-110881339D01*
X98009945Y-110881778D01*
X97953411Y-110910393D01*
X97925843Y-110924177D01*
X97924468Y-110925043D01*
X97923013Y-110925779D01*
X97896923Y-110942382D01*
X97843387Y-110976082D01*
X97842202Y-110977205D01*
X97837738Y-110980045D01*
X97834698Y-110981260D01*
X97782930Y-111014923D01*
X97758312Y-111030589D01*
X97755753Y-111032595D01*
X97753016Y-111034375D01*
X97730180Y-111052644D01*
X97681634Y-111090703D01*
X97679500Y-111093188D01*
X97638035Y-111126360D01*
X97622580Y-111137739D01*
X97612725Y-111146608D01*
X97602387Y-111154879D01*
X97588660Y-111168267D01*
X97545069Y-111207500D01*
X97543077Y-111208703D01*
X97496760Y-111250978D01*
X97474387Y-111271114D01*
X97472830Y-111272820D01*
X97471113Y-111274387D01*
X97450885Y-111296862D01*
X97408703Y-111343077D01*
X97407500Y-111345069D01*
X97368271Y-111388657D01*
X97354879Y-111402387D01*
X97346603Y-111412733D01*
X97337739Y-111422581D01*
X97326365Y-111438029D01*
X97293190Y-111479499D01*
X97290703Y-111481634D01*
X97252611Y-111530223D01*
X97234375Y-111553017D01*
X97232599Y-111555748D01*
X97230589Y-111558312D01*
X97214910Y-111582950D01*
X97181259Y-111634699D01*
X97180043Y-111637741D01*
X97177205Y-111642202D01*
X97176082Y-111643387D01*
X97142445Y-111696823D01*
X97125779Y-111723013D01*
X97125043Y-111724468D01*
X97124177Y-111725843D01*
X97110393Y-111753411D01*
X97081778Y-111809945D01*
X97081339Y-111811519D01*
X97053992Y-111866213D01*
X97043239Y-111886229D01*
X97039516Y-111895163D01*
X97035180Y-111903836D01*
X97027045Y-111925094D01*
X96983960Y-112028499D01*
X96974121Y-112050535D01*
X96971493Y-112058420D01*
X96968301Y-112066080D01*
X96961254Y-112089136D01*
X96924196Y-112200312D01*
X96914192Y-112230004D01*
X96913952Y-112231044D01*
X96913618Y-112232046D01*
X96906715Y-112262403D01*
X96887643Y-112345051D01*
X96881390Y-112361111D01*
X96873055Y-112408266D01*
X96869613Y-112423182D01*
X96867415Y-112440173D01*
X96864431Y-112457057D01*
X96863256Y-112472330D01*
X96857115Y-112519810D01*
X96858281Y-112537003D01*
X96854431Y-112587057D01*
X96842483Y-112742384D01*
X96840001Y-112767581D01*
X96840001Y-112774645D01*
X96839458Y-112781704D01*
X96840001Y-112807072D01*
X96840000Y-122474659D01*
X96829458Y-122611703D01*
X96825749Y-122659926D01*
X96813954Y-122711036D01*
X96791495Y-122778415D01*
X96759514Y-122855168D01*
X96724904Y-122924388D01*
X96692338Y-122975563D01*
X96646606Y-123032729D01*
X96592665Y-123092663D01*
X96532739Y-123146596D01*
X96475561Y-123192339D01*
X96424388Y-123224904D01*
X96355168Y-123259514D01*
X96278418Y-123291494D01*
X96211037Y-123313954D01*
X96159926Y-123325749D01*
X96111705Y-123329458D01*
X96111703Y-123329458D01*
X95974659Y-123340000D01*
X92525341Y-123340000D01*
X92388296Y-123329458D01*
X92388295Y-123329458D01*
X92340074Y-123325749D01*
X92288964Y-123313954D01*
X92221585Y-123291495D01*
X92144832Y-123259514D01*
X92075612Y-123224904D01*
X92024437Y-123192338D01*
X91967271Y-123146606D01*
X91907337Y-123092665D01*
X91853404Y-123032739D01*
X91807661Y-122975561D01*
X91775096Y-122924388D01*
X91740486Y-122855168D01*
X91708506Y-122778418D01*
X91686046Y-122711037D01*
X91674251Y-122659926D01*
X91670542Y-122611703D01*
X91667179Y-122567982D01*
X91859120Y-122696233D01*
X92112993Y-122801391D01*
X92382504Y-122855000D01*
X92657296Y-122855000D01*
X92926807Y-122801391D01*
X93180680Y-122696233D01*
X93409161Y-122543567D01*
X93603467Y-122349261D01*
X93756133Y-122120780D01*
X93861291Y-121866907D01*
X93914900Y-121597396D01*
X93914900Y-121322604D01*
X93861291Y-121053093D01*
X93756133Y-120799220D01*
X93603467Y-120570739D01*
X93409161Y-120376433D01*
X93180680Y-120223767D01*
X93099160Y-120190000D01*
X93180680Y-120156233D01*
X93409161Y-120003567D01*
X93603467Y-119809261D01*
X93756133Y-119580780D01*
X93861291Y-119326907D01*
X93914900Y-119057396D01*
X93914900Y-118782604D01*
X93861291Y-118513093D01*
X93756133Y-118259220D01*
X93603467Y-118030739D01*
X93409161Y-117836433D01*
X93180680Y-117683767D01*
X93104399Y-117652170D01*
X93122226Y-117645744D01*
X93237694Y-117584025D01*
X93304431Y-117344137D01*
X92519900Y-116559605D01*
X92505758Y-116573748D01*
X92326152Y-116394142D01*
X92340295Y-116380000D01*
X92326152Y-116365858D01*
X92505758Y-116186253D01*
X92519900Y-116200395D01*
X92534042Y-116186252D01*
X92713648Y-116365858D01*
X92699505Y-116380000D01*
X93484037Y-117164531D01*
X93723925Y-117097794D01*
X93840824Y-116849108D01*
X93906961Y-116582394D01*
X93919795Y-116307903D01*
X93878831Y-116036183D01*
X93785644Y-115777674D01*
X93723925Y-115662206D01*
X93484039Y-115595469D01*
X93511502Y-115568006D01*
X94216489Y-115568006D01*
X94217784Y-115574514D01*
X94295805Y-115762872D01*
X94409073Y-115932390D01*
X94553236Y-116076553D01*
X94722754Y-116189821D01*
X94911112Y-116267842D01*
X95111071Y-116307616D01*
X95314949Y-116307616D01*
X95514908Y-116267842D01*
X95703266Y-116189821D01*
X95872784Y-116076553D01*
X96016947Y-115932390D01*
X96130215Y-115762872D01*
X96208236Y-115574514D01*
X96248010Y-115374555D01*
X96248010Y-115170677D01*
X96208236Y-114970718D01*
X96130215Y-114782360D01*
X96016947Y-114612842D01*
X95872784Y-114468679D01*
X95703266Y-114355411D01*
X95514908Y-114277390D01*
X95314949Y-114237616D01*
X95251372Y-114237616D01*
X95172676Y-114173032D01*
X95040647Y-114102460D01*
X94897386Y-114059003D01*
X94785733Y-114048006D01*
X94785722Y-114048006D01*
X94748400Y-114044330D01*
X94711078Y-114048006D01*
X92905711Y-114048006D01*
X92861774Y-114004069D01*
X92692256Y-113890801D01*
X92503898Y-113812780D01*
X92303939Y-113773006D01*
X92100061Y-113773006D01*
X91900102Y-113812780D01*
X91711744Y-113890801D01*
X91660000Y-113925375D01*
X91660000Y-106625200D01*
X97707936Y-106625200D01*
X97736125Y-106911410D01*
X97819610Y-107186621D01*
X97955181Y-107440257D01*
X98137629Y-107662571D01*
X98359943Y-107845019D01*
X98613579Y-107980590D01*
X98888790Y-108064075D01*
X99103277Y-108085200D01*
X100896723Y-108085200D01*
X101111210Y-108064075D01*
X101386421Y-107980590D01*
X101640057Y-107845019D01*
X101862371Y-107662571D01*
X102044819Y-107440257D01*
X102180390Y-107186621D01*
X102263875Y-106911410D01*
X102292064Y-106625200D01*
X102263875Y-106338990D01*
X102180390Y-106063779D01*
X102044819Y-105810143D01*
X101862371Y-105587829D01*
X101640057Y-105405381D01*
X101386421Y-105269810D01*
X101111210Y-105186325D01*
X100896723Y-105165200D01*
X99103277Y-105165200D01*
X98888790Y-105186325D01*
X98613579Y-105269810D01*
X98359943Y-105405381D01*
X98137629Y-105587829D01*
X97955181Y-105810143D01*
X97819610Y-106063779D01*
X97736125Y-106338990D01*
X97707936Y-106625200D01*
X91660000Y-106625200D01*
X91660000Y-99789721D01*
X97865000Y-99789721D01*
X97865000Y-100210279D01*
X97947047Y-100622756D01*
X98107988Y-101011302D01*
X98341637Y-101360983D01*
X98639017Y-101658363D01*
X98988698Y-101892012D01*
X99377244Y-102052953D01*
X99789721Y-102135000D01*
X100210279Y-102135000D01*
X100622756Y-102052953D01*
X101011302Y-101892012D01*
X101360983Y-101658363D01*
X101658363Y-101360983D01*
X101892012Y-101011302D01*
X102052953Y-100622756D01*
X102135000Y-100210279D01*
X102135000Y-99789721D01*
X102052953Y-99377244D01*
X101892012Y-98988698D01*
X101658363Y-98639017D01*
X101360983Y-98341637D01*
X101011302Y-98107988D01*
X100622756Y-97947047D01*
X100210279Y-97865000D01*
X99789721Y-97865000D01*
X99377244Y-97947047D01*
X98988698Y-98107988D01*
X98639017Y-98341637D01*
X98341637Y-98639017D01*
X98107988Y-98988698D01*
X97947047Y-99377244D01*
X97865000Y-99789721D01*
X91660000Y-99789721D01*
X91660000Y-93375200D01*
X97707936Y-93375200D01*
X97736125Y-93661410D01*
X97819610Y-93936621D01*
X97955181Y-94190257D01*
X98137629Y-94412571D01*
X98359943Y-94595019D01*
X98613579Y-94730590D01*
X98888790Y-94814075D01*
X99103277Y-94835200D01*
X100896723Y-94835200D01*
X101111210Y-94814075D01*
X101386421Y-94730590D01*
X101640057Y-94595019D01*
X101862371Y-94412571D01*
X102044819Y-94190257D01*
X102180390Y-93936621D01*
X102263875Y-93661410D01*
X102292064Y-93375200D01*
X102263875Y-93088990D01*
X102180390Y-92813779D01*
X102044819Y-92560143D01*
X101862371Y-92337829D01*
X101640057Y-92155381D01*
X101386421Y-92019810D01*
X101111210Y-91936325D01*
X100896723Y-91915200D01*
X99103277Y-91915200D01*
X98888790Y-91936325D01*
X98613579Y-92019810D01*
X98359943Y-92155381D01*
X98137629Y-92337829D01*
X97955181Y-92560143D01*
X97819610Y-92813779D01*
X97736125Y-93088990D01*
X97707936Y-93375200D01*
X91660000Y-93375200D01*
X91660000Y-84723185D01*
X91859120Y-84856233D01*
X92112993Y-84961391D01*
X92382504Y-85015000D01*
X92657296Y-85015000D01*
X92926807Y-84961391D01*
X93180680Y-84856233D01*
X93409161Y-84703567D01*
X93603467Y-84509261D01*
X93756133Y-84280780D01*
X93861291Y-84026907D01*
X93914900Y-83757396D01*
X93914900Y-83482604D01*
X93861291Y-83213093D01*
X93756133Y-82959220D01*
X93603467Y-82730739D01*
X93409161Y-82536433D01*
X93180680Y-82383767D01*
X93099160Y-82350000D01*
X93180680Y-82316233D01*
X93409161Y-82163567D01*
X93603467Y-81969261D01*
X93756133Y-81740780D01*
X93861291Y-81486907D01*
X93914900Y-81217396D01*
X93914900Y-80942604D01*
X93861291Y-80673093D01*
X93756133Y-80419220D01*
X93603467Y-80190739D01*
X93409161Y-79996433D01*
X93180680Y-79843767D01*
X93099160Y-79810000D01*
X93180680Y-79776233D01*
X93409161Y-79623567D01*
X93603467Y-79429261D01*
X93756133Y-79200780D01*
X93861291Y-78946907D01*
X93914900Y-78677396D01*
X93914900Y-78402604D01*
X93861291Y-78133093D01*
X93756133Y-77879220D01*
X93603467Y-77650739D01*
X93409161Y-77456433D01*
X93180680Y-77303767D01*
X92926807Y-77198609D01*
X92657296Y-77145000D01*
X92382504Y-77145000D01*
X92112993Y-77198609D01*
X91859120Y-77303767D01*
X91667179Y-77432018D01*
X91670542Y-77388297D01*
X91670542Y-77388295D01*
X91674251Y-77340074D01*
X91686046Y-77288963D01*
X91708506Y-77221582D01*
X91740486Y-77144832D01*
X91775096Y-77075612D01*
X91807661Y-77024439D01*
X91853404Y-76967261D01*
X91907337Y-76907335D01*
X91967271Y-76853394D01*
X92024437Y-76807662D01*
X92075612Y-76775096D01*
X92144832Y-76740486D01*
X92221585Y-76708505D01*
X92288964Y-76686046D01*
X92340074Y-76674251D01*
X92388295Y-76670542D01*
X92388296Y-76670542D01*
X92525341Y-76660000D01*
X95974659Y-76660000D01*
X96111703Y-76670542D01*
G37*
%TD.AperFunction*%
%TD*%
M02*
