%TF.GenerationSoftware,KiCad,Pcbnew,5.1.9-73d0e3b20d~88~ubuntu20.04.1*%
%TF.CreationDate,2021-04-18T17:47:56-07:00*%
%TF.ProjectId,encoder,656e636f-6465-4722-9e6b-696361645f70,rev?*%
%TF.SameCoordinates,Original*%
%TF.FileFunction,Paste,Top*%
%TF.FilePolarity,Positive*%
%FSLAX46Y46*%
G04 Gerber Fmt 4.6, Leading zero omitted, Abs format (unit mm)*
G04 Created by KiCad (PCBNEW 5.1.9-73d0e3b20d~88~ubuntu20.04.1) date 2021-04-18 17:47:56*
%MOMM*%
%LPD*%
G01*
G04 APERTURE LIST*
%ADD10C,0.100000*%
G04 APERTURE END LIST*
%TO.C,C2*%
G36*
G01*
X97975000Y-109546200D02*
X97975000Y-109046200D01*
G75*
G02*
X98200000Y-108821200I225000J0D01*
G01*
X98650000Y-108821200D01*
G75*
G02*
X98875000Y-109046200I0J-225000D01*
G01*
X98875000Y-109546200D01*
G75*
G02*
X98650000Y-109771200I-225000J0D01*
G01*
X98200000Y-109771200D01*
G75*
G02*
X97975000Y-109546200I0J225000D01*
G01*
G37*
G36*
G01*
X96425000Y-109546200D02*
X96425000Y-109046200D01*
G75*
G02*
X96650000Y-108821200I225000J0D01*
G01*
X97100000Y-108821200D01*
G75*
G02*
X97325000Y-109046200I0J-225000D01*
G01*
X97325000Y-109546200D01*
G75*
G02*
X97100000Y-109771200I-225000J0D01*
G01*
X96650000Y-109771200D01*
G75*
G02*
X96425000Y-109546200I0J225000D01*
G01*
G37*
%TD*%
%TO.C,C1*%
G36*
G01*
X93264800Y-88194000D02*
X92764800Y-88194000D01*
G75*
G02*
X92539800Y-87969000I0J225000D01*
G01*
X92539800Y-87519000D01*
G75*
G02*
X92764800Y-87294000I225000J0D01*
G01*
X93264800Y-87294000D01*
G75*
G02*
X93489800Y-87519000I0J-225000D01*
G01*
X93489800Y-87969000D01*
G75*
G02*
X93264800Y-88194000I-225000J0D01*
G01*
G37*
G36*
G01*
X93264800Y-89744000D02*
X92764800Y-89744000D01*
G75*
G02*
X92539800Y-89519000I0J225000D01*
G01*
X92539800Y-89069000D01*
G75*
G02*
X92764800Y-88844000I225000J0D01*
G01*
X93264800Y-88844000D01*
G75*
G02*
X93489800Y-89069000I0J-225000D01*
G01*
X93489800Y-89519000D01*
G75*
G02*
X93264800Y-89744000I-225000J0D01*
G01*
G37*
%TD*%
%TO.C,R2*%
G36*
G01*
X92225000Y-94425000D02*
X92775000Y-94425000D01*
G75*
G02*
X92975000Y-94625000I0J-200000D01*
G01*
X92975000Y-95025000D01*
G75*
G02*
X92775000Y-95225000I-200000J0D01*
G01*
X92225000Y-95225000D01*
G75*
G02*
X92025000Y-95025000I0J200000D01*
G01*
X92025000Y-94625000D01*
G75*
G02*
X92225000Y-94425000I200000J0D01*
G01*
G37*
G36*
G01*
X92225000Y-92775000D02*
X92775000Y-92775000D01*
G75*
G02*
X92975000Y-92975000I0J-200000D01*
G01*
X92975000Y-93375000D01*
G75*
G02*
X92775000Y-93575000I-200000J0D01*
G01*
X92225000Y-93575000D01*
G75*
G02*
X92025000Y-93375000I0J200000D01*
G01*
X92025000Y-92975000D01*
G75*
G02*
X92225000Y-92775000I200000J0D01*
G01*
G37*
%TD*%
%TO.C,R1*%
G36*
G01*
X94625000Y-108925000D02*
X95175000Y-108925000D01*
G75*
G02*
X95375000Y-109125000I0J-200000D01*
G01*
X95375000Y-109525000D01*
G75*
G02*
X95175000Y-109725000I-200000J0D01*
G01*
X94625000Y-109725000D01*
G75*
G02*
X94425000Y-109525000I0J200000D01*
G01*
X94425000Y-109125000D01*
G75*
G02*
X94625000Y-108925000I200000J0D01*
G01*
G37*
G36*
G01*
X94625000Y-107275000D02*
X95175000Y-107275000D01*
G75*
G02*
X95375000Y-107475000I0J-200000D01*
G01*
X95375000Y-107875000D01*
G75*
G02*
X95175000Y-108075000I-200000J0D01*
G01*
X94625000Y-108075000D01*
G75*
G02*
X94425000Y-107875000I0J200000D01*
G01*
X94425000Y-107475000D01*
G75*
G02*
X94625000Y-107275000I200000J0D01*
G01*
G37*
%TD*%
D10*
%TO.C,Q2*%
G36*
X96693934Y-102528248D02*
G01*
X96128248Y-103093934D01*
X95491852Y-102457538D01*
X96057538Y-101891852D01*
X96693934Y-102528248D01*
G37*
G36*
X98779899Y-103270710D02*
G01*
X98214213Y-103836396D01*
X97577817Y-103200000D01*
X98143503Y-102634314D01*
X98779899Y-103270710D01*
G37*
G36*
X97436396Y-104614213D02*
G01*
X96870710Y-105179899D01*
X96234314Y-104543503D01*
X96800000Y-103977817D01*
X97436396Y-104614213D01*
G37*
%TD*%
%TO.C,Q1*%
G36*
X96128248Y-96906066D02*
G01*
X96693934Y-97471752D01*
X96057538Y-98108148D01*
X95491852Y-97542462D01*
X96128248Y-96906066D01*
G37*
G36*
X96870710Y-94820101D02*
G01*
X97436396Y-95385787D01*
X96800000Y-96022183D01*
X96234314Y-95456497D01*
X96870710Y-94820101D01*
G37*
G36*
X98214213Y-96163604D02*
G01*
X98779899Y-96729290D01*
X98143503Y-97365686D01*
X97577817Y-96800000D01*
X98214213Y-96163604D01*
G37*
%TD*%
M02*
