%TF.GenerationSoftware,KiCad,Pcbnew,5.1.9-73d0e3b20d~88~ubuntu20.04.1*%
%TF.CreationDate,2020-12-28T16:44:42-08:00*%
%TF.ProjectId,ld06_adapter,6c643036-5f61-4646-9170-7465722e6b69,rev?*%
%TF.SameCoordinates,Original*%
%TF.FileFunction,Copper,L2,Bot*%
%TF.FilePolarity,Positive*%
%FSLAX46Y46*%
G04 Gerber Fmt 4.6, Leading zero omitted, Abs format (unit mm)*
G04 Created by KiCad (PCBNEW 5.1.9-73d0e3b20d~88~ubuntu20.04.1) date 2020-12-28 16:44:42*
%MOMM*%
%LPD*%
G01*
G04 APERTURE LIST*
%TA.AperFunction,ComponentPad*%
%ADD10C,1.520000*%
%TD*%
%TA.AperFunction,ComponentPad*%
%ADD11O,1.170000X1.870000*%
%TD*%
%TA.AperFunction,Conductor*%
%ADD12C,0.250000*%
%TD*%
%TA.AperFunction,Conductor*%
%ADD13C,0.500000*%
%TD*%
%TA.AperFunction,Conductor*%
%ADD14C,0.254000*%
%TD*%
%TA.AperFunction,Conductor*%
%ADD15C,0.100000*%
%TD*%
G04 APERTURE END LIST*
D10*
%TO.P,CN1,11*%
%TO.N,/PWM*%
X103810000Y-96190000D03*
%TO.P,CN1,10*%
%TO.N,Net-(CN1-Pad10)*%
X101270000Y-96190000D03*
%TO.P,CN1,9*%
%TO.N,Net-(CN1-Pad9)*%
X98730000Y-96190000D03*
%TO.P,CN1,8*%
%TO.N,Net-(CN1-Pad8)*%
X96190000Y-96190000D03*
%TO.P,CN1,7*%
%TO.N,/TX*%
X107620000Y-103810000D03*
%TO.P,CN1,6*%
%TO.N,/GND*%
X105080000Y-103810000D03*
%TO.P,CN1,5*%
X102540000Y-103810000D03*
%TO.P,CN1,4*%
X100000000Y-103810000D03*
%TO.P,CN1,3*%
X96825000Y-103810000D03*
%TO.P,CN1,2*%
%TO.N,/5V*%
X94285000Y-103810000D03*
%TO.P,CN1,1*%
%TO.N,Net-(CN1-Pad1)*%
X91745000Y-103810000D03*
%TD*%
D11*
%TO.P,CN2,4*%
%TO.N,/5V*%
X102544000Y-99568000D03*
%TO.P,CN2,3*%
%TO.N,/GND*%
X101044000Y-99568000D03*
%TO.P,CN2,2*%
%TO.N,/PWM*%
X99544000Y-99568000D03*
%TO.P,CN2,1*%
%TO.N,/TX*%
%TA.AperFunction,ComponentPad*%
G36*
G01*
X97459000Y-100253001D02*
X97459000Y-98882999D01*
G75*
G02*
X97708999Y-98633000I249999J0D01*
G01*
X98379001Y-98633000D01*
G75*
G02*
X98629000Y-98882999I0J-249999D01*
G01*
X98629000Y-100253001D01*
G75*
G02*
X98379001Y-100503000I-249999J0D01*
G01*
X97708999Y-100503000D01*
G75*
G02*
X97459000Y-100253001I0J249999D01*
G01*
G37*
%TD.AperFunction*%
%TD*%
D12*
%TO.N,/PWM*%
X99544000Y-99568000D02*
X99544000Y-98830000D01*
X99544000Y-98830000D02*
X100838000Y-97536000D01*
X102464000Y-97536000D02*
X103810000Y-96190000D01*
X100838000Y-97536000D02*
X102464000Y-97536000D01*
D13*
%TO.N,/GND*%
X101092000Y-99616000D02*
X101044000Y-99568000D01*
%TO.N,/5V*%
X102544000Y-99568000D02*
X102544000Y-100656000D01*
X102544000Y-100656000D02*
X101854000Y-101346000D01*
X96749000Y-101346000D02*
X94285000Y-103810000D01*
X101854000Y-101346000D02*
X96749000Y-101346000D01*
%TD*%
D14*
%TO.N,/GND*%
X109315000Y-95635285D02*
X109082864Y-95403149D01*
X108757750Y-95185915D01*
X108396503Y-95036282D01*
X108013005Y-94960000D01*
X107621995Y-94960000D01*
X107238497Y-95036282D01*
X106877250Y-95185915D01*
X106552136Y-95403149D01*
X106275649Y-95679636D01*
X106058415Y-96004750D01*
X105908782Y-96365997D01*
X105832500Y-96749495D01*
X105832500Y-97140505D01*
X105908782Y-97524003D01*
X106058415Y-97885250D01*
X106275649Y-98210364D01*
X106552136Y-98486851D01*
X106877250Y-98704085D01*
X107238497Y-98853718D01*
X107621995Y-98930000D01*
X108013005Y-98930000D01*
X108396503Y-98853718D01*
X108757750Y-98704085D01*
X109082864Y-98486851D01*
X109315000Y-98254715D01*
X109315001Y-105315000D01*
X90685000Y-105315000D01*
X90685000Y-104722828D01*
X90855739Y-104893567D01*
X91084220Y-105046233D01*
X91338093Y-105151391D01*
X91607604Y-105205000D01*
X91882396Y-105205000D01*
X92151907Y-105151391D01*
X92405780Y-105046233D01*
X92634261Y-104893567D01*
X92828567Y-104699261D01*
X92981233Y-104470780D01*
X93015000Y-104389260D01*
X93048767Y-104470780D01*
X93201433Y-104699261D01*
X93395739Y-104893567D01*
X93624220Y-105046233D01*
X93878093Y-105151391D01*
X94147604Y-105205000D01*
X94422396Y-105205000D01*
X94691907Y-105151391D01*
X94945780Y-105046233D01*
X95174261Y-104893567D01*
X95293691Y-104774137D01*
X96040469Y-104774137D01*
X96107206Y-105014025D01*
X96355892Y-105130924D01*
X96622606Y-105197061D01*
X96897097Y-105209895D01*
X97168817Y-105168931D01*
X97427326Y-105075744D01*
X97542794Y-105014025D01*
X97609531Y-104774137D01*
X99215469Y-104774137D01*
X99282206Y-105014025D01*
X99530892Y-105130924D01*
X99797606Y-105197061D01*
X100072097Y-105209895D01*
X100343817Y-105168931D01*
X100602326Y-105075744D01*
X100717794Y-105014025D01*
X100784531Y-104774137D01*
X101755469Y-104774137D01*
X101822206Y-105014025D01*
X102070892Y-105130924D01*
X102337606Y-105197061D01*
X102612097Y-105209895D01*
X102883817Y-105168931D01*
X103142326Y-105075744D01*
X103257794Y-105014025D01*
X103324531Y-104774137D01*
X104295469Y-104774137D01*
X104362206Y-105014025D01*
X104610892Y-105130924D01*
X104877606Y-105197061D01*
X105152097Y-105209895D01*
X105423817Y-105168931D01*
X105682326Y-105075744D01*
X105797794Y-105014025D01*
X105864531Y-104774137D01*
X105080000Y-103989605D01*
X104295469Y-104774137D01*
X103324531Y-104774137D01*
X102540000Y-103989605D01*
X101755469Y-104774137D01*
X100784531Y-104774137D01*
X100000000Y-103989605D01*
X99215469Y-104774137D01*
X97609531Y-104774137D01*
X96825000Y-103989605D01*
X96040469Y-104774137D01*
X95293691Y-104774137D01*
X95368567Y-104699261D01*
X95521233Y-104470780D01*
X95552830Y-104394499D01*
X95559256Y-104412326D01*
X95620975Y-104527794D01*
X95860863Y-104594531D01*
X96645395Y-103810000D01*
X97004605Y-103810000D01*
X97789137Y-104594531D01*
X98029025Y-104527794D01*
X98145924Y-104279108D01*
X98212061Y-104012394D01*
X98218153Y-103882097D01*
X98600105Y-103882097D01*
X98641069Y-104153817D01*
X98734256Y-104412326D01*
X98795975Y-104527794D01*
X99035863Y-104594531D01*
X99820395Y-103810000D01*
X100179605Y-103810000D01*
X100964137Y-104594531D01*
X101204025Y-104527794D01*
X101267332Y-104393118D01*
X101274256Y-104412326D01*
X101335975Y-104527794D01*
X101575863Y-104594531D01*
X102360395Y-103810000D01*
X102719605Y-103810000D01*
X103504137Y-104594531D01*
X103744025Y-104527794D01*
X103807332Y-104393118D01*
X103814256Y-104412326D01*
X103875975Y-104527794D01*
X104115863Y-104594531D01*
X104900395Y-103810000D01*
X105259605Y-103810000D01*
X106044137Y-104594531D01*
X106284025Y-104527794D01*
X106349600Y-104388293D01*
X106383767Y-104470780D01*
X106536433Y-104699261D01*
X106730739Y-104893567D01*
X106959220Y-105046233D01*
X107213093Y-105151391D01*
X107482604Y-105205000D01*
X107757396Y-105205000D01*
X108026907Y-105151391D01*
X108280780Y-105046233D01*
X108509261Y-104893567D01*
X108703567Y-104699261D01*
X108856233Y-104470780D01*
X108961391Y-104216907D01*
X109015000Y-103947396D01*
X109015000Y-103672604D01*
X108961391Y-103403093D01*
X108856233Y-103149220D01*
X108703567Y-102920739D01*
X108509261Y-102726433D01*
X108280780Y-102573767D01*
X108026907Y-102468609D01*
X107757396Y-102415000D01*
X107482604Y-102415000D01*
X107213093Y-102468609D01*
X106959220Y-102573767D01*
X106730739Y-102726433D01*
X106536433Y-102920739D01*
X106383767Y-103149220D01*
X106352170Y-103225501D01*
X106345744Y-103207674D01*
X106284025Y-103092206D01*
X106044137Y-103025469D01*
X105259605Y-103810000D01*
X104900395Y-103810000D01*
X104115863Y-103025469D01*
X103875975Y-103092206D01*
X103812668Y-103226882D01*
X103805744Y-103207674D01*
X103744025Y-103092206D01*
X103504137Y-103025469D01*
X102719605Y-103810000D01*
X102360395Y-103810000D01*
X101575863Y-103025469D01*
X101335975Y-103092206D01*
X101272668Y-103226882D01*
X101265744Y-103207674D01*
X101204025Y-103092206D01*
X100964137Y-103025469D01*
X100179605Y-103810000D01*
X99820395Y-103810000D01*
X99035863Y-103025469D01*
X98795975Y-103092206D01*
X98679076Y-103340892D01*
X98612939Y-103607606D01*
X98600105Y-103882097D01*
X98218153Y-103882097D01*
X98224895Y-103737903D01*
X98183931Y-103466183D01*
X98090744Y-103207674D01*
X98029025Y-103092206D01*
X97789137Y-103025469D01*
X97004605Y-103810000D01*
X96645395Y-103810000D01*
X96631252Y-103795858D01*
X96810858Y-103616252D01*
X96825000Y-103630395D01*
X97609531Y-102845863D01*
X99215469Y-102845863D01*
X100000000Y-103630395D01*
X100784531Y-102845863D01*
X101755469Y-102845863D01*
X102540000Y-103630395D01*
X103324531Y-102845863D01*
X104295469Y-102845863D01*
X105080000Y-103630395D01*
X105864531Y-102845863D01*
X105797794Y-102605975D01*
X105549108Y-102489076D01*
X105282394Y-102422939D01*
X105007903Y-102410105D01*
X104736183Y-102451069D01*
X104477674Y-102544256D01*
X104362206Y-102605975D01*
X104295469Y-102845863D01*
X103324531Y-102845863D01*
X103257794Y-102605975D01*
X103009108Y-102489076D01*
X102742394Y-102422939D01*
X102467903Y-102410105D01*
X102196183Y-102451069D01*
X101937674Y-102544256D01*
X101822206Y-102605975D01*
X101755469Y-102845863D01*
X100784531Y-102845863D01*
X100717794Y-102605975D01*
X100469108Y-102489076D01*
X100202394Y-102422939D01*
X99927903Y-102410105D01*
X99656183Y-102451069D01*
X99397674Y-102544256D01*
X99282206Y-102605975D01*
X99215469Y-102845863D01*
X97609531Y-102845863D01*
X97542794Y-102605975D01*
X97294108Y-102489076D01*
X97027394Y-102422939D01*
X96928274Y-102418305D01*
X97115579Y-102231000D01*
X101810531Y-102231000D01*
X101854000Y-102235281D01*
X101897469Y-102231000D01*
X101897477Y-102231000D01*
X102027490Y-102218195D01*
X102194313Y-102167589D01*
X102348059Y-102085411D01*
X102482817Y-101974817D01*
X102510534Y-101941044D01*
X103139049Y-101312530D01*
X103172817Y-101284817D01*
X103283411Y-101150059D01*
X103365589Y-100996313D01*
X103416195Y-100829490D01*
X103421922Y-100771346D01*
X103563301Y-100599075D01*
X103676587Y-100387133D01*
X103746348Y-100157161D01*
X103764000Y-99977934D01*
X103764000Y-99158065D01*
X103746348Y-98978838D01*
X103676587Y-98748867D01*
X103563301Y-98536925D01*
X103410844Y-98351156D01*
X103225074Y-98198699D01*
X103013132Y-98085413D01*
X102998092Y-98080851D01*
X103004001Y-98076001D01*
X103027803Y-98046998D01*
X103520131Y-97554671D01*
X103672604Y-97585000D01*
X103947396Y-97585000D01*
X104216907Y-97531391D01*
X104470780Y-97426233D01*
X104699261Y-97273567D01*
X104893567Y-97079261D01*
X105046233Y-96850780D01*
X105151391Y-96596907D01*
X105205000Y-96327396D01*
X105205000Y-96052604D01*
X105151391Y-95783093D01*
X105046233Y-95529220D01*
X104893567Y-95300739D01*
X104699261Y-95106433D01*
X104470780Y-94953767D01*
X104216907Y-94848609D01*
X103947396Y-94795000D01*
X103672604Y-94795000D01*
X103403093Y-94848609D01*
X103149220Y-94953767D01*
X102920739Y-95106433D01*
X102726433Y-95300739D01*
X102573767Y-95529220D01*
X102540000Y-95610740D01*
X102506233Y-95529220D01*
X102353567Y-95300739D01*
X102159261Y-95106433D01*
X101930780Y-94953767D01*
X101676907Y-94848609D01*
X101407396Y-94795000D01*
X101132604Y-94795000D01*
X100863093Y-94848609D01*
X100609220Y-94953767D01*
X100380739Y-95106433D01*
X100186433Y-95300739D01*
X100033767Y-95529220D01*
X100000000Y-95610740D01*
X99966233Y-95529220D01*
X99813567Y-95300739D01*
X99619261Y-95106433D01*
X99390780Y-94953767D01*
X99136907Y-94848609D01*
X98867396Y-94795000D01*
X98592604Y-94795000D01*
X98323093Y-94848609D01*
X98069220Y-94953767D01*
X97840739Y-95106433D01*
X97646433Y-95300739D01*
X97493767Y-95529220D01*
X97460000Y-95610740D01*
X97426233Y-95529220D01*
X97273567Y-95300739D01*
X97079261Y-95106433D01*
X96850780Y-94953767D01*
X96596907Y-94848609D01*
X96327396Y-94795000D01*
X96052604Y-94795000D01*
X95783093Y-94848609D01*
X95529220Y-94953767D01*
X95300739Y-95106433D01*
X95106433Y-95300739D01*
X94953767Y-95529220D01*
X94848609Y-95783093D01*
X94795000Y-96052604D01*
X94795000Y-96327396D01*
X94848609Y-96596907D01*
X94953767Y-96850780D01*
X95106433Y-97079261D01*
X95300739Y-97273567D01*
X95529220Y-97426233D01*
X95783093Y-97531391D01*
X96052604Y-97585000D01*
X96327396Y-97585000D01*
X96596907Y-97531391D01*
X96850780Y-97426233D01*
X97079261Y-97273567D01*
X97273567Y-97079261D01*
X97426233Y-96850780D01*
X97460000Y-96769260D01*
X97493767Y-96850780D01*
X97646433Y-97079261D01*
X97840739Y-97273567D01*
X98069220Y-97426233D01*
X98323093Y-97531391D01*
X98592604Y-97585000D01*
X98867396Y-97585000D01*
X99136907Y-97531391D01*
X99390780Y-97426233D01*
X99619261Y-97273567D01*
X99813567Y-97079261D01*
X99966233Y-96850780D01*
X100000000Y-96769260D01*
X100033767Y-96850780D01*
X100186433Y-97079261D01*
X100203185Y-97096013D01*
X99274276Y-98024923D01*
X99074867Y-98085413D01*
X98908578Y-98174297D01*
X98872387Y-98144595D01*
X98718851Y-98062528D01*
X98552255Y-98011992D01*
X98379001Y-97994928D01*
X97708999Y-97994928D01*
X97535745Y-98011992D01*
X97369149Y-98062528D01*
X97215613Y-98144595D01*
X97081038Y-98255038D01*
X96970595Y-98389613D01*
X96888528Y-98543149D01*
X96837992Y-98709745D01*
X96820928Y-98882999D01*
X96820928Y-100253001D01*
X96837992Y-100426255D01*
X96848532Y-100461000D01*
X96792465Y-100461000D01*
X96748999Y-100456719D01*
X96705533Y-100461000D01*
X96705523Y-100461000D01*
X96575510Y-100473805D01*
X96408687Y-100524411D01*
X96254941Y-100606589D01*
X96254939Y-100606590D01*
X96254940Y-100606590D01*
X96153953Y-100689468D01*
X96153951Y-100689470D01*
X96120183Y-100717183D01*
X96092470Y-100750951D01*
X94427422Y-102416000D01*
X94422396Y-102415000D01*
X94147604Y-102415000D01*
X93878093Y-102468609D01*
X93624220Y-102573767D01*
X93395739Y-102726433D01*
X93201433Y-102920739D01*
X93048767Y-103149220D01*
X93015000Y-103230740D01*
X92981233Y-103149220D01*
X92828567Y-102920739D01*
X92634261Y-102726433D01*
X92405780Y-102573767D01*
X92151907Y-102468609D01*
X91882396Y-102415000D01*
X91607604Y-102415000D01*
X91338093Y-102468609D01*
X91084220Y-102573767D01*
X90855739Y-102726433D01*
X90685000Y-102897172D01*
X90685000Y-98254715D01*
X90917136Y-98486851D01*
X91242250Y-98704085D01*
X91603497Y-98853718D01*
X91986995Y-98930000D01*
X92378005Y-98930000D01*
X92761503Y-98853718D01*
X93122750Y-98704085D01*
X93447864Y-98486851D01*
X93724351Y-98210364D01*
X93941585Y-97885250D01*
X94091218Y-97524003D01*
X94167500Y-97140505D01*
X94167500Y-96749495D01*
X94091218Y-96365997D01*
X93941585Y-96004750D01*
X93724351Y-95679636D01*
X93447864Y-95403149D01*
X93122750Y-95185915D01*
X92761503Y-95036282D01*
X92378005Y-94960000D01*
X91986995Y-94960000D01*
X91603497Y-95036282D01*
X91242250Y-95185915D01*
X90917136Y-95403149D01*
X90685000Y-95635285D01*
X90685000Y-94685000D01*
X109315000Y-94685000D01*
X109315000Y-95635285D01*
%TA.AperFunction,Conductor*%
D15*
G36*
X109315000Y-95635285D02*
G01*
X109082864Y-95403149D01*
X108757750Y-95185915D01*
X108396503Y-95036282D01*
X108013005Y-94960000D01*
X107621995Y-94960000D01*
X107238497Y-95036282D01*
X106877250Y-95185915D01*
X106552136Y-95403149D01*
X106275649Y-95679636D01*
X106058415Y-96004750D01*
X105908782Y-96365997D01*
X105832500Y-96749495D01*
X105832500Y-97140505D01*
X105908782Y-97524003D01*
X106058415Y-97885250D01*
X106275649Y-98210364D01*
X106552136Y-98486851D01*
X106877250Y-98704085D01*
X107238497Y-98853718D01*
X107621995Y-98930000D01*
X108013005Y-98930000D01*
X108396503Y-98853718D01*
X108757750Y-98704085D01*
X109082864Y-98486851D01*
X109315000Y-98254715D01*
X109315001Y-105315000D01*
X90685000Y-105315000D01*
X90685000Y-104722828D01*
X90855739Y-104893567D01*
X91084220Y-105046233D01*
X91338093Y-105151391D01*
X91607604Y-105205000D01*
X91882396Y-105205000D01*
X92151907Y-105151391D01*
X92405780Y-105046233D01*
X92634261Y-104893567D01*
X92828567Y-104699261D01*
X92981233Y-104470780D01*
X93015000Y-104389260D01*
X93048767Y-104470780D01*
X93201433Y-104699261D01*
X93395739Y-104893567D01*
X93624220Y-105046233D01*
X93878093Y-105151391D01*
X94147604Y-105205000D01*
X94422396Y-105205000D01*
X94691907Y-105151391D01*
X94945780Y-105046233D01*
X95174261Y-104893567D01*
X95293691Y-104774137D01*
X96040469Y-104774137D01*
X96107206Y-105014025D01*
X96355892Y-105130924D01*
X96622606Y-105197061D01*
X96897097Y-105209895D01*
X97168817Y-105168931D01*
X97427326Y-105075744D01*
X97542794Y-105014025D01*
X97609531Y-104774137D01*
X99215469Y-104774137D01*
X99282206Y-105014025D01*
X99530892Y-105130924D01*
X99797606Y-105197061D01*
X100072097Y-105209895D01*
X100343817Y-105168931D01*
X100602326Y-105075744D01*
X100717794Y-105014025D01*
X100784531Y-104774137D01*
X101755469Y-104774137D01*
X101822206Y-105014025D01*
X102070892Y-105130924D01*
X102337606Y-105197061D01*
X102612097Y-105209895D01*
X102883817Y-105168931D01*
X103142326Y-105075744D01*
X103257794Y-105014025D01*
X103324531Y-104774137D01*
X104295469Y-104774137D01*
X104362206Y-105014025D01*
X104610892Y-105130924D01*
X104877606Y-105197061D01*
X105152097Y-105209895D01*
X105423817Y-105168931D01*
X105682326Y-105075744D01*
X105797794Y-105014025D01*
X105864531Y-104774137D01*
X105080000Y-103989605D01*
X104295469Y-104774137D01*
X103324531Y-104774137D01*
X102540000Y-103989605D01*
X101755469Y-104774137D01*
X100784531Y-104774137D01*
X100000000Y-103989605D01*
X99215469Y-104774137D01*
X97609531Y-104774137D01*
X96825000Y-103989605D01*
X96040469Y-104774137D01*
X95293691Y-104774137D01*
X95368567Y-104699261D01*
X95521233Y-104470780D01*
X95552830Y-104394499D01*
X95559256Y-104412326D01*
X95620975Y-104527794D01*
X95860863Y-104594531D01*
X96645395Y-103810000D01*
X97004605Y-103810000D01*
X97789137Y-104594531D01*
X98029025Y-104527794D01*
X98145924Y-104279108D01*
X98212061Y-104012394D01*
X98218153Y-103882097D01*
X98600105Y-103882097D01*
X98641069Y-104153817D01*
X98734256Y-104412326D01*
X98795975Y-104527794D01*
X99035863Y-104594531D01*
X99820395Y-103810000D01*
X100179605Y-103810000D01*
X100964137Y-104594531D01*
X101204025Y-104527794D01*
X101267332Y-104393118D01*
X101274256Y-104412326D01*
X101335975Y-104527794D01*
X101575863Y-104594531D01*
X102360395Y-103810000D01*
X102719605Y-103810000D01*
X103504137Y-104594531D01*
X103744025Y-104527794D01*
X103807332Y-104393118D01*
X103814256Y-104412326D01*
X103875975Y-104527794D01*
X104115863Y-104594531D01*
X104900395Y-103810000D01*
X105259605Y-103810000D01*
X106044137Y-104594531D01*
X106284025Y-104527794D01*
X106349600Y-104388293D01*
X106383767Y-104470780D01*
X106536433Y-104699261D01*
X106730739Y-104893567D01*
X106959220Y-105046233D01*
X107213093Y-105151391D01*
X107482604Y-105205000D01*
X107757396Y-105205000D01*
X108026907Y-105151391D01*
X108280780Y-105046233D01*
X108509261Y-104893567D01*
X108703567Y-104699261D01*
X108856233Y-104470780D01*
X108961391Y-104216907D01*
X109015000Y-103947396D01*
X109015000Y-103672604D01*
X108961391Y-103403093D01*
X108856233Y-103149220D01*
X108703567Y-102920739D01*
X108509261Y-102726433D01*
X108280780Y-102573767D01*
X108026907Y-102468609D01*
X107757396Y-102415000D01*
X107482604Y-102415000D01*
X107213093Y-102468609D01*
X106959220Y-102573767D01*
X106730739Y-102726433D01*
X106536433Y-102920739D01*
X106383767Y-103149220D01*
X106352170Y-103225501D01*
X106345744Y-103207674D01*
X106284025Y-103092206D01*
X106044137Y-103025469D01*
X105259605Y-103810000D01*
X104900395Y-103810000D01*
X104115863Y-103025469D01*
X103875975Y-103092206D01*
X103812668Y-103226882D01*
X103805744Y-103207674D01*
X103744025Y-103092206D01*
X103504137Y-103025469D01*
X102719605Y-103810000D01*
X102360395Y-103810000D01*
X101575863Y-103025469D01*
X101335975Y-103092206D01*
X101272668Y-103226882D01*
X101265744Y-103207674D01*
X101204025Y-103092206D01*
X100964137Y-103025469D01*
X100179605Y-103810000D01*
X99820395Y-103810000D01*
X99035863Y-103025469D01*
X98795975Y-103092206D01*
X98679076Y-103340892D01*
X98612939Y-103607606D01*
X98600105Y-103882097D01*
X98218153Y-103882097D01*
X98224895Y-103737903D01*
X98183931Y-103466183D01*
X98090744Y-103207674D01*
X98029025Y-103092206D01*
X97789137Y-103025469D01*
X97004605Y-103810000D01*
X96645395Y-103810000D01*
X96631252Y-103795858D01*
X96810858Y-103616252D01*
X96825000Y-103630395D01*
X97609531Y-102845863D01*
X99215469Y-102845863D01*
X100000000Y-103630395D01*
X100784531Y-102845863D01*
X101755469Y-102845863D01*
X102540000Y-103630395D01*
X103324531Y-102845863D01*
X104295469Y-102845863D01*
X105080000Y-103630395D01*
X105864531Y-102845863D01*
X105797794Y-102605975D01*
X105549108Y-102489076D01*
X105282394Y-102422939D01*
X105007903Y-102410105D01*
X104736183Y-102451069D01*
X104477674Y-102544256D01*
X104362206Y-102605975D01*
X104295469Y-102845863D01*
X103324531Y-102845863D01*
X103257794Y-102605975D01*
X103009108Y-102489076D01*
X102742394Y-102422939D01*
X102467903Y-102410105D01*
X102196183Y-102451069D01*
X101937674Y-102544256D01*
X101822206Y-102605975D01*
X101755469Y-102845863D01*
X100784531Y-102845863D01*
X100717794Y-102605975D01*
X100469108Y-102489076D01*
X100202394Y-102422939D01*
X99927903Y-102410105D01*
X99656183Y-102451069D01*
X99397674Y-102544256D01*
X99282206Y-102605975D01*
X99215469Y-102845863D01*
X97609531Y-102845863D01*
X97542794Y-102605975D01*
X97294108Y-102489076D01*
X97027394Y-102422939D01*
X96928274Y-102418305D01*
X97115579Y-102231000D01*
X101810531Y-102231000D01*
X101854000Y-102235281D01*
X101897469Y-102231000D01*
X101897477Y-102231000D01*
X102027490Y-102218195D01*
X102194313Y-102167589D01*
X102348059Y-102085411D01*
X102482817Y-101974817D01*
X102510534Y-101941044D01*
X103139049Y-101312530D01*
X103172817Y-101284817D01*
X103283411Y-101150059D01*
X103365589Y-100996313D01*
X103416195Y-100829490D01*
X103421922Y-100771346D01*
X103563301Y-100599075D01*
X103676587Y-100387133D01*
X103746348Y-100157161D01*
X103764000Y-99977934D01*
X103764000Y-99158065D01*
X103746348Y-98978838D01*
X103676587Y-98748867D01*
X103563301Y-98536925D01*
X103410844Y-98351156D01*
X103225074Y-98198699D01*
X103013132Y-98085413D01*
X102998092Y-98080851D01*
X103004001Y-98076001D01*
X103027803Y-98046998D01*
X103520131Y-97554671D01*
X103672604Y-97585000D01*
X103947396Y-97585000D01*
X104216907Y-97531391D01*
X104470780Y-97426233D01*
X104699261Y-97273567D01*
X104893567Y-97079261D01*
X105046233Y-96850780D01*
X105151391Y-96596907D01*
X105205000Y-96327396D01*
X105205000Y-96052604D01*
X105151391Y-95783093D01*
X105046233Y-95529220D01*
X104893567Y-95300739D01*
X104699261Y-95106433D01*
X104470780Y-94953767D01*
X104216907Y-94848609D01*
X103947396Y-94795000D01*
X103672604Y-94795000D01*
X103403093Y-94848609D01*
X103149220Y-94953767D01*
X102920739Y-95106433D01*
X102726433Y-95300739D01*
X102573767Y-95529220D01*
X102540000Y-95610740D01*
X102506233Y-95529220D01*
X102353567Y-95300739D01*
X102159261Y-95106433D01*
X101930780Y-94953767D01*
X101676907Y-94848609D01*
X101407396Y-94795000D01*
X101132604Y-94795000D01*
X100863093Y-94848609D01*
X100609220Y-94953767D01*
X100380739Y-95106433D01*
X100186433Y-95300739D01*
X100033767Y-95529220D01*
X100000000Y-95610740D01*
X99966233Y-95529220D01*
X99813567Y-95300739D01*
X99619261Y-95106433D01*
X99390780Y-94953767D01*
X99136907Y-94848609D01*
X98867396Y-94795000D01*
X98592604Y-94795000D01*
X98323093Y-94848609D01*
X98069220Y-94953767D01*
X97840739Y-95106433D01*
X97646433Y-95300739D01*
X97493767Y-95529220D01*
X97460000Y-95610740D01*
X97426233Y-95529220D01*
X97273567Y-95300739D01*
X97079261Y-95106433D01*
X96850780Y-94953767D01*
X96596907Y-94848609D01*
X96327396Y-94795000D01*
X96052604Y-94795000D01*
X95783093Y-94848609D01*
X95529220Y-94953767D01*
X95300739Y-95106433D01*
X95106433Y-95300739D01*
X94953767Y-95529220D01*
X94848609Y-95783093D01*
X94795000Y-96052604D01*
X94795000Y-96327396D01*
X94848609Y-96596907D01*
X94953767Y-96850780D01*
X95106433Y-97079261D01*
X95300739Y-97273567D01*
X95529220Y-97426233D01*
X95783093Y-97531391D01*
X96052604Y-97585000D01*
X96327396Y-97585000D01*
X96596907Y-97531391D01*
X96850780Y-97426233D01*
X97079261Y-97273567D01*
X97273567Y-97079261D01*
X97426233Y-96850780D01*
X97460000Y-96769260D01*
X97493767Y-96850780D01*
X97646433Y-97079261D01*
X97840739Y-97273567D01*
X98069220Y-97426233D01*
X98323093Y-97531391D01*
X98592604Y-97585000D01*
X98867396Y-97585000D01*
X99136907Y-97531391D01*
X99390780Y-97426233D01*
X99619261Y-97273567D01*
X99813567Y-97079261D01*
X99966233Y-96850780D01*
X100000000Y-96769260D01*
X100033767Y-96850780D01*
X100186433Y-97079261D01*
X100203185Y-97096013D01*
X99274276Y-98024923D01*
X99074867Y-98085413D01*
X98908578Y-98174297D01*
X98872387Y-98144595D01*
X98718851Y-98062528D01*
X98552255Y-98011992D01*
X98379001Y-97994928D01*
X97708999Y-97994928D01*
X97535745Y-98011992D01*
X97369149Y-98062528D01*
X97215613Y-98144595D01*
X97081038Y-98255038D01*
X96970595Y-98389613D01*
X96888528Y-98543149D01*
X96837992Y-98709745D01*
X96820928Y-98882999D01*
X96820928Y-100253001D01*
X96837992Y-100426255D01*
X96848532Y-100461000D01*
X96792465Y-100461000D01*
X96748999Y-100456719D01*
X96705533Y-100461000D01*
X96705523Y-100461000D01*
X96575510Y-100473805D01*
X96408687Y-100524411D01*
X96254941Y-100606589D01*
X96254939Y-100606590D01*
X96254940Y-100606590D01*
X96153953Y-100689468D01*
X96153951Y-100689470D01*
X96120183Y-100717183D01*
X96092470Y-100750951D01*
X94427422Y-102416000D01*
X94422396Y-102415000D01*
X94147604Y-102415000D01*
X93878093Y-102468609D01*
X93624220Y-102573767D01*
X93395739Y-102726433D01*
X93201433Y-102920739D01*
X93048767Y-103149220D01*
X93015000Y-103230740D01*
X92981233Y-103149220D01*
X92828567Y-102920739D01*
X92634261Y-102726433D01*
X92405780Y-102573767D01*
X92151907Y-102468609D01*
X91882396Y-102415000D01*
X91607604Y-102415000D01*
X91338093Y-102468609D01*
X91084220Y-102573767D01*
X90855739Y-102726433D01*
X90685000Y-102897172D01*
X90685000Y-98254715D01*
X90917136Y-98486851D01*
X91242250Y-98704085D01*
X91603497Y-98853718D01*
X91986995Y-98930000D01*
X92378005Y-98930000D01*
X92761503Y-98853718D01*
X93122750Y-98704085D01*
X93447864Y-98486851D01*
X93724351Y-98210364D01*
X93941585Y-97885250D01*
X94091218Y-97524003D01*
X94167500Y-97140505D01*
X94167500Y-96749495D01*
X94091218Y-96365997D01*
X93941585Y-96004750D01*
X93724351Y-95679636D01*
X93447864Y-95403149D01*
X93122750Y-95185915D01*
X92761503Y-95036282D01*
X92378005Y-94960000D01*
X91986995Y-94960000D01*
X91603497Y-95036282D01*
X91242250Y-95185915D01*
X90917136Y-95403149D01*
X90685000Y-95635285D01*
X90685000Y-94685000D01*
X109315000Y-94685000D01*
X109315000Y-95635285D01*
G37*
%TD.AperFunction*%
D14*
X101171000Y-99441000D02*
X101191000Y-99441000D01*
X101191000Y-99695000D01*
X101171000Y-99695000D01*
X101171000Y-99715000D01*
X100917000Y-99715000D01*
X100917000Y-99695000D01*
X100897000Y-99695000D01*
X100897000Y-99441000D01*
X100917000Y-99441000D01*
X100917000Y-99421000D01*
X101171000Y-99421000D01*
X101171000Y-99441000D01*
%TA.AperFunction,Conductor*%
D15*
G36*
X101171000Y-99441000D02*
G01*
X101191000Y-99441000D01*
X101191000Y-99695000D01*
X101171000Y-99695000D01*
X101171000Y-99715000D01*
X100917000Y-99715000D01*
X100917000Y-99695000D01*
X100897000Y-99695000D01*
X100897000Y-99441000D01*
X100917000Y-99441000D01*
X100917000Y-99421000D01*
X101171000Y-99421000D01*
X101171000Y-99441000D01*
G37*
%TD.AperFunction*%
%TD*%
M02*
