%TF.GenerationSoftware,KiCad,Pcbnew,5.1.9-73d0e3b20d~88~ubuntu20.04.1*%
%TF.CreationDate,2020-12-28T16:44:42-08:00*%
%TF.ProjectId,ld06_adapter,6c643036-5f61-4646-9170-7465722e6b69,rev?*%
%TF.SameCoordinates,Original*%
%TF.FileFunction,Legend,Top*%
%TF.FilePolarity,Positive*%
%FSLAX46Y46*%
G04 Gerber Fmt 4.6, Leading zero omitted, Abs format (unit mm)*
G04 Created by KiCad (PCBNEW 5.1.9-73d0e3b20d~88~ubuntu20.04.1) date 2020-12-28 16:44:42*
%MOMM*%
%LPD*%
G01*
G04 APERTURE LIST*
%ADD10C,0.120000*%
%ADD11C,0.150000*%
%ADD12C,0.200000*%
G04 APERTURE END LIST*
D10*
X95954853Y-97810000D02*
G75*
G03*
X95954853Y-97810000I-84853J0D01*
G01*
D11*
X105098642Y-100539785D02*
X104848642Y-100182642D01*
X104670071Y-100539785D02*
X104670071Y-99789785D01*
X104955785Y-99789785D01*
X105027214Y-99825500D01*
X105062928Y-99861214D01*
X105098642Y-99932642D01*
X105098642Y-100039785D01*
X105062928Y-100111214D01*
X105027214Y-100146928D01*
X104955785Y-100182642D01*
X104670071Y-100182642D01*
X105420071Y-100146928D02*
X105670071Y-100146928D01*
X105777214Y-100539785D02*
X105420071Y-100539785D01*
X105420071Y-99789785D01*
X105777214Y-99789785D01*
X105991500Y-99789785D02*
X106241500Y-100539785D01*
X106491500Y-99789785D01*
X106741500Y-100468357D02*
X106777214Y-100504071D01*
X106741500Y-100539785D01*
X106705785Y-100504071D01*
X106741500Y-100468357D01*
X106741500Y-100539785D01*
X107634357Y-100325500D02*
X107991500Y-100325500D01*
X107562928Y-100539785D02*
X107812928Y-99789785D01*
X108062928Y-100539785D01*
X104634357Y-101136214D02*
X104670071Y-101100500D01*
X104741500Y-101064785D01*
X104920071Y-101064785D01*
X104991500Y-101100500D01*
X105027214Y-101136214D01*
X105062928Y-101207642D01*
X105062928Y-101279071D01*
X105027214Y-101386214D01*
X104598642Y-101814785D01*
X105062928Y-101814785D01*
X105491500Y-101386214D02*
X105420071Y-101350500D01*
X105384357Y-101314785D01*
X105348642Y-101243357D01*
X105348642Y-101207642D01*
X105384357Y-101136214D01*
X105420071Y-101100500D01*
X105491500Y-101064785D01*
X105634357Y-101064785D01*
X105705785Y-101100500D01*
X105741500Y-101136214D01*
X105777214Y-101207642D01*
X105777214Y-101243357D01*
X105741500Y-101314785D01*
X105705785Y-101350500D01*
X105634357Y-101386214D01*
X105491500Y-101386214D01*
X105420071Y-101421928D01*
X105384357Y-101457642D01*
X105348642Y-101529071D01*
X105348642Y-101671928D01*
X105384357Y-101743357D01*
X105420071Y-101779071D01*
X105491500Y-101814785D01*
X105634357Y-101814785D01*
X105705785Y-101779071D01*
X105741500Y-101743357D01*
X105777214Y-101671928D01*
X105777214Y-101529071D01*
X105741500Y-101457642D01*
X105705785Y-101421928D01*
X105634357Y-101386214D01*
X106098642Y-101814785D02*
X106098642Y-101064785D01*
X106277214Y-101064785D01*
X106384357Y-101100500D01*
X106455785Y-101171928D01*
X106491500Y-101243357D01*
X106527214Y-101386214D01*
X106527214Y-101493357D01*
X106491500Y-101636214D01*
X106455785Y-101707642D01*
X106384357Y-101779071D01*
X106277214Y-101814785D01*
X106098642Y-101814785D01*
X106848642Y-101421928D02*
X107098642Y-101421928D01*
X107205785Y-101814785D02*
X106848642Y-101814785D01*
X106848642Y-101064785D01*
X107205785Y-101064785D01*
X107955785Y-101743357D02*
X107920071Y-101779071D01*
X107812928Y-101814785D01*
X107741500Y-101814785D01*
X107634357Y-101779071D01*
X107562928Y-101707642D01*
X107527214Y-101636214D01*
X107491500Y-101493357D01*
X107491500Y-101386214D01*
X107527214Y-101243357D01*
X107562928Y-101171928D01*
X107634357Y-101100500D01*
X107741500Y-101064785D01*
X107812928Y-101064785D01*
X107920071Y-101100500D01*
X107955785Y-101136214D01*
X108241500Y-101136214D02*
X108277214Y-101100500D01*
X108348642Y-101064785D01*
X108527214Y-101064785D01*
X108598642Y-101100500D01*
X108634357Y-101136214D01*
X108670071Y-101207642D01*
X108670071Y-101279071D01*
X108634357Y-101386214D01*
X108205785Y-101814785D01*
X108670071Y-101814785D01*
X109134357Y-101064785D02*
X109205785Y-101064785D01*
X109277214Y-101100500D01*
X109312928Y-101136214D01*
X109348642Y-101207642D01*
X109384357Y-101350500D01*
X109384357Y-101529071D01*
X109348642Y-101671928D01*
X109312928Y-101743357D01*
X109277214Y-101779071D01*
X109205785Y-101814785D01*
X109134357Y-101814785D01*
X109062928Y-101779071D01*
X109027214Y-101743357D01*
X108991500Y-101671928D01*
X108955785Y-101529071D01*
X108955785Y-101350500D01*
X108991500Y-101207642D01*
X109027214Y-101136214D01*
X109062928Y-101100500D01*
X109134357Y-101064785D01*
X93589071Y-98632285D02*
X93589071Y-97882285D01*
X93589071Y-98239428D02*
X94017642Y-98239428D01*
X94017642Y-98632285D02*
X94017642Y-97882285D01*
X94803357Y-98632285D02*
X94553357Y-98275142D01*
X94374785Y-98632285D02*
X94374785Y-97882285D01*
X94660500Y-97882285D01*
X94731928Y-97918000D01*
X94767642Y-97953714D01*
X94803357Y-98025142D01*
X94803357Y-98132285D01*
X94767642Y-98203714D01*
X94731928Y-98239428D01*
X94660500Y-98275142D01*
X94374785Y-98275142D01*
X95089071Y-97953714D02*
X95124785Y-97918000D01*
X95196214Y-97882285D01*
X95374785Y-97882285D01*
X95446214Y-97918000D01*
X95481928Y-97953714D01*
X95517642Y-98025142D01*
X95517642Y-98096571D01*
X95481928Y-98203714D01*
X95053357Y-98632285D01*
X95517642Y-98632285D01*
X93410500Y-99907285D02*
X93053357Y-99907285D01*
X93053357Y-99157285D01*
X93660500Y-99907285D02*
X93660500Y-99157285D01*
X93839071Y-99157285D01*
X93946214Y-99193000D01*
X94017642Y-99264428D01*
X94053357Y-99335857D01*
X94089071Y-99478714D01*
X94089071Y-99585857D01*
X94053357Y-99728714D01*
X94017642Y-99800142D01*
X93946214Y-99871571D01*
X93839071Y-99907285D01*
X93660500Y-99907285D01*
X94553357Y-99157285D02*
X94624785Y-99157285D01*
X94696214Y-99193000D01*
X94731928Y-99228714D01*
X94767642Y-99300142D01*
X94803357Y-99443000D01*
X94803357Y-99621571D01*
X94767642Y-99764428D01*
X94731928Y-99835857D01*
X94696214Y-99871571D01*
X94624785Y-99907285D01*
X94553357Y-99907285D01*
X94481928Y-99871571D01*
X94446214Y-99835857D01*
X94410500Y-99764428D01*
X94374785Y-99621571D01*
X94374785Y-99443000D01*
X94410500Y-99300142D01*
X94446214Y-99228714D01*
X94481928Y-99193000D01*
X94553357Y-99157285D01*
X95446214Y-99157285D02*
X95303357Y-99157285D01*
X95231928Y-99193000D01*
X95196214Y-99228714D01*
X95124785Y-99335857D01*
X95089071Y-99478714D01*
X95089071Y-99764428D01*
X95124785Y-99835857D01*
X95160500Y-99871571D01*
X95231928Y-99907285D01*
X95374785Y-99907285D01*
X95446214Y-99871571D01*
X95481928Y-99835857D01*
X95517642Y-99764428D01*
X95517642Y-99585857D01*
X95481928Y-99514428D01*
X95446214Y-99478714D01*
X95374785Y-99443000D01*
X95231928Y-99443000D01*
X95160500Y-99478714D01*
X95124785Y-99514428D01*
X95089071Y-99585857D01*
X91017642Y-100968000D02*
X91374785Y-100968000D01*
X90946214Y-101182285D02*
X91196214Y-100432285D01*
X91446214Y-101182285D01*
X91696214Y-101182285D02*
X91696214Y-100432285D01*
X91874785Y-100432285D01*
X91981928Y-100468000D01*
X92053357Y-100539428D01*
X92089071Y-100610857D01*
X92124785Y-100753714D01*
X92124785Y-100860857D01*
X92089071Y-101003714D01*
X92053357Y-101075142D01*
X91981928Y-101146571D01*
X91874785Y-101182285D01*
X91696214Y-101182285D01*
X92410500Y-100968000D02*
X92767642Y-100968000D01*
X92339071Y-101182285D02*
X92589071Y-100432285D01*
X92839071Y-101182285D01*
X93089071Y-101182285D02*
X93089071Y-100432285D01*
X93374785Y-100432285D01*
X93446214Y-100468000D01*
X93481928Y-100503714D01*
X93517642Y-100575142D01*
X93517642Y-100682285D01*
X93481928Y-100753714D01*
X93446214Y-100789428D01*
X93374785Y-100825142D01*
X93089071Y-100825142D01*
X93731928Y-100432285D02*
X94160500Y-100432285D01*
X93946214Y-101182285D02*
X93946214Y-100432285D01*
X94410500Y-100789428D02*
X94660500Y-100789428D01*
X94767642Y-101182285D02*
X94410500Y-101182285D01*
X94410500Y-100432285D01*
X94767642Y-100432285D01*
X95517642Y-101182285D02*
X95267642Y-100825142D01*
X95089071Y-101182285D02*
X95089071Y-100432285D01*
X95374785Y-100432285D01*
X95446214Y-100468000D01*
X95481928Y-100503714D01*
X95517642Y-100575142D01*
X95517642Y-100682285D01*
X95481928Y-100753714D01*
X95446214Y-100789428D01*
X95374785Y-100825142D01*
X95089071Y-100825142D01*
D12*
%TO.C,CN1*%
X95020000Y-94290000D02*
X94990000Y-94210000D01*
X94990000Y-94210000D02*
X94920000Y-94190000D01*
X94920000Y-94190000D02*
X94850000Y-94210000D01*
X94850000Y-94210000D02*
X94820000Y-94290000D01*
X94820000Y-94290000D02*
X94850000Y-94360000D01*
X94850000Y-94360000D02*
X94920000Y-94380000D01*
X94920000Y-94380000D02*
X94990000Y-94360000D01*
X94990000Y-94360000D02*
X95020000Y-94290000D01*
X105080000Y-94920000D02*
X94920000Y-94920000D01*
X94920000Y-94920000D02*
X94920000Y-97460000D01*
X94920000Y-97460000D02*
X105080000Y-97460000D01*
X105080000Y-97460000D02*
X105080000Y-94920000D01*
X98830000Y-101910000D02*
X98800000Y-101830000D01*
X98800000Y-101830000D02*
X98730000Y-101810000D01*
X98730000Y-101810000D02*
X98660000Y-101830000D01*
X98660000Y-101830000D02*
X98630000Y-101910000D01*
X98630000Y-101910000D02*
X98660000Y-101980000D01*
X98660000Y-101980000D02*
X98730000Y-102000000D01*
X98730000Y-102000000D02*
X98800000Y-101980000D01*
X98800000Y-101980000D02*
X98830000Y-101910000D01*
X108890000Y-102540000D02*
X98730000Y-102540000D01*
X98730000Y-102540000D02*
X98730000Y-105080000D01*
X98730000Y-105080000D02*
X108890000Y-105080000D01*
X108890000Y-105080000D02*
X108890000Y-102540000D01*
X90570000Y-101910000D02*
X90550000Y-101830000D01*
X90550000Y-101830000D02*
X90470000Y-101810000D01*
X90470000Y-101810000D02*
X90400000Y-101830000D01*
X90400000Y-101830000D02*
X90380000Y-101910000D01*
X90380000Y-101910000D02*
X90400000Y-101980000D01*
X90400000Y-101980000D02*
X90470000Y-102000000D01*
X90470000Y-102000000D02*
X90550000Y-101980000D01*
X90550000Y-101980000D02*
X90570000Y-101910000D01*
X98100000Y-102540000D02*
X90470000Y-102540000D01*
X90470000Y-102540000D02*
X90470000Y-105080000D01*
X90470000Y-105080000D02*
X98100000Y-105080000D01*
X98100000Y-105080000D02*
X98100000Y-102540000D01*
D10*
%TO.C,CN2*%
X96134000Y-97858000D02*
X96134000Y-99108000D01*
X97384000Y-97858000D02*
X96134000Y-97858000D01*
X103954000Y-101678000D02*
X103954000Y-99918000D01*
X96634000Y-101678000D02*
X103954000Y-101678000D01*
X96634000Y-99918000D02*
X96634000Y-101678000D01*
X103954000Y-99918000D02*
X104154000Y-99918000D01*
X103954000Y-99218000D02*
X103954000Y-99918000D01*
X96634000Y-99918000D02*
X96434000Y-99918000D01*
X96634000Y-99218000D02*
X96634000Y-99918000D01*
X103954000Y-99218000D02*
X104154000Y-99218000D01*
X103954000Y-98358000D02*
X103954000Y-99218000D01*
X96634000Y-98358000D02*
X103954000Y-98358000D01*
X96634000Y-99218000D02*
X96634000Y-98358000D01*
X96434000Y-99218000D02*
X96634000Y-99218000D01*
X104154000Y-98158000D02*
X96434000Y-98158000D01*
X104154000Y-101878000D02*
X104154000Y-98158000D01*
X96434000Y-101878000D02*
X104154000Y-101878000D01*
X96434000Y-98158000D02*
X96434000Y-101878000D01*
%TO.C,CN1*%
D11*
X91430142Y-102121857D02*
X91394428Y-102157571D01*
X91287285Y-102193285D01*
X91215857Y-102193285D01*
X91108714Y-102157571D01*
X91037285Y-102086142D01*
X91001571Y-102014714D01*
X90965857Y-101871857D01*
X90965857Y-101764714D01*
X91001571Y-101621857D01*
X91037285Y-101550428D01*
X91108714Y-101479000D01*
X91215857Y-101443285D01*
X91287285Y-101443285D01*
X91394428Y-101479000D01*
X91430142Y-101514714D01*
X91751571Y-102193285D02*
X91751571Y-101443285D01*
X92180142Y-102193285D01*
X92180142Y-101443285D01*
X92930142Y-102193285D02*
X92501571Y-102193285D01*
X92715857Y-102193285D02*
X92715857Y-101443285D01*
X92644428Y-101550428D01*
X92573000Y-101621857D01*
X92501571Y-101657571D01*
%TO.C,CN2*%
X104892142Y-98819857D02*
X104856428Y-98855571D01*
X104749285Y-98891285D01*
X104677857Y-98891285D01*
X104570714Y-98855571D01*
X104499285Y-98784142D01*
X104463571Y-98712714D01*
X104427857Y-98569857D01*
X104427857Y-98462714D01*
X104463571Y-98319857D01*
X104499285Y-98248428D01*
X104570714Y-98177000D01*
X104677857Y-98141285D01*
X104749285Y-98141285D01*
X104856428Y-98177000D01*
X104892142Y-98212714D01*
X105213571Y-98891285D02*
X105213571Y-98141285D01*
X105642142Y-98891285D01*
X105642142Y-98141285D01*
X105963571Y-98212714D02*
X105999285Y-98177000D01*
X106070714Y-98141285D01*
X106249285Y-98141285D01*
X106320714Y-98177000D01*
X106356428Y-98212714D01*
X106392142Y-98284142D01*
X106392142Y-98355571D01*
X106356428Y-98462714D01*
X105927857Y-98891285D01*
X106392142Y-98891285D01*
%TD*%
M02*
