%TF.GenerationSoftware,KiCad,Pcbnew,5.1.9-73d0e3b20d~88~ubuntu20.04.1*%
%TF.CreationDate,2020-12-29T15:57:48-08:00*%
%TF.ProjectId,st_adapter,73745f61-6461-4707-9465-722e6b696361,A*%
%TF.SameCoordinates,Original*%
%TF.FileFunction,Copper,L2,Bot*%
%TF.FilePolarity,Positive*%
%FSLAX46Y46*%
G04 Gerber Fmt 4.6, Leading zero omitted, Abs format (unit mm)*
G04 Created by KiCad (PCBNEW 5.1.9-73d0e3b20d~88~ubuntu20.04.1) date 2020-12-29 15:57:48*
%MOMM*%
%LPD*%
G01*
G04 APERTURE LIST*
%TA.AperFunction,ComponentPad*%
%ADD10C,1.520000*%
%TD*%
%TA.AperFunction,ViaPad*%
%ADD11C,0.800000*%
%TD*%
%TA.AperFunction,Conductor*%
%ADD12C,0.500000*%
%TD*%
%TA.AperFunction,Conductor*%
%ADD13C,0.254000*%
%TD*%
%TA.AperFunction,Conductor*%
%ADD14C,0.100000*%
%TD*%
G04 APERTURE END LIST*
D10*
%TO.P,CN2A,102*%
%TO.N,Net-(CN2-Pad102)*%
X101270000Y-91520000D03*
%TO.P,CN2A,101*%
%TO.N,Net-(CN2-Pad101)*%
X98730000Y-91520000D03*
%TO.P,CN2A,52*%
%TO.N,/TX*%
X83250000Y-106760000D03*
%TO.P,CN2A,51*%
%TO.N,/RX*%
X83250000Y-109300000D03*
%TO.P,CN2A,44*%
%TO.N,/SWCLKX*%
X83250000Y-99140000D03*
%TO.P,CN2A,43*%
X83250000Y-96600000D03*
%TO.P,CN2A,42*%
%TO.N,/SWDIOX*%
X83250000Y-94060000D03*
%TO.P,CN2A,41*%
X83250000Y-91520000D03*
%TO.P,CN2A,202*%
%TO.N,Net-(CN2-Pad202)*%
X68250000Y-106760000D03*
%TO.P,CN2A,201*%
%TO.N,/GND*%
X68250000Y-109300000D03*
%TO.P,CN2A,66*%
%TO.N,/SWO*%
X73250000Y-109300000D03*
%TO.P,CN2A,65*%
%TO.N,/NRST*%
X73250000Y-106760000D03*
%TO.P,CN2A,64*%
%TO.N,/SWDIO*%
X73250000Y-104220000D03*
%TO.P,CN2A,63*%
%TO.N,/GND*%
X73250000Y-101680000D03*
%TO.P,CN2A,62*%
%TO.N,/SWCLK*%
X73250000Y-99140000D03*
%TO.P,CN2A,61*%
%TO.N,/3V3*%
X73250000Y-96600000D03*
%TO.P,CN2A,22*%
%TO.N,/GND*%
X68250000Y-94060000D03*
%TO.P,CN2A,21*%
X68250000Y-91520000D03*
%TD*%
%TO.P,CN1,8*%
%TO.N,/TX*%
X87815000Y-100370000D03*
%TO.P,CN1,6*%
%TO.N,/SWO*%
X90355000Y-100370000D03*
%TO.P,CN1,4*%
%TO.N,/SWDIO*%
X92895000Y-100370000D03*
%TO.P,CN1,2*%
%TO.N,/SWCLK*%
X95435000Y-100370000D03*
%TO.P,CN1,7*%
%TO.N,/RX*%
X87815000Y-97830000D03*
%TO.P,CN1,5*%
%TO.N,/NRST*%
X90355000Y-97830000D03*
%TO.P,CN1,3*%
%TO.N,/GND*%
X92895000Y-97830000D03*
%TO.P,CN1,1*%
%TO.N,/3V3*%
X95435000Y-97830000D03*
%TD*%
D11*
%TO.N,/GND*%
X75000000Y-102600000D03*
X91500000Y-94800000D03*
%TD*%
D12*
%TO.N,/GND*%
X74170000Y-102600000D02*
X75000000Y-102600000D01*
X73250000Y-101680000D02*
X74170000Y-102600000D01*
X92895000Y-97830000D02*
X91500000Y-96435000D01*
X91500000Y-96435000D02*
X91500000Y-94800000D01*
%TD*%
D13*
%TO.N,/GND*%
X103611703Y-88390542D02*
X103611705Y-88390542D01*
X103659926Y-88394251D01*
X103711037Y-88406046D01*
X103778418Y-88428506D01*
X103855168Y-88460486D01*
X103924388Y-88495096D01*
X103975561Y-88527661D01*
X104032739Y-88573404D01*
X104092665Y-88627337D01*
X104146606Y-88687271D01*
X104192338Y-88744437D01*
X104224904Y-88795612D01*
X104259514Y-88864832D01*
X104291495Y-88941585D01*
X104313954Y-89008964D01*
X104325749Y-89060074D01*
X104329458Y-89108295D01*
X104329458Y-89108296D01*
X104340001Y-89245354D01*
X104340000Y-110754659D01*
X104329458Y-110891703D01*
X104325749Y-110939926D01*
X104313954Y-110991036D01*
X104291495Y-111058415D01*
X104259514Y-111135168D01*
X104224904Y-111204388D01*
X104192338Y-111255563D01*
X104146606Y-111312729D01*
X104092665Y-111372663D01*
X104032739Y-111426596D01*
X103975561Y-111472339D01*
X103924388Y-111504904D01*
X103855168Y-111539514D01*
X103778418Y-111571494D01*
X103711037Y-111593954D01*
X103659926Y-111605749D01*
X103611705Y-111609458D01*
X103611703Y-111609458D01*
X103474659Y-111620000D01*
X66525341Y-111620000D01*
X66388296Y-111609458D01*
X66388295Y-111609458D01*
X66340074Y-111605749D01*
X66288964Y-111593954D01*
X66221585Y-111571495D01*
X66144832Y-111539514D01*
X66075612Y-111504904D01*
X66024437Y-111472338D01*
X65967271Y-111426606D01*
X65907337Y-111372665D01*
X65853404Y-111312739D01*
X65807661Y-111255561D01*
X65775096Y-111204388D01*
X65740486Y-111135168D01*
X65708506Y-111058418D01*
X65686046Y-110991037D01*
X65674251Y-110939926D01*
X65670542Y-110891703D01*
X65660000Y-110754659D01*
X65660000Y-110264137D01*
X67465469Y-110264137D01*
X67532206Y-110504025D01*
X67780892Y-110620924D01*
X68047606Y-110687061D01*
X68322097Y-110699895D01*
X68593817Y-110658931D01*
X68852326Y-110565744D01*
X68967794Y-110504025D01*
X69034531Y-110264137D01*
X68250000Y-109479605D01*
X67465469Y-110264137D01*
X65660000Y-110264137D01*
X65660000Y-109372097D01*
X66850105Y-109372097D01*
X66891069Y-109643817D01*
X66984256Y-109902326D01*
X67045975Y-110017794D01*
X67285863Y-110084531D01*
X68070395Y-109300000D01*
X68429605Y-109300000D01*
X69214137Y-110084531D01*
X69454025Y-110017794D01*
X69570924Y-109769108D01*
X69637061Y-109502394D01*
X69649895Y-109227903D01*
X69608931Y-108956183D01*
X69515744Y-108697674D01*
X69454025Y-108582206D01*
X69214137Y-108515469D01*
X68429605Y-109300000D01*
X68070395Y-109300000D01*
X67285863Y-108515469D01*
X67045975Y-108582206D01*
X66929076Y-108830892D01*
X66862939Y-109097606D01*
X66850105Y-109372097D01*
X65660000Y-109372097D01*
X65660000Y-106622604D01*
X66855000Y-106622604D01*
X66855000Y-106897396D01*
X66908609Y-107166907D01*
X67013767Y-107420780D01*
X67166433Y-107649261D01*
X67360739Y-107843567D01*
X67589220Y-107996233D01*
X67665501Y-108027830D01*
X67647674Y-108034256D01*
X67532206Y-108095975D01*
X67465469Y-108335863D01*
X68250000Y-109120395D01*
X69034531Y-108335863D01*
X68967794Y-108095975D01*
X68828293Y-108030400D01*
X68910780Y-107996233D01*
X69139261Y-107843567D01*
X69333567Y-107649261D01*
X69486233Y-107420780D01*
X69591391Y-107166907D01*
X69645000Y-106897396D01*
X69645000Y-106622604D01*
X69591391Y-106353093D01*
X69486233Y-106099220D01*
X69333567Y-105870739D01*
X69139261Y-105676433D01*
X68910780Y-105523767D01*
X68656907Y-105418609D01*
X68387396Y-105365000D01*
X68112604Y-105365000D01*
X67843093Y-105418609D01*
X67589220Y-105523767D01*
X67360739Y-105676433D01*
X67166433Y-105870739D01*
X67013767Y-106099220D01*
X66908609Y-106353093D01*
X66855000Y-106622604D01*
X65660000Y-106622604D01*
X65660000Y-104082604D01*
X71855000Y-104082604D01*
X71855000Y-104357396D01*
X71908609Y-104626907D01*
X72013767Y-104880780D01*
X72166433Y-105109261D01*
X72360739Y-105303567D01*
X72589220Y-105456233D01*
X72670740Y-105490000D01*
X72589220Y-105523767D01*
X72360739Y-105676433D01*
X72166433Y-105870739D01*
X72013767Y-106099220D01*
X71908609Y-106353093D01*
X71855000Y-106622604D01*
X71855000Y-106897396D01*
X71908609Y-107166907D01*
X72013767Y-107420780D01*
X72166433Y-107649261D01*
X72360739Y-107843567D01*
X72589220Y-107996233D01*
X72670740Y-108030000D01*
X72589220Y-108063767D01*
X72360739Y-108216433D01*
X72166433Y-108410739D01*
X72013767Y-108639220D01*
X71908609Y-108893093D01*
X71855000Y-109162604D01*
X71855000Y-109437396D01*
X71908609Y-109706907D01*
X72013767Y-109960780D01*
X72166433Y-110189261D01*
X72360739Y-110383567D01*
X72589220Y-110536233D01*
X72843093Y-110641391D01*
X73112604Y-110695000D01*
X73387396Y-110695000D01*
X73656907Y-110641391D01*
X73910780Y-110536233D01*
X74139261Y-110383567D01*
X74333567Y-110189261D01*
X74486233Y-109960780D01*
X74591391Y-109706907D01*
X74645000Y-109437396D01*
X74645000Y-109162604D01*
X74591391Y-108893093D01*
X74486233Y-108639220D01*
X74333567Y-108410739D01*
X74139261Y-108216433D01*
X73910780Y-108063767D01*
X73829260Y-108030000D01*
X73910780Y-107996233D01*
X74139261Y-107843567D01*
X74333567Y-107649261D01*
X74486233Y-107420780D01*
X74591391Y-107166907D01*
X74645000Y-106897396D01*
X74645000Y-106622604D01*
X81855000Y-106622604D01*
X81855000Y-106897396D01*
X81908609Y-107166907D01*
X82013767Y-107420780D01*
X82166433Y-107649261D01*
X82360739Y-107843567D01*
X82589220Y-107996233D01*
X82670740Y-108030000D01*
X82589220Y-108063767D01*
X82360739Y-108216433D01*
X82166433Y-108410739D01*
X82013767Y-108639220D01*
X81908609Y-108893093D01*
X81855000Y-109162604D01*
X81855000Y-109437396D01*
X81908609Y-109706907D01*
X82013767Y-109960780D01*
X82166433Y-110189261D01*
X82360739Y-110383567D01*
X82589220Y-110536233D01*
X82843093Y-110641391D01*
X83112604Y-110695000D01*
X83387396Y-110695000D01*
X83656907Y-110641391D01*
X83910780Y-110536233D01*
X84139261Y-110383567D01*
X84333567Y-110189261D01*
X84486233Y-109960780D01*
X84591391Y-109706907D01*
X84645000Y-109437396D01*
X84645000Y-109162604D01*
X84591391Y-108893093D01*
X84486233Y-108639220D01*
X84333567Y-108410739D01*
X84139261Y-108216433D01*
X83910780Y-108063767D01*
X83829260Y-108030000D01*
X83910780Y-107996233D01*
X84139261Y-107843567D01*
X84333567Y-107649261D01*
X84486233Y-107420780D01*
X84591391Y-107166907D01*
X84645000Y-106897396D01*
X84645000Y-106622604D01*
X84591391Y-106353093D01*
X84486233Y-106099220D01*
X84333567Y-105870739D01*
X84139261Y-105676433D01*
X83910780Y-105523767D01*
X83656907Y-105418609D01*
X83387396Y-105365000D01*
X83112604Y-105365000D01*
X82843093Y-105418609D01*
X82589220Y-105523767D01*
X82360739Y-105676433D01*
X82166433Y-105870739D01*
X82013767Y-106099220D01*
X81908609Y-106353093D01*
X81855000Y-106622604D01*
X74645000Y-106622604D01*
X74591391Y-106353093D01*
X74486233Y-106099220D01*
X74333567Y-105870739D01*
X74139261Y-105676433D01*
X73910780Y-105523767D01*
X73829260Y-105490000D01*
X73910780Y-105456233D01*
X74139261Y-105303567D01*
X74333567Y-105109261D01*
X74486233Y-104880780D01*
X74591391Y-104626907D01*
X74645000Y-104357396D01*
X74645000Y-104082604D01*
X74591391Y-103813093D01*
X74486233Y-103559220D01*
X74333567Y-103330739D01*
X74139261Y-103136433D01*
X73910780Y-102983767D01*
X73834499Y-102952170D01*
X73852326Y-102945744D01*
X73967794Y-102884025D01*
X74034531Y-102644137D01*
X73250000Y-101859605D01*
X72465469Y-102644137D01*
X72532206Y-102884025D01*
X72671707Y-102949600D01*
X72589220Y-102983767D01*
X72360739Y-103136433D01*
X72166433Y-103330739D01*
X72013767Y-103559220D01*
X71908609Y-103813093D01*
X71855000Y-104082604D01*
X65660000Y-104082604D01*
X65660000Y-101752097D01*
X71850105Y-101752097D01*
X71891069Y-102023817D01*
X71984256Y-102282326D01*
X72045975Y-102397794D01*
X72285863Y-102464531D01*
X73070395Y-101680000D01*
X73429605Y-101680000D01*
X74214137Y-102464531D01*
X74454025Y-102397794D01*
X74570924Y-102149108D01*
X74637061Y-101882394D01*
X74649895Y-101607903D01*
X74608931Y-101336183D01*
X74515744Y-101077674D01*
X74454025Y-100962206D01*
X74214137Y-100895469D01*
X73429605Y-101680000D01*
X73070395Y-101680000D01*
X72285863Y-100895469D01*
X72045975Y-100962206D01*
X71929076Y-101210892D01*
X71862939Y-101477606D01*
X71850105Y-101752097D01*
X65660000Y-101752097D01*
X65660000Y-96462604D01*
X71855000Y-96462604D01*
X71855000Y-96737396D01*
X71908609Y-97006907D01*
X72013767Y-97260780D01*
X72166433Y-97489261D01*
X72360739Y-97683567D01*
X72589220Y-97836233D01*
X72670740Y-97870000D01*
X72589220Y-97903767D01*
X72360739Y-98056433D01*
X72166433Y-98250739D01*
X72013767Y-98479220D01*
X71908609Y-98733093D01*
X71855000Y-99002604D01*
X71855000Y-99277396D01*
X71908609Y-99546907D01*
X72013767Y-99800780D01*
X72166433Y-100029261D01*
X72360739Y-100223567D01*
X72589220Y-100376233D01*
X72665501Y-100407830D01*
X72647674Y-100414256D01*
X72532206Y-100475975D01*
X72465469Y-100715863D01*
X73250000Y-101500395D01*
X74034531Y-100715863D01*
X73967794Y-100475975D01*
X73828293Y-100410400D01*
X73910780Y-100376233D01*
X74139261Y-100223567D01*
X74333567Y-100029261D01*
X74486233Y-99800780D01*
X74591391Y-99546907D01*
X74645000Y-99277396D01*
X74645000Y-99002604D01*
X74591391Y-98733093D01*
X74486233Y-98479220D01*
X74333567Y-98250739D01*
X74139261Y-98056433D01*
X73910780Y-97903767D01*
X73829260Y-97870000D01*
X73910780Y-97836233D01*
X74139261Y-97683567D01*
X74333567Y-97489261D01*
X74486233Y-97260780D01*
X74591391Y-97006907D01*
X74645000Y-96737396D01*
X74645000Y-96462604D01*
X74591391Y-96193093D01*
X74486233Y-95939220D01*
X74333567Y-95710739D01*
X74139261Y-95516433D01*
X73910780Y-95363767D01*
X73656907Y-95258609D01*
X73387396Y-95205000D01*
X73112604Y-95205000D01*
X72843093Y-95258609D01*
X72589220Y-95363767D01*
X72360739Y-95516433D01*
X72166433Y-95710739D01*
X72013767Y-95939220D01*
X71908609Y-96193093D01*
X71855000Y-96462604D01*
X65660000Y-96462604D01*
X65660000Y-95024137D01*
X67465469Y-95024137D01*
X67532206Y-95264025D01*
X67780892Y-95380924D01*
X68047606Y-95447061D01*
X68322097Y-95459895D01*
X68593817Y-95418931D01*
X68852326Y-95325744D01*
X68967794Y-95264025D01*
X69034531Y-95024137D01*
X68250000Y-94239605D01*
X67465469Y-95024137D01*
X65660000Y-95024137D01*
X65660000Y-94132097D01*
X66850105Y-94132097D01*
X66891069Y-94403817D01*
X66984256Y-94662326D01*
X67045975Y-94777794D01*
X67285863Y-94844531D01*
X68070395Y-94060000D01*
X68429605Y-94060000D01*
X69214137Y-94844531D01*
X69454025Y-94777794D01*
X69570924Y-94529108D01*
X69637061Y-94262394D01*
X69649895Y-93987903D01*
X69608931Y-93716183D01*
X69515744Y-93457674D01*
X69454025Y-93342206D01*
X69214137Y-93275469D01*
X68429605Y-94060000D01*
X68070395Y-94060000D01*
X67285863Y-93275469D01*
X67045975Y-93342206D01*
X66929076Y-93590892D01*
X66862939Y-93857606D01*
X66850105Y-94132097D01*
X65660000Y-94132097D01*
X65660000Y-92484137D01*
X67465469Y-92484137D01*
X67532206Y-92724025D01*
X67666882Y-92787332D01*
X67647674Y-92794256D01*
X67532206Y-92855975D01*
X67465469Y-93095863D01*
X68250000Y-93880395D01*
X69034531Y-93095863D01*
X68967794Y-92855975D01*
X68833118Y-92792668D01*
X68852326Y-92785744D01*
X68967794Y-92724025D01*
X69034531Y-92484137D01*
X68250000Y-91699605D01*
X67465469Y-92484137D01*
X65660000Y-92484137D01*
X65660000Y-91592097D01*
X66850105Y-91592097D01*
X66891069Y-91863817D01*
X66984256Y-92122326D01*
X67045975Y-92237794D01*
X67285863Y-92304531D01*
X68070395Y-91520000D01*
X68429605Y-91520000D01*
X69214137Y-92304531D01*
X69454025Y-92237794D01*
X69570924Y-91989108D01*
X69637061Y-91722394D01*
X69649895Y-91447903D01*
X69640051Y-91382604D01*
X81855000Y-91382604D01*
X81855000Y-91657396D01*
X81908609Y-91926907D01*
X82013767Y-92180780D01*
X82166433Y-92409261D01*
X82360739Y-92603567D01*
X82589220Y-92756233D01*
X82670740Y-92790000D01*
X82589220Y-92823767D01*
X82360739Y-92976433D01*
X82166433Y-93170739D01*
X82013767Y-93399220D01*
X81908609Y-93653093D01*
X81855000Y-93922604D01*
X81855000Y-94197396D01*
X81908609Y-94466907D01*
X82013767Y-94720780D01*
X82166433Y-94949261D01*
X82360739Y-95143567D01*
X82589220Y-95296233D01*
X82670740Y-95330000D01*
X82589220Y-95363767D01*
X82360739Y-95516433D01*
X82166433Y-95710739D01*
X82013767Y-95939220D01*
X81908609Y-96193093D01*
X81855000Y-96462604D01*
X81855000Y-96737396D01*
X81908609Y-97006907D01*
X82013767Y-97260780D01*
X82166433Y-97489261D01*
X82360739Y-97683567D01*
X82589220Y-97836233D01*
X82670740Y-97870000D01*
X82589220Y-97903767D01*
X82360739Y-98056433D01*
X82166433Y-98250739D01*
X82013767Y-98479220D01*
X81908609Y-98733093D01*
X81855000Y-99002604D01*
X81855000Y-99277396D01*
X81908609Y-99546907D01*
X82013767Y-99800780D01*
X82166433Y-100029261D01*
X82360739Y-100223567D01*
X82589220Y-100376233D01*
X82843093Y-100481391D01*
X83112604Y-100535000D01*
X83387396Y-100535000D01*
X83656907Y-100481391D01*
X83910780Y-100376233D01*
X84139261Y-100223567D01*
X84333567Y-100029261D01*
X84486233Y-99800780D01*
X84591391Y-99546907D01*
X84645000Y-99277396D01*
X84645000Y-99002604D01*
X84591391Y-98733093D01*
X84486233Y-98479220D01*
X84333567Y-98250739D01*
X84139261Y-98056433D01*
X83910780Y-97903767D01*
X83829260Y-97870000D01*
X83910780Y-97836233D01*
X84125736Y-97692604D01*
X86420000Y-97692604D01*
X86420000Y-97967396D01*
X86473609Y-98236907D01*
X86578767Y-98490780D01*
X86731433Y-98719261D01*
X86925739Y-98913567D01*
X87154220Y-99066233D01*
X87235740Y-99100000D01*
X87154220Y-99133767D01*
X86925739Y-99286433D01*
X86731433Y-99480739D01*
X86578767Y-99709220D01*
X86473609Y-99963093D01*
X86420000Y-100232604D01*
X86420000Y-100507396D01*
X86473609Y-100776907D01*
X86578767Y-101030780D01*
X86731433Y-101259261D01*
X86925739Y-101453567D01*
X87154220Y-101606233D01*
X87408093Y-101711391D01*
X87677604Y-101765000D01*
X87952396Y-101765000D01*
X88221907Y-101711391D01*
X88475780Y-101606233D01*
X88704261Y-101453567D01*
X88898567Y-101259261D01*
X89051233Y-101030780D01*
X89085000Y-100949260D01*
X89118767Y-101030780D01*
X89271433Y-101259261D01*
X89465739Y-101453567D01*
X89694220Y-101606233D01*
X89948093Y-101711391D01*
X90217604Y-101765000D01*
X90492396Y-101765000D01*
X90761907Y-101711391D01*
X91015780Y-101606233D01*
X91244261Y-101453567D01*
X91438567Y-101259261D01*
X91591233Y-101030780D01*
X91625000Y-100949260D01*
X91658767Y-101030780D01*
X91811433Y-101259261D01*
X92005739Y-101453567D01*
X92234220Y-101606233D01*
X92488093Y-101711391D01*
X92757604Y-101765000D01*
X93032396Y-101765000D01*
X93301907Y-101711391D01*
X93555780Y-101606233D01*
X93784261Y-101453567D01*
X93978567Y-101259261D01*
X94131233Y-101030780D01*
X94165000Y-100949260D01*
X94198767Y-101030780D01*
X94351433Y-101259261D01*
X94545739Y-101453567D01*
X94774220Y-101606233D01*
X95028093Y-101711391D01*
X95297604Y-101765000D01*
X95572396Y-101765000D01*
X95841907Y-101711391D01*
X96095780Y-101606233D01*
X96324261Y-101453567D01*
X96518567Y-101259261D01*
X96671233Y-101030780D01*
X96776391Y-100776907D01*
X96830000Y-100507396D01*
X96830000Y-100232604D01*
X96776391Y-99963093D01*
X96671233Y-99709220D01*
X96518567Y-99480739D01*
X96324261Y-99286433D01*
X96095780Y-99133767D01*
X96014260Y-99100000D01*
X96095780Y-99066233D01*
X96324261Y-98913567D01*
X96518567Y-98719261D01*
X96671233Y-98490780D01*
X96776391Y-98236907D01*
X96830000Y-97967396D01*
X96830000Y-97692604D01*
X96776391Y-97423093D01*
X96671233Y-97169220D01*
X96518567Y-96940739D01*
X96324261Y-96746433D01*
X96095780Y-96593767D01*
X95841907Y-96488609D01*
X95572396Y-96435000D01*
X95297604Y-96435000D01*
X95028093Y-96488609D01*
X94774220Y-96593767D01*
X94545739Y-96746433D01*
X94351433Y-96940739D01*
X94198767Y-97169220D01*
X94167170Y-97245501D01*
X94160744Y-97227674D01*
X94099025Y-97112206D01*
X93859137Y-97045469D01*
X93074605Y-97830000D01*
X93859137Y-98614531D01*
X94099025Y-98547794D01*
X94164600Y-98408293D01*
X94198767Y-98490780D01*
X94351433Y-98719261D01*
X94545739Y-98913567D01*
X94774220Y-99066233D01*
X94855740Y-99100000D01*
X94774220Y-99133767D01*
X94545739Y-99286433D01*
X94351433Y-99480739D01*
X94198767Y-99709220D01*
X94165000Y-99790740D01*
X94131233Y-99709220D01*
X93978567Y-99480739D01*
X93784261Y-99286433D01*
X93555780Y-99133767D01*
X93479499Y-99102170D01*
X93497326Y-99095744D01*
X93612794Y-99034025D01*
X93679531Y-98794137D01*
X92895000Y-98009605D01*
X92110469Y-98794137D01*
X92177206Y-99034025D01*
X92316707Y-99099600D01*
X92234220Y-99133767D01*
X92005739Y-99286433D01*
X91811433Y-99480739D01*
X91658767Y-99709220D01*
X91625000Y-99790740D01*
X91591233Y-99709220D01*
X91438567Y-99480739D01*
X91244261Y-99286433D01*
X91015780Y-99133767D01*
X90934260Y-99100000D01*
X91015780Y-99066233D01*
X91244261Y-98913567D01*
X91438567Y-98719261D01*
X91591233Y-98490780D01*
X91622830Y-98414499D01*
X91629256Y-98432326D01*
X91690975Y-98547794D01*
X91930863Y-98614531D01*
X92715395Y-97830000D01*
X91930863Y-97045469D01*
X91690975Y-97112206D01*
X91625400Y-97251707D01*
X91591233Y-97169220D01*
X91438567Y-96940739D01*
X91363691Y-96865863D01*
X92110469Y-96865863D01*
X92895000Y-97650395D01*
X93679531Y-96865863D01*
X93612794Y-96625975D01*
X93364108Y-96509076D01*
X93097394Y-96442939D01*
X92822903Y-96430105D01*
X92551183Y-96471069D01*
X92292674Y-96564256D01*
X92177206Y-96625975D01*
X92110469Y-96865863D01*
X91363691Y-96865863D01*
X91244261Y-96746433D01*
X91015780Y-96593767D01*
X90761907Y-96488609D01*
X90492396Y-96435000D01*
X90217604Y-96435000D01*
X89948093Y-96488609D01*
X89694220Y-96593767D01*
X89465739Y-96746433D01*
X89271433Y-96940739D01*
X89118767Y-97169220D01*
X89085000Y-97250740D01*
X89051233Y-97169220D01*
X88898567Y-96940739D01*
X88704261Y-96746433D01*
X88475780Y-96593767D01*
X88221907Y-96488609D01*
X87952396Y-96435000D01*
X87677604Y-96435000D01*
X87408093Y-96488609D01*
X87154220Y-96593767D01*
X86925739Y-96746433D01*
X86731433Y-96940739D01*
X86578767Y-97169220D01*
X86473609Y-97423093D01*
X86420000Y-97692604D01*
X84125736Y-97692604D01*
X84139261Y-97683567D01*
X84333567Y-97489261D01*
X84486233Y-97260780D01*
X84591391Y-97006907D01*
X84645000Y-96737396D01*
X84645000Y-96462604D01*
X84591391Y-96193093D01*
X84486233Y-95939220D01*
X84333567Y-95710739D01*
X84139261Y-95516433D01*
X83910780Y-95363767D01*
X83829260Y-95330000D01*
X83910780Y-95296233D01*
X84139261Y-95143567D01*
X84333567Y-94949261D01*
X84486233Y-94720780D01*
X84591391Y-94466907D01*
X84645000Y-94197396D01*
X84645000Y-93922604D01*
X84591391Y-93653093D01*
X84486233Y-93399220D01*
X84333567Y-93170739D01*
X84139261Y-92976433D01*
X83910780Y-92823767D01*
X83829260Y-92790000D01*
X83910780Y-92756233D01*
X84139261Y-92603567D01*
X84333567Y-92409261D01*
X84486233Y-92180780D01*
X84591391Y-91926907D01*
X84645000Y-91657396D01*
X84645000Y-91382604D01*
X97335000Y-91382604D01*
X97335000Y-91657396D01*
X97388609Y-91926907D01*
X97493767Y-92180780D01*
X97646433Y-92409261D01*
X97840739Y-92603567D01*
X98069220Y-92756233D01*
X98323093Y-92861391D01*
X98592604Y-92915000D01*
X98867396Y-92915000D01*
X99136907Y-92861391D01*
X99390780Y-92756233D01*
X99619261Y-92603567D01*
X99813567Y-92409261D01*
X99966233Y-92180780D01*
X100000000Y-92099260D01*
X100033767Y-92180780D01*
X100186433Y-92409261D01*
X100380739Y-92603567D01*
X100609220Y-92756233D01*
X100863093Y-92861391D01*
X101132604Y-92915000D01*
X101407396Y-92915000D01*
X101676907Y-92861391D01*
X101930780Y-92756233D01*
X102159261Y-92603567D01*
X102353567Y-92409261D01*
X102506233Y-92180780D01*
X102611391Y-91926907D01*
X102665000Y-91657396D01*
X102665000Y-91382604D01*
X102611391Y-91113093D01*
X102506233Y-90859220D01*
X102353567Y-90630739D01*
X102159261Y-90436433D01*
X101930780Y-90283767D01*
X101676907Y-90178609D01*
X101407396Y-90125000D01*
X101132604Y-90125000D01*
X100863093Y-90178609D01*
X100609220Y-90283767D01*
X100380739Y-90436433D01*
X100186433Y-90630739D01*
X100033767Y-90859220D01*
X100000000Y-90940740D01*
X99966233Y-90859220D01*
X99813567Y-90630739D01*
X99619261Y-90436433D01*
X99390780Y-90283767D01*
X99136907Y-90178609D01*
X98867396Y-90125000D01*
X98592604Y-90125000D01*
X98323093Y-90178609D01*
X98069220Y-90283767D01*
X97840739Y-90436433D01*
X97646433Y-90630739D01*
X97493767Y-90859220D01*
X97388609Y-91113093D01*
X97335000Y-91382604D01*
X84645000Y-91382604D01*
X84591391Y-91113093D01*
X84486233Y-90859220D01*
X84333567Y-90630739D01*
X84139261Y-90436433D01*
X83910780Y-90283767D01*
X83656907Y-90178609D01*
X83387396Y-90125000D01*
X83112604Y-90125000D01*
X82843093Y-90178609D01*
X82589220Y-90283767D01*
X82360739Y-90436433D01*
X82166433Y-90630739D01*
X82013767Y-90859220D01*
X81908609Y-91113093D01*
X81855000Y-91382604D01*
X69640051Y-91382604D01*
X69608931Y-91176183D01*
X69515744Y-90917674D01*
X69454025Y-90802206D01*
X69214137Y-90735469D01*
X68429605Y-91520000D01*
X68070395Y-91520000D01*
X67285863Y-90735469D01*
X67045975Y-90802206D01*
X66929076Y-91050892D01*
X66862939Y-91317606D01*
X66850105Y-91592097D01*
X65660000Y-91592097D01*
X65660000Y-90555863D01*
X67465469Y-90555863D01*
X68250000Y-91340395D01*
X69034531Y-90555863D01*
X68967794Y-90315975D01*
X68719108Y-90199076D01*
X68452394Y-90132939D01*
X68177903Y-90120105D01*
X67906183Y-90161069D01*
X67647674Y-90254256D01*
X67532206Y-90315975D01*
X67465469Y-90555863D01*
X65660000Y-90555863D01*
X65660000Y-89245341D01*
X65670542Y-89108297D01*
X65670542Y-89108295D01*
X65674251Y-89060074D01*
X65686046Y-89008963D01*
X65708506Y-88941582D01*
X65740486Y-88864832D01*
X65775096Y-88795612D01*
X65807661Y-88744439D01*
X65853404Y-88687261D01*
X65907337Y-88627335D01*
X65967271Y-88573394D01*
X66024437Y-88527662D01*
X66075612Y-88495096D01*
X66144832Y-88460486D01*
X66221585Y-88428505D01*
X66288964Y-88406046D01*
X66340074Y-88394251D01*
X66388295Y-88390542D01*
X66388296Y-88390542D01*
X66525341Y-88380000D01*
X103474659Y-88380000D01*
X103611703Y-88390542D01*
%TA.AperFunction,Conductor*%
D14*
G36*
X103611703Y-88390542D02*
G01*
X103611705Y-88390542D01*
X103659926Y-88394251D01*
X103711037Y-88406046D01*
X103778418Y-88428506D01*
X103855168Y-88460486D01*
X103924388Y-88495096D01*
X103975561Y-88527661D01*
X104032739Y-88573404D01*
X104092665Y-88627337D01*
X104146606Y-88687271D01*
X104192338Y-88744437D01*
X104224904Y-88795612D01*
X104259514Y-88864832D01*
X104291495Y-88941585D01*
X104313954Y-89008964D01*
X104325749Y-89060074D01*
X104329458Y-89108295D01*
X104329458Y-89108296D01*
X104340001Y-89245354D01*
X104340000Y-110754659D01*
X104329458Y-110891703D01*
X104325749Y-110939926D01*
X104313954Y-110991036D01*
X104291495Y-111058415D01*
X104259514Y-111135168D01*
X104224904Y-111204388D01*
X104192338Y-111255563D01*
X104146606Y-111312729D01*
X104092665Y-111372663D01*
X104032739Y-111426596D01*
X103975561Y-111472339D01*
X103924388Y-111504904D01*
X103855168Y-111539514D01*
X103778418Y-111571494D01*
X103711037Y-111593954D01*
X103659926Y-111605749D01*
X103611705Y-111609458D01*
X103611703Y-111609458D01*
X103474659Y-111620000D01*
X66525341Y-111620000D01*
X66388296Y-111609458D01*
X66388295Y-111609458D01*
X66340074Y-111605749D01*
X66288964Y-111593954D01*
X66221585Y-111571495D01*
X66144832Y-111539514D01*
X66075612Y-111504904D01*
X66024437Y-111472338D01*
X65967271Y-111426606D01*
X65907337Y-111372665D01*
X65853404Y-111312739D01*
X65807661Y-111255561D01*
X65775096Y-111204388D01*
X65740486Y-111135168D01*
X65708506Y-111058418D01*
X65686046Y-110991037D01*
X65674251Y-110939926D01*
X65670542Y-110891703D01*
X65660000Y-110754659D01*
X65660000Y-110264137D01*
X67465469Y-110264137D01*
X67532206Y-110504025D01*
X67780892Y-110620924D01*
X68047606Y-110687061D01*
X68322097Y-110699895D01*
X68593817Y-110658931D01*
X68852326Y-110565744D01*
X68967794Y-110504025D01*
X69034531Y-110264137D01*
X68250000Y-109479605D01*
X67465469Y-110264137D01*
X65660000Y-110264137D01*
X65660000Y-109372097D01*
X66850105Y-109372097D01*
X66891069Y-109643817D01*
X66984256Y-109902326D01*
X67045975Y-110017794D01*
X67285863Y-110084531D01*
X68070395Y-109300000D01*
X68429605Y-109300000D01*
X69214137Y-110084531D01*
X69454025Y-110017794D01*
X69570924Y-109769108D01*
X69637061Y-109502394D01*
X69649895Y-109227903D01*
X69608931Y-108956183D01*
X69515744Y-108697674D01*
X69454025Y-108582206D01*
X69214137Y-108515469D01*
X68429605Y-109300000D01*
X68070395Y-109300000D01*
X67285863Y-108515469D01*
X67045975Y-108582206D01*
X66929076Y-108830892D01*
X66862939Y-109097606D01*
X66850105Y-109372097D01*
X65660000Y-109372097D01*
X65660000Y-106622604D01*
X66855000Y-106622604D01*
X66855000Y-106897396D01*
X66908609Y-107166907D01*
X67013767Y-107420780D01*
X67166433Y-107649261D01*
X67360739Y-107843567D01*
X67589220Y-107996233D01*
X67665501Y-108027830D01*
X67647674Y-108034256D01*
X67532206Y-108095975D01*
X67465469Y-108335863D01*
X68250000Y-109120395D01*
X69034531Y-108335863D01*
X68967794Y-108095975D01*
X68828293Y-108030400D01*
X68910780Y-107996233D01*
X69139261Y-107843567D01*
X69333567Y-107649261D01*
X69486233Y-107420780D01*
X69591391Y-107166907D01*
X69645000Y-106897396D01*
X69645000Y-106622604D01*
X69591391Y-106353093D01*
X69486233Y-106099220D01*
X69333567Y-105870739D01*
X69139261Y-105676433D01*
X68910780Y-105523767D01*
X68656907Y-105418609D01*
X68387396Y-105365000D01*
X68112604Y-105365000D01*
X67843093Y-105418609D01*
X67589220Y-105523767D01*
X67360739Y-105676433D01*
X67166433Y-105870739D01*
X67013767Y-106099220D01*
X66908609Y-106353093D01*
X66855000Y-106622604D01*
X65660000Y-106622604D01*
X65660000Y-104082604D01*
X71855000Y-104082604D01*
X71855000Y-104357396D01*
X71908609Y-104626907D01*
X72013767Y-104880780D01*
X72166433Y-105109261D01*
X72360739Y-105303567D01*
X72589220Y-105456233D01*
X72670740Y-105490000D01*
X72589220Y-105523767D01*
X72360739Y-105676433D01*
X72166433Y-105870739D01*
X72013767Y-106099220D01*
X71908609Y-106353093D01*
X71855000Y-106622604D01*
X71855000Y-106897396D01*
X71908609Y-107166907D01*
X72013767Y-107420780D01*
X72166433Y-107649261D01*
X72360739Y-107843567D01*
X72589220Y-107996233D01*
X72670740Y-108030000D01*
X72589220Y-108063767D01*
X72360739Y-108216433D01*
X72166433Y-108410739D01*
X72013767Y-108639220D01*
X71908609Y-108893093D01*
X71855000Y-109162604D01*
X71855000Y-109437396D01*
X71908609Y-109706907D01*
X72013767Y-109960780D01*
X72166433Y-110189261D01*
X72360739Y-110383567D01*
X72589220Y-110536233D01*
X72843093Y-110641391D01*
X73112604Y-110695000D01*
X73387396Y-110695000D01*
X73656907Y-110641391D01*
X73910780Y-110536233D01*
X74139261Y-110383567D01*
X74333567Y-110189261D01*
X74486233Y-109960780D01*
X74591391Y-109706907D01*
X74645000Y-109437396D01*
X74645000Y-109162604D01*
X74591391Y-108893093D01*
X74486233Y-108639220D01*
X74333567Y-108410739D01*
X74139261Y-108216433D01*
X73910780Y-108063767D01*
X73829260Y-108030000D01*
X73910780Y-107996233D01*
X74139261Y-107843567D01*
X74333567Y-107649261D01*
X74486233Y-107420780D01*
X74591391Y-107166907D01*
X74645000Y-106897396D01*
X74645000Y-106622604D01*
X81855000Y-106622604D01*
X81855000Y-106897396D01*
X81908609Y-107166907D01*
X82013767Y-107420780D01*
X82166433Y-107649261D01*
X82360739Y-107843567D01*
X82589220Y-107996233D01*
X82670740Y-108030000D01*
X82589220Y-108063767D01*
X82360739Y-108216433D01*
X82166433Y-108410739D01*
X82013767Y-108639220D01*
X81908609Y-108893093D01*
X81855000Y-109162604D01*
X81855000Y-109437396D01*
X81908609Y-109706907D01*
X82013767Y-109960780D01*
X82166433Y-110189261D01*
X82360739Y-110383567D01*
X82589220Y-110536233D01*
X82843093Y-110641391D01*
X83112604Y-110695000D01*
X83387396Y-110695000D01*
X83656907Y-110641391D01*
X83910780Y-110536233D01*
X84139261Y-110383567D01*
X84333567Y-110189261D01*
X84486233Y-109960780D01*
X84591391Y-109706907D01*
X84645000Y-109437396D01*
X84645000Y-109162604D01*
X84591391Y-108893093D01*
X84486233Y-108639220D01*
X84333567Y-108410739D01*
X84139261Y-108216433D01*
X83910780Y-108063767D01*
X83829260Y-108030000D01*
X83910780Y-107996233D01*
X84139261Y-107843567D01*
X84333567Y-107649261D01*
X84486233Y-107420780D01*
X84591391Y-107166907D01*
X84645000Y-106897396D01*
X84645000Y-106622604D01*
X84591391Y-106353093D01*
X84486233Y-106099220D01*
X84333567Y-105870739D01*
X84139261Y-105676433D01*
X83910780Y-105523767D01*
X83656907Y-105418609D01*
X83387396Y-105365000D01*
X83112604Y-105365000D01*
X82843093Y-105418609D01*
X82589220Y-105523767D01*
X82360739Y-105676433D01*
X82166433Y-105870739D01*
X82013767Y-106099220D01*
X81908609Y-106353093D01*
X81855000Y-106622604D01*
X74645000Y-106622604D01*
X74591391Y-106353093D01*
X74486233Y-106099220D01*
X74333567Y-105870739D01*
X74139261Y-105676433D01*
X73910780Y-105523767D01*
X73829260Y-105490000D01*
X73910780Y-105456233D01*
X74139261Y-105303567D01*
X74333567Y-105109261D01*
X74486233Y-104880780D01*
X74591391Y-104626907D01*
X74645000Y-104357396D01*
X74645000Y-104082604D01*
X74591391Y-103813093D01*
X74486233Y-103559220D01*
X74333567Y-103330739D01*
X74139261Y-103136433D01*
X73910780Y-102983767D01*
X73834499Y-102952170D01*
X73852326Y-102945744D01*
X73967794Y-102884025D01*
X74034531Y-102644137D01*
X73250000Y-101859605D01*
X72465469Y-102644137D01*
X72532206Y-102884025D01*
X72671707Y-102949600D01*
X72589220Y-102983767D01*
X72360739Y-103136433D01*
X72166433Y-103330739D01*
X72013767Y-103559220D01*
X71908609Y-103813093D01*
X71855000Y-104082604D01*
X65660000Y-104082604D01*
X65660000Y-101752097D01*
X71850105Y-101752097D01*
X71891069Y-102023817D01*
X71984256Y-102282326D01*
X72045975Y-102397794D01*
X72285863Y-102464531D01*
X73070395Y-101680000D01*
X73429605Y-101680000D01*
X74214137Y-102464531D01*
X74454025Y-102397794D01*
X74570924Y-102149108D01*
X74637061Y-101882394D01*
X74649895Y-101607903D01*
X74608931Y-101336183D01*
X74515744Y-101077674D01*
X74454025Y-100962206D01*
X74214137Y-100895469D01*
X73429605Y-101680000D01*
X73070395Y-101680000D01*
X72285863Y-100895469D01*
X72045975Y-100962206D01*
X71929076Y-101210892D01*
X71862939Y-101477606D01*
X71850105Y-101752097D01*
X65660000Y-101752097D01*
X65660000Y-96462604D01*
X71855000Y-96462604D01*
X71855000Y-96737396D01*
X71908609Y-97006907D01*
X72013767Y-97260780D01*
X72166433Y-97489261D01*
X72360739Y-97683567D01*
X72589220Y-97836233D01*
X72670740Y-97870000D01*
X72589220Y-97903767D01*
X72360739Y-98056433D01*
X72166433Y-98250739D01*
X72013767Y-98479220D01*
X71908609Y-98733093D01*
X71855000Y-99002604D01*
X71855000Y-99277396D01*
X71908609Y-99546907D01*
X72013767Y-99800780D01*
X72166433Y-100029261D01*
X72360739Y-100223567D01*
X72589220Y-100376233D01*
X72665501Y-100407830D01*
X72647674Y-100414256D01*
X72532206Y-100475975D01*
X72465469Y-100715863D01*
X73250000Y-101500395D01*
X74034531Y-100715863D01*
X73967794Y-100475975D01*
X73828293Y-100410400D01*
X73910780Y-100376233D01*
X74139261Y-100223567D01*
X74333567Y-100029261D01*
X74486233Y-99800780D01*
X74591391Y-99546907D01*
X74645000Y-99277396D01*
X74645000Y-99002604D01*
X74591391Y-98733093D01*
X74486233Y-98479220D01*
X74333567Y-98250739D01*
X74139261Y-98056433D01*
X73910780Y-97903767D01*
X73829260Y-97870000D01*
X73910780Y-97836233D01*
X74139261Y-97683567D01*
X74333567Y-97489261D01*
X74486233Y-97260780D01*
X74591391Y-97006907D01*
X74645000Y-96737396D01*
X74645000Y-96462604D01*
X74591391Y-96193093D01*
X74486233Y-95939220D01*
X74333567Y-95710739D01*
X74139261Y-95516433D01*
X73910780Y-95363767D01*
X73656907Y-95258609D01*
X73387396Y-95205000D01*
X73112604Y-95205000D01*
X72843093Y-95258609D01*
X72589220Y-95363767D01*
X72360739Y-95516433D01*
X72166433Y-95710739D01*
X72013767Y-95939220D01*
X71908609Y-96193093D01*
X71855000Y-96462604D01*
X65660000Y-96462604D01*
X65660000Y-95024137D01*
X67465469Y-95024137D01*
X67532206Y-95264025D01*
X67780892Y-95380924D01*
X68047606Y-95447061D01*
X68322097Y-95459895D01*
X68593817Y-95418931D01*
X68852326Y-95325744D01*
X68967794Y-95264025D01*
X69034531Y-95024137D01*
X68250000Y-94239605D01*
X67465469Y-95024137D01*
X65660000Y-95024137D01*
X65660000Y-94132097D01*
X66850105Y-94132097D01*
X66891069Y-94403817D01*
X66984256Y-94662326D01*
X67045975Y-94777794D01*
X67285863Y-94844531D01*
X68070395Y-94060000D01*
X68429605Y-94060000D01*
X69214137Y-94844531D01*
X69454025Y-94777794D01*
X69570924Y-94529108D01*
X69637061Y-94262394D01*
X69649895Y-93987903D01*
X69608931Y-93716183D01*
X69515744Y-93457674D01*
X69454025Y-93342206D01*
X69214137Y-93275469D01*
X68429605Y-94060000D01*
X68070395Y-94060000D01*
X67285863Y-93275469D01*
X67045975Y-93342206D01*
X66929076Y-93590892D01*
X66862939Y-93857606D01*
X66850105Y-94132097D01*
X65660000Y-94132097D01*
X65660000Y-92484137D01*
X67465469Y-92484137D01*
X67532206Y-92724025D01*
X67666882Y-92787332D01*
X67647674Y-92794256D01*
X67532206Y-92855975D01*
X67465469Y-93095863D01*
X68250000Y-93880395D01*
X69034531Y-93095863D01*
X68967794Y-92855975D01*
X68833118Y-92792668D01*
X68852326Y-92785744D01*
X68967794Y-92724025D01*
X69034531Y-92484137D01*
X68250000Y-91699605D01*
X67465469Y-92484137D01*
X65660000Y-92484137D01*
X65660000Y-91592097D01*
X66850105Y-91592097D01*
X66891069Y-91863817D01*
X66984256Y-92122326D01*
X67045975Y-92237794D01*
X67285863Y-92304531D01*
X68070395Y-91520000D01*
X68429605Y-91520000D01*
X69214137Y-92304531D01*
X69454025Y-92237794D01*
X69570924Y-91989108D01*
X69637061Y-91722394D01*
X69649895Y-91447903D01*
X69640051Y-91382604D01*
X81855000Y-91382604D01*
X81855000Y-91657396D01*
X81908609Y-91926907D01*
X82013767Y-92180780D01*
X82166433Y-92409261D01*
X82360739Y-92603567D01*
X82589220Y-92756233D01*
X82670740Y-92790000D01*
X82589220Y-92823767D01*
X82360739Y-92976433D01*
X82166433Y-93170739D01*
X82013767Y-93399220D01*
X81908609Y-93653093D01*
X81855000Y-93922604D01*
X81855000Y-94197396D01*
X81908609Y-94466907D01*
X82013767Y-94720780D01*
X82166433Y-94949261D01*
X82360739Y-95143567D01*
X82589220Y-95296233D01*
X82670740Y-95330000D01*
X82589220Y-95363767D01*
X82360739Y-95516433D01*
X82166433Y-95710739D01*
X82013767Y-95939220D01*
X81908609Y-96193093D01*
X81855000Y-96462604D01*
X81855000Y-96737396D01*
X81908609Y-97006907D01*
X82013767Y-97260780D01*
X82166433Y-97489261D01*
X82360739Y-97683567D01*
X82589220Y-97836233D01*
X82670740Y-97870000D01*
X82589220Y-97903767D01*
X82360739Y-98056433D01*
X82166433Y-98250739D01*
X82013767Y-98479220D01*
X81908609Y-98733093D01*
X81855000Y-99002604D01*
X81855000Y-99277396D01*
X81908609Y-99546907D01*
X82013767Y-99800780D01*
X82166433Y-100029261D01*
X82360739Y-100223567D01*
X82589220Y-100376233D01*
X82843093Y-100481391D01*
X83112604Y-100535000D01*
X83387396Y-100535000D01*
X83656907Y-100481391D01*
X83910780Y-100376233D01*
X84139261Y-100223567D01*
X84333567Y-100029261D01*
X84486233Y-99800780D01*
X84591391Y-99546907D01*
X84645000Y-99277396D01*
X84645000Y-99002604D01*
X84591391Y-98733093D01*
X84486233Y-98479220D01*
X84333567Y-98250739D01*
X84139261Y-98056433D01*
X83910780Y-97903767D01*
X83829260Y-97870000D01*
X83910780Y-97836233D01*
X84125736Y-97692604D01*
X86420000Y-97692604D01*
X86420000Y-97967396D01*
X86473609Y-98236907D01*
X86578767Y-98490780D01*
X86731433Y-98719261D01*
X86925739Y-98913567D01*
X87154220Y-99066233D01*
X87235740Y-99100000D01*
X87154220Y-99133767D01*
X86925739Y-99286433D01*
X86731433Y-99480739D01*
X86578767Y-99709220D01*
X86473609Y-99963093D01*
X86420000Y-100232604D01*
X86420000Y-100507396D01*
X86473609Y-100776907D01*
X86578767Y-101030780D01*
X86731433Y-101259261D01*
X86925739Y-101453567D01*
X87154220Y-101606233D01*
X87408093Y-101711391D01*
X87677604Y-101765000D01*
X87952396Y-101765000D01*
X88221907Y-101711391D01*
X88475780Y-101606233D01*
X88704261Y-101453567D01*
X88898567Y-101259261D01*
X89051233Y-101030780D01*
X89085000Y-100949260D01*
X89118767Y-101030780D01*
X89271433Y-101259261D01*
X89465739Y-101453567D01*
X89694220Y-101606233D01*
X89948093Y-101711391D01*
X90217604Y-101765000D01*
X90492396Y-101765000D01*
X90761907Y-101711391D01*
X91015780Y-101606233D01*
X91244261Y-101453567D01*
X91438567Y-101259261D01*
X91591233Y-101030780D01*
X91625000Y-100949260D01*
X91658767Y-101030780D01*
X91811433Y-101259261D01*
X92005739Y-101453567D01*
X92234220Y-101606233D01*
X92488093Y-101711391D01*
X92757604Y-101765000D01*
X93032396Y-101765000D01*
X93301907Y-101711391D01*
X93555780Y-101606233D01*
X93784261Y-101453567D01*
X93978567Y-101259261D01*
X94131233Y-101030780D01*
X94165000Y-100949260D01*
X94198767Y-101030780D01*
X94351433Y-101259261D01*
X94545739Y-101453567D01*
X94774220Y-101606233D01*
X95028093Y-101711391D01*
X95297604Y-101765000D01*
X95572396Y-101765000D01*
X95841907Y-101711391D01*
X96095780Y-101606233D01*
X96324261Y-101453567D01*
X96518567Y-101259261D01*
X96671233Y-101030780D01*
X96776391Y-100776907D01*
X96830000Y-100507396D01*
X96830000Y-100232604D01*
X96776391Y-99963093D01*
X96671233Y-99709220D01*
X96518567Y-99480739D01*
X96324261Y-99286433D01*
X96095780Y-99133767D01*
X96014260Y-99100000D01*
X96095780Y-99066233D01*
X96324261Y-98913567D01*
X96518567Y-98719261D01*
X96671233Y-98490780D01*
X96776391Y-98236907D01*
X96830000Y-97967396D01*
X96830000Y-97692604D01*
X96776391Y-97423093D01*
X96671233Y-97169220D01*
X96518567Y-96940739D01*
X96324261Y-96746433D01*
X96095780Y-96593767D01*
X95841907Y-96488609D01*
X95572396Y-96435000D01*
X95297604Y-96435000D01*
X95028093Y-96488609D01*
X94774220Y-96593767D01*
X94545739Y-96746433D01*
X94351433Y-96940739D01*
X94198767Y-97169220D01*
X94167170Y-97245501D01*
X94160744Y-97227674D01*
X94099025Y-97112206D01*
X93859137Y-97045469D01*
X93074605Y-97830000D01*
X93859137Y-98614531D01*
X94099025Y-98547794D01*
X94164600Y-98408293D01*
X94198767Y-98490780D01*
X94351433Y-98719261D01*
X94545739Y-98913567D01*
X94774220Y-99066233D01*
X94855740Y-99100000D01*
X94774220Y-99133767D01*
X94545739Y-99286433D01*
X94351433Y-99480739D01*
X94198767Y-99709220D01*
X94165000Y-99790740D01*
X94131233Y-99709220D01*
X93978567Y-99480739D01*
X93784261Y-99286433D01*
X93555780Y-99133767D01*
X93479499Y-99102170D01*
X93497326Y-99095744D01*
X93612794Y-99034025D01*
X93679531Y-98794137D01*
X92895000Y-98009605D01*
X92110469Y-98794137D01*
X92177206Y-99034025D01*
X92316707Y-99099600D01*
X92234220Y-99133767D01*
X92005739Y-99286433D01*
X91811433Y-99480739D01*
X91658767Y-99709220D01*
X91625000Y-99790740D01*
X91591233Y-99709220D01*
X91438567Y-99480739D01*
X91244261Y-99286433D01*
X91015780Y-99133767D01*
X90934260Y-99100000D01*
X91015780Y-99066233D01*
X91244261Y-98913567D01*
X91438567Y-98719261D01*
X91591233Y-98490780D01*
X91622830Y-98414499D01*
X91629256Y-98432326D01*
X91690975Y-98547794D01*
X91930863Y-98614531D01*
X92715395Y-97830000D01*
X91930863Y-97045469D01*
X91690975Y-97112206D01*
X91625400Y-97251707D01*
X91591233Y-97169220D01*
X91438567Y-96940739D01*
X91363691Y-96865863D01*
X92110469Y-96865863D01*
X92895000Y-97650395D01*
X93679531Y-96865863D01*
X93612794Y-96625975D01*
X93364108Y-96509076D01*
X93097394Y-96442939D01*
X92822903Y-96430105D01*
X92551183Y-96471069D01*
X92292674Y-96564256D01*
X92177206Y-96625975D01*
X92110469Y-96865863D01*
X91363691Y-96865863D01*
X91244261Y-96746433D01*
X91015780Y-96593767D01*
X90761907Y-96488609D01*
X90492396Y-96435000D01*
X90217604Y-96435000D01*
X89948093Y-96488609D01*
X89694220Y-96593767D01*
X89465739Y-96746433D01*
X89271433Y-96940739D01*
X89118767Y-97169220D01*
X89085000Y-97250740D01*
X89051233Y-97169220D01*
X88898567Y-96940739D01*
X88704261Y-96746433D01*
X88475780Y-96593767D01*
X88221907Y-96488609D01*
X87952396Y-96435000D01*
X87677604Y-96435000D01*
X87408093Y-96488609D01*
X87154220Y-96593767D01*
X86925739Y-96746433D01*
X86731433Y-96940739D01*
X86578767Y-97169220D01*
X86473609Y-97423093D01*
X86420000Y-97692604D01*
X84125736Y-97692604D01*
X84139261Y-97683567D01*
X84333567Y-97489261D01*
X84486233Y-97260780D01*
X84591391Y-97006907D01*
X84645000Y-96737396D01*
X84645000Y-96462604D01*
X84591391Y-96193093D01*
X84486233Y-95939220D01*
X84333567Y-95710739D01*
X84139261Y-95516433D01*
X83910780Y-95363767D01*
X83829260Y-95330000D01*
X83910780Y-95296233D01*
X84139261Y-95143567D01*
X84333567Y-94949261D01*
X84486233Y-94720780D01*
X84591391Y-94466907D01*
X84645000Y-94197396D01*
X84645000Y-93922604D01*
X84591391Y-93653093D01*
X84486233Y-93399220D01*
X84333567Y-93170739D01*
X84139261Y-92976433D01*
X83910780Y-92823767D01*
X83829260Y-92790000D01*
X83910780Y-92756233D01*
X84139261Y-92603567D01*
X84333567Y-92409261D01*
X84486233Y-92180780D01*
X84591391Y-91926907D01*
X84645000Y-91657396D01*
X84645000Y-91382604D01*
X97335000Y-91382604D01*
X97335000Y-91657396D01*
X97388609Y-91926907D01*
X97493767Y-92180780D01*
X97646433Y-92409261D01*
X97840739Y-92603567D01*
X98069220Y-92756233D01*
X98323093Y-92861391D01*
X98592604Y-92915000D01*
X98867396Y-92915000D01*
X99136907Y-92861391D01*
X99390780Y-92756233D01*
X99619261Y-92603567D01*
X99813567Y-92409261D01*
X99966233Y-92180780D01*
X100000000Y-92099260D01*
X100033767Y-92180780D01*
X100186433Y-92409261D01*
X100380739Y-92603567D01*
X100609220Y-92756233D01*
X100863093Y-92861391D01*
X101132604Y-92915000D01*
X101407396Y-92915000D01*
X101676907Y-92861391D01*
X101930780Y-92756233D01*
X102159261Y-92603567D01*
X102353567Y-92409261D01*
X102506233Y-92180780D01*
X102611391Y-91926907D01*
X102665000Y-91657396D01*
X102665000Y-91382604D01*
X102611391Y-91113093D01*
X102506233Y-90859220D01*
X102353567Y-90630739D01*
X102159261Y-90436433D01*
X101930780Y-90283767D01*
X101676907Y-90178609D01*
X101407396Y-90125000D01*
X101132604Y-90125000D01*
X100863093Y-90178609D01*
X100609220Y-90283767D01*
X100380739Y-90436433D01*
X100186433Y-90630739D01*
X100033767Y-90859220D01*
X100000000Y-90940740D01*
X99966233Y-90859220D01*
X99813567Y-90630739D01*
X99619261Y-90436433D01*
X99390780Y-90283767D01*
X99136907Y-90178609D01*
X98867396Y-90125000D01*
X98592604Y-90125000D01*
X98323093Y-90178609D01*
X98069220Y-90283767D01*
X97840739Y-90436433D01*
X97646433Y-90630739D01*
X97493767Y-90859220D01*
X97388609Y-91113093D01*
X97335000Y-91382604D01*
X84645000Y-91382604D01*
X84591391Y-91113093D01*
X84486233Y-90859220D01*
X84333567Y-90630739D01*
X84139261Y-90436433D01*
X83910780Y-90283767D01*
X83656907Y-90178609D01*
X83387396Y-90125000D01*
X83112604Y-90125000D01*
X82843093Y-90178609D01*
X82589220Y-90283767D01*
X82360739Y-90436433D01*
X82166433Y-90630739D01*
X82013767Y-90859220D01*
X81908609Y-91113093D01*
X81855000Y-91382604D01*
X69640051Y-91382604D01*
X69608931Y-91176183D01*
X69515744Y-90917674D01*
X69454025Y-90802206D01*
X69214137Y-90735469D01*
X68429605Y-91520000D01*
X68070395Y-91520000D01*
X67285863Y-90735469D01*
X67045975Y-90802206D01*
X66929076Y-91050892D01*
X66862939Y-91317606D01*
X66850105Y-91592097D01*
X65660000Y-91592097D01*
X65660000Y-90555863D01*
X67465469Y-90555863D01*
X68250000Y-91340395D01*
X69034531Y-90555863D01*
X68967794Y-90315975D01*
X68719108Y-90199076D01*
X68452394Y-90132939D01*
X68177903Y-90120105D01*
X67906183Y-90161069D01*
X67647674Y-90254256D01*
X67532206Y-90315975D01*
X67465469Y-90555863D01*
X65660000Y-90555863D01*
X65660000Y-89245341D01*
X65670542Y-89108297D01*
X65670542Y-89108295D01*
X65674251Y-89060074D01*
X65686046Y-89008963D01*
X65708506Y-88941582D01*
X65740486Y-88864832D01*
X65775096Y-88795612D01*
X65807661Y-88744439D01*
X65853404Y-88687261D01*
X65907337Y-88627335D01*
X65967271Y-88573394D01*
X66024437Y-88527662D01*
X66075612Y-88495096D01*
X66144832Y-88460486D01*
X66221585Y-88428505D01*
X66288964Y-88406046D01*
X66340074Y-88394251D01*
X66388295Y-88390542D01*
X66388296Y-88390542D01*
X66525341Y-88380000D01*
X103474659Y-88380000D01*
X103611703Y-88390542D01*
G37*
%TD.AperFunction*%
%TD*%
M02*
