%TF.GenerationSoftware,KiCad,Pcbnew,5.1.9-73d0e3b20d~88~ubuntu20.04.1*%
%TF.CreationDate,2020-12-26T20:54:25-08:00*%
%TF.ProjectId,st_adapter,73745f61-6461-4707-9465-722e6b696361,A*%
%TF.SameCoordinates,Original*%
%TF.FileFunction,Profile,NP*%
%FSLAX46Y46*%
G04 Gerber Fmt 4.6, Leading zero omitted, Abs format (unit mm)*
G04 Created by KiCad (PCBNEW 5.1.9-73d0e3b20d~88~ubuntu20.04.1) date 2020-12-26 20:54:25*
%MOMM*%
%LPD*%
G01*
G04 APERTURE LIST*
%TA.AperFunction,Profile*%
%ADD10C,0.050000*%
%TD*%
G04 APERTURE END LIST*
D10*
X105000000Y-89220000D02*
X104990000Y-89090000D01*
X104990000Y-89090000D02*
X104980000Y-88960000D01*
X104980000Y-88960000D02*
X104950000Y-88830000D01*
X104950000Y-88830000D02*
X104910000Y-88710000D01*
X104910000Y-88710000D02*
X104860000Y-88590000D01*
X104860000Y-88590000D02*
X104800000Y-88470000D01*
X104800000Y-88470000D02*
X104730000Y-88360000D01*
X104730000Y-88360000D02*
X104650000Y-88260000D01*
X104650000Y-88260000D02*
X104560000Y-88160000D01*
X104560000Y-88160000D02*
X104460000Y-88070000D01*
X104460000Y-88070000D02*
X104360000Y-87990000D01*
X104360000Y-87990000D02*
X104250000Y-87920000D01*
X104250000Y-87920000D02*
X104130000Y-87860000D01*
X104130000Y-87860000D02*
X104010000Y-87810000D01*
X104010000Y-87810000D02*
X103890000Y-87770000D01*
X103890000Y-87770000D02*
X103760000Y-87740000D01*
X103760000Y-87740000D02*
X103630000Y-87730000D01*
X103630000Y-87730000D02*
X103500000Y-87720000D01*
X103500000Y-87720000D02*
X66500000Y-87720000D01*
X66500000Y-87720000D02*
X66370000Y-87730000D01*
X66370000Y-87730000D02*
X66240000Y-87740000D01*
X66240000Y-87740000D02*
X66110000Y-87770000D01*
X66110000Y-87770000D02*
X65990000Y-87810000D01*
X65990000Y-87810000D02*
X65870000Y-87860000D01*
X65870000Y-87860000D02*
X65750000Y-87920000D01*
X65750000Y-87920000D02*
X65640000Y-87990000D01*
X65640000Y-87990000D02*
X65540000Y-88070000D01*
X65540000Y-88070000D02*
X65440000Y-88160000D01*
X65440000Y-88160000D02*
X65350000Y-88260000D01*
X65350000Y-88260000D02*
X65270000Y-88360000D01*
X65270000Y-88360000D02*
X65200000Y-88470000D01*
X65200000Y-88470000D02*
X65140000Y-88590000D01*
X65140000Y-88590000D02*
X65090000Y-88710000D01*
X65090000Y-88710000D02*
X65050000Y-88830000D01*
X65050000Y-88830000D02*
X65020000Y-88960000D01*
X65020000Y-88960000D02*
X65010000Y-89090000D01*
X65010000Y-89090000D02*
X65000000Y-89220000D01*
X65000000Y-89220000D02*
X65000000Y-110780000D01*
X65000000Y-110780000D02*
X65010000Y-110910000D01*
X65010000Y-110910000D02*
X65020000Y-111040000D01*
X65020000Y-111040000D02*
X65050000Y-111170000D01*
X65050000Y-111170000D02*
X65090000Y-111290000D01*
X65090000Y-111290000D02*
X65140000Y-111410000D01*
X65140000Y-111410000D02*
X65200000Y-111530000D01*
X65200000Y-111530000D02*
X65270000Y-111640000D01*
X65270000Y-111640000D02*
X65350000Y-111740000D01*
X65350000Y-111740000D02*
X65440000Y-111840000D01*
X65440000Y-111840000D02*
X65540000Y-111930000D01*
X65540000Y-111930000D02*
X65640000Y-112010000D01*
X65640000Y-112010000D02*
X65750000Y-112080000D01*
X65750000Y-112080000D02*
X65870000Y-112140000D01*
X65870000Y-112140000D02*
X65990000Y-112190000D01*
X65990000Y-112190000D02*
X66110000Y-112230000D01*
X66110000Y-112230000D02*
X66240000Y-112260000D01*
X66240000Y-112260000D02*
X66370000Y-112270000D01*
X66370000Y-112270000D02*
X66500000Y-112280000D01*
X66500000Y-112280000D02*
X103500000Y-112280000D01*
X103500000Y-112280000D02*
X103630000Y-112270000D01*
X103630000Y-112270000D02*
X103760000Y-112260000D01*
X103760000Y-112260000D02*
X103890000Y-112230000D01*
X103890000Y-112230000D02*
X104010000Y-112190000D01*
X104010000Y-112190000D02*
X104130000Y-112140000D01*
X104130000Y-112140000D02*
X104250000Y-112080000D01*
X104250000Y-112080000D02*
X104360000Y-112010000D01*
X104360000Y-112010000D02*
X104460000Y-111930000D01*
X104460000Y-111930000D02*
X104560000Y-111840000D01*
X104560000Y-111840000D02*
X104650000Y-111740000D01*
X104650000Y-111740000D02*
X104730000Y-111640000D01*
X104730000Y-111640000D02*
X104800000Y-111530000D01*
X104800000Y-111530000D02*
X104860000Y-111410000D01*
X104860000Y-111410000D02*
X104910000Y-111290000D01*
X104910000Y-111290000D02*
X104950000Y-111170000D01*
X104950000Y-111170000D02*
X104980000Y-111040000D01*
X104980000Y-111040000D02*
X104990000Y-110910000D01*
X104990000Y-110910000D02*
X105000000Y-110780000D01*
X105000000Y-110780000D02*
X105000000Y-89220000D01*
M02*
