%TF.GenerationSoftware,KiCad,Pcbnew,5.1.9-73d0e3b20d~88~ubuntu20.04.1*%
%TF.CreationDate,2020-12-26T20:54:25-08:00*%
%TF.ProjectId,st_adapter,73745f61-6461-4707-9465-722e6b696361,A*%
%TF.SameCoordinates,Original*%
%TF.FileFunction,Legend,Bot*%
%TF.FilePolarity,Positive*%
%FSLAX46Y46*%
G04 Gerber Fmt 4.6, Leading zero omitted, Abs format (unit mm)*
G04 Created by KiCad (PCBNEW 5.1.9-73d0e3b20d~88~ubuntu20.04.1) date 2020-12-26 20:54:25*
%MOMM*%
%LPD*%
G01*
G04 APERTURE LIST*
%ADD10C,0.150000*%
%ADD11C,0.200000*%
G04 APERTURE END LIST*
D10*
X102593928Y-102312785D02*
X102593928Y-101562785D01*
X102593928Y-101919928D02*
X102165357Y-101919928D01*
X102165357Y-102312785D02*
X102165357Y-101562785D01*
X101379642Y-102312785D02*
X101629642Y-101955642D01*
X101808214Y-102312785D02*
X101808214Y-101562785D01*
X101522500Y-101562785D01*
X101451071Y-101598500D01*
X101415357Y-101634214D01*
X101379642Y-101705642D01*
X101379642Y-101812785D01*
X101415357Y-101884214D01*
X101451071Y-101919928D01*
X101522500Y-101955642D01*
X101808214Y-101955642D01*
X101093928Y-101634214D02*
X101058214Y-101598500D01*
X100986785Y-101562785D01*
X100808214Y-101562785D01*
X100736785Y-101598500D01*
X100701071Y-101634214D01*
X100665357Y-101705642D01*
X100665357Y-101777071D01*
X100701071Y-101884214D01*
X101129642Y-102312785D01*
X100665357Y-102312785D01*
X99808214Y-102277071D02*
X99701071Y-102312785D01*
X99522500Y-102312785D01*
X99451071Y-102277071D01*
X99415357Y-102241357D01*
X99379642Y-102169928D01*
X99379642Y-102098500D01*
X99415357Y-102027071D01*
X99451071Y-101991357D01*
X99522500Y-101955642D01*
X99665357Y-101919928D01*
X99736785Y-101884214D01*
X99772500Y-101848500D01*
X99808214Y-101777071D01*
X99808214Y-101705642D01*
X99772500Y-101634214D01*
X99736785Y-101598500D01*
X99665357Y-101562785D01*
X99486785Y-101562785D01*
X99379642Y-101598500D01*
X99165357Y-101562785D02*
X98736785Y-101562785D01*
X98951071Y-102312785D02*
X98951071Y-101562785D01*
X97951071Y-102098500D02*
X97593928Y-102098500D01*
X98022500Y-102312785D02*
X97772500Y-101562785D01*
X97522500Y-102312785D01*
X97272500Y-102312785D02*
X97272500Y-101562785D01*
X97093928Y-101562785D01*
X96986785Y-101598500D01*
X96915357Y-101669928D01*
X96879642Y-101741357D01*
X96843928Y-101884214D01*
X96843928Y-101991357D01*
X96879642Y-102134214D01*
X96915357Y-102205642D01*
X96986785Y-102277071D01*
X97093928Y-102312785D01*
X97272500Y-102312785D01*
X96558214Y-102098500D02*
X96201071Y-102098500D01*
X96629642Y-102312785D02*
X96379642Y-101562785D01*
X96129642Y-102312785D01*
X95879642Y-102312785D02*
X95879642Y-101562785D01*
X95593928Y-101562785D01*
X95522500Y-101598500D01*
X95486785Y-101634214D01*
X95451071Y-101705642D01*
X95451071Y-101812785D01*
X95486785Y-101884214D01*
X95522500Y-101919928D01*
X95593928Y-101955642D01*
X95879642Y-101955642D01*
X95236785Y-101562785D02*
X94808214Y-101562785D01*
X95022500Y-102312785D02*
X95022500Y-101562785D01*
X94558214Y-101919928D02*
X94308214Y-101919928D01*
X94201071Y-102312785D02*
X94558214Y-102312785D01*
X94558214Y-101562785D01*
X94201071Y-101562785D01*
X93451071Y-102312785D02*
X93701071Y-101955642D01*
X93879642Y-102312785D02*
X93879642Y-101562785D01*
X93593928Y-101562785D01*
X93522500Y-101598500D01*
X93486785Y-101634214D01*
X93451071Y-101705642D01*
X93451071Y-101812785D01*
X93486785Y-101884214D01*
X93522500Y-101919928D01*
X93593928Y-101955642D01*
X93879642Y-101955642D01*
X102165357Y-103516357D02*
X102201071Y-103552071D01*
X102308214Y-103587785D01*
X102379642Y-103587785D01*
X102486785Y-103552071D01*
X102558214Y-103480642D01*
X102593928Y-103409214D01*
X102629642Y-103266357D01*
X102629642Y-103159214D01*
X102593928Y-103016357D01*
X102558214Y-102944928D01*
X102486785Y-102873500D01*
X102379642Y-102837785D01*
X102308214Y-102837785D01*
X102201071Y-102873500D01*
X102165357Y-102909214D01*
X101736785Y-103587785D02*
X101808214Y-103552071D01*
X101843928Y-103516357D01*
X101879642Y-103444928D01*
X101879642Y-103230642D01*
X101843928Y-103159214D01*
X101808214Y-103123500D01*
X101736785Y-103087785D01*
X101629642Y-103087785D01*
X101558214Y-103123500D01*
X101522500Y-103159214D01*
X101486785Y-103230642D01*
X101486785Y-103444928D01*
X101522500Y-103516357D01*
X101558214Y-103552071D01*
X101629642Y-103587785D01*
X101736785Y-103587785D01*
X101165357Y-103087785D02*
X101165357Y-103837785D01*
X101165357Y-103123500D02*
X101093928Y-103087785D01*
X100951071Y-103087785D01*
X100879642Y-103123500D01*
X100843928Y-103159214D01*
X100808214Y-103230642D01*
X100808214Y-103444928D01*
X100843928Y-103516357D01*
X100879642Y-103552071D01*
X100951071Y-103587785D01*
X101093928Y-103587785D01*
X101165357Y-103552071D01*
X100558214Y-103087785D02*
X100379642Y-103587785D01*
X100201071Y-103087785D02*
X100379642Y-103587785D01*
X100451071Y-103766357D01*
X100486785Y-103802071D01*
X100558214Y-103837785D01*
X99915357Y-103587785D02*
X99915357Y-103087785D01*
X99915357Y-103230642D02*
X99879642Y-103159214D01*
X99843928Y-103123500D01*
X99772500Y-103087785D01*
X99701071Y-103087785D01*
X99451071Y-103587785D02*
X99451071Y-103087785D01*
X99451071Y-102837785D02*
X99486785Y-102873500D01*
X99451071Y-102909214D01*
X99415357Y-102873500D01*
X99451071Y-102837785D01*
X99451071Y-102909214D01*
X98772500Y-103087785D02*
X98772500Y-103694928D01*
X98808214Y-103766357D01*
X98843928Y-103802071D01*
X98915357Y-103837785D01*
X99022500Y-103837785D01*
X99093928Y-103802071D01*
X98772500Y-103552071D02*
X98843928Y-103587785D01*
X98986785Y-103587785D01*
X99058214Y-103552071D01*
X99093928Y-103516357D01*
X99129642Y-103444928D01*
X99129642Y-103230642D01*
X99093928Y-103159214D01*
X99058214Y-103123500D01*
X98986785Y-103087785D01*
X98843928Y-103087785D01*
X98772500Y-103123500D01*
X98415357Y-103587785D02*
X98415357Y-102837785D01*
X98093928Y-103587785D02*
X98093928Y-103194928D01*
X98129642Y-103123500D01*
X98201071Y-103087785D01*
X98308214Y-103087785D01*
X98379642Y-103123500D01*
X98415357Y-103159214D01*
X97843928Y-103087785D02*
X97558214Y-103087785D01*
X97736785Y-102837785D02*
X97736785Y-103480642D01*
X97701071Y-103552071D01*
X97629642Y-103587785D01*
X97558214Y-103587785D01*
X96129642Y-103016357D02*
X96201071Y-102980642D01*
X96343928Y-102980642D01*
X96415357Y-103016357D01*
X96486785Y-103087785D01*
X96522500Y-103159214D01*
X96522500Y-103302071D01*
X96486785Y-103373500D01*
X96415357Y-103444928D01*
X96343928Y-103480642D01*
X96201071Y-103480642D01*
X96129642Y-103444928D01*
X96272500Y-102730642D02*
X96451071Y-102766357D01*
X96629642Y-102873500D01*
X96736785Y-103052071D01*
X96772500Y-103230642D01*
X96736785Y-103409214D01*
X96629642Y-103587785D01*
X96451071Y-103694928D01*
X96272500Y-103730642D01*
X96093928Y-103694928D01*
X95915357Y-103587785D01*
X95808214Y-103409214D01*
X95772500Y-103230642D01*
X95808214Y-103052071D01*
X95915357Y-102873500D01*
X96093928Y-102766357D01*
X96272500Y-102730642D01*
X94915357Y-102909214D02*
X94879642Y-102873500D01*
X94808214Y-102837785D01*
X94629642Y-102837785D01*
X94558214Y-102873500D01*
X94522500Y-102909214D01*
X94486785Y-102980642D01*
X94486785Y-103052071D01*
X94522500Y-103159214D01*
X94951071Y-103587785D01*
X94486785Y-103587785D01*
X94022500Y-102837785D02*
X93951071Y-102837785D01*
X93879642Y-102873500D01*
X93843928Y-102909214D01*
X93808214Y-102980642D01*
X93772500Y-103123500D01*
X93772500Y-103302071D01*
X93808214Y-103444928D01*
X93843928Y-103516357D01*
X93879642Y-103552071D01*
X93951071Y-103587785D01*
X94022500Y-103587785D01*
X94093928Y-103552071D01*
X94129642Y-103516357D01*
X94165357Y-103444928D01*
X94201071Y-103302071D01*
X94201071Y-103123500D01*
X94165357Y-102980642D01*
X94129642Y-102909214D01*
X94093928Y-102873500D01*
X94022500Y-102837785D01*
X93058214Y-103587785D02*
X93486785Y-103587785D01*
X93272500Y-103587785D02*
X93272500Y-102837785D01*
X93343928Y-102944928D01*
X93415357Y-103016357D01*
X93486785Y-103052071D01*
X92701071Y-103587785D02*
X92558214Y-103587785D01*
X92486785Y-103552071D01*
X92451071Y-103516357D01*
X92379642Y-103409214D01*
X92343928Y-103266357D01*
X92343928Y-102980642D01*
X92379642Y-102909214D01*
X92415357Y-102873500D01*
X92486785Y-102837785D01*
X92629642Y-102837785D01*
X92701071Y-102873500D01*
X92736785Y-102909214D01*
X92772500Y-102980642D01*
X92772500Y-103159214D01*
X92736785Y-103230642D01*
X92701071Y-103266357D01*
X92629642Y-103302071D01*
X92486785Y-103302071D01*
X92415357Y-103266357D01*
X92379642Y-103230642D01*
X92343928Y-103159214D01*
X92022500Y-103302071D02*
X91451071Y-103302071D01*
X91129642Y-102909214D02*
X91093928Y-102873500D01*
X91022500Y-102837785D01*
X90843928Y-102837785D01*
X90772500Y-102873500D01*
X90736785Y-102909214D01*
X90701071Y-102980642D01*
X90701071Y-103052071D01*
X90736785Y-103159214D01*
X91165357Y-103587785D01*
X90701071Y-103587785D01*
X90236785Y-102837785D02*
X90165357Y-102837785D01*
X90093928Y-102873500D01*
X90058214Y-102909214D01*
X90022500Y-102980642D01*
X89986785Y-103123500D01*
X89986785Y-103302071D01*
X90022500Y-103444928D01*
X90058214Y-103516357D01*
X90093928Y-103552071D01*
X90165357Y-103587785D01*
X90236785Y-103587785D01*
X90308214Y-103552071D01*
X90343928Y-103516357D01*
X90379642Y-103444928D01*
X90415357Y-103302071D01*
X90415357Y-103123500D01*
X90379642Y-102980642D01*
X90343928Y-102909214D01*
X90308214Y-102873500D01*
X90236785Y-102837785D01*
X89093928Y-103587785D02*
X89093928Y-102837785D01*
X89093928Y-103194928D02*
X88665357Y-103194928D01*
X88665357Y-103587785D02*
X88665357Y-102837785D01*
X88201071Y-103587785D02*
X88272500Y-103552071D01*
X88308214Y-103516357D01*
X88343928Y-103444928D01*
X88343928Y-103230642D01*
X88308214Y-103159214D01*
X88272500Y-103123500D01*
X88201071Y-103087785D01*
X88093928Y-103087785D01*
X88022500Y-103123500D01*
X87986785Y-103159214D01*
X87951071Y-103230642D01*
X87951071Y-103444928D01*
X87986785Y-103516357D01*
X88022500Y-103552071D01*
X88093928Y-103587785D01*
X88201071Y-103587785D01*
X87629642Y-103587785D02*
X87629642Y-103087785D01*
X87629642Y-103159214D02*
X87593928Y-103123500D01*
X87522500Y-103087785D01*
X87415357Y-103087785D01*
X87343928Y-103123500D01*
X87308214Y-103194928D01*
X87308214Y-103587785D01*
X87308214Y-103194928D02*
X87272500Y-103123500D01*
X87201071Y-103087785D01*
X87093928Y-103087785D01*
X87022500Y-103123500D01*
X86986785Y-103194928D01*
X86986785Y-103587785D01*
X86343928Y-103552071D02*
X86415357Y-103587785D01*
X86558214Y-103587785D01*
X86629642Y-103552071D01*
X86665357Y-103480642D01*
X86665357Y-103194928D01*
X86629642Y-103123500D01*
X86558214Y-103087785D01*
X86415357Y-103087785D01*
X86343928Y-103123500D01*
X86308214Y-103194928D01*
X86308214Y-103266357D01*
X86665357Y-103337785D01*
X85986785Y-103587785D02*
X85986785Y-102837785D01*
X85986785Y-103123500D02*
X85915357Y-103087785D01*
X85772500Y-103087785D01*
X85701071Y-103123500D01*
X85665357Y-103159214D01*
X85629642Y-103230642D01*
X85629642Y-103444928D01*
X85665357Y-103516357D01*
X85701071Y-103552071D01*
X85772500Y-103587785D01*
X85915357Y-103587785D01*
X85986785Y-103552071D01*
X85308214Y-103587785D02*
X85308214Y-103087785D01*
X85308214Y-103230642D02*
X85272500Y-103159214D01*
X85236785Y-103123500D01*
X85165357Y-103087785D01*
X85093928Y-103087785D01*
X84558214Y-103552071D02*
X84629642Y-103587785D01*
X84772500Y-103587785D01*
X84843928Y-103552071D01*
X84879642Y-103480642D01*
X84879642Y-103194928D01*
X84843928Y-103123500D01*
X84772500Y-103087785D01*
X84629642Y-103087785D01*
X84558214Y-103123500D01*
X84522500Y-103194928D01*
X84522500Y-103266357D01*
X84879642Y-103337785D01*
X84272500Y-103087785D02*
X84129642Y-103587785D01*
X83986785Y-103230642D01*
X83843928Y-103587785D01*
X83701071Y-103087785D01*
X82415357Y-103587785D02*
X82665357Y-103230642D01*
X82843928Y-103587785D02*
X82843928Y-102837785D01*
X82558214Y-102837785D01*
X82486785Y-102873500D01*
X82451071Y-102909214D01*
X82415357Y-102980642D01*
X82415357Y-103087785D01*
X82451071Y-103159214D01*
X82486785Y-103194928D01*
X82558214Y-103230642D01*
X82843928Y-103230642D01*
X81986785Y-103587785D02*
X82058214Y-103552071D01*
X82093928Y-103516357D01*
X82129642Y-103444928D01*
X82129642Y-103230642D01*
X82093928Y-103159214D01*
X82058214Y-103123500D01*
X81986785Y-103087785D01*
X81879642Y-103087785D01*
X81808214Y-103123500D01*
X81772500Y-103159214D01*
X81736785Y-103230642D01*
X81736785Y-103444928D01*
X81772500Y-103516357D01*
X81808214Y-103552071D01*
X81879642Y-103587785D01*
X81986785Y-103587785D01*
X81415357Y-103587785D02*
X81415357Y-102837785D01*
X81415357Y-103123500D02*
X81343928Y-103087785D01*
X81201071Y-103087785D01*
X81129642Y-103123500D01*
X81093928Y-103159214D01*
X81058214Y-103230642D01*
X81058214Y-103444928D01*
X81093928Y-103516357D01*
X81129642Y-103552071D01*
X81201071Y-103587785D01*
X81343928Y-103587785D01*
X81415357Y-103552071D01*
X80629642Y-103587785D02*
X80701071Y-103552071D01*
X80736785Y-103516357D01*
X80772500Y-103444928D01*
X80772500Y-103230642D01*
X80736785Y-103159214D01*
X80701071Y-103123500D01*
X80629642Y-103087785D01*
X80522500Y-103087785D01*
X80451071Y-103123500D01*
X80415357Y-103159214D01*
X80379642Y-103230642D01*
X80379642Y-103444928D01*
X80415357Y-103516357D01*
X80451071Y-103552071D01*
X80522500Y-103587785D01*
X80629642Y-103587785D01*
X80165357Y-103087785D02*
X79879642Y-103087785D01*
X80058214Y-102837785D02*
X80058214Y-103480642D01*
X80022500Y-103552071D01*
X79951071Y-103587785D01*
X79879642Y-103587785D01*
X79629642Y-103587785D02*
X79629642Y-103087785D01*
X79629642Y-102837785D02*
X79665357Y-102873500D01*
X79629642Y-102909214D01*
X79593928Y-102873500D01*
X79629642Y-102837785D01*
X79629642Y-102909214D01*
X78951071Y-103552071D02*
X79022500Y-103587785D01*
X79165357Y-103587785D01*
X79236785Y-103552071D01*
X79272500Y-103516357D01*
X79308214Y-103444928D01*
X79308214Y-103230642D01*
X79272500Y-103159214D01*
X79236785Y-103123500D01*
X79165357Y-103087785D01*
X79022500Y-103087785D01*
X78951071Y-103123500D01*
X78665357Y-103552071D02*
X78593928Y-103587785D01*
X78451071Y-103587785D01*
X78379642Y-103552071D01*
X78343928Y-103480642D01*
X78343928Y-103444928D01*
X78379642Y-103373500D01*
X78451071Y-103337785D01*
X78558214Y-103337785D01*
X78629642Y-103302071D01*
X78665357Y-103230642D01*
X78665357Y-103194928D01*
X78629642Y-103123500D01*
X78558214Y-103087785D01*
X78451071Y-103087785D01*
X78379642Y-103123500D01*
X77022500Y-103516357D02*
X77058214Y-103552071D01*
X77165357Y-103587785D01*
X77236785Y-103587785D01*
X77343928Y-103552071D01*
X77415357Y-103480642D01*
X77451071Y-103409214D01*
X77486785Y-103266357D01*
X77486785Y-103159214D01*
X77451071Y-103016357D01*
X77415357Y-102944928D01*
X77343928Y-102873500D01*
X77236785Y-102837785D01*
X77165357Y-102837785D01*
X77058214Y-102873500D01*
X77022500Y-102909214D01*
X76593928Y-103587785D02*
X76665357Y-103552071D01*
X76701071Y-103480642D01*
X76701071Y-102837785D01*
X75986785Y-103087785D02*
X75986785Y-103587785D01*
X76308214Y-103087785D02*
X76308214Y-103480642D01*
X76272500Y-103552071D01*
X76201071Y-103587785D01*
X76093928Y-103587785D01*
X76022500Y-103552071D01*
X75986785Y-103516357D01*
X75629642Y-103587785D02*
X75629642Y-102837785D01*
X75629642Y-103123500D02*
X75558214Y-103087785D01*
X75415357Y-103087785D01*
X75343928Y-103123500D01*
X75308214Y-103159214D01*
X75272500Y-103230642D01*
X75272500Y-103444928D01*
X75308214Y-103516357D01*
X75343928Y-103552071D01*
X75415357Y-103587785D01*
X75558214Y-103587785D01*
X75629642Y-103552071D01*
X102236785Y-104862785D02*
X102593928Y-104862785D01*
X102593928Y-104112785D01*
X101986785Y-104862785D02*
X101986785Y-104362785D01*
X101986785Y-104112785D02*
X102022500Y-104148500D01*
X101986785Y-104184214D01*
X101951071Y-104148500D01*
X101986785Y-104112785D01*
X101986785Y-104184214D01*
X101308214Y-104827071D02*
X101379642Y-104862785D01*
X101522500Y-104862785D01*
X101593928Y-104827071D01*
X101629642Y-104791357D01*
X101665357Y-104719928D01*
X101665357Y-104505642D01*
X101629642Y-104434214D01*
X101593928Y-104398500D01*
X101522500Y-104362785D01*
X101379642Y-104362785D01*
X101308214Y-104398500D01*
X100701071Y-104827071D02*
X100772500Y-104862785D01*
X100915357Y-104862785D01*
X100986785Y-104827071D01*
X101022500Y-104755642D01*
X101022500Y-104469928D01*
X100986785Y-104398500D01*
X100915357Y-104362785D01*
X100772500Y-104362785D01*
X100701071Y-104398500D01*
X100665357Y-104469928D01*
X100665357Y-104541357D01*
X101022500Y-104612785D01*
X100343928Y-104362785D02*
X100343928Y-104862785D01*
X100343928Y-104434214D02*
X100308214Y-104398500D01*
X100236785Y-104362785D01*
X100129642Y-104362785D01*
X100058214Y-104398500D01*
X100022500Y-104469928D01*
X100022500Y-104862785D01*
X99701071Y-104827071D02*
X99629642Y-104862785D01*
X99486785Y-104862785D01*
X99415357Y-104827071D01*
X99379642Y-104755642D01*
X99379642Y-104719928D01*
X99415357Y-104648500D01*
X99486785Y-104612785D01*
X99593928Y-104612785D01*
X99665357Y-104577071D01*
X99701071Y-104505642D01*
X99701071Y-104469928D01*
X99665357Y-104398500D01*
X99593928Y-104362785D01*
X99486785Y-104362785D01*
X99415357Y-104398500D01*
X98772500Y-104827071D02*
X98843928Y-104862785D01*
X98986785Y-104862785D01*
X99058214Y-104827071D01*
X99093928Y-104755642D01*
X99093928Y-104469928D01*
X99058214Y-104398500D01*
X98986785Y-104362785D01*
X98843928Y-104362785D01*
X98772500Y-104398500D01*
X98736785Y-104469928D01*
X98736785Y-104541357D01*
X99093928Y-104612785D01*
X98415357Y-104791357D02*
X98379642Y-104827071D01*
X98415357Y-104862785D01*
X98451071Y-104827071D01*
X98415357Y-104791357D01*
X98415357Y-104862785D01*
X98415357Y-104398500D02*
X98379642Y-104434214D01*
X98415357Y-104469928D01*
X98451071Y-104434214D01*
X98415357Y-104398500D01*
X98415357Y-104469928D01*
X97486785Y-104862785D02*
X97486785Y-104112785D01*
X97236785Y-104648500D01*
X96986785Y-104112785D01*
X96986785Y-104862785D01*
X96629642Y-104862785D02*
X96629642Y-104112785D01*
X96379642Y-104112785D02*
X95951071Y-104112785D01*
X96165357Y-104862785D02*
X96165357Y-104112785D01*
X102593928Y-106137785D02*
X102593928Y-105387785D01*
X102415357Y-105387785D01*
X102308214Y-105423500D01*
X102236785Y-105494928D01*
X102201071Y-105566357D01*
X102165357Y-105709214D01*
X102165357Y-105816357D01*
X102201071Y-105959214D01*
X102236785Y-106030642D01*
X102308214Y-106102071D01*
X102415357Y-106137785D01*
X102593928Y-106137785D01*
X101522500Y-106137785D02*
X101522500Y-105744928D01*
X101558214Y-105673500D01*
X101629642Y-105637785D01*
X101772500Y-105637785D01*
X101843928Y-105673500D01*
X101522500Y-106102071D02*
X101593928Y-106137785D01*
X101772500Y-106137785D01*
X101843928Y-106102071D01*
X101879642Y-106030642D01*
X101879642Y-105959214D01*
X101843928Y-105887785D01*
X101772500Y-105852071D01*
X101593928Y-105852071D01*
X101522500Y-105816357D01*
X101272500Y-105637785D02*
X100986785Y-105637785D01*
X101165357Y-105387785D02*
X101165357Y-106030642D01*
X101129642Y-106102071D01*
X101058214Y-106137785D01*
X100986785Y-106137785D01*
X100451071Y-106102071D02*
X100522499Y-106137785D01*
X100665357Y-106137785D01*
X100736785Y-106102071D01*
X100772499Y-106030642D01*
X100772499Y-105744928D01*
X100736785Y-105673500D01*
X100665357Y-105637785D01*
X100522499Y-105637785D01*
X100451071Y-105673500D01*
X100415357Y-105744928D01*
X100415357Y-105816357D01*
X100772499Y-105887785D01*
X100093928Y-106066357D02*
X100058214Y-106102071D01*
X100093928Y-106137785D01*
X100129642Y-106102071D01*
X100093928Y-106066357D01*
X100093928Y-106137785D01*
X100093928Y-105673500D02*
X100058214Y-105709214D01*
X100093928Y-105744928D01*
X100129642Y-105709214D01*
X100093928Y-105673500D01*
X100093928Y-105744928D01*
X99201071Y-105459214D02*
X99165357Y-105423500D01*
X99093928Y-105387785D01*
X98915357Y-105387785D01*
X98843928Y-105423500D01*
X98808214Y-105459214D01*
X98772500Y-105530642D01*
X98772500Y-105602071D01*
X98808214Y-105709214D01*
X99236785Y-106137785D01*
X98772500Y-106137785D01*
X98308214Y-105387785D02*
X98236785Y-105387785D01*
X98165357Y-105423500D01*
X98129642Y-105459214D01*
X98093928Y-105530642D01*
X98058214Y-105673500D01*
X98058214Y-105852071D01*
X98093928Y-105994928D01*
X98129642Y-106066357D01*
X98165357Y-106102071D01*
X98236785Y-106137785D01*
X98308214Y-106137785D01*
X98379642Y-106102071D01*
X98415357Y-106066357D01*
X98451071Y-105994928D01*
X98486785Y-105852071D01*
X98486785Y-105673500D01*
X98451071Y-105530642D01*
X98415357Y-105459214D01*
X98379642Y-105423500D01*
X98308214Y-105387785D01*
X97772499Y-105459214D02*
X97736785Y-105423500D01*
X97665357Y-105387785D01*
X97486785Y-105387785D01*
X97415357Y-105423500D01*
X97379642Y-105459214D01*
X97343928Y-105530642D01*
X97343928Y-105602071D01*
X97379642Y-105709214D01*
X97808214Y-106137785D01*
X97343928Y-106137785D01*
X96879642Y-105387785D02*
X96808214Y-105387785D01*
X96736785Y-105423500D01*
X96701071Y-105459214D01*
X96665357Y-105530642D01*
X96629642Y-105673500D01*
X96629642Y-105852071D01*
X96665357Y-105994928D01*
X96701071Y-106066357D01*
X96736785Y-106102071D01*
X96808214Y-106137785D01*
X96879642Y-106137785D01*
X96951071Y-106102071D01*
X96986785Y-106066357D01*
X97022499Y-105994928D01*
X97058214Y-105852071D01*
X97058214Y-105673500D01*
X97022499Y-105530642D01*
X96986785Y-105459214D01*
X96951071Y-105423500D01*
X96879642Y-105387785D01*
X96308214Y-106137785D02*
X96308214Y-105387785D01*
X96129642Y-105387785D01*
X96022499Y-105423500D01*
X95951071Y-105494928D01*
X95915357Y-105566357D01*
X95879642Y-105709214D01*
X95879642Y-105816357D01*
X95915357Y-105959214D01*
X95951071Y-106030642D01*
X96022499Y-106102071D01*
X96129642Y-106137785D01*
X96308214Y-106137785D01*
X95272499Y-106102071D02*
X95343928Y-106137785D01*
X95486785Y-106137785D01*
X95558214Y-106102071D01*
X95593928Y-106030642D01*
X95593928Y-105744928D01*
X95558214Y-105673500D01*
X95486785Y-105637785D01*
X95343928Y-105637785D01*
X95272499Y-105673500D01*
X95236785Y-105744928D01*
X95236785Y-105816357D01*
X95593928Y-105887785D01*
X94593928Y-106102071D02*
X94665357Y-106137785D01*
X94808214Y-106137785D01*
X94879642Y-106102071D01*
X94915357Y-106066357D01*
X94951071Y-105994928D01*
X94951071Y-105780642D01*
X94915357Y-105709214D01*
X94879642Y-105673500D01*
X94808214Y-105637785D01*
X94665357Y-105637785D01*
X94593928Y-105673500D01*
X94308214Y-105459214D02*
X94272499Y-105423500D01*
X94201071Y-105387785D01*
X94022499Y-105387785D01*
X93951071Y-105423500D01*
X93915357Y-105459214D01*
X93879642Y-105530642D01*
X93879642Y-105602071D01*
X93915357Y-105709214D01*
X94343928Y-106137785D01*
X93879642Y-106137785D01*
X93236785Y-105387785D02*
X93379642Y-105387785D01*
X93451071Y-105423500D01*
X93486785Y-105459214D01*
X93558214Y-105566357D01*
X93593928Y-105709214D01*
X93593928Y-105994928D01*
X93558214Y-106066357D01*
X93522499Y-106102071D01*
X93451071Y-106137785D01*
X93308214Y-106137785D01*
X93236785Y-106102071D01*
X93201071Y-106066357D01*
X93165357Y-105994928D01*
X93165357Y-105816357D01*
X93201071Y-105744928D01*
X93236785Y-105709214D01*
X93308214Y-105673500D01*
X93451071Y-105673500D01*
X93522499Y-105709214D01*
X93558214Y-105744928D01*
X93593928Y-105816357D01*
X91843928Y-106137785D02*
X92093928Y-105780642D01*
X92272499Y-106137785D02*
X92272499Y-105387785D01*
X91986785Y-105387785D01*
X91915357Y-105423500D01*
X91879642Y-105459214D01*
X91843928Y-105530642D01*
X91843928Y-105637785D01*
X91879642Y-105709214D01*
X91915357Y-105744928D01*
X91986785Y-105780642D01*
X92272499Y-105780642D01*
X91236785Y-106102071D02*
X91308214Y-106137785D01*
X91451071Y-106137785D01*
X91522499Y-106102071D01*
X91558214Y-106030642D01*
X91558214Y-105744928D01*
X91522499Y-105673500D01*
X91451071Y-105637785D01*
X91308214Y-105637785D01*
X91236785Y-105673500D01*
X91201071Y-105744928D01*
X91201071Y-105816357D01*
X91558214Y-105887785D01*
X90951071Y-105637785D02*
X90772499Y-106137785D01*
X90593928Y-105637785D01*
X90308214Y-106066357D02*
X90272499Y-106102071D01*
X90308214Y-106137785D01*
X90343928Y-106102071D01*
X90308214Y-106066357D01*
X90308214Y-106137785D01*
X89415357Y-105923500D02*
X89058214Y-105923500D01*
X89486785Y-106137785D02*
X89236785Y-105387785D01*
X88986785Y-106137785D01*
D11*
%TO.C,CN2A*%
X97530000Y-89690000D02*
X97560000Y-89620000D01*
X97460000Y-89710000D02*
X97530000Y-89690000D01*
X97390000Y-89690000D02*
X97460000Y-89710000D01*
X97360000Y-89620000D02*
X97390000Y-89690000D01*
X97390000Y-89540000D02*
X97360000Y-89620000D01*
X97460000Y-89520000D02*
X97390000Y-89540000D01*
X97530000Y-89540000D02*
X97460000Y-89520000D01*
X97560000Y-89620000D02*
X97530000Y-89540000D01*
X102540000Y-92790000D02*
X102540000Y-90250000D01*
X97460000Y-92790000D02*
X102540000Y-92790000D01*
X97460000Y-90250000D02*
X97460000Y-92790000D01*
X102540000Y-90250000D02*
X97460000Y-90250000D01*
X81420000Y-110500000D02*
X81340000Y-110470000D01*
X81450000Y-110570000D02*
X81420000Y-110500000D01*
X81420000Y-110640000D02*
X81450000Y-110570000D01*
X81340000Y-110670000D02*
X81420000Y-110640000D01*
X81270000Y-110640000D02*
X81340000Y-110670000D01*
X81250000Y-110570000D02*
X81270000Y-110640000D01*
X81270000Y-110500000D02*
X81250000Y-110570000D01*
X81340000Y-110470000D02*
X81270000Y-110500000D01*
X84520000Y-105490000D02*
X81980000Y-105490000D01*
X84520000Y-110570000D02*
X84520000Y-105490000D01*
X81980000Y-110570000D02*
X84520000Y-110570000D01*
X81980000Y-105490000D02*
X81980000Y-110570000D01*
X85080000Y-90320000D02*
X85150000Y-90350000D01*
X85050000Y-90250000D02*
X85080000Y-90320000D01*
X85080000Y-90180000D02*
X85050000Y-90250000D01*
X85150000Y-90150000D02*
X85080000Y-90180000D01*
X85230000Y-90180000D02*
X85150000Y-90150000D01*
X85250000Y-90250000D02*
X85230000Y-90180000D01*
X85230000Y-90320000D02*
X85250000Y-90250000D01*
X85150000Y-90350000D02*
X85230000Y-90320000D01*
X81980000Y-100410000D02*
X84520000Y-100410000D01*
X81980000Y-90250000D02*
X81980000Y-100410000D01*
X84520000Y-90250000D02*
X81980000Y-90250000D01*
X84520000Y-100410000D02*
X84520000Y-90250000D01*
X66420000Y-110500000D02*
X66340000Y-110470000D01*
X66450000Y-110570000D02*
X66420000Y-110500000D01*
X66420000Y-110640000D02*
X66450000Y-110570000D01*
X66340000Y-110670000D02*
X66420000Y-110640000D01*
X66270000Y-110640000D02*
X66340000Y-110670000D01*
X66240000Y-110570000D02*
X66270000Y-110640000D01*
X66270000Y-110500000D02*
X66240000Y-110570000D01*
X66340000Y-110470000D02*
X66270000Y-110500000D01*
X69520000Y-105490000D02*
X66980000Y-105490000D01*
X69520000Y-110570000D02*
X69520000Y-105490000D01*
X66980000Y-110570000D02*
X69520000Y-110570000D01*
X66980000Y-105490000D02*
X66980000Y-110570000D01*
X75080000Y-95400000D02*
X75160000Y-95430000D01*
X75050000Y-95330000D02*
X75080000Y-95400000D01*
X75080000Y-95260000D02*
X75050000Y-95330000D01*
X75160000Y-95230000D02*
X75080000Y-95260000D01*
X75230000Y-95260000D02*
X75160000Y-95230000D01*
X75250000Y-95330000D02*
X75230000Y-95260000D01*
X75230000Y-95400000D02*
X75250000Y-95330000D01*
X75160000Y-95430000D02*
X75230000Y-95400000D01*
X71980000Y-110570000D02*
X74520000Y-110570000D01*
X71980000Y-95330000D02*
X71980000Y-110570000D01*
X74520000Y-95330000D02*
X71980000Y-95330000D01*
X74520000Y-110570000D02*
X74520000Y-95330000D01*
X70080000Y-90320000D02*
X70160000Y-90350000D01*
X70050000Y-90250000D02*
X70080000Y-90320000D01*
X70080000Y-90180000D02*
X70050000Y-90250000D01*
X70160000Y-90150000D02*
X70080000Y-90180000D01*
X70230000Y-90180000D02*
X70160000Y-90150000D01*
X70250000Y-90250000D02*
X70230000Y-90180000D01*
X70230000Y-90320000D02*
X70250000Y-90250000D01*
X70160000Y-90350000D02*
X70230000Y-90320000D01*
X66980000Y-95330000D02*
X69520000Y-95330000D01*
X66980000Y-90250000D02*
X66980000Y-95330000D01*
X69520000Y-90250000D02*
X66980000Y-90250000D01*
X69520000Y-95330000D02*
X69520000Y-90250000D01*
%TO.C,CN1*%
X97270000Y-97760000D02*
X97240000Y-97830000D01*
X97340000Y-97730000D02*
X97270000Y-97760000D01*
X97410000Y-97760000D02*
X97340000Y-97730000D01*
X97440000Y-97830000D02*
X97410000Y-97760000D01*
X97410000Y-97900000D02*
X97440000Y-97830000D01*
X97340000Y-97930000D02*
X97410000Y-97900000D01*
X97270000Y-97900000D02*
X97340000Y-97930000D01*
X97240000Y-97830000D02*
X97270000Y-97900000D01*
X87820000Y-95800000D02*
X87820000Y-96370000D01*
X90360000Y-95800000D02*
X90360000Y-96370000D01*
X92900000Y-95800000D02*
X92900000Y-96370000D01*
X95440000Y-95800000D02*
X95440000Y-96370000D01*
X86540000Y-91290000D02*
X86540000Y-96370000D01*
X96710000Y-91290000D02*
X86540000Y-91290000D01*
X96710000Y-96370000D02*
X96710000Y-91290000D01*
X86540000Y-96370000D02*
X96710000Y-96370000D01*
%TD*%
M02*
