M48
; DRILL file {KiCad 5.1.9-73d0e3b20d~88~ubuntu20.04.1} date Sat Dec 26 20:54:20 2020
; FORMAT={-:-/ absolute / metric / decimal}
; #@! TF.CreationDate,2020-12-26T20:54:20-08:00
; #@! TF.GenerationSoftware,Kicad,Pcbnew,5.1.9-73d0e3b20d~88~ubuntu20.04.1
FMAT,2
METRIC
T1C0.400
T2C1.020
%
G90
G05
T1
X75.0Y-102.6
X91.5Y-94.8
T2
X68.25Y-91.52
X68.25Y-94.06
X68.25Y-106.76
X68.25Y-109.3
X73.25Y-96.6
X73.25Y-99.14
X73.25Y-101.68
X73.25Y-104.22
X73.25Y-106.76
X73.25Y-109.3
X83.25Y-91.52
X83.25Y-94.06
X83.25Y-96.6
X83.25Y-99.14
X83.25Y-106.76
X83.25Y-109.3
X87.815Y-97.83
X87.815Y-100.37
X90.355Y-97.83
X90.355Y-100.37
X92.895Y-97.83
X92.895Y-100.37
X95.435Y-97.83
X95.435Y-100.37
X98.73Y-91.52
X101.27Y-91.52
T0
M30
