%TF.GenerationSoftware,KiCad,Pcbnew,5.1.9-73d0e3b20d~88~ubuntu20.04.1*%
%TF.CreationDate,2020-12-29T15:57:48-08:00*%
%TF.ProjectId,st_adapter,73745f61-6461-4707-9465-722e6b696361,A*%
%TF.SameCoordinates,Original*%
%TF.FileFunction,Legend,Top*%
%TF.FilePolarity,Positive*%
%FSLAX46Y46*%
G04 Gerber Fmt 4.6, Leading zero omitted, Abs format (unit mm)*
G04 Created by KiCad (PCBNEW 5.1.9-73d0e3b20d~88~ubuntu20.04.1) date 2020-12-29 15:57:48*
%MOMM*%
%LPD*%
G01*
G04 APERTURE LIST*
%ADD10C,0.150000*%
%ADD11C,0.200000*%
G04 APERTURE END LIST*
D10*
X67029523Y-104817142D02*
X66981904Y-104864761D01*
X66839047Y-104912380D01*
X66743809Y-104912380D01*
X66600952Y-104864761D01*
X66505714Y-104769523D01*
X66458095Y-104674285D01*
X66410476Y-104483809D01*
X66410476Y-104340952D01*
X66458095Y-104150476D01*
X66505714Y-104055238D01*
X66600952Y-103960000D01*
X66743809Y-103912380D01*
X66839047Y-103912380D01*
X66981904Y-103960000D01*
X67029523Y-104007619D01*
X67458095Y-104912380D02*
X67458095Y-103912380D01*
X68029523Y-104912380D01*
X68029523Y-103912380D01*
X68458095Y-104007619D02*
X68505714Y-103960000D01*
X68600952Y-103912380D01*
X68839047Y-103912380D01*
X68934285Y-103960000D01*
X68981904Y-104007619D01*
X69029523Y-104102857D01*
X69029523Y-104198095D01*
X68981904Y-104340952D01*
X68410476Y-104912380D01*
X69029523Y-104912380D01*
X69981904Y-103960000D02*
X69886666Y-103912380D01*
X69743809Y-103912380D01*
X69600952Y-103960000D01*
X69505714Y-104055238D01*
X69458095Y-104150476D01*
X69410476Y-104340952D01*
X69410476Y-104483809D01*
X69458095Y-104674285D01*
X69505714Y-104769523D01*
X69600952Y-104864761D01*
X69743809Y-104912380D01*
X69839047Y-104912380D01*
X69981904Y-104864761D01*
X70029523Y-104817142D01*
X70029523Y-104483809D01*
X69839047Y-104483809D01*
X71967142Y-94557142D02*
X71919523Y-94604761D01*
X71776666Y-94652380D01*
X71681428Y-94652380D01*
X71538571Y-94604761D01*
X71443333Y-94509523D01*
X71395714Y-94414285D01*
X71348095Y-94223809D01*
X71348095Y-94080952D01*
X71395714Y-93890476D01*
X71443333Y-93795238D01*
X71538571Y-93700000D01*
X71681428Y-93652380D01*
X71776666Y-93652380D01*
X71919523Y-93700000D01*
X71967142Y-93747619D01*
X72395714Y-94652380D02*
X72395714Y-93652380D01*
X72967142Y-94652380D01*
X72967142Y-93652380D01*
X73395714Y-93747619D02*
X73443333Y-93700000D01*
X73538571Y-93652380D01*
X73776666Y-93652380D01*
X73871904Y-93700000D01*
X73919523Y-93747619D01*
X73967142Y-93842857D01*
X73967142Y-93938095D01*
X73919523Y-94080952D01*
X73348095Y-94652380D01*
X73967142Y-94652380D01*
X74395714Y-94128571D02*
X74729047Y-94128571D01*
X74871904Y-94652380D02*
X74395714Y-94652380D01*
X74395714Y-93652380D01*
X74871904Y-93652380D01*
X82079523Y-101817142D02*
X82031904Y-101864761D01*
X81889047Y-101912380D01*
X81793809Y-101912380D01*
X81650952Y-101864761D01*
X81555714Y-101769523D01*
X81508095Y-101674285D01*
X81460476Y-101483809D01*
X81460476Y-101340952D01*
X81508095Y-101150476D01*
X81555714Y-101055238D01*
X81650952Y-100960000D01*
X81793809Y-100912380D01*
X81889047Y-100912380D01*
X82031904Y-100960000D01*
X82079523Y-101007619D01*
X82508095Y-101912380D02*
X82508095Y-100912380D01*
X83079523Y-101912380D01*
X83079523Y-100912380D01*
X83508095Y-101007619D02*
X83555714Y-100960000D01*
X83650952Y-100912380D01*
X83889047Y-100912380D01*
X83984285Y-100960000D01*
X84031904Y-101007619D01*
X84079523Y-101102857D01*
X84079523Y-101198095D01*
X84031904Y-101340952D01*
X83460476Y-101912380D01*
X84079523Y-101912380D01*
X85079523Y-101817142D02*
X85031904Y-101864761D01*
X84889047Y-101912380D01*
X84793809Y-101912380D01*
X84650952Y-101864761D01*
X84555714Y-101769523D01*
X84508095Y-101674285D01*
X84460476Y-101483809D01*
X84460476Y-101340952D01*
X84508095Y-101150476D01*
X84555714Y-101055238D01*
X84650952Y-100960000D01*
X84793809Y-100912380D01*
X84889047Y-100912380D01*
X85031904Y-100960000D01*
X85079523Y-101007619D01*
X81989523Y-104847142D02*
X81941904Y-104894761D01*
X81799047Y-104942380D01*
X81703809Y-104942380D01*
X81560952Y-104894761D01*
X81465714Y-104799523D01*
X81418095Y-104704285D01*
X81370476Y-104513809D01*
X81370476Y-104370952D01*
X81418095Y-104180476D01*
X81465714Y-104085238D01*
X81560952Y-103990000D01*
X81703809Y-103942380D01*
X81799047Y-103942380D01*
X81941904Y-103990000D01*
X81989523Y-104037619D01*
X82418095Y-104942380D02*
X82418095Y-103942380D01*
X82989523Y-104942380D01*
X82989523Y-103942380D01*
X83418095Y-104037619D02*
X83465714Y-103990000D01*
X83560952Y-103942380D01*
X83799047Y-103942380D01*
X83894285Y-103990000D01*
X83941904Y-104037619D01*
X83989523Y-104132857D01*
X83989523Y-104228095D01*
X83941904Y-104370952D01*
X83370476Y-104942380D01*
X83989523Y-104942380D01*
X84418095Y-104942380D02*
X84418095Y-103942380D01*
X84656190Y-103942380D01*
X84799047Y-103990000D01*
X84894285Y-104085238D01*
X84941904Y-104180476D01*
X84989523Y-104370952D01*
X84989523Y-104513809D01*
X84941904Y-104704285D01*
X84894285Y-104799523D01*
X84799047Y-104894761D01*
X84656190Y-104942380D01*
X84418095Y-104942380D01*
X67089523Y-96857142D02*
X67041904Y-96904761D01*
X66899047Y-96952380D01*
X66803809Y-96952380D01*
X66660952Y-96904761D01*
X66565714Y-96809523D01*
X66518095Y-96714285D01*
X66470476Y-96523809D01*
X66470476Y-96380952D01*
X66518095Y-96190476D01*
X66565714Y-96095238D01*
X66660952Y-96000000D01*
X66803809Y-95952380D01*
X66899047Y-95952380D01*
X67041904Y-96000000D01*
X67089523Y-96047619D01*
X67518095Y-96952380D02*
X67518095Y-95952380D01*
X68089523Y-96952380D01*
X68089523Y-95952380D01*
X68518095Y-96047619D02*
X68565714Y-96000000D01*
X68660952Y-95952380D01*
X68899047Y-95952380D01*
X68994285Y-96000000D01*
X69041904Y-96047619D01*
X69089523Y-96142857D01*
X69089523Y-96238095D01*
X69041904Y-96380952D01*
X68470476Y-96952380D01*
X69089523Y-96952380D01*
X69851428Y-96428571D02*
X69994285Y-96476190D01*
X70041904Y-96523809D01*
X70089523Y-96619047D01*
X70089523Y-96761904D01*
X70041904Y-96857142D01*
X69994285Y-96904761D01*
X69899047Y-96952380D01*
X69518095Y-96952380D01*
X69518095Y-95952380D01*
X69851428Y-95952380D01*
X69946666Y-96000000D01*
X69994285Y-96047619D01*
X70041904Y-96142857D01*
X70041904Y-96238095D01*
X69994285Y-96333333D01*
X69946666Y-96380952D01*
X69851428Y-96428571D01*
X69518095Y-96428571D01*
%TO.C,CN2A*%
D11*
X98920952Y-94337142D02*
X98873333Y-94384761D01*
X98730476Y-94432380D01*
X98635238Y-94432380D01*
X98492380Y-94384761D01*
X98397142Y-94289523D01*
X98349523Y-94194285D01*
X98301904Y-94003809D01*
X98301904Y-93860952D01*
X98349523Y-93670476D01*
X98397142Y-93575238D01*
X98492380Y-93480000D01*
X98635238Y-93432380D01*
X98730476Y-93432380D01*
X98873333Y-93480000D01*
X98920952Y-93527619D01*
X99349523Y-94432380D02*
X99349523Y-93432380D01*
X99920952Y-94432380D01*
X99920952Y-93432380D01*
X100349523Y-93527619D02*
X100397142Y-93480000D01*
X100492380Y-93432380D01*
X100730476Y-93432380D01*
X100825714Y-93480000D01*
X100873333Y-93527619D01*
X100920952Y-93622857D01*
X100920952Y-93718095D01*
X100873333Y-93860952D01*
X100301904Y-94432380D01*
X100920952Y-94432380D01*
X101301904Y-94146666D02*
X101778095Y-94146666D01*
X101206666Y-94432380D02*
X101540000Y-93432380D01*
X101873333Y-94432380D01*
%TO.C,CN1*%
X99309523Y-98357142D02*
X99261904Y-98404761D01*
X99119047Y-98452380D01*
X99023809Y-98452380D01*
X98880952Y-98404761D01*
X98785714Y-98309523D01*
X98738095Y-98214285D01*
X98690476Y-98023809D01*
X98690476Y-97880952D01*
X98738095Y-97690476D01*
X98785714Y-97595238D01*
X98880952Y-97500000D01*
X99023809Y-97452380D01*
X99119047Y-97452380D01*
X99261904Y-97500000D01*
X99309523Y-97547619D01*
X99738095Y-98452380D02*
X99738095Y-97452380D01*
X100309523Y-98452380D01*
X100309523Y-97452380D01*
X101309523Y-98452380D02*
X100738095Y-98452380D01*
X101023809Y-98452380D02*
X101023809Y-97452380D01*
X100928571Y-97595238D01*
X100833333Y-97690476D01*
X100738095Y-97738095D01*
%TD*%
M02*
