%TF.GenerationSoftware,KiCad,Pcbnew,5.1.9-73d0e3b20d~88~ubuntu20.04.1*%
%TF.CreationDate,2021-04-02T21:11:18-07:00*%
%TF.ProjectId,ld06_adapter,6c643036-5f61-4646-9170-7465722e6b69,A*%
%TF.SameCoordinates,Original*%
%TF.FileFunction,Copper,L2,Bot*%
%TF.FilePolarity,Positive*%
%FSLAX46Y46*%
G04 Gerber Fmt 4.6, Leading zero omitted, Abs format (unit mm)*
G04 Created by KiCad (PCBNEW 5.1.9-73d0e3b20d~88~ubuntu20.04.1) date 2021-04-02 21:11:18*
%MOMM*%
%LPD*%
G01*
G04 APERTURE LIST*
%TA.AperFunction,ComponentPad*%
%ADD10C,1.520000*%
%TD*%
%TA.AperFunction,ComponentPad*%
%ADD11O,1.170000X1.870000*%
%TD*%
%TA.AperFunction,Conductor*%
%ADD12C,0.250000*%
%TD*%
%TA.AperFunction,Conductor*%
%ADD13C,0.500000*%
%TD*%
%TA.AperFunction,Conductor*%
%ADD14C,0.254000*%
%TD*%
%TA.AperFunction,Conductor*%
%ADD15C,0.100000*%
%TD*%
G04 APERTURE END LIST*
D10*
%TO.P,CN1,11*%
%TO.N,/PWM*%
X103810000Y-96190000D03*
%TO.P,CN1,10*%
%TO.N,Net-(CN1-Pad10)*%
X101270000Y-96190000D03*
%TO.P,CN1,9*%
%TO.N,Net-(CN1-Pad9)*%
X98730000Y-96190000D03*
%TO.P,CN1,8*%
%TO.N,Net-(CN1-Pad8)*%
X96190000Y-96190000D03*
%TO.P,CN1,7*%
%TO.N,/TX*%
X107620000Y-103810000D03*
%TO.P,CN1,6*%
%TO.N,/GND*%
X105080000Y-103810000D03*
%TO.P,CN1,5*%
X102540000Y-103810000D03*
%TO.P,CN1,4*%
X100000000Y-103810000D03*
%TO.P,CN1,3*%
X96825000Y-103810000D03*
%TO.P,CN1,2*%
%TO.N,/5V*%
X94285000Y-103810000D03*
%TO.P,CN1,1*%
%TO.N,Net-(CN1-Pad1)*%
X91745000Y-103810000D03*
%TD*%
D11*
%TO.P,CN2,4*%
%TO.N,/5V*%
X93544000Y-99568000D03*
%TO.P,CN2,3*%
%TO.N,/GND*%
X92044000Y-99568000D03*
%TO.P,CN2,2*%
%TO.N,/PWM*%
X90544000Y-99568000D03*
%TO.P,CN2,1*%
%TO.N,/TX*%
%TA.AperFunction,ComponentPad*%
G36*
G01*
X88459000Y-100253001D02*
X88459000Y-98882999D01*
G75*
G02*
X88708999Y-98633000I249999J0D01*
G01*
X89379001Y-98633000D01*
G75*
G02*
X89629000Y-98882999I0J-249999D01*
G01*
X89629000Y-100253001D01*
G75*
G02*
X89379001Y-100503000I-249999J0D01*
G01*
X88708999Y-100503000D01*
G75*
G02*
X88459000Y-100253001I0J249999D01*
G01*
G37*
%TD.AperFunction*%
%TD*%
D12*
%TO.N,/PWM*%
X90544000Y-98383000D02*
X90544000Y-99568000D01*
X91037000Y-97890000D02*
X90544000Y-98383000D01*
X102110000Y-97890000D02*
X91037000Y-97890000D01*
X103810000Y-96190000D02*
X102110000Y-97890000D01*
%TO.N,/TX*%
X89044000Y-99568000D02*
X89044000Y-98866000D01*
D13*
%TO.N,/5V*%
X94285000Y-103810000D02*
X94285000Y-102385000D01*
X93544000Y-101644000D02*
X93544000Y-99568000D01*
X94285000Y-102385000D02*
X93544000Y-101644000D01*
%TD*%
D14*
%TO.N,/GND*%
X90423415Y-95004750D02*
X90273782Y-95365997D01*
X90197500Y-95749495D01*
X90197500Y-96140505D01*
X90273782Y-96524003D01*
X90423415Y-96885250D01*
X90640649Y-97210364D01*
X90660027Y-97229742D01*
X90612724Y-97255026D01*
X90496999Y-97349999D01*
X90473196Y-97379003D01*
X90033003Y-97819196D01*
X90003999Y-97842999D01*
X89965427Y-97890000D01*
X89909026Y-97958724D01*
X89864372Y-98042265D01*
X89838454Y-98090754D01*
X89829135Y-98121476D01*
X89718851Y-98062528D01*
X89552255Y-98011992D01*
X89379001Y-97994928D01*
X88708999Y-97994928D01*
X88535745Y-98011992D01*
X88369149Y-98062528D01*
X88215613Y-98144595D01*
X88081038Y-98255038D01*
X87970595Y-98389613D01*
X87888528Y-98543149D01*
X87837992Y-98709745D01*
X87820928Y-98882999D01*
X87820928Y-100253001D01*
X87837992Y-100426255D01*
X87888528Y-100592851D01*
X87970595Y-100746387D01*
X88081038Y-100880962D01*
X88215613Y-100991405D01*
X88369149Y-101073472D01*
X88535745Y-101124008D01*
X88708999Y-101141072D01*
X89379001Y-101141072D01*
X89552255Y-101124008D01*
X89718851Y-101073472D01*
X89872387Y-100991405D01*
X89908579Y-100961703D01*
X90074868Y-101050587D01*
X90304839Y-101120348D01*
X90544000Y-101143903D01*
X90783162Y-101120348D01*
X91013133Y-101050587D01*
X91225075Y-100937301D01*
X91290735Y-100883415D01*
X91471801Y-101002952D01*
X91694459Y-101093735D01*
X91728750Y-101096566D01*
X91917000Y-100971624D01*
X91917000Y-99695000D01*
X91897000Y-99695000D01*
X91897000Y-99441000D01*
X91917000Y-99441000D01*
X91917000Y-99421000D01*
X92171000Y-99421000D01*
X92171000Y-99441000D01*
X92191000Y-99441000D01*
X92191000Y-99695000D01*
X92171000Y-99695000D01*
X92171000Y-100971624D01*
X92359250Y-101096566D01*
X92393541Y-101093735D01*
X92616199Y-101002952D01*
X92659000Y-100974695D01*
X92659000Y-101600531D01*
X92654719Y-101644000D01*
X92659000Y-101687469D01*
X92659000Y-101687476D01*
X92671805Y-101817489D01*
X92722411Y-101984312D01*
X92804589Y-102138058D01*
X92915183Y-102272817D01*
X92948956Y-102300534D01*
X93385297Y-102736875D01*
X93201433Y-102920739D01*
X93048767Y-103149220D01*
X93015000Y-103230740D01*
X92981233Y-103149220D01*
X92828567Y-102920739D01*
X92634261Y-102726433D01*
X92405780Y-102573767D01*
X92151907Y-102468609D01*
X91882396Y-102415000D01*
X91607604Y-102415000D01*
X91338093Y-102468609D01*
X91084220Y-102573767D01*
X90855739Y-102726433D01*
X90661433Y-102920739D01*
X90508767Y-103149220D01*
X90403609Y-103403093D01*
X90350000Y-103672604D01*
X90350000Y-103947396D01*
X90403609Y-104216907D01*
X90508767Y-104470780D01*
X90661433Y-104699261D01*
X90855739Y-104893567D01*
X91084220Y-105046233D01*
X91338093Y-105151391D01*
X91607604Y-105205000D01*
X91882396Y-105205000D01*
X92151907Y-105151391D01*
X92405780Y-105046233D01*
X92634261Y-104893567D01*
X92828567Y-104699261D01*
X92981233Y-104470780D01*
X93015000Y-104389260D01*
X93048767Y-104470780D01*
X93201433Y-104699261D01*
X93395739Y-104893567D01*
X93624220Y-105046233D01*
X93878093Y-105151391D01*
X94147604Y-105205000D01*
X94422396Y-105205000D01*
X94691907Y-105151391D01*
X94945780Y-105046233D01*
X95174261Y-104893567D01*
X95293691Y-104774137D01*
X96040469Y-104774137D01*
X96107206Y-105014025D01*
X96355892Y-105130924D01*
X96622606Y-105197061D01*
X96897097Y-105209895D01*
X97168817Y-105168931D01*
X97427326Y-105075744D01*
X97542794Y-105014025D01*
X97609531Y-104774137D01*
X99215469Y-104774137D01*
X99282206Y-105014025D01*
X99530892Y-105130924D01*
X99797606Y-105197061D01*
X100072097Y-105209895D01*
X100343817Y-105168931D01*
X100602326Y-105075744D01*
X100717794Y-105014025D01*
X100784531Y-104774137D01*
X101755469Y-104774137D01*
X101822206Y-105014025D01*
X102070892Y-105130924D01*
X102337606Y-105197061D01*
X102612097Y-105209895D01*
X102883817Y-105168931D01*
X103142326Y-105075744D01*
X103257794Y-105014025D01*
X103324531Y-104774137D01*
X104295469Y-104774137D01*
X104362206Y-105014025D01*
X104610892Y-105130924D01*
X104877606Y-105197061D01*
X105152097Y-105209895D01*
X105423817Y-105168931D01*
X105682326Y-105075744D01*
X105797794Y-105014025D01*
X105864531Y-104774137D01*
X105080000Y-103989605D01*
X104295469Y-104774137D01*
X103324531Y-104774137D01*
X102540000Y-103989605D01*
X101755469Y-104774137D01*
X100784531Y-104774137D01*
X100000000Y-103989605D01*
X99215469Y-104774137D01*
X97609531Y-104774137D01*
X96825000Y-103989605D01*
X96040469Y-104774137D01*
X95293691Y-104774137D01*
X95368567Y-104699261D01*
X95521233Y-104470780D01*
X95552830Y-104394499D01*
X95559256Y-104412326D01*
X95620975Y-104527794D01*
X95860863Y-104594531D01*
X96645395Y-103810000D01*
X97004605Y-103810000D01*
X97789137Y-104594531D01*
X98029025Y-104527794D01*
X98145924Y-104279108D01*
X98212061Y-104012394D01*
X98218153Y-103882097D01*
X98600105Y-103882097D01*
X98641069Y-104153817D01*
X98734256Y-104412326D01*
X98795975Y-104527794D01*
X99035863Y-104594531D01*
X99820395Y-103810000D01*
X100179605Y-103810000D01*
X100964137Y-104594531D01*
X101204025Y-104527794D01*
X101267332Y-104393118D01*
X101274256Y-104412326D01*
X101335975Y-104527794D01*
X101575863Y-104594531D01*
X102360395Y-103810000D01*
X102719605Y-103810000D01*
X103504137Y-104594531D01*
X103744025Y-104527794D01*
X103807332Y-104393118D01*
X103814256Y-104412326D01*
X103875975Y-104527794D01*
X104115863Y-104594531D01*
X104900395Y-103810000D01*
X105259605Y-103810000D01*
X106044137Y-104594531D01*
X106284025Y-104527794D01*
X106349600Y-104388293D01*
X106383767Y-104470780D01*
X106536433Y-104699261D01*
X106730739Y-104893567D01*
X106959220Y-105046233D01*
X107213093Y-105151391D01*
X107482604Y-105205000D01*
X107757396Y-105205000D01*
X108026907Y-105151391D01*
X108280780Y-105046233D01*
X108509261Y-104893567D01*
X108703567Y-104699261D01*
X108856233Y-104470780D01*
X108961391Y-104216907D01*
X109015000Y-103947396D01*
X109015000Y-103672604D01*
X108961391Y-103403093D01*
X108856233Y-103149220D01*
X108703567Y-102920739D01*
X108509261Y-102726433D01*
X108280780Y-102573767D01*
X108026907Y-102468609D01*
X107757396Y-102415000D01*
X107482604Y-102415000D01*
X107213093Y-102468609D01*
X106959220Y-102573767D01*
X106730739Y-102726433D01*
X106536433Y-102920739D01*
X106383767Y-103149220D01*
X106352170Y-103225501D01*
X106345744Y-103207674D01*
X106284025Y-103092206D01*
X106044137Y-103025469D01*
X105259605Y-103810000D01*
X104900395Y-103810000D01*
X104115863Y-103025469D01*
X103875975Y-103092206D01*
X103812668Y-103226882D01*
X103805744Y-103207674D01*
X103744025Y-103092206D01*
X103504137Y-103025469D01*
X102719605Y-103810000D01*
X102360395Y-103810000D01*
X101575863Y-103025469D01*
X101335975Y-103092206D01*
X101272668Y-103226882D01*
X101265744Y-103207674D01*
X101204025Y-103092206D01*
X100964137Y-103025469D01*
X100179605Y-103810000D01*
X99820395Y-103810000D01*
X99035863Y-103025469D01*
X98795975Y-103092206D01*
X98679076Y-103340892D01*
X98612939Y-103607606D01*
X98600105Y-103882097D01*
X98218153Y-103882097D01*
X98224895Y-103737903D01*
X98183931Y-103466183D01*
X98090744Y-103207674D01*
X98029025Y-103092206D01*
X97789137Y-103025469D01*
X97004605Y-103810000D01*
X96645395Y-103810000D01*
X95860863Y-103025469D01*
X95620975Y-103092206D01*
X95555400Y-103231707D01*
X95521233Y-103149220D01*
X95368567Y-102920739D01*
X95293691Y-102845863D01*
X96040469Y-102845863D01*
X96825000Y-103630395D01*
X97609531Y-102845863D01*
X99215469Y-102845863D01*
X100000000Y-103630395D01*
X100784531Y-102845863D01*
X101755469Y-102845863D01*
X102540000Y-103630395D01*
X103324531Y-102845863D01*
X104295469Y-102845863D01*
X105080000Y-103630395D01*
X105864531Y-102845863D01*
X105797794Y-102605975D01*
X105549108Y-102489076D01*
X105282394Y-102422939D01*
X105007903Y-102410105D01*
X104736183Y-102451069D01*
X104477674Y-102544256D01*
X104362206Y-102605975D01*
X104295469Y-102845863D01*
X103324531Y-102845863D01*
X103257794Y-102605975D01*
X103009108Y-102489076D01*
X102742394Y-102422939D01*
X102467903Y-102410105D01*
X102196183Y-102451069D01*
X101937674Y-102544256D01*
X101822206Y-102605975D01*
X101755469Y-102845863D01*
X100784531Y-102845863D01*
X100717794Y-102605975D01*
X100469108Y-102489076D01*
X100202394Y-102422939D01*
X99927903Y-102410105D01*
X99656183Y-102451069D01*
X99397674Y-102544256D01*
X99282206Y-102605975D01*
X99215469Y-102845863D01*
X97609531Y-102845863D01*
X97542794Y-102605975D01*
X97294108Y-102489076D01*
X97027394Y-102422939D01*
X96752903Y-102410105D01*
X96481183Y-102451069D01*
X96222674Y-102544256D01*
X96107206Y-102605975D01*
X96040469Y-102845863D01*
X95293691Y-102845863D01*
X95174261Y-102726433D01*
X95170000Y-102723586D01*
X95170000Y-102428465D01*
X95174281Y-102384999D01*
X95170000Y-102341533D01*
X95170000Y-102341523D01*
X95157195Y-102211510D01*
X95106589Y-102044687D01*
X95024411Y-101890941D01*
X94913817Y-101756183D01*
X94880049Y-101728470D01*
X94429000Y-101277422D01*
X94429000Y-100762721D01*
X94563301Y-100599075D01*
X94676587Y-100387133D01*
X94746348Y-100157161D01*
X94764000Y-99977934D01*
X94764000Y-99158065D01*
X94746348Y-98978838D01*
X94676587Y-98748867D01*
X94623741Y-98650000D01*
X102072678Y-98650000D01*
X102110000Y-98653676D01*
X102147322Y-98650000D01*
X102147333Y-98650000D01*
X102258986Y-98639003D01*
X102402247Y-98595546D01*
X102534276Y-98524974D01*
X102650001Y-98430001D01*
X102673804Y-98400997D01*
X103520130Y-97554671D01*
X103672604Y-97585000D01*
X103947396Y-97585000D01*
X104216907Y-97531391D01*
X104470780Y-97426233D01*
X104699261Y-97273567D01*
X104893567Y-97079261D01*
X105046233Y-96850780D01*
X105151391Y-96596907D01*
X105205000Y-96327396D01*
X105205000Y-96052604D01*
X105151391Y-95783093D01*
X105046233Y-95529220D01*
X104893567Y-95300739D01*
X104699261Y-95106433D01*
X104470780Y-94953767D01*
X104216907Y-94848609D01*
X103947396Y-94795000D01*
X103672604Y-94795000D01*
X103403093Y-94848609D01*
X103149220Y-94953767D01*
X102920739Y-95106433D01*
X102726433Y-95300739D01*
X102573767Y-95529220D01*
X102540000Y-95610740D01*
X102506233Y-95529220D01*
X102353567Y-95300739D01*
X102159261Y-95106433D01*
X101930780Y-94953767D01*
X101676907Y-94848609D01*
X101407396Y-94795000D01*
X101132604Y-94795000D01*
X100863093Y-94848609D01*
X100609220Y-94953767D01*
X100380739Y-95106433D01*
X100186433Y-95300739D01*
X100033767Y-95529220D01*
X100000000Y-95610740D01*
X99966233Y-95529220D01*
X99813567Y-95300739D01*
X99619261Y-95106433D01*
X99390780Y-94953767D01*
X99136907Y-94848609D01*
X98867396Y-94795000D01*
X98592604Y-94795000D01*
X98323093Y-94848609D01*
X98069220Y-94953767D01*
X97840739Y-95106433D01*
X97646433Y-95300739D01*
X97493767Y-95529220D01*
X97460000Y-95610740D01*
X97426233Y-95529220D01*
X97273567Y-95300739D01*
X97079261Y-95106433D01*
X96850780Y-94953767D01*
X96596907Y-94848609D01*
X96327396Y-94795000D01*
X96052604Y-94795000D01*
X95783093Y-94848609D01*
X95529220Y-94953767D01*
X95300739Y-95106433D01*
X95106433Y-95300739D01*
X94953767Y-95529220D01*
X94848609Y-95783093D01*
X94795000Y-96052604D01*
X94795000Y-96327396D01*
X94848609Y-96596907D01*
X94953767Y-96850780D01*
X95106433Y-97079261D01*
X95157172Y-97130000D01*
X93778048Y-97130000D01*
X93941585Y-96885250D01*
X94091218Y-96524003D01*
X94167500Y-96140505D01*
X94167500Y-95749495D01*
X94091218Y-95365997D01*
X93941585Y-95004750D01*
X93727935Y-94685000D01*
X106272065Y-94685000D01*
X106058415Y-95004750D01*
X105908782Y-95365997D01*
X105832500Y-95749495D01*
X105832500Y-96140505D01*
X105908782Y-96524003D01*
X106058415Y-96885250D01*
X106275649Y-97210364D01*
X106552136Y-97486851D01*
X106877250Y-97704085D01*
X107238497Y-97853718D01*
X107621995Y-97930000D01*
X108013005Y-97930000D01*
X108396503Y-97853718D01*
X108757750Y-97704085D01*
X109082864Y-97486851D01*
X109315000Y-97254715D01*
X109315001Y-105315000D01*
X87185000Y-105315000D01*
X87185000Y-94685000D01*
X90637065Y-94685000D01*
X90423415Y-95004750D01*
%TA.AperFunction,Conductor*%
D15*
G36*
X90423415Y-95004750D02*
G01*
X90273782Y-95365997D01*
X90197500Y-95749495D01*
X90197500Y-96140505D01*
X90273782Y-96524003D01*
X90423415Y-96885250D01*
X90640649Y-97210364D01*
X90660027Y-97229742D01*
X90612724Y-97255026D01*
X90496999Y-97349999D01*
X90473196Y-97379003D01*
X90033003Y-97819196D01*
X90003999Y-97842999D01*
X89965427Y-97890000D01*
X89909026Y-97958724D01*
X89864372Y-98042265D01*
X89838454Y-98090754D01*
X89829135Y-98121476D01*
X89718851Y-98062528D01*
X89552255Y-98011992D01*
X89379001Y-97994928D01*
X88708999Y-97994928D01*
X88535745Y-98011992D01*
X88369149Y-98062528D01*
X88215613Y-98144595D01*
X88081038Y-98255038D01*
X87970595Y-98389613D01*
X87888528Y-98543149D01*
X87837992Y-98709745D01*
X87820928Y-98882999D01*
X87820928Y-100253001D01*
X87837992Y-100426255D01*
X87888528Y-100592851D01*
X87970595Y-100746387D01*
X88081038Y-100880962D01*
X88215613Y-100991405D01*
X88369149Y-101073472D01*
X88535745Y-101124008D01*
X88708999Y-101141072D01*
X89379001Y-101141072D01*
X89552255Y-101124008D01*
X89718851Y-101073472D01*
X89872387Y-100991405D01*
X89908579Y-100961703D01*
X90074868Y-101050587D01*
X90304839Y-101120348D01*
X90544000Y-101143903D01*
X90783162Y-101120348D01*
X91013133Y-101050587D01*
X91225075Y-100937301D01*
X91290735Y-100883415D01*
X91471801Y-101002952D01*
X91694459Y-101093735D01*
X91728750Y-101096566D01*
X91917000Y-100971624D01*
X91917000Y-99695000D01*
X91897000Y-99695000D01*
X91897000Y-99441000D01*
X91917000Y-99441000D01*
X91917000Y-99421000D01*
X92171000Y-99421000D01*
X92171000Y-99441000D01*
X92191000Y-99441000D01*
X92191000Y-99695000D01*
X92171000Y-99695000D01*
X92171000Y-100971624D01*
X92359250Y-101096566D01*
X92393541Y-101093735D01*
X92616199Y-101002952D01*
X92659000Y-100974695D01*
X92659000Y-101600531D01*
X92654719Y-101644000D01*
X92659000Y-101687469D01*
X92659000Y-101687476D01*
X92671805Y-101817489D01*
X92722411Y-101984312D01*
X92804589Y-102138058D01*
X92915183Y-102272817D01*
X92948956Y-102300534D01*
X93385297Y-102736875D01*
X93201433Y-102920739D01*
X93048767Y-103149220D01*
X93015000Y-103230740D01*
X92981233Y-103149220D01*
X92828567Y-102920739D01*
X92634261Y-102726433D01*
X92405780Y-102573767D01*
X92151907Y-102468609D01*
X91882396Y-102415000D01*
X91607604Y-102415000D01*
X91338093Y-102468609D01*
X91084220Y-102573767D01*
X90855739Y-102726433D01*
X90661433Y-102920739D01*
X90508767Y-103149220D01*
X90403609Y-103403093D01*
X90350000Y-103672604D01*
X90350000Y-103947396D01*
X90403609Y-104216907D01*
X90508767Y-104470780D01*
X90661433Y-104699261D01*
X90855739Y-104893567D01*
X91084220Y-105046233D01*
X91338093Y-105151391D01*
X91607604Y-105205000D01*
X91882396Y-105205000D01*
X92151907Y-105151391D01*
X92405780Y-105046233D01*
X92634261Y-104893567D01*
X92828567Y-104699261D01*
X92981233Y-104470780D01*
X93015000Y-104389260D01*
X93048767Y-104470780D01*
X93201433Y-104699261D01*
X93395739Y-104893567D01*
X93624220Y-105046233D01*
X93878093Y-105151391D01*
X94147604Y-105205000D01*
X94422396Y-105205000D01*
X94691907Y-105151391D01*
X94945780Y-105046233D01*
X95174261Y-104893567D01*
X95293691Y-104774137D01*
X96040469Y-104774137D01*
X96107206Y-105014025D01*
X96355892Y-105130924D01*
X96622606Y-105197061D01*
X96897097Y-105209895D01*
X97168817Y-105168931D01*
X97427326Y-105075744D01*
X97542794Y-105014025D01*
X97609531Y-104774137D01*
X99215469Y-104774137D01*
X99282206Y-105014025D01*
X99530892Y-105130924D01*
X99797606Y-105197061D01*
X100072097Y-105209895D01*
X100343817Y-105168931D01*
X100602326Y-105075744D01*
X100717794Y-105014025D01*
X100784531Y-104774137D01*
X101755469Y-104774137D01*
X101822206Y-105014025D01*
X102070892Y-105130924D01*
X102337606Y-105197061D01*
X102612097Y-105209895D01*
X102883817Y-105168931D01*
X103142326Y-105075744D01*
X103257794Y-105014025D01*
X103324531Y-104774137D01*
X104295469Y-104774137D01*
X104362206Y-105014025D01*
X104610892Y-105130924D01*
X104877606Y-105197061D01*
X105152097Y-105209895D01*
X105423817Y-105168931D01*
X105682326Y-105075744D01*
X105797794Y-105014025D01*
X105864531Y-104774137D01*
X105080000Y-103989605D01*
X104295469Y-104774137D01*
X103324531Y-104774137D01*
X102540000Y-103989605D01*
X101755469Y-104774137D01*
X100784531Y-104774137D01*
X100000000Y-103989605D01*
X99215469Y-104774137D01*
X97609531Y-104774137D01*
X96825000Y-103989605D01*
X96040469Y-104774137D01*
X95293691Y-104774137D01*
X95368567Y-104699261D01*
X95521233Y-104470780D01*
X95552830Y-104394499D01*
X95559256Y-104412326D01*
X95620975Y-104527794D01*
X95860863Y-104594531D01*
X96645395Y-103810000D01*
X97004605Y-103810000D01*
X97789137Y-104594531D01*
X98029025Y-104527794D01*
X98145924Y-104279108D01*
X98212061Y-104012394D01*
X98218153Y-103882097D01*
X98600105Y-103882097D01*
X98641069Y-104153817D01*
X98734256Y-104412326D01*
X98795975Y-104527794D01*
X99035863Y-104594531D01*
X99820395Y-103810000D01*
X100179605Y-103810000D01*
X100964137Y-104594531D01*
X101204025Y-104527794D01*
X101267332Y-104393118D01*
X101274256Y-104412326D01*
X101335975Y-104527794D01*
X101575863Y-104594531D01*
X102360395Y-103810000D01*
X102719605Y-103810000D01*
X103504137Y-104594531D01*
X103744025Y-104527794D01*
X103807332Y-104393118D01*
X103814256Y-104412326D01*
X103875975Y-104527794D01*
X104115863Y-104594531D01*
X104900395Y-103810000D01*
X105259605Y-103810000D01*
X106044137Y-104594531D01*
X106284025Y-104527794D01*
X106349600Y-104388293D01*
X106383767Y-104470780D01*
X106536433Y-104699261D01*
X106730739Y-104893567D01*
X106959220Y-105046233D01*
X107213093Y-105151391D01*
X107482604Y-105205000D01*
X107757396Y-105205000D01*
X108026907Y-105151391D01*
X108280780Y-105046233D01*
X108509261Y-104893567D01*
X108703567Y-104699261D01*
X108856233Y-104470780D01*
X108961391Y-104216907D01*
X109015000Y-103947396D01*
X109015000Y-103672604D01*
X108961391Y-103403093D01*
X108856233Y-103149220D01*
X108703567Y-102920739D01*
X108509261Y-102726433D01*
X108280780Y-102573767D01*
X108026907Y-102468609D01*
X107757396Y-102415000D01*
X107482604Y-102415000D01*
X107213093Y-102468609D01*
X106959220Y-102573767D01*
X106730739Y-102726433D01*
X106536433Y-102920739D01*
X106383767Y-103149220D01*
X106352170Y-103225501D01*
X106345744Y-103207674D01*
X106284025Y-103092206D01*
X106044137Y-103025469D01*
X105259605Y-103810000D01*
X104900395Y-103810000D01*
X104115863Y-103025469D01*
X103875975Y-103092206D01*
X103812668Y-103226882D01*
X103805744Y-103207674D01*
X103744025Y-103092206D01*
X103504137Y-103025469D01*
X102719605Y-103810000D01*
X102360395Y-103810000D01*
X101575863Y-103025469D01*
X101335975Y-103092206D01*
X101272668Y-103226882D01*
X101265744Y-103207674D01*
X101204025Y-103092206D01*
X100964137Y-103025469D01*
X100179605Y-103810000D01*
X99820395Y-103810000D01*
X99035863Y-103025469D01*
X98795975Y-103092206D01*
X98679076Y-103340892D01*
X98612939Y-103607606D01*
X98600105Y-103882097D01*
X98218153Y-103882097D01*
X98224895Y-103737903D01*
X98183931Y-103466183D01*
X98090744Y-103207674D01*
X98029025Y-103092206D01*
X97789137Y-103025469D01*
X97004605Y-103810000D01*
X96645395Y-103810000D01*
X95860863Y-103025469D01*
X95620975Y-103092206D01*
X95555400Y-103231707D01*
X95521233Y-103149220D01*
X95368567Y-102920739D01*
X95293691Y-102845863D01*
X96040469Y-102845863D01*
X96825000Y-103630395D01*
X97609531Y-102845863D01*
X99215469Y-102845863D01*
X100000000Y-103630395D01*
X100784531Y-102845863D01*
X101755469Y-102845863D01*
X102540000Y-103630395D01*
X103324531Y-102845863D01*
X104295469Y-102845863D01*
X105080000Y-103630395D01*
X105864531Y-102845863D01*
X105797794Y-102605975D01*
X105549108Y-102489076D01*
X105282394Y-102422939D01*
X105007903Y-102410105D01*
X104736183Y-102451069D01*
X104477674Y-102544256D01*
X104362206Y-102605975D01*
X104295469Y-102845863D01*
X103324531Y-102845863D01*
X103257794Y-102605975D01*
X103009108Y-102489076D01*
X102742394Y-102422939D01*
X102467903Y-102410105D01*
X102196183Y-102451069D01*
X101937674Y-102544256D01*
X101822206Y-102605975D01*
X101755469Y-102845863D01*
X100784531Y-102845863D01*
X100717794Y-102605975D01*
X100469108Y-102489076D01*
X100202394Y-102422939D01*
X99927903Y-102410105D01*
X99656183Y-102451069D01*
X99397674Y-102544256D01*
X99282206Y-102605975D01*
X99215469Y-102845863D01*
X97609531Y-102845863D01*
X97542794Y-102605975D01*
X97294108Y-102489076D01*
X97027394Y-102422939D01*
X96752903Y-102410105D01*
X96481183Y-102451069D01*
X96222674Y-102544256D01*
X96107206Y-102605975D01*
X96040469Y-102845863D01*
X95293691Y-102845863D01*
X95174261Y-102726433D01*
X95170000Y-102723586D01*
X95170000Y-102428465D01*
X95174281Y-102384999D01*
X95170000Y-102341533D01*
X95170000Y-102341523D01*
X95157195Y-102211510D01*
X95106589Y-102044687D01*
X95024411Y-101890941D01*
X94913817Y-101756183D01*
X94880049Y-101728470D01*
X94429000Y-101277422D01*
X94429000Y-100762721D01*
X94563301Y-100599075D01*
X94676587Y-100387133D01*
X94746348Y-100157161D01*
X94764000Y-99977934D01*
X94764000Y-99158065D01*
X94746348Y-98978838D01*
X94676587Y-98748867D01*
X94623741Y-98650000D01*
X102072678Y-98650000D01*
X102110000Y-98653676D01*
X102147322Y-98650000D01*
X102147333Y-98650000D01*
X102258986Y-98639003D01*
X102402247Y-98595546D01*
X102534276Y-98524974D01*
X102650001Y-98430001D01*
X102673804Y-98400997D01*
X103520130Y-97554671D01*
X103672604Y-97585000D01*
X103947396Y-97585000D01*
X104216907Y-97531391D01*
X104470780Y-97426233D01*
X104699261Y-97273567D01*
X104893567Y-97079261D01*
X105046233Y-96850780D01*
X105151391Y-96596907D01*
X105205000Y-96327396D01*
X105205000Y-96052604D01*
X105151391Y-95783093D01*
X105046233Y-95529220D01*
X104893567Y-95300739D01*
X104699261Y-95106433D01*
X104470780Y-94953767D01*
X104216907Y-94848609D01*
X103947396Y-94795000D01*
X103672604Y-94795000D01*
X103403093Y-94848609D01*
X103149220Y-94953767D01*
X102920739Y-95106433D01*
X102726433Y-95300739D01*
X102573767Y-95529220D01*
X102540000Y-95610740D01*
X102506233Y-95529220D01*
X102353567Y-95300739D01*
X102159261Y-95106433D01*
X101930780Y-94953767D01*
X101676907Y-94848609D01*
X101407396Y-94795000D01*
X101132604Y-94795000D01*
X100863093Y-94848609D01*
X100609220Y-94953767D01*
X100380739Y-95106433D01*
X100186433Y-95300739D01*
X100033767Y-95529220D01*
X100000000Y-95610740D01*
X99966233Y-95529220D01*
X99813567Y-95300739D01*
X99619261Y-95106433D01*
X99390780Y-94953767D01*
X99136907Y-94848609D01*
X98867396Y-94795000D01*
X98592604Y-94795000D01*
X98323093Y-94848609D01*
X98069220Y-94953767D01*
X97840739Y-95106433D01*
X97646433Y-95300739D01*
X97493767Y-95529220D01*
X97460000Y-95610740D01*
X97426233Y-95529220D01*
X97273567Y-95300739D01*
X97079261Y-95106433D01*
X96850780Y-94953767D01*
X96596907Y-94848609D01*
X96327396Y-94795000D01*
X96052604Y-94795000D01*
X95783093Y-94848609D01*
X95529220Y-94953767D01*
X95300739Y-95106433D01*
X95106433Y-95300739D01*
X94953767Y-95529220D01*
X94848609Y-95783093D01*
X94795000Y-96052604D01*
X94795000Y-96327396D01*
X94848609Y-96596907D01*
X94953767Y-96850780D01*
X95106433Y-97079261D01*
X95157172Y-97130000D01*
X93778048Y-97130000D01*
X93941585Y-96885250D01*
X94091218Y-96524003D01*
X94167500Y-96140505D01*
X94167500Y-95749495D01*
X94091218Y-95365997D01*
X93941585Y-95004750D01*
X93727935Y-94685000D01*
X106272065Y-94685000D01*
X106058415Y-95004750D01*
X105908782Y-95365997D01*
X105832500Y-95749495D01*
X105832500Y-96140505D01*
X105908782Y-96524003D01*
X106058415Y-96885250D01*
X106275649Y-97210364D01*
X106552136Y-97486851D01*
X106877250Y-97704085D01*
X107238497Y-97853718D01*
X107621995Y-97930000D01*
X108013005Y-97930000D01*
X108396503Y-97853718D01*
X108757750Y-97704085D01*
X109082864Y-97486851D01*
X109315000Y-97254715D01*
X109315001Y-105315000D01*
X87185000Y-105315000D01*
X87185000Y-94685000D01*
X90637065Y-94685000D01*
X90423415Y-95004750D01*
G37*
%TD.AperFunction*%
%TD*%
M02*
