%TF.GenerationSoftware,KiCad,Pcbnew,5.1.9-73d0e3b20d~88~ubuntu20.04.1*%
%TF.CreationDate,2021-04-02T21:11:18-07:00*%
%TF.ProjectId,ld06_adapter,6c643036-5f61-4646-9170-7465722e6b69,A*%
%TF.SameCoordinates,Original*%
%TF.FileFunction,Legend,Top*%
%TF.FilePolarity,Positive*%
%FSLAX46Y46*%
G04 Gerber Fmt 4.6, Leading zero omitted, Abs format (unit mm)*
G04 Created by KiCad (PCBNEW 5.1.9-73d0e3b20d~88~ubuntu20.04.1) date 2021-04-02 21:11:18*
%MOMM*%
%LPD*%
G01*
G04 APERTURE LIST*
%ADD10C,0.150000*%
%ADD11C,0.250000*%
%ADD12C,0.120000*%
%ADD13C,0.200000*%
G04 APERTURE END LIST*
D10*
X101577142Y-98487857D02*
X101541428Y-98523571D01*
X101434285Y-98559285D01*
X101362857Y-98559285D01*
X101255714Y-98523571D01*
X101184285Y-98452142D01*
X101148571Y-98380714D01*
X101112857Y-98237857D01*
X101112857Y-98130714D01*
X101148571Y-97987857D01*
X101184285Y-97916428D01*
X101255714Y-97845000D01*
X101362857Y-97809285D01*
X101434285Y-97809285D01*
X101541428Y-97845000D01*
X101577142Y-97880714D01*
X101898571Y-98559285D02*
X101898571Y-97809285D01*
X102327142Y-98559285D01*
X102327142Y-97809285D01*
X103077142Y-98559285D02*
X102648571Y-98559285D01*
X102862857Y-98559285D02*
X102862857Y-97809285D01*
X102791428Y-97916428D01*
X102720000Y-97987857D01*
X102648571Y-98023571D01*
X103827142Y-98487857D02*
X103791428Y-98523571D01*
X103684285Y-98559285D01*
X103612857Y-98559285D01*
X103505714Y-98523571D01*
X103434285Y-98452142D01*
X103398571Y-98380714D01*
X103362857Y-98237857D01*
X103362857Y-98130714D01*
X103398571Y-97987857D01*
X103434285Y-97916428D01*
X103505714Y-97845000D01*
X103612857Y-97809285D01*
X103684285Y-97809285D01*
X103791428Y-97845000D01*
X103827142Y-97880714D01*
X105997142Y-102117857D02*
X105961428Y-102153571D01*
X105854285Y-102189285D01*
X105782857Y-102189285D01*
X105675714Y-102153571D01*
X105604285Y-102082142D01*
X105568571Y-102010714D01*
X105532857Y-101867857D01*
X105532857Y-101760714D01*
X105568571Y-101617857D01*
X105604285Y-101546428D01*
X105675714Y-101475000D01*
X105782857Y-101439285D01*
X105854285Y-101439285D01*
X105961428Y-101475000D01*
X105997142Y-101510714D01*
X106318571Y-102189285D02*
X106318571Y-101439285D01*
X106747142Y-102189285D01*
X106747142Y-101439285D01*
X107497142Y-102189285D02*
X107068571Y-102189285D01*
X107282857Y-102189285D02*
X107282857Y-101439285D01*
X107211428Y-101546428D01*
X107140000Y-101617857D01*
X107068571Y-101653571D01*
X108068571Y-101796428D02*
X108175714Y-101832142D01*
X108211428Y-101867857D01*
X108247142Y-101939285D01*
X108247142Y-102046428D01*
X108211428Y-102117857D01*
X108175714Y-102153571D01*
X108104285Y-102189285D01*
X107818571Y-102189285D01*
X107818571Y-101439285D01*
X108068571Y-101439285D01*
X108140000Y-101475000D01*
X108175714Y-101510714D01*
X108211428Y-101582142D01*
X108211428Y-101653571D01*
X108175714Y-101725000D01*
X108140000Y-101760714D01*
X108068571Y-101796428D01*
X107818571Y-101796428D01*
X89481428Y-103535000D02*
X89838571Y-103535000D01*
X89410000Y-103749285D02*
X89660000Y-102999285D01*
X89910000Y-103749285D01*
D11*
X87361803Y-97140000D02*
G75*
G03*
X87361803Y-97140000I-111803J0D01*
G01*
D12*
X95954853Y-97810000D02*
G75*
G03*
X95954853Y-97810000I-84853J0D01*
G01*
D10*
X106009642Y-99041785D02*
X105759642Y-98684642D01*
X105581071Y-99041785D02*
X105581071Y-98291785D01*
X105866785Y-98291785D01*
X105938214Y-98327500D01*
X105973928Y-98363214D01*
X106009642Y-98434642D01*
X106009642Y-98541785D01*
X105973928Y-98613214D01*
X105938214Y-98648928D01*
X105866785Y-98684642D01*
X105581071Y-98684642D01*
X106331071Y-98648928D02*
X106581071Y-98648928D01*
X106688214Y-99041785D02*
X106331071Y-99041785D01*
X106331071Y-98291785D01*
X106688214Y-98291785D01*
X106902500Y-98291785D02*
X107152500Y-99041785D01*
X107402500Y-98291785D01*
X107652500Y-98970357D02*
X107688214Y-99006071D01*
X107652500Y-99041785D01*
X107616785Y-99006071D01*
X107652500Y-98970357D01*
X107652500Y-99041785D01*
X108831071Y-98648928D02*
X108938214Y-98684642D01*
X108973928Y-98720357D01*
X109009642Y-98791785D01*
X109009642Y-98898928D01*
X108973928Y-98970357D01*
X108938214Y-99006071D01*
X108866785Y-99041785D01*
X108581071Y-99041785D01*
X108581071Y-98291785D01*
X108831071Y-98291785D01*
X108902500Y-98327500D01*
X108938214Y-98363214D01*
X108973928Y-98434642D01*
X108973928Y-98506071D01*
X108938214Y-98577500D01*
X108902500Y-98613214D01*
X108831071Y-98648928D01*
X108581071Y-98648928D01*
X103366785Y-100316785D02*
X102938214Y-100316785D01*
X103152500Y-100316785D02*
X103152500Y-99566785D01*
X103081071Y-99673928D01*
X103009642Y-99745357D01*
X102938214Y-99781071D01*
X104009642Y-99816785D02*
X104009642Y-100316785D01*
X103831071Y-99531071D02*
X103652500Y-100066785D01*
X104116785Y-100066785D01*
X104652500Y-99923928D02*
X104402500Y-99923928D01*
X104402500Y-100316785D02*
X104402500Y-99566785D01*
X104759642Y-99566785D01*
X105045357Y-99923928D02*
X105295357Y-99923928D01*
X105402500Y-100316785D02*
X105045357Y-100316785D01*
X105045357Y-99566785D01*
X105402500Y-99566785D01*
X105973928Y-99923928D02*
X106081071Y-99959642D01*
X106116785Y-99995357D01*
X106152500Y-100066785D01*
X106152500Y-100173928D01*
X106116785Y-100245357D01*
X106081071Y-100281071D01*
X106009642Y-100316785D01*
X105723928Y-100316785D01*
X105723928Y-99566785D01*
X105973928Y-99566785D01*
X106045357Y-99602500D01*
X106081071Y-99638214D01*
X106116785Y-99709642D01*
X106116785Y-99781071D01*
X106081071Y-99852500D01*
X106045357Y-99888214D01*
X105973928Y-99923928D01*
X105723928Y-99923928D01*
X106438214Y-99638214D02*
X106473928Y-99602500D01*
X106545357Y-99566785D01*
X106723928Y-99566785D01*
X106795357Y-99602500D01*
X106831071Y-99638214D01*
X106866785Y-99709642D01*
X106866785Y-99781071D01*
X106831071Y-99888214D01*
X106402500Y-100316785D01*
X106866785Y-100316785D01*
X107331071Y-99566785D02*
X107402500Y-99566785D01*
X107473928Y-99602500D01*
X107509642Y-99638214D01*
X107545357Y-99709642D01*
X107581071Y-99852500D01*
X107581071Y-100031071D01*
X107545357Y-100173928D01*
X107509642Y-100245357D01*
X107473928Y-100281071D01*
X107402500Y-100316785D01*
X107331071Y-100316785D01*
X107259642Y-100281071D01*
X107223928Y-100245357D01*
X107188214Y-100173928D01*
X107152500Y-100031071D01*
X107152500Y-99852500D01*
X107188214Y-99709642D01*
X107223928Y-99638214D01*
X107259642Y-99602500D01*
X107331071Y-99566785D01*
X107866785Y-99638214D02*
X107902500Y-99602500D01*
X107973928Y-99566785D01*
X108152500Y-99566785D01*
X108223928Y-99602500D01*
X108259642Y-99638214D01*
X108295357Y-99709642D01*
X108295357Y-99781071D01*
X108259642Y-99888214D01*
X107831071Y-100316785D01*
X108295357Y-100316785D01*
X109009642Y-100316785D02*
X108581071Y-100316785D01*
X108795357Y-100316785D02*
X108795357Y-99566785D01*
X108723928Y-99673928D01*
X108652500Y-99745357D01*
X108581071Y-99781071D01*
X97336071Y-98814285D02*
X97336071Y-98064285D01*
X97336071Y-98421428D02*
X97764642Y-98421428D01*
X97764642Y-98814285D02*
X97764642Y-98064285D01*
X98550357Y-98814285D02*
X98300357Y-98457142D01*
X98121785Y-98814285D02*
X98121785Y-98064285D01*
X98407500Y-98064285D01*
X98478928Y-98100000D01*
X98514642Y-98135714D01*
X98550357Y-98207142D01*
X98550357Y-98314285D01*
X98514642Y-98385714D01*
X98478928Y-98421428D01*
X98407500Y-98457142D01*
X98121785Y-98457142D01*
X98836071Y-98135714D02*
X98871785Y-98100000D01*
X98943214Y-98064285D01*
X99121785Y-98064285D01*
X99193214Y-98100000D01*
X99228928Y-98135714D01*
X99264642Y-98207142D01*
X99264642Y-98278571D01*
X99228928Y-98385714D01*
X98800357Y-98814285D01*
X99264642Y-98814285D01*
X97693214Y-100089285D02*
X97336071Y-100089285D01*
X97336071Y-99339285D01*
X97943214Y-100089285D02*
X97943214Y-99339285D01*
X98121785Y-99339285D01*
X98228928Y-99375000D01*
X98300357Y-99446428D01*
X98336071Y-99517857D01*
X98371785Y-99660714D01*
X98371785Y-99767857D01*
X98336071Y-99910714D01*
X98300357Y-99982142D01*
X98228928Y-100053571D01*
X98121785Y-100089285D01*
X97943214Y-100089285D01*
X98836071Y-99339285D02*
X98907500Y-99339285D01*
X98978928Y-99375000D01*
X99014642Y-99410714D01*
X99050357Y-99482142D01*
X99086071Y-99625000D01*
X99086071Y-99803571D01*
X99050357Y-99946428D01*
X99014642Y-100017857D01*
X98978928Y-100053571D01*
X98907500Y-100089285D01*
X98836071Y-100089285D01*
X98764642Y-100053571D01*
X98728928Y-100017857D01*
X98693214Y-99946428D01*
X98657500Y-99803571D01*
X98657500Y-99625000D01*
X98693214Y-99482142D01*
X98728928Y-99410714D01*
X98764642Y-99375000D01*
X98836071Y-99339285D01*
X99728928Y-99339285D02*
X99586071Y-99339285D01*
X99514642Y-99375000D01*
X99478928Y-99410714D01*
X99407500Y-99517857D01*
X99371785Y-99660714D01*
X99371785Y-99946428D01*
X99407500Y-100017857D01*
X99443214Y-100053571D01*
X99514642Y-100089285D01*
X99657500Y-100089285D01*
X99728928Y-100053571D01*
X99764642Y-100017857D01*
X99800357Y-99946428D01*
X99800357Y-99767857D01*
X99764642Y-99696428D01*
X99728928Y-99660714D01*
X99657500Y-99625000D01*
X99514642Y-99625000D01*
X99443214Y-99660714D01*
X99407500Y-99696428D01*
X99371785Y-99767857D01*
X97300357Y-101150000D02*
X97657500Y-101150000D01*
X97228928Y-101364285D02*
X97478928Y-100614285D01*
X97728928Y-101364285D01*
X97978928Y-101364285D02*
X97978928Y-100614285D01*
X98157500Y-100614285D01*
X98264642Y-100650000D01*
X98336071Y-100721428D01*
X98371785Y-100792857D01*
X98407500Y-100935714D01*
X98407500Y-101042857D01*
X98371785Y-101185714D01*
X98336071Y-101257142D01*
X98264642Y-101328571D01*
X98157500Y-101364285D01*
X97978928Y-101364285D01*
X98693214Y-101150000D02*
X99050357Y-101150000D01*
X98621785Y-101364285D02*
X98871785Y-100614285D01*
X99121785Y-101364285D01*
X99371785Y-101364285D02*
X99371785Y-100614285D01*
X99657500Y-100614285D01*
X99728928Y-100650000D01*
X99764642Y-100685714D01*
X99800357Y-100757142D01*
X99800357Y-100864285D01*
X99764642Y-100935714D01*
X99728928Y-100971428D01*
X99657500Y-101007142D01*
X99371785Y-101007142D01*
X100014642Y-100614285D02*
X100443214Y-100614285D01*
X100228928Y-101364285D02*
X100228928Y-100614285D01*
X100693214Y-100971428D02*
X100943214Y-100971428D01*
X101050357Y-101364285D02*
X100693214Y-101364285D01*
X100693214Y-100614285D01*
X101050357Y-100614285D01*
X101800357Y-101364285D02*
X101550357Y-101007142D01*
X101371785Y-101364285D02*
X101371785Y-100614285D01*
X101657500Y-100614285D01*
X101728928Y-100650000D01*
X101764642Y-100685714D01*
X101800357Y-100757142D01*
X101800357Y-100864285D01*
X101764642Y-100935714D01*
X101728928Y-100971428D01*
X101657500Y-101007142D01*
X101371785Y-101007142D01*
D13*
%TO.C,CN1*%
X98100000Y-105080000D02*
X98100000Y-102540000D01*
X90470000Y-105080000D02*
X98100000Y-105080000D01*
X90470000Y-102540000D02*
X90470000Y-105080000D01*
X98100000Y-102540000D02*
X90470000Y-102540000D01*
X90550000Y-101980000D02*
X90570000Y-101910000D01*
X90470000Y-102000000D02*
X90550000Y-101980000D01*
X90400000Y-101980000D02*
X90470000Y-102000000D01*
X90380000Y-101910000D02*
X90400000Y-101980000D01*
X90400000Y-101830000D02*
X90380000Y-101910000D01*
X90470000Y-101810000D02*
X90400000Y-101830000D01*
X90550000Y-101830000D02*
X90470000Y-101810000D01*
X90570000Y-101910000D02*
X90550000Y-101830000D01*
X108890000Y-105080000D02*
X108890000Y-102540000D01*
X98730000Y-105080000D02*
X108890000Y-105080000D01*
X98730000Y-102540000D02*
X98730000Y-105080000D01*
X108890000Y-102540000D02*
X98730000Y-102540000D01*
X98800000Y-101980000D02*
X98830000Y-101910000D01*
X98730000Y-102000000D02*
X98800000Y-101980000D01*
X98660000Y-101980000D02*
X98730000Y-102000000D01*
X98630000Y-101910000D02*
X98660000Y-101980000D01*
X98660000Y-101830000D02*
X98630000Y-101910000D01*
X98730000Y-101810000D02*
X98660000Y-101830000D01*
X98800000Y-101830000D02*
X98730000Y-101810000D01*
X98830000Y-101910000D02*
X98800000Y-101830000D01*
X105080000Y-97460000D02*
X105080000Y-94920000D01*
X94920000Y-97460000D02*
X105080000Y-97460000D01*
X94920000Y-94920000D02*
X94920000Y-97460000D01*
X105080000Y-94920000D02*
X94920000Y-94920000D01*
X94990000Y-94360000D02*
X95020000Y-94290000D01*
X94920000Y-94380000D02*
X94990000Y-94360000D01*
X94850000Y-94360000D02*
X94920000Y-94380000D01*
X94820000Y-94290000D02*
X94850000Y-94360000D01*
X94850000Y-94210000D02*
X94820000Y-94290000D01*
X94920000Y-94190000D02*
X94850000Y-94210000D01*
X94990000Y-94210000D02*
X94920000Y-94190000D01*
X95020000Y-94290000D02*
X94990000Y-94210000D01*
D12*
%TO.C,CN2*%
X87434000Y-98158000D02*
X87434000Y-101878000D01*
X87434000Y-101878000D02*
X95154000Y-101878000D01*
X95154000Y-101878000D02*
X95154000Y-98158000D01*
X95154000Y-98158000D02*
X87434000Y-98158000D01*
X87434000Y-99218000D02*
X87634000Y-99218000D01*
X87634000Y-99218000D02*
X87634000Y-98358000D01*
X87634000Y-98358000D02*
X94954000Y-98358000D01*
X94954000Y-98358000D02*
X94954000Y-99218000D01*
X94954000Y-99218000D02*
X95154000Y-99218000D01*
X87634000Y-99218000D02*
X87634000Y-99918000D01*
X87634000Y-99918000D02*
X87434000Y-99918000D01*
X94954000Y-99218000D02*
X94954000Y-99918000D01*
X94954000Y-99918000D02*
X95154000Y-99918000D01*
X87634000Y-99918000D02*
X87634000Y-101678000D01*
X87634000Y-101678000D02*
X94954000Y-101678000D01*
X94954000Y-101678000D02*
X94954000Y-99918000D01*
X88384000Y-97858000D02*
X87134000Y-97858000D01*
X87134000Y-97858000D02*
X87134000Y-99108000D01*
%TO.C,CN1*%
D10*
X88522142Y-97407857D02*
X88486428Y-97443571D01*
X88379285Y-97479285D01*
X88307857Y-97479285D01*
X88200714Y-97443571D01*
X88129285Y-97372142D01*
X88093571Y-97300714D01*
X88057857Y-97157857D01*
X88057857Y-97050714D01*
X88093571Y-96907857D01*
X88129285Y-96836428D01*
X88200714Y-96765000D01*
X88307857Y-96729285D01*
X88379285Y-96729285D01*
X88486428Y-96765000D01*
X88522142Y-96800714D01*
X88843571Y-97479285D02*
X88843571Y-96729285D01*
X89272142Y-97479285D01*
X89272142Y-96729285D01*
X90022142Y-97479285D02*
X89593571Y-97479285D01*
X89807857Y-97479285D02*
X89807857Y-96729285D01*
X89736428Y-96836428D01*
X89665000Y-96907857D01*
X89593571Y-96943571D01*
%TO.C,CN2*%
X87612142Y-103647857D02*
X87576428Y-103683571D01*
X87469285Y-103719285D01*
X87397857Y-103719285D01*
X87290714Y-103683571D01*
X87219285Y-103612142D01*
X87183571Y-103540714D01*
X87147857Y-103397857D01*
X87147857Y-103290714D01*
X87183571Y-103147857D01*
X87219285Y-103076428D01*
X87290714Y-103005000D01*
X87397857Y-102969285D01*
X87469285Y-102969285D01*
X87576428Y-103005000D01*
X87612142Y-103040714D01*
X87933571Y-103719285D02*
X87933571Y-102969285D01*
X88362142Y-103719285D01*
X88362142Y-102969285D01*
X88683571Y-103040714D02*
X88719285Y-103005000D01*
X88790714Y-102969285D01*
X88969285Y-102969285D01*
X89040714Y-103005000D01*
X89076428Y-103040714D01*
X89112142Y-103112142D01*
X89112142Y-103183571D01*
X89076428Y-103290714D01*
X88647857Y-103719285D01*
X89112142Y-103719285D01*
%TD*%
M02*
