%TF.GenerationSoftware,KiCad,Pcbnew,5.1.9-73d0e3b20d~88~ubuntu20.04.1*%
%TF.CreationDate,2021-04-11T19:31:59-07:00*%
%TF.ProjectId,encoder,656e636f-6465-4722-9e6b-696361645f70,rev?*%
%TF.SameCoordinates,Original*%
%TF.FileFunction,Copper,L1,Top*%
%TF.FilePolarity,Positive*%
%FSLAX46Y46*%
G04 Gerber Fmt 4.6, Leading zero omitted, Abs format (unit mm)*
G04 Created by KiCad (PCBNEW 5.1.9-73d0e3b20d~88~ubuntu20.04.1) date 2021-04-11 19:31:59*
%MOMM*%
%LPD*%
G01*
G04 APERTURE LIST*
%TA.AperFunction,ComponentPad*%
%ADD10O,3.300000X1.650000*%
%TD*%
%TA.AperFunction,ComponentPad*%
%ADD11C,1.520000*%
%TD*%
%TA.AperFunction,SMDPad,CuDef*%
%ADD12C,0.100000*%
%TD*%
%TA.AperFunction,ViaPad*%
%ADD13C,0.800000*%
%TD*%
%TA.AperFunction,Conductor*%
%ADD14C,0.500000*%
%TD*%
%TA.AperFunction,Conductor*%
%ADD15C,0.750000*%
%TD*%
%TA.AperFunction,Conductor*%
%ADD16C,0.250000*%
%TD*%
%TA.AperFunction,Conductor*%
%ADD17C,0.254000*%
%TD*%
%TA.AperFunction,Conductor*%
%ADD18C,0.100000*%
%TD*%
G04 APERTURE END LIST*
D10*
%TO.P,CN1,7*%
%TO.N,/MOTOR-*%
X100000000Y-93374800D03*
%TO.P,CN1,8*%
%TO.N,/MOTOR+*%
X100000000Y-106624800D03*
D11*
%TO.P,CN1,3*%
%TO.N,/QUADB*%
X92519900Y-83620000D03*
%TO.P,CN1,2*%
%TO.N,/QUADA*%
X92519900Y-81080000D03*
%TO.P,CN1,1*%
%TO.N,/GND*%
X92519900Y-78540000D03*
%TO.P,CN1,6*%
%TO.N,/MOTOR-*%
X92519900Y-121460000D03*
%TO.P,CN1,5*%
%TO.N,/MOTOR+*%
X92519900Y-118920000D03*
%TO.P,CN1,4*%
%TO.N,/VCC*%
X92519900Y-116380000D03*
%TD*%
%TO.P,C2,2*%
%TO.N,/GND*%
%TA.AperFunction,SMDPad,CuDef*%
G36*
G01*
X94612580Y-110062200D02*
X94612580Y-110562200D01*
G75*
G02*
X94387580Y-110787200I-225000J0D01*
G01*
X93937580Y-110787200D01*
G75*
G02*
X93712580Y-110562200I0J225000D01*
G01*
X93712580Y-110062200D01*
G75*
G02*
X93937580Y-109837200I225000J0D01*
G01*
X94387580Y-109837200D01*
G75*
G02*
X94612580Y-110062200I0J-225000D01*
G01*
G37*
%TD.AperFunction*%
%TO.P,C2,1*%
%TO.N,/VCC*%
%TA.AperFunction,SMDPad,CuDef*%
G36*
G01*
X96162580Y-110062200D02*
X96162580Y-110562200D01*
G75*
G02*
X95937580Y-110787200I-225000J0D01*
G01*
X95487580Y-110787200D01*
G75*
G02*
X95262580Y-110562200I0J225000D01*
G01*
X95262580Y-110062200D01*
G75*
G02*
X95487580Y-109837200I225000J0D01*
G01*
X95937580Y-109837200D01*
G75*
G02*
X96162580Y-110062200I0J-225000D01*
G01*
G37*
%TD.AperFunction*%
%TD*%
%TO.P,C1,2*%
%TO.N,/GND*%
%TA.AperFunction,SMDPad,CuDef*%
G36*
G01*
X94885000Y-89280000D02*
X94885000Y-89780000D01*
G75*
G02*
X94660000Y-90005000I-225000J0D01*
G01*
X94210000Y-90005000D01*
G75*
G02*
X93985000Y-89780000I0J225000D01*
G01*
X93985000Y-89280000D01*
G75*
G02*
X94210000Y-89055000I225000J0D01*
G01*
X94660000Y-89055000D01*
G75*
G02*
X94885000Y-89280000I0J-225000D01*
G01*
G37*
%TD.AperFunction*%
%TO.P,C1,1*%
%TO.N,/VCC*%
%TA.AperFunction,SMDPad,CuDef*%
G36*
G01*
X96435000Y-89280000D02*
X96435000Y-89780000D01*
G75*
G02*
X96210000Y-90005000I-225000J0D01*
G01*
X95760000Y-90005000D01*
G75*
G02*
X95535000Y-89780000I0J225000D01*
G01*
X95535000Y-89280000D01*
G75*
G02*
X95760000Y-89055000I225000J0D01*
G01*
X96210000Y-89055000D01*
G75*
G02*
X96435000Y-89280000I0J-225000D01*
G01*
G37*
%TD.AperFunction*%
%TD*%
%TO.P,R2,2*%
%TO.N,/QUADB*%
%TA.AperFunction,SMDPad,CuDef*%
G36*
G01*
X94755000Y-91425000D02*
X94755000Y-91975000D01*
G75*
G02*
X94555000Y-92175000I-200000J0D01*
G01*
X94155000Y-92175000D01*
G75*
G02*
X93955000Y-91975000I0J200000D01*
G01*
X93955000Y-91425000D01*
G75*
G02*
X94155000Y-91225000I200000J0D01*
G01*
X94555000Y-91225000D01*
G75*
G02*
X94755000Y-91425000I0J-200000D01*
G01*
G37*
%TD.AperFunction*%
%TO.P,R2,1*%
%TO.N,/VCC*%
%TA.AperFunction,SMDPad,CuDef*%
G36*
G01*
X96405000Y-91425000D02*
X96405000Y-91975000D01*
G75*
G02*
X96205000Y-92175000I-200000J0D01*
G01*
X95805000Y-92175000D01*
G75*
G02*
X95605000Y-91975000I0J200000D01*
G01*
X95605000Y-91425000D01*
G75*
G02*
X95805000Y-91225000I200000J0D01*
G01*
X96205000Y-91225000D01*
G75*
G02*
X96405000Y-91425000I0J-200000D01*
G01*
G37*
%TD.AperFunction*%
%TD*%
%TO.P,R1,2*%
%TO.N,/QUADA*%
%TA.AperFunction,SMDPad,CuDef*%
G36*
G01*
X94465000Y-108045000D02*
X94465000Y-108595000D01*
G75*
G02*
X94265000Y-108795000I-200000J0D01*
G01*
X93865000Y-108795000D01*
G75*
G02*
X93665000Y-108595000I0J200000D01*
G01*
X93665000Y-108045000D01*
G75*
G02*
X93865000Y-107845000I200000J0D01*
G01*
X94265000Y-107845000D01*
G75*
G02*
X94465000Y-108045000I0J-200000D01*
G01*
G37*
%TD.AperFunction*%
%TO.P,R1,1*%
%TO.N,/VCC*%
%TA.AperFunction,SMDPad,CuDef*%
G36*
G01*
X96115000Y-108045000D02*
X96115000Y-108595000D01*
G75*
G02*
X95915000Y-108795000I-200000J0D01*
G01*
X95515000Y-108795000D01*
G75*
G02*
X95315000Y-108595000I0J200000D01*
G01*
X95315000Y-108045000D01*
G75*
G02*
X95515000Y-107845000I200000J0D01*
G01*
X95915000Y-107845000D01*
G75*
G02*
X96115000Y-108045000I0J-200000D01*
G01*
G37*
%TD.AperFunction*%
%TD*%
%TA.AperFunction,SMDPad,CuDef*%
D12*
%TO.P,Q2,3*%
%TO.N,/GND*%
G36*
X96693934Y-102528248D02*
G01*
X96128248Y-103093934D01*
X95491852Y-102457538D01*
X96057538Y-101891852D01*
X96693934Y-102528248D01*
G37*
%TD.AperFunction*%
%TA.AperFunction,SMDPad,CuDef*%
%TO.P,Q2,2*%
%TO.N,/QUADA*%
G36*
X98779899Y-103270710D02*
G01*
X98214213Y-103836396D01*
X97577817Y-103200000D01*
X98143503Y-102634314D01*
X98779899Y-103270710D01*
G37*
%TD.AperFunction*%
%TA.AperFunction,SMDPad,CuDef*%
%TO.P,Q2,1*%
%TO.N,/VCC*%
G36*
X97436396Y-104614213D02*
G01*
X96870710Y-105179899D01*
X96234314Y-104543503D01*
X96800000Y-103977817D01*
X97436396Y-104614213D01*
G37*
%TD.AperFunction*%
%TD*%
%TA.AperFunction,SMDPad,CuDef*%
%TO.P,Q1,3*%
%TO.N,/GND*%
G36*
X96128248Y-96906066D02*
G01*
X96693934Y-97471752D01*
X96057538Y-98108148D01*
X95491852Y-97542462D01*
X96128248Y-96906066D01*
G37*
%TD.AperFunction*%
%TA.AperFunction,SMDPad,CuDef*%
%TO.P,Q1,2*%
%TO.N,/QUADB*%
G36*
X96870710Y-94820101D02*
G01*
X97436396Y-95385787D01*
X96800000Y-96022183D01*
X96234314Y-95456497D01*
X96870710Y-94820101D01*
G37*
%TD.AperFunction*%
%TA.AperFunction,SMDPad,CuDef*%
%TO.P,Q1,1*%
%TO.N,/VCC*%
G36*
X98214213Y-96163604D02*
G01*
X98779899Y-96729290D01*
X98143503Y-97365686D01*
X97577817Y-96800000D01*
X98214213Y-96163604D01*
G37*
%TD.AperFunction*%
%TD*%
D13*
%TO.N,/QUADB*%
X92710000Y-88138000D03*
%TO.N,/GND*%
X94600000Y-98500000D03*
X94570000Y-101060000D03*
X94190000Y-111480000D03*
X93465010Y-89650094D03*
X93472000Y-122936000D03*
X98044000Y-108204000D03*
X100584000Y-104648000D03*
%TD*%
D14*
%TO.N,/MOTOR-*%
X94289950Y-119689950D02*
X92519900Y-121460000D01*
X94289950Y-118308050D02*
X94289950Y-119689950D01*
X94996000Y-117602000D02*
X94289950Y-118308050D01*
X94996000Y-116332000D02*
X94996000Y-117602000D01*
X96693202Y-114634798D02*
X94996000Y-116332000D01*
X100330000Y-108458000D02*
X96693202Y-112094798D01*
X101112000Y-108458000D02*
X100330000Y-108458000D01*
X103886000Y-97536000D02*
X103886000Y-105684000D01*
X96693202Y-112094798D02*
X96693202Y-114634798D01*
X100000000Y-93374800D02*
X100000000Y-93650000D01*
X100000000Y-93650000D02*
X103886000Y-97536000D01*
X103886000Y-105684000D02*
X101112000Y-108458000D01*
D15*
%TO.N,/MOTOR+*%
X100029200Y-106625200D02*
X100000000Y-106625200D01*
D14*
X100000000Y-107798035D02*
X100000000Y-106624800D01*
X94234000Y-115786382D02*
X95993191Y-114027191D01*
X94234000Y-117205900D02*
X94234000Y-115786382D01*
X95993191Y-111804844D02*
X100000000Y-107798035D01*
X95993191Y-114027191D02*
X95993191Y-111804844D01*
X92519900Y-118920000D02*
X94234000Y-117205900D01*
D16*
%TO.N,/QUADB*%
X94380000Y-91725000D02*
X94355000Y-91700000D01*
X94380000Y-92965787D02*
X94380000Y-91725000D01*
X96835355Y-95421142D02*
X94380000Y-92965787D01*
X92710000Y-90455000D02*
X92710000Y-88138000D01*
X93955000Y-91700000D02*
X92710000Y-90455000D01*
X94355000Y-91700000D02*
X93955000Y-91700000D01*
%TO.N,/QUADA*%
X98200000Y-103497057D02*
X98090280Y-103606777D01*
X94065000Y-108320000D02*
X94065000Y-105915000D01*
X96744645Y-103235355D02*
X98178858Y-103235355D01*
X94065000Y-105915000D02*
X96744645Y-103235355D01*
X94390000Y-82950100D02*
X92519900Y-81080000D01*
X91749991Y-86247007D02*
X94390000Y-83606998D01*
X94390000Y-83606998D02*
X94390000Y-82950100D01*
X91749991Y-102799991D02*
X91749991Y-86247007D01*
X94065000Y-105115000D02*
X91749991Y-102799991D01*
X94065000Y-105915000D02*
X94065000Y-105115000D01*
D14*
%TO.N,/GND*%
X94600000Y-98500000D02*
X95124200Y-98500000D01*
X95124200Y-98475800D02*
X95124200Y-98500000D01*
X96092893Y-97507107D02*
X95124200Y-98475800D01*
X96092893Y-102492893D02*
X94660000Y-101060000D01*
X94660000Y-101060000D02*
X94570000Y-101060000D01*
X94162580Y-111452580D02*
X94190000Y-111480000D01*
X94162580Y-110312200D02*
X94162580Y-111452580D01*
X93585104Y-89530000D02*
X93465010Y-89650094D01*
X94435000Y-89530000D02*
X93585104Y-89530000D01*
%TO.N,/VCC*%
X95712580Y-108322420D02*
X95715000Y-108320000D01*
X95712580Y-110312200D02*
X95712580Y-108322420D01*
X96005000Y-89550000D02*
X95985000Y-89530000D01*
X96005000Y-91700000D02*
X96005000Y-89550000D01*
X96005000Y-93211000D02*
X96005000Y-91700000D01*
X98044000Y-95250000D02*
X96005000Y-93211000D01*
X98044000Y-95250000D02*
X99071952Y-95250000D01*
X98806000Y-96137503D02*
X98178858Y-96764645D01*
X98806000Y-95250000D02*
X98806000Y-96137503D01*
X99071952Y-95250000D02*
X98806000Y-95250000D01*
X95715000Y-108320000D02*
X95758000Y-108277000D01*
X95758000Y-108277000D02*
X95758000Y-106426000D01*
X96835355Y-104578858D02*
X95758000Y-105656213D01*
X95758000Y-105656213D02*
X95758000Y-106426000D01*
X99693504Y-95250000D02*
X99071952Y-95250000D01*
X103124000Y-101930200D02*
X103124000Y-97917000D01*
X101676200Y-103378000D02*
X103124000Y-101930200D01*
X99568000Y-103378000D02*
X101676200Y-103378000D01*
X98298000Y-104648000D02*
X99568000Y-103378000D01*
X100457000Y-95250000D02*
X99693504Y-95250000D01*
X96904497Y-104648000D02*
X98298000Y-104648000D01*
X103124000Y-97917000D02*
X100457000Y-95250000D01*
X96835355Y-104578858D02*
X96904497Y-104648000D01*
X92519900Y-116380000D02*
X95250000Y-113649900D01*
X95250000Y-113649900D02*
X95250000Y-110774780D01*
X95250000Y-110774780D02*
X95712580Y-110312200D01*
%TD*%
D17*
%TO.N,/GND*%
X96840000Y-122474659D02*
X96829458Y-122611703D01*
X96825749Y-122659926D01*
X96813954Y-122711036D01*
X96791495Y-122778415D01*
X96759514Y-122855168D01*
X96724904Y-122924388D01*
X96692338Y-122975563D01*
X96646606Y-123032729D01*
X96592665Y-123092663D01*
X96532739Y-123146596D01*
X96475561Y-123192339D01*
X96424388Y-123224904D01*
X96355168Y-123259514D01*
X96278418Y-123291494D01*
X96211037Y-123313954D01*
X96159926Y-123325749D01*
X96111705Y-123329458D01*
X96111703Y-123329458D01*
X95974659Y-123340000D01*
X92525341Y-123340000D01*
X92388296Y-123329458D01*
X92388295Y-123329458D01*
X92340074Y-123325749D01*
X92288964Y-123313954D01*
X92221585Y-123291495D01*
X92144832Y-123259514D01*
X92075612Y-123224904D01*
X92024437Y-123192338D01*
X91967271Y-123146606D01*
X91907337Y-123092665D01*
X91853404Y-123032739D01*
X91807661Y-122975561D01*
X91775096Y-122924388D01*
X91740486Y-122855168D01*
X91708506Y-122778418D01*
X91686046Y-122711037D01*
X91674251Y-122659926D01*
X91670542Y-122611703D01*
X91667179Y-122567982D01*
X91859120Y-122696233D01*
X92112993Y-122801391D01*
X92382504Y-122855000D01*
X92657296Y-122855000D01*
X92926807Y-122801391D01*
X93180680Y-122696233D01*
X93409161Y-122543567D01*
X93603467Y-122349261D01*
X93756133Y-122120780D01*
X93861291Y-121866907D01*
X93914900Y-121597396D01*
X93914900Y-121322604D01*
X93913900Y-121317578D01*
X94884999Y-120346480D01*
X94918767Y-120318767D01*
X95029361Y-120184009D01*
X95111539Y-120030263D01*
X95162145Y-119863440D01*
X95174950Y-119733427D01*
X95174950Y-119733419D01*
X95179231Y-119689950D01*
X95174950Y-119646481D01*
X95174950Y-118674628D01*
X95591049Y-118258530D01*
X95624817Y-118230817D01*
X95735411Y-118096059D01*
X95817589Y-117942313D01*
X95868195Y-117775490D01*
X95881000Y-117645477D01*
X95881000Y-117645467D01*
X95885281Y-117602001D01*
X95881000Y-117558535D01*
X95881000Y-116698578D01*
X96840001Y-115739578D01*
X96840000Y-122474659D01*
%TA.AperFunction,Conductor*%
D18*
G36*
X96840000Y-122474659D02*
G01*
X96829458Y-122611703D01*
X96825749Y-122659926D01*
X96813954Y-122711036D01*
X96791495Y-122778415D01*
X96759514Y-122855168D01*
X96724904Y-122924388D01*
X96692338Y-122975563D01*
X96646606Y-123032729D01*
X96592665Y-123092663D01*
X96532739Y-123146596D01*
X96475561Y-123192339D01*
X96424388Y-123224904D01*
X96355168Y-123259514D01*
X96278418Y-123291494D01*
X96211037Y-123313954D01*
X96159926Y-123325749D01*
X96111705Y-123329458D01*
X96111703Y-123329458D01*
X95974659Y-123340000D01*
X92525341Y-123340000D01*
X92388296Y-123329458D01*
X92388295Y-123329458D01*
X92340074Y-123325749D01*
X92288964Y-123313954D01*
X92221585Y-123291495D01*
X92144832Y-123259514D01*
X92075612Y-123224904D01*
X92024437Y-123192338D01*
X91967271Y-123146606D01*
X91907337Y-123092665D01*
X91853404Y-123032739D01*
X91807661Y-122975561D01*
X91775096Y-122924388D01*
X91740486Y-122855168D01*
X91708506Y-122778418D01*
X91686046Y-122711037D01*
X91674251Y-122659926D01*
X91670542Y-122611703D01*
X91667179Y-122567982D01*
X91859120Y-122696233D01*
X92112993Y-122801391D01*
X92382504Y-122855000D01*
X92657296Y-122855000D01*
X92926807Y-122801391D01*
X93180680Y-122696233D01*
X93409161Y-122543567D01*
X93603467Y-122349261D01*
X93756133Y-122120780D01*
X93861291Y-121866907D01*
X93914900Y-121597396D01*
X93914900Y-121322604D01*
X93913900Y-121317578D01*
X94884999Y-120346480D01*
X94918767Y-120318767D01*
X95029361Y-120184009D01*
X95111539Y-120030263D01*
X95162145Y-119863440D01*
X95174950Y-119733427D01*
X95174950Y-119733419D01*
X95179231Y-119689950D01*
X95174950Y-119646481D01*
X95174950Y-118674628D01*
X95591049Y-118258530D01*
X95624817Y-118230817D01*
X95735411Y-118096059D01*
X95817589Y-117942313D01*
X95868195Y-117775490D01*
X95881000Y-117645477D01*
X95881000Y-117645467D01*
X95885281Y-117602001D01*
X95881000Y-117558535D01*
X95881000Y-116698578D01*
X96840001Y-115739578D01*
X96840000Y-122474659D01*
G37*
%TD.AperFunction*%
D17*
X93305000Y-105429802D02*
X93305000Y-105877678D01*
X93301324Y-105915000D01*
X93305000Y-105952322D01*
X93305000Y-105952332D01*
X93305001Y-105952342D01*
X93305000Y-107425635D01*
X93272394Y-107452394D01*
X93168169Y-107579392D01*
X93090722Y-107724284D01*
X93043031Y-107881500D01*
X93026928Y-108045000D01*
X93026928Y-108595000D01*
X93043031Y-108758500D01*
X93090722Y-108915716D01*
X93168169Y-109060608D01*
X93272394Y-109187606D01*
X93394045Y-109287442D01*
X93358086Y-109306663D01*
X93261395Y-109386015D01*
X93182043Y-109482706D01*
X93123078Y-109593020D01*
X93086768Y-109712718D01*
X93074508Y-109837200D01*
X93077580Y-110026450D01*
X93236330Y-110185200D01*
X94035580Y-110185200D01*
X94035580Y-110165200D01*
X94289580Y-110165200D01*
X94289580Y-110185200D01*
X94309580Y-110185200D01*
X94309580Y-110439200D01*
X94289580Y-110439200D01*
X94289580Y-111263450D01*
X94365001Y-111338871D01*
X94365000Y-113283321D01*
X92662322Y-114986000D01*
X92657296Y-114985000D01*
X92382504Y-114985000D01*
X92112993Y-115038609D01*
X91859120Y-115143767D01*
X91660000Y-115276815D01*
X91660000Y-110787200D01*
X93074508Y-110787200D01*
X93086768Y-110911682D01*
X93123078Y-111031380D01*
X93182043Y-111141694D01*
X93261395Y-111238385D01*
X93358086Y-111317737D01*
X93468400Y-111376702D01*
X93588098Y-111413012D01*
X93712580Y-111425272D01*
X93876830Y-111422200D01*
X94035580Y-111263450D01*
X94035580Y-110439200D01*
X93236330Y-110439200D01*
X93077580Y-110597950D01*
X93074508Y-110787200D01*
X91660000Y-110787200D01*
X91660000Y-103784801D01*
X93305000Y-105429802D01*
%TA.AperFunction,Conductor*%
D18*
G36*
X93305000Y-105429802D02*
G01*
X93305000Y-105877678D01*
X93301324Y-105915000D01*
X93305000Y-105952322D01*
X93305000Y-105952332D01*
X93305001Y-105952342D01*
X93305000Y-107425635D01*
X93272394Y-107452394D01*
X93168169Y-107579392D01*
X93090722Y-107724284D01*
X93043031Y-107881500D01*
X93026928Y-108045000D01*
X93026928Y-108595000D01*
X93043031Y-108758500D01*
X93090722Y-108915716D01*
X93168169Y-109060608D01*
X93272394Y-109187606D01*
X93394045Y-109287442D01*
X93358086Y-109306663D01*
X93261395Y-109386015D01*
X93182043Y-109482706D01*
X93123078Y-109593020D01*
X93086768Y-109712718D01*
X93074508Y-109837200D01*
X93077580Y-110026450D01*
X93236330Y-110185200D01*
X94035580Y-110185200D01*
X94035580Y-110165200D01*
X94289580Y-110165200D01*
X94289580Y-110185200D01*
X94309580Y-110185200D01*
X94309580Y-110439200D01*
X94289580Y-110439200D01*
X94289580Y-111263450D01*
X94365001Y-111338871D01*
X94365000Y-113283321D01*
X92662322Y-114986000D01*
X92657296Y-114985000D01*
X92382504Y-114985000D01*
X92112993Y-115038609D01*
X91859120Y-115143767D01*
X91660000Y-115276815D01*
X91660000Y-110787200D01*
X93074508Y-110787200D01*
X93086768Y-110911682D01*
X93123078Y-111031380D01*
X93182043Y-111141694D01*
X93261395Y-111238385D01*
X93358086Y-111317737D01*
X93468400Y-111376702D01*
X93588098Y-111413012D01*
X93712580Y-111425272D01*
X93876830Y-111422200D01*
X94035580Y-111263450D01*
X94035580Y-110439200D01*
X93236330Y-110439200D01*
X93077580Y-110597950D01*
X93074508Y-110787200D01*
X91660000Y-110787200D01*
X91660000Y-103784801D01*
X93305000Y-105429802D01*
G37*
%TD.AperFunction*%
D17*
X96111703Y-76670542D02*
X96111705Y-76670542D01*
X96159926Y-76674251D01*
X96211037Y-76686046D01*
X96278418Y-76708506D01*
X96355168Y-76740486D01*
X96424388Y-76775096D01*
X96475561Y-76807661D01*
X96532739Y-76853404D01*
X96592665Y-76907337D01*
X96646606Y-76967271D01*
X96692338Y-77024437D01*
X96724904Y-77075612D01*
X96759514Y-77144832D01*
X96791495Y-77221585D01*
X96813954Y-77288964D01*
X96825749Y-77340074D01*
X96829458Y-77388295D01*
X96829458Y-77388296D01*
X96840001Y-77525354D01*
X96840000Y-87192974D01*
X96839458Y-87218296D01*
X96840000Y-87225342D01*
X96840000Y-87232418D01*
X96842486Y-87257657D01*
X96849458Y-87348295D01*
X96849458Y-87348296D01*
X96858281Y-87462997D01*
X96857115Y-87480190D01*
X96863256Y-87527670D01*
X96864431Y-87542943D01*
X96867415Y-87559827D01*
X96869613Y-87576818D01*
X96873055Y-87591734D01*
X96881390Y-87638889D01*
X96887643Y-87654949D01*
X96906715Y-87737597D01*
X96913618Y-87767954D01*
X96913952Y-87768956D01*
X96914192Y-87769996D01*
X96924196Y-87799688D01*
X96961254Y-87910864D01*
X96968301Y-87933920D01*
X96971493Y-87941580D01*
X96974121Y-87949465D01*
X96983960Y-87971501D01*
X97027045Y-88074906D01*
X97035180Y-88096164D01*
X97039516Y-88104837D01*
X97043239Y-88113771D01*
X97053992Y-88133787D01*
X97081339Y-88188481D01*
X97081778Y-88190055D01*
X97110393Y-88246589D01*
X97124177Y-88274157D01*
X97125043Y-88275532D01*
X97125779Y-88276987D01*
X97142382Y-88303077D01*
X97176082Y-88356613D01*
X97177205Y-88357798D01*
X97180043Y-88362259D01*
X97181259Y-88365301D01*
X97214910Y-88417050D01*
X97230589Y-88441688D01*
X97232599Y-88444252D01*
X97234375Y-88446983D01*
X97252611Y-88469777D01*
X97290703Y-88518366D01*
X97293190Y-88520501D01*
X97326365Y-88561971D01*
X97337739Y-88577419D01*
X97346603Y-88587267D01*
X97354879Y-88597613D01*
X97368271Y-88611343D01*
X97407500Y-88654931D01*
X97408703Y-88656923D01*
X97450885Y-88703138D01*
X97471113Y-88725613D01*
X97472830Y-88727180D01*
X97474387Y-88728886D01*
X97496760Y-88749022D01*
X97543077Y-88791297D01*
X97545069Y-88792500D01*
X97588660Y-88831733D01*
X97602387Y-88845121D01*
X97612725Y-88853392D01*
X97622580Y-88862261D01*
X97638035Y-88873640D01*
X97679500Y-88906812D01*
X97681634Y-88909297D01*
X97730180Y-88947356D01*
X97753016Y-88965625D01*
X97755753Y-88967405D01*
X97758312Y-88969411D01*
X97782930Y-88985077D01*
X97834698Y-89018740D01*
X97837738Y-89019955D01*
X97842202Y-89022795D01*
X97843387Y-89023918D01*
X97896923Y-89057618D01*
X97923013Y-89074221D01*
X97924468Y-89074957D01*
X97925843Y-89075823D01*
X97953411Y-89089607D01*
X98009945Y-89118222D01*
X98011519Y-89118661D01*
X98066213Y-89146008D01*
X98086229Y-89156761D01*
X98095163Y-89160484D01*
X98103836Y-89164820D01*
X98125087Y-89172952D01*
X98228499Y-89216040D01*
X98250535Y-89225879D01*
X98258420Y-89228507D01*
X98266080Y-89231699D01*
X98289133Y-89238745D01*
X98400388Y-89275830D01*
X98430004Y-89285808D01*
X98431041Y-89286047D01*
X98432045Y-89286382D01*
X98462458Y-89293297D01*
X98545052Y-89312357D01*
X98561111Y-89318610D01*
X98608263Y-89326944D01*
X98623181Y-89330387D01*
X98640175Y-89332585D01*
X98657057Y-89335569D01*
X98672329Y-89336744D01*
X98719810Y-89342885D01*
X98737003Y-89341719D01*
X98851703Y-89350542D01*
X98851705Y-89350542D01*
X98942341Y-89357514D01*
X98967581Y-89360000D01*
X98974657Y-89360000D01*
X98981703Y-89360542D01*
X99007025Y-89360000D01*
X104224659Y-89360000D01*
X104361703Y-89370542D01*
X104361705Y-89370542D01*
X104409926Y-89374251D01*
X104461037Y-89386046D01*
X104528418Y-89408506D01*
X104605168Y-89440486D01*
X104674388Y-89475096D01*
X104725561Y-89507661D01*
X104782739Y-89553404D01*
X104842665Y-89607337D01*
X104896606Y-89667271D01*
X104942338Y-89724437D01*
X104974904Y-89775612D01*
X105009514Y-89844832D01*
X105041495Y-89921585D01*
X105063954Y-89988964D01*
X105075749Y-90040074D01*
X105079458Y-90088295D01*
X105079458Y-90088296D01*
X105090001Y-90225354D01*
X105090000Y-109774659D01*
X105079458Y-109911704D01*
X105075749Y-109959926D01*
X105063954Y-110011036D01*
X105041495Y-110078415D01*
X105009514Y-110155168D01*
X104974904Y-110224388D01*
X104942338Y-110275563D01*
X104896606Y-110332729D01*
X104842665Y-110392663D01*
X104782739Y-110446596D01*
X104725561Y-110492339D01*
X104674388Y-110524904D01*
X104605168Y-110559514D01*
X104528418Y-110591494D01*
X104461037Y-110613954D01*
X104409926Y-110625749D01*
X104361705Y-110629458D01*
X104361703Y-110629458D01*
X104224659Y-110640000D01*
X99399579Y-110640000D01*
X100696579Y-109343000D01*
X101068531Y-109343000D01*
X101112000Y-109347281D01*
X101155469Y-109343000D01*
X101155477Y-109343000D01*
X101285490Y-109330195D01*
X101452313Y-109279589D01*
X101606059Y-109197411D01*
X101740817Y-109086817D01*
X101768534Y-109053044D01*
X104481049Y-106340530D01*
X104514817Y-106312817D01*
X104625411Y-106178059D01*
X104707589Y-106024313D01*
X104758195Y-105857490D01*
X104771000Y-105727477D01*
X104771000Y-105727467D01*
X104775281Y-105684001D01*
X104771000Y-105640535D01*
X104771000Y-97579469D01*
X104775281Y-97536000D01*
X104771000Y-97492531D01*
X104771000Y-97492523D01*
X104758195Y-97362510D01*
X104707589Y-97195687D01*
X104625411Y-97041941D01*
X104569218Y-96973470D01*
X104542532Y-96940953D01*
X104542530Y-96940951D01*
X104514817Y-96907183D01*
X104481050Y-96879472D01*
X101930605Y-94329027D01*
X102044819Y-94189857D01*
X102180390Y-93936221D01*
X102263875Y-93661010D01*
X102292064Y-93374800D01*
X102263875Y-93088590D01*
X102180390Y-92813379D01*
X102044819Y-92559743D01*
X101862371Y-92337429D01*
X101640057Y-92154981D01*
X101386421Y-92019410D01*
X101111210Y-91935925D01*
X100896723Y-91914800D01*
X99103277Y-91914800D01*
X98888790Y-91935925D01*
X98613579Y-92019410D01*
X98359943Y-92154981D01*
X98137629Y-92337429D01*
X97955181Y-92559743D01*
X97819610Y-92813379D01*
X97736125Y-93088590D01*
X97707936Y-93374800D01*
X97736125Y-93661010D01*
X97748986Y-93703408D01*
X96890000Y-92844422D01*
X96890000Y-92455024D01*
X96901831Y-92440608D01*
X96979278Y-92295716D01*
X97026969Y-92138500D01*
X97043072Y-91975000D01*
X97043072Y-91425000D01*
X97026969Y-91261500D01*
X96979278Y-91104284D01*
X96901831Y-90959392D01*
X96890000Y-90944976D01*
X96890000Y-90305335D01*
X96927618Y-90259497D01*
X97007375Y-90110283D01*
X97056488Y-89948377D01*
X97073072Y-89780000D01*
X97073072Y-89280000D01*
X97056488Y-89111623D01*
X97007375Y-88949717D01*
X96927618Y-88800503D01*
X96820284Y-88669716D01*
X96689497Y-88562382D01*
X96540283Y-88482625D01*
X96378377Y-88433512D01*
X96210000Y-88416928D01*
X95760000Y-88416928D01*
X95591623Y-88433512D01*
X95429717Y-88482625D01*
X95283649Y-88560700D01*
X95239494Y-88524463D01*
X95129180Y-88465498D01*
X95009482Y-88429188D01*
X94885000Y-88416928D01*
X94720750Y-88420000D01*
X94562000Y-88578750D01*
X94562000Y-89403000D01*
X94582000Y-89403000D01*
X94582000Y-89657000D01*
X94562000Y-89657000D01*
X94562000Y-89677000D01*
X94308000Y-89677000D01*
X94308000Y-89657000D01*
X94288000Y-89657000D01*
X94288000Y-89403000D01*
X94308000Y-89403000D01*
X94308000Y-88578750D01*
X94149250Y-88420000D01*
X93985000Y-88416928D01*
X93860518Y-88429188D01*
X93740820Y-88465498D01*
X93681485Y-88497214D01*
X93705226Y-88439898D01*
X93745000Y-88239939D01*
X93745000Y-88036061D01*
X93705226Y-87836102D01*
X93627205Y-87647744D01*
X93513937Y-87478226D01*
X93369774Y-87334063D01*
X93200256Y-87220795D01*
X93011898Y-87142774D01*
X92811939Y-87103000D01*
X92608061Y-87103000D01*
X92509991Y-87122507D01*
X92509991Y-86561808D01*
X94901004Y-84170796D01*
X94930001Y-84146999D01*
X95024974Y-84031274D01*
X95095546Y-83899245D01*
X95139003Y-83755984D01*
X95150000Y-83644331D01*
X95150000Y-83644330D01*
X95153677Y-83606998D01*
X95150000Y-83569665D01*
X95150000Y-82987425D01*
X95153676Y-82950100D01*
X95150000Y-82912775D01*
X95150000Y-82912767D01*
X95139003Y-82801114D01*
X95095546Y-82657853D01*
X95024974Y-82525824D01*
X94930001Y-82410099D01*
X94901003Y-82386301D01*
X93884571Y-81369870D01*
X93914900Y-81217396D01*
X93914900Y-80942604D01*
X93861291Y-80673093D01*
X93756133Y-80419220D01*
X93603467Y-80190739D01*
X93409161Y-79996433D01*
X93180680Y-79843767D01*
X93104399Y-79812170D01*
X93122226Y-79805744D01*
X93237694Y-79744025D01*
X93304431Y-79504137D01*
X92519900Y-78719605D01*
X92505758Y-78733748D01*
X92326152Y-78554142D01*
X92340295Y-78540000D01*
X92699505Y-78540000D01*
X93484037Y-79324531D01*
X93723925Y-79257794D01*
X93840824Y-79009108D01*
X93906961Y-78742394D01*
X93919795Y-78467903D01*
X93878831Y-78196183D01*
X93785644Y-77937674D01*
X93723925Y-77822206D01*
X93484037Y-77755469D01*
X92699505Y-78540000D01*
X92340295Y-78540000D01*
X92326152Y-78525858D01*
X92505758Y-78346252D01*
X92519900Y-78360395D01*
X93304431Y-77575863D01*
X93237694Y-77335975D01*
X92989008Y-77219076D01*
X92722294Y-77152939D01*
X92447803Y-77140105D01*
X92176083Y-77181069D01*
X91917574Y-77274256D01*
X91802106Y-77335975D01*
X91735369Y-77575861D01*
X91661775Y-77502267D01*
X91670542Y-77388297D01*
X91670542Y-77388295D01*
X91674251Y-77340074D01*
X91686046Y-77288963D01*
X91708506Y-77221582D01*
X91740486Y-77144832D01*
X91775096Y-77075612D01*
X91807661Y-77024439D01*
X91853404Y-76967261D01*
X91907337Y-76907335D01*
X91967271Y-76853394D01*
X92024437Y-76807662D01*
X92075612Y-76775096D01*
X92144832Y-76740486D01*
X92221585Y-76708505D01*
X92288964Y-76686046D01*
X92340074Y-76674251D01*
X92388295Y-76670542D01*
X92388296Y-76670542D01*
X92525341Y-76660000D01*
X95974659Y-76660000D01*
X96111703Y-76670542D01*
%TA.AperFunction,Conductor*%
D18*
G36*
X96111703Y-76670542D02*
G01*
X96111705Y-76670542D01*
X96159926Y-76674251D01*
X96211037Y-76686046D01*
X96278418Y-76708506D01*
X96355168Y-76740486D01*
X96424388Y-76775096D01*
X96475561Y-76807661D01*
X96532739Y-76853404D01*
X96592665Y-76907337D01*
X96646606Y-76967271D01*
X96692338Y-77024437D01*
X96724904Y-77075612D01*
X96759514Y-77144832D01*
X96791495Y-77221585D01*
X96813954Y-77288964D01*
X96825749Y-77340074D01*
X96829458Y-77388295D01*
X96829458Y-77388296D01*
X96840001Y-77525354D01*
X96840000Y-87192974D01*
X96839458Y-87218296D01*
X96840000Y-87225342D01*
X96840000Y-87232418D01*
X96842486Y-87257657D01*
X96849458Y-87348295D01*
X96849458Y-87348296D01*
X96858281Y-87462997D01*
X96857115Y-87480190D01*
X96863256Y-87527670D01*
X96864431Y-87542943D01*
X96867415Y-87559827D01*
X96869613Y-87576818D01*
X96873055Y-87591734D01*
X96881390Y-87638889D01*
X96887643Y-87654949D01*
X96906715Y-87737597D01*
X96913618Y-87767954D01*
X96913952Y-87768956D01*
X96914192Y-87769996D01*
X96924196Y-87799688D01*
X96961254Y-87910864D01*
X96968301Y-87933920D01*
X96971493Y-87941580D01*
X96974121Y-87949465D01*
X96983960Y-87971501D01*
X97027045Y-88074906D01*
X97035180Y-88096164D01*
X97039516Y-88104837D01*
X97043239Y-88113771D01*
X97053992Y-88133787D01*
X97081339Y-88188481D01*
X97081778Y-88190055D01*
X97110393Y-88246589D01*
X97124177Y-88274157D01*
X97125043Y-88275532D01*
X97125779Y-88276987D01*
X97142382Y-88303077D01*
X97176082Y-88356613D01*
X97177205Y-88357798D01*
X97180043Y-88362259D01*
X97181259Y-88365301D01*
X97214910Y-88417050D01*
X97230589Y-88441688D01*
X97232599Y-88444252D01*
X97234375Y-88446983D01*
X97252611Y-88469777D01*
X97290703Y-88518366D01*
X97293190Y-88520501D01*
X97326365Y-88561971D01*
X97337739Y-88577419D01*
X97346603Y-88587267D01*
X97354879Y-88597613D01*
X97368271Y-88611343D01*
X97407500Y-88654931D01*
X97408703Y-88656923D01*
X97450885Y-88703138D01*
X97471113Y-88725613D01*
X97472830Y-88727180D01*
X97474387Y-88728886D01*
X97496760Y-88749022D01*
X97543077Y-88791297D01*
X97545069Y-88792500D01*
X97588660Y-88831733D01*
X97602387Y-88845121D01*
X97612725Y-88853392D01*
X97622580Y-88862261D01*
X97638035Y-88873640D01*
X97679500Y-88906812D01*
X97681634Y-88909297D01*
X97730180Y-88947356D01*
X97753016Y-88965625D01*
X97755753Y-88967405D01*
X97758312Y-88969411D01*
X97782930Y-88985077D01*
X97834698Y-89018740D01*
X97837738Y-89019955D01*
X97842202Y-89022795D01*
X97843387Y-89023918D01*
X97896923Y-89057618D01*
X97923013Y-89074221D01*
X97924468Y-89074957D01*
X97925843Y-89075823D01*
X97953411Y-89089607D01*
X98009945Y-89118222D01*
X98011519Y-89118661D01*
X98066213Y-89146008D01*
X98086229Y-89156761D01*
X98095163Y-89160484D01*
X98103836Y-89164820D01*
X98125087Y-89172952D01*
X98228499Y-89216040D01*
X98250535Y-89225879D01*
X98258420Y-89228507D01*
X98266080Y-89231699D01*
X98289133Y-89238745D01*
X98400388Y-89275830D01*
X98430004Y-89285808D01*
X98431041Y-89286047D01*
X98432045Y-89286382D01*
X98462458Y-89293297D01*
X98545052Y-89312357D01*
X98561111Y-89318610D01*
X98608263Y-89326944D01*
X98623181Y-89330387D01*
X98640175Y-89332585D01*
X98657057Y-89335569D01*
X98672329Y-89336744D01*
X98719810Y-89342885D01*
X98737003Y-89341719D01*
X98851703Y-89350542D01*
X98851705Y-89350542D01*
X98942341Y-89357514D01*
X98967581Y-89360000D01*
X98974657Y-89360000D01*
X98981703Y-89360542D01*
X99007025Y-89360000D01*
X104224659Y-89360000D01*
X104361703Y-89370542D01*
X104361705Y-89370542D01*
X104409926Y-89374251D01*
X104461037Y-89386046D01*
X104528418Y-89408506D01*
X104605168Y-89440486D01*
X104674388Y-89475096D01*
X104725561Y-89507661D01*
X104782739Y-89553404D01*
X104842665Y-89607337D01*
X104896606Y-89667271D01*
X104942338Y-89724437D01*
X104974904Y-89775612D01*
X105009514Y-89844832D01*
X105041495Y-89921585D01*
X105063954Y-89988964D01*
X105075749Y-90040074D01*
X105079458Y-90088295D01*
X105079458Y-90088296D01*
X105090001Y-90225354D01*
X105090000Y-109774659D01*
X105079458Y-109911704D01*
X105075749Y-109959926D01*
X105063954Y-110011036D01*
X105041495Y-110078415D01*
X105009514Y-110155168D01*
X104974904Y-110224388D01*
X104942338Y-110275563D01*
X104896606Y-110332729D01*
X104842665Y-110392663D01*
X104782739Y-110446596D01*
X104725561Y-110492339D01*
X104674388Y-110524904D01*
X104605168Y-110559514D01*
X104528418Y-110591494D01*
X104461037Y-110613954D01*
X104409926Y-110625749D01*
X104361705Y-110629458D01*
X104361703Y-110629458D01*
X104224659Y-110640000D01*
X99399579Y-110640000D01*
X100696579Y-109343000D01*
X101068531Y-109343000D01*
X101112000Y-109347281D01*
X101155469Y-109343000D01*
X101155477Y-109343000D01*
X101285490Y-109330195D01*
X101452313Y-109279589D01*
X101606059Y-109197411D01*
X101740817Y-109086817D01*
X101768534Y-109053044D01*
X104481049Y-106340530D01*
X104514817Y-106312817D01*
X104625411Y-106178059D01*
X104707589Y-106024313D01*
X104758195Y-105857490D01*
X104771000Y-105727477D01*
X104771000Y-105727467D01*
X104775281Y-105684001D01*
X104771000Y-105640535D01*
X104771000Y-97579469D01*
X104775281Y-97536000D01*
X104771000Y-97492531D01*
X104771000Y-97492523D01*
X104758195Y-97362510D01*
X104707589Y-97195687D01*
X104625411Y-97041941D01*
X104569218Y-96973470D01*
X104542532Y-96940953D01*
X104542530Y-96940951D01*
X104514817Y-96907183D01*
X104481050Y-96879472D01*
X101930605Y-94329027D01*
X102044819Y-94189857D01*
X102180390Y-93936221D01*
X102263875Y-93661010D01*
X102292064Y-93374800D01*
X102263875Y-93088590D01*
X102180390Y-92813379D01*
X102044819Y-92559743D01*
X101862371Y-92337429D01*
X101640057Y-92154981D01*
X101386421Y-92019410D01*
X101111210Y-91935925D01*
X100896723Y-91914800D01*
X99103277Y-91914800D01*
X98888790Y-91935925D01*
X98613579Y-92019410D01*
X98359943Y-92154981D01*
X98137629Y-92337429D01*
X97955181Y-92559743D01*
X97819610Y-92813379D01*
X97736125Y-93088590D01*
X97707936Y-93374800D01*
X97736125Y-93661010D01*
X97748986Y-93703408D01*
X96890000Y-92844422D01*
X96890000Y-92455024D01*
X96901831Y-92440608D01*
X96979278Y-92295716D01*
X97026969Y-92138500D01*
X97043072Y-91975000D01*
X97043072Y-91425000D01*
X97026969Y-91261500D01*
X96979278Y-91104284D01*
X96901831Y-90959392D01*
X96890000Y-90944976D01*
X96890000Y-90305335D01*
X96927618Y-90259497D01*
X97007375Y-90110283D01*
X97056488Y-89948377D01*
X97073072Y-89780000D01*
X97073072Y-89280000D01*
X97056488Y-89111623D01*
X97007375Y-88949717D01*
X96927618Y-88800503D01*
X96820284Y-88669716D01*
X96689497Y-88562382D01*
X96540283Y-88482625D01*
X96378377Y-88433512D01*
X96210000Y-88416928D01*
X95760000Y-88416928D01*
X95591623Y-88433512D01*
X95429717Y-88482625D01*
X95283649Y-88560700D01*
X95239494Y-88524463D01*
X95129180Y-88465498D01*
X95009482Y-88429188D01*
X94885000Y-88416928D01*
X94720750Y-88420000D01*
X94562000Y-88578750D01*
X94562000Y-89403000D01*
X94582000Y-89403000D01*
X94582000Y-89657000D01*
X94562000Y-89657000D01*
X94562000Y-89677000D01*
X94308000Y-89677000D01*
X94308000Y-89657000D01*
X94288000Y-89657000D01*
X94288000Y-89403000D01*
X94308000Y-89403000D01*
X94308000Y-88578750D01*
X94149250Y-88420000D01*
X93985000Y-88416928D01*
X93860518Y-88429188D01*
X93740820Y-88465498D01*
X93681485Y-88497214D01*
X93705226Y-88439898D01*
X93745000Y-88239939D01*
X93745000Y-88036061D01*
X93705226Y-87836102D01*
X93627205Y-87647744D01*
X93513937Y-87478226D01*
X93369774Y-87334063D01*
X93200256Y-87220795D01*
X93011898Y-87142774D01*
X92811939Y-87103000D01*
X92608061Y-87103000D01*
X92509991Y-87122507D01*
X92509991Y-86561808D01*
X94901004Y-84170796D01*
X94930001Y-84146999D01*
X95024974Y-84031274D01*
X95095546Y-83899245D01*
X95139003Y-83755984D01*
X95150000Y-83644331D01*
X95150000Y-83644330D01*
X95153677Y-83606998D01*
X95150000Y-83569665D01*
X95150000Y-82987425D01*
X95153676Y-82950100D01*
X95150000Y-82912775D01*
X95150000Y-82912767D01*
X95139003Y-82801114D01*
X95095546Y-82657853D01*
X95024974Y-82525824D01*
X94930001Y-82410099D01*
X94901003Y-82386301D01*
X93884571Y-81369870D01*
X93914900Y-81217396D01*
X93914900Y-80942604D01*
X93861291Y-80673093D01*
X93756133Y-80419220D01*
X93603467Y-80190739D01*
X93409161Y-79996433D01*
X93180680Y-79843767D01*
X93104399Y-79812170D01*
X93122226Y-79805744D01*
X93237694Y-79744025D01*
X93304431Y-79504137D01*
X92519900Y-78719605D01*
X92505758Y-78733748D01*
X92326152Y-78554142D01*
X92340295Y-78540000D01*
X92699505Y-78540000D01*
X93484037Y-79324531D01*
X93723925Y-79257794D01*
X93840824Y-79009108D01*
X93906961Y-78742394D01*
X93919795Y-78467903D01*
X93878831Y-78196183D01*
X93785644Y-77937674D01*
X93723925Y-77822206D01*
X93484037Y-77755469D01*
X92699505Y-78540000D01*
X92340295Y-78540000D01*
X92326152Y-78525858D01*
X92505758Y-78346252D01*
X92519900Y-78360395D01*
X93304431Y-77575863D01*
X93237694Y-77335975D01*
X92989008Y-77219076D01*
X92722294Y-77152939D01*
X92447803Y-77140105D01*
X92176083Y-77181069D01*
X91917574Y-77274256D01*
X91802106Y-77335975D01*
X91735369Y-77575861D01*
X91661775Y-77502267D01*
X91670542Y-77388297D01*
X91670542Y-77388295D01*
X91674251Y-77340074D01*
X91686046Y-77288963D01*
X91708506Y-77221582D01*
X91740486Y-77144832D01*
X91775096Y-77075612D01*
X91807661Y-77024439D01*
X91853404Y-76967261D01*
X91907337Y-76907335D01*
X91967271Y-76853394D01*
X92024437Y-76807662D01*
X92075612Y-76775096D01*
X92144832Y-76740486D01*
X92221585Y-76708505D01*
X92288964Y-76686046D01*
X92340074Y-76674251D01*
X92388295Y-76670542D01*
X92388296Y-76670542D01*
X92525341Y-76660000D01*
X95974659Y-76660000D01*
X96111703Y-76670542D01*
G37*
%TD.AperFunction*%
D17*
X98137629Y-105587429D02*
X97955181Y-105809743D01*
X97819610Y-106063379D01*
X97736125Y-106338590D01*
X97707936Y-106624800D01*
X97736125Y-106911010D01*
X97819610Y-107186221D01*
X97955181Y-107439857D01*
X98137629Y-107662171D01*
X98359943Y-107844619D01*
X98582746Y-107963710D01*
X96753478Y-109792979D01*
X96734955Y-109731917D01*
X96655198Y-109582703D01*
X96597580Y-109512495D01*
X96597580Y-109077973D01*
X96611831Y-109060608D01*
X96689278Y-108915716D01*
X96736969Y-108758500D01*
X96753072Y-108595000D01*
X96753072Y-108045000D01*
X96736969Y-107881500D01*
X96689278Y-107724284D01*
X96643000Y-107637705D01*
X96643000Y-106022791D01*
X96849873Y-105815919D01*
X96870710Y-105817971D01*
X96995192Y-105805711D01*
X97114890Y-105769401D01*
X97225204Y-105710436D01*
X97321895Y-105631084D01*
X97419979Y-105533000D01*
X98203951Y-105533000D01*
X98137629Y-105587429D01*
%TA.AperFunction,Conductor*%
D18*
G36*
X98137629Y-105587429D02*
G01*
X97955181Y-105809743D01*
X97819610Y-106063379D01*
X97736125Y-106338590D01*
X97707936Y-106624800D01*
X97736125Y-106911010D01*
X97819610Y-107186221D01*
X97955181Y-107439857D01*
X98137629Y-107662171D01*
X98359943Y-107844619D01*
X98582746Y-107963710D01*
X96753478Y-109792979D01*
X96734955Y-109731917D01*
X96655198Y-109582703D01*
X96597580Y-109512495D01*
X96597580Y-109077973D01*
X96611831Y-109060608D01*
X96689278Y-108915716D01*
X96736969Y-108758500D01*
X96753072Y-108595000D01*
X96753072Y-108045000D01*
X96736969Y-107881500D01*
X96689278Y-107724284D01*
X96643000Y-107637705D01*
X96643000Y-106022791D01*
X96849873Y-105815919D01*
X96870710Y-105817971D01*
X96995192Y-105805711D01*
X97114890Y-105769401D01*
X97225204Y-105710436D01*
X97321895Y-105631084D01*
X97419979Y-105533000D01*
X98203951Y-105533000D01*
X98137629Y-105587429D01*
G37*
%TD.AperFunction*%
D17*
X103001001Y-105317420D02*
X102197765Y-106120656D01*
X102180390Y-106063379D01*
X102044819Y-105809743D01*
X101862371Y-105587429D01*
X101640057Y-105404981D01*
X101386421Y-105269410D01*
X101111210Y-105185925D01*
X100896723Y-105164800D01*
X99103277Y-105164800D01*
X99025076Y-105172502D01*
X99934579Y-104263000D01*
X101632731Y-104263000D01*
X101676200Y-104267281D01*
X101719669Y-104263000D01*
X101719677Y-104263000D01*
X101849690Y-104250195D01*
X102016513Y-104199589D01*
X102170259Y-104117411D01*
X102305017Y-104006817D01*
X102332734Y-103973044D01*
X103001001Y-103304778D01*
X103001001Y-105317420D01*
%TA.AperFunction,Conductor*%
D18*
G36*
X103001001Y-105317420D02*
G01*
X102197765Y-106120656D01*
X102180390Y-106063379D01*
X102044819Y-105809743D01*
X101862371Y-105587429D01*
X101640057Y-105404981D01*
X101386421Y-105269410D01*
X101111210Y-105185925D01*
X100896723Y-105164800D01*
X99103277Y-105164800D01*
X99025076Y-105172502D01*
X99934579Y-104263000D01*
X101632731Y-104263000D01*
X101676200Y-104267281D01*
X101719669Y-104263000D01*
X101719677Y-104263000D01*
X101849690Y-104250195D01*
X102016513Y-104199589D01*
X102170259Y-104117411D01*
X102305017Y-104006817D01*
X102332734Y-103973044D01*
X103001001Y-103304778D01*
X103001001Y-105317420D01*
G37*
%TD.AperFunction*%
D17*
X93339272Y-92159074D02*
X93380722Y-92295716D01*
X93458169Y-92440608D01*
X93562394Y-92567606D01*
X93620000Y-92614882D01*
X93620000Y-92928464D01*
X93616324Y-92965787D01*
X93620000Y-93003109D01*
X93620000Y-93003119D01*
X93630997Y-93114772D01*
X93657248Y-93201310D01*
X93674454Y-93258033D01*
X93745026Y-93390063D01*
X93784871Y-93438613D01*
X93839999Y-93505788D01*
X93869003Y-93529591D01*
X95623147Y-95283736D01*
X95608502Y-95332015D01*
X95596242Y-95456497D01*
X95608502Y-95580979D01*
X95644812Y-95700677D01*
X95703777Y-95810991D01*
X95783129Y-95907682D01*
X96145101Y-96269654D01*
X96128248Y-96267994D01*
X96003767Y-96280255D01*
X95884069Y-96316564D01*
X95773754Y-96375528D01*
X95677063Y-96454881D01*
X95563093Y-96573196D01*
X95563093Y-96797702D01*
X96092893Y-97327502D01*
X96658048Y-96762347D01*
X96658048Y-96642696D01*
X96675518Y-96647995D01*
X96800000Y-96660255D01*
X96924482Y-96647995D01*
X96963989Y-96636011D01*
X96952005Y-96675518D01*
X96939745Y-96800000D01*
X96952005Y-96924482D01*
X96957304Y-96941952D01*
X96837653Y-96941952D01*
X96272498Y-97507107D01*
X96802298Y-98036907D01*
X97026804Y-98036907D01*
X97145119Y-97922937D01*
X97224472Y-97826246D01*
X97283436Y-97715931D01*
X97319745Y-97596233D01*
X97332006Y-97471752D01*
X97330346Y-97454899D01*
X97692318Y-97816871D01*
X97704344Y-97826741D01*
X97545468Y-97985617D01*
X97199644Y-98503179D01*
X96961437Y-99078262D01*
X96840000Y-99688767D01*
X96840000Y-100311233D01*
X96961437Y-100921738D01*
X97199644Y-101496821D01*
X97545468Y-102014383D01*
X97704344Y-102173259D01*
X97692318Y-102183129D01*
X97400092Y-102475355D01*
X97326796Y-102475355D01*
X97319745Y-102403767D01*
X97283436Y-102284069D01*
X97224472Y-102173754D01*
X97145119Y-102077063D01*
X97026804Y-101963093D01*
X96802298Y-101963093D01*
X96272498Y-102492893D01*
X96286641Y-102507036D01*
X96107036Y-102686641D01*
X96092893Y-102672498D01*
X95563093Y-103202298D01*
X95563093Y-103342105D01*
X94465000Y-104440198D01*
X92509991Y-102485190D01*
X92509991Y-102457538D01*
X94853780Y-102457538D01*
X94866041Y-102582019D01*
X94902350Y-102701717D01*
X94961314Y-102812032D01*
X95040667Y-102908723D01*
X95158982Y-103022693D01*
X95383488Y-103022693D01*
X95913288Y-102492893D01*
X95348133Y-101927738D01*
X95123626Y-101927738D01*
X95040667Y-102006353D01*
X94961314Y-102103044D01*
X94902350Y-102213358D01*
X94866041Y-102333056D01*
X94853780Y-102457538D01*
X92509991Y-102457538D01*
X92509991Y-101523626D01*
X95527738Y-101523626D01*
X95527738Y-101748133D01*
X96092893Y-102313288D01*
X96622693Y-101783488D01*
X96622693Y-101558982D01*
X96508723Y-101440667D01*
X96412032Y-101361314D01*
X96301717Y-101302350D01*
X96182019Y-101266041D01*
X96057538Y-101253780D01*
X95933056Y-101266041D01*
X95813358Y-101302350D01*
X95703044Y-101361314D01*
X95606353Y-101440667D01*
X95527738Y-101523626D01*
X92509991Y-101523626D01*
X92509991Y-98251867D01*
X95527738Y-98251867D01*
X95527738Y-98476374D01*
X95606353Y-98559333D01*
X95703044Y-98638686D01*
X95813358Y-98697650D01*
X95933056Y-98733959D01*
X96057538Y-98746220D01*
X96182019Y-98733959D01*
X96301717Y-98697650D01*
X96412032Y-98638686D01*
X96508723Y-98559333D01*
X96622693Y-98441018D01*
X96622693Y-98216512D01*
X96092893Y-97686712D01*
X95527738Y-98251867D01*
X92509991Y-98251867D01*
X92509991Y-97542462D01*
X94853780Y-97542462D01*
X94866041Y-97666944D01*
X94902350Y-97786642D01*
X94961314Y-97896956D01*
X95040667Y-97993647D01*
X95123626Y-98072262D01*
X95348133Y-98072262D01*
X95913288Y-97507107D01*
X95383488Y-96977307D01*
X95158982Y-96977307D01*
X95040667Y-97091277D01*
X94961314Y-97187968D01*
X94902350Y-97298283D01*
X94866041Y-97417981D01*
X94853780Y-97542462D01*
X92509991Y-97542462D01*
X92509991Y-91329792D01*
X93339272Y-92159074D01*
%TA.AperFunction,Conductor*%
D18*
G36*
X93339272Y-92159074D02*
G01*
X93380722Y-92295716D01*
X93458169Y-92440608D01*
X93562394Y-92567606D01*
X93620000Y-92614882D01*
X93620000Y-92928464D01*
X93616324Y-92965787D01*
X93620000Y-93003109D01*
X93620000Y-93003119D01*
X93630997Y-93114772D01*
X93657248Y-93201310D01*
X93674454Y-93258033D01*
X93745026Y-93390063D01*
X93784871Y-93438613D01*
X93839999Y-93505788D01*
X93869003Y-93529591D01*
X95623147Y-95283736D01*
X95608502Y-95332015D01*
X95596242Y-95456497D01*
X95608502Y-95580979D01*
X95644812Y-95700677D01*
X95703777Y-95810991D01*
X95783129Y-95907682D01*
X96145101Y-96269654D01*
X96128248Y-96267994D01*
X96003767Y-96280255D01*
X95884069Y-96316564D01*
X95773754Y-96375528D01*
X95677063Y-96454881D01*
X95563093Y-96573196D01*
X95563093Y-96797702D01*
X96092893Y-97327502D01*
X96658048Y-96762347D01*
X96658048Y-96642696D01*
X96675518Y-96647995D01*
X96800000Y-96660255D01*
X96924482Y-96647995D01*
X96963989Y-96636011D01*
X96952005Y-96675518D01*
X96939745Y-96800000D01*
X96952005Y-96924482D01*
X96957304Y-96941952D01*
X96837653Y-96941952D01*
X96272498Y-97507107D01*
X96802298Y-98036907D01*
X97026804Y-98036907D01*
X97145119Y-97922937D01*
X97224472Y-97826246D01*
X97283436Y-97715931D01*
X97319745Y-97596233D01*
X97332006Y-97471752D01*
X97330346Y-97454899D01*
X97692318Y-97816871D01*
X97704344Y-97826741D01*
X97545468Y-97985617D01*
X97199644Y-98503179D01*
X96961437Y-99078262D01*
X96840000Y-99688767D01*
X96840000Y-100311233D01*
X96961437Y-100921738D01*
X97199644Y-101496821D01*
X97545468Y-102014383D01*
X97704344Y-102173259D01*
X97692318Y-102183129D01*
X97400092Y-102475355D01*
X97326796Y-102475355D01*
X97319745Y-102403767D01*
X97283436Y-102284069D01*
X97224472Y-102173754D01*
X97145119Y-102077063D01*
X97026804Y-101963093D01*
X96802298Y-101963093D01*
X96272498Y-102492893D01*
X96286641Y-102507036D01*
X96107036Y-102686641D01*
X96092893Y-102672498D01*
X95563093Y-103202298D01*
X95563093Y-103342105D01*
X94465000Y-104440198D01*
X92509991Y-102485190D01*
X92509991Y-102457538D01*
X94853780Y-102457538D01*
X94866041Y-102582019D01*
X94902350Y-102701717D01*
X94961314Y-102812032D01*
X95040667Y-102908723D01*
X95158982Y-103022693D01*
X95383488Y-103022693D01*
X95913288Y-102492893D01*
X95348133Y-101927738D01*
X95123626Y-101927738D01*
X95040667Y-102006353D01*
X94961314Y-102103044D01*
X94902350Y-102213358D01*
X94866041Y-102333056D01*
X94853780Y-102457538D01*
X92509991Y-102457538D01*
X92509991Y-101523626D01*
X95527738Y-101523626D01*
X95527738Y-101748133D01*
X96092893Y-102313288D01*
X96622693Y-101783488D01*
X96622693Y-101558982D01*
X96508723Y-101440667D01*
X96412032Y-101361314D01*
X96301717Y-101302350D01*
X96182019Y-101266041D01*
X96057538Y-101253780D01*
X95933056Y-101266041D01*
X95813358Y-101302350D01*
X95703044Y-101361314D01*
X95606353Y-101440667D01*
X95527738Y-101523626D01*
X92509991Y-101523626D01*
X92509991Y-98251867D01*
X95527738Y-98251867D01*
X95527738Y-98476374D01*
X95606353Y-98559333D01*
X95703044Y-98638686D01*
X95813358Y-98697650D01*
X95933056Y-98733959D01*
X96057538Y-98746220D01*
X96182019Y-98733959D01*
X96301717Y-98697650D01*
X96412032Y-98638686D01*
X96508723Y-98559333D01*
X96622693Y-98441018D01*
X96622693Y-98216512D01*
X96092893Y-97686712D01*
X95527738Y-98251867D01*
X92509991Y-98251867D01*
X92509991Y-97542462D01*
X94853780Y-97542462D01*
X94866041Y-97666944D01*
X94902350Y-97786642D01*
X94961314Y-97896956D01*
X95040667Y-97993647D01*
X95123626Y-98072262D01*
X95348133Y-98072262D01*
X95913288Y-97507107D01*
X95383488Y-96977307D01*
X95158982Y-96977307D01*
X95040667Y-97091277D01*
X94961314Y-97187968D01*
X94902350Y-97298283D01*
X94866041Y-97417981D01*
X94853780Y-97542462D01*
X92509991Y-97542462D01*
X92509991Y-91329792D01*
X93339272Y-92159074D01*
G37*
%TD.AperFunction*%
D17*
X93470000Y-89695750D02*
X93470000Y-89657002D01*
X93508748Y-89657002D01*
X93470000Y-89695750D01*
%TA.AperFunction,Conductor*%
D18*
G36*
X93470000Y-89695750D02*
G01*
X93470000Y-89657002D01*
X93508748Y-89657002D01*
X93470000Y-89695750D01*
G37*
%TD.AperFunction*%
%TD*%
M02*
